<svg version="1.1" viewBox="0.0 0.0 600.0 371.0" fill="none" stroke="none" stroke-linecap="square" stroke-miterlimit="10" width="600" height="371" xmlns:xlink="http://www.w3.org/1999/xlink" xmlns="http://www.w3.org/2000/svg"><path fill="#ffffff" d="M0 0L600.0 0L600.0 371.0L0 371.0L0 0Z" fill-rule="nonzero"/><path stroke="#333333" stroke-width="1.0" stroke-linecap="butt" d="M59.5 300.5L581.5 300.5" fill-rule="nonzero"/><path stroke="#cccccc" stroke-width="1.0" stroke-linecap="butt" d="M59.5 229.5L581.5 229.5" fill-rule="nonzero"/><path stroke="#cccccc" stroke-width="1.0" stroke-linecap="butt" d="M59.5 159.5L581.5 159.5" fill-rule="nonzero"/><path stroke="#cccccc" stroke-width="1.0" stroke-linecap="butt" d="M59.5 88.5L581.5 88.5" fill-rule="nonzero"/><clipPath id="id_0"><path d="M59.55 88.28333L581.45 88.28333L581.45 300.45L59.55 300.45L59.55 88.28333Z" clip-rule="nonzero"/></clipPath><path stroke="#000000" stroke-width="0.0" stroke-linecap="butt" stroke-opacity="0.0" clip-path="url(#id_0)" d="M121.0 300.0L103.0 300.0L103.0 252.0C103.0 250.89543 103.89543 250.0 105.0 250.0L119.0 250.0C120.10457 250.0 121.0 250.89543 121.0 252.0Z" fill-rule="nonzero"/><path fill="#4285f4" clip-path="url(#id_0)" d="M121.0 300.0L103.0 300.0L103.0 252.0C103.0 250.89543 103.89543 250.0 105.0 250.0L119.0 250.0C120.10457 250.0 121.0 250.89543 121.0 252.0Z" fill-rule="nonzero"/><path stroke="#000000" stroke-width="0.0" stroke-linecap="butt" stroke-opacity="0.0" clip-path="url(#id_0)" d="M241.0 300.0L223.0 300.0L223.0 201.0C223.0 199.89543 223.89543 199.0 225.0 199.0L239.0 199.0C240.10457 199.0 241.0 199.89543 241.0 201.0Z" fill-rule="nonzero"/><path fill="#4285f4" clip-path="url(#id_0)" d="M241.0 300.0L223.0 300.0L223.0 201.0C223.0 199.89543 223.89543 199.0 225.0 199.0L239.0 199.0C240.10457 199.0 241.0 199.89543 241.0 201.0Z" fill-rule="nonzero"/><path stroke="#000000" stroke-width="0.0" stroke-linecap="butt" stroke-opacity="0.0" clip-path="url(#id_0)" d="M360.0 300.0L342.0 300.0L342.0 150.0C342.0 148.89543 342.89542 148.0 344.0 148.0L358.0 148.0C359.10458 148.0 360.0 148.89543 360.0 150.0Z" fill-rule="nonzero"/><path fill="#4285f4" clip-path="url(#id_0)" d="M360.0 300.0L342.0 300.0L342.0 150.0C342.0 148.89543 342.89542 148.0 344.0 148.0L358.0 148.0C359.10458 148.0 360.0 148.89543 360.0 150.0Z" fill-rule="nonzero"/><path stroke="#000000" stroke-width="0.0" stroke-linecap="butt" stroke-opacity="0.0" clip-path="url(#id_0)" d="M480.0 300.0L462.0 300.0L462.0 99.0C462.0 97.89543 462.89542 97.0 464.0 97.0L478.0 97.0C479.10458 97.0 480.0 97.89543 480.0 99.0Z" fill-rule="nonzero"/><path fill="#4285f4" clip-path="url(#id_0)" d="M480.0 300.0L462.0 300.0L462.0 99.0C462.0 97.89543 462.89542 97.0 464.0 97.0L478.0 97.0C479.10458 97.0 480.0 97.89543 480.0 99.0Z" fill-rule="nonzero"/><path stroke="#000000" stroke-width="0.0" stroke-linecap="butt" stroke-opacity="0.0" clip-path="url(#id_0)" d="M140.0 300.0L122.0 300.0L122.0 201.0C122.0 199.89543 122.89543 199.0 124.0 199.0L138.0 199.0C139.10457 199.0 140.0 199.89543 140.0 201.0Z" fill-rule="nonzero"/><path fill="#ea4335" clip-path="url(#id_0)" d="M140.0 300.0L122.0 300.0L122.0 201.0C122.0 199.89543 122.89543 199.0 124.0 199.0L138.0 199.0C139.10457 199.0 140.0 199.89543 140.0 201.0Z" fill-rule="nonzero"/><path stroke="#000000" stroke-width="0.0" stroke-linecap="butt" stroke-opacity="0.0" clip-path="url(#id_0)" d="M260.0 300.0L242.0 300.0L242.0 150.0C242.0 148.89543 242.89543 148.0 244.0 148.0L258.0 148.0C259.10458 148.0 260.0 148.89543 260.0 150.0Z" fill-rule="nonzero"/><path fill="#ea4335" clip-path="url(#id_0)" d="M260.0 300.0L242.0 300.0L242.0 150.0C242.0 148.89543 242.89543 148.0 244.0 148.0L258.0 148.0C259.10458 148.0 260.0 148.89543 260.0 150.0Z" fill-rule="nonzero"/><path stroke="#000000" stroke-width="0.0" stroke-linecap="butt" stroke-opacity="0.0" clip-path="url(#id_0)" d="M379.0 300.0L361.0 300.0L361.0 99.0C361.0 97.89543 361.89542 97.0 363.0 97.0L377.0 97.0C378.10458 97.0 379.0 97.89543 379.0 99.0Z" fill-rule="nonzero"/><path fill="#ea4335" clip-path="url(#id_0)" d="M379.0 300.0L361.0 300.0L361.0 99.0C361.0 97.89543 361.89542 97.0 363.0 97.0L377.0 97.0C378.10458 97.0 379.0 97.89543 379.0 99.0Z" fill-rule="nonzero"/><path stroke="#000000" stroke-width="0.0" stroke-linecap="butt" stroke-opacity="0.0" clip-path="url(#id_0)" d="M499.0 300.0L481.0 300.0L481.0 252.0C481.0 250.89543 481.89542 250.0 483.0 250.0L497.0 250.0C498.10458 250.0 499.0 250.89543 499.0 252.0Z" fill-rule="nonzero"/><path fill="#ea4335" clip-path="url(#id_0)" d="M499.0 300.0L481.0 300.0L481.0 252.0C481.0 250.89543 481.89542 250.0 483.0 250.0L497.0 250.0C498.10458 250.0 499.0 250.89543 499.0 252.0Z" fill-rule="nonzero"/><path stroke="#000000" stroke-width="0.0" stroke-linecap="butt" stroke-opacity="0.0" clip-path="url(#id_0)" d="M159.0 300.0L141.0 300.0L141.0 150.0C141.0 148.89543 141.89543 148.0 143.0 148.0L157.0 148.0C158.10457 148.0 159.0 148.89543 159.0 150.0Z" fill-rule="nonzero"/><path fill="#fbbc04" clip-path="url(#id_0)" d="M159.0 300.0L141.0 300.0L141.0 150.0C141.0 148.89543 141.89543 148.0 143.0 148.0L157.0 148.0C158.10457 148.0 159.0 148.89543 159.0 150.0Z" fill-rule="nonzero"/><path stroke="#000000" stroke-width="0.0" stroke-linecap="butt" stroke-opacity="0.0" clip-path="url(#id_0)" d="M279.0 300.0L261.0 300.0L261.0 99.0C261.0 97.89543 261.89542 97.0 263.0 97.0L277.0 97.0C278.10458 97.0 279.0 97.89543 279.0 99.0Z" fill-rule="nonzero"/><path fill="#fbbc04" clip-path="url(#id_0)" d="M279.0 300.0L261.0 300.0L261.0 99.0C261.0 97.89543 261.89542 97.0 263.0 97.0L277.0 97.0C278.10458 97.0 279.0 97.89543 279.0 99.0Z" fill-rule="nonzero"/><path stroke="#000000" stroke-width="0.0" stroke-linecap="butt" stroke-opacity="0.0" clip-path="url(#id_0)" d="M398.0 300.0L380.0 300.0L380.0 252.0C380.0 250.89543 380.89542 250.0 382.0 250.0L396.0 250.0C397.10458 250.0 398.0 250.89543 398.0 252.0Z" fill-rule="nonzero"/><path fill="#fbbc04" clip-path="url(#id_0)" d="M398.0 300.0L380.0 300.0L380.0 252.0C380.0 250.89543 380.89542 250.0 382.0 250.0L396.0 250.0C397.10458 250.0 398.0 250.89543 398.0 252.0Z" fill-rule="nonzero"/><path stroke="#000000" stroke-width="0.0" stroke-linecap="butt" stroke-opacity="0.0" clip-path="url(#id_0)" d="M518.0 300.0L500.0 300.0L500.0 201.0C500.0 199.89543 500.89542 199.0 502.0 199.0L516.0 199.0C517.10455 199.0 518.0 199.89543 518.0 201.0Z" fill-rule="nonzero"/><path fill="#fbbc04" clip-path="url(#id_0)" d="M518.0 300.0L500.0 300.0L500.0 201.0C500.0 199.89543 500.89542 199.0 502.0 199.0L516.0 199.0C517.10455 199.0 518.0 199.89543 518.0 201.0Z" fill-rule="nonzero"/><path stroke="#000000" stroke-width="0.0" stroke-linecap="butt" stroke-opacity="0.0" clip-path="url(#id_0)" d="M178.0 300.0L160.0 300.0L160.0 277.0C160.0 275.89542 160.89543 275.0 162.0 275.0L176.0 275.0C177.10457 275.0 178.0 275.89542 178.0 277.0Z" fill-rule="nonzero"/><path fill="#34a853" clip-path="url(#id_0)" d="M178.0 300.0L160.0 300.0L160.0 277.0C160.0 275.89542 160.89543 275.0 162.0 275.0L176.0 275.0C177.10457 275.0 178.0 275.89542 178.0 277.0Z" fill-rule="nonzero"/><path stroke="#000000" stroke-width="0.0" stroke-linecap="butt" stroke-opacity="0.0" clip-path="url(#id_0)" d="M298.0 300.0L280.0 300.0L280.0 261.0C280.0 259.89542 280.89542 259.0 282.0 259.0L296.0 259.0C297.10458 259.0 298.0 259.89542 298.0 261.0Z" fill-rule="nonzero"/><path fill="#34a853" clip-path="url(#id_0)" d="M298.0 300.0L280.0 300.0L280.0 261.0C280.0 259.89542 280.89542 259.0 282.0 259.0L296.0 259.0C297.10458 259.0 298.0 259.89542 298.0 261.0Z" fill-rule="nonzero"/><path stroke="#000000" stroke-width="0.0" stroke-linecap="butt" stroke-opacity="0.0" clip-path="url(#id_0)" d="M417.0 300.0L399.0 300.0L399.0 246.0C399.0 244.89543 399.89542 244.0 401.0 244.0L415.0 244.0C416.10458 244.0 417.0 244.89543 417.0 246.0Z" fill-rule="nonzero"/><path fill="#34a853" clip-path="url(#id_0)" d="M417.0 300.0L399.0 300.0L399.0 246.0C399.0 244.89543 399.89542 244.0 401.0 244.0L415.0 244.0C416.10458 244.0 417.0 244.89543 417.0 246.0Z" fill-rule="nonzero"/><path stroke="#000000" stroke-width="0.0" stroke-linecap="butt" stroke-opacity="0.0" clip-path="url(#id_0)" d="M537.0 300.0L519.0 300.0L519.0 218.0C519.0 216.89543 519.89545 216.0 521.0 216.0L535.0 216.0C536.10455 216.0 537.0 216.89543 537.0 218.0Z" fill-rule="nonzero"/><path fill="#34a853" clip-path="url(#id_0)" d="M537.0 300.0L519.0 300.0L519.0 218.0C519.0 216.89543 519.89545 216.0 521.0 216.0L535.0 216.0C536.10455 216.0 537.0 216.89543 537.0 218.0Z" fill-rule="nonzero"/><path fill="#000000" d="M307.96875 349.45L307.96875 340.85626L309.09375 340.85626L309.09375 344.3875L313.5625 344.3875L313.5625 340.85626L314.70312 340.85626L314.70312 349.45L313.5625 349.45L313.5625 345.40314L309.09375 345.40314L309.09375 349.45L307.96875 349.45ZM316.40625 346.34064Q316.40625 344.60626 317.35938 343.77814Q318.15625 343.09064 319.3125 343.09064Q320.59375 343.09064 321.40625 343.9344Q322.23438 344.7625 322.23438 346.2469Q322.23438 347.45 321.875 348.1375Q321.51562 348.825 320.8125 349.21564Q320.125 349.59064 319.3125 349.59064Q318.01562 349.59064 317.20312 348.7625Q316.40625 347.91876 316.40625 346.34064ZM317.48438 346.34064Q317.48438 347.52814 318.0 348.1219Q318.53125 348.71564 319.3125 348.71564Q320.10938 348.71564 320.625 348.1219Q321.14062 347.52814 321.14062 346.3094Q321.14062 345.15314 320.60938 344.5594Q320.09375 343.96564 319.3125 343.96564Q318.53125 343.96564 318.0 344.5594Q317.48438 345.1375 317.48438 346.34064ZM327.875 349.45L327.875 348.52814Q327.14062 349.59064 325.89062 349.59064Q325.34375 349.59064 324.85938 349.3875Q324.39062 349.16876 324.15625 348.85626Q323.92188 348.52814 323.82812 348.0594Q323.76562 347.7625 323.76562 347.075L323.76562 343.23126L324.82812 343.23126L324.82812 346.6844Q324.82812 347.4969 324.89062 347.79376Q324.98438 348.2 325.29688 348.45Q325.625 348.6844 326.10938 348.6844Q326.57812 348.6844 326.98438 348.45Q327.40625 348.2 327.57812 347.77814Q327.76562 347.35626 327.76562 346.5594L327.76562 343.23126L328.8125 343.23126L328.8125 349.45L327.875 349.45ZM330.78125 349.45L330.78125 343.23126L331.73438 343.23126L331.73438 344.16876Q332.09375 343.5125 332.39062 343.3094Q332.70312 343.09064 333.07812 343.09064Q333.60938 343.09064 334.15625 343.41876L333.79688 344.40314Q333.40625 344.16876 333.03125 344.16876Q332.67188 344.16876 332.39062 344.3875Q332.125 344.59064 332.01562 344.96564Q331.82812 345.52814 331.82812 346.1844L331.82812 349.45L330.78125 349.45Z" fill-rule="nonzero"/><path fill="#000000" d="M47.05 300.21564Q47.05 298.6844 47.3625 297.7625Q47.675 296.825 48.284374 296.325Q48.909374 295.825 49.846874 295.825Q50.534374 295.825 51.05 296.10626Q51.58125 296.3875 51.925 296.91876Q52.26875 297.4344 52.45625 298.1844Q52.64375 298.9344 52.64375 300.21564Q52.64375 301.73126 52.33125 302.65314Q52.034374 303.575 51.409374 304.09064Q50.8 304.59064 49.846874 304.59064Q48.6125 304.59064 47.89375 303.7Q47.05 302.6375 47.05 300.21564ZM48.128124 300.21564Q48.128124 302.325 48.628124 303.02814Q49.128124 303.73126 49.846874 303.73126Q50.58125 303.73126 51.065624 303.02814Q51.565624 302.325 51.565624 300.21564Q51.565624 298.09064 51.065624 297.40314Q50.58125 296.7 49.83125 296.7Q49.1125 296.7 48.675 297.3094Q48.128124 298.09064 48.128124 300.21564Z" fill-rule="nonzero"/><path fill="#000000" d="M26.05 231.47778L27.159374 231.38403Q27.284374 232.19653 27.721874 232.60278Q28.175 233.00903 28.815624 233.00903Q29.565624 233.00903 30.096874 232.43091Q30.628124 231.85278 30.628124 230.91528Q30.628124 230.00903 30.1125 229.49341Q29.6125 228.96216 28.784374 228.96216Q28.284374 228.96216 27.8625 229.19653Q27.45625 229.43091 27.221874 229.79028L26.2375 229.66528L27.065624 225.25903L31.346874 225.25903L31.346874 226.25903L27.909374 226.25903L27.45625 228.57153Q28.221874 228.02466 29.065624 228.02466Q30.190624 228.02466 30.95625 228.80591Q31.7375 229.58716 31.7375 230.82153Q31.7375 231.97778 31.065624 232.83716Q30.2375 233.86841 28.815624 233.86841Q27.64375 233.86841 26.89375 233.21216Q26.159374 232.55591 26.05 231.47778ZM33.05 229.49341Q33.05 227.96216 33.3625 227.04028Q33.675 226.10278 34.284374 225.60278Q34.909374 225.10278 35.846874 225.10278Q36.534374 225.10278 37.05 225.38403Q37.58125 225.66528 37.925 226.19653Q38.26875 226.71216 38.45625 227.46216Q38.64375 228.21216 38.64375 229.49341Q38.64375 231.00903 38.33125 231.93091Q38.034374 232.85278 37.409374 233.36841Q36.8 233.86841 35.846874 233.86841Q34.6125 233.86841 33.89375 232.97778Q33.05 231.91528 33.05 229.49341ZM34.128124 229.49341Q34.128124 231.60278 34.628124 232.30591Q35.128124 233.00903 35.846874 233.00903Q36.58125 233.00903 37.065624 232.30591Q37.565624 231.60278 37.565624 229.49341Q37.565624 227.36841 37.065624 226.68091Q36.58125 225.97778 35.83125 225.97778Q35.1125 225.97778 34.675 226.58716Q34.128124 227.36841 34.128124 229.49341ZM40.05 229.49341Q40.05 227.96216 40.3625 227.04028Q40.675 226.10278 41.284374 225.60278Q41.909374 225.10278 42.846874 225.10278Q43.534374 225.10278 44.05 225.38403Q44.58125 225.66528 44.925 226.19653Q45.26875 226.71216 45.45625 227.46216Q45.64375 228.21216 45.64375 229.49341Q45.64375 231.00903 45.33125 231.93091Q45.034374 232.85278 44.409374 233.36841Q43.8 233.86841 42.846874 233.86841Q41.6125 233.86841 40.89375 232.97778Q40.05 231.91528 40.05 229.49341ZM41.128124 229.49341Q41.128124 231.60278 41.628124 232.30591Q42.128124 233.00903 42.846874 233.00903Q43.58125 233.00903 44.065624 232.30591Q44.565624 231.60278 44.565624 229.49341Q44.565624 227.36841 44.065624 226.68091Q43.58125 225.97778 42.83125 225.97778Q42.1125 225.97778 41.675 226.58716Q41.128124 227.36841 41.128124 229.49341ZM47.05 229.49341Q47.05 227.96216 47.3625 227.04028Q47.675 226.10278 48.284374 225.60278Q48.909374 225.10278 49.846874 225.10278Q50.534374 225.10278 51.05 225.38403Q51.58125 225.66528 51.925 226.19653Q52.26875 226.71216 52.45625 227.46216Q52.64375 228.21216 52.64375 229.49341Q52.64375 231.00903 52.33125 231.93091Q52.034374 232.85278 51.409374 233.36841Q50.8 233.86841 49.846874 233.86841Q48.6125 233.86841 47.89375 232.97778Q47.05 231.91528 47.05 229.49341ZM48.128124 229.49341Q48.128124 231.60278 48.628124 232.30591Q49.128124 233.00903 49.846874 233.00903Q50.58125 233.00903 51.065624 232.30591Q51.565624 231.60278 51.565624 229.49341Q51.565624 227.36841 51.065624 226.68091Q50.58125 225.97778 49.83125 225.97778Q49.1125 225.97778 48.675 226.58716Q48.128124 227.36841 48.128124 229.49341Z" fill-rule="nonzero"/><path fill="#000000" d="M23.01875 163.00555L21.971874 163.00555L21.971874 156.2868Q21.58125 156.64618 20.95625 157.02118Q20.346874 157.38055 19.8625 157.55243L19.8625 156.5368Q20.7375 156.11493 21.39375 155.5368Q22.065624 154.94305 22.346874 154.38055L23.01875 154.38055L23.01875 163.00555ZM26.05 158.77118Q26.05 157.23993 26.3625 156.31805Q26.675 155.38055 27.284374 154.88055Q27.909374 154.38055 28.846874 154.38055Q29.534374 154.38055 30.05 154.6618Q30.58125 154.94305 30.925 155.4743Q31.26875 155.98993 31.45625 156.73993Q31.64375 157.48993 31.64375 158.77118Q31.64375 160.2868 31.33125 161.20868Q31.034374 162.13055 30.409374 162.64618Q29.8 163.14618 28.846874 163.14618Q27.6125 163.14618 26.89375 162.25555Q26.05 161.19305 26.05 158.77118ZM27.128124 158.77118Q27.128124 160.88055 27.628124 161.58368Q28.128124 162.2868 28.846874 162.2868Q29.58125 162.2868 30.065624 161.58368Q30.565624 160.88055 30.565624 158.77118Q30.565624 156.64618 30.065624 155.95868Q29.58125 155.25555 28.83125 155.25555Q28.1125 155.25555 27.675 155.86493Q27.128124 156.64618 27.128124 158.77118ZM33.05 158.77118Q33.05 157.23993 33.3625 156.31805Q33.675 155.38055 34.284374 154.88055Q34.909374 154.38055 35.846874 154.38055Q36.534374 154.38055 37.05 154.6618Q37.58125 154.94305 37.925 155.4743Q38.26875 155.98993 38.45625 156.73993Q38.64375 157.48993 38.64375 158.77118Q38.64375 160.2868 38.33125 161.20868Q38.034374 162.13055 37.409374 162.64618Q36.8 163.14618 35.846874 163.14618Q34.6125 163.14618 33.89375 162.25555Q33.05 161.19305 33.05 158.77118ZM34.128124 158.77118Q34.128124 160.88055 34.628124 161.58368Q35.128124 162.2868 35.846874 162.2868Q36.58125 162.2868 37.065624 161.58368Q37.565624 160.88055 37.565624 158.77118Q37.565624 156.64618 37.065624 155.95868Q36.58125 155.25555 35.83125 155.25555Q35.1125 155.25555 34.675 155.86493Q34.128124 156.64618 34.128124 158.77118ZM40.05 158.77118Q40.05 157.23993 40.3625 156.31805Q40.675 155.38055 41.284374 154.88055Q41.909374 154.38055 42.846874 154.38055Q43.534374 154.38055 44.05 154.6618Q44.58125 154.94305 44.925 155.4743Q45.26875 155.98993 45.45625 156.73993Q45.64375 157.48993 45.64375 158.77118Q45.64375 160.2868 45.33125 161.20868Q45.034374 162.13055 44.409374 162.64618Q43.8 163.14618 42.846874 163.14618Q41.6125 163.14618 40.89375 162.25555Q40.05 161.19305 40.05 158.77118ZM41.128124 158.77118Q41.128124 160.88055 41.628124 161.58368Q42.128124 162.2868 42.846874 162.2868Q43.58125 162.2868 44.065624 161.58368Q44.565624 160.88055 44.565624 158.77118Q44.565624 156.64618 44.065624 155.95868Q43.58125 155.25555 42.83125 155.25555Q42.1125 155.25555 41.675 155.86493Q41.128124 156.64618 41.128124 158.77118ZM47.05 158.77118Q47.05 157.23993 47.3625 156.31805Q47.675 155.38055 48.284374 154.88055Q48.909374 154.38055 49.846874 154.38055Q50.534374 154.38055 51.05 154.6618Q51.58125 154.94305 51.925 155.4743Q52.26875 155.98993 52.45625 156.73993Q52.64375 157.48993 52.64375 158.77118Q52.64375 160.2868 52.33125 161.20868Q52.034374 162.13055 51.409374 162.64618Q50.8 163.14618 49.846874 163.14618Q48.6125 163.14618 47.89375 162.25555Q47.05 161.19305 47.05 158.77118ZM48.128124 158.77118Q48.128124 160.88055 48.628124 161.58368Q49.128124 162.2868 49.846874 162.2868Q50.58125 162.2868 51.065624 161.58368Q51.565624 160.88055 51.565624 158.77118Q51.565624 156.64618 51.065624 155.95868Q50.58125 155.25555 49.83125 155.25555Q49.1125 155.25555 48.675 155.86493Q48.128124 156.64618 48.128124 158.77118Z" fill-rule="nonzero"/><path fill="#000000" d="M23.01875 92.28333L21.971874 92.28333L21.971874 85.56458Q21.58125 85.92396 20.95625 86.29896Q20.346874 86.65833 19.8625 86.83021L19.8625 85.81458Q20.7375 85.39271 21.39375 84.81458Q22.065624 84.22083 22.346874 83.65833L23.01875 83.65833L23.01875 92.28333ZM26.05 90.03333L27.159374 89.93958Q27.284374 90.75208 27.721874 91.15833Q28.175 91.56458 28.815624 91.56458Q29.565624 91.56458 30.096874 90.98646Q30.628124 90.40833 30.628124 89.47083Q30.628124 88.56458 30.1125 88.04896Q29.6125 87.51771 28.784374 87.51771Q28.284374 87.51771 27.8625 87.75208Q27.45625 87.98646 27.221874 88.34583L26.2375 88.22083L27.065624 83.81458L31.346874 83.81458L31.346874 84.81458L27.909374 84.81458L27.45625 87.12708Q28.221874 86.58021 29.065624 86.58021Q30.190624 86.58021 30.95625 87.36146Q31.7375 88.14271 31.7375 89.37708Q31.7375 90.53333 31.065624 91.39271Q30.2375 92.42396 28.815624 92.42396Q27.64375 92.42396 26.89375 91.76771Q26.159374 91.11146 26.05 90.03333ZM33.05 88.04896Q33.05 86.51771 33.3625 85.59583Q33.675 84.65833 34.284374 84.15833Q34.909374 83.65833 35.846874 83.65833Q36.534374 83.65833 37.05 83.93958Q37.58125 84.22083 37.925 84.75208Q38.26875 85.26771 38.45625 86.01771Q38.64375 86.76771 38.64375 88.04896Q38.64375 89.56458 38.33125 90.48646Q38.034374 91.40833 37.409374 91.92396Q36.8 92.42396 35.846874 92.42396Q34.6125 92.42396 33.89375 91.53333Q33.05 90.47083 33.05 88.04896ZM34.128124 88.04896Q34.128124 90.15833 34.628124 90.86146Q35.128124 91.56458 35.846874 91.56458Q36.58125 91.56458 37.065624 90.86146Q37.565624 90.15833 37.565624 88.04896Q37.565624 85.92396 37.065624 85.23646Q36.58125 84.53333 35.83125 84.53333Q35.1125 84.53333 34.675 85.14271Q34.128124 85.92396 34.128124 88.04896ZM40.05 88.04896Q40.05 86.51771 40.3625 85.59583Q40.675 84.65833 41.284374 84.15833Q41.909374 83.65833 42.846874 83.65833Q43.534374 83.65833 44.05 83.93958Q44.58125 84.22083 44.925 84.75208Q45.26875 85.26771 45.45625 86.01771Q45.64375 86.76771 45.64375 88.04896Q45.64375 89.56458 45.33125 90.48646Q45.034374 91.40833 44.409374 91.92396Q43.8 92.42396 42.846874 92.42396Q41.6125 92.42396 40.89375 91.53333Q40.05 90.47083 40.05 88.04896ZM41.128124 88.04896Q41.128124 90.15833 41.628124 90.86146Q42.128124 91.56458 42.846874 91.56458Q43.58125 91.56458 44.065624 90.86146Q44.565624 90.15833 44.565624 88.04896Q44.565624 85.92396 44.065624 85.23646Q43.58125 84.53333 42.83125 84.53333Q42.1125 84.53333 41.675 85.14271Q41.128124 85.92396 41.128124 88.04896ZM47.05 88.04896Q47.05 86.51771 47.3625 85.59583Q47.675 84.65833 48.284374 84.15833Q48.909374 83.65833 49.846874 83.65833Q50.534374 83.65833 51.05 83.93958Q51.58125 84.22083 51.925 84.75208Q52.26875 85.26771 52.45625 86.01771Q52.64375 86.76771 52.64375 88.04896Q52.64375 89.56458 52.33125 90.48646Q52.034374 91.40833 51.409374 91.92396Q50.8 92.42396 49.846874 92.42396Q48.6125 92.42396 47.89375 91.53333Q47.05 90.47083 47.05 88.04896ZM48.128124 88.04896Q48.128124 90.15833 48.628124 90.86146Q49.128124 91.56458 49.846874 91.56458Q50.58125 91.56458 51.065624 90.86146Q51.565624 90.15833 51.565624 88.04896Q51.565624 85.92396 51.065624 85.23646Q50.58125 84.53333 49.83125 84.53333Q49.1125 84.53333 48.675 85.14271Q48.128124 85.92396 48.128124 88.04896Z" fill-rule="nonzero"/><path fill="#000000" d="M141.50323 317.45L140.45636 317.45L140.45636 310.73126Q140.06573 311.09064 139.44073 311.46564Q138.83136 311.825 138.34698 311.9969L138.34698 310.98126Q139.22198 310.5594 139.87823 309.98126Q140.55011 309.3875 140.83136 308.825L141.50323 308.825L141.50323 317.45Z" fill-rule="nonzero"/><path fill="#000000" d="M263.05838 316.4344L263.05838 317.45L257.37088 317.45Q257.37088 317.075 257.49588 316.71564Q257.71463 316.1375 258.18338 315.575Q258.66776 315.0125 259.574 314.27814Q260.98026 313.1219 261.46463 312.45Q261.96463 311.77814 261.96463 311.1844Q261.96463 310.5594 261.5115 310.1375Q261.05838 309.7 260.33963 309.7Q259.574 309.7 259.12088 310.15314Q258.66776 310.60626 258.65213 311.41876L257.574 311.3094Q257.68338 310.09064 258.40213 309.46564Q259.1365 308.825 260.37088 308.825Q261.60526 308.825 262.324 309.5125Q263.04276 310.2 263.04276 311.21564Q263.04276 311.73126 262.824 312.23126Q262.62088 312.71564 262.12088 313.27814Q261.6365 313.825 260.5115 314.77814Q259.55838 315.575 259.27713 315.8719Q259.0115 316.15314 258.83963 316.4344L263.05838 316.4344Z" fill-rule="nonzero"/><path fill="#000000" d="M377.4885 315.1844L378.551 315.04376Q378.72287 315.9344 379.16037 316.34064Q379.59787 316.73126 380.22287 316.73126Q380.97287 316.73126 381.4885 316.21564Q382.00412 315.7 382.00412 314.9344Q382.00412 314.21564 381.51974 313.7469Q381.051 313.2625 380.31662 313.2625Q380.01974 313.2625 379.56662 313.3875L379.69162 312.45Q379.801 312.46564 379.8635 312.46564Q380.53537 312.46564 381.06662 312.1219Q381.6135 311.7625 381.6135 311.02814Q381.6135 310.45 381.22287 310.075Q380.83224 309.6844 380.20724 309.6844Q379.59787 309.6844 379.176 310.075Q378.76974 310.46564 378.66037 311.23126L377.59787 311.04376Q377.78537 309.9969 378.47287 309.41876Q379.16037 308.825 380.176 308.825Q380.87912 308.825 381.47287 309.1375Q382.06662 309.4344 382.37912 309.95Q382.69162 310.46564 382.69162 311.0594Q382.69162 311.60626 382.39474 312.075Q382.09787 312.52814 381.51974 312.79376Q382.26974 312.96564 382.69162 313.52814Q383.1135 314.075 383.1135 314.91876Q383.1135 316.04376 382.28537 316.825Q381.47287 317.60626 380.22287 317.60626Q379.09787 317.60626 378.34787 316.9344Q377.59787 316.2469 377.4885 315.1844Z" fill-rule="nonzero"/><path fill="#000000" d="M500.8405 317.45L500.8405 315.3875L497.12177 315.3875L497.12177 314.41876L501.04364 308.85626L501.903 308.85626L501.903 314.41876L503.05927 314.41876L503.05927 315.3875L501.903 315.3875L501.903 317.45L500.8405 317.45ZM500.8405 314.41876L500.8405 310.5594L498.153 314.41876L500.8405 314.41876Z" fill-rule="nonzero"/><path fill="#4285f4" d="M106.0 56.916668C106.0 56.364384 106.447716 55.916668 107.0 55.916668L117.0 55.916668C117.552284 55.916668 118.0 56.364384 118.0 56.916668L118.0 66.916664C118.0 67.46895 117.552284 67.916664 117.0 67.916664L107.0 67.916664C106.447716 67.916664 106.0 67.46895 106.0 66.916664Z" fill-rule="nonzero"/><path fill="#1a1a1a" d="M126.921875 65.916664L126.921875 57.322914L129.89062 57.322914Q130.89062 57.322914 131.42188 57.447914Q132.15625 57.61979 132.67188 58.05729Q133.35938 58.635414 133.6875 59.541664Q134.03125 60.43229 134.03125 61.572914Q134.03125 62.55729 133.79688 63.30729Q133.57812 64.05729 133.21875 64.55729Q132.85938 65.05729 132.42188 65.33854Q132.0 65.61979 131.40625 65.77604Q130.8125 65.916664 130.03125 65.916664L126.921875 65.916664ZM128.0625 64.90104L129.89062 64.90104Q130.75 64.90104 131.23438 64.74479Q131.71875 64.58854 132.0 64.291664Q132.40625 63.90104 132.625 63.21354Q132.85938 62.52604 132.85938 61.55729Q132.85938 60.21354 132.40625 59.49479Q131.96875 58.760414 131.34375 58.510414Q130.875 58.33854 129.875 58.33854L128.0625 58.33854L128.0625 64.90104ZM140.04688 63.916664L141.14062 64.041664Q140.89062 64.99479 140.1875 65.52604Q139.48438 66.05729 138.40625 66.05729Q137.04688 66.05729 136.23438 65.21354Q135.4375 64.36979 135.4375 62.854164Q135.4375 61.291664 136.25 60.43229Q137.0625 59.55729 138.34375 59.55729Q139.59375 59.55729 140.375 60.40104Q141.17188 61.24479 141.17188 62.791664Q141.17188 62.885414 141.17188 63.072914L136.53125 63.072914Q136.59375 64.104164 137.10938 64.65104Q137.625 65.18229 138.40625 65.18229Q138.98438 65.18229 139.39062 64.885414Q139.8125 64.572914 140.04688 63.916664ZM136.59375 62.21354L140.0625 62.21354Q140.0 61.416664 139.67188 61.02604Q139.15625 60.416664 138.35938 60.416664Q137.625 60.416664 137.125 60.90104Q136.64062 61.385414 136.59375 62.21354ZM144.51562 65.916664L142.15625 59.697914L143.26562 59.697914L144.60938 63.416664Q144.8125 64.02604 145.0 64.666664Q145.14062 64.18229 145.39062 63.49479L146.78125 59.697914L147.85938 59.697914L145.5 65.916664L144.51562 65.916664ZM148.79688 58.541664L148.79688 57.322914L149.85938 57.322914L149.85938 58.541664L148.79688 58.541664ZM148.79688 65.916664L148.79688 59.697914L149.85938 59.697914L149.85938 65.916664L148.79688 65.916664ZM155.85938 63.635414L156.89062 63.77604Q156.71875 64.83854 156.01562 65.447914Q155.3125 66.05729 154.29688 66.05729Q153.01562 66.05729 152.23438 65.229164Q151.46875 64.385414 151.46875 62.822914Q151.46875 61.822914 151.79688 61.072914Q152.14062 60.30729 152.8125 59.93229Q153.5 59.55729 154.3125 59.55729Q155.3125 59.55729 155.95312 60.072914Q156.60938 60.572914 156.79688 61.52604L155.76562 61.68229Q155.625 61.05729 155.25 60.74479Q154.875 60.416664 154.34375 60.416664Q153.54688 60.416664 153.04688 60.99479Q152.54688 61.55729 152.54688 62.791664Q152.54688 64.05729 153.03125 64.61979Q153.51562 65.18229 154.28125 65.18229Q154.90625 65.18229 155.3125 64.80729Q155.73438 64.43229 155.85938 63.635414ZM162.04688 63.916664L163.14062 64.041664Q162.89062 64.99479 162.1875 65.52604Q161.48438 66.05729 160.40625 66.05729Q159.04688 66.05729 158.23438 65.21354Q157.4375 64.36979 157.4375 62.854164Q157.4375 61.291664 158.25 60.43229Q159.0625 59.55729 160.34375 59.55729Q161.59375 59.55729 162.375 60.40104Q163.17188 61.24479 163.17188 62.791664Q163.17188 62.885414 163.17188 63.072914L158.53125 63.072914Q158.59375 64.104164 159.10938 64.65104Q159.625 65.18229 160.40625 65.18229Q160.98438 65.18229 161.39062 64.885414Q161.8125 64.572914 162.04688 63.916664ZM158.59375 62.21354L162.0625 62.21354Q162.0 61.416664 161.67188 61.02604Q161.15625 60.416664 160.35938 60.416664Q159.625 60.416664 159.125 60.90104Q158.64062 61.385414 158.59375 62.21354ZM171.46875 65.916664L170.42188 65.916664L170.42188 59.197914Q170.03125 59.55729 169.40625 59.93229Q168.79688 60.291664 168.3125 60.46354L168.3125 59.447914Q169.1875 59.02604 169.84375 58.447914Q170.51562 57.854164 170.79688 57.291664L171.46875 57.291664L171.46875 65.916664ZM179.8125 68.447914Q178.9375 67.33854 178.32812 65.86979Q177.73438 64.385414 177.73438 62.80729Q177.73438 61.416664 178.17188 60.135414Q178.70312 58.65104 179.8125 57.18229L180.5625 57.18229Q179.85938 58.40104 179.625 58.916664Q179.26562 59.729164 179.0625 60.604164Q178.8125 61.697914 178.8125 62.80729Q178.8125 65.635414 180.5625 68.447914L179.8125 68.447914ZM181.375 64.05729L182.40625 63.90104Q182.5 64.52604 182.89062 64.854164Q183.29688 65.18229 184.03125 65.18229Q184.75 65.18229 185.09375 64.90104Q185.45312 64.604164 185.45312 64.197914Q185.45312 63.83854 185.14062 63.635414Q184.92188 63.49479 184.0625 63.27604Q182.90625 62.979164 182.45312 62.77604Q182.01562 62.55729 181.78125 62.18229Q181.54688 61.80729 181.54688 61.33854Q181.54688 60.93229 181.73438 60.572914Q181.92188 60.21354 182.25 59.979164Q182.5 59.80729 182.92188 59.68229Q183.34375 59.55729 183.84375 59.55729Q184.5625 59.55729 185.10938 59.77604Q185.67188 59.979164 185.9375 60.33854Q186.20312 60.697914 186.29688 61.291664L185.26562 61.43229Q185.20312 60.96354 184.85938 60.697914Q184.53125 60.416664 183.90625 60.416664Q183.1875 60.416664 182.875 60.666664Q182.5625 60.90104 182.5625 61.229164Q182.5625 61.43229 182.6875 61.58854Q182.82812 61.760414 183.09375 61.86979Q183.25 61.93229 184.03125 62.135414Q185.15625 62.447914 185.59375 62.635414Q186.03125 62.822914 186.28125 63.18229Q186.53125 63.541664 186.53125 64.08854Q186.53125 64.61979 186.21875 65.08854Q185.92188 65.541664 185.34375 65.80729Q184.76562 66.05729 184.03125 66.05729Q182.8125 66.05729 182.17188 65.55729Q181.54688 65.041664 181.375 64.05729ZM188.48438 68.447914L187.73438 68.447914Q189.48438 65.635414 189.48438 62.80729Q189.48438 61.71354 189.23438 60.61979Q189.03125 59.74479 188.67188 58.93229Q188.4375 58.416664 187.73438 57.18229L188.48438 57.18229Q189.57812 58.65104 190.10938 60.135414Q190.5625 61.416664 190.5625 62.80729Q190.5625 64.385414 189.95312 65.86979Q189.34375 67.33854 188.48438 68.447914Z" fill-rule="nonzero"/><path fill="#ea4335" d="M207.0 56.916668C207.0 56.364384 207.44771 55.916668 208.0 55.916668L218.0 55.916668C218.55229 55.916668 219.0 56.364384 219.0 56.916668L219.0 66.916664C219.0 67.46895 218.55229 67.916664 218.0 67.916664L208.0 67.916664C207.44771 67.916664 207.0 67.46895 207.0 66.916664Z" fill-rule="nonzero"/><path fill="#1a1a1a" d="M227.92188 65.916664L227.92188 57.322914L230.89062 57.322914Q231.89062 57.322914 232.42188 57.447914Q233.15625 57.61979 233.67188 58.05729Q234.35938 58.635414 234.6875 59.541664Q235.03125 60.43229 235.03125 61.572914Q235.03125 62.55729 234.79688 63.30729Q234.57812 64.05729 234.21875 64.55729Q233.85938 65.05729 233.42188 65.33854Q233.0 65.61979 232.40625 65.77604Q231.8125 65.916664 231.03125 65.916664L227.92188 65.916664ZM229.0625 64.90104L230.89062 64.90104Q231.75 64.90104 232.23438 64.74479Q232.71875 64.58854 233.0 64.291664Q233.40625 63.90104 233.625 63.21354Q233.85938 62.52604 233.85938 61.55729Q233.85938 60.21354 233.40625 59.49479Q232.96875 58.760414 232.34375 58.510414Q231.875 58.33854 230.875 58.33854L229.0625 58.33854L229.0625 64.90104ZM241.04688 63.916664L242.14062 64.041664Q241.89062 64.99479 241.1875 65.52604Q240.48438 66.05729 239.40625 66.05729Q238.04688 66.05729 237.23438 65.21354Q236.4375 64.36979 236.4375 62.854164Q236.4375 61.291664 237.25 60.43229Q238.0625 59.55729 239.34375 59.55729Q240.59375 59.55729 241.375 60.40104Q242.17188 61.24479 242.17188 62.791664Q242.17188 62.885414 242.17188 63.072914L237.53125 63.072914Q237.59375 64.104164 238.10938 64.65104Q238.625 65.18229 239.40625 65.18229Q239.98438 65.18229 240.39062 64.885414Q240.8125 64.572914 241.04688 63.916664ZM237.59375 62.21354L241.0625 62.21354Q241.0 61.416664 240.67188 61.02604Q240.15625 60.416664 239.35938 60.416664Q238.625 60.416664 238.125 60.90104Q237.64062 61.385414 237.59375 62.21354ZM245.51562 65.916664L243.15625 59.697914L244.26562 59.697914L245.60938 63.416664Q245.8125 64.02604 246.0 64.666664Q246.14062 64.18229 246.39062 63.49479L247.78125 59.697914L248.85938 59.697914L246.5 65.916664L245.51562 65.916664ZM249.79688 58.541664L249.79688 57.322914L250.85938 57.322914L250.85938 58.541664L249.79688 58.541664ZM249.79688 65.916664L249.79688 59.697914L250.85938 59.697914L250.85938 65.916664L249.79688 65.916664ZM256.85938 63.635414L257.89062 63.77604Q257.71875 64.83854 257.01562 65.447914Q256.3125 66.05729 255.29688 66.05729Q254.01562 66.05729 253.23438 65.229164Q252.46875 64.385414 252.46875 62.822914Q252.46875 61.822914 252.79688 61.072914Q253.14062 60.30729 253.8125 59.93229Q254.5 59.55729 255.3125 59.55729Q256.3125 59.55729 256.95312 60.072914Q257.60938 60.572914 257.79688 61.52604L256.76562 61.68229Q256.625 61.05729 256.25 60.74479Q255.875 60.416664 255.34375 60.416664Q254.54688 60.416664 254.04688 60.99479Q253.54688 61.55729 253.54688 62.791664Q253.54688 64.05729 254.03125 64.61979Q254.51562 65.18229 255.28125 65.18229Q255.90625 65.18229 256.3125 64.80729Q256.73438 64.43229 256.85938 63.635414ZM263.04688 63.916664L264.14062 64.041664Q263.89062 64.99479 263.1875 65.52604Q262.48438 66.05729 261.40625 66.05729Q260.04688 66.05729 259.23438 65.21354Q258.4375 64.36979 258.4375 62.854164Q258.4375 61.291664 259.25 60.43229Q260.0625 59.55729 261.34375 59.55729Q262.59375 59.55729 263.375 60.40104Q264.17188 61.24479 264.17188 62.791664Q264.17188 62.885414 264.17188 63.072914L259.53125 63.072914Q259.59375 64.104164 260.10938 64.65104Q260.625 65.18229 261.40625 65.18229Q261.98438 65.18229 262.39062 64.885414Q262.8125 64.572914 263.04688 63.916664ZM259.59375 62.21354L263.0625 62.21354Q263.0 61.416664 262.67188 61.02604Q262.15625 60.416664 261.35938 60.416664Q260.625 60.416664 260.125 60.90104Q259.64062 61.385414 259.59375 62.21354ZM274.04688 64.90104L274.04688 65.916664L268.35938 65.916664Q268.35938 65.541664 268.48438 65.18229Q268.70312 64.604164 269.17188 64.041664Q269.65625 63.479164 270.5625 62.74479Q271.96875 61.58854 272.45312 60.916664Q272.95312 60.24479 272.95312 59.65104Q272.95312 59.02604 272.5 58.604164Q272.04688 58.166664 271.32812 58.166664Q270.5625 58.166664 270.10938 58.61979Q269.65625 59.072914 269.64062 59.885414L268.5625 59.77604Q268.67188 58.55729 269.39062 57.93229Q270.125 57.291664 271.35938 57.291664Q272.59375 57.291664 273.3125 57.979164Q274.03125 58.666664 274.03125 59.68229Q274.03125 60.197914 273.8125 60.697914Q273.60938 61.18229 273.10938 61.74479Q272.625 62.291664 271.5 63.24479Q270.54688 64.041664 270.26562 64.33854Q270.0 64.61979 269.82812 64.90104L274.04688 64.90104ZM280.8125 68.447914Q279.9375 67.33854 279.32812 65.86979Q278.73438 64.385414 278.73438 62.80729Q278.73438 61.416664 279.17188 60.135414Q279.70312 58.65104 280.8125 57.18229L281.5625 57.18229Q280.85938 58.40104 280.625 58.916664Q280.26562 59.729164 280.0625 60.604164Q279.8125 61.697914 279.8125 62.80729Q279.8125 65.635414 281.5625 68.447914L280.8125 68.447914ZM282.375 64.05729L283.40625 63.90104Q283.5 64.52604 283.89062 64.854164Q284.29688 65.18229 285.03125 65.18229Q285.75 65.18229 286.09375 64.90104Q286.45312 64.604164 286.45312 64.197914Q286.45312 63.83854 286.14062 63.635414Q285.92188 63.49479 285.0625 63.27604Q283.90625 62.979164 283.45312 62.77604Q283.01562 62.55729 282.78125 62.18229Q282.54688 61.80729 282.54688 61.33854Q282.54688 60.93229 282.73438 60.572914Q282.92188 60.21354 283.25 59.979164Q283.5 59.80729 283.92188 59.68229Q284.34375 59.55729 284.84375 59.55729Q285.5625 59.55729 286.10938 59.77604Q286.67188 59.979164 286.9375 60.33854Q287.20312 60.697914 287.29688 61.291664L286.26562 61.43229Q286.20312 60.96354 285.85938 60.697914Q285.53125 60.416664 284.90625 60.416664Q284.1875 60.416664 283.875 60.666664Q283.5625 60.90104 283.5625 61.229164Q283.5625 61.43229 283.6875 61.58854Q283.82812 61.760414 284.09375 61.86979Q284.25 61.93229 285.03125 62.135414Q286.15625 62.447914 286.59375 62.635414Q287.03125 62.822914 287.28125 63.18229Q287.53125 63.541664 287.53125 64.08854Q287.53125 64.61979 287.21875 65.08854Q286.92188 65.541664 286.34375 65.80729Q285.76562 66.05729 285.03125 66.05729Q283.8125 66.05729 283.17188 65.55729Q282.54688 65.041664 282.375 64.05729ZM289.48438 68.447914L288.73438 68.447914Q290.48438 65.635414 290.48438 62.80729Q290.48438 61.71354 290.23438 60.61979Q290.03125 59.74479 289.67188 58.93229Q289.4375 58.416664 288.73438 57.18229L289.48438 57.18229Q290.57812 58.65104 291.10938 60.135414Q291.5625 61.416664 291.5625 62.80729Q291.5625 64.385414 290.95312 65.86979Q290.34375 67.33854 289.48438 68.447914Z" fill-rule="nonzero"/><path fill="#fbbc04" d="M308.0 56.916668C308.0 56.364384 308.44772 55.916668 309.0 55.916668L319.0 55.916668C319.55228 55.916668 320.0 56.364384 320.0 56.916668L320.0 66.916664C320.0 67.46895 319.55228 67.916664 319.0 67.916664L309.0 67.916664C308.44772 67.916664 308.0 67.46895 308.0 66.916664Z" fill-rule="nonzero"/><path fill="#1a1a1a" d="M328.92188 65.916664L328.92188 57.322914L331.89062 57.322914Q332.89062 57.322914 333.42188 57.447914Q334.15625 57.61979 334.67188 58.05729Q335.35938 58.635414 335.6875 59.541664Q336.03125 60.43229 336.03125 61.572914Q336.03125 62.55729 335.79688 63.30729Q335.57812 64.05729 335.21875 64.55729Q334.85938 65.05729 334.42188 65.33854Q334.0 65.61979 333.40625 65.77604Q332.8125 65.916664 332.03125 65.916664L328.92188 65.916664ZM330.0625 64.90104L331.89062 64.90104Q332.75 64.90104 333.23438 64.74479Q333.71875 64.58854 334.0 64.291664Q334.40625 63.90104 334.625 63.21354Q334.85938 62.52604 334.85938 61.55729Q334.85938 60.21354 334.40625 59.49479Q333.96875 58.760414 333.34375 58.510414Q332.875 58.33854 331.875 58.33854L330.0625 58.33854L330.0625 64.90104ZM342.04688 63.916664L343.14062 64.041664Q342.89062 64.99479 342.1875 65.52604Q341.48438 66.05729 340.40625 66.05729Q339.04688 66.05729 338.23438 65.21354Q337.4375 64.36979 337.4375 62.854164Q337.4375 61.291664 338.25 60.43229Q339.0625 59.55729 340.34375 59.55729Q341.59375 59.55729 342.375 60.40104Q343.17188 61.24479 343.17188 62.791664Q343.17188 62.885414 343.17188 63.072914L338.53125 63.072914Q338.59375 64.104164 339.10938 64.65104Q339.625 65.18229 340.40625 65.18229Q340.98438 65.18229 341.39062 64.885414Q341.8125 64.572914 342.04688 63.916664ZM338.59375 62.21354L342.0625 62.21354Q342.0 61.416664 341.67188 61.02604Q341.15625 60.416664 340.35938 60.416664Q339.625 60.416664 339.125 60.90104Q338.64062 61.385414 338.59375 62.21354ZM346.51562 65.916664L344.15625 59.697914L345.26562 59.697914L346.60938 63.416664Q346.8125 64.02604 347.0 64.666664Q347.14062 64.18229 347.39062 63.49479L348.78125 59.697914L349.85938 59.697914L347.5 65.916664L346.51562 65.916664ZM350.79688 58.541664L350.79688 57.322914L351.85938 57.322914L351.85938 58.541664L350.79688 58.541664ZM350.79688 65.916664L350.79688 59.697914L351.85938 59.697914L351.85938 65.916664L350.79688 65.916664ZM357.85938 63.635414L358.89062 63.77604Q358.71875 64.83854 358.01562 65.447914Q357.3125 66.05729 356.29688 66.05729Q355.01562 66.05729 354.23438 65.229164Q353.46875 64.385414 353.46875 62.822914Q353.46875 61.822914 353.79688 61.072914Q354.14062 60.30729 354.8125 59.93229Q355.5 59.55729 356.3125 59.55729Q357.3125 59.55729 357.95312 60.072914Q358.60938 60.572914 358.79688 61.52604L357.76562 61.68229Q357.625 61.05729 357.25 60.74479Q356.875 60.416664 356.34375 60.416664Q355.54688 60.416664 355.04688 60.99479Q354.54688 61.55729 354.54688 62.791664Q354.54688 64.05729 355.03125 64.61979Q355.51562 65.18229 356.28125 65.18229Q356.90625 65.18229 357.3125 64.80729Q357.73438 64.43229 357.85938 63.635414ZM364.04688 63.916664L365.14062 64.041664Q364.89062 64.99479 364.1875 65.52604Q363.48438 66.05729 362.40625 66.05729Q361.04688 66.05729 360.23438 65.21354Q359.4375 64.36979 359.4375 62.854164Q359.4375 61.291664 360.25 60.43229Q361.0625 59.55729 362.34375 59.55729Q363.59375 59.55729 364.375 60.40104Q365.17188 61.24479 365.17188 62.791664Q365.17188 62.885414 365.17188 63.072914L360.53125 63.072914Q360.59375 64.104164 361.10938 64.65104Q361.625 65.18229 362.40625 65.18229Q362.98438 65.18229 363.39062 64.885414Q363.8125 64.572914 364.04688 63.916664ZM360.59375 62.21354L364.0625 62.21354Q364.0 61.416664 363.67188 61.02604Q363.15625 60.416664 362.35938 60.416664Q361.625 60.416664 361.125 60.90104Q360.64062 61.385414 360.59375 62.21354ZM369.5 63.65104L370.5625 63.510414Q370.73438 64.40104 371.17188 64.80729Q371.60938 65.197914 372.23438 65.197914Q372.98438 65.197914 373.5 64.68229Q374.01562 64.166664 374.01562 63.40104Q374.01562 62.68229 373.53125 62.21354Q373.0625 61.729164 372.32812 61.729164Q372.03125 61.729164 371.57812 61.854164L371.70312 60.916664Q371.8125 60.93229 371.875 60.93229Q372.54688 60.93229 373.07812 60.58854Q373.625 60.229164 373.625 59.49479Q373.625 58.916664 373.23438 58.541664Q372.84375 58.15104 372.21875 58.15104Q371.60938 58.15104 371.1875 58.541664Q370.78125 58.93229 370.67188 59.697914L369.60938 59.510414Q369.79688 58.46354 370.48438 57.885414Q371.17188 57.291664 372.1875 57.291664Q372.89062 57.291664 373.48438 57.604164Q374.07812 57.90104 374.39062 58.416664Q374.70312 58.93229 374.70312 59.52604Q374.70312 60.072914 374.40625 60.541664Q374.10938 60.99479 373.53125 61.260414Q374.28125 61.43229 374.70312 61.99479Q375.125 62.541664 375.125 63.385414Q375.125 64.510414 374.29688 65.291664Q373.48438 66.072914 372.23438 66.072914Q371.10938 66.072914 370.35938 65.40104Q369.60938 64.71354 369.5 63.65104ZM381.8125 68.447914Q380.9375 67.33854 380.32812 65.86979Q379.73438 64.385414 379.73438 62.80729Q379.73438 61.416664 380.17188 60.135414Q380.70312 58.65104 381.8125 57.18229L382.5625 57.18229Q381.85938 58.40104 381.625 58.916664Q381.26562 59.729164 381.0625 60.604164Q380.8125 61.697914 380.8125 62.80729Q380.8125 65.635414 382.5625 68.447914L381.8125 68.447914ZM383.375 64.05729L384.40625 63.90104Q384.5 64.52604 384.89062 64.854164Q385.29688 65.18229 386.03125 65.18229Q386.75 65.18229 387.09375 64.90104Q387.45312 64.604164 387.45312 64.197914Q387.45312 63.83854 387.14062 63.635414Q386.92188 63.49479 386.0625 63.27604Q384.90625 62.979164 384.45312 62.77604Q384.01562 62.55729 383.78125 62.18229Q383.54688 61.80729 383.54688 61.33854Q383.54688 60.93229 383.73438 60.572914Q383.92188 60.21354 384.25 59.979164Q384.5 59.80729 384.92188 59.68229Q385.34375 59.55729 385.84375 59.55729Q386.5625 59.55729 387.10938 59.77604Q387.67188 59.979164 387.9375 60.33854Q388.20312 60.697914 388.29688 61.291664L387.26562 61.43229Q387.20312 60.96354 386.85938 60.697914Q386.53125 60.416664 385.90625 60.416664Q385.1875 60.416664 384.875 60.666664Q384.5625 60.90104 384.5625 61.229164Q384.5625 61.43229 384.6875 61.58854Q384.82812 61.760414 385.09375 61.86979Q385.25 61.93229 386.03125 62.135414Q387.15625 62.447914 387.59375 62.635414Q388.03125 62.822914 388.28125 63.18229Q388.53125 63.541664 388.53125 64.08854Q388.53125 64.61979 388.21875 65.08854Q387.92188 65.541664 387.34375 65.80729Q386.76562 66.05729 386.03125 66.05729Q384.8125 66.05729 384.17188 65.55729Q383.54688 65.041664 383.375 64.05729ZM390.48438 68.447914L389.73438 68.447914Q391.48438 65.635414 391.48438 62.80729Q391.48438 61.71354 391.23438 60.61979Q391.03125 59.74479 390.67188 58.93229Q390.4375 58.416664 389.73438 57.18229L390.48438 57.18229Q391.57812 58.65104 392.10938 60.135414Q392.5625 61.416664 392.5625 62.80729Q392.5625 64.385414 391.95312 65.86979Q391.34375 67.33854 390.48438 68.447914Z" fill-rule="nonzero"/><path fill="#34a853" d="M409.0 56.916668C409.0 56.364384 409.44772 55.916668 410.0 55.916668L420.0 55.916668C420.55228 55.916668 421.0 56.364384 421.0 56.916668L421.0 66.916664C421.0 67.46895 420.55228 67.916664 420.0 67.916664L410.0 67.916664C409.44772 67.916664 409.0 67.46895 409.0 66.916664Z" fill-rule="nonzero"/><path fill="#1a1a1a" d="M429.92188 65.916664L429.92188 57.322914L432.89062 57.322914Q433.89062 57.322914 434.42188 57.447914Q435.15625 57.61979 435.67188 58.05729Q436.35938 58.635414 436.6875 59.541664Q437.03125 60.43229 437.03125 61.572914Q437.03125 62.55729 436.79688 63.30729Q436.57812 64.05729 436.21875 64.55729Q435.85938 65.05729 435.42188 65.33854Q435.0 65.61979 434.40625 65.77604Q433.8125 65.916664 433.03125 65.916664L429.92188 65.916664ZM431.0625 64.90104L432.89062 64.90104Q433.75 64.90104 434.23438 64.74479Q434.71875 64.58854 435.0 64.291664Q435.40625 63.90104 435.625 63.21354Q435.85938 62.52604 435.85938 61.55729Q435.85938 60.21354 435.40625 59.49479Q434.96875 58.760414 434.34375 58.510414Q433.875 58.33854 432.875 58.33854L431.0625 58.33854L431.0625 64.90104ZM443.04688 63.916664L444.14062 64.041664Q443.89062 64.99479 443.1875 65.52604Q442.48438 66.05729 441.40625 66.05729Q440.04688 66.05729 439.23438 65.21354Q438.4375 64.36979 438.4375 62.854164Q438.4375 61.291664 439.25 60.43229Q440.0625 59.55729 441.34375 59.55729Q442.59375 59.55729 443.375 60.40104Q444.17188 61.24479 444.17188 62.791664Q444.17188 62.885414 444.17188 63.072914L439.53125 63.072914Q439.59375 64.104164 440.10938 64.65104Q440.625 65.18229 441.40625 65.18229Q441.98438 65.18229 442.39062 64.885414Q442.8125 64.572914 443.04688 63.916664ZM439.59375 62.21354L443.0625 62.21354Q443.0 61.416664 442.67188 61.02604Q442.15625 60.416664 441.35938 60.416664Q440.625 60.416664 440.125 60.90104Q439.64062 61.385414 439.59375 62.21354ZM447.51562 65.916664L445.15625 59.697914L446.26562 59.697914L447.60938 63.416664Q447.8125 64.02604 448.0 64.666664Q448.14062 64.18229 448.39062 63.49479L449.78125 59.697914L450.85938 59.697914L448.5 65.916664L447.51562 65.916664ZM451.79688 58.541664L451.79688 57.322914L452.85938 57.322914L452.85938 58.541664L451.79688 58.541664ZM451.79688 65.916664L451.79688 59.697914L452.85938 59.697914L452.85938 65.916664L451.79688 65.916664ZM458.85938 63.635414L459.89062 63.77604Q459.71875 64.83854 459.01562 65.447914Q458.3125 66.05729 457.29688 66.05729Q456.01562 66.05729 455.23438 65.229164Q454.46875 64.385414 454.46875 62.822914Q454.46875 61.822914 454.79688 61.072914Q455.14062 60.30729 455.8125 59.93229Q456.5 59.55729 457.3125 59.55729Q458.3125 59.55729 458.95312 60.072914Q459.60938 60.572914 459.79688 61.52604L458.76562 61.68229Q458.625 61.05729 458.25 60.74479Q457.875 60.416664 457.34375 60.416664Q456.54688 60.416664 456.04688 60.99479Q455.54688 61.55729 455.54688 62.791664Q455.54688 64.05729 456.03125 64.61979Q456.51562 65.18229 457.28125 65.18229Q457.90625 65.18229 458.3125 64.80729Q458.73438 64.43229 458.85938 63.635414ZM465.04688 63.916664L466.14062 64.041664Q465.89062 64.99479 465.1875 65.52604Q464.48438 66.05729 463.40625 66.05729Q462.04688 66.05729 461.23438 65.21354Q460.4375 64.36979 460.4375 62.854164Q460.4375 61.291664 461.25 60.43229Q462.0625 59.55729 463.34375 59.55729Q464.59375 59.55729 465.375 60.40104Q466.17188 61.24479 466.17188 62.791664Q466.17188 62.885414 466.17188 63.072914L461.53125 63.072914Q461.59375 64.104164 462.10938 64.65104Q462.625 65.18229 463.40625 65.18229Q463.98438 65.18229 464.39062 64.885414Q464.8125 64.572914 465.04688 63.916664ZM461.59375 62.21354L465.0625 62.21354Q465.0 61.416664 464.67188 61.02604Q464.15625 60.416664 463.35938 60.416664Q462.625 60.416664 462.125 60.90104Q461.64062 61.385414 461.59375 62.21354ZM473.875 65.916664L473.875 63.854164L470.15625 63.854164L470.15625 62.885414L474.07812 57.322914L474.9375 57.322914L474.9375 62.885414L476.09375 62.885414L476.09375 63.854164L474.9375 63.854164L474.9375 65.916664L473.875 65.916664ZM473.875 62.885414L473.875 59.02604L471.1875 62.885414L473.875 62.885414ZM482.8125 68.447914Q481.9375 67.33854 481.32812 65.86979Q480.73438 64.385414 480.73438 62.80729Q480.73438 61.416664 481.17188 60.135414Q481.70312 58.65104 482.8125 57.18229L483.5625 57.18229Q482.85938 58.40104 482.625 58.916664Q482.26562 59.729164 482.0625 60.604164Q481.8125 61.697914 481.8125 62.80729Q481.8125 65.635414 483.5625 68.447914L482.8125 68.447914ZM484.375 64.05729L485.40625 63.90104Q485.5 64.52604 485.89062 64.854164Q486.29688 65.18229 487.03125 65.18229Q487.75 65.18229 488.09375 64.90104Q488.45312 64.604164 488.45312 64.197914Q488.45312 63.83854 488.14062 63.635414Q487.92188 63.49479 487.0625 63.27604Q485.90625 62.979164 485.45312 62.77604Q485.01562 62.55729 484.78125 62.18229Q484.54688 61.80729 484.54688 61.33854Q484.54688 60.93229 484.73438 60.572914Q484.92188 60.21354 485.25 59.979164Q485.5 59.80729 485.92188 59.68229Q486.34375 59.55729 486.84375 59.55729Q487.5625 59.55729 488.10938 59.77604Q488.67188 59.979164 488.9375 60.33854Q489.20312 60.697914 489.29688 61.291664L488.26562 61.43229Q488.20312 60.96354 487.85938 60.697914Q487.53125 60.416664 486.90625 60.416664Q486.1875 60.416664 485.875 60.666664Q485.5625 60.90104 485.5625 61.229164Q485.5625 61.43229 485.6875 61.58854Q485.82812 61.760414 486.09375 61.86979Q486.25 61.93229 487.03125 62.135414Q488.15625 62.447914 488.59375 62.635414Q489.03125 62.822914 489.28125 63.18229Q489.53125 63.541664 489.53125 64.08854Q489.53125 64.61979 489.21875 65.08854Q488.92188 65.541664 488.34375 65.80729Q487.76562 66.05729 487.03125 66.05729Q485.8125 66.05729 485.17188 65.55729Q484.54688 65.041664 484.375 64.05729ZM491.48438 68.447914L490.73438 68.447914Q492.48438 65.635414 492.48438 62.80729Q492.48438 61.71354 492.23438 60.61979Q492.03125 59.74479 491.67188 58.93229Q491.4375 58.416664 490.73438 57.18229L491.48438 57.18229Q492.57812 58.65104 493.10938 60.135414Q493.5625 61.416664 493.5625 62.80729Q493.5625 64.385414 492.95312 65.86979Q492.34375 67.33854 491.48438 68.447914Z" fill-rule="nonzero"/><path fill="#757575" d="M20.034374 37.55L20.034374 23.2375L22.89375 23.2375L26.26875 33.3625Q26.7375 34.784374 26.95625 35.4875Q27.20625 34.70625 27.721874 33.190624L31.14375 23.2375L33.690624 23.2375L33.690624 37.55L31.878124 37.55L31.878124 25.565624L27.70625 37.55L26.003124 37.55L21.8625 25.3625L21.8625 37.55L20.034374 37.55ZM43.659374 37.55L43.659374 36.01875Q42.45625 37.784374 40.378124 37.784374Q39.45625 37.784374 38.659374 37.440624Q37.8625 37.08125 37.471874 36.55Q37.096874 36.01875 36.940624 35.2375Q36.83125 34.721874 36.83125 33.596874L36.83125 27.175L38.58125 27.175L38.58125 32.925Q38.58125 34.3 38.690624 34.784374Q38.8625 35.471874 39.39375 35.878124Q39.940624 36.26875 40.721874 36.26875Q41.51875 36.26875 42.20625 35.8625Q42.909374 35.45625 43.190624 34.76875Q43.4875 34.065624 43.4875 32.7375L43.4875 27.175L45.2375 27.175L45.2375 37.55L43.659374 37.55ZM47.83125 37.55L47.83125 23.2375L49.58125 23.2375L49.58125 37.55L47.83125 37.55ZM55.70625 35.971874L55.95625 37.534374Q55.221874 37.690624 54.628124 37.690624Q53.675 37.690624 53.14375 37.39375Q52.628124 37.08125 52.409374 36.596874Q52.190624 36.096874 52.190624 34.51875L52.190624 28.55L50.909374 28.55L50.909374 27.175L52.190624 27.175L52.190624 24.6125L53.940624 23.55L53.940624 27.175L55.70625 27.175L55.70625 28.55L53.940624 28.55L53.940624 34.6125Q53.940624 35.3625 54.034374 35.58125Q54.128124 35.784374 54.33125 35.925Q54.55 36.05 54.940624 36.05Q55.221874 36.05 55.70625 35.971874ZM57.878124 25.253124L57.878124 23.2375L59.64375 23.2375L59.64375 25.253124L57.878124 25.253124ZM57.878124 37.55L57.878124 27.175L59.64375 27.175L59.64375 37.55L57.878124 37.55ZM61.8625 41.51875L61.8625 27.175L63.471874 27.175L63.471874 28.51875Q64.03438 27.7375 64.7375 27.346874Q65.45625 26.940624 66.47188 26.940624Q67.8 26.940624 68.81563 27.628124Q69.83125 28.315624 70.34688 29.565624Q70.87813 30.8 70.87813 32.284374Q70.87813 33.878124 70.3 35.159374Q69.7375 36.425 68.64375 37.1125Q67.55 37.784374 66.34688 37.784374Q65.47188 37.784374 64.76875 37.409374Q64.08125 37.034374 63.628124 36.471874L63.628124 41.51875L61.8625 41.51875ZM63.45625 32.425Q63.45625 34.425 64.26875 35.378124Q65.08125 36.33125 66.2375 36.33125Q67.40938 36.33125 68.2375 35.346874Q69.08125 34.3625 69.08125 32.26875Q69.08125 30.3 68.25313 29.315624Q67.44063 28.315624 66.31563 28.315624Q65.19063 28.315624 64.31563 29.378124Q63.45625 30.425 63.45625 32.425ZM72.83125 37.55L72.83125 23.2375L74.58125 23.2375L74.58125 37.55L72.83125 37.55ZM83.97188 34.20625L85.78438 34.440624Q85.3625 36.01875 84.19063 36.909374Q83.03438 37.784374 81.22188 37.784374Q78.95625 37.784374 77.6125 36.39375Q76.28438 34.9875 76.28438 32.45625Q76.28438 29.83125 77.62813 28.39375Q78.97188 26.940624 81.12813 26.940624Q83.20625 26.940624 84.51875 28.3625Q85.84688 29.76875 85.84688 32.346874Q85.84688 32.503124 85.83125 32.815624L78.09688 32.815624Q78.19063 34.51875 79.06563 35.425Q79.94063 36.33125 81.2375 36.33125Q82.20625 36.33125 82.87813 35.83125Q83.56563 35.315624 83.97188 34.20625ZM78.19063 31.3625L83.9875 31.3625Q83.87813 30.065624 83.33125 29.409374Q82.4875 28.39375 81.14375 28.39375Q79.94063 28.39375 79.1125 29.20625Q78.28438 30.003124 78.19063 31.3625ZM94.09688 37.55L94.09688 23.2375L99.01875 23.2375Q100.69063 23.2375 101.58125 23.440624Q102.8 23.721874 103.675 24.45625Q104.8 25.425 105.3625 26.909374Q105.925 28.39375 105.925 30.315624Q105.925 31.940624 105.55 33.20625Q105.175 34.45625 104.56563 35.284374Q103.97188 36.1125 103.26875 36.596874Q102.56563 37.065624 101.56563 37.315624Q100.56563 37.55 99.25313 37.55L94.09688 37.55ZM95.9875 35.8625L99.05 35.8625Q100.45625 35.8625 101.25313 35.596874Q102.06563 35.33125 102.55 34.846874Q103.22188 34.175 103.59688 33.05Q103.97188 31.909374 103.97188 30.284374Q103.97188 28.034374 103.2375 26.83125Q102.50313 25.628124 101.44063 25.221874Q100.69063 24.925 99.00313 24.925L95.9875 24.925L95.9875 35.8625ZM114.97188 34.20625L116.78438 34.440624Q116.3625 36.01875 115.19063 36.909374Q114.03438 37.784374 112.22188 37.784374Q109.95625 37.784374 108.6125 36.39375Q107.28438 34.9875 107.28438 32.45625Q107.28438 29.83125 108.62813 28.39375Q109.97188 26.940624 112.12813 26.940624Q114.20625 26.940624 115.51875 28.3625Q116.84688 29.76875 116.84688 32.346874Q116.84688 32.503124 116.83125 32.815624L109.09688 32.815624Q109.19063 34.51875 110.06563 35.425Q110.94063 36.33125 112.2375 36.33125Q113.20625 36.33125 113.87813 35.83125Q114.56563 35.315624 114.97188 34.20625ZM109.19063 31.3625L114.9875 31.3625Q114.87813 30.065624 114.33125 29.409374Q113.4875 28.39375 112.14375 28.39375Q110.94063 28.39375 110.1125 29.20625Q109.28438 30.003124 109.19063 31.3625ZM121.75313 37.55L117.8 27.175L119.65938 27.175L121.89375 33.39375Q122.25313 34.39375 122.55 35.471874Q122.78438 34.659374 123.20625 33.503124L125.50313 27.175L127.31563 27.175L123.39375 37.55L121.75313 37.55ZM128.87813 25.253124L128.87813 23.2375L130.64375 23.2375L130.64375 25.253124L128.87813 25.253124ZM128.87813 37.55L128.87813 27.175L130.64375 27.175L130.64375 37.55L128.87813 37.55ZM139.64375 33.753124L141.3625 33.971874Q141.08125 35.76875 139.90938 36.784374Q138.75313 37.784374 137.05 37.784374Q134.925 37.784374 133.62813 36.39375Q132.33125 35.003124 132.33125 32.409374Q132.33125 30.721874 132.87813 29.471874Q133.44063 28.20625 134.58125 27.58125Q135.72188 26.940624 137.06563 26.940624Q138.75313 26.940624 139.81563 27.8Q140.89375 28.659374 141.20625 30.221874L139.4875 30.4875Q139.25313 29.440624 138.62813 28.925Q138.00313 28.39375 137.12813 28.39375Q135.8 28.39375 134.97188 29.346874Q134.14375 30.3 134.14375 32.346874Q134.14375 34.440624 134.94063 35.39375Q135.7375 36.33125 137.03438 36.33125Q138.06563 36.33125 138.75313 35.70625Q139.45625 35.065624 139.64375 33.753124ZM149.97188 34.20625L151.78438 34.440624Q151.3625 36.01875 150.19063 36.909374Q149.03438 37.784374 147.22188 37.784374Q144.95625 37.784374 143.6125 36.39375Q142.28438 34.9875 142.28438 32.45625Q142.28438 29.83125 143.62813 28.39375Q144.97188 26.940624 147.12813 26.940624Q149.20625 26.940624 150.51875 28.3625Q151.84688 29.76875 151.84688 32.346874Q151.84688 32.503124 151.83125 32.815624L144.09688 32.815624Q144.19063 34.51875 145.06563 35.425Q145.94063 36.33125 147.2375 36.33125Q148.20625 36.33125 148.87813 35.83125Q149.56563 35.315624 149.97188 34.20625ZM144.19063 31.3625L149.9875 31.3625Q149.87813 30.065624 149.33125 29.409374Q148.4875 28.39375 147.14375 28.39375Q145.94063 28.39375 145.1125 29.20625Q144.28438 30.003124 144.19063 31.3625ZM153.15938 34.45625L154.90938 34.175Q155.05 35.221874 155.72188 35.784374Q156.39375 36.33125 157.59688 36.33125Q158.8 36.33125 159.37813 35.846874Q159.97188 35.346874 159.97188 34.690624Q159.97188 34.096874 159.45625 33.753124Q159.09688 33.51875 157.65938 33.159374Q155.72188 32.659374 154.97188 32.315624Q154.2375 31.95625 153.84688 31.33125Q153.45625 30.690624 153.45625 29.925Q153.45625 29.2375 153.76875 28.64375Q154.09688 28.05 154.64375 27.659374Q155.05 27.3625 155.75313 27.159374Q156.47188 26.940624 157.28438 26.940624Q158.50313 26.940624 159.425 27.3Q160.34688 27.64375 160.78438 28.253124Q161.22188 28.846874 161.39375 29.846874L159.675 30.08125Q159.55 29.284374 158.9875 28.846874Q158.425 28.39375 157.40938 28.39375Q156.19063 28.39375 155.675 28.8Q155.15938 29.190624 155.15938 29.721874Q155.15938 30.065624 155.37813 30.346874Q155.58125 30.628124 156.05 30.815624Q156.31563 30.909374 157.59688 31.253124Q159.47188 31.753124 160.20625 32.08125Q160.94063 32.39375 161.3625 33.003124Q161.78438 33.596874 161.78438 34.503124Q161.78438 35.378124 161.26875 36.159374Q160.75313 36.940624 159.78438 37.3625Q158.81563 37.784374 157.59688 37.784374Q155.58125 37.784374 154.51875 36.940624Q153.45625 36.096874 153.15938 34.45625ZM171.78438 37.55L168.6125 27.175L170.425 27.175L172.08125 33.159374L172.69063 35.39375Q172.7375 35.221874 173.22188 33.253124L174.87813 27.175L176.69063 27.175L178.2375 33.190624L178.75313 35.175L179.34688 33.175L181.12813 27.175L182.83125 27.175L179.59688 37.55L177.76875 37.55L176.1125 31.33125L175.72188 29.565624L173.6125 37.55L171.78438 37.55ZM183.87813 25.253124L183.87813 23.2375L185.64375 23.2375L185.64375 25.253124L183.87813 25.253124ZM183.87813 37.55L183.87813 27.175L185.64375 27.175L185.64375 37.55L183.87813 37.55ZM191.70625 35.971874L191.95625 37.534374Q191.22188 37.690624 190.62813 37.690624Q189.675 37.690624 189.14375 37.39375Q188.62813 37.08125 188.40938 36.596874Q188.19063 36.096874 188.19063 34.51875L188.19063 28.55L186.90938 28.55L186.90938 27.175L188.19063 27.175L188.19063 24.6125L189.94063 23.55L189.94063 27.175L191.70625 27.175L191.70625 28.55L189.94063 28.55L189.94063 34.6125Q189.94063 35.3625 190.03438 35.58125Q190.12813 35.784374 190.33125 35.925Q190.55 36.05 190.94063 36.05Q191.22188 36.05 191.70625 35.971874ZM193.8625 37.55L193.8625 23.2375L195.62813 23.2375L195.62813 28.3625Q196.8625 26.940624 198.7375 26.940624Q199.87813 26.940624 200.72188 27.39375Q201.58125 27.846874 201.94063 28.659374Q202.31563 29.45625 202.31563 30.971874L202.31563 37.55L200.56563 37.55L200.56563 30.971874Q200.56563 29.659374 199.9875 29.065624Q199.40938 28.45625 198.37813 28.45625Q197.59688 28.45625 196.89375 28.8625Q196.20625 29.26875 195.90938 29.971874Q195.62813 30.659374 195.62813 31.878124L195.62813 37.55L193.8625 37.55ZM221.31563 32.534374L223.20625 33.003124Q222.6125 35.346874 221.06563 36.58125Q219.51875 37.8 217.26875 37.8Q214.95625 37.8 213.50313 36.8625Q212.06563 35.909374 211.3 34.128124Q210.55 32.33125 210.55 30.284374Q210.55 28.05 211.39375 26.39375Q212.25313 24.721874 213.83125 23.8625Q215.40938 22.9875 217.3 22.9875Q219.45625 22.9875 220.90938 24.08125Q222.37813 25.175 222.95625 27.159374L221.09688 27.596874Q220.59688 26.034374 219.64375 25.33125Q218.70625 24.6125 217.26875 24.6125Q215.6125 24.6125 214.50313 25.409374Q213.39375 26.190624 212.94063 27.534374Q212.50313 28.8625 212.50313 30.26875Q212.50313 32.096874 213.03438 33.471874Q213.56563 34.83125 214.69063 35.503124Q215.81563 36.175 217.1125 36.175Q218.70625 36.175 219.81563 35.253124Q220.925 34.33125 221.31563 32.534374ZM224.22188 32.3625Q224.22188 29.4875 225.81563 28.096874Q227.15938 26.940624 229.08125 26.940624Q231.22188 26.940624 232.56563 28.346874Q233.925 29.753124 233.925 32.221874Q233.925 34.221874 233.33125 35.378124Q232.7375 36.51875 231.58125 37.159374Q230.44063 37.784374 229.08125 37.784374Q226.89375 37.784374 225.55 36.39375Q224.22188 34.9875 224.22188 32.3625ZM226.01875 32.3625Q226.01875 34.3625 226.87813 35.346874Q227.75313 36.33125 229.08125 36.33125Q230.39375 36.33125 231.25313 35.346874Q232.12813 34.346874 232.12813 32.3Q232.12813 30.378124 231.25313 29.39375Q230.37813 28.39375 229.08125 28.39375Q227.75313 28.39375 226.87813 29.39375Q226.01875 30.378124 226.01875 32.3625ZM235.8625 37.55L235.8625 27.175L237.45625 27.175L237.45625 28.659374Q238.59688 26.940624 240.75313 26.940624Q241.69063 26.940624 242.47188 27.284374Q243.26875 27.6125 243.65938 28.159374Q244.05 28.70625 244.20625 29.45625Q244.3 29.95625 244.3 31.175L244.3 37.55L242.53438 37.55L242.53438 31.2375Q242.53438 30.159374 242.33125 29.628124Q242.12813 29.096874 241.59688 28.784374Q241.08125 28.471874 240.37813 28.471874Q239.25313 28.471874 238.44063 29.190624Q237.62813 29.89375 237.62813 31.878124L237.62813 37.55L235.8625 37.55ZM250.70625 35.971874L250.95625 37.534374Q250.22188 37.690624 249.62813 37.690624Q248.675 37.690624 248.14375 37.39375Q247.62813 37.08125 247.40938 36.596874Q247.19063 36.096874 247.19063 34.51875L247.19063 28.55L245.90938 28.55L245.90938 27.175L247.19063 27.175L247.19063 24.6125L248.94063 23.55L248.94063 27.175L250.70625 27.175L250.70625 28.55L248.94063 28.55L248.94063 34.6125Q248.94063 35.3625 249.03438 35.58125Q249.12813 35.784374 249.33125 35.925Q249.55 36.05 249.94063 36.05Q250.22188 36.05 250.70625 35.971874ZM252.87813 25.253124L252.87813 23.2375L254.64375 23.2375L254.64375 25.253124L252.87813 25.253124ZM252.87813 37.55L252.87813 27.175L254.64375 27.175L254.64375 37.55L252.87813 37.55ZM256.8625 37.55L256.8625 27.175L258.45624 27.175L258.45624 28.659374Q259.59686 26.940624 261.7531 26.940624Q262.6906 26.940624 263.47186 27.284374Q264.26874 27.6125 264.65936 28.159374Q265.05 28.70625 265.20624 29.45625Q265.3 29.95625 265.3 31.175L265.3 37.55L263.53436 37.55L263.53436 31.2375Q263.53436 30.159374 263.33124 29.628124Q263.1281 29.096874 262.59686 28.784374Q262.08124 28.471874 261.3781 28.471874Q260.2531 28.471874 259.4406 29.190624Q258.6281 29.89375 258.6281 31.878124L258.6281 37.55L256.8625 37.55ZM274.65936 37.55L274.65936 36.01875Q273.45624 37.784374 271.3781 37.784374Q270.45624 37.784374 269.65936 37.440624Q268.8625 37.08125 268.47186 36.55Q268.09686 36.01875 267.9406 35.2375Q267.83124 34.721874 267.83124 33.596874L267.83124 27.175L269.58124 27.175L269.58124 32.925Q269.58124 34.3 269.6906 34.784374Q269.8625 35.471874 270.39374 35.878124Q270.9406 36.26875 271.72186 36.26875Q272.51874 36.26875 273.20624 35.8625Q273.90936 35.45625 274.1906 34.76875Q274.4875 34.065624 274.4875 32.7375L274.4875 27.175L276.2375 27.175L276.2375 37.55L274.65936 37.55ZM278.22186 32.3625Q278.22186 29.4875 279.8156 28.096874Q281.15936 26.940624 283.08124 26.940624Q285.22186 26.940624 286.5656 28.346874Q287.925 29.753124 287.925 32.221874Q287.925 34.221874 287.33124 35.378124Q286.7375 36.51875 285.58124 37.159374Q284.4406 37.784374 283.08124 37.784374Q280.89374 37.784374 279.55 36.39375Q278.22186 34.9875 278.22186 32.3625ZM280.01874 32.3625Q280.01874 34.3625 280.8781 35.346874Q281.7531 36.33125 283.08124 36.33125Q284.39374 36.33125 285.2531 35.346874Q286.1281 34.346874 286.1281 32.3Q286.1281 30.378124 285.2531 29.39375Q284.3781 28.39375 283.08124 28.39375Q281.7531 28.39375 280.8781 29.39375Q280.01874 30.378124 280.01874 32.3625ZM296.65936 37.55L296.65936 36.01875Q295.45624 37.784374 293.3781 37.784374Q292.45624 37.784374 291.65936 37.440624Q290.8625 37.08125 290.47186 36.55Q290.09686 36.01875 289.9406 35.2375Q289.83124 34.721874 289.83124 33.596874L289.83124 27.175L291.58124 27.175L291.58124 32.925Q291.58124 34.3 291.6906 34.784374Q291.8625 35.471874 292.39374 35.878124Q292.9406 36.26875 293.72186 36.26875Q294.51874 36.26875 295.20624 35.8625Q295.90936 35.45625 296.1906 34.76875Q296.4875 34.065624 296.4875 32.7375L296.4875 27.175L298.2375 27.175L298.2375 37.55L296.65936 37.55ZM300.15936 34.45625L301.90936 34.175Q302.05 35.221874 302.72186 35.784374Q303.39374 36.33125 304.59686 36.33125Q305.8 36.33125 306.3781 35.846874Q306.97186 35.346874 306.97186 34.690624Q306.97186 34.096874 306.45624 33.753124Q306.09686 33.51875 304.65936 33.159374Q302.72186 32.659374 301.97186 32.315624Q301.2375 31.95625 300.84686 31.33125Q300.45624 30.690624 300.45624 29.925Q300.45624 29.2375 300.76874 28.64375Q301.09686 28.05 301.64374 27.659374Q302.05 27.3625 302.7531 27.159374Q303.47186 26.940624 304.28436 26.940624Q305.5031 26.940624 306.425 27.3Q307.34686 27.64375 307.78436 28.253124Q308.22186 28.846874 308.39374 29.846874L306.675 30.08125Q306.55 29.284374 305.9875 28.846874Q305.425 28.39375 304.40936 28.39375Q303.1906 28.39375 302.675 28.8Q302.15936 29.190624 302.15936 29.721874Q302.15936 30.065624 302.3781 30.346874Q302.58124 30.628124 303.05 30.815624Q303.3156 30.909374 304.59686 31.253124Q306.47186 31.753124 307.20624 32.08125Q307.9406 32.39375 308.3625 33.003124Q308.78436 33.596874 308.78436 34.503124Q308.78436 35.378124 308.26874 36.159374Q307.7531 36.940624 306.78436 37.3625Q305.8156 37.784374 304.59686 37.784374Q302.58124 37.784374 301.51874 36.940624Q300.45624 36.096874 300.15936 34.45625ZM316.45624 32.95625L318.2375 32.8Q318.3625 33.8625 318.8156 34.55Q319.28436 35.2375 320.2531 35.675Q321.2375 36.096874 322.47186 36.096874Q323.55 36.096874 324.3781 35.784374Q325.20624 35.45625 325.6125 34.89375Q326.01874 34.33125 326.01874 33.659374Q326.01874 32.9875 325.6281 32.4875Q325.2375 31.9875 324.34686 31.64375Q323.76874 31.409374 321.78436 30.940624Q319.8156 30.471874 319.03436 30.05Q318.0031 29.51875 317.5031 28.721874Q317.0031 27.925 317.0031 26.940624Q317.0031 25.846874 317.6125 24.909374Q318.22186 23.971874 319.40936 23.4875Q320.59686 22.9875 322.03436 22.9875Q323.6281 22.9875 324.84686 23.503124Q326.0656 24.01875 326.70624 25.01875Q327.3625 26.003124 327.40936 27.26875L325.59686 27.409374Q325.45624 26.05 324.6125 25.3625Q323.76874 24.659374 322.1125 24.659374Q320.39374 24.659374 319.59686 25.3Q318.8156 25.925 318.8156 26.8Q318.8156 27.58125 319.3781 28.08125Q319.925 28.58125 322.2375 29.096874Q324.55 29.6125 325.40936 30.003124Q326.65936 30.58125 327.2531 31.471874Q327.84686 32.346874 327.84686 33.503124Q327.84686 34.64375 327.1906 35.659374Q326.53436 36.675 325.3 37.2375Q324.08124 37.8 322.55 37.8Q320.6125 37.8 319.3 37.2375Q317.9875 36.659374 317.2375 35.51875Q316.4875 34.378124 316.45624 32.95625ZM336.65936 37.55L336.65936 36.01875Q335.45624 37.784374 333.3781 37.784374Q332.45624 37.784374 331.65936 37.440624Q330.8625 37.08125 330.47186 36.55Q330.09686 36.01875 329.9406 35.2375Q329.83124 34.721874 329.83124 33.596874L329.83124 27.175L331.58124 27.175L331.58124 32.925Q331.58124 34.3 331.6906 34.784374Q331.8625 35.471874 332.39374 35.878124Q332.9406 36.26875 333.72186 36.26875Q334.51874 36.26875 335.20624 35.8625Q335.90936 35.45625 336.1906 34.76875Q336.4875 34.065624 336.4875 32.7375L336.4875 27.175L338.2375 27.175L338.2375 37.55L336.65936 37.55ZM340.8625 37.55L340.8625 27.175L342.4406 27.175L342.4406 28.628124Q342.925 27.878124 343.7375 27.409374Q344.55 26.940624 345.58124 26.940624Q346.7375 26.940624 347.47186 27.425Q348.20624 27.89375 348.51874 28.753124Q349.7531 26.940624 351.72186 26.940624Q353.26874 26.940624 354.09686 27.8Q354.925 28.659374 354.925 30.425L354.925 37.55L353.175 37.55L353.175 31.01875Q353.175 29.95625 353.0031 29.503124Q352.83124 29.034374 352.3781 28.753124Q351.9406 28.471874 351.33124 28.471874Q350.2375 28.471874 349.5031 29.20625Q348.78436 29.925 348.78436 31.51875L348.78436 37.55L347.03436 37.55L347.03436 30.815624Q347.03436 29.64375 346.59686 29.065624Q346.175 28.471874 345.1906 28.471874Q344.45624 28.471874 343.8156 28.8625Q343.1906 29.253124 342.90936 30.003124Q342.6281 30.753124 342.6281 32.175L342.6281 37.55L340.8625 37.55Z" fill-rule="nonzero"/></svg>