<svg version="1.1" viewBox="0.0 0.0 600.0 371.0" fill="none" stroke="none" stroke-linecap="square" stroke-miterlimit="10" width="600" height="371" xmlns:xlink="http://www.w3.org/1999/xlink" xmlns="http://www.w3.org/2000/svg"><path fill="#ffffff" d="M0 0L600.0 0L600.0 371.0L0 371.0L0 0Z" fill-rule="nonzero"/><path stroke="#333333" stroke-width="1.0" stroke-linecap="butt" d="M52.5 300.5L581.5 300.5" fill-rule="nonzero"/><path stroke="#cccccc" stroke-width="1.0" stroke-linecap="butt" d="M52.5 247.5L581.5 247.5" fill-rule="nonzero"/><path stroke="#cccccc" stroke-width="1.0" stroke-linecap="butt" d="M52.5 194.5L581.5 194.5" fill-rule="nonzero"/><path stroke="#cccccc" stroke-width="1.0" stroke-linecap="butt" d="M52.5 141.5L581.5 141.5" fill-rule="nonzero"/><path stroke="#cccccc" stroke-width="1.0" stroke-linecap="butt" d="M52.5 88.5L581.5 88.5" fill-rule="nonzero"/><clipPath id="id_0"><path d="M52.55 88.28333L581.45 88.28333L581.45 300.45L52.55 300.45L52.55 88.28333Z" clip-rule="nonzero"/></clipPath><path stroke="#000000" stroke-width="0.0" stroke-linecap="butt" stroke-opacity="0.0" clip-path="url(#id_0)" d="M114.0 300.0L95.0 300.0L95.0 112.0C95.0 110.89543 95.89543 110.0 97.0 110.0L112.0 110.0C113.10457 110.0 114.0 110.89543 114.0 112.0Z" fill-rule="nonzero"/><path fill="#4285f4" clip-path="url(#id_0)" d="M114.0 300.0L95.0 300.0L95.0 112.0C95.0 110.89543 95.89543 110.0 97.0 110.0L112.0 110.0C113.10457 110.0 114.0 110.89543 114.0 112.0Z" fill-rule="nonzero"/><path stroke="#000000" stroke-width="0.0" stroke-linecap="butt" stroke-opacity="0.0" clip-path="url(#id_0)" d="M235.0 300.0L216.0 300.0L216.0 112.0C216.0 110.89543 216.89543 110.0 218.0 110.0L233.0 110.0C234.10457 110.0 235.0 110.89543 235.0 112.0Z" fill-rule="nonzero"/><path fill="#4285f4" clip-path="url(#id_0)" d="M235.0 300.0L216.0 300.0L216.0 112.0C216.0 110.89543 216.89543 110.0 218.0 110.0L233.0 110.0C234.10457 110.0 235.0 110.89543 235.0 112.0Z" fill-rule="nonzero"/><path stroke="#000000" stroke-width="0.0" stroke-linecap="butt" stroke-opacity="0.0" clip-path="url(#id_0)" d="M357.0 300.0L338.0 300.0L338.0 112.0C338.0 110.89543 338.89542 110.0 340.0 110.0L355.0 110.0C356.10458 110.0 357.0 110.89543 357.0 112.0Z" fill-rule="nonzero"/><path fill="#4285f4" clip-path="url(#id_0)" d="M357.0 300.0L338.0 300.0L338.0 112.0C338.0 110.89543 338.89542 110.0 340.0 110.0L355.0 110.0C356.10458 110.0 357.0 110.89543 357.0 112.0Z" fill-rule="nonzero"/><path stroke="#000000" stroke-width="0.0" stroke-linecap="butt" stroke-opacity="0.0" clip-path="url(#id_0)" d="M478.0 300.0L459.0 300.0L459.0 112.0C459.0 110.89543 459.89542 110.0 461.0 110.0L476.0 110.0C477.10458 110.0 478.0 110.89543 478.0 112.0Z" fill-rule="nonzero"/><path fill="#4285f4" clip-path="url(#id_0)" d="M478.0 300.0L459.0 300.0L459.0 112.0C459.0 110.89543 459.89542 110.0 461.0 110.0L476.0 110.0C477.10458 110.0 478.0 110.89543 478.0 112.0Z" fill-rule="nonzero"/><path stroke="#000000" stroke-width="0.0" stroke-linecap="butt" stroke-opacity="0.0" clip-path="url(#id_0)" d="M134.0 300.0L115.0 300.0L115.0 112.0C115.0 110.89543 115.89543 110.0 117.0 110.0L132.0 110.0C133.10457 110.0 134.0 110.89543 134.0 112.0Z" fill-rule="nonzero"/><path fill="#ea4335" clip-path="url(#id_0)" d="M134.0 300.0L115.0 300.0L115.0 112.0C115.0 110.89543 115.89543 110.0 117.0 110.0L132.0 110.0C133.10457 110.0 134.0 110.89543 134.0 112.0Z" fill-rule="nonzero"/><path stroke="#000000" stroke-width="0.0" stroke-linecap="butt" stroke-opacity="0.0" clip-path="url(#id_0)" d="M255.0 300.0L236.0 300.0L236.0 112.0C236.0 110.89543 236.89543 110.0 238.0 110.0L253.0 110.0C254.10457 110.0 255.0 110.89543 255.0 112.0Z" fill-rule="nonzero"/><path fill="#ea4335" clip-path="url(#id_0)" d="M255.0 300.0L236.0 300.0L236.0 112.0C236.0 110.89543 236.89543 110.0 238.0 110.0L253.0 110.0C254.10457 110.0 255.0 110.89543 255.0 112.0Z" fill-rule="nonzero"/><path stroke="#000000" stroke-width="0.0" stroke-linecap="butt" stroke-opacity="0.0" clip-path="url(#id_0)" d="M377.0 300.0L358.0 300.0L358.0 122.0C358.0 120.89543 358.89542 120.0 360.0 120.0L375.0 120.0C376.10458 120.0 377.0 120.89543 377.0 122.0Z" fill-rule="nonzero"/><path fill="#ea4335" clip-path="url(#id_0)" d="M377.0 300.0L358.0 300.0L358.0 122.0C358.0 120.89543 358.89542 120.0 360.0 120.0L375.0 120.0C376.10458 120.0 377.0 120.89543 377.0 122.0Z" fill-rule="nonzero"/><path stroke="#000000" stroke-width="0.0" stroke-linecap="butt" stroke-opacity="0.0" clip-path="url(#id_0)" d="M498.0 300.0L479.0 300.0L479.0 112.0C479.0 110.89543 479.89542 110.0 481.0 110.0L496.0 110.0C497.10458 110.0 498.0 110.89543 498.0 112.0Z" fill-rule="nonzero"/><path fill="#ea4335" clip-path="url(#id_0)" d="M498.0 300.0L479.0 300.0L479.0 112.0C479.0 110.89543 479.89542 110.0 481.0 110.0L496.0 110.0C497.10458 110.0 498.0 110.89543 498.0 112.0Z" fill-rule="nonzero"/><path stroke="#000000" stroke-width="0.0" stroke-linecap="butt" stroke-opacity="0.0" clip-path="url(#id_0)" d="M154.0 300.0L135.0 300.0L135.0 207.0C135.0 205.89543 135.89543 205.0 137.0 205.0L152.0 205.0C153.10457 205.0 154.0 205.89543 154.0 207.0Z" fill-rule="nonzero"/><path fill="#fbbc04" clip-path="url(#id_0)" d="M154.0 300.0L135.0 300.0L135.0 207.0C135.0 205.89543 135.89543 205.0 137.0 205.0L152.0 205.0C153.10457 205.0 154.0 205.89543 154.0 207.0Z" fill-rule="nonzero"/><path stroke="#000000" stroke-width="0.0" stroke-linecap="butt" stroke-opacity="0.0" clip-path="url(#id_0)" d="M275.0 300.0L256.0 300.0L256.0 196.0C256.0 194.89543 256.89542 194.0 258.0 194.0L273.0 194.0C274.10458 194.0 275.0 194.89543 275.0 196.0Z" fill-rule="nonzero"/><path fill="#fbbc04" clip-path="url(#id_0)" d="M275.0 300.0L256.0 300.0L256.0 196.0C256.0 194.89543 256.89542 194.0 258.0 194.0L273.0 194.0C274.10458 194.0 275.0 194.89543 275.0 196.0Z" fill-rule="nonzero"/><path stroke="#000000" stroke-width="0.0" stroke-linecap="butt" stroke-opacity="0.0" clip-path="url(#id_0)" d="M397.0 300.0L378.0 300.0L378.0 170.0C378.0 168.89543 378.89542 168.0 380.0 168.0L395.0 168.0C396.10458 168.0 397.0 168.89543 397.0 170.0Z" fill-rule="nonzero"/><path fill="#fbbc04" clip-path="url(#id_0)" d="M397.0 300.0L378.0 300.0L378.0 170.0C378.0 168.89543 378.89542 168.0 380.0 168.0L395.0 168.0C396.10458 168.0 397.0 168.89543 397.0 170.0Z" fill-rule="nonzero"/><path stroke="#000000" stroke-width="0.0" stroke-linecap="butt" stroke-opacity="0.0" clip-path="url(#id_0)" d="M518.0 300.0L499.0 300.0L499.0 196.0C499.0 194.89543 499.89542 194.0 501.0 194.0L516.0 194.0C517.10455 194.0 518.0 194.89543 518.0 196.0Z" fill-rule="nonzero"/><path fill="#fbbc04" clip-path="url(#id_0)" d="M518.0 300.0L499.0 300.0L499.0 196.0C499.0 194.89543 499.89542 194.0 501.0 194.0L516.0 194.0C517.10455 194.0 518.0 194.89543 518.0 196.0Z" fill-rule="nonzero"/><path stroke="#000000" stroke-width="0.0" stroke-linecap="butt" stroke-opacity="0.0" clip-path="url(#id_0)" d="M174.0 300.0L155.0 300.0L155.0 143.0C155.0 141.89543 155.89543 141.0 157.0 141.0L172.0 141.0C173.10457 141.0 174.0 141.89543 174.0 143.0Z" fill-rule="nonzero"/><path fill="#34a853" clip-path="url(#id_0)" d="M174.0 300.0L155.0 300.0L155.0 143.0C155.0 141.89543 155.89543 141.0 157.0 141.0L172.0 141.0C173.10457 141.0 174.0 141.89543 174.0 143.0Z" fill-rule="nonzero"/><path stroke="#000000" stroke-width="0.0" stroke-linecap="butt" stroke-opacity="0.0" clip-path="url(#id_0)" d="M295.0 300.0L276.0 300.0L276.0 112.0C276.0 110.89543 276.89542 110.0 278.0 110.0L293.0 110.0C294.10458 110.0 295.0 110.89543 295.0 112.0Z" fill-rule="nonzero"/><path fill="#34a853" clip-path="url(#id_0)" d="M295.0 300.0L276.0 300.0L276.0 112.0C276.0 110.89543 276.89542 110.0 278.0 110.0L293.0 110.0C294.10458 110.0 295.0 110.89543 295.0 112.0Z" fill-rule="nonzero"/><path stroke="#000000" stroke-width="0.0" stroke-linecap="butt" stroke-opacity="0.0" clip-path="url(#id_0)" d="M417.0 300.0L398.0 300.0L398.0 112.0C398.0 110.89543 398.89542 110.0 400.0 110.0L415.0 110.0C416.10458 110.0 417.0 110.89543 417.0 112.0Z" fill-rule="nonzero"/><path fill="#34a853" clip-path="url(#id_0)" d="M417.0 300.0L398.0 300.0L398.0 112.0C398.0 110.89543 398.89542 110.0 400.0 110.0L415.0 110.0C416.10458 110.0 417.0 110.89543 417.0 112.0Z" fill-rule="nonzero"/><path stroke="#000000" stroke-width="0.0" stroke-linecap="butt" stroke-opacity="0.0" clip-path="url(#id_0)" d="M538.0 300.0L519.0 300.0L519.0 133.0C519.0 131.89543 519.89545 131.0 521.0 131.0L536.0 131.0C537.10455 131.0 538.0 131.89543 538.0 133.0Z" fill-rule="nonzero"/><path fill="#34a853" clip-path="url(#id_0)" d="M538.0 300.0L519.0 300.0L519.0 133.0C519.0 131.89543 519.89545 131.0 521.0 131.0L536.0 131.0C537.10455 131.0 538.0 131.89543 538.0 133.0Z" fill-rule="nonzero"/><path fill="#000000" d="M304.46875 349.45L304.46875 340.85626L305.59375 340.85626L305.59375 344.3875L310.0625 344.3875L310.0625 340.85626L311.20312 340.85626L311.20312 349.45L310.0625 349.45L310.0625 345.40314L305.59375 345.40314L305.59375 349.45L304.46875 349.45ZM312.90625 346.34064Q312.90625 344.60626 313.85938 343.77814Q314.65625 343.09064 315.8125 343.09064Q317.09375 343.09064 317.90625 343.9344Q318.73438 344.7625 318.73438 346.2469Q318.73438 347.45 318.375 348.1375Q318.01562 348.825 317.3125 349.21564Q316.625 349.59064 315.8125 349.59064Q314.51562 349.59064 313.70312 348.7625Q312.90625 347.91876 312.90625 346.34064ZM313.98438 346.34064Q313.98438 347.52814 314.5 348.1219Q315.03125 348.71564 315.8125 348.71564Q316.60938 348.71564 317.125 348.1219Q317.64062 347.52814 317.64062 346.3094Q317.64062 345.15314 317.10938 344.5594Q316.59375 343.96564 315.8125 343.96564Q315.03125 343.96564 314.5 344.5594Q313.98438 345.1375 313.98438 346.34064ZM324.375 349.45L324.375 348.52814Q323.64062 349.59064 322.39062 349.59064Q321.84375 349.59064 321.35938 349.3875Q320.89062 349.16876 320.65625 348.85626Q320.42188 348.52814 320.32812 348.0594Q320.26562 347.7625 320.26562 347.075L320.26562 343.23126L321.32812 343.23126L321.32812 346.6844Q321.32812 347.4969 321.39062 347.79376Q321.48438 348.2 321.79688 348.45Q322.125 348.6844 322.60938 348.6844Q323.07812 348.6844 323.48438 348.45Q323.90625 348.2 324.07812 347.77814Q324.26562 347.35626 324.26562 346.5594L324.26562 343.23126L325.3125 343.23126L325.3125 349.45L324.375 349.45ZM327.28125 349.45L327.28125 343.23126L328.23438 343.23126L328.23438 344.16876Q328.59375 343.5125 328.89062 343.3094Q329.20312 343.09064 329.57812 343.09064Q330.10938 343.09064 330.65625 343.41876L330.29688 344.40314Q329.90625 344.16876 329.53125 344.16876Q329.17188 344.16876 328.89062 344.3875Q328.625 344.59064 328.51562 344.96564Q328.32812 345.52814 328.32812 346.1844L328.32812 349.45L327.28125 349.45Z" fill-rule="nonzero"/><path fill="#000000" d="M40.05 300.21564Q40.05 298.6844 40.3625 297.7625Q40.675 296.825 41.284374 296.325Q41.909374 295.825 42.846874 295.825Q43.534374 295.825 44.05 296.10626Q44.58125 296.3875 44.925 296.91876Q45.26875 297.4344 45.45625 298.1844Q45.64375 298.9344 45.64375 300.21564Q45.64375 301.73126 45.33125 302.65314Q45.034374 303.575 44.409374 304.09064Q43.8 304.59064 42.846874 304.59064Q41.6125 304.59064 40.89375 303.7Q40.05 302.6375 40.05 300.21564ZM41.128124 300.21564Q41.128124 302.325 41.628124 303.02814Q42.128124 303.73126 42.846874 303.73126Q43.58125 303.73126 44.065624 303.02814Q44.565624 302.325 44.565624 300.21564Q44.565624 298.09064 44.065624 297.40314Q43.58125 296.7 42.83125 296.7Q42.1125 296.7 41.675 297.3094Q41.128124 298.09064 41.128124 300.21564Z" fill-rule="nonzero"/><path fill="#000000" d="M23.01875 251.40834L21.971874 251.40834L21.971874 244.68959Q21.58125 245.04897 20.95625 245.42397Q20.346874 245.78334 19.8625 245.95522L19.8625 244.93959Q20.7375 244.51772 21.39375 243.93959Q22.065624 243.34584 22.346874 242.78334L23.01875 242.78334L23.01875 251.40834ZM26.05 247.17397Q26.05 245.64272 26.3625 244.72084Q26.675 243.78334 27.284374 243.28334Q27.909374 242.78334 28.846874 242.78334Q29.534374 242.78334 30.05 243.06459Q30.58125 243.34584 30.925 243.87709Q31.26875 244.39272 31.45625 245.14272Q31.64375 245.89272 31.64375 247.17397Q31.64375 248.68959 31.33125 249.61147Q31.034374 250.53334 30.409374 251.04897Q29.8 251.54897 28.846874 251.54897Q27.6125 251.54897 26.89375 250.65834Q26.05 249.59584 26.05 247.17397ZM27.128124 247.17397Q27.128124 249.28334 27.628124 249.98647Q28.128124 250.68959 28.846874 250.68959Q29.58125 250.68959 30.065624 249.98647Q30.565624 249.28334 30.565624 247.17397Q30.565624 245.04897 30.065624 244.36147Q29.58125 243.65834 28.83125 243.65834Q28.1125 243.65834 27.675 244.26772Q27.128124 245.04897 27.128124 247.17397ZM33.05 247.17397Q33.05 245.64272 33.3625 244.72084Q33.675 243.78334 34.284374 243.28334Q34.909374 242.78334 35.846874 242.78334Q36.534374 242.78334 37.05 243.06459Q37.58125 243.34584 37.925 243.87709Q38.26875 244.39272 38.45625 245.14272Q38.64375 245.89272 38.64375 247.17397Q38.64375 248.68959 38.33125 249.61147Q38.034374 250.53334 37.409374 251.04897Q36.8 251.54897 35.846874 251.54897Q34.6125 251.54897 33.89375 250.65834Q33.05 249.59584 33.05 247.17397ZM34.128124 247.17397Q34.128124 249.28334 34.628124 249.98647Q35.128124 250.68959 35.846874 250.68959Q36.58125 250.68959 37.065624 249.98647Q37.565624 249.28334 37.565624 247.17397Q37.565624 245.04897 37.065624 244.36147Q36.58125 243.65834 35.83125 243.65834Q35.1125 243.65834 34.675 244.26772Q34.128124 245.04897 34.128124 247.17397ZM40.05 247.17397Q40.05 245.64272 40.3625 244.72084Q40.675 243.78334 41.284374 243.28334Q41.909374 242.78334 42.846874 242.78334Q43.534374 242.78334 44.05 243.06459Q44.58125 243.34584 44.925 243.87709Q45.26875 244.39272 45.45625 245.14272Q45.64375 245.89272 45.64375 247.17397Q45.64375 248.68959 45.33125 249.61147Q45.034374 250.53334 44.409374 251.04897Q43.8 251.54897 42.846874 251.54897Q41.6125 251.54897 40.89375 250.65834Q40.05 249.59584 40.05 247.17397ZM41.128124 247.17397Q41.128124 249.28334 41.628124 249.98647Q42.128124 250.68959 42.846874 250.68959Q43.58125 250.68959 44.065624 249.98647Q44.565624 249.28334 44.565624 247.17397Q44.565624 245.04897 44.065624 244.36147Q43.58125 243.65834 42.83125 243.65834Q42.1125 243.65834 41.675 244.26772Q41.128124 245.04897 41.128124 247.17397Z" fill-rule="nonzero"/><path fill="#000000" d="M24.596874 197.35104L24.596874 198.36667L18.909374 198.36667Q18.909374 197.99167 19.034374 197.6323Q19.253124 197.05417 19.721874 196.49167Q20.20625 195.92917 21.1125 195.1948Q22.51875 194.03854 23.003124 193.36667Q23.503124 192.6948 23.503124 192.10104Q23.503124 191.47604 23.05 191.05417Q22.596874 190.61667 21.878124 190.61667Q21.1125 190.61667 20.659374 191.0698Q20.20625 191.52292 20.190624 192.33542L19.1125 192.22604Q19.221874 191.0073 19.940624 190.3823Q20.675 189.74167 21.909374 189.74167Q23.14375 189.74167 23.8625 190.42917Q24.58125 191.11667 24.58125 192.1323Q24.58125 192.64792 24.3625 193.14792Q24.159374 193.6323 23.659374 194.1948Q23.175 194.74167 22.05 195.6948Q21.096874 196.49167 20.815624 196.78854Q20.55 197.0698 20.378124 197.35104L24.596874 197.35104ZM26.05 194.1323Q26.05 192.60104 26.3625 191.67917Q26.675 190.74167 27.284374 190.24167Q27.909374 189.74167 28.846874 189.74167Q29.534374 189.74167 30.05 190.02292Q30.58125 190.30417 30.925 190.83542Q31.26875 191.35104 31.45625 192.10104Q31.64375 192.85104 31.64375 194.1323Q31.64375 195.64792 31.33125 196.5698Q31.034374 197.49167 30.409374 198.0073Q29.8 198.5073 28.846874 198.5073Q27.6125 198.5073 26.89375 197.61667Q26.05 196.55417 26.05 194.1323ZM27.128124 194.1323Q27.128124 196.24167 27.628124 196.9448Q28.128124 197.64792 28.846874 197.64792Q29.58125 197.64792 30.065624 196.9448Q30.565624 196.24167 30.565624 194.1323Q30.565624 192.0073 30.065624 191.3198Q29.58125 190.61667 28.83125 190.61667Q28.1125 190.61667 27.675 191.22604Q27.128124 192.0073 27.128124 194.1323ZM33.05 194.1323Q33.05 192.60104 33.3625 191.67917Q33.675 190.74167 34.284374 190.24167Q34.909374 189.74167 35.846874 189.74167Q36.534374 189.74167 37.05 190.02292Q37.58125 190.30417 37.925 190.83542Q38.26875 191.35104 38.45625 192.10104Q38.64375 192.85104 38.64375 194.1323Q38.64375 195.64792 38.33125 196.5698Q38.034374 197.49167 37.409374 198.0073Q36.8 198.5073 35.846874 198.5073Q34.6125 198.5073 33.89375 197.61667Q33.05 196.55417 33.05 194.1323ZM34.128124 194.1323Q34.128124 196.24167 34.628124 196.9448Q35.128124 197.64792 35.846874 197.64792Q36.58125 197.64792 37.065624 196.9448Q37.565624 196.24167 37.565624 194.1323Q37.565624 192.0073 37.065624 191.3198Q36.58125 190.61667 35.83125 190.61667Q35.1125 190.61667 34.675 191.22604Q34.128124 192.0073 34.128124 194.1323ZM40.05 194.1323Q40.05 192.60104 40.3625 191.67917Q40.675 190.74167 41.284374 190.24167Q41.909374 189.74167 42.846874 189.74167Q43.534374 189.74167 44.05 190.02292Q44.58125 190.30417 44.925 190.83542Q45.26875 191.35104 45.45625 192.10104Q45.64375 192.85104 45.64375 194.1323Q45.64375 195.64792 45.33125 196.5698Q45.034374 197.49167 44.409374 198.0073Q43.8 198.5073 42.846874 198.5073Q41.6125 198.5073 40.89375 197.61667Q40.05 196.55417 40.05 194.1323ZM41.128124 194.1323Q41.128124 196.24167 41.628124 196.9448Q42.128124 197.64792 42.846874 197.64792Q43.58125 197.64792 44.065624 196.9448Q44.565624 196.24167 44.565624 194.1323Q44.565624 192.0073 44.065624 191.3198Q43.58125 190.61667 42.83125 190.61667Q42.1125 190.61667 41.675 191.22604Q41.128124 192.0073 41.128124 194.1323Z" fill-rule="nonzero"/><path fill="#000000" d="M19.05 143.05937L20.1125 142.91875Q20.284374 143.80937 20.721874 144.21562Q21.159374 144.60625 21.784374 144.60625Q22.534374 144.60625 23.05 144.09062Q23.565624 143.575 23.565624 142.80937Q23.565624 142.09062 23.08125 141.62187Q22.6125 141.1375 21.878124 141.1375Q21.58125 141.1375 21.128124 141.2625L21.253124 140.325Q21.3625 140.34062 21.425 140.34062Q22.096874 140.34062 22.628124 139.99687Q23.175 139.6375 23.175 138.90312Q23.175 138.325 22.784374 137.95Q22.39375 137.55937 21.76875 137.55937Q21.159374 137.55937 20.7375 137.95Q20.33125 138.34062 20.221874 139.10625L19.159374 138.91875Q19.346874 137.87187 20.034374 137.29375Q20.721874 136.7 21.7375 136.7Q22.440624 136.7 23.034374 137.0125Q23.628124 137.30937 23.940624 137.825Q24.253124 138.34062 24.253124 138.93437Q24.253124 139.48125 23.95625 139.95Q23.659374 140.40312 23.08125 140.66875Q23.83125 140.84062 24.253124 141.40312Q24.675 141.95 24.675 142.79375Q24.675 143.91875 23.846874 144.7Q23.034374 145.48125 21.784374 145.48125Q20.659374 145.48125 19.909374 144.80937Q19.159374 144.12187 19.05 143.05937ZM26.05 141.09062Q26.05 139.55937 26.3625 138.6375Q26.675 137.7 27.284374 137.2Q27.909374 136.7 28.846874 136.7Q29.534374 136.7 30.05 136.98125Q30.58125 137.2625 30.925 137.79375Q31.26875 138.30937 31.45625 139.05937Q31.64375 139.80937 31.64375 141.09062Q31.64375 142.60625 31.33125 143.52812Q31.034374 144.45 30.409374 144.96562Q29.8 145.46562 28.846874 145.46562Q27.6125 145.46562 26.89375 144.575Q26.05 143.5125 26.05 141.09062ZM27.128124 141.09062Q27.128124 143.2 27.628124 143.90312Q28.128124 144.60625 28.846874 144.60625Q29.58125 144.60625 30.065624 143.90312Q30.565624 143.2 30.565624 141.09062Q30.565624 138.96562 30.065624 138.27812Q29.58125 137.575 28.83125 137.575Q28.1125 137.575 27.675 138.18437Q27.128124 138.96562 27.128124 141.09062ZM33.05 141.09062Q33.05 139.55937 33.3625 138.6375Q33.675 137.7 34.284374 137.2Q34.909374 136.7 35.846874 136.7Q36.534374 136.7 37.05 136.98125Q37.58125 137.2625 37.925 137.79375Q38.26875 138.30937 38.45625 139.05937Q38.64375 139.80937 38.64375 141.09062Q38.64375 142.60625 38.33125 143.52812Q38.034374 144.45 37.409374 144.96562Q36.8 145.46562 35.846874 145.46562Q34.6125 145.46562 33.89375 144.575Q33.05 143.5125 33.05 141.09062ZM34.128124 141.09062Q34.128124 143.2 34.628124 143.90312Q35.128124 144.60625 35.846874 144.60625Q36.58125 144.60625 37.065624 143.90312Q37.565624 143.2 37.565624 141.09062Q37.565624 138.96562 37.065624 138.27812Q36.58125 137.575 35.83125 137.575Q35.1125 137.575 34.675 138.18437Q34.128124 138.96562 34.128124 141.09062ZM40.05 141.09062Q40.05 139.55937 40.3625 138.6375Q40.675 137.7 41.284374 137.2Q41.909374 136.7 42.846874 136.7Q43.534374 136.7 44.05 136.98125Q44.58125 137.2625 44.925 137.79375Q45.26875 138.30937 45.45625 139.05937Q45.64375 139.80937 45.64375 141.09062Q45.64375 142.60625 45.33125 143.52812Q45.034374 144.45 44.409374 144.96562Q43.8 145.46562 42.846874 145.46562Q41.6125 145.46562 40.89375 144.575Q40.05 143.5125 40.05 141.09062ZM41.128124 141.09062Q41.128124 143.2 41.628124 143.90312Q42.128124 144.60625 42.846874 144.60625Q43.58125 144.60625 44.065624 143.90312Q44.565624 143.2 44.565624 141.09062Q44.565624 138.96562 44.065624 138.27812Q43.58125 137.575 42.83125 137.575Q42.1125 137.575 41.675 138.18437Q41.128124 138.96562 41.128124 141.09062Z" fill-rule="nonzero"/><path fill="#000000" d="M22.425 92.28333L22.425 90.22083L18.70625 90.22083L18.70625 89.25208L22.628124 83.68958L23.4875 83.68958L23.4875 89.25208L24.64375 89.25208L24.64375 90.22083L23.4875 90.22083L23.4875 92.28333L22.425 92.28333ZM22.425 89.25208L22.425 85.39271L19.7375 89.25208L22.425 89.25208ZM26.05 88.04896Q26.05 86.51771 26.3625 85.59583Q26.675 84.65833 27.284374 84.15833Q27.909374 83.65833 28.846874 83.65833Q29.534374 83.65833 30.05 83.93958Q30.58125 84.22083 30.925 84.75208Q31.26875 85.26771 31.45625 86.01771Q31.64375 86.76771 31.64375 88.04896Q31.64375 89.56458 31.33125 90.48646Q31.034374 91.40833 30.409374 91.92396Q29.8 92.42396 28.846874 92.42396Q27.6125 92.42396 26.89375 91.53333Q26.05 90.47083 26.05 88.04896ZM27.128124 88.04896Q27.128124 90.15833 27.628124 90.86146Q28.128124 91.56458 28.846874 91.56458Q29.58125 91.56458 30.065624 90.86146Q30.565624 90.15833 30.565624 88.04896Q30.565624 85.92396 30.065624 85.23646Q29.58125 84.53333 28.83125 84.53333Q28.1125 84.53333 27.675 85.14271Q27.128124 85.92396 27.128124 88.04896ZM33.05 88.04896Q33.05 86.51771 33.3625 85.59583Q33.675 84.65833 34.284374 84.15833Q34.909374 83.65833 35.846874 83.65833Q36.534374 83.65833 37.05 83.93958Q37.58125 84.22083 37.925 84.75208Q38.26875 85.26771 38.45625 86.01771Q38.64375 86.76771 38.64375 88.04896Q38.64375 89.56458 38.33125 90.48646Q38.034374 91.40833 37.409374 91.92396Q36.8 92.42396 35.846874 92.42396Q34.6125 92.42396 33.89375 91.53333Q33.05 90.47083 33.05 88.04896ZM34.128124 88.04896Q34.128124 90.15833 34.628124 90.86146Q35.128124 91.56458 35.846874 91.56458Q36.58125 91.56458 37.065624 90.86146Q37.565624 90.15833 37.565624 88.04896Q37.565624 85.92396 37.065624 85.23646Q36.58125 84.53333 35.83125 84.53333Q35.1125 84.53333 34.675 85.14271Q34.128124 85.92396 34.128124 88.04896ZM40.05 88.04896Q40.05 86.51771 40.3625 85.59583Q40.675 84.65833 41.284374 84.15833Q41.909374 83.65833 42.846874 83.65833Q43.534374 83.65833 44.05 83.93958Q44.58125 84.22083 44.925 84.75208Q45.26875 85.26771 45.45625 86.01771Q45.64375 86.76771 45.64375 88.04896Q45.64375 89.56458 45.33125 90.48646Q45.034374 91.40833 44.409374 91.92396Q43.8 92.42396 42.846874 92.42396Q41.6125 92.42396 40.89375 91.53333Q40.05 90.47083 40.05 88.04896ZM41.128124 88.04896Q41.128124 90.15833 41.628124 90.86146Q42.128124 91.56458 42.846874 91.56458Q43.58125 91.56458 44.065624 90.86146Q44.565624 90.15833 44.565624 88.04896Q44.565624 85.92396 44.065624 85.23646Q43.58125 84.53333 42.83125 84.53333Q42.1125 84.53333 41.675 85.14271Q41.128124 85.92396 41.128124 88.04896Z" fill-rule="nonzero"/><path fill="#000000" d="M135.58945 317.45L134.54257 317.45L134.54257 310.73126Q134.15195 311.09064 133.52695 311.46564Q132.91757 311.825 132.4332 311.9969L132.4332 310.98126Q133.3082 310.5594 133.96445 309.98126Q134.63632 309.3875 134.91757 308.825L135.58945 308.825L135.58945 317.45Z" fill-rule="nonzero"/><path fill="#000000" d="M258.75378 316.4344L258.75378 317.45L253.06627 317.45Q253.06627 317.075 253.19127 316.71564Q253.41002 316.1375 253.87877 315.575Q254.36314 315.0125 255.2694 314.27814Q256.67566 313.1219 257.16003 312.45Q257.66003 311.77814 257.66003 311.1844Q257.66003 310.5594 257.2069 310.1375Q256.75378 309.7 256.03503 309.7Q255.2694 309.7 254.81627 310.15314Q254.36314 310.60626 254.34752 311.41876L253.2694 311.3094Q253.37877 310.09064 254.09752 309.46564Q254.8319 308.825 256.06628 308.825Q257.30066 308.825 258.0194 309.5125Q258.73816 310.2 258.73816 311.21564Q258.73816 311.73126 258.5194 312.23126Q258.31628 312.71564 257.81628 313.27814Q257.3319 313.825 256.2069 314.77814Q255.25377 315.575 254.97252 315.8719Q254.7069 316.15314 254.53502 316.4344L258.75378 316.4344Z" fill-rule="nonzero"/><path fill="#000000" d="M374.7931 315.1844L375.8556 315.04376Q376.02747 315.9344 376.46497 316.34064Q376.90247 316.73126 377.52747 316.73126Q378.27747 316.73126 378.7931 316.21564Q379.30872 315.7 379.30872 314.9344Q379.30872 314.21564 378.82434 313.7469Q378.3556 313.2625 377.62122 313.2625Q377.32434 313.2625 376.87122 313.3875L376.99622 312.45Q377.1056 312.46564 377.1681 312.46564Q377.83997 312.46564 378.37122 312.1219Q378.9181 311.7625 378.9181 311.02814Q378.9181 310.45 378.52747 310.075Q378.13684 309.6844 377.51184 309.6844Q376.90247 309.6844 376.4806 310.075Q376.07434 310.46564 375.96497 311.23126L374.90247 311.04376Q375.08997 309.9969 375.77747 309.41876Q376.46497 308.825 377.4806 308.825Q378.18372 308.825 378.77747 309.1375Q379.37122 309.4344 379.68372 309.95Q379.99622 310.46564 379.99622 311.0594Q379.99622 311.60626 379.69934 312.075Q379.40247 312.52814 378.82434 312.79376Q379.57434 312.96564 379.99622 313.52814Q380.4181 314.075 380.4181 314.91876Q380.4181 316.04376 379.58997 316.825Q378.77747 317.60626 377.52747 317.60626Q376.40247 317.60626 375.65247 316.9344Q374.90247 316.2469 374.7931 315.1844Z" fill-rule="nonzero"/><path fill="#000000" d="M499.7543 317.45L499.7543 315.3875L496.03555 315.3875L496.03555 314.41876L499.95743 308.85626L500.8168 308.85626L500.8168 314.41876L501.97305 314.41876L501.97305 315.3875L500.8168 315.3875L500.8168 317.45L499.7543 317.45ZM499.7543 314.41876L499.7543 310.5594L497.0668 314.41876L499.7543 314.41876Z" fill-rule="nonzero"/><path fill="#4285f4" d="M106.0 56.916668C106.0 56.364384 106.447716 55.916668 107.0 55.916668L117.0 55.916668C117.552284 55.916668 118.0 56.364384 118.0 56.916668L118.0 66.916664C118.0 67.46895 117.552284 67.916664 117.0 67.916664L107.0 67.916664C106.447716 67.916664 106.0 67.46895 106.0 66.916664Z" fill-rule="nonzero"/><path fill="#1a1a1a" d="M126.921875 65.916664L126.921875 57.322914L129.89062 57.322914Q130.89062 57.322914 131.42188 57.447914Q132.15625 57.61979 132.67188 58.05729Q133.35938 58.635414 133.6875 59.541664Q134.03125 60.43229 134.03125 61.572914Q134.03125 62.55729 133.79688 63.30729Q133.57812 64.05729 133.21875 64.55729Q132.85938 65.05729 132.42188 65.33854Q132.0 65.61979 131.40625 65.77604Q130.8125 65.916664 130.03125 65.916664L126.921875 65.916664ZM128.0625 64.90104L129.89062 64.90104Q130.75 64.90104 131.23438 64.74479Q131.71875 64.58854 132.0 64.291664Q132.40625 63.90104 132.625 63.21354Q132.85938 62.52604 132.85938 61.55729Q132.85938 60.21354 132.40625 59.49479Q131.96875 58.760414 131.34375 58.510414Q130.875 58.33854 129.875 58.33854L128.0625 58.33854L128.0625 64.90104ZM140.04688 63.916664L141.14062 64.041664Q140.89062 64.99479 140.1875 65.52604Q139.48438 66.05729 138.40625 66.05729Q137.04688 66.05729 136.23438 65.21354Q135.4375 64.36979 135.4375 62.854164Q135.4375 61.291664 136.25 60.43229Q137.0625 59.55729 138.34375 59.55729Q139.59375 59.55729 140.375 60.40104Q141.17188 61.24479 141.17188 62.791664Q141.17188 62.885414 141.17188 63.072914L136.53125 63.072914Q136.59375 64.104164 137.10938 64.65104Q137.625 65.18229 138.40625 65.18229Q138.98438 65.18229 139.39062 64.885414Q139.8125 64.572914 140.04688 63.916664ZM136.59375 62.21354L140.0625 62.21354Q140.0 61.416664 139.67188 61.02604Q139.15625 60.416664 138.35938 60.416664Q137.625 60.416664 137.125 60.90104Q136.64062 61.385414 136.59375 62.21354ZM144.51562 65.916664L142.15625 59.697914L143.26562 59.697914L144.60938 63.416664Q144.8125 64.02604 145.0 64.666664Q145.14062 64.18229 145.39062 63.49479L146.78125 59.697914L147.85938 59.697914L145.5 65.916664L144.51562 65.916664ZM148.79688 58.541664L148.79688 57.322914L149.85938 57.322914L149.85938 58.541664L148.79688 58.541664ZM148.79688 65.916664L148.79688 59.697914L149.85938 59.697914L149.85938 65.916664L148.79688 65.916664ZM155.85938 63.635414L156.89062 63.77604Q156.71875 64.83854 156.01562 65.447914Q155.3125 66.05729 154.29688 66.05729Q153.01562 66.05729 152.23438 65.229164Q151.46875 64.385414 151.46875 62.822914Q151.46875 61.822914 151.79688 61.072914Q152.14062 60.30729 152.8125 59.93229Q153.5 59.55729 154.3125 59.55729Q155.3125 59.55729 155.95312 60.072914Q156.60938 60.572914 156.79688 61.52604L155.76562 61.68229Q155.625 61.05729 155.25 60.74479Q154.875 60.416664 154.34375 60.416664Q153.54688 60.416664 153.04688 60.99479Q152.54688 61.55729 152.54688 62.791664Q152.54688 64.05729 153.03125 64.61979Q153.51562 65.18229 154.28125 65.18229Q154.90625 65.18229 155.3125 64.80729Q155.73438 64.43229 155.85938 63.635414ZM162.04688 63.916664L163.14062 64.041664Q162.89062 64.99479 162.1875 65.52604Q161.48438 66.05729 160.40625 66.05729Q159.04688 66.05729 158.23438 65.21354Q157.4375 64.36979 157.4375 62.854164Q157.4375 61.291664 158.25 60.43229Q159.0625 59.55729 160.34375 59.55729Q161.59375 59.55729 162.375 60.40104Q163.17188 61.24479 163.17188 62.791664Q163.17188 62.885414 163.17188 63.072914L158.53125 63.072914Q158.59375 64.104164 159.10938 64.65104Q159.625 65.18229 160.40625 65.18229Q160.98438 65.18229 161.39062 64.885414Q161.8125 64.572914 162.04688 63.916664ZM158.59375 62.21354L162.0625 62.21354Q162.0 61.416664 161.67188 61.02604Q161.15625 60.416664 160.35938 60.416664Q159.625 60.416664 159.125 60.90104Q158.64062 61.385414 158.59375 62.21354ZM171.46875 65.916664L170.42188 65.916664L170.42188 59.197914Q170.03125 59.55729 169.40625 59.93229Q168.79688 60.291664 168.3125 60.46354L168.3125 59.447914Q169.1875 59.02604 169.84375 58.447914Q170.51562 57.854164 170.79688 57.291664L171.46875 57.291664L171.46875 65.916664ZM179.8125 68.447914Q178.9375 67.33854 178.32812 65.86979Q177.73438 64.385414 177.73438 62.80729Q177.73438 61.416664 178.17188 60.135414Q178.70312 58.65104 179.8125 57.18229L180.5625 57.18229Q179.85938 58.40104 179.625 58.916664Q179.26562 59.729164 179.0625 60.604164Q178.8125 61.697914 178.8125 62.80729Q178.8125 65.635414 180.5625 68.447914L179.8125 68.447914ZM181.375 64.05729L182.40625 63.90104Q182.5 64.52604 182.89062 64.854164Q183.29688 65.18229 184.03125 65.18229Q184.75 65.18229 185.09375 64.90104Q185.45312 64.604164 185.45312 64.197914Q185.45312 63.83854 185.14062 63.635414Q184.92188 63.49479 184.0625 63.27604Q182.90625 62.979164 182.45312 62.77604Q182.01562 62.55729 181.78125 62.18229Q181.54688 61.80729 181.54688 61.33854Q181.54688 60.93229 181.73438 60.572914Q181.92188 60.21354 182.25 59.979164Q182.5 59.80729 182.92188 59.68229Q183.34375 59.55729 183.84375 59.55729Q184.5625 59.55729 185.10938 59.77604Q185.67188 59.979164 185.9375 60.33854Q186.20312 60.697914 186.29688 61.291664L185.26562 61.43229Q185.20312 60.96354 184.85938 60.697914Q184.53125 60.416664 183.90625 60.416664Q183.1875 60.416664 182.875 60.666664Q182.5625 60.90104 182.5625 61.229164Q182.5625 61.43229 182.6875 61.58854Q182.82812 61.760414 183.09375 61.86979Q183.25 61.93229 184.03125 62.135414Q185.15625 62.447914 185.59375 62.635414Q186.03125 62.822914 186.28125 63.18229Q186.53125 63.541664 186.53125 64.08854Q186.53125 64.61979 186.21875 65.08854Q185.92188 65.541664 185.34375 65.80729Q184.76562 66.05729 184.03125 66.05729Q182.8125 66.05729 182.17188 65.55729Q181.54688 65.041664 181.375 64.05729ZM188.48438 68.447914L187.73438 68.447914Q189.48438 65.635414 189.48438 62.80729Q189.48438 61.71354 189.23438 60.61979Q189.03125 59.74479 188.67188 58.93229Q188.4375 58.416664 187.73438 57.18229L188.48438 57.18229Q189.57812 58.65104 190.10938 60.135414Q190.5625 61.416664 190.5625 62.80729Q190.5625 64.385414 189.95312 65.86979Q189.34375 67.33854 188.48438 68.447914Z" fill-rule="nonzero"/><path fill="#ea4335" d="M207.0 56.916668C207.0 56.364384 207.44771 55.916668 208.0 55.916668L218.0 55.916668C218.55229 55.916668 219.0 56.364384 219.0 56.916668L219.0 66.916664C219.0 67.46895 218.55229 67.916664 218.0 67.916664L208.0 67.916664C207.44771 67.916664 207.0 67.46895 207.0 66.916664Z" fill-rule="nonzero"/><path fill="#1a1a1a" d="M227.92188 65.916664L227.92188 57.322914L230.89062 57.322914Q231.89062 57.322914 232.42188 57.447914Q233.15625 57.61979 233.67188 58.05729Q234.35938 58.635414 234.6875 59.541664Q235.03125 60.43229 235.03125 61.572914Q235.03125 62.55729 234.79688 63.30729Q234.57812 64.05729 234.21875 64.55729Q233.85938 65.05729 233.42188 65.33854Q233.0 65.61979 232.40625 65.77604Q231.8125 65.916664 231.03125 65.916664L227.92188 65.916664ZM229.0625 64.90104L230.89062 64.90104Q231.75 64.90104 232.23438 64.74479Q232.71875 64.58854 233.0 64.291664Q233.40625 63.90104 233.625 63.21354Q233.85938 62.52604 233.85938 61.55729Q233.85938 60.21354 233.40625 59.49479Q232.96875 58.760414 232.34375 58.510414Q231.875 58.33854 230.875 58.33854L229.0625 58.33854L229.0625 64.90104ZM241.04688 63.916664L242.14062 64.041664Q241.89062 64.99479 241.1875 65.52604Q240.48438 66.05729 239.40625 66.05729Q238.04688 66.05729 237.23438 65.21354Q236.4375 64.36979 236.4375 62.854164Q236.4375 61.291664 237.25 60.43229Q238.0625 59.55729 239.34375 59.55729Q240.59375 59.55729 241.375 60.40104Q242.17188 61.24479 242.17188 62.791664Q242.17188 62.885414 242.17188 63.072914L237.53125 63.072914Q237.59375 64.104164 238.10938 64.65104Q238.625 65.18229 239.40625 65.18229Q239.98438 65.18229 240.39062 64.885414Q240.8125 64.572914 241.04688 63.916664ZM237.59375 62.21354L241.0625 62.21354Q241.0 61.416664 240.67188 61.02604Q240.15625 60.416664 239.35938 60.416664Q238.625 60.416664 238.125 60.90104Q237.64062 61.385414 237.59375 62.21354ZM245.51562 65.916664L243.15625 59.697914L244.26562 59.697914L245.60938 63.416664Q245.8125 64.02604 246.0 64.666664Q246.14062 64.18229 246.39062 63.49479L247.78125 59.697914L248.85938 59.697914L246.5 65.916664L245.51562 65.916664ZM249.79688 58.541664L249.79688 57.322914L250.85938 57.322914L250.85938 58.541664L249.79688 58.541664ZM249.79688 65.916664L249.79688 59.697914L250.85938 59.697914L250.85938 65.916664L249.79688 65.916664ZM256.85938 63.635414L257.89062 63.77604Q257.71875 64.83854 257.01562 65.447914Q256.3125 66.05729 255.29688 66.05729Q254.01562 66.05729 253.23438 65.229164Q252.46875 64.385414 252.46875 62.822914Q252.46875 61.822914 252.79688 61.072914Q253.14062 60.30729 253.8125 59.93229Q254.5 59.55729 255.3125 59.55729Q256.3125 59.55729 256.95312 60.072914Q257.60938 60.572914 257.79688 61.52604L256.76562 61.68229Q256.625 61.05729 256.25 60.74479Q255.875 60.416664 255.34375 60.416664Q254.54688 60.416664 254.04688 60.99479Q253.54688 61.55729 253.54688 62.791664Q253.54688 64.05729 254.03125 64.61979Q254.51562 65.18229 255.28125 65.18229Q255.90625 65.18229 256.3125 64.80729Q256.73438 64.43229 256.85938 63.635414ZM263.04688 63.916664L264.14062 64.041664Q263.89062 64.99479 263.1875 65.52604Q262.48438 66.05729 261.40625 66.05729Q260.04688 66.05729 259.23438 65.21354Q258.4375 64.36979 258.4375 62.854164Q258.4375 61.291664 259.25 60.43229Q260.0625 59.55729 261.34375 59.55729Q262.59375 59.55729 263.375 60.40104Q264.17188 61.24479 264.17188 62.791664Q264.17188 62.885414 264.17188 63.072914L259.53125 63.072914Q259.59375 64.104164 260.10938 64.65104Q260.625 65.18229 261.40625 65.18229Q261.98438 65.18229 262.39062 64.885414Q262.8125 64.572914 263.04688 63.916664ZM259.59375 62.21354L263.0625 62.21354Q263.0 61.416664 262.67188 61.02604Q262.15625 60.416664 261.35938 60.416664Q260.625 60.416664 260.125 60.90104Q259.64062 61.385414 259.59375 62.21354ZM274.04688 64.90104L274.04688 65.916664L268.35938 65.916664Q268.35938 65.541664 268.48438 65.18229Q268.70312 64.604164 269.17188 64.041664Q269.65625 63.479164 270.5625 62.74479Q271.96875 61.58854 272.45312 60.916664Q272.95312 60.24479 272.95312 59.65104Q272.95312 59.02604 272.5 58.604164Q272.04688 58.166664 271.32812 58.166664Q270.5625 58.166664 270.10938 58.61979Q269.65625 59.072914 269.64062 59.885414L268.5625 59.77604Q268.67188 58.55729 269.39062 57.93229Q270.125 57.291664 271.35938 57.291664Q272.59375 57.291664 273.3125 57.979164Q274.03125 58.666664 274.03125 59.68229Q274.03125 60.197914 273.8125 60.697914Q273.60938 61.18229 273.10938 61.74479Q272.625 62.291664 271.5 63.24479Q270.54688 64.041664 270.26562 64.33854Q270.0 64.61979 269.82812 64.90104L274.04688 64.90104ZM280.8125 68.447914Q279.9375 67.33854 279.32812 65.86979Q278.73438 64.385414 278.73438 62.80729Q278.73438 61.416664 279.17188 60.135414Q279.70312 58.65104 280.8125 57.18229L281.5625 57.18229Q280.85938 58.40104 280.625 58.916664Q280.26562 59.729164 280.0625 60.604164Q279.8125 61.697914 279.8125 62.80729Q279.8125 65.635414 281.5625 68.447914L280.8125 68.447914ZM282.375 64.05729L283.40625 63.90104Q283.5 64.52604 283.89062 64.854164Q284.29688 65.18229 285.03125 65.18229Q285.75 65.18229 286.09375 64.90104Q286.45312 64.604164 286.45312 64.197914Q286.45312 63.83854 286.14062 63.635414Q285.92188 63.49479 285.0625 63.27604Q283.90625 62.979164 283.45312 62.77604Q283.01562 62.55729 282.78125 62.18229Q282.54688 61.80729 282.54688 61.33854Q282.54688 60.93229 282.73438 60.572914Q282.92188 60.21354 283.25 59.979164Q283.5 59.80729 283.92188 59.68229Q284.34375 59.55729 284.84375 59.55729Q285.5625 59.55729 286.10938 59.77604Q286.67188 59.979164 286.9375 60.33854Q287.20312 60.697914 287.29688 61.291664L286.26562 61.43229Q286.20312 60.96354 285.85938 60.697914Q285.53125 60.416664 284.90625 60.416664Q284.1875 60.416664 283.875 60.666664Q283.5625 60.90104 283.5625 61.229164Q283.5625 61.43229 283.6875 61.58854Q283.82812 61.760414 284.09375 61.86979Q284.25 61.93229 285.03125 62.135414Q286.15625 62.447914 286.59375 62.635414Q287.03125 62.822914 287.28125 63.18229Q287.53125 63.541664 287.53125 64.08854Q287.53125 64.61979 287.21875 65.08854Q286.92188 65.541664 286.34375 65.80729Q285.76562 66.05729 285.03125 66.05729Q283.8125 66.05729 283.17188 65.55729Q282.54688 65.041664 282.375 64.05729ZM289.48438 68.447914L288.73438 68.447914Q290.48438 65.635414 290.48438 62.80729Q290.48438 61.71354 290.23438 60.61979Q290.03125 59.74479 289.67188 58.93229Q289.4375 58.416664 288.73438 57.18229L289.48438 57.18229Q290.57812 58.65104 291.10938 60.135414Q291.5625 61.416664 291.5625 62.80729Q291.5625 64.385414 290.95312 65.86979Q290.34375 67.33854 289.48438 68.447914Z" fill-rule="nonzero"/><path fill="#fbbc04" d="M308.0 56.916668C308.0 56.364384 308.44772 55.916668 309.0 55.916668L319.0 55.916668C319.55228 55.916668 320.0 56.364384 320.0 56.916668L320.0 66.916664C320.0 67.46895 319.55228 67.916664 319.0 67.916664L309.0 67.916664C308.44772 67.916664 308.0 67.46895 308.0 66.916664Z" fill-rule="nonzero"/><path fill="#1a1a1a" d="M328.92188 65.916664L328.92188 57.322914L331.89062 57.322914Q332.89062 57.322914 333.42188 57.447914Q334.15625 57.61979 334.67188 58.05729Q335.35938 58.635414 335.6875 59.541664Q336.03125 60.43229 336.03125 61.572914Q336.03125 62.55729 335.79688 63.30729Q335.57812 64.05729 335.21875 64.55729Q334.85938 65.05729 334.42188 65.33854Q334.0 65.61979 333.40625 65.77604Q332.8125 65.916664 332.03125 65.916664L328.92188 65.916664ZM330.0625 64.90104L331.89062 64.90104Q332.75 64.90104 333.23438 64.74479Q333.71875 64.58854 334.0 64.291664Q334.40625 63.90104 334.625 63.21354Q334.85938 62.52604 334.85938 61.55729Q334.85938 60.21354 334.40625 59.49479Q333.96875 58.760414 333.34375 58.510414Q332.875 58.33854 331.875 58.33854L330.0625 58.33854L330.0625 64.90104ZM342.04688 63.916664L343.14062 64.041664Q342.89062 64.99479 342.1875 65.52604Q341.48438 66.05729 340.40625 66.05729Q339.04688 66.05729 338.23438 65.21354Q337.4375 64.36979 337.4375 62.854164Q337.4375 61.291664 338.25 60.43229Q339.0625 59.55729 340.34375 59.55729Q341.59375 59.55729 342.375 60.40104Q343.17188 61.24479 343.17188 62.791664Q343.17188 62.885414 343.17188 63.072914L338.53125 63.072914Q338.59375 64.104164 339.10938 64.65104Q339.625 65.18229 340.40625 65.18229Q340.98438 65.18229 341.39062 64.885414Q341.8125 64.572914 342.04688 63.916664ZM338.59375 62.21354L342.0625 62.21354Q342.0 61.416664 341.67188 61.02604Q341.15625 60.416664 340.35938 60.416664Q339.625 60.416664 339.125 60.90104Q338.64062 61.385414 338.59375 62.21354ZM346.51562 65.916664L344.15625 59.697914L345.26562 59.697914L346.60938 63.416664Q346.8125 64.02604 347.0 64.666664Q347.14062 64.18229 347.39062 63.49479L348.78125 59.697914L349.85938 59.697914L347.5 65.916664L346.51562 65.916664ZM350.79688 58.541664L350.79688 57.322914L351.85938 57.322914L351.85938 58.541664L350.79688 58.541664ZM350.79688 65.916664L350.79688 59.697914L351.85938 59.697914L351.85938 65.916664L350.79688 65.916664ZM357.85938 63.635414L358.89062 63.77604Q358.71875 64.83854 358.01562 65.447914Q357.3125 66.05729 356.29688 66.05729Q355.01562 66.05729 354.23438 65.229164Q353.46875 64.385414 353.46875 62.822914Q353.46875 61.822914 353.79688 61.072914Q354.14062 60.30729 354.8125 59.93229Q355.5 59.55729 356.3125 59.55729Q357.3125 59.55729 357.95312 60.072914Q358.60938 60.572914 358.79688 61.52604L357.76562 61.68229Q357.625 61.05729 357.25 60.74479Q356.875 60.416664 356.34375 60.416664Q355.54688 60.416664 355.04688 60.99479Q354.54688 61.55729 354.54688 62.791664Q354.54688 64.05729 355.03125 64.61979Q355.51562 65.18229 356.28125 65.18229Q356.90625 65.18229 357.3125 64.80729Q357.73438 64.43229 357.85938 63.635414ZM364.04688 63.916664L365.14062 64.041664Q364.89062 64.99479 364.1875 65.52604Q363.48438 66.05729 362.40625 66.05729Q361.04688 66.05729 360.23438 65.21354Q359.4375 64.36979 359.4375 62.854164Q359.4375 61.291664 360.25 60.43229Q361.0625 59.55729 362.34375 59.55729Q363.59375 59.55729 364.375 60.40104Q365.17188 61.24479 365.17188 62.791664Q365.17188 62.885414 365.17188 63.072914L360.53125 63.072914Q360.59375 64.104164 361.10938 64.65104Q361.625 65.18229 362.40625 65.18229Q362.98438 65.18229 363.39062 64.885414Q363.8125 64.572914 364.04688 63.916664ZM360.59375 62.21354L364.0625 62.21354Q364.0 61.416664 363.67188 61.02604Q363.15625 60.416664 362.35938 60.416664Q361.625 60.416664 361.125 60.90104Q360.64062 61.385414 360.59375 62.21354ZM369.5 63.65104L370.5625 63.510414Q370.73438 64.40104 371.17188 64.80729Q371.60938 65.197914 372.23438 65.197914Q372.98438 65.197914 373.5 64.68229Q374.01562 64.166664 374.01562 63.40104Q374.01562 62.68229 373.53125 62.21354Q373.0625 61.729164 372.32812 61.729164Q372.03125 61.729164 371.57812 61.854164L371.70312 60.916664Q371.8125 60.93229 371.875 60.93229Q372.54688 60.93229 373.07812 60.58854Q373.625 60.229164 373.625 59.49479Q373.625 58.916664 373.23438 58.541664Q372.84375 58.15104 372.21875 58.15104Q371.60938 58.15104 371.1875 58.541664Q370.78125 58.93229 370.67188 59.697914L369.60938 59.510414Q369.79688 58.46354 370.48438 57.885414Q371.17188 57.291664 372.1875 57.291664Q372.89062 57.291664 373.48438 57.604164Q374.07812 57.90104 374.39062 58.416664Q374.70312 58.93229 374.70312 59.52604Q374.70312 60.072914 374.40625 60.541664Q374.10938 60.99479 373.53125 61.260414Q374.28125 61.43229 374.70312 61.99479Q375.125 62.541664 375.125 63.385414Q375.125 64.510414 374.29688 65.291664Q373.48438 66.072914 372.23438 66.072914Q371.10938 66.072914 370.35938 65.40104Q369.60938 64.71354 369.5 63.65104ZM381.8125 68.447914Q380.9375 67.33854 380.32812 65.86979Q379.73438 64.385414 379.73438 62.80729Q379.73438 61.416664 380.17188 60.135414Q380.70312 58.65104 381.8125 57.18229L382.5625 57.18229Q381.85938 58.40104 381.625 58.916664Q381.26562 59.729164 381.0625 60.604164Q380.8125 61.697914 380.8125 62.80729Q380.8125 65.635414 382.5625 68.447914L381.8125 68.447914ZM383.375 64.05729L384.40625 63.90104Q384.5 64.52604 384.89062 64.854164Q385.29688 65.18229 386.03125 65.18229Q386.75 65.18229 387.09375 64.90104Q387.45312 64.604164 387.45312 64.197914Q387.45312 63.83854 387.14062 63.635414Q386.92188 63.49479 386.0625 63.27604Q384.90625 62.979164 384.45312 62.77604Q384.01562 62.55729 383.78125 62.18229Q383.54688 61.80729 383.54688 61.33854Q383.54688 60.93229 383.73438 60.572914Q383.92188 60.21354 384.25 59.979164Q384.5 59.80729 384.92188 59.68229Q385.34375 59.55729 385.84375 59.55729Q386.5625 59.55729 387.10938 59.77604Q387.67188 59.979164 387.9375 60.33854Q388.20312 60.697914 388.29688 61.291664L387.26562 61.43229Q387.20312 60.96354 386.85938 60.697914Q386.53125 60.416664 385.90625 60.416664Q385.1875 60.416664 384.875 60.666664Q384.5625 60.90104 384.5625 61.229164Q384.5625 61.43229 384.6875 61.58854Q384.82812 61.760414 385.09375 61.86979Q385.25 61.93229 386.03125 62.135414Q387.15625 62.447914 387.59375 62.635414Q388.03125 62.822914 388.28125 63.18229Q388.53125 63.541664 388.53125 64.08854Q388.53125 64.61979 388.21875 65.08854Q387.92188 65.541664 387.34375 65.80729Q386.76562 66.05729 386.03125 66.05729Q384.8125 66.05729 384.17188 65.55729Q383.54688 65.041664 383.375 64.05729ZM390.48438 68.447914L389.73438 68.447914Q391.48438 65.635414 391.48438 62.80729Q391.48438 61.71354 391.23438 60.61979Q391.03125 59.74479 390.67188 58.93229Q390.4375 58.416664 389.73438 57.18229L390.48438 57.18229Q391.57812 58.65104 392.10938 60.135414Q392.5625 61.416664 392.5625 62.80729Q392.5625 64.385414 391.95312 65.86979Q391.34375 67.33854 390.48438 68.447914Z" fill-rule="nonzero"/><path fill="#34a853" d="M409.0 56.916668C409.0 56.364384 409.44772 55.916668 410.0 55.916668L420.0 55.916668C420.55228 55.916668 421.0 56.364384 421.0 56.916668L421.0 66.916664C421.0 67.46895 420.55228 67.916664 420.0 67.916664L410.0 67.916664C409.44772 67.916664 409.0 67.46895 409.0 66.916664Z" fill-rule="nonzero"/><path fill="#1a1a1a" d="M429.92188 65.916664L429.92188 57.322914L432.89062 57.322914Q433.89062 57.322914 434.42188 57.447914Q435.15625 57.61979 435.67188 58.05729Q436.35938 58.635414 436.6875 59.541664Q437.03125 60.43229 437.03125 61.572914Q437.03125 62.55729 436.79688 63.30729Q436.57812 64.05729 436.21875 64.55729Q435.85938 65.05729 435.42188 65.33854Q435.0 65.61979 434.40625 65.77604Q433.8125 65.916664 433.03125 65.916664L429.92188 65.916664ZM431.0625 64.90104L432.89062 64.90104Q433.75 64.90104 434.23438 64.74479Q434.71875 64.58854 435.0 64.291664Q435.40625 63.90104 435.625 63.21354Q435.85938 62.52604 435.85938 61.55729Q435.85938 60.21354 435.40625 59.49479Q434.96875 58.760414 434.34375 58.510414Q433.875 58.33854 432.875 58.33854L431.0625 58.33854L431.0625 64.90104ZM443.04688 63.916664L444.14062 64.041664Q443.89062 64.99479 443.1875 65.52604Q442.48438 66.05729 441.40625 66.05729Q440.04688 66.05729 439.23438 65.21354Q438.4375 64.36979 438.4375 62.854164Q438.4375 61.291664 439.25 60.43229Q440.0625 59.55729 441.34375 59.55729Q442.59375 59.55729 443.375 60.40104Q444.17188 61.24479 444.17188 62.791664Q444.17188 62.885414 444.17188 63.072914L439.53125 63.072914Q439.59375 64.104164 440.10938 64.65104Q440.625 65.18229 441.40625 65.18229Q441.98438 65.18229 442.39062 64.885414Q442.8125 64.572914 443.04688 63.916664ZM439.59375 62.21354L443.0625 62.21354Q443.0 61.416664 442.67188 61.02604Q442.15625 60.416664 441.35938 60.416664Q440.625 60.416664 440.125 60.90104Q439.64062 61.385414 439.59375 62.21354ZM447.51562 65.916664L445.15625 59.697914L446.26562 59.697914L447.60938 63.416664Q447.8125 64.02604 448.0 64.666664Q448.14062 64.18229 448.39062 63.49479L449.78125 59.697914L450.85938 59.697914L448.5 65.916664L447.51562 65.916664ZM451.79688 58.541664L451.79688 57.322914L452.85938 57.322914L452.85938 58.541664L451.79688 58.541664ZM451.79688 65.916664L451.79688 59.697914L452.85938 59.697914L452.85938 65.916664L451.79688 65.916664ZM458.85938 63.635414L459.89062 63.77604Q459.71875 64.83854 459.01562 65.447914Q458.3125 66.05729 457.29688 66.05729Q456.01562 66.05729 455.23438 65.229164Q454.46875 64.385414 454.46875 62.822914Q454.46875 61.822914 454.79688 61.072914Q455.14062 60.30729 455.8125 59.93229Q456.5 59.55729 457.3125 59.55729Q458.3125 59.55729 458.95312 60.072914Q459.60938 60.572914 459.79688 61.52604L458.76562 61.68229Q458.625 61.05729 458.25 60.74479Q457.875 60.416664 457.34375 60.416664Q456.54688 60.416664 456.04688 60.99479Q455.54688 61.55729 455.54688 62.791664Q455.54688 64.05729 456.03125 64.61979Q456.51562 65.18229 457.28125 65.18229Q457.90625 65.18229 458.3125 64.80729Q458.73438 64.43229 458.85938 63.635414ZM465.04688 63.916664L466.14062 64.041664Q465.89062 64.99479 465.1875 65.52604Q464.48438 66.05729 463.40625 66.05729Q462.04688 66.05729 461.23438 65.21354Q460.4375 64.36979 460.4375 62.854164Q460.4375 61.291664 461.25 60.43229Q462.0625 59.55729 463.34375 59.55729Q464.59375 59.55729 465.375 60.40104Q466.17188 61.24479 466.17188 62.791664Q466.17188 62.885414 466.17188 63.072914L461.53125 63.072914Q461.59375 64.104164 462.10938 64.65104Q462.625 65.18229 463.40625 65.18229Q463.98438 65.18229 464.39062 64.885414Q464.8125 64.572914 465.04688 63.916664ZM461.59375 62.21354L465.0625 62.21354Q465.0 61.416664 464.67188 61.02604Q464.15625 60.416664 463.35938 60.416664Q462.625 60.416664 462.125 60.90104Q461.64062 61.385414 461.59375 62.21354ZM473.875 65.916664L473.875 63.854164L470.15625 63.854164L470.15625 62.885414L474.07812 57.322914L474.9375 57.322914L474.9375 62.885414L476.09375 62.885414L476.09375 63.854164L474.9375 63.854164L474.9375 65.916664L473.875 65.916664ZM473.875 62.885414L473.875 59.02604L471.1875 62.885414L473.875 62.885414ZM482.8125 68.447914Q481.9375 67.33854 481.32812 65.86979Q480.73438 64.385414 480.73438 62.80729Q480.73438 61.416664 481.17188 60.135414Q481.70312 58.65104 482.8125 57.18229L483.5625 57.18229Q482.85938 58.40104 482.625 58.916664Q482.26562 59.729164 482.0625 60.604164Q481.8125 61.697914 481.8125 62.80729Q481.8125 65.635414 483.5625 68.447914L482.8125 68.447914ZM484.375 64.05729L485.40625 63.90104Q485.5 64.52604 485.89062 64.854164Q486.29688 65.18229 487.03125 65.18229Q487.75 65.18229 488.09375 64.90104Q488.45312 64.604164 488.45312 64.197914Q488.45312 63.83854 488.14062 63.635414Q487.92188 63.49479 487.0625 63.27604Q485.90625 62.979164 485.45312 62.77604Q485.01562 62.55729 484.78125 62.18229Q484.54688 61.80729 484.54688 61.33854Q484.54688 60.93229 484.73438 60.572914Q484.92188 60.21354 485.25 59.979164Q485.5 59.80729 485.92188 59.68229Q486.34375 59.55729 486.84375 59.55729Q487.5625 59.55729 488.10938 59.77604Q488.67188 59.979164 488.9375 60.33854Q489.20312 60.697914 489.29688 61.291664L488.26562 61.43229Q488.20312 60.96354 487.85938 60.697914Q487.53125 60.416664 486.90625 60.416664Q486.1875 60.416664 485.875 60.666664Q485.5625 60.90104 485.5625 61.229164Q485.5625 61.43229 485.6875 61.58854Q485.82812 61.760414 486.09375 61.86979Q486.25 61.93229 487.03125 62.135414Q488.15625 62.447914 488.59375 62.635414Q489.03125 62.822914 489.28125 63.18229Q489.53125 63.541664 489.53125 64.08854Q489.53125 64.61979 489.21875 65.08854Q488.92188 65.541664 488.34375 65.80729Q487.76562 66.05729 487.03125 66.05729Q485.8125 66.05729 485.17188 65.55729Q484.54688 65.041664 484.375 64.05729ZM491.48438 68.447914L490.73438 68.447914Q492.48438 65.635414 492.48438 62.80729Q492.48438 61.71354 492.23438 60.61979Q492.03125 59.74479 491.67188 58.93229Q491.4375 58.416664 490.73438 57.18229L491.48438 57.18229Q492.57812 58.65104 493.10938 60.135414Q493.5625 61.416664 493.5625 62.80729Q493.5625 64.385414 492.95312 65.86979Q492.34375 67.33854 491.48438 68.447914Z" fill-rule="nonzero"/><path fill="#757575" d="M20.034374 37.55L20.034374 23.2375L22.89375 23.2375L26.26875 33.3625Q26.7375 34.784374 26.95625 35.4875Q27.20625 34.70625 27.721874 33.190624L31.14375 23.2375L33.690624 23.2375L33.690624 37.55L31.878124 37.55L31.878124 25.565624L27.70625 37.55L26.003124 37.55L21.8625 25.3625L21.8625 37.55L20.034374 37.55ZM43.659374 37.55L43.659374 36.01875Q42.45625 37.784374 40.378124 37.784374Q39.45625 37.784374 38.659374 37.440624Q37.8625 37.08125 37.471874 36.55Q37.096874 36.01875 36.940624 35.2375Q36.83125 34.721874 36.83125 33.596874L36.83125 27.175L38.58125 27.175L38.58125 32.925Q38.58125 34.3 38.690624 34.784374Q38.8625 35.471874 39.39375 35.878124Q39.940624 36.26875 40.721874 36.26875Q41.51875 36.26875 42.20625 35.8625Q42.909374 35.45625 43.190624 34.76875Q43.4875 34.065624 43.4875 32.7375L43.4875 27.175L45.2375 27.175L45.2375 37.55L43.659374 37.55ZM47.83125 37.55L47.83125 23.2375L49.58125 23.2375L49.58125 37.55L47.83125 37.55ZM55.70625 35.971874L55.95625 37.534374Q55.221874 37.690624 54.628124 37.690624Q53.675 37.690624 53.14375 37.39375Q52.628124 37.08125 52.409374 36.596874Q52.190624 36.096874 52.190624 34.51875L52.190624 28.55L50.909374 28.55L50.909374 27.175L52.190624 27.175L52.190624 24.6125L53.940624 23.55L53.940624 27.175L55.70625 27.175L55.70625 28.55L53.940624 28.55L53.940624 34.6125Q53.940624 35.3625 54.034374 35.58125Q54.128124 35.784374 54.33125 35.925Q54.55 36.05 54.940624 36.05Q55.221874 36.05 55.70625 35.971874ZM57.878124 25.253124L57.878124 23.2375L59.64375 23.2375L59.64375 25.253124L57.878124 25.253124ZM57.878124 37.55L57.878124 27.175L59.64375 27.175L59.64375 37.55L57.878124 37.55ZM61.8625 41.51875L61.8625 27.175L63.471874 27.175L63.471874 28.51875Q64.03438 27.7375 64.7375 27.346874Q65.45625 26.940624 66.47188 26.940624Q67.8 26.940624 68.81563 27.628124Q69.83125 28.315624 70.34688 29.565624Q70.87813 30.8 70.87813 32.284374Q70.87813 33.878124 70.3 35.159374Q69.7375 36.425 68.64375 37.1125Q67.55 37.784374 66.34688 37.784374Q65.47188 37.784374 64.76875 37.409374Q64.08125 37.034374 63.628124 36.471874L63.628124 41.51875L61.8625 41.51875ZM63.45625 32.425Q63.45625 34.425 64.26875 35.378124Q65.08125 36.33125 66.2375 36.33125Q67.40938 36.33125 68.2375 35.346874Q69.08125 34.3625 69.08125 32.26875Q69.08125 30.3 68.25313 29.315624Q67.44063 28.315624 66.31563 28.315624Q65.19063 28.315624 64.31563 29.378124Q63.45625 30.425 63.45625 32.425ZM72.83125 37.55L72.83125 23.2375L74.58125 23.2375L74.58125 37.55L72.83125 37.55ZM83.97188 34.20625L85.78438 34.440624Q85.3625 36.01875 84.19063 36.909374Q83.03438 37.784374 81.22188 37.784374Q78.95625 37.784374 77.6125 36.39375Q76.28438 34.9875 76.28438 32.45625Q76.28438 29.83125 77.62813 28.39375Q78.97188 26.940624 81.12813 26.940624Q83.20625 26.940624 84.51875 28.3625Q85.84688 29.76875 85.84688 32.346874Q85.84688 32.503124 85.83125 32.815624L78.09688 32.815624Q78.19063 34.51875 79.06563 35.425Q79.94063 36.33125 81.2375 36.33125Q82.20625 36.33125 82.87813 35.83125Q83.56563 35.315624 83.97188 34.20625ZM78.19063 31.3625L83.9875 31.3625Q83.87813 30.065624 83.33125 29.409374Q82.4875 28.39375 81.14375 28.39375Q79.94063 28.39375 79.1125 29.20625Q78.28438 30.003124 78.19063 31.3625ZM94.09688 37.55L94.09688 23.2375L99.01875 23.2375Q100.69063 23.2375 101.58125 23.440624Q102.8 23.721874 103.675 24.45625Q104.8 25.425 105.3625 26.909374Q105.925 28.39375 105.925 30.315624Q105.925 31.940624 105.55 33.20625Q105.175 34.45625 104.56563 35.284374Q103.97188 36.1125 103.26875 36.596874Q102.56563 37.065624 101.56563 37.315624Q100.56563 37.55 99.25313 37.55L94.09688 37.55ZM95.9875 35.8625L99.05 35.8625Q100.45625 35.8625 101.25313 35.596874Q102.06563 35.33125 102.55 34.846874Q103.22188 34.175 103.59688 33.05Q103.97188 31.909374 103.97188 30.284374Q103.97188 28.034374 103.2375 26.83125Q102.50313 25.628124 101.44063 25.221874Q100.69063 24.925 99.00313 24.925L95.9875 24.925L95.9875 35.8625ZM114.97188 34.20625L116.78438 34.440624Q116.3625 36.01875 115.19063 36.909374Q114.03438 37.784374 112.22188 37.784374Q109.95625 37.784374 108.6125 36.39375Q107.28438 34.9875 107.28438 32.45625Q107.28438 29.83125 108.62813 28.39375Q109.97188 26.940624 112.12813 26.940624Q114.20625 26.940624 115.51875 28.3625Q116.84688 29.76875 116.84688 32.346874Q116.84688 32.503124 116.83125 32.815624L109.09688 32.815624Q109.19063 34.51875 110.06563 35.425Q110.94063 36.33125 112.2375 36.33125Q113.20625 36.33125 113.87813 35.83125Q114.56563 35.315624 114.97188 34.20625ZM109.19063 31.3625L114.9875 31.3625Q114.87813 30.065624 114.33125 29.409374Q113.4875 28.39375 112.14375 28.39375Q110.94063 28.39375 110.1125 29.20625Q109.28438 30.003124 109.19063 31.3625ZM121.75313 37.55L117.8 27.175L119.65938 27.175L121.89375 33.39375Q122.25313 34.39375 122.55 35.471874Q122.78438 34.659374 123.20625 33.503124L125.50313 27.175L127.31563 27.175L123.39375 37.55L121.75313 37.55ZM128.87813 25.253124L128.87813 23.2375L130.64375 23.2375L130.64375 25.253124L128.87813 25.253124ZM128.87813 37.55L128.87813 27.175L130.64375 27.175L130.64375 37.55L128.87813 37.55ZM139.64375 33.753124L141.3625 33.971874Q141.08125 35.76875 139.90938 36.784374Q138.75313 37.784374 137.05 37.784374Q134.925 37.784374 133.62813 36.39375Q132.33125 35.003124 132.33125 32.409374Q132.33125 30.721874 132.87813 29.471874Q133.44063 28.20625 134.58125 27.58125Q135.72188 26.940624 137.06563 26.940624Q138.75313 26.940624 139.81563 27.8Q140.89375 28.659374 141.20625 30.221874L139.4875 30.4875Q139.25313 29.440624 138.62813 28.925Q138.00313 28.39375 137.12813 28.39375Q135.8 28.39375 134.97188 29.346874Q134.14375 30.3 134.14375 32.346874Q134.14375 34.440624 134.94063 35.39375Q135.7375 36.33125 137.03438 36.33125Q138.06563 36.33125 138.75313 35.70625Q139.45625 35.065624 139.64375 33.753124ZM149.97188 34.20625L151.78438 34.440624Q151.3625 36.01875 150.19063 36.909374Q149.03438 37.784374 147.22188 37.784374Q144.95625 37.784374 143.6125 36.39375Q142.28438 34.9875 142.28438 32.45625Q142.28438 29.83125 143.62813 28.39375Q144.97188 26.940624 147.12813 26.940624Q149.20625 26.940624 150.51875 28.3625Q151.84688 29.76875 151.84688 32.346874Q151.84688 32.503124 151.83125 32.815624L144.09688 32.815624Q144.19063 34.51875 145.06563 35.425Q145.94063 36.33125 147.2375 36.33125Q148.20625 36.33125 148.87813 35.83125Q149.56563 35.315624 149.97188 34.20625ZM144.19063 31.3625L149.9875 31.3625Q149.87813 30.065624 149.33125 29.409374Q148.4875 28.39375 147.14375 28.39375Q145.94063 28.39375 145.1125 29.20625Q144.28438 30.003124 144.19063 31.3625ZM153.15938 34.45625L154.90938 34.175Q155.05 35.221874 155.72188 35.784374Q156.39375 36.33125 157.59688 36.33125Q158.8 36.33125 159.37813 35.846874Q159.97188 35.346874 159.97188 34.690624Q159.97188 34.096874 159.45625 33.753124Q159.09688 33.51875 157.65938 33.159374Q155.72188 32.659374 154.97188 32.315624Q154.2375 31.95625 153.84688 31.33125Q153.45625 30.690624 153.45625 29.925Q153.45625 29.2375 153.76875 28.64375Q154.09688 28.05 154.64375 27.659374Q155.05 27.3625 155.75313 27.159374Q156.47188 26.940624 157.28438 26.940624Q158.50313 26.940624 159.425 27.3Q160.34688 27.64375 160.78438 28.253124Q161.22188 28.846874 161.39375 29.846874L159.675 30.08125Q159.55 29.284374 158.9875 28.846874Q158.425 28.39375 157.40938 28.39375Q156.19063 28.39375 155.675 28.8Q155.15938 29.190624 155.15938 29.721874Q155.15938 30.065624 155.37813 30.346874Q155.58125 30.628124 156.05 30.815624Q156.31563 30.909374 157.59688 31.253124Q159.47188 31.753124 160.20625 32.08125Q160.94063 32.39375 161.3625 33.003124Q161.78438 33.596874 161.78438 34.503124Q161.78438 35.378124 161.26875 36.159374Q160.75313 36.940624 159.78438 37.3625Q158.81563 37.784374 157.59688 37.784374Q155.58125 37.784374 154.51875 36.940624Q153.45625 36.096874 153.15938 34.45625ZM171.78438 37.55L168.6125 27.175L170.425 27.175L172.08125 33.159374L172.69063 35.39375Q172.7375 35.221874 173.22188 33.253124L174.87813 27.175L176.69063 27.175L178.2375 33.190624L178.75313 35.175L179.34688 33.175L181.12813 27.175L182.83125 27.175L179.59688 37.55L177.76875 37.55L176.1125 31.33125L175.72188 29.565624L173.6125 37.55L171.78438 37.55ZM183.87813 25.253124L183.87813 23.2375L185.64375 23.2375L185.64375 25.253124L183.87813 25.253124ZM183.87813 37.55L183.87813 27.175L185.64375 27.175L185.64375 37.55L183.87813 37.55ZM191.70625 35.971874L191.95625 37.534374Q191.22188 37.690624 190.62813 37.690624Q189.675 37.690624 189.14375 37.39375Q188.62813 37.08125 188.40938 36.596874Q188.19063 36.096874 188.19063 34.51875L188.19063 28.55L186.90938 28.55L186.90938 27.175L188.19063 27.175L188.19063 24.6125L189.94063 23.55L189.94063 27.175L191.70625 27.175L191.70625 28.55L189.94063 28.55L189.94063 34.6125Q189.94063 35.3625 190.03438 35.58125Q190.12813 35.784374 190.33125 35.925Q190.55 36.05 190.94063 36.05Q191.22188 36.05 191.70625 35.971874ZM193.8625 37.55L193.8625 23.2375L195.62813 23.2375L195.62813 28.3625Q196.8625 26.940624 198.7375 26.940624Q199.87813 26.940624 200.72188 27.39375Q201.58125 27.846874 201.94063 28.659374Q202.31563 29.45625 202.31563 30.971874L202.31563 37.55L200.56563 37.55L200.56563 30.971874Q200.56563 29.659374 199.9875 29.065624Q199.40938 28.45625 198.37813 28.45625Q197.59688 28.45625 196.89375 28.8625Q196.20625 29.26875 195.90938 29.971874Q195.62813 30.659374 195.62813 31.878124L195.62813 37.55L193.8625 37.55ZM211.15938 37.55L211.15938 23.2375L213.05 23.2375L213.05 29.1125L220.4875 29.1125L220.4875 23.2375L222.37813 23.2375L222.37813 37.55L220.4875 37.55L220.4875 30.8L213.05 30.8L213.05 37.55L211.15938 37.55ZM231.97188 34.20625L233.78438 34.440624Q233.3625 36.01875 232.19063 36.909374Q231.03438 37.784374 229.22188 37.784374Q226.95625 37.784374 225.6125 36.39375Q224.28438 34.9875 224.28438 32.45625Q224.28438 29.83125 225.62813 28.39375Q226.97188 26.940624 229.12813 26.940624Q231.20625 26.940624 232.51875 28.3625Q233.84688 29.76875 233.84688 32.346874Q233.84688 32.503124 233.83125 32.815624L226.09688 32.815624Q226.19063 34.51875 227.06563 35.425Q227.94063 36.33125 229.2375 36.33125Q230.20625 36.33125 230.87813 35.83125Q231.56563 35.315624 231.97188 34.20625ZM226.19063 31.3625L231.9875 31.3625Q231.87813 30.065624 231.33125 29.409374Q230.4875 28.39375 229.14375 28.39375Q227.94063 28.39375 227.1125 29.20625Q226.28438 30.003124 226.19063 31.3625ZM242.64375 36.26875Q241.65938 37.096874 240.75313 37.440624Q239.84688 37.784374 238.81563 37.784374Q237.1125 37.784374 236.19063 36.95625Q235.26875 36.1125 235.26875 34.815624Q235.26875 34.05 235.6125 33.425Q235.97188 32.8 236.53438 32.425Q237.09688 32.034374 237.8 31.83125Q238.31563 31.70625 239.3625 31.565624Q241.4875 31.315624 242.4875 30.971874Q242.50313 30.6125 242.50313 30.503124Q242.50313 29.440624 242.00313 28.9875Q241.33125 28.39375 240.00313 28.39375Q238.75313 28.39375 238.15938 28.83125Q237.58125 29.26875 237.3 30.378124L235.58125 30.14375Q235.81563 29.034374 236.34688 28.3625Q236.87813 27.675 237.89375 27.315624Q238.90938 26.940624 240.25313 26.940624Q241.58125 26.940624 242.40938 27.253124Q243.2375 27.565624 243.62813 28.05Q244.01875 28.51875 244.175 29.2375Q244.26875 29.690624 244.26875 30.8625L244.26875 33.20625Q244.26875 35.659374 244.37813 36.315624Q244.4875 36.95625 244.83125 37.55L242.9875 37.55Q242.72188 37.003124 242.64375 36.26875ZM242.4875 32.346874Q241.53438 32.7375 239.6125 33.003124Q238.53438 33.159374 238.08125 33.3625Q237.64375 33.55 237.39375 33.925Q237.14375 34.3 237.14375 34.76875Q237.14375 35.471874 237.675 35.940624Q238.20625 36.409374 239.2375 36.409374Q240.25313 36.409374 241.03438 35.971874Q241.83125 35.51875 242.20625 34.753124Q242.4875 34.14375 242.4875 32.9875L242.4875 32.346874ZM246.84688 37.55L246.84688 27.175L248.425 27.175L248.425 28.753124Q249.03438 27.64375 249.55 27.3Q250.06563 26.940624 250.675 26.940624Q251.56563 26.940624 252.4875 27.503124L251.87813 29.14375Q251.2375 28.753124 250.59688 28.753124Q250.01875 28.753124 249.55 29.1125Q249.09688 29.45625 248.89375 30.065624Q248.6125 31.003124 248.6125 32.1125L248.6125 37.55L246.84688 37.55ZM257.70624 35.971874L257.95624 37.534374Q257.22186 37.690624 256.6281 37.690624Q255.675 37.690624 255.14375 37.39375Q254.62813 37.08125 254.40938 36.596874Q254.19063 36.096874 254.19063 34.51875L254.19063 28.55L252.90938 28.55L252.90938 27.175L254.19063 27.175L254.19063 24.6125L255.94063 23.55L255.94063 27.175L257.70624 27.175L257.70624 28.55L255.94063 28.55L255.94063 34.6125Q255.94063 35.3625 256.03436 35.58125Q256.1281 35.784374 256.33124 35.925Q256.55 36.05 256.9406 36.05Q257.22186 36.05 257.70624 35.971874ZM261.4875 37.55L259.8625 37.55L259.8625 23.2375L261.6125 23.2375L261.6125 28.346874Q262.7375 26.940624 264.45624 26.940624Q265.40936 26.940624 266.26874 27.33125Q267.1281 27.721874 267.675 28.425Q268.22186 29.1125 268.53436 30.096874Q268.84686 31.08125 268.84686 32.20625Q268.84686 34.878124 267.53436 36.33125Q266.22186 37.784374 264.3781 37.784374Q262.53436 37.784374 261.4875 36.253124L261.4875 37.55ZM261.47186 32.284374Q261.47186 34.14375 261.97186 34.9875Q262.8156 36.33125 264.22186 36.33125Q265.3781 36.33125 266.20624 35.33125Q267.05 34.33125 267.05 32.346874Q267.05 30.315624 266.2375 29.3625Q265.4406 28.39375 264.3 28.39375Q263.14374 28.39375 262.3 29.39375Q261.47186 30.39375 261.47186 32.284374ZM277.97186 34.20625L279.78436 34.440624Q279.3625 36.01875 278.1906 36.909374Q277.03436 37.784374 275.22186 37.784374Q272.95624 37.784374 271.6125 36.39375Q270.28436 34.9875 270.28436 32.45625Q270.28436 29.83125 271.6281 28.39375Q272.97186 26.940624 275.1281 26.940624Q277.20624 26.940624 278.51874 28.3625Q279.84686 29.76875 279.84686 32.346874Q279.84686 32.503124 279.83124 32.815624L272.09686 32.815624Q272.1906 34.51875 273.0656 35.425Q273.9406 36.33125 275.2375 36.33125Q276.20624 36.33125 276.8781 35.83125Q277.5656 35.315624 277.97186 34.20625ZM272.1906 31.3625L277.9875 31.3625Q277.8781 30.065624 277.33124 29.409374Q276.4875 28.39375 275.14374 28.39375Q273.9406 28.39375 273.1125 29.20625Q272.28436 30.003124 272.1906 31.3625ZM288.64374 36.26875Q287.65936 37.096874 286.7531 37.440624Q285.84686 37.784374 284.8156 37.784374Q283.1125 37.784374 282.1906 36.95625Q281.26874 36.1125 281.26874 34.815624Q281.26874 34.05 281.6125 33.425Q281.97186 32.8 282.53436 32.425Q283.09686 32.034374 283.8 31.83125Q284.3156 31.70625 285.3625 31.565624Q287.4875 31.315624 288.4875 30.971874Q288.5031 30.6125 288.5031 30.503124Q288.5031 29.440624 288.0031 28.9875Q287.33124 28.39375 286.0031 28.39375Q284.7531 28.39375 284.15936 28.83125Q283.58124 29.26875 283.3 30.378124L281.58124 30.14375Q281.8156 29.034374 282.34686 28.3625Q282.8781 27.675 283.89374 27.315624Q284.90936 26.940624 286.2531 26.940624Q287.58124 26.940624 288.40936 27.253124Q289.2375 27.565624 289.6281 28.05Q290.01874 28.51875 290.175 29.2375Q290.26874 29.690624 290.26874 30.8625L290.26874 33.20625Q290.26874 35.659374 290.3781 36.315624Q290.4875 36.95625 290.83124 37.55L288.9875 37.55Q288.72186 37.003124 288.64374 36.26875ZM288.4875 32.346874Q287.53436 32.7375 285.6125 33.003124Q284.53436 33.159374 284.08124 33.3625Q283.64374 33.55 283.39374 33.925Q283.14374 34.3 283.14374 34.76875Q283.14374 35.471874 283.675 35.940624Q284.20624 36.409374 285.2375 36.409374Q286.2531 36.409374 287.03436 35.971874Q287.83124 35.51875 288.20624 34.753124Q288.4875 34.14375 288.4875 32.9875L288.4875 32.346874ZM296.70624 35.971874L296.95624 37.534374Q296.22186 37.690624 295.6281 37.690624Q294.675 37.690624 294.14374 37.39375Q293.6281 37.08125 293.40936 36.596874Q293.1906 36.096874 293.1906 34.51875L293.1906 28.55L291.90936 28.55L291.90936 27.175L293.1906 27.175L293.1906 24.6125L294.9406 23.55L294.9406 27.175L296.70624 27.175L296.70624 28.55L294.9406 28.55L294.9406 34.6125Q294.9406 35.3625 295.03436 35.58125Q295.1281 35.784374 295.33124 35.925Q295.55 36.05 295.9406 36.05Q296.22186 36.05 296.70624 35.971874Z" fill-rule="nonzero"/></svg>