<svg version="1.1" viewBox="0.0 0.0 600.0 371.0" fill="none" stroke="none" stroke-linecap="square" stroke-miterlimit="10" width="600" height="371" xmlns:xlink="http://www.w3.org/1999/xlink" xmlns="http://www.w3.org/2000/svg"><path fill="#ffffff" d="M0 0L600.0 0L600.0 371.0L0 371.0L0 0Z" fill-rule="nonzero"/><path stroke="#333333" stroke-width="1.0" stroke-linecap="butt" d="M59.5 300.5L581.5 300.5" fill-rule="nonzero"/><path stroke="#cccccc" stroke-width="1.0" stroke-linecap="butt" d="M59.5 229.5L581.5 229.5" fill-rule="nonzero"/><path stroke="#cccccc" stroke-width="1.0" stroke-linecap="butt" d="M59.5 159.5L581.5 159.5" fill-rule="nonzero"/><path stroke="#cccccc" stroke-width="1.0" stroke-linecap="butt" d="M59.5 88.5L581.5 88.5" fill-rule="nonzero"/><path stroke="#000000" stroke-width="1.0" stroke-linecap="butt" stroke-opacity="0.0" d="M59.5 276.5L581.5 276.5" fill-rule="nonzero"/><path stroke="#000000" stroke-width="1.0" stroke-linecap="butt" stroke-opacity="0.0" d="M59.5 253.5L581.5 253.5" fill-rule="nonzero"/><path stroke="#000000" stroke-width="1.0" stroke-linecap="butt" stroke-opacity="0.0" d="M59.5 206.5L581.5 206.5" fill-rule="nonzero"/><path stroke="#000000" stroke-width="1.0" stroke-linecap="butt" stroke-opacity="0.0" d="M59.5 182.5L581.5 182.5" fill-rule="nonzero"/><path stroke="#000000" stroke-width="1.0" stroke-linecap="butt" stroke-opacity="0.0" d="M59.5 135.5L581.5 135.5" fill-rule="nonzero"/><path stroke="#000000" stroke-width="1.0" stroke-linecap="butt" stroke-opacity="0.0" d="M59.5 111.5L581.5 111.5" fill-rule="nonzero"/><clipPath id="id_0"><path d="M59.55 88.28333L581.45 88.28333L581.45 300.45L59.55 300.45L59.55 88.28333Z" clip-rule="nonzero"/></clipPath><path stroke="#000000" stroke-width="0.0" stroke-linecap="butt" stroke-opacity="0.0" clip-path="url(#id_0)" d="M140.0 300.0L102.0 300.0L102.0 252.0C102.0 250.89543 102.89543 250.0 104.0 250.0L138.0 250.0C139.10457 250.0 140.0 250.89543 140.0 252.0Z" fill-rule="nonzero"/><path fill="#4285f4" clip-path="url(#id_0)" d="M140.0 300.0L102.0 300.0L102.0 252.0C102.0 250.89543 102.89543 250.0 104.0 250.0L138.0 250.0C139.10457 250.0 140.0 250.89543 140.0 252.0Z" fill-rule="nonzero"/><path stroke="#000000" stroke-width="0.0" stroke-linecap="butt" stroke-opacity="0.0" clip-path="url(#id_0)" d="M260.0 300.0L222.0 300.0L222.0 201.0C222.0 199.89543 222.89543 199.0 224.0 199.0L258.0 199.0C259.10458 199.0 260.0 199.89543 260.0 201.0Z" fill-rule="nonzero"/><path fill="#4285f4" clip-path="url(#id_0)" d="M260.0 300.0L222.0 300.0L222.0 201.0C222.0 199.89543 222.89543 199.0 224.0 199.0L258.0 199.0C259.10458 199.0 260.0 199.89543 260.0 201.0Z" fill-rule="nonzero"/><path stroke="#000000" stroke-width="0.0" stroke-linecap="butt" stroke-opacity="0.0" clip-path="url(#id_0)" d="M379.0 300.0L341.0 300.0L341.0 175.0C341.0 173.89543 341.89542 173.0 343.0 173.0L377.0 173.0C378.10458 173.0 379.0 173.89543 379.0 175.0Z" fill-rule="nonzero"/><path fill="#4285f4" clip-path="url(#id_0)" d="M379.0 300.0L341.0 300.0L341.0 175.0C341.0 173.89543 341.89542 173.0 343.0 173.0L377.0 173.0C378.10458 173.0 379.0 173.89543 379.0 175.0Z" fill-rule="nonzero"/><path stroke="#000000" stroke-width="0.0" stroke-linecap="butt" stroke-opacity="0.0" clip-path="url(#id_0)" d="M499.0 300.0L461.0 300.0L461.0 124.0C461.0 122.89543 461.89542 122.0 463.0 122.0L497.0 122.0C498.10458 122.0 499.0 122.89543 499.0 124.0Z" fill-rule="nonzero"/><path fill="#4285f4" clip-path="url(#id_0)" d="M499.0 300.0L461.0 300.0L461.0 124.0C461.0 122.89543 461.89542 122.0 463.0 122.0L497.0 122.0C498.10458 122.0 499.0 122.89543 499.0 124.0Z" fill-rule="nonzero"/><path stroke="#000000" stroke-width="0.0" stroke-linecap="butt" stroke-opacity="0.0" clip-path="url(#id_0)" d="M179.0 300.0L141.0 300.0L141.0 252.0C141.0 250.89543 141.89543 250.0 143.0 250.0L177.0 250.0C178.10457 250.0 179.0 250.89543 179.0 252.0Z" fill-rule="nonzero"/><path fill="#ea4335" clip-path="url(#id_0)" d="M179.0 300.0L141.0 300.0L141.0 252.0C141.0 250.89543 141.89543 250.0 143.0 250.0L177.0 250.0C178.10457 250.0 179.0 250.89543 179.0 252.0Z" fill-rule="nonzero"/><path stroke="#000000" stroke-width="0.0" stroke-linecap="butt" stroke-opacity="0.0" clip-path="url(#id_0)" d="M299.0 300.0L261.0 300.0L261.0 252.0C261.0 250.89543 261.89542 250.0 263.0 250.0L297.0 250.0C298.10458 250.0 299.0 250.89543 299.0 252.0Z" fill-rule="nonzero"/><path fill="#ea4335" clip-path="url(#id_0)" d="M299.0 300.0L261.0 300.0L261.0 252.0C261.0 250.89543 261.89542 250.0 263.0 250.0L297.0 250.0C298.10458 250.0 299.0 250.89543 299.0 252.0Z" fill-rule="nonzero"/><path stroke="#000000" stroke-width="0.0" stroke-linecap="butt" stroke-opacity="0.0" clip-path="url(#id_0)" d="M418.0 300.0L380.0 300.0L380.0 277.0C380.0 275.89542 380.89542 275.0 382.0 275.0L416.0 275.0C417.10458 275.0 418.0 275.89542 418.0 277.0Z" fill-rule="nonzero"/><path fill="#ea4335" clip-path="url(#id_0)" d="M418.0 300.0L380.0 300.0L380.0 277.0C380.0 275.89542 380.89542 275.0 382.0 275.0L416.0 275.0C417.10458 275.0 418.0 275.89542 418.0 277.0Z" fill-rule="nonzero"/><path stroke="#000000" stroke-width="0.0" stroke-linecap="butt" stroke-opacity="0.0" clip-path="url(#id_0)" d="M538.0 300.0L500.0 300.0L500.0 252.0C500.0 250.89543 500.89542 250.0 502.0 250.0L536.0 250.0C537.10455 250.0 538.0 250.89543 538.0 252.0Z" fill-rule="nonzero"/><path fill="#ea4335" clip-path="url(#id_0)" d="M538.0 300.0L500.0 300.0L500.0 252.0C500.0 250.89543 500.89542 250.0 502.0 250.0L536.0 250.0C537.10455 250.0 538.0 250.89543 538.0 252.0Z" fill-rule="nonzero"/><path fill="#000000" d="M307.96875 349.45L307.96875 340.85626L309.09375 340.85626L309.09375 344.3875L313.5625 344.3875L313.5625 340.85626L314.70312 340.85626L314.70312 349.45L313.5625 349.45L313.5625 345.40314L309.09375 345.40314L309.09375 349.45L307.96875 349.45ZM316.40625 346.34064Q316.40625 344.60626 317.35938 343.77814Q318.15625 343.09064 319.3125 343.09064Q320.59375 343.09064 321.40625 343.9344Q322.23438 344.7625 322.23438 346.2469Q322.23438 347.45 321.875 348.1375Q321.51562 348.825 320.8125 349.21564Q320.125 349.59064 319.3125 349.59064Q318.01562 349.59064 317.20312 348.7625Q316.40625 347.91876 316.40625 346.34064ZM317.48438 346.34064Q317.48438 347.52814 318.0 348.1219Q318.53125 348.71564 319.3125 348.71564Q320.10938 348.71564 320.625 348.1219Q321.14062 347.52814 321.14062 346.3094Q321.14062 345.15314 320.60938 344.5594Q320.09375 343.96564 319.3125 343.96564Q318.53125 343.96564 318.0 344.5594Q317.48438 345.1375 317.48438 346.34064ZM327.875 349.45L327.875 348.52814Q327.14062 349.59064 325.89062 349.59064Q325.34375 349.59064 324.85938 349.3875Q324.39062 349.16876 324.15625 348.85626Q323.92188 348.52814 323.82812 348.0594Q323.76562 347.7625 323.76562 347.075L323.76562 343.23126L324.82812 343.23126L324.82812 346.6844Q324.82812 347.4969 324.89062 347.79376Q324.98438 348.2 325.29688 348.45Q325.625 348.6844 326.10938 348.6844Q326.57812 348.6844 326.98438 348.45Q327.40625 348.2 327.57812 347.77814Q327.76562 347.35626 327.76562 346.5594L327.76562 343.23126L328.8125 343.23126L328.8125 349.45L327.875 349.45ZM330.78125 349.45L330.78125 343.23126L331.73438 343.23126L331.73438 344.16876Q332.09375 343.5125 332.39062 343.3094Q332.70312 343.09064 333.07812 343.09064Q333.60938 343.09064 334.15625 343.41876L333.79688 344.40314Q333.40625 344.16876 333.03125 344.16876Q332.67188 344.16876 332.39062 344.3875Q332.125 344.59064 332.01562 344.96564Q331.82812 345.52814 331.82812 346.1844L331.82812 349.45L330.78125 349.45Z" fill-rule="nonzero"/><path fill="#000000" d="M47.05 300.21564Q47.05 298.6844 47.3625 297.7625Q47.675 296.825 48.284374 296.325Q48.909374 295.825 49.846874 295.825Q50.534374 295.825 51.05 296.10626Q51.58125 296.3875 51.925 296.91876Q52.26875 297.4344 52.45625 298.1844Q52.64375 298.9344 52.64375 300.21564Q52.64375 301.73126 52.33125 302.65314Q52.034374 303.575 51.409374 304.09064Q50.8 304.59064 49.846874 304.59064Q48.6125 304.59064 47.89375 303.7Q47.05 302.6375 47.05 300.21564ZM48.128124 300.21564Q48.128124 302.325 48.628124 303.02814Q49.128124 303.73126 49.846874 303.73126Q50.58125 303.73126 51.065624 303.02814Q51.565624 302.325 51.565624 300.21564Q51.565624 298.09064 51.065624 297.40314Q50.58125 296.7 49.83125 296.7Q49.1125 296.7 48.675 297.3094Q48.128124 298.09064 48.128124 300.21564Z" fill-rule="nonzero"/><path fill="#000000" d="M26.05 231.47778L27.159374 231.38403Q27.284374 232.19653 27.721874 232.60278Q28.175 233.00903 28.815624 233.00903Q29.565624 233.00903 30.096874 232.43091Q30.628124 231.85278 30.628124 230.91528Q30.628124 230.00903 30.1125 229.49341Q29.6125 228.96216 28.784374 228.96216Q28.284374 228.96216 27.8625 229.19653Q27.45625 229.43091 27.221874 229.79028L26.2375 229.66528L27.065624 225.25903L31.346874 225.25903L31.346874 226.25903L27.909374 226.25903L27.45625 228.57153Q28.221874 228.02466 29.065624 228.02466Q30.190624 228.02466 30.95625 228.80591Q31.7375 229.58716 31.7375 230.82153Q31.7375 231.97778 31.065624 232.83716Q30.2375 233.86841 28.815624 233.86841Q27.64375 233.86841 26.89375 233.21216Q26.159374 232.55591 26.05 231.47778ZM33.05 229.49341Q33.05 227.96216 33.3625 227.04028Q33.675 226.10278 34.284374 225.60278Q34.909374 225.10278 35.846874 225.10278Q36.534374 225.10278 37.05 225.38403Q37.58125 225.66528 37.925 226.19653Q38.26875 226.71216 38.45625 227.46216Q38.64375 228.21216 38.64375 229.49341Q38.64375 231.00903 38.33125 231.93091Q38.034374 232.85278 37.409374 233.36841Q36.8 233.86841 35.846874 233.86841Q34.6125 233.86841 33.89375 232.97778Q33.05 231.91528 33.05 229.49341ZM34.128124 229.49341Q34.128124 231.60278 34.628124 232.30591Q35.128124 233.00903 35.846874 233.00903Q36.58125 233.00903 37.065624 232.30591Q37.565624 231.60278 37.565624 229.49341Q37.565624 227.36841 37.065624 226.68091Q36.58125 225.97778 35.83125 225.97778Q35.1125 225.97778 34.675 226.58716Q34.128124 227.36841 34.128124 229.49341ZM40.05 229.49341Q40.05 227.96216 40.3625 227.04028Q40.675 226.10278 41.284374 225.60278Q41.909374 225.10278 42.846874 225.10278Q43.534374 225.10278 44.05 225.38403Q44.58125 225.66528 44.925 226.19653Q45.26875 226.71216 45.45625 227.46216Q45.64375 228.21216 45.64375 229.49341Q45.64375 231.00903 45.33125 231.93091Q45.034374 232.85278 44.409374 233.36841Q43.8 233.86841 42.846874 233.86841Q41.6125 233.86841 40.89375 232.97778Q40.05 231.91528 40.05 229.49341ZM41.128124 229.49341Q41.128124 231.60278 41.628124 232.30591Q42.128124 233.00903 42.846874 233.00903Q43.58125 233.00903 44.065624 232.30591Q44.565624 231.60278 44.565624 229.49341Q44.565624 227.36841 44.065624 226.68091Q43.58125 225.97778 42.83125 225.97778Q42.1125 225.97778 41.675 226.58716Q41.128124 227.36841 41.128124 229.49341ZM47.05 229.49341Q47.05 227.96216 47.3625 227.04028Q47.675 226.10278 48.284374 225.60278Q48.909374 225.10278 49.846874 225.10278Q50.534374 225.10278 51.05 225.38403Q51.58125 225.66528 51.925 226.19653Q52.26875 226.71216 52.45625 227.46216Q52.64375 228.21216 52.64375 229.49341Q52.64375 231.00903 52.33125 231.93091Q52.034374 232.85278 51.409374 233.36841Q50.8 233.86841 49.846874 233.86841Q48.6125 233.86841 47.89375 232.97778Q47.05 231.91528 47.05 229.49341ZM48.128124 229.49341Q48.128124 231.60278 48.628124 232.30591Q49.128124 233.00903 49.846874 233.00903Q50.58125 233.00903 51.065624 232.30591Q51.565624 231.60278 51.565624 229.49341Q51.565624 227.36841 51.065624 226.68091Q50.58125 225.97778 49.83125 225.97778Q49.1125 225.97778 48.675 226.58716Q48.128124 227.36841 48.128124 229.49341Z" fill-rule="nonzero"/><path fill="#000000" d="M23.01875 163.00555L21.971874 163.00555L21.971874 156.2868Q21.58125 156.64618 20.95625 157.02118Q20.346874 157.38055 19.8625 157.55243L19.8625 156.5368Q20.7375 156.11493 21.39375 155.5368Q22.065624 154.94305 22.346874 154.38055L23.01875 154.38055L23.01875 163.00555ZM26.05 158.77118Q26.05 157.23993 26.3625 156.31805Q26.675 155.38055 27.284374 154.88055Q27.909374 154.38055 28.846874 154.38055Q29.534374 154.38055 30.05 154.6618Q30.58125 154.94305 30.925 155.4743Q31.26875 155.98993 31.45625 156.73993Q31.64375 157.48993 31.64375 158.77118Q31.64375 160.2868 31.33125 161.20868Q31.034374 162.13055 30.409374 162.64618Q29.8 163.14618 28.846874 163.14618Q27.6125 163.14618 26.89375 162.25555Q26.05 161.19305 26.05 158.77118ZM27.128124 158.77118Q27.128124 160.88055 27.628124 161.58368Q28.128124 162.2868 28.846874 162.2868Q29.58125 162.2868 30.065624 161.58368Q30.565624 160.88055 30.565624 158.77118Q30.565624 156.64618 30.065624 155.95868Q29.58125 155.25555 28.83125 155.25555Q28.1125 155.25555 27.675 155.86493Q27.128124 156.64618 27.128124 158.77118ZM33.05 158.77118Q33.05 157.23993 33.3625 156.31805Q33.675 155.38055 34.284374 154.88055Q34.909374 154.38055 35.846874 154.38055Q36.534374 154.38055 37.05 154.6618Q37.58125 154.94305 37.925 155.4743Q38.26875 155.98993 38.45625 156.73993Q38.64375 157.48993 38.64375 158.77118Q38.64375 160.2868 38.33125 161.20868Q38.034374 162.13055 37.409374 162.64618Q36.8 163.14618 35.846874 163.14618Q34.6125 163.14618 33.89375 162.25555Q33.05 161.19305 33.05 158.77118ZM34.128124 158.77118Q34.128124 160.88055 34.628124 161.58368Q35.128124 162.2868 35.846874 162.2868Q36.58125 162.2868 37.065624 161.58368Q37.565624 160.88055 37.565624 158.77118Q37.565624 156.64618 37.065624 155.95868Q36.58125 155.25555 35.83125 155.25555Q35.1125 155.25555 34.675 155.86493Q34.128124 156.64618 34.128124 158.77118ZM40.05 158.77118Q40.05 157.23993 40.3625 156.31805Q40.675 155.38055 41.284374 154.88055Q41.909374 154.38055 42.846874 154.38055Q43.534374 154.38055 44.05 154.6618Q44.58125 154.94305 44.925 155.4743Q45.26875 155.98993 45.45625 156.73993Q45.64375 157.48993 45.64375 158.77118Q45.64375 160.2868 45.33125 161.20868Q45.034374 162.13055 44.409374 162.64618Q43.8 163.14618 42.846874 163.14618Q41.6125 163.14618 40.89375 162.25555Q40.05 161.19305 40.05 158.77118ZM41.128124 158.77118Q41.128124 160.88055 41.628124 161.58368Q42.128124 162.2868 42.846874 162.2868Q43.58125 162.2868 44.065624 161.58368Q44.565624 160.88055 44.565624 158.77118Q44.565624 156.64618 44.065624 155.95868Q43.58125 155.25555 42.83125 155.25555Q42.1125 155.25555 41.675 155.86493Q41.128124 156.64618 41.128124 158.77118ZM47.05 158.77118Q47.05 157.23993 47.3625 156.31805Q47.675 155.38055 48.284374 154.88055Q48.909374 154.38055 49.846874 154.38055Q50.534374 154.38055 51.05 154.6618Q51.58125 154.94305 51.925 155.4743Q52.26875 155.98993 52.45625 156.73993Q52.64375 157.48993 52.64375 158.77118Q52.64375 160.2868 52.33125 161.20868Q52.034374 162.13055 51.409374 162.64618Q50.8 163.14618 49.846874 163.14618Q48.6125 163.14618 47.89375 162.25555Q47.05 161.19305 47.05 158.77118ZM48.128124 158.77118Q48.128124 160.88055 48.628124 161.58368Q49.128124 162.2868 49.846874 162.2868Q50.58125 162.2868 51.065624 161.58368Q51.565624 160.88055 51.565624 158.77118Q51.565624 156.64618 51.065624 155.95868Q50.58125 155.25555 49.83125 155.25555Q49.1125 155.25555 48.675 155.86493Q48.128124 156.64618 48.128124 158.77118Z" fill-rule="nonzero"/><path fill="#000000" d="M23.01875 92.28333L21.971874 92.28333L21.971874 85.56458Q21.58125 85.92396 20.95625 86.29896Q20.346874 86.65833 19.8625 86.83021L19.8625 85.81458Q20.7375 85.39271 21.39375 84.81458Q22.065624 84.22083 22.346874 83.65833L23.01875 83.65833L23.01875 92.28333ZM26.05 90.03333L27.159374 89.93958Q27.284374 90.75208 27.721874 91.15833Q28.175 91.56458 28.815624 91.56458Q29.565624 91.56458 30.096874 90.98646Q30.628124 90.40833 30.628124 89.47083Q30.628124 88.56458 30.1125 88.04896Q29.6125 87.51771 28.784374 87.51771Q28.284374 87.51771 27.8625 87.75208Q27.45625 87.98646 27.221874 88.34583L26.2375 88.22083L27.065624 83.81458L31.346874 83.81458L31.346874 84.81458L27.909374 84.81458L27.45625 87.12708Q28.221874 86.58021 29.065624 86.58021Q30.190624 86.58021 30.95625 87.36146Q31.7375 88.14271 31.7375 89.37708Q31.7375 90.53333 31.065624 91.39271Q30.2375 92.42396 28.815624 92.42396Q27.64375 92.42396 26.89375 91.76771Q26.159374 91.11146 26.05 90.03333ZM33.05 88.04896Q33.05 86.51771 33.3625 85.59583Q33.675 84.65833 34.284374 84.15833Q34.909374 83.65833 35.846874 83.65833Q36.534374 83.65833 37.05 83.93958Q37.58125 84.22083 37.925 84.75208Q38.26875 85.26771 38.45625 86.01771Q38.64375 86.76771 38.64375 88.04896Q38.64375 89.56458 38.33125 90.48646Q38.034374 91.40833 37.409374 91.92396Q36.8 92.42396 35.846874 92.42396Q34.6125 92.42396 33.89375 91.53333Q33.05 90.47083 33.05 88.04896ZM34.128124 88.04896Q34.128124 90.15833 34.628124 90.86146Q35.128124 91.56458 35.846874 91.56458Q36.58125 91.56458 37.065624 90.86146Q37.565624 90.15833 37.565624 88.04896Q37.565624 85.92396 37.065624 85.23646Q36.58125 84.53333 35.83125 84.53333Q35.1125 84.53333 34.675 85.14271Q34.128124 85.92396 34.128124 88.04896ZM40.05 88.04896Q40.05 86.51771 40.3625 85.59583Q40.675 84.65833 41.284374 84.15833Q41.909374 83.65833 42.846874 83.65833Q43.534374 83.65833 44.05 83.93958Q44.58125 84.22083 44.925 84.75208Q45.26875 85.26771 45.45625 86.01771Q45.64375 86.76771 45.64375 88.04896Q45.64375 89.56458 45.33125 90.48646Q45.034374 91.40833 44.409374 91.92396Q43.8 92.42396 42.846874 92.42396Q41.6125 92.42396 40.89375 91.53333Q40.05 90.47083 40.05 88.04896ZM41.128124 88.04896Q41.128124 90.15833 41.628124 90.86146Q42.128124 91.56458 42.846874 91.56458Q43.58125 91.56458 44.065624 90.86146Q44.565624 90.15833 44.565624 88.04896Q44.565624 85.92396 44.065624 85.23646Q43.58125 84.53333 42.83125 84.53333Q42.1125 84.53333 41.675 85.14271Q41.128124 85.92396 41.128124 88.04896ZM47.05 88.04896Q47.05 86.51771 47.3625 85.59583Q47.675 84.65833 48.284374 84.15833Q48.909374 83.65833 49.846874 83.65833Q50.534374 83.65833 51.05 83.93958Q51.58125 84.22083 51.925 84.75208Q52.26875 85.26771 52.45625 86.01771Q52.64375 86.76771 52.64375 88.04896Q52.64375 89.56458 52.33125 90.48646Q52.034374 91.40833 51.409374 91.92396Q50.8 92.42396 49.846874 92.42396Q48.6125 92.42396 47.89375 91.53333Q47.05 90.47083 47.05 88.04896ZM48.128124 88.04896Q48.128124 90.15833 48.628124 90.86146Q49.128124 91.56458 49.846874 91.56458Q50.58125 91.56458 51.065624 90.86146Q51.565624 90.15833 51.565624 88.04896Q51.565624 85.92396 51.065624 85.23646Q50.58125 84.53333 49.83125 84.53333Q49.1125 84.53333 48.675 85.14271Q48.128124 85.92396 48.128124 88.04896Z" fill-rule="nonzero"/><path fill="#000000" d="M141.50323 317.45L140.45636 317.45L140.45636 310.73126Q140.06573 311.09064 139.44073 311.46564Q138.83136 311.825 138.34698 311.9969L138.34698 310.98126Q139.22198 310.5594 139.87823 309.98126Q140.55011 309.3875 140.83136 308.825L141.50323 308.825L141.50323 317.45Z" fill-rule="nonzero"/><path fill="#000000" d="M263.05838 316.4344L263.05838 317.45L257.37088 317.45Q257.37088 317.075 257.49588 316.71564Q257.71463 316.1375 258.18338 315.575Q258.66776 315.0125 259.574 314.27814Q260.98026 313.1219 261.46463 312.45Q261.96463 311.77814 261.96463 311.1844Q261.96463 310.5594 261.5115 310.1375Q261.05838 309.7 260.33963 309.7Q259.574 309.7 259.12088 310.15314Q258.66776 310.60626 258.65213 311.41876L257.574 311.3094Q257.68338 310.09064 258.40213 309.46564Q259.1365 308.825 260.37088 308.825Q261.60526 308.825 262.324 309.5125Q263.04276 310.2 263.04276 311.21564Q263.04276 311.73126 262.824 312.23126Q262.62088 312.71564 262.12088 313.27814Q261.6365 313.825 260.5115 314.77814Q259.55838 315.575 259.27713 315.8719Q259.0115 316.15314 258.83963 316.4344L263.05838 316.4344Z" fill-rule="nonzero"/><path fill="#000000" d="M377.4885 315.1844L378.551 315.04376Q378.72287 315.9344 379.16037 316.34064Q379.59787 316.73126 380.22287 316.73126Q380.97287 316.73126 381.4885 316.21564Q382.00412 315.7 382.00412 314.9344Q382.00412 314.21564 381.51974 313.7469Q381.051 313.2625 380.31662 313.2625Q380.01974 313.2625 379.56662 313.3875L379.69162 312.45Q379.801 312.46564 379.8635 312.46564Q380.53537 312.46564 381.06662 312.1219Q381.6135 311.7625 381.6135 311.02814Q381.6135 310.45 381.22287 310.075Q380.83224 309.6844 380.20724 309.6844Q379.59787 309.6844 379.176 310.075Q378.76974 310.46564 378.66037 311.23126L377.59787 311.04376Q377.78537 309.9969 378.47287 309.41876Q379.16037 308.825 380.176 308.825Q380.87912 308.825 381.47287 309.1375Q382.06662 309.4344 382.37912 309.95Q382.69162 310.46564 382.69162 311.0594Q382.69162 311.60626 382.39474 312.075Q382.09787 312.52814 381.51974 312.79376Q382.26974 312.96564 382.69162 313.52814Q383.1135 314.075 383.1135 314.91876Q383.1135 316.04376 382.28537 316.825Q381.47287 317.60626 380.22287 317.60626Q379.09787 317.60626 378.34787 316.9344Q377.59787 316.2469 377.4885 315.1844Z" fill-rule="nonzero"/><path fill="#000000" d="M500.8405 317.45L500.8405 315.3875L497.12177 315.3875L497.12177 314.41876L501.04364 308.85626L501.903 308.85626L501.903 314.41876L503.05927 314.41876L503.05927 315.3875L501.903 315.3875L501.903 317.45L500.8405 317.45ZM500.8405 314.41876L500.8405 310.5594L498.153 314.41876L500.8405 314.41876Z" fill-rule="nonzero"/><path fill="#4285f4" d="M196.5 56.916668C196.5 56.364384 196.94771 55.916668 197.5 55.916668L207.5 55.916668C208.05229 55.916668 208.5 56.364384 208.5 56.916668L208.5 66.916664C208.5 67.46895 208.05229 67.916664 207.5 67.916664L197.5 67.916664C196.94771 67.916664 196.5 67.46895 196.5 66.916664Z" fill-rule="nonzero"/><path fill="#1a1a1a" d="M223.5625 62.90104L224.6875 63.197914Q224.32812 64.58854 223.40625 65.322914Q222.48438 66.05729 221.14062 66.05729Q219.75 66.05729 218.875 65.49479Q218.0 64.93229 217.54688 63.86979Q217.09375 62.791664 217.09375 61.55729Q217.09375 60.21354 217.60938 59.21354Q218.125 58.21354 219.0625 57.697914Q220.01562 57.18229 221.15625 57.18229Q222.4375 57.18229 223.3125 57.83854Q224.20312 58.49479 224.54688 59.68229L223.42188 59.947914Q223.125 59.010414 222.54688 58.58854Q221.98438 58.15104 221.125 58.15104Q220.14062 58.15104 219.46875 58.635414Q218.8125 59.104164 218.53125 59.90104Q218.26562 60.697914 218.26562 61.55729Q218.26562 62.65104 218.57812 63.46354Q218.90625 64.27604 219.57812 64.68229Q220.25 65.08854 221.04688 65.08854Q222.0 65.08854 222.65625 64.541664Q223.32812 63.99479 223.5625 62.90104ZM225.90625 62.80729Q225.90625 61.072914 226.85938 60.24479Q227.65625 59.55729 228.8125 59.55729Q230.09375 59.55729 230.90625 60.40104Q231.73438 61.229164 231.73438 62.71354Q231.73438 63.916664 231.375 64.604164Q231.01562 65.291664 230.3125 65.68229Q229.625 66.05729 228.8125 66.05729Q227.51562 66.05729 226.70312 65.229164Q225.90625 64.385414 225.90625 62.80729ZM226.98438 62.80729Q226.98438 63.99479 227.5 64.58854Q228.03125 65.18229 228.8125 65.18229Q229.60938 65.18229 230.125 64.58854Q230.64062 63.99479 230.64062 62.77604Q230.64062 61.61979 230.10938 61.02604Q229.59375 60.43229 228.8125 60.43229Q228.03125 60.43229 227.5 61.02604Q226.98438 61.604164 226.98438 62.80729ZM233.29688 65.916664L233.29688 59.697914L234.23438 59.697914L234.23438 60.572914Q234.92188 59.55729 236.21875 59.55729Q236.78125 59.55729 237.25 59.760414Q237.73438 59.96354 237.96875 60.291664Q238.20312 60.61979 238.29688 61.05729Q238.34375 61.354164 238.34375 62.08854L238.34375 65.916664L237.29688 65.916664L237.29688 62.135414Q237.29688 61.479164 237.17188 61.166664Q237.04688 60.854164 236.73438 60.666664Q236.42188 60.46354 236.0 60.46354Q235.32812 60.46354 234.82812 60.90104Q234.34375 61.322914 234.34375 62.510414L234.34375 65.916664L233.29688 65.916664ZM242.59375 64.979164L242.75 65.90104Q242.29688 65.99479 241.95312 65.99479Q241.375 65.99479 241.0625 65.822914Q240.75 65.635414 240.60938 65.33854Q240.48438 65.041664 240.48438 64.08854L240.48438 60.510414L239.71875 60.510414L239.71875 59.697914L240.48438 59.697914L240.48438 58.15104L241.53125 57.52604L241.53125 59.697914L242.59375 59.697914L242.59375 60.510414L241.53125 60.510414L241.53125 64.15104Q241.53125 64.604164 241.57812 64.729164Q241.64062 64.854164 241.76562 64.93229Q241.89062 65.010414 242.125 65.010414Q242.3125 65.010414 242.59375 64.979164ZM243.29688 58.541664L243.29688 57.322914L244.35938 57.322914L244.35938 58.541664L243.29688 58.541664ZM243.29688 65.916664L243.29688 59.697914L244.35938 59.697914L244.35938 65.916664L243.29688 65.916664ZM246.29688 65.916664L246.29688 59.697914L247.23438 59.697914L247.23438 60.572914Q247.92188 59.55729 249.21875 59.55729Q249.78125 59.55729 250.25 59.760414Q250.73438 59.96354 250.96875 60.291664Q251.20312 60.61979 251.29688 61.05729Q251.34375 61.354164 251.34375 62.08854L251.34375 65.916664L250.29688 65.916664L250.29688 62.135414Q250.29688 61.479164 250.17188 61.166664Q250.04688 60.854164 249.73438 60.666664Q249.42188 60.46354 249.0 60.46354Q248.32812 60.46354 247.82812 60.90104Q247.34375 61.322914 247.34375 62.510414L247.34375 65.916664L246.29688 65.916664ZM257.375 65.916664L257.375 64.99479Q256.64062 66.05729 255.39062 66.05729Q254.84375 66.05729 254.35938 65.854164Q253.89062 65.635414 253.65625 65.322914Q253.42188 64.99479 253.32812 64.52604Q253.26562 64.229164 253.26562 63.541664L253.26562 59.697914L254.32812 59.697914L254.32812 63.15104Q254.32812 63.96354 254.39062 64.260414Q254.48438 64.666664 254.79688 64.916664Q255.125 65.15104 255.60938 65.15104Q256.07812 65.15104 256.48438 64.916664Q256.90625 64.666664 257.07812 64.24479Q257.26562 63.822914 257.26562 63.02604L257.26562 59.697914L258.3125 59.697914L258.3125 65.916664L257.375 65.916664ZM259.90625 62.80729Q259.90625 61.072914 260.85938 60.24479Q261.65625 59.55729 262.8125 59.55729Q264.09375 59.55729 264.90625 60.40104Q265.73438 61.229164 265.73438 62.71354Q265.73438 63.916664 265.375 64.604164Q265.01562 65.291664 264.3125 65.68229Q263.625 66.05729 262.8125 66.05729Q261.51562 66.05729 260.70312 65.229164Q259.90625 64.385414 259.90625 62.80729ZM260.98438 62.80729Q260.98438 63.99479 261.5 64.58854Q262.03125 65.18229 262.8125 65.18229Q263.60938 65.18229 264.125 64.58854Q264.64062 63.99479 264.64062 62.77604Q264.64062 61.61979 264.10938 61.02604Q263.59375 60.43229 262.8125 60.43229Q262.03125 60.43229 261.5 61.02604Q260.98438 61.604164 260.98438 62.80729ZM271.375 65.916664L271.375 64.99479Q270.64062 66.05729 269.39062 66.05729Q268.84375 66.05729 268.35938 65.854164Q267.89062 65.635414 267.65625 65.322914Q267.42188 64.99479 267.32812 64.52604Q267.26562 64.229164 267.26562 63.541664L267.26562 59.697914L268.32812 59.697914L268.32812 63.15104Q268.32812 63.96354 268.39062 64.260414Q268.48438 64.666664 268.79688 64.916664Q269.125 65.15104 269.60938 65.15104Q270.07812 65.15104 270.48438 64.916664Q270.90625 64.666664 271.07812 64.24479Q271.26562 63.822914 271.26562 63.02604L271.26562 59.697914L272.3125 59.697914L272.3125 65.916664L271.375 65.916664ZM273.875 64.05729L274.90625 63.90104Q275.0 64.52604 275.39062 64.854164Q275.79688 65.18229 276.53125 65.18229Q277.25 65.18229 277.59375 64.90104Q277.95312 64.604164 277.95312 64.197914Q277.95312 63.83854 277.64062 63.635414Q277.42188 63.49479 276.5625 63.27604Q275.40625 62.979164 274.95312 62.77604Q274.51562 62.55729 274.28125 62.18229Q274.04688 61.80729 274.04688 61.33854Q274.04688 60.93229 274.23438 60.572914Q274.42188 60.21354 274.75 59.979164Q275.0 59.80729 275.42188 59.68229Q275.84375 59.55729 276.34375 59.55729Q277.0625 59.55729 277.60938 59.77604Q278.17188 59.979164 278.4375 60.33854Q278.70312 60.697914 278.79688 61.291664L277.76562 61.43229Q277.70312 60.96354 277.35938 60.697914Q277.03125 60.416664 276.40625 60.416664Q275.6875 60.416664 275.375 60.666664Q275.0625 60.90104 275.0625 61.229164Q275.0625 61.43229 275.1875 61.58854Q275.32812 61.760414 275.59375 61.86979Q275.75 61.93229 276.53125 62.135414Q277.65625 62.447914 278.09375 62.635414Q278.53125 62.822914 278.78125 63.18229Q279.03125 63.541664 279.03125 64.08854Q279.03125 64.61979 278.71875 65.08854Q278.42188 65.541664 277.84375 65.80729Q277.26562 66.05729 276.53125 66.05729Q275.3125 66.05729 274.67188 65.55729Q274.04688 65.041664 273.875 64.05729ZM285.3125 68.447914Q284.4375 67.33854 283.82812 65.86979Q283.23438 64.385414 283.23438 62.80729Q283.23438 61.416664 283.67188 60.135414Q284.20312 58.65104 285.3125 57.18229L286.0625 57.18229Q285.35938 58.40104 285.125 58.916664Q284.76562 59.729164 284.5625 60.604164Q284.3125 61.697914 284.3125 62.80729Q284.3125 65.635414 286.0625 68.447914L285.3125 68.447914ZM286.875 64.05729L287.90625 63.90104Q288.0 64.52604 288.39062 64.854164Q288.79688 65.18229 289.53125 65.18229Q290.25 65.18229 290.59375 64.90104Q290.95312 64.604164 290.95312 64.197914Q290.95312 63.83854 290.64062 63.635414Q290.42188 63.49479 289.5625 63.27604Q288.40625 62.979164 287.95312 62.77604Q287.51562 62.55729 287.28125 62.18229Q287.04688 61.80729 287.04688 61.33854Q287.04688 60.93229 287.23438 60.572914Q287.42188 60.21354 287.75 59.979164Q288.0 59.80729 288.42188 59.68229Q288.84375 59.55729 289.34375 59.55729Q290.0625 59.55729 290.60938 59.77604Q291.17188 59.979164 291.4375 60.33854Q291.70312 60.697914 291.79688 61.291664L290.76562 61.43229Q290.70312 60.96354 290.35938 60.697914Q290.03125 60.416664 289.40625 60.416664Q288.6875 60.416664 288.375 60.666664Q288.0625 60.90104 288.0625 61.229164Q288.0625 61.43229 288.1875 61.58854Q288.32812 61.760414 288.59375 61.86979Q288.75 61.93229 289.53125 62.135414Q290.65625 62.447914 291.09375 62.635414Q291.53125 62.822914 291.78125 63.18229Q292.03125 63.541664 292.03125 64.08854Q292.03125 64.61979 291.71875 65.08854Q291.42188 65.541664 290.84375 65.80729Q290.26562 66.05729 289.53125 66.05729Q288.3125 66.05729 287.67188 65.55729Q287.04688 65.041664 286.875 64.05729ZM293.98438 68.447914L293.23438 68.447914Q294.98438 65.635414 294.98438 62.80729Q294.98438 61.71354 294.73438 60.61979Q294.53125 59.74479 294.17188 58.93229Q293.9375 58.416664 293.23438 57.18229L293.98438 57.18229Q295.07812 58.65104 295.60938 60.135414Q296.0625 61.416664 296.0625 62.80729Q296.0625 64.385414 295.45312 65.86979Q294.84375 67.33854 293.98438 68.447914Z" fill-rule="nonzero"/><path fill="#ea4335" d="M312.5 56.916668C312.5 56.364384 312.94772 55.916668 313.5 55.916668L323.5 55.916668C324.05228 55.916668 324.5 56.364384 324.5 56.916668L324.5 66.916664C324.5 67.46895 324.05228 67.916664 323.5 67.916664L313.5 67.916664C312.94772 67.916664 312.5 67.46895 312.5 66.916664Z" fill-rule="nonzero"/><path fill="#1a1a1a" d="M333.46875 65.916664L333.46875 57.322914L334.59375 57.322914L334.59375 60.854164L339.0625 60.854164L339.0625 57.322914L340.20312 57.322914L340.20312 65.916664L339.0625 65.916664L339.0625 61.86979L334.59375 61.86979L334.59375 65.916664L333.46875 65.916664ZM346.54688 63.916664L347.64062 64.041664Q347.39062 64.99479 346.6875 65.52604Q345.98438 66.05729 344.90625 66.05729Q343.54688 66.05729 342.73438 65.21354Q341.9375 64.36979 341.9375 62.854164Q341.9375 61.291664 342.75 60.43229Q343.5625 59.55729 344.84375 59.55729Q346.09375 59.55729 346.875 60.40104Q347.67188 61.24479 347.67188 62.791664Q347.67188 62.885414 347.67188 63.072914L343.03125 63.072914Q343.09375 64.104164 343.60938 64.65104Q344.125 65.18229 344.90625 65.18229Q345.48438 65.18229 345.89062 64.885414Q346.3125 64.572914 346.54688 63.916664ZM343.09375 62.21354L346.5625 62.21354Q346.5 61.416664 346.17188 61.02604Q345.65625 60.416664 344.85938 60.416664Q344.125 60.416664 343.625 60.90104Q343.14062 61.385414 343.09375 62.21354ZM353.35938 65.15104Q352.76562 65.65104 352.21875 65.854164Q351.6875 66.05729 351.0625 66.05729Q350.03125 66.05729 349.48438 65.55729Q348.9375 65.05729 348.9375 64.27604Q348.9375 63.822914 349.14062 63.447914Q349.34375 63.05729 349.6875 62.83854Q350.03125 62.604164 350.45312 62.49479Q350.75 62.40104 351.39062 62.322914Q352.65625 62.18229 353.26562 61.96354Q353.26562 61.74479 353.26562 61.697914Q353.26562 61.041664 352.96875 60.77604Q352.5625 60.43229 351.76562 60.43229Q351.03125 60.43229 350.67188 60.697914Q350.3125 60.947914 350.14062 61.604164L349.10938 61.46354Q349.25 60.80729 349.57812 60.40104Q349.90625 59.99479 350.51562 59.77604Q351.125 59.55729 351.92188 59.55729Q352.71875 59.55729 353.21875 59.74479Q353.71875 59.93229 353.95312 60.21354Q354.1875 60.49479 354.28125 60.93229Q354.32812 61.197914 354.32812 61.90104L354.32812 63.30729Q354.32812 64.77604 354.39062 65.166664Q354.46875 65.55729 354.67188 65.916664L353.5625 65.916664Q353.40625 65.58854 353.35938 65.15104ZM353.26562 62.791664Q352.6875 63.02604 351.54688 63.197914Q350.89062 63.291664 350.625 63.416664Q350.35938 63.52604 350.20312 63.74479Q350.0625 63.96354 350.0625 64.24479Q350.0625 64.666664 350.375 64.947914Q350.70312 65.229164 351.3125 65.229164Q351.92188 65.229164 352.39062 64.96354Q352.875 64.697914 353.09375 64.229164Q353.26562 63.86979 353.26562 63.18229L353.26562 62.791664ZM356.28125 65.916664L356.28125 59.697914L357.23438 59.697914L357.23438 60.635414Q357.59375 59.979164 357.89062 59.77604Q358.20312 59.55729 358.57812 59.55729Q359.10938 59.55729 359.65625 59.885414L359.29688 60.86979Q358.90625 60.635414 358.53125 60.635414Q358.17188 60.635414 357.89062 60.854164Q357.625 61.05729 357.51562 61.43229Q357.32812 61.99479 357.32812 62.65104L357.32812 65.916664L356.28125 65.916664ZM362.59375 64.979164L362.75 65.90104Q362.29688 65.99479 361.95312 65.99479Q361.375 65.99479 361.0625 65.822914Q360.75 65.635414 360.60938 65.33854Q360.48438 65.041664 360.48438 64.08854L360.48438 60.510414L359.71875 60.510414L359.71875 59.697914L360.48438 59.697914L360.48438 58.15104L361.53125 57.52604L361.53125 59.697914L362.59375 59.697914L362.59375 60.510414L361.53125 60.510414L361.53125 64.15104Q361.53125 64.604164 361.57812 64.729164Q361.64062 64.854164 361.76562 64.93229Q361.89062 65.010414 362.125 65.010414Q362.3125 65.010414 362.59375 64.979164ZM364.26562 65.916664L363.28125 65.916664L363.28125 57.322914L364.34375 57.322914L364.34375 60.385414Q365.01562 59.55729 366.04688 59.55729Q366.625 59.55729 367.125 59.791664Q367.64062 60.010414 367.96875 60.43229Q368.3125 60.854164 368.5 61.447914Q368.6875 62.041664 368.6875 62.71354Q368.6875 64.30729 367.89062 65.18229Q367.09375 66.05729 366.0 66.05729Q364.89062 66.05729 364.26562 65.135414L364.26562 65.916664ZM364.25 62.760414Q364.25 63.86979 364.5625 64.36979Q365.0625 65.18229 365.90625 65.18229Q366.59375 65.18229 367.09375 64.58854Q367.60938 63.99479 367.60938 62.791664Q367.60938 61.572914 367.125 60.99479Q366.64062 60.416664 365.95312 60.416664Q365.26562 60.416664 364.75 61.02604Q364.25 61.61979 364.25 62.760414ZM374.54688 63.916664L375.64062 64.041664Q375.39062 64.99479 374.6875 65.52604Q373.98438 66.05729 372.90625 66.05729Q371.54688 66.05729 370.73438 65.21354Q369.9375 64.36979 369.9375 62.854164Q369.9375 61.291664 370.75 60.43229Q371.5625 59.55729 372.84375 59.55729Q374.09375 59.55729 374.875 60.40104Q375.67188 61.24479 375.67188 62.791664Q375.67188 62.885414 375.67188 63.072914L371.03125 63.072914Q371.09375 64.104164 371.60938 64.65104Q372.125 65.18229 372.90625 65.18229Q373.48438 65.18229 373.89062 64.885414Q374.3125 64.572914 374.54688 63.916664ZM371.09375 62.21354L374.5625 62.21354Q374.5 61.416664 374.17188 61.02604Q373.65625 60.416664 372.85938 60.416664Q372.125 60.416664 371.625 60.90104Q371.14062 61.385414 371.09375 62.21354ZM381.35938 65.15104Q380.76562 65.65104 380.21875 65.854164Q379.6875 66.05729 379.0625 66.05729Q378.03125 66.05729 377.48438 65.55729Q376.9375 65.05729 376.9375 64.27604Q376.9375 63.822914 377.14062 63.447914Q377.34375 63.05729 377.6875 62.83854Q378.03125 62.604164 378.45312 62.49479Q378.75 62.40104 379.39062 62.322914Q380.65625 62.18229 381.26562 61.96354Q381.26562 61.74479 381.26562 61.697914Q381.26562 61.041664 380.96875 60.77604Q380.5625 60.43229 379.76562 60.43229Q379.03125 60.43229 378.67188 60.697914Q378.3125 60.947914 378.14062 61.604164L377.10938 61.46354Q377.25 60.80729 377.57812 60.40104Q377.90625 59.99479 378.51562 59.77604Q379.125 59.55729 379.92188 59.55729Q380.71875 59.55729 381.21875 59.74479Q381.71875 59.93229 381.95312 60.21354Q382.1875 60.49479 382.28125 60.93229Q382.32812 61.197914 382.32812 61.90104L382.32812 63.30729Q382.32812 64.77604 382.39062 65.166664Q382.46875 65.55729 382.67188 65.916664L381.5625 65.916664Q381.40625 65.58854 381.35938 65.15104ZM381.26562 62.791664Q380.6875 63.02604 379.54688 63.197914Q378.89062 63.291664 378.625 63.416664Q378.35938 63.52604 378.20312 63.74479Q378.0625 63.96354 378.0625 64.24479Q378.0625 64.666664 378.375 64.947914Q378.70312 65.229164 379.3125 65.229164Q379.92188 65.229164 380.39062 64.96354Q380.875 64.697914 381.09375 64.229164Q381.26562 63.86979 381.26562 63.18229L381.26562 62.791664ZM386.59375 64.979164L386.75 65.90104Q386.29688 65.99479 385.95312 65.99479Q385.375 65.99479 385.0625 65.822914Q384.75 65.635414 384.60938 65.33854Q384.48438 65.041664 384.48438 64.08854L384.48438 60.510414L383.71875 60.510414L383.71875 59.697914L384.48438 59.697914L384.48438 58.15104L385.53125 57.52604L385.53125 59.697914L386.59375 59.697914L386.59375 60.510414L385.53125 60.510414L385.53125 64.15104Q385.53125 64.604164 385.57812 64.729164Q385.64062 64.854164 385.76562 64.93229Q385.89062 65.010414 386.125 65.010414Q386.3125 65.010414 386.59375 64.979164ZM392.3125 68.447914Q391.4375 67.33854 390.82812 65.86979Q390.23438 64.385414 390.23438 62.80729Q390.23438 61.416664 390.67188 60.135414Q391.20312 58.65104 392.3125 57.18229L393.0625 57.18229Q392.35938 58.40104 392.125 58.916664Q391.76562 59.729164 391.5625 60.604164Q391.3125 61.697914 391.3125 62.80729Q391.3125 65.635414 393.0625 68.447914L392.3125 68.447914ZM393.875 64.05729L394.90625 63.90104Q395.0 64.52604 395.39062 64.854164Q395.79688 65.18229 396.53125 65.18229Q397.25 65.18229 397.59375 64.90104Q397.95312 64.604164 397.95312 64.197914Q397.95312 63.83854 397.64062 63.635414Q397.42188 63.49479 396.5625 63.27604Q395.40625 62.979164 394.95312 62.77604Q394.51562 62.55729 394.28125 62.18229Q394.04688 61.80729 394.04688 61.33854Q394.04688 60.93229 394.23438 60.572914Q394.42188 60.21354 394.75 59.979164Q395.0 59.80729 395.42188 59.68229Q395.84375 59.55729 396.34375 59.55729Q397.0625 59.55729 397.60938 59.77604Q398.17188 59.979164 398.4375 60.33854Q398.70312 60.697914 398.79688 61.291664L397.76562 61.43229Q397.70312 60.96354 397.35938 60.697914Q397.03125 60.416664 396.40625 60.416664Q395.6875 60.416664 395.375 60.666664Q395.0625 60.90104 395.0625 61.229164Q395.0625 61.43229 395.1875 61.58854Q395.32812 61.760414 395.59375 61.86979Q395.75 61.93229 396.53125 62.135414Q397.65625 62.447914 398.09375 62.635414Q398.53125 62.822914 398.78125 63.18229Q399.03125 63.541664 399.03125 64.08854Q399.03125 64.61979 398.71875 65.08854Q398.42188 65.541664 397.84375 65.80729Q397.26562 66.05729 396.53125 66.05729Q395.3125 66.05729 394.67188 65.55729Q394.04688 65.041664 393.875 64.05729ZM400.98438 68.447914L400.23438 68.447914Q401.98438 65.635414 401.98438 62.80729Q401.98438 61.71354 401.73438 60.61979Q401.53125 59.74479 401.17188 58.93229Q400.9375 58.416664 400.23438 57.18229L400.98438 57.18229Q402.07812 58.65104 402.60938 60.135414Q403.0625 61.416664 403.0625 62.80729Q403.0625 64.385414 402.45312 65.86979Q401.84375 67.33854 400.98438 68.447914Z" fill-rule="nonzero"/><path fill="#757575" d="M22.596874 37.55L18.8 23.2375L20.7375 23.2375L22.909374 32.6125Q23.26875 34.096874 23.51875 35.55Q24.065624 33.253124 24.159374 32.89375L26.89375 23.2375L29.175 23.2375L31.221874 30.471874Q32.003124 33.175 32.346874 35.55Q32.6125 34.190624 33.05 32.425L35.3 23.2375L37.20625 23.2375L33.284374 37.55L31.45625 37.55L28.440624 26.64375Q28.05 25.26875 27.9875 24.95625Q27.753124 25.940624 27.565624 26.64375L24.534374 37.55L22.596874 37.55ZM38.878124 25.253124L38.878124 23.2375L40.64375 23.2375L40.64375 25.253124L38.878124 25.253124ZM38.878124 37.55L38.878124 27.175L40.64375 27.175L40.64375 37.55L38.878124 37.55ZM42.190624 33.253124L42.190624 31.4875L47.58125 31.4875L47.58125 33.253124L42.190624 33.253124ZM50.190624 37.55L50.190624 23.2375L59.846874 23.2375L59.846874 24.925L52.08125 24.925L52.08125 29.3625L58.8 29.3625L58.8 31.05L52.08125 31.05L52.08125 37.55L50.190624 37.55ZM61.878124 25.253124L61.878124 23.2375L63.64375 23.2375L63.64375 25.253124L61.878124 25.253124ZM61.878124 37.55L61.878124 27.175L63.64375 27.175L63.64375 37.55L61.878124 37.55ZM75.7375 37.55L75.7375 24.925L71.01875 24.925L71.01875 23.2375L82.3625 23.2375L82.3625 24.925L77.62813 24.925L77.62813 37.55L75.7375 37.55ZM83.87813 25.253124L83.87813 23.2375L85.64375 23.2375L85.64375 25.253124L83.87813 25.253124ZM83.87813 37.55L83.87813 27.175L85.64375 27.175L85.64375 37.55L83.87813 37.55ZM87.8625 37.55L87.8625 27.175L89.44063 27.175L89.44063 28.628124Q89.925 27.878124 90.7375 27.409374Q91.55 26.940624 92.58125 26.940624Q93.7375 26.940624 94.47188 27.425Q95.20625 27.89375 95.51875 28.753124Q96.75313 26.940624 98.72188 26.940624Q100.26875 26.940624 101.09688 27.8Q101.925 28.659374 101.925 30.425L101.925 37.55L100.175 37.55L100.175 31.01875Q100.175 29.95625 100.00313 29.503124Q99.83125 29.034374 99.37813 28.753124Q98.94063 28.471874 98.33125 28.471874Q97.2375 28.471874 96.50313 29.20625Q95.78438 29.925 95.78438 31.51875L95.78438 37.55L94.03438 37.55L94.03438 30.815624Q94.03438 29.64375 93.59688 29.065624Q93.175 28.471874 92.19063 28.471874Q91.45625 28.471874 90.81563 28.8625Q90.19063 29.253124 89.90938 30.003124Q89.62813 30.753124 89.62813 32.175L89.62813 37.55L87.8625 37.55ZM111.97188 34.20625L113.78438 34.440624Q113.3625 36.01875 112.19063 36.909374Q111.03438 37.784374 109.22188 37.784374Q106.95625 37.784374 105.6125 36.39375Q104.28438 34.9875 104.28438 32.45625Q104.28438 29.83125 105.62813 28.39375Q106.97188 26.940624 109.12813 26.940624Q111.20625 26.940624 112.51875 28.3625Q113.84688 29.76875 113.84688 32.346874Q113.84688 32.503124 113.83125 32.815624L106.09688 32.815624Q106.19063 34.51875 107.06563 35.425Q107.94063 36.33125 109.2375 36.33125Q110.20625 36.33125 110.87813 35.83125Q111.56563 35.315624 111.97188 34.20625ZM106.19063 31.3625L111.9875 31.3625Q111.87813 30.065624 111.33125 29.409374Q110.4875 28.39375 109.14375 28.39375Q107.94063 28.39375 107.1125 29.20625Q106.28438 30.003124 106.19063 31.3625ZM132.31563 32.534374L134.20625 33.003124Q133.6125 35.346874 132.06563 36.58125Q130.51875 37.8 128.26875 37.8Q125.95625 37.8 124.50313 36.8625Q123.06563 35.909374 122.3 34.128124Q121.55 32.33125 121.55 30.284374Q121.55 28.05 122.39375 26.39375Q123.25313 24.721874 124.83125 23.8625Q126.40938 22.9875 128.3 22.9875Q130.45625 22.9875 131.90938 24.08125Q133.37813 25.175 133.95625 27.159374L132.09688 27.596874Q131.59688 26.034374 130.64375 25.33125Q129.70625 24.6125 128.26875 24.6125Q126.6125 24.6125 125.50313 25.409374Q124.39375 26.190624 123.94063 27.534374Q123.50313 28.8625 123.50313 30.26875Q123.50313 32.096874 124.03438 33.471874Q124.56563 34.83125 125.69063 35.503124Q126.81563 36.175 128.1125 36.175Q129.70625 36.175 130.81563 35.253124Q131.925 34.33125 132.31563 32.534374ZM135.22188 32.3625Q135.22188 29.4875 136.81563 28.096874Q138.15938 26.940624 140.08125 26.940624Q142.22188 26.940624 143.56563 28.346874Q144.925 29.753124 144.925 32.221874Q144.925 34.221874 144.33125 35.378124Q143.7375 36.51875 142.58125 37.159374Q141.44063 37.784374 140.08125 37.784374Q137.89375 37.784374 136.55 36.39375Q135.22188 34.9875 135.22188 32.3625ZM137.01875 32.3625Q137.01875 34.3625 137.87813 35.346874Q138.75313 36.33125 140.08125 36.33125Q141.39375 36.33125 142.25313 35.346874Q143.12813 34.346874 143.12813 32.3Q143.12813 30.378124 142.25313 29.39375Q141.37813 28.39375 140.08125 28.39375Q138.75313 28.39375 137.87813 29.39375Q137.01875 30.378124 137.01875 32.3625ZM146.8625 37.55L146.8625 27.175L148.45625 27.175L148.45625 28.659374Q149.59688 26.940624 151.75313 26.940624Q152.69063 26.940624 153.47188 27.284374Q154.26875 27.6125 154.65938 28.159374Q155.05 28.70625 155.20625 29.45625Q155.3 29.95625 155.3 31.175L155.3 37.55L153.53438 37.55L153.53438 31.2375Q153.53438 30.159374 153.33125 29.628124Q153.12813 29.096874 152.59688 28.784374Q152.08125 28.471874 151.37813 28.471874Q150.25313 28.471874 149.44063 29.190624Q148.62813 29.89375 148.62813 31.878124L148.62813 37.55L146.8625 37.55ZM157.8625 37.55L157.8625 27.175L159.45625 27.175L159.45625 28.659374Q160.59688 26.940624 162.75313 26.940624Q163.69063 26.940624 164.47188 27.284374Q165.26875 27.6125 165.65938 28.159374Q166.05 28.70625 166.20625 29.45625Q166.3 29.95625 166.3 31.175L166.3 37.55L164.53438 37.55L164.53438 31.2375Q164.53438 30.159374 164.33125 29.628124Q164.12813 29.096874 163.59688 28.784374Q163.08125 28.471874 162.37813 28.471874Q161.25313 28.471874 160.44063 29.190624Q159.62813 29.89375 159.62813 31.878124L159.62813 37.55L157.8625 37.55ZM175.97188 34.20625L177.78438 34.440624Q177.3625 36.01875 176.19063 36.909374Q175.03438 37.784374 173.22188 37.784374Q170.95625 37.784374 169.6125 36.39375Q168.28438 34.9875 168.28438 32.45625Q168.28438 29.83125 169.62813 28.39375Q170.97188 26.940624 173.12813 26.940624Q175.20625 26.940624 176.51875 28.3625Q177.84688 29.76875 177.84688 32.346874Q177.84688 32.503124 177.83125 32.815624L170.09688 32.815624Q170.19063 34.51875 171.06563 35.425Q171.94063 36.33125 173.2375 36.33125Q174.20625 36.33125 174.87813 35.83125Q175.56563 35.315624 175.97188 34.20625ZM170.19063 31.3625L175.9875 31.3625Q175.87813 30.065624 175.33125 29.409374Q174.4875 28.39375 173.14375 28.39375Q171.94063 28.39375 171.1125 29.20625Q170.28438 30.003124 170.19063 31.3625ZM186.64375 33.753124L188.3625 33.971874Q188.08125 35.76875 186.90938 36.784374Q185.75313 37.784374 184.05 37.784374Q181.925 37.784374 180.62813 36.39375Q179.33125 35.003124 179.33125 32.409374Q179.33125 30.721874 179.87813 29.471874Q180.44063 28.20625 181.58125 27.58125Q182.72188 26.940624 184.06563 26.940624Q185.75313 26.940624 186.81563 27.8Q187.89375 28.659374 188.20625 30.221874L186.4875 30.4875Q186.25313 29.440624 185.62813 28.925Q185.00313 28.39375 184.12813 28.39375Q182.8 28.39375 181.97188 29.346874Q181.14375 30.3 181.14375 32.346874Q181.14375 34.440624 181.94063 35.39375Q182.7375 36.33125 184.03438 36.33125Q185.06563 36.33125 185.75313 35.70625Q186.45625 35.065624 186.64375 33.753124ZM193.70625 35.971874L193.95625 37.534374Q193.22188 37.690624 192.62813 37.690624Q191.675 37.690624 191.14375 37.39375Q190.62813 37.08125 190.40938 36.596874Q190.19063 36.096874 190.19063 34.51875L190.19063 28.55L188.90938 28.55L188.90938 27.175L190.19063 27.175L190.19063 24.6125L191.94063 23.55L191.94063 27.175L193.70625 27.175L193.70625 28.55L191.94063 28.55L191.94063 34.6125Q191.94063 35.3625 192.03438 35.58125Q192.12813 35.784374 192.33125 35.925Q192.55 36.05 192.94063 36.05Q193.22188 36.05 193.70625 35.971874ZM202.97188 34.20625L204.78438 34.440624Q204.3625 36.01875 203.19063 36.909374Q202.03438 37.784374 200.22188 37.784374Q197.95625 37.784374 196.6125 36.39375Q195.28438 34.9875 195.28438 32.45625Q195.28438 29.83125 196.62813 28.39375Q197.97188 26.940624 200.12813 26.940624Q202.20625 26.940624 203.51875 28.3625Q204.84688 29.76875 204.84688 32.346874Q204.84688 32.503124 204.83125 32.815624L197.09688 32.815624Q197.19063 34.51875 198.06563 35.425Q198.94063 36.33125 200.2375 36.33125Q201.20625 36.33125 201.87813 35.83125Q202.56563 35.315624 202.97188 34.20625ZM197.19063 31.3625L202.9875 31.3625Q202.87813 30.065624 202.33125 29.409374Q201.4875 28.39375 200.14375 28.39375Q198.94063 28.39375 198.1125 29.20625Q197.28438 30.003124 197.19063 31.3625ZM213.59688 37.55L213.59688 36.2375Q212.6125 37.784374 210.69063 37.784374Q209.45625 37.784374 208.40938 37.096874Q207.37813 36.409374 206.8 35.190624Q206.2375 33.971874 206.2375 32.378124Q206.2375 30.815624 206.75313 29.55Q207.26875 28.284374 208.3 27.6125Q209.34688 26.940624 210.6125 26.940624Q211.55 26.940624 212.28438 27.346874Q213.01875 27.7375 213.4875 28.3625L213.4875 23.2375L215.22188 23.2375L215.22188 37.55L213.59688 37.55ZM208.03438 32.378124Q208.03438 34.3625 208.87813 35.346874Q209.72188 36.33125 210.8625 36.33125Q212.01875 36.33125 212.81563 35.39375Q213.62813 34.45625 213.62813 32.51875Q213.62813 30.39375 212.8 29.39375Q211.9875 28.39375 210.78438 28.39375Q209.6125 28.39375 208.81563 29.3625Q208.03438 30.315624 208.03438 32.378124Z" fill-rule="nonzero"/></svg>