<svg version="1.1" viewBox="0.0 0.0 600.0 371.0" fill="none" stroke="none" stroke-linecap="square" stroke-miterlimit="10" width="600" height="371" xmlns:xlink="http://www.w3.org/1999/xlink" xmlns="http://www.w3.org/2000/svg"><path fill="#ffffff" d="M0 0L600.0 0L600.0 371.0L0 371.0L0 0Z" fill-rule="nonzero"/><path stroke="#333333" stroke-width="1.0" stroke-linecap="butt" d="M59.5 300.5L581.5 300.5" fill-rule="nonzero"/><path stroke="#cccccc" stroke-width="1.0" stroke-linecap="butt" d="M59.5 229.5L581.5 229.5" fill-rule="nonzero"/><path stroke="#cccccc" stroke-width="1.0" stroke-linecap="butt" d="M59.5 159.5L581.5 159.5" fill-rule="nonzero"/><path stroke="#cccccc" stroke-width="1.0" stroke-linecap="butt" d="M59.5 88.5L581.5 88.5" fill-rule="nonzero"/><clipPath id="id_0"><path d="M59.55 88.28333L581.45 88.28333L581.45 300.45L59.55 300.45L59.55 88.28333Z" clip-rule="nonzero"/></clipPath><path stroke="#000000" stroke-width="0.0" stroke-linecap="butt" stroke-opacity="0.0" clip-path="url(#id_0)" d="M140.0 300.0L102.0 300.0L102.0 252.0C102.0 250.89543 102.89543 250.0 104.0 250.0L138.0 250.0C139.10457 250.0 140.0 250.89543 140.0 252.0Z" fill-rule="nonzero"/><path fill="#4285f4" clip-path="url(#id_0)" d="M140.0 300.0L102.0 300.0L102.0 252.0C102.0 250.89543 102.89543 250.0 104.0 250.0L138.0 250.0C139.10457 250.0 140.0 250.89543 140.0 252.0Z" fill-rule="nonzero"/><path stroke="#000000" stroke-width="0.0" stroke-linecap="butt" stroke-opacity="0.0" clip-path="url(#id_0)" d="M260.0 300.0L222.0 300.0L222.0 201.0C222.0 199.89543 222.89543 199.0 224.0 199.0L258.0 199.0C259.10458 199.0 260.0 199.89543 260.0 201.0Z" fill-rule="nonzero"/><path fill="#4285f4" clip-path="url(#id_0)" d="M260.0 300.0L222.0 300.0L222.0 201.0C222.0 199.89543 222.89543 199.0 224.0 199.0L258.0 199.0C259.10458 199.0 260.0 199.89543 260.0 201.0Z" fill-rule="nonzero"/><path stroke="#000000" stroke-width="0.0" stroke-linecap="butt" stroke-opacity="0.0" clip-path="url(#id_0)" d="M379.0 300.0L341.0 300.0L341.0 150.0C341.0 148.89543 341.89542 148.0 343.0 148.0L377.0 148.0C378.10458 148.0 379.0 148.89543 379.0 150.0Z" fill-rule="nonzero"/><path fill="#4285f4" clip-path="url(#id_0)" d="M379.0 300.0L341.0 300.0L341.0 150.0C341.0 148.89543 341.89542 148.0 343.0 148.0L377.0 148.0C378.10458 148.0 379.0 148.89543 379.0 150.0Z" fill-rule="nonzero"/><path stroke="#000000" stroke-width="0.0" stroke-linecap="butt" stroke-opacity="0.0" clip-path="url(#id_0)" d="M499.0 300.0L461.0 300.0L461.0 99.0C461.0 97.89543 461.89542 97.0 463.0 97.0L497.0 97.0C498.10458 97.0 499.0 97.89543 499.0 99.0Z" fill-rule="nonzero"/><path fill="#4285f4" clip-path="url(#id_0)" d="M499.0 300.0L461.0 300.0L461.0 99.0C461.0 97.89543 461.89542 97.0 463.0 97.0L497.0 97.0C498.10458 97.0 499.0 97.89543 499.0 99.0Z" fill-rule="nonzero"/><path stroke="#000000" stroke-width="0.0" stroke-linecap="butt" stroke-opacity="0.0" clip-path="url(#id_0)" d="M179.0 300.0L141.0 300.0L141.0 252.0C141.0 250.89543 141.89543 250.0 143.0 250.0L177.0 250.0C178.10457 250.0 179.0 250.89543 179.0 252.0Z" fill-rule="nonzero"/><path fill="#ea4335" clip-path="url(#id_0)" d="M179.0 300.0L141.0 300.0L141.0 252.0C141.0 250.89543 141.89543 250.0 143.0 250.0L177.0 250.0C178.10457 250.0 179.0 250.89543 179.0 252.0Z" fill-rule="nonzero"/><path stroke="#000000" stroke-width="0.0" stroke-linecap="butt" stroke-opacity="0.0" clip-path="url(#id_0)" d="M299.0 300.0L261.0 300.0L261.0 201.0C261.0 199.89543 261.89542 199.0 263.0 199.0L297.0 199.0C298.10458 199.0 299.0 199.89543 299.0 201.0Z" fill-rule="nonzero"/><path fill="#ea4335" clip-path="url(#id_0)" d="M299.0 300.0L261.0 300.0L261.0 201.0C261.0 199.89543 261.89542 199.0 263.0 199.0L297.0 199.0C298.10458 199.0 299.0 199.89543 299.0 201.0Z" fill-rule="nonzero"/><path stroke="#000000" stroke-width="0.0" stroke-linecap="butt" stroke-opacity="0.0" clip-path="url(#id_0)" d="M418.0 300.0L380.0 300.0L380.0 150.0C380.0 148.89543 380.89542 148.0 382.0 148.0L416.0 148.0C417.10458 148.0 418.0 148.89543 418.0 150.0Z" fill-rule="nonzero"/><path fill="#ea4335" clip-path="url(#id_0)" d="M418.0 300.0L380.0 300.0L380.0 150.0C380.0 148.89543 380.89542 148.0 382.0 148.0L416.0 148.0C417.10458 148.0 418.0 148.89543 418.0 150.0Z" fill-rule="nonzero"/><path stroke="#000000" stroke-width="0.0" stroke-linecap="butt" stroke-opacity="0.0" clip-path="url(#id_0)" d="M538.0 300.0L500.0 300.0L500.0 99.0C500.0 97.89543 500.89542 97.0 502.0 97.0L536.0 97.0C537.10455 97.0 538.0 97.89543 538.0 99.0Z" fill-rule="nonzero"/><path fill="#ea4335" clip-path="url(#id_0)" d="M538.0 300.0L500.0 300.0L500.0 99.0C500.0 97.89543 500.89542 97.0 502.0 97.0L536.0 97.0C537.10455 97.0 538.0 97.89543 538.0 99.0Z" fill-rule="nonzero"/><path fill="#000000" d="M307.96875 349.45L307.96875 340.85626L309.09375 340.85626L309.09375 344.3875L313.5625 344.3875L313.5625 340.85626L314.70312 340.85626L314.70312 349.45L313.5625 349.45L313.5625 345.40314L309.09375 345.40314L309.09375 349.45L307.96875 349.45ZM316.40625 346.34064Q316.40625 344.60626 317.35938 343.77814Q318.15625 343.09064 319.3125 343.09064Q320.59375 343.09064 321.40625 343.9344Q322.23438 344.7625 322.23438 346.2469Q322.23438 347.45 321.875 348.1375Q321.51562 348.825 320.8125 349.21564Q320.125 349.59064 319.3125 349.59064Q318.01562 349.59064 317.20312 348.7625Q316.40625 347.91876 316.40625 346.34064ZM317.48438 346.34064Q317.48438 347.52814 318.0 348.1219Q318.53125 348.71564 319.3125 348.71564Q320.10938 348.71564 320.625 348.1219Q321.14062 347.52814 321.14062 346.3094Q321.14062 345.15314 320.60938 344.5594Q320.09375 343.96564 319.3125 343.96564Q318.53125 343.96564 318.0 344.5594Q317.48438 345.1375 317.48438 346.34064ZM327.875 349.45L327.875 348.52814Q327.14062 349.59064 325.89062 349.59064Q325.34375 349.59064 324.85938 349.3875Q324.39062 349.16876 324.15625 348.85626Q323.92188 348.52814 323.82812 348.0594Q323.76562 347.7625 323.76562 347.075L323.76562 343.23126L324.82812 343.23126L324.82812 346.6844Q324.82812 347.4969 324.89062 347.79376Q324.98438 348.2 325.29688 348.45Q325.625 348.6844 326.10938 348.6844Q326.57812 348.6844 326.98438 348.45Q327.40625 348.2 327.57812 347.77814Q327.76562 347.35626 327.76562 346.5594L327.76562 343.23126L328.8125 343.23126L328.8125 349.45L327.875 349.45ZM330.78125 349.45L330.78125 343.23126L331.73438 343.23126L331.73438 344.16876Q332.09375 343.5125 332.39062 343.3094Q332.70312 343.09064 333.07812 343.09064Q333.60938 343.09064 334.15625 343.41876L333.79688 344.40314Q333.40625 344.16876 333.03125 344.16876Q332.67188 344.16876 332.39062 344.3875Q332.125 344.59064 332.01562 344.96564Q331.82812 345.52814 331.82812 346.1844L331.82812 349.45L330.78125 349.45Z" fill-rule="nonzero"/><path fill="#000000" d="M47.05 300.21564Q47.05 298.6844 47.3625 297.7625Q47.675 296.825 48.284374 296.325Q48.909374 295.825 49.846874 295.825Q50.534374 295.825 51.05 296.10626Q51.58125 296.3875 51.925 296.91876Q52.26875 297.4344 52.45625 298.1844Q52.64375 298.9344 52.64375 300.21564Q52.64375 301.73126 52.33125 302.65314Q52.034374 303.575 51.409374 304.09064Q50.8 304.59064 49.846874 304.59064Q48.6125 304.59064 47.89375 303.7Q47.05 302.6375 47.05 300.21564ZM48.128124 300.21564Q48.128124 302.325 48.628124 303.02814Q49.128124 303.73126 49.846874 303.73126Q50.58125 303.73126 51.065624 303.02814Q51.565624 302.325 51.565624 300.21564Q51.565624 298.09064 51.065624 297.40314Q50.58125 296.7 49.83125 296.7Q49.1125 296.7 48.675 297.3094Q48.128124 298.09064 48.128124 300.21564Z" fill-rule="nonzero"/><path fill="#000000" d="M26.05 231.47778L27.159374 231.38403Q27.284374 232.19653 27.721874 232.60278Q28.175 233.00903 28.815624 233.00903Q29.565624 233.00903 30.096874 232.43091Q30.628124 231.85278 30.628124 230.91528Q30.628124 230.00903 30.1125 229.49341Q29.6125 228.96216 28.784374 228.96216Q28.284374 228.96216 27.8625 229.19653Q27.45625 229.43091 27.221874 229.79028L26.2375 229.66528L27.065624 225.25903L31.346874 225.25903L31.346874 226.25903L27.909374 226.25903L27.45625 228.57153Q28.221874 228.02466 29.065624 228.02466Q30.190624 228.02466 30.95625 228.80591Q31.7375 229.58716 31.7375 230.82153Q31.7375 231.97778 31.065624 232.83716Q30.2375 233.86841 28.815624 233.86841Q27.64375 233.86841 26.89375 233.21216Q26.159374 232.55591 26.05 231.47778ZM33.05 229.49341Q33.05 227.96216 33.3625 227.04028Q33.675 226.10278 34.284374 225.60278Q34.909374 225.10278 35.846874 225.10278Q36.534374 225.10278 37.05 225.38403Q37.58125 225.66528 37.925 226.19653Q38.26875 226.71216 38.45625 227.46216Q38.64375 228.21216 38.64375 229.49341Q38.64375 231.00903 38.33125 231.93091Q38.034374 232.85278 37.409374 233.36841Q36.8 233.86841 35.846874 233.86841Q34.6125 233.86841 33.89375 232.97778Q33.05 231.91528 33.05 229.49341ZM34.128124 229.49341Q34.128124 231.60278 34.628124 232.30591Q35.128124 233.00903 35.846874 233.00903Q36.58125 233.00903 37.065624 232.30591Q37.565624 231.60278 37.565624 229.49341Q37.565624 227.36841 37.065624 226.68091Q36.58125 225.97778 35.83125 225.97778Q35.1125 225.97778 34.675 226.58716Q34.128124 227.36841 34.128124 229.49341ZM40.05 229.49341Q40.05 227.96216 40.3625 227.04028Q40.675 226.10278 41.284374 225.60278Q41.909374 225.10278 42.846874 225.10278Q43.534374 225.10278 44.05 225.38403Q44.58125 225.66528 44.925 226.19653Q45.26875 226.71216 45.45625 227.46216Q45.64375 228.21216 45.64375 229.49341Q45.64375 231.00903 45.33125 231.93091Q45.034374 232.85278 44.409374 233.36841Q43.8 233.86841 42.846874 233.86841Q41.6125 233.86841 40.89375 232.97778Q40.05 231.91528 40.05 229.49341ZM41.128124 229.49341Q41.128124 231.60278 41.628124 232.30591Q42.128124 233.00903 42.846874 233.00903Q43.58125 233.00903 44.065624 232.30591Q44.565624 231.60278 44.565624 229.49341Q44.565624 227.36841 44.065624 226.68091Q43.58125 225.97778 42.83125 225.97778Q42.1125 225.97778 41.675 226.58716Q41.128124 227.36841 41.128124 229.49341ZM47.05 229.49341Q47.05 227.96216 47.3625 227.04028Q47.675 226.10278 48.284374 225.60278Q48.909374 225.10278 49.846874 225.10278Q50.534374 225.10278 51.05 225.38403Q51.58125 225.66528 51.925 226.19653Q52.26875 226.71216 52.45625 227.46216Q52.64375 228.21216 52.64375 229.49341Q52.64375 231.00903 52.33125 231.93091Q52.034374 232.85278 51.409374 233.36841Q50.8 233.86841 49.846874 233.86841Q48.6125 233.86841 47.89375 232.97778Q47.05 231.91528 47.05 229.49341ZM48.128124 229.49341Q48.128124 231.60278 48.628124 232.30591Q49.128124 233.00903 49.846874 233.00903Q50.58125 233.00903 51.065624 232.30591Q51.565624 231.60278 51.565624 229.49341Q51.565624 227.36841 51.065624 226.68091Q50.58125 225.97778 49.83125 225.97778Q49.1125 225.97778 48.675 226.58716Q48.128124 227.36841 48.128124 229.49341Z" fill-rule="nonzero"/><path fill="#000000" d="M23.01875 163.00555L21.971874 163.00555L21.971874 156.2868Q21.58125 156.64618 20.95625 157.02118Q20.346874 157.38055 19.8625 157.55243L19.8625 156.5368Q20.7375 156.11493 21.39375 155.5368Q22.065624 154.94305 22.346874 154.38055L23.01875 154.38055L23.01875 163.00555ZM26.05 158.77118Q26.05 157.23993 26.3625 156.31805Q26.675 155.38055 27.284374 154.88055Q27.909374 154.38055 28.846874 154.38055Q29.534374 154.38055 30.05 154.6618Q30.58125 154.94305 30.925 155.4743Q31.26875 155.98993 31.45625 156.73993Q31.64375 157.48993 31.64375 158.77118Q31.64375 160.2868 31.33125 161.20868Q31.034374 162.13055 30.409374 162.64618Q29.8 163.14618 28.846874 163.14618Q27.6125 163.14618 26.89375 162.25555Q26.05 161.19305 26.05 158.77118ZM27.128124 158.77118Q27.128124 160.88055 27.628124 161.58368Q28.128124 162.2868 28.846874 162.2868Q29.58125 162.2868 30.065624 161.58368Q30.565624 160.88055 30.565624 158.77118Q30.565624 156.64618 30.065624 155.95868Q29.58125 155.25555 28.83125 155.25555Q28.1125 155.25555 27.675 155.86493Q27.128124 156.64618 27.128124 158.77118ZM33.05 158.77118Q33.05 157.23993 33.3625 156.31805Q33.675 155.38055 34.284374 154.88055Q34.909374 154.38055 35.846874 154.38055Q36.534374 154.38055 37.05 154.6618Q37.58125 154.94305 37.925 155.4743Q38.26875 155.98993 38.45625 156.73993Q38.64375 157.48993 38.64375 158.77118Q38.64375 160.2868 38.33125 161.20868Q38.034374 162.13055 37.409374 162.64618Q36.8 163.14618 35.846874 163.14618Q34.6125 163.14618 33.89375 162.25555Q33.05 161.19305 33.05 158.77118ZM34.128124 158.77118Q34.128124 160.88055 34.628124 161.58368Q35.128124 162.2868 35.846874 162.2868Q36.58125 162.2868 37.065624 161.58368Q37.565624 160.88055 37.565624 158.77118Q37.565624 156.64618 37.065624 155.95868Q36.58125 155.25555 35.83125 155.25555Q35.1125 155.25555 34.675 155.86493Q34.128124 156.64618 34.128124 158.77118ZM40.05 158.77118Q40.05 157.23993 40.3625 156.31805Q40.675 155.38055 41.284374 154.88055Q41.909374 154.38055 42.846874 154.38055Q43.534374 154.38055 44.05 154.6618Q44.58125 154.94305 44.925 155.4743Q45.26875 155.98993 45.45625 156.73993Q45.64375 157.48993 45.64375 158.77118Q45.64375 160.2868 45.33125 161.20868Q45.034374 162.13055 44.409374 162.64618Q43.8 163.14618 42.846874 163.14618Q41.6125 163.14618 40.89375 162.25555Q40.05 161.19305 40.05 158.77118ZM41.128124 158.77118Q41.128124 160.88055 41.628124 161.58368Q42.128124 162.2868 42.846874 162.2868Q43.58125 162.2868 44.065624 161.58368Q44.565624 160.88055 44.565624 158.77118Q44.565624 156.64618 44.065624 155.95868Q43.58125 155.25555 42.83125 155.25555Q42.1125 155.25555 41.675 155.86493Q41.128124 156.64618 41.128124 158.77118ZM47.05 158.77118Q47.05 157.23993 47.3625 156.31805Q47.675 155.38055 48.284374 154.88055Q48.909374 154.38055 49.846874 154.38055Q50.534374 154.38055 51.05 154.6618Q51.58125 154.94305 51.925 155.4743Q52.26875 155.98993 52.45625 156.73993Q52.64375 157.48993 52.64375 158.77118Q52.64375 160.2868 52.33125 161.20868Q52.034374 162.13055 51.409374 162.64618Q50.8 163.14618 49.846874 163.14618Q48.6125 163.14618 47.89375 162.25555Q47.05 161.19305 47.05 158.77118ZM48.128124 158.77118Q48.128124 160.88055 48.628124 161.58368Q49.128124 162.2868 49.846874 162.2868Q50.58125 162.2868 51.065624 161.58368Q51.565624 160.88055 51.565624 158.77118Q51.565624 156.64618 51.065624 155.95868Q50.58125 155.25555 49.83125 155.25555Q49.1125 155.25555 48.675 155.86493Q48.128124 156.64618 48.128124 158.77118Z" fill-rule="nonzero"/><path fill="#000000" d="M23.01875 92.28333L21.971874 92.28333L21.971874 85.56458Q21.58125 85.92396 20.95625 86.29896Q20.346874 86.65833 19.8625 86.83021L19.8625 85.81458Q20.7375 85.39271 21.39375 84.81458Q22.065624 84.22083 22.346874 83.65833L23.01875 83.65833L23.01875 92.28333ZM26.05 90.03333L27.159374 89.93958Q27.284374 90.75208 27.721874 91.15833Q28.175 91.56458 28.815624 91.56458Q29.565624 91.56458 30.096874 90.98646Q30.628124 90.40833 30.628124 89.47083Q30.628124 88.56458 30.1125 88.04896Q29.6125 87.51771 28.784374 87.51771Q28.284374 87.51771 27.8625 87.75208Q27.45625 87.98646 27.221874 88.34583L26.2375 88.22083L27.065624 83.81458L31.346874 83.81458L31.346874 84.81458L27.909374 84.81458L27.45625 87.12708Q28.221874 86.58021 29.065624 86.58021Q30.190624 86.58021 30.95625 87.36146Q31.7375 88.14271 31.7375 89.37708Q31.7375 90.53333 31.065624 91.39271Q30.2375 92.42396 28.815624 92.42396Q27.64375 92.42396 26.89375 91.76771Q26.159374 91.11146 26.05 90.03333ZM33.05 88.04896Q33.05 86.51771 33.3625 85.59583Q33.675 84.65833 34.284374 84.15833Q34.909374 83.65833 35.846874 83.65833Q36.534374 83.65833 37.05 83.93958Q37.58125 84.22083 37.925 84.75208Q38.26875 85.26771 38.45625 86.01771Q38.64375 86.76771 38.64375 88.04896Q38.64375 89.56458 38.33125 90.48646Q38.034374 91.40833 37.409374 91.92396Q36.8 92.42396 35.846874 92.42396Q34.6125 92.42396 33.89375 91.53333Q33.05 90.47083 33.05 88.04896ZM34.128124 88.04896Q34.128124 90.15833 34.628124 90.86146Q35.128124 91.56458 35.846874 91.56458Q36.58125 91.56458 37.065624 90.86146Q37.565624 90.15833 37.565624 88.04896Q37.565624 85.92396 37.065624 85.23646Q36.58125 84.53333 35.83125 84.53333Q35.1125 84.53333 34.675 85.14271Q34.128124 85.92396 34.128124 88.04896ZM40.05 88.04896Q40.05 86.51771 40.3625 85.59583Q40.675 84.65833 41.284374 84.15833Q41.909374 83.65833 42.846874 83.65833Q43.534374 83.65833 44.05 83.93958Q44.58125 84.22083 44.925 84.75208Q45.26875 85.26771 45.45625 86.01771Q45.64375 86.76771 45.64375 88.04896Q45.64375 89.56458 45.33125 90.48646Q45.034374 91.40833 44.409374 91.92396Q43.8 92.42396 42.846874 92.42396Q41.6125 92.42396 40.89375 91.53333Q40.05 90.47083 40.05 88.04896ZM41.128124 88.04896Q41.128124 90.15833 41.628124 90.86146Q42.128124 91.56458 42.846874 91.56458Q43.58125 91.56458 44.065624 90.86146Q44.565624 90.15833 44.565624 88.04896Q44.565624 85.92396 44.065624 85.23646Q43.58125 84.53333 42.83125 84.53333Q42.1125 84.53333 41.675 85.14271Q41.128124 85.92396 41.128124 88.04896ZM47.05 88.04896Q47.05 86.51771 47.3625 85.59583Q47.675 84.65833 48.284374 84.15833Q48.909374 83.65833 49.846874 83.65833Q50.534374 83.65833 51.05 83.93958Q51.58125 84.22083 51.925 84.75208Q52.26875 85.26771 52.45625 86.01771Q52.64375 86.76771 52.64375 88.04896Q52.64375 89.56458 52.33125 90.48646Q52.034374 91.40833 51.409374 91.92396Q50.8 92.42396 49.846874 92.42396Q48.6125 92.42396 47.89375 91.53333Q47.05 90.47083 47.05 88.04896ZM48.128124 88.04896Q48.128124 90.15833 48.628124 90.86146Q49.128124 91.56458 49.846874 91.56458Q50.58125 91.56458 51.065624 90.86146Q51.565624 90.15833 51.565624 88.04896Q51.565624 85.92396 51.065624 85.23646Q50.58125 84.53333 49.83125 84.53333Q49.1125 84.53333 48.675 85.14271Q48.128124 85.92396 48.128124 88.04896Z" fill-rule="nonzero"/><path fill="#000000" d="M141.50323 317.45L140.45636 317.45L140.45636 310.73126Q140.06573 311.09064 139.44073 311.46564Q138.83136 311.825 138.34698 311.9969L138.34698 310.98126Q139.22198 310.5594 139.87823 309.98126Q140.55011 309.3875 140.83136 308.825L141.50323 308.825L141.50323 317.45Z" fill-rule="nonzero"/><path fill="#000000" d="M263.05838 316.4344L263.05838 317.45L257.37088 317.45Q257.37088 317.075 257.49588 316.71564Q257.71463 316.1375 258.18338 315.575Q258.66776 315.0125 259.574 314.27814Q260.98026 313.1219 261.46463 312.45Q261.96463 311.77814 261.96463 311.1844Q261.96463 310.5594 261.5115 310.1375Q261.05838 309.7 260.33963 309.7Q259.574 309.7 259.12088 310.15314Q258.66776 310.60626 258.65213 311.41876L257.574 311.3094Q257.68338 310.09064 258.40213 309.46564Q259.1365 308.825 260.37088 308.825Q261.60526 308.825 262.324 309.5125Q263.04276 310.2 263.04276 311.21564Q263.04276 311.73126 262.824 312.23126Q262.62088 312.71564 262.12088 313.27814Q261.6365 313.825 260.5115 314.77814Q259.55838 315.575 259.27713 315.8719Q259.0115 316.15314 258.83963 316.4344L263.05838 316.4344Z" fill-rule="nonzero"/><path fill="#000000" d="M377.4885 315.1844L378.551 315.04376Q378.72287 315.9344 379.16037 316.34064Q379.59787 316.73126 380.22287 316.73126Q380.97287 316.73126 381.4885 316.21564Q382.00412 315.7 382.00412 314.9344Q382.00412 314.21564 381.51974 313.7469Q381.051 313.2625 380.31662 313.2625Q380.01974 313.2625 379.56662 313.3875L379.69162 312.45Q379.801 312.46564 379.8635 312.46564Q380.53537 312.46564 381.06662 312.1219Q381.6135 311.7625 381.6135 311.02814Q381.6135 310.45 381.22287 310.075Q380.83224 309.6844 380.20724 309.6844Q379.59787 309.6844 379.176 310.075Q378.76974 310.46564 378.66037 311.23126L377.59787 311.04376Q377.78537 309.9969 378.47287 309.41876Q379.16037 308.825 380.176 308.825Q380.87912 308.825 381.47287 309.1375Q382.06662 309.4344 382.37912 309.95Q382.69162 310.46564 382.69162 311.0594Q382.69162 311.60626 382.39474 312.075Q382.09787 312.52814 381.51974 312.79376Q382.26974 312.96564 382.69162 313.52814Q383.1135 314.075 383.1135 314.91876Q383.1135 316.04376 382.28537 316.825Q381.47287 317.60626 380.22287 317.60626Q379.09787 317.60626 378.34787 316.9344Q377.59787 316.2469 377.4885 315.1844Z" fill-rule="nonzero"/><path fill="#000000" d="M500.8405 317.45L500.8405 315.3875L497.12177 315.3875L497.12177 314.41876L501.04364 308.85626L501.903 308.85626L501.903 314.41876L503.05927 314.41876L503.05927 315.3875L501.903 315.3875L501.903 317.45L500.8405 317.45ZM500.8405 314.41876L500.8405 310.5594L498.153 314.41876L500.8405 314.41876Z" fill-rule="nonzero"/><path fill="#4285f4" d="M182.0 56.916668C182.0 56.364384 182.44771 55.916668 183.0 55.916668L193.0 55.916668C193.55229 55.916668 194.0 56.364384 194.0 56.916668L194.0 66.916664C194.0 67.46895 193.55229 67.916664 193.0 67.916664L183.0 67.916664C182.44771 67.916664 182.0 67.46895 182.0 66.916664Z" fill-rule="nonzero"/><path fill="#1a1a1a" d="M209.0625 62.90104L210.1875 63.197914Q209.82812 64.58854 208.90625 65.322914Q207.98438 66.05729 206.64062 66.05729Q205.25 66.05729 204.375 65.49479Q203.5 64.93229 203.04688 63.86979Q202.59375 62.791664 202.59375 61.55729Q202.59375 60.21354 203.10938 59.21354Q203.625 58.21354 204.5625 57.697914Q205.51562 57.18229 206.65625 57.18229Q207.9375 57.18229 208.8125 57.83854Q209.70312 58.49479 210.04688 59.68229L208.92188 59.947914Q208.625 59.010414 208.04688 58.58854Q207.48438 58.15104 206.625 58.15104Q205.64062 58.15104 204.96875 58.635414Q204.3125 59.104164 204.03125 59.90104Q203.76562 60.697914 203.76562 61.55729Q203.76562 62.65104 204.07812 63.46354Q204.40625 64.27604 205.07812 64.68229Q205.75 65.08854 206.54688 65.08854Q207.5 65.08854 208.15625 64.541664Q208.82812 63.99479 209.0625 62.90104ZM211.40625 62.80729Q211.40625 61.072914 212.35938 60.24479Q213.15625 59.55729 214.3125 59.55729Q215.59375 59.55729 216.40625 60.40104Q217.23438 61.229164 217.23438 62.71354Q217.23438 63.916664 216.875 64.604164Q216.51562 65.291664 215.8125 65.68229Q215.125 66.05729 214.3125 66.05729Q213.01562 66.05729 212.20312 65.229164Q211.40625 64.385414 211.40625 62.80729ZM212.48438 62.80729Q212.48438 63.99479 213.0 64.58854Q213.53125 65.18229 214.3125 65.18229Q215.10938 65.18229 215.625 64.58854Q216.14062 63.99479 216.14062 62.77604Q216.14062 61.61979 215.60938 61.02604Q215.09375 60.43229 214.3125 60.43229Q213.53125 60.43229 213.0 61.02604Q212.48438 61.604164 212.48438 62.80729ZM218.79688 65.916664L218.79688 59.697914L219.73438 59.697914L219.73438 60.572914Q220.42188 59.55729 221.71875 59.55729Q222.28125 59.55729 222.75 59.760414Q223.23438 59.96354 223.46875 60.291664Q223.70312 60.61979 223.79688 61.05729Q223.84375 61.354164 223.84375 62.08854L223.84375 65.916664L222.79688 65.916664L222.79688 62.135414Q222.79688 61.479164 222.67188 61.166664Q222.54688 60.854164 222.23438 60.666664Q221.92188 60.46354 221.5 60.46354Q220.82812 60.46354 220.32812 60.90104Q219.84375 61.322914 219.84375 62.510414L219.84375 65.916664L218.79688 65.916664ZM228.09375 64.979164L228.25 65.90104Q227.79688 65.99479 227.45312 65.99479Q226.875 65.99479 226.5625 65.822914Q226.25 65.635414 226.10938 65.33854Q225.98438 65.041664 225.98438 64.08854L225.98438 60.510414L225.21875 60.510414L225.21875 59.697914L225.98438 59.697914L225.98438 58.15104L227.03125 57.52604L227.03125 59.697914L228.09375 59.697914L228.09375 60.510414L227.03125 60.510414L227.03125 64.15104Q227.03125 64.604164 227.07812 64.729164Q227.14062 64.854164 227.26562 64.93229Q227.39062 65.010414 227.625 65.010414Q227.8125 65.010414 228.09375 64.979164ZM228.79688 58.541664L228.79688 57.322914L229.85938 57.322914L229.85938 58.541664L228.79688 58.541664ZM228.79688 65.916664L228.79688 59.697914L229.85938 59.697914L229.85938 65.916664L228.79688 65.916664ZM231.79688 65.916664L231.79688 59.697914L232.73438 59.697914L232.73438 60.572914Q233.42188 59.55729 234.71875 59.55729Q235.28125 59.55729 235.75 59.760414Q236.23438 59.96354 236.46875 60.291664Q236.70312 60.61979 236.79688 61.05729Q236.84375 61.354164 236.84375 62.08854L236.84375 65.916664L235.79688 65.916664L235.79688 62.135414Q235.79688 61.479164 235.67188 61.166664Q235.54688 60.854164 235.23438 60.666664Q234.92188 60.46354 234.5 60.46354Q233.82812 60.46354 233.32812 60.90104Q232.84375 61.322914 232.84375 62.510414L232.84375 65.916664L231.79688 65.916664ZM242.875 65.916664L242.875 64.99479Q242.14062 66.05729 240.89062 66.05729Q240.34375 66.05729 239.85938 65.854164Q239.39062 65.635414 239.15625 65.322914Q238.92188 64.99479 238.82812 64.52604Q238.76562 64.229164 238.76562 63.541664L238.76562 59.697914L239.82812 59.697914L239.82812 63.15104Q239.82812 63.96354 239.89062 64.260414Q239.98438 64.666664 240.29688 64.916664Q240.625 65.15104 241.10938 65.15104Q241.57812 65.15104 241.98438 64.916664Q242.40625 64.666664 242.57812 64.24479Q242.76562 63.822914 242.76562 63.02604L242.76562 59.697914L243.8125 59.697914L243.8125 65.916664L242.875 65.916664ZM245.40625 62.80729Q245.40625 61.072914 246.35938 60.24479Q247.15625 59.55729 248.3125 59.55729Q249.59375 59.55729 250.40625 60.40104Q251.23438 61.229164 251.23438 62.71354Q251.23438 63.916664 250.875 64.604164Q250.51562 65.291664 249.8125 65.68229Q249.125 66.05729 248.3125 66.05729Q247.01562 66.05729 246.20312 65.229164Q245.40625 64.385414 245.40625 62.80729ZM246.48438 62.80729Q246.48438 63.99479 247.0 64.58854Q247.53125 65.18229 248.3125 65.18229Q249.10938 65.18229 249.625 64.58854Q250.14062 63.99479 250.14062 62.77604Q250.14062 61.61979 249.60938 61.02604Q249.09375 60.43229 248.3125 60.43229Q247.53125 60.43229 247.0 61.02604Q246.48438 61.604164 246.48438 62.80729ZM256.875 65.916664L256.875 64.99479Q256.14062 66.05729 254.89062 66.05729Q254.34375 66.05729 253.85938 65.854164Q253.39062 65.635414 253.15625 65.322914Q252.92188 64.99479 252.82812 64.52604Q252.76562 64.229164 252.76562 63.541664L252.76562 59.697914L253.82812 59.697914L253.82812 63.15104Q253.82812 63.96354 253.89062 64.260414Q253.98438 64.666664 254.29688 64.916664Q254.625 65.15104 255.10938 65.15104Q255.57812 65.15104 255.98438 64.916664Q256.40625 64.666664 256.57812 64.24479Q256.76562 63.822914 256.76562 63.02604L256.76562 59.697914L257.8125 59.697914L257.8125 65.916664L256.875 65.916664ZM259.375 64.05729L260.40625 63.90104Q260.5 64.52604 260.89062 64.854164Q261.29688 65.18229 262.03125 65.18229Q262.75 65.18229 263.09375 64.90104Q263.45312 64.604164 263.45312 64.197914Q263.45312 63.83854 263.14062 63.635414Q262.92188 63.49479 262.0625 63.27604Q260.90625 62.979164 260.45312 62.77604Q260.01562 62.55729 259.78125 62.18229Q259.54688 61.80729 259.54688 61.33854Q259.54688 60.93229 259.73438 60.572914Q259.92188 60.21354 260.25 59.979164Q260.5 59.80729 260.92188 59.68229Q261.34375 59.55729 261.84375 59.55729Q262.5625 59.55729 263.10938 59.77604Q263.67188 59.979164 263.9375 60.33854Q264.20312 60.697914 264.29688 61.291664L263.26562 61.43229Q263.20312 60.96354 262.85938 60.697914Q262.53125 60.416664 261.90625 60.416664Q261.1875 60.416664 260.875 60.666664Q260.5625 60.90104 260.5625 61.229164Q260.5625 61.43229 260.6875 61.58854Q260.82812 61.760414 261.09375 61.86979Q261.25 61.93229 262.03125 62.135414Q263.15625 62.447914 263.59375 62.635414Q264.03125 62.822914 264.28125 63.18229Q264.53125 63.541664 264.53125 64.08854Q264.53125 64.61979 264.21875 65.08854Q263.92188 65.541664 263.34375 65.80729Q262.76562 66.05729 262.03125 66.05729Q260.8125 66.05729 260.17188 65.55729Q259.54688 65.041664 259.375 64.05729ZM272.46875 65.916664L271.42188 65.916664L271.42188 59.197914Q271.03125 59.55729 270.40625 59.93229Q269.79688 60.291664 269.3125 60.46354L269.3125 59.447914Q270.1875 59.02604 270.84375 58.447914Q271.51562 57.854164 271.79688 57.291664L272.46875 57.291664L272.46875 65.916664ZM280.8125 68.447914Q279.9375 67.33854 279.32812 65.86979Q278.73438 64.385414 278.73438 62.80729Q278.73438 61.416664 279.17188 60.135414Q279.70312 58.65104 280.8125 57.18229L281.5625 57.18229Q280.85938 58.40104 280.625 58.916664Q280.26562 59.729164 280.0625 60.604164Q279.8125 61.697914 279.8125 62.80729Q279.8125 65.635414 281.5625 68.447914L280.8125 68.447914ZM282.375 64.05729L283.40625 63.90104Q283.5 64.52604 283.89062 64.854164Q284.29688 65.18229 285.03125 65.18229Q285.75 65.18229 286.09375 64.90104Q286.45312 64.604164 286.45312 64.197914Q286.45312 63.83854 286.14062 63.635414Q285.92188 63.49479 285.0625 63.27604Q283.90625 62.979164 283.45312 62.77604Q283.01562 62.55729 282.78125 62.18229Q282.54688 61.80729 282.54688 61.33854Q282.54688 60.93229 282.73438 60.572914Q282.92188 60.21354 283.25 59.979164Q283.5 59.80729 283.92188 59.68229Q284.34375 59.55729 284.84375 59.55729Q285.5625 59.55729 286.10938 59.77604Q286.67188 59.979164 286.9375 60.33854Q287.20312 60.697914 287.29688 61.291664L286.26562 61.43229Q286.20312 60.96354 285.85938 60.697914Q285.53125 60.416664 284.90625 60.416664Q284.1875 60.416664 283.875 60.666664Q283.5625 60.90104 283.5625 61.229164Q283.5625 61.43229 283.6875 61.58854Q283.82812 61.760414 284.09375 61.86979Q284.25 61.93229 285.03125 62.135414Q286.15625 62.447914 286.59375 62.635414Q287.03125 62.822914 287.28125 63.18229Q287.53125 63.541664 287.53125 64.08854Q287.53125 64.61979 287.21875 65.08854Q286.92188 65.541664 286.34375 65.80729Q285.76562 66.05729 285.03125 66.05729Q283.8125 66.05729 283.17188 65.55729Q282.54688 65.041664 282.375 64.05729ZM289.48438 68.447914L288.73438 68.447914Q290.48438 65.635414 290.48438 62.80729Q290.48438 61.71354 290.23438 60.61979Q290.03125 59.74479 289.67188 58.93229Q289.4375 58.416664 288.73438 57.18229L289.48438 57.18229Q290.57812 58.65104 291.10938 60.135414Q291.5625 61.416664 291.5625 62.80729Q291.5625 64.385414 290.95312 65.86979Q290.34375 67.33854 289.48438 68.447914Z" fill-rule="nonzero"/><path fill="#ea4335" d="M308.0 56.916668C308.0 56.364384 308.44772 55.916668 309.0 55.916668L319.0 55.916668C319.55228 55.916668 320.0 56.364384 320.0 56.916668L320.0 66.916664C320.0 67.46895 319.55228 67.916664 319.0 67.916664L309.0 67.916664C308.44772 67.916664 308.0 67.46895 308.0 66.916664Z" fill-rule="nonzero"/><path fill="#1a1a1a" d="M335.0625 62.90104L336.1875 63.197914Q335.82812 64.58854 334.90625 65.322914Q333.98438 66.05729 332.64062 66.05729Q331.25 66.05729 330.375 65.49479Q329.5 64.93229 329.04688 63.86979Q328.59375 62.791664 328.59375 61.55729Q328.59375 60.21354 329.10938 59.21354Q329.625 58.21354 330.5625 57.697914Q331.51562 57.18229 332.65625 57.18229Q333.9375 57.18229 334.8125 57.83854Q335.70312 58.49479 336.04688 59.68229L334.92188 59.947914Q334.625 59.010414 334.04688 58.58854Q333.48438 58.15104 332.625 58.15104Q331.64062 58.15104 330.96875 58.635414Q330.3125 59.104164 330.03125 59.90104Q329.76562 60.697914 329.76562 61.55729Q329.76562 62.65104 330.07812 63.46354Q330.40625 64.27604 331.07812 64.68229Q331.75 65.08854 332.54688 65.08854Q333.5 65.08854 334.15625 64.541664Q334.82812 63.99479 335.0625 62.90104ZM337.40625 62.80729Q337.40625 61.072914 338.35938 60.24479Q339.15625 59.55729 340.3125 59.55729Q341.59375 59.55729 342.40625 60.40104Q343.23438 61.229164 343.23438 62.71354Q343.23438 63.916664 342.875 64.604164Q342.51562 65.291664 341.8125 65.68229Q341.125 66.05729 340.3125 66.05729Q339.01562 66.05729 338.20312 65.229164Q337.40625 64.385414 337.40625 62.80729ZM338.48438 62.80729Q338.48438 63.99479 339.0 64.58854Q339.53125 65.18229 340.3125 65.18229Q341.10938 65.18229 341.625 64.58854Q342.14062 63.99479 342.14062 62.77604Q342.14062 61.61979 341.60938 61.02604Q341.09375 60.43229 340.3125 60.43229Q339.53125 60.43229 339.0 61.02604Q338.48438 61.604164 338.48438 62.80729ZM344.79688 65.916664L344.79688 59.697914L345.73438 59.697914L345.73438 60.572914Q346.42188 59.55729 347.71875 59.55729Q348.28125 59.55729 348.75 59.760414Q349.23438 59.96354 349.46875 60.291664Q349.70312 60.61979 349.79688 61.05729Q349.84375 61.354164 349.84375 62.08854L349.84375 65.916664L348.79688 65.916664L348.79688 62.135414Q348.79688 61.479164 348.67188 61.166664Q348.54688 60.854164 348.23438 60.666664Q347.92188 60.46354 347.5 60.46354Q346.82812 60.46354 346.32812 60.90104Q345.84375 61.322914 345.84375 62.510414L345.84375 65.916664L344.79688 65.916664ZM354.09375 64.979164L354.25 65.90104Q353.79688 65.99479 353.45312 65.99479Q352.875 65.99479 352.5625 65.822914Q352.25 65.635414 352.10938 65.33854Q351.98438 65.041664 351.98438 64.08854L351.98438 60.510414L351.21875 60.510414L351.21875 59.697914L351.98438 59.697914L351.98438 58.15104L353.03125 57.52604L353.03125 59.697914L354.09375 59.697914L354.09375 60.510414L353.03125 60.510414L353.03125 64.15104Q353.03125 64.604164 353.07812 64.729164Q353.14062 64.854164 353.26562 64.93229Q353.39062 65.010414 353.625 65.010414Q353.8125 65.010414 354.09375 64.979164ZM354.79688 58.541664L354.79688 57.322914L355.85938 57.322914L355.85938 58.541664L354.79688 58.541664ZM354.79688 65.916664L354.79688 59.697914L355.85938 59.697914L355.85938 65.916664L354.79688 65.916664ZM357.79688 65.916664L357.79688 59.697914L358.73438 59.697914L358.73438 60.572914Q359.42188 59.55729 360.71875 59.55729Q361.28125 59.55729 361.75 59.760414Q362.23438 59.96354 362.46875 60.291664Q362.70312 60.61979 362.79688 61.05729Q362.84375 61.354164 362.84375 62.08854L362.84375 65.916664L361.79688 65.916664L361.79688 62.135414Q361.79688 61.479164 361.67188 61.166664Q361.54688 60.854164 361.23438 60.666664Q360.92188 60.46354 360.5 60.46354Q359.82812 60.46354 359.32812 60.90104Q358.84375 61.322914 358.84375 62.510414L358.84375 65.916664L357.79688 65.916664ZM368.875 65.916664L368.875 64.99479Q368.14062 66.05729 366.89062 66.05729Q366.34375 66.05729 365.85938 65.854164Q365.39062 65.635414 365.15625 65.322914Q364.92188 64.99479 364.82812 64.52604Q364.76562 64.229164 364.76562 63.541664L364.76562 59.697914L365.82812 59.697914L365.82812 63.15104Q365.82812 63.96354 365.89062 64.260414Q365.98438 64.666664 366.29688 64.916664Q366.625 65.15104 367.10938 65.15104Q367.57812 65.15104 367.98438 64.916664Q368.40625 64.666664 368.57812 64.24479Q368.76562 63.822914 368.76562 63.02604L368.76562 59.697914L369.8125 59.697914L369.8125 65.916664L368.875 65.916664ZM371.40625 62.80729Q371.40625 61.072914 372.35938 60.24479Q373.15625 59.55729 374.3125 59.55729Q375.59375 59.55729 376.40625 60.40104Q377.23438 61.229164 377.23438 62.71354Q377.23438 63.916664 376.875 64.604164Q376.51562 65.291664 375.8125 65.68229Q375.125 66.05729 374.3125 66.05729Q373.01562 66.05729 372.20312 65.229164Q371.40625 64.385414 371.40625 62.80729ZM372.48438 62.80729Q372.48438 63.99479 373.0 64.58854Q373.53125 65.18229 374.3125 65.18229Q375.10938 65.18229 375.625 64.58854Q376.14062 63.99479 376.14062 62.77604Q376.14062 61.61979 375.60938 61.02604Q375.09375 60.43229 374.3125 60.43229Q373.53125 60.43229 373.0 61.02604Q372.48438 61.604164 372.48438 62.80729ZM382.875 65.916664L382.875 64.99479Q382.14062 66.05729 380.89062 66.05729Q380.34375 66.05729 379.85938 65.854164Q379.39062 65.635414 379.15625 65.322914Q378.92188 64.99479 378.82812 64.52604Q378.76562 64.229164 378.76562 63.541664L378.76562 59.697914L379.82812 59.697914L379.82812 63.15104Q379.82812 63.96354 379.89062 64.260414Q379.98438 64.666664 380.29688 64.916664Q380.625 65.15104 381.10938 65.15104Q381.57812 65.15104 381.98438 64.916664Q382.40625 64.666664 382.57812 64.24479Q382.76562 63.822914 382.76562 63.02604L382.76562 59.697914L383.8125 59.697914L383.8125 65.916664L382.875 65.916664ZM385.375 64.05729L386.40625 63.90104Q386.5 64.52604 386.89062 64.854164Q387.29688 65.18229 388.03125 65.18229Q388.75 65.18229 389.09375 64.90104Q389.45312 64.604164 389.45312 64.197914Q389.45312 63.83854 389.14062 63.635414Q388.92188 63.49479 388.0625 63.27604Q386.90625 62.979164 386.45312 62.77604Q386.01562 62.55729 385.78125 62.18229Q385.54688 61.80729 385.54688 61.33854Q385.54688 60.93229 385.73438 60.572914Q385.92188 60.21354 386.25 59.979164Q386.5 59.80729 386.92188 59.68229Q387.34375 59.55729 387.84375 59.55729Q388.5625 59.55729 389.10938 59.77604Q389.67188 59.979164 389.9375 60.33854Q390.20312 60.697914 390.29688 61.291664L389.26562 61.43229Q389.20312 60.96354 388.85938 60.697914Q388.53125 60.416664 387.90625 60.416664Q387.1875 60.416664 386.875 60.666664Q386.5625 60.90104 386.5625 61.229164Q386.5625 61.43229 386.6875 61.58854Q386.82812 61.760414 387.09375 61.86979Q387.25 61.93229 388.03125 62.135414Q389.15625 62.447914 389.59375 62.635414Q390.03125 62.822914 390.28125 63.18229Q390.53125 63.541664 390.53125 64.08854Q390.53125 64.61979 390.21875 65.08854Q389.92188 65.541664 389.34375 65.80729Q388.76562 66.05729 388.03125 66.05729Q386.8125 66.05729 386.17188 65.55729Q385.54688 65.041664 385.375 64.05729ZM398.46875 65.916664L397.42188 65.916664L397.42188 59.197914Q397.03125 59.55729 396.40625 59.93229Q395.79688 60.291664 395.3125 60.46354L395.3125 59.447914Q396.1875 59.02604 396.84375 58.447914Q397.51562 57.854164 397.79688 57.291664L398.46875 57.291664L398.46875 65.916664ZM406.8125 68.447914Q405.9375 67.33854 405.32812 65.86979Q404.73438 64.385414 404.73438 62.80729Q404.73438 61.416664 405.17188 60.135414Q405.70312 58.65104 406.8125 57.18229L407.5625 57.18229Q406.85938 58.40104 406.625 58.916664Q406.26562 59.729164 406.0625 60.604164Q405.8125 61.697914 405.8125 62.80729Q405.8125 65.635414 407.5625 68.447914L406.8125 68.447914ZM408.375 64.05729L409.40625 63.90104Q409.5 64.52604 409.89062 64.854164Q410.29688 65.18229 411.03125 65.18229Q411.75 65.18229 412.09375 64.90104Q412.45312 64.604164 412.45312 64.197914Q412.45312 63.83854 412.14062 63.635414Q411.92188 63.49479 411.0625 63.27604Q409.90625 62.979164 409.45312 62.77604Q409.01562 62.55729 408.78125 62.18229Q408.54688 61.80729 408.54688 61.33854Q408.54688 60.93229 408.73438 60.572914Q408.92188 60.21354 409.25 59.979164Q409.5 59.80729 409.92188 59.68229Q410.34375 59.55729 410.84375 59.55729Q411.5625 59.55729 412.10938 59.77604Q412.67188 59.979164 412.9375 60.33854Q413.20312 60.697914 413.29688 61.291664L412.26562 61.43229Q412.20312 60.96354 411.85938 60.697914Q411.53125 60.416664 410.90625 60.416664Q410.1875 60.416664 409.875 60.666664Q409.5625 60.90104 409.5625 61.229164Q409.5625 61.43229 409.6875 61.58854Q409.82812 61.760414 410.09375 61.86979Q410.25 61.93229 411.03125 62.135414Q412.15625 62.447914 412.59375 62.635414Q413.03125 62.822914 413.28125 63.18229Q413.53125 63.541664 413.53125 64.08854Q413.53125 64.61979 413.21875 65.08854Q412.92188 65.541664 412.34375 65.80729Q411.76562 66.05729 411.03125 66.05729Q409.8125 66.05729 409.17188 65.55729Q408.54688 65.041664 408.375 64.05729ZM415.48438 68.447914L414.73438 68.447914Q416.48438 65.635414 416.48438 62.80729Q416.48438 61.71354 416.23438 60.61979Q416.03125 59.74479 415.67188 58.93229Q415.4375 58.416664 414.73438 57.18229L415.48438 57.18229Q416.57812 58.65104 417.10938 60.135414Q417.5625 61.416664 417.5625 62.80729Q417.5625 64.385414 416.95312 65.86979Q416.34375 67.33854 415.48438 68.447914Z" fill-rule="nonzero"/><path fill="#757575" d="M22.596874 37.55L18.8 23.2375L20.7375 23.2375L22.909374 32.6125Q23.26875 34.096874 23.51875 35.55Q24.065624 33.253124 24.159374 32.89375L26.89375 23.2375L29.175 23.2375L31.221874 30.471874Q32.003124 33.175 32.346874 35.55Q32.6125 34.190624 33.05 32.425L35.3 23.2375L37.20625 23.2375L33.284374 37.55L31.45625 37.55L28.440624 26.64375Q28.05 25.26875 27.9875 24.95625Q27.753124 25.940624 27.565624 26.64375L24.534374 37.55L22.596874 37.55ZM38.878124 25.253124L38.878124 23.2375L40.64375 23.2375L40.64375 25.253124L38.878124 25.253124ZM38.878124 37.55L38.878124 27.175L40.64375 27.175L40.64375 37.55L38.878124 37.55ZM42.190624 33.253124L42.190624 31.4875L47.58125 31.4875L47.58125 33.253124L42.190624 33.253124ZM50.190624 37.55L50.190624 23.2375L59.846874 23.2375L59.846874 24.925L52.08125 24.925L52.08125 29.3625L58.8 29.3625L58.8 31.05L52.08125 31.05L52.08125 37.55L50.190624 37.55ZM61.878124 25.253124L61.878124 23.2375L63.64375 23.2375L63.64375 25.253124L61.878124 25.253124ZM61.878124 37.55L61.878124 27.175L63.64375 27.175L63.64375 37.55L61.878124 37.55ZM75.7375 37.55L75.7375 24.925L71.01875 24.925L71.01875 23.2375L82.3625 23.2375L82.3625 24.925L77.62813 24.925L77.62813 37.55L75.7375 37.55ZM83.87813 25.253124L83.87813 23.2375L85.64375 23.2375L85.64375 25.253124L83.87813 25.253124ZM83.87813 37.55L83.87813 27.175L85.64375 27.175L85.64375 37.55L83.87813 37.55ZM87.8625 37.55L87.8625 27.175L89.44063 27.175L89.44063 28.628124Q89.925 27.878124 90.7375 27.409374Q91.55 26.940624 92.58125 26.940624Q93.7375 26.940624 94.47188 27.425Q95.20625 27.89375 95.51875 28.753124Q96.75313 26.940624 98.72188 26.940624Q100.26875 26.940624 101.09688 27.8Q101.925 28.659374 101.925 30.425L101.925 37.55L100.175 37.55L100.175 31.01875Q100.175 29.95625 100.00313 29.503124Q99.83125 29.034374 99.37813 28.753124Q98.94063 28.471874 98.33125 28.471874Q97.2375 28.471874 96.50313 29.20625Q95.78438 29.925 95.78438 31.51875L95.78438 37.55L94.03438 37.55L94.03438 30.815624Q94.03438 29.64375 93.59688 29.065624Q93.175 28.471874 92.19063 28.471874Q91.45625 28.471874 90.81563 28.8625Q90.19063 29.253124 89.90938 30.003124Q89.62813 30.753124 89.62813 32.175L89.62813 37.55L87.8625 37.55ZM111.97188 34.20625L113.78438 34.440624Q113.3625 36.01875 112.19063 36.909374Q111.03438 37.784374 109.22188 37.784374Q106.95625 37.784374 105.6125 36.39375Q104.28438 34.9875 104.28438 32.45625Q104.28438 29.83125 105.62813 28.39375Q106.97188 26.940624 109.12813 26.940624Q111.20625 26.940624 112.51875 28.3625Q113.84688 29.76875 113.84688 32.346874Q113.84688 32.503124 113.83125 32.815624L106.09688 32.815624Q106.19063 34.51875 107.06563 35.425Q107.94063 36.33125 109.2375 36.33125Q110.20625 36.33125 110.87813 35.83125Q111.56563 35.315624 111.97188 34.20625ZM106.19063 31.3625L111.9875 31.3625Q111.87813 30.065624 111.33125 29.409374Q110.4875 28.39375 109.14375 28.39375Q107.94063 28.39375 107.1125 29.20625Q106.28438 30.003124 106.19063 31.3625ZM132.31563 32.534374L134.20625 33.003124Q133.6125 35.346874 132.06563 36.58125Q130.51875 37.8 128.26875 37.8Q125.95625 37.8 124.50313 36.8625Q123.06563 35.909374 122.3 34.128124Q121.55 32.33125 121.55 30.284374Q121.55 28.05 122.39375 26.39375Q123.25313 24.721874 124.83125 23.8625Q126.40938 22.9875 128.3 22.9875Q130.45625 22.9875 131.90938 24.08125Q133.37813 25.175 133.95625 27.159374L132.09688 27.596874Q131.59688 26.034374 130.64375 25.33125Q129.70625 24.6125 128.26875 24.6125Q126.6125 24.6125 125.50313 25.409374Q124.39375 26.190624 123.94063 27.534374Q123.50313 28.8625 123.50313 30.26875Q123.50313 32.096874 124.03438 33.471874Q124.56563 34.83125 125.69063 35.503124Q126.81563 36.175 128.1125 36.175Q129.70625 36.175 130.81563 35.253124Q131.925 34.33125 132.31563 32.534374ZM135.22188 32.3625Q135.22188 29.4875 136.81563 28.096874Q138.15938 26.940624 140.08125 26.940624Q142.22188 26.940624 143.56563 28.346874Q144.925 29.753124 144.925 32.221874Q144.925 34.221874 144.33125 35.378124Q143.7375 36.51875 142.58125 37.159374Q141.44063 37.784374 140.08125 37.784374Q137.89375 37.784374 136.55 36.39375Q135.22188 34.9875 135.22188 32.3625ZM137.01875 32.3625Q137.01875 34.3625 137.87813 35.346874Q138.75313 36.33125 140.08125 36.33125Q141.39375 36.33125 142.25313 35.346874Q143.12813 34.346874 143.12813 32.3Q143.12813 30.378124 142.25313 29.39375Q141.37813 28.39375 140.08125 28.39375Q138.75313 28.39375 137.87813 29.39375Q137.01875 30.378124 137.01875 32.3625ZM146.8625 37.55L146.8625 27.175L148.45625 27.175L148.45625 28.659374Q149.59688 26.940624 151.75313 26.940624Q152.69063 26.940624 153.47188 27.284374Q154.26875 27.6125 154.65938 28.159374Q155.05 28.70625 155.20625 29.45625Q155.3 29.95625 155.3 31.175L155.3 37.55L153.53438 37.55L153.53438 31.2375Q153.53438 30.159374 153.33125 29.628124Q153.12813 29.096874 152.59688 28.784374Q152.08125 28.471874 151.37813 28.471874Q150.25313 28.471874 149.44063 29.190624Q148.62813 29.89375 148.62813 31.878124L148.62813 37.55L146.8625 37.55ZM157.8625 37.55L157.8625 27.175L159.45625 27.175L159.45625 28.659374Q160.59688 26.940624 162.75313 26.940624Q163.69063 26.940624 164.47188 27.284374Q165.26875 27.6125 165.65938 28.159374Q166.05 28.70625 166.20625 29.45625Q166.3 29.95625 166.3 31.175L166.3 37.55L164.53438 37.55L164.53438 31.2375Q164.53438 30.159374 164.33125 29.628124Q164.12813 29.096874 163.59688 28.784374Q163.08125 28.471874 162.37813 28.471874Q161.25313 28.471874 160.44063 29.190624Q159.62813 29.89375 159.62813 31.878124L159.62813 37.55L157.8625 37.55ZM175.97188 34.20625L177.78438 34.440624Q177.3625 36.01875 176.19063 36.909374Q175.03438 37.784374 173.22188 37.784374Q170.95625 37.784374 169.6125 36.39375Q168.28438 34.9875 168.28438 32.45625Q168.28438 29.83125 169.62813 28.39375Q170.97188 26.940624 173.12813 26.940624Q175.20625 26.940624 176.51875 28.3625Q177.84688 29.76875 177.84688 32.346874Q177.84688 32.503124 177.83125 32.815624L170.09688 32.815624Q170.19063 34.51875 171.06563 35.425Q171.94063 36.33125 173.2375 36.33125Q174.20625 36.33125 174.87813 35.83125Q175.56563 35.315624 175.97188 34.20625ZM170.19063 31.3625L175.9875 31.3625Q175.87813 30.065624 175.33125 29.409374Q174.4875 28.39375 173.14375 28.39375Q171.94063 28.39375 171.1125 29.20625Q170.28438 30.003124 170.19063 31.3625ZM186.64375 33.753124L188.3625 33.971874Q188.08125 35.76875 186.90938 36.784374Q185.75313 37.784374 184.05 37.784374Q181.925 37.784374 180.62813 36.39375Q179.33125 35.003124 179.33125 32.409374Q179.33125 30.721874 179.87813 29.471874Q180.44063 28.20625 181.58125 27.58125Q182.72188 26.940624 184.06563 26.940624Q185.75313 26.940624 186.81563 27.8Q187.89375 28.659374 188.20625 30.221874L186.4875 30.4875Q186.25313 29.440624 185.62813 28.925Q185.00313 28.39375 184.12813 28.39375Q182.8 28.39375 181.97188 29.346874Q181.14375 30.3 181.14375 32.346874Q181.14375 34.440624 181.94063 35.39375Q182.7375 36.33125 184.03438 36.33125Q185.06563 36.33125 185.75313 35.70625Q186.45625 35.065624 186.64375 33.753124ZM193.70625 35.971874L193.95625 37.534374Q193.22188 37.690624 192.62813 37.690624Q191.675 37.690624 191.14375 37.39375Q190.62813 37.08125 190.40938 36.596874Q190.19063 36.096874 190.19063 34.51875L190.19063 28.55L188.90938 28.55L188.90938 27.175L190.19063 27.175L190.19063 24.6125L191.94063 23.55L191.94063 27.175L193.70625 27.175L193.70625 28.55L191.94063 28.55L191.94063 34.6125Q191.94063 35.3625 192.03438 35.58125Q192.12813 35.784374 192.33125 35.925Q192.55 36.05 192.94063 36.05Q193.22188 36.05 193.70625 35.971874ZM202.97188 34.20625L204.78438 34.440624Q204.3625 36.01875 203.19063 36.909374Q202.03438 37.784374 200.22188 37.784374Q197.95625 37.784374 196.6125 36.39375Q195.28438 34.9875 195.28438 32.45625Q195.28438 29.83125 196.62813 28.39375Q197.97188 26.940624 200.12813 26.940624Q202.20625 26.940624 203.51875 28.3625Q204.84688 29.76875 204.84688 32.346874Q204.84688 32.503124 204.83125 32.815624L197.09688 32.815624Q197.19063 34.51875 198.06563 35.425Q198.94063 36.33125 200.2375 36.33125Q201.20625 36.33125 201.87813 35.83125Q202.56563 35.315624 202.97188 34.20625ZM197.19063 31.3625L202.9875 31.3625Q202.87813 30.065624 202.33125 29.409374Q201.4875 28.39375 200.14375 28.39375Q198.94063 28.39375 198.1125 29.20625Q197.28438 30.003124 197.19063 31.3625ZM213.59688 37.55L213.59688 36.2375Q212.6125 37.784374 210.69063 37.784374Q209.45625 37.784374 208.40938 37.096874Q207.37813 36.409374 206.8 35.190624Q206.2375 33.971874 206.2375 32.378124Q206.2375 30.815624 206.75313 29.55Q207.26875 28.284374 208.3 27.6125Q209.34688 26.940624 210.6125 26.940624Q211.55 26.940624 212.28438 27.346874Q213.01875 27.7375 213.4875 28.3625L213.4875 23.2375L215.22188 23.2375L215.22188 37.55L213.59688 37.55ZM208.03438 32.378124Q208.03438 34.3625 208.87813 35.346874Q209.72188 36.33125 210.8625 36.33125Q212.01875 36.33125 212.81563 35.39375Q213.62813 34.45625 213.62813 32.51875Q213.62813 30.39375 212.8 29.39375Q211.9875 28.39375 210.78438 28.39375Q209.6125 28.39375 208.81563 29.3625Q208.03438 30.315624 208.03438 32.378124Z" fill-rule="nonzero"/></svg>