<svg version="1.1" viewBox="0.0 0.0 600.0 371.0" fill="none" stroke="none" stroke-linecap="square" stroke-miterlimit="10" width="600" height="371" xmlns:xlink="http://www.w3.org/1999/xlink" xmlns="http://www.w3.org/2000/svg"><path fill="#ffffff" d="M0 0L600.0 0L600.0 371.0L0 371.0L0 0Z" fill-rule="nonzero"/><path stroke="#cccccc" stroke-width="1.0" stroke-linecap="butt" d="M59.5 88.5L59.5 300.5" fill-rule="nonzero"/><path stroke="#cccccc" stroke-width="1.0" stroke-linecap="butt" d="M163.5 88.5L163.5 300.5" fill-rule="nonzero"/><path stroke="#cccccc" stroke-width="1.0" stroke-linecap="butt" d="M268.5 88.5L268.5 300.5" fill-rule="nonzero"/><path stroke="#cccccc" stroke-width="1.0" stroke-linecap="butt" d="M372.5 88.5L372.5 300.5" fill-rule="nonzero"/><path stroke="#cccccc" stroke-width="1.0" stroke-linecap="butt" d="M477.5 88.5L477.5 300.5" fill-rule="nonzero"/><path stroke="#cccccc" stroke-width="1.0" stroke-linecap="butt" d="M581.5 88.5L581.5 300.5" fill-rule="nonzero"/><path stroke="#333333" stroke-width="1.0" stroke-linecap="butt" d="M59.5 300.5L581.5 300.5" fill-rule="nonzero"/><path stroke="#cccccc" stroke-width="1.0" stroke-linecap="butt" d="M59.5 247.5L581.5 247.5" fill-rule="nonzero"/><path stroke="#cccccc" stroke-width="1.0" stroke-linecap="butt" d="M59.5 194.5L581.5 194.5" fill-rule="nonzero"/><path stroke="#cccccc" stroke-width="1.0" stroke-linecap="butt" d="M59.5 141.5L581.5 141.5" fill-rule="nonzero"/><path stroke="#cccccc" stroke-width="1.0" stroke-linecap="butt" d="M59.5 88.5L581.5 88.5" fill-rule="nonzero"/><clipPath id="id_0"><path d="M59.55 88.28333L581.45 88.28333L581.45 300.45L59.55 300.45L59.55 88.28333Z" clip-rule="nonzero"/></clipPath><path stroke="#4285f4" stroke-width="2.0" stroke-linecap="butt" clip-path="url(#id_0)" d="M59.55 262.26L163.93 224.07L268.31 204.975L372.69 166.785L477.07 128.595L581.45 90.405" fill-rule="nonzero"/><path stroke="#ea4335" stroke-width="2.0" stroke-linecap="butt" clip-path="url(#id_0)" d="M59.55 262.26L163.93 262.26L268.31 281.355L372.69 262.26L477.07 262.26L581.45 262.26" fill-rule="nonzero"/><path fill="#000000" fill-opacity="0.0" clip-path="url(#id_0)" d="M62.55 262.26C62.55 263.91684 61.206856 265.26 59.55 265.26C57.893147 265.26 56.55 263.91684 56.55 262.26C56.55 260.60315 57.893147 259.26 59.55 259.26C61.206856 259.26 62.55 260.60315 62.55 262.26Z" fill-rule="nonzero"/><path fill="#000000" fill-opacity="0.0" clip-path="url(#id_0)" d="M166.93 224.07C166.93 225.72685 165.58685 227.07 163.93 227.07C162.27315 227.07 160.93 225.72685 160.93 224.07C160.93 222.41315 162.27315 221.07 163.93 221.07C165.58685 221.07 166.93 222.41315 166.93 224.07Z" fill-rule="nonzero"/><path fill="#000000" fill-opacity="0.0" clip-path="url(#id_0)" d="M271.31 204.975C271.31 206.63185 269.96686 207.975 268.31 207.975C266.65314 207.975 265.31 206.63185 265.31 204.975C265.31 203.31815 266.65314 201.975 268.31 201.975C269.96686 201.975 271.31 203.31815 271.31 204.975Z" fill-rule="nonzero"/><path fill="#000000" fill-opacity="0.0" clip-path="url(#id_0)" d="M375.69 166.785C375.69 168.44185 374.34686 169.785 372.69 169.785C371.03314 169.785 369.69 168.44185 369.69 166.785C369.69 165.12814 371.03314 163.785 372.69 163.785C374.34686 163.785 375.69 165.12814 375.69 166.785Z" fill-rule="nonzero"/><path fill="#000000" fill-opacity="0.0" clip-path="url(#id_0)" d="M480.07 128.595C480.07 130.25186 478.72687 131.595 477.07 131.595C475.41315 131.595 474.07 130.25186 474.07 128.595C474.07 126.93815 475.41315 125.595 477.07 125.595C478.72687 125.595 480.07 126.93815 480.07 128.595Z" fill-rule="nonzero"/><path fill="#000000" fill-opacity="0.0" clip-path="url(#id_0)" d="M584.45 90.405C584.45 92.06185 583.1069 93.405 581.45 93.405C579.79315 93.405 578.45 92.06185 578.45 90.405C578.45 88.748146 579.79315 87.405 581.45 87.405C583.1069 87.405 584.45 88.748146 584.45 90.405Z" fill-rule="nonzero"/><path fill="#000000" fill-opacity="0.0" clip-path="url(#id_0)" d="M62.55 262.26C62.55 263.91684 61.206856 265.26 59.55 265.26C57.893147 265.26 56.55 263.91684 56.55 262.26C56.55 260.60315 57.893147 259.26 59.55 259.26C61.206856 259.26 62.55 260.60315 62.55 262.26Z" fill-rule="nonzero"/><path fill="#000000" fill-opacity="0.0" clip-path="url(#id_0)" d="M166.93 262.26C166.93 263.91684 165.58685 265.26 163.93 265.26C162.27315 265.26 160.93 263.91684 160.93 262.26C160.93 260.60315 162.27315 259.26 163.93 259.26C165.58685 259.26 166.93 260.60315 166.93 262.26Z" fill-rule="nonzero"/><path fill="#000000" fill-opacity="0.0" clip-path="url(#id_0)" d="M271.31 281.355C271.31 283.01184 269.96686 284.355 268.31 284.355C266.65314 284.355 265.31 283.01184 265.31 281.355C265.31 279.69815 266.65314 278.355 268.31 278.355C269.96686 278.355 271.31 279.69815 271.31 281.355Z" fill-rule="nonzero"/><path fill="#000000" fill-opacity="0.0" clip-path="url(#id_0)" d="M375.69 262.26C375.69 263.91684 374.34686 265.26 372.69 265.26C371.03314 265.26 369.69 263.91684 369.69 262.26C369.69 260.60315 371.03314 259.26 372.69 259.26C374.34686 259.26 375.69 260.60315 375.69 262.26Z" fill-rule="nonzero"/><path fill="#000000" fill-opacity="0.0" clip-path="url(#id_0)" d="M480.07 262.26C480.07 263.91684 478.72687 265.26 477.07 265.26C475.41315 265.26 474.07 263.91684 474.07 262.26C474.07 260.60315 475.41315 259.26 477.07 259.26C478.72687 259.26 480.07 260.60315 480.07 262.26Z" fill-rule="nonzero"/><path fill="#000000" fill-opacity="0.0" clip-path="url(#id_0)" d="M584.45 262.26C584.45 263.91684 583.1069 265.26 581.45 265.26C579.79315 265.26 578.45 263.91684 578.45 262.26C578.45 260.60315 579.79315 259.26 581.45 259.26C583.1069 259.26 584.45 260.60315 584.45 262.26Z" fill-rule="nonzero"/><path fill="#000000" d="M307.96875 349.45L307.96875 340.85626L309.09375 340.85626L309.09375 344.3875L313.5625 344.3875L313.5625 340.85626L314.70312 340.85626L314.70312 349.45L313.5625 349.45L313.5625 345.40314L309.09375 345.40314L309.09375 349.45L307.96875 349.45ZM316.40625 346.34064Q316.40625 344.60626 317.35938 343.77814Q318.15625 343.09064 319.3125 343.09064Q320.59375 343.09064 321.40625 343.9344Q322.23438 344.7625 322.23438 346.2469Q322.23438 347.45 321.875 348.1375Q321.51562 348.825 320.8125 349.21564Q320.125 349.59064 319.3125 349.59064Q318.01562 349.59064 317.20312 348.7625Q316.40625 347.91876 316.40625 346.34064ZM317.48438 346.34064Q317.48438 347.52814 318.0 348.1219Q318.53125 348.71564 319.3125 348.71564Q320.10938 348.71564 320.625 348.1219Q321.14062 347.52814 321.14062 346.3094Q321.14062 345.15314 320.60938 344.5594Q320.09375 343.96564 319.3125 343.96564Q318.53125 343.96564 318.0 344.5594Q317.48438 345.1375 317.48438 346.34064ZM327.875 349.45L327.875 348.52814Q327.14062 349.59064 325.89062 349.59064Q325.34375 349.59064 324.85938 349.3875Q324.39062 349.16876 324.15625 348.85626Q323.92188 348.52814 323.82812 348.0594Q323.76562 347.7625 323.76562 347.075L323.76562 343.23126L324.82812 343.23126L324.82812 346.6844Q324.82812 347.4969 324.89062 347.79376Q324.98438 348.2 325.29688 348.45Q325.625 348.6844 326.10938 348.6844Q326.57812 348.6844 326.98438 348.45Q327.40625 348.2 327.57812 347.77814Q327.76562 347.35626 327.76562 346.5594L327.76562 343.23126L328.8125 343.23126L328.8125 349.45L327.875 349.45ZM330.78125 349.45L330.78125 343.23126L331.73438 343.23126L331.73438 344.16876Q332.09375 343.5125 332.39062 343.3094Q332.70312 343.09064 333.07812 343.09064Q333.60938 343.09064 334.15625 343.41876L333.79688 344.40314Q333.40625 344.16876 333.03125 344.16876Q332.67188 344.16876 332.39062 344.3875Q332.125 344.59064 332.01562 344.96564Q331.82812 345.52814 331.82812 346.1844L331.82812 349.45L330.78125 349.45Z" fill-rule="nonzero"/><path fill="#000000" d="M47.05 300.21564Q47.05 298.6844 47.3625 297.7625Q47.675 296.825 48.284374 296.325Q48.909374 295.825 49.846874 295.825Q50.534374 295.825 51.05 296.10626Q51.58125 296.3875 51.925 296.91876Q52.26875 297.4344 52.45625 298.1844Q52.64375 298.9344 52.64375 300.21564Q52.64375 301.73126 52.33125 302.65314Q52.034374 303.575 51.409374 304.09064Q50.8 304.59064 49.846874 304.59064Q48.6125 304.59064 47.89375 303.7Q47.05 302.6375 47.05 300.21564ZM48.128124 300.21564Q48.128124 302.325 48.628124 303.02814Q49.128124 303.73126 49.846874 303.73126Q50.58125 303.73126 51.065624 303.02814Q51.565624 302.325 51.565624 300.21564Q51.565624 298.09064 51.065624 297.40314Q50.58125 296.7 49.83125 296.7Q49.1125 296.7 48.675 297.3094Q48.128124 298.09064 48.128124 300.21564Z" fill-rule="nonzero"/><path fill="#000000" d="M26.05 249.15834L27.159374 249.06459Q27.284374 249.87709 27.721874 250.28334Q28.175 250.68959 28.815624 250.68959Q29.565624 250.68959 30.096874 250.11147Q30.628124 249.53334 30.628124 248.59584Q30.628124 247.68959 30.1125 247.17397Q29.6125 246.64272 28.784374 246.64272Q28.284374 246.64272 27.8625 246.87709Q27.45625 247.11147 27.221874 247.47084L26.2375 247.34584L27.065624 242.93959L31.346874 242.93959L31.346874 243.93959L27.909374 243.93959L27.45625 246.25209Q28.221874 245.70522 29.065624 245.70522Q30.190624 245.70522 30.95625 246.48647Q31.7375 247.26772 31.7375 248.50209Q31.7375 249.65834 31.065624 250.51772Q30.2375 251.54897 28.815624 251.54897Q27.64375 251.54897 26.89375 250.89272Q26.159374 250.23647 26.05 249.15834ZM33.05 247.17397Q33.05 245.64272 33.3625 244.72084Q33.675 243.78334 34.284374 243.28334Q34.909374 242.78334 35.846874 242.78334Q36.534374 242.78334 37.05 243.06459Q37.58125 243.34584 37.925 243.87709Q38.26875 244.39272 38.45625 245.14272Q38.64375 245.89272 38.64375 247.17397Q38.64375 248.68959 38.33125 249.61147Q38.034374 250.53334 37.409374 251.04897Q36.8 251.54897 35.846874 251.54897Q34.6125 251.54897 33.89375 250.65834Q33.05 249.59584 33.05 247.17397ZM34.128124 247.17397Q34.128124 249.28334 34.628124 249.98647Q35.128124 250.68959 35.846874 250.68959Q36.58125 250.68959 37.065624 249.98647Q37.565624 249.28334 37.565624 247.17397Q37.565624 245.04897 37.065624 244.36147Q36.58125 243.65834 35.83125 243.65834Q35.1125 243.65834 34.675 244.26772Q34.128124 245.04897 34.128124 247.17397ZM40.05 247.17397Q40.05 245.64272 40.3625 244.72084Q40.675 243.78334 41.284374 243.28334Q41.909374 242.78334 42.846874 242.78334Q43.534374 242.78334 44.05 243.06459Q44.58125 243.34584 44.925 243.87709Q45.26875 244.39272 45.45625 245.14272Q45.64375 245.89272 45.64375 247.17397Q45.64375 248.68959 45.33125 249.61147Q45.034374 250.53334 44.409374 251.04897Q43.8 251.54897 42.846874 251.54897Q41.6125 251.54897 40.89375 250.65834Q40.05 249.59584 40.05 247.17397ZM41.128124 247.17397Q41.128124 249.28334 41.628124 249.98647Q42.128124 250.68959 42.846874 250.68959Q43.58125 250.68959 44.065624 249.98647Q44.565624 249.28334 44.565624 247.17397Q44.565624 245.04897 44.065624 244.36147Q43.58125 243.65834 42.83125 243.65834Q42.1125 243.65834 41.675 244.26772Q41.128124 245.04897 41.128124 247.17397ZM47.05 247.17397Q47.05 245.64272 47.3625 244.72084Q47.675 243.78334 48.284374 243.28334Q48.909374 242.78334 49.846874 242.78334Q50.534374 242.78334 51.05 243.06459Q51.58125 243.34584 51.925 243.87709Q52.26875 244.39272 52.45625 245.14272Q52.64375 245.89272 52.64375 247.17397Q52.64375 248.68959 52.33125 249.61147Q52.034374 250.53334 51.409374 251.04897Q50.8 251.54897 49.846874 251.54897Q48.6125 251.54897 47.89375 250.65834Q47.05 249.59584 47.05 247.17397ZM48.128124 247.17397Q48.128124 249.28334 48.628124 249.98647Q49.128124 250.68959 49.846874 250.68959Q50.58125 250.68959 51.065624 249.98647Q51.565624 249.28334 51.565624 247.17397Q51.565624 245.04897 51.065624 244.36147Q50.58125 243.65834 49.83125 243.65834Q49.1125 243.65834 48.675 244.26772Q48.128124 245.04897 48.128124 247.17397Z" fill-rule="nonzero"/><path fill="#000000" d="M23.01875 198.36667L21.971874 198.36667L21.971874 191.64792Q21.58125 192.0073 20.95625 192.3823Q20.346874 192.74167 19.8625 192.91354L19.8625 191.89792Q20.7375 191.47604 21.39375 190.89792Q22.065624 190.30417 22.346874 189.74167L23.01875 189.74167L23.01875 198.36667ZM26.05 194.1323Q26.05 192.60104 26.3625 191.67917Q26.675 190.74167 27.284374 190.24167Q27.909374 189.74167 28.846874 189.74167Q29.534374 189.74167 30.05 190.02292Q30.58125 190.30417 30.925 190.83542Q31.26875 191.35104 31.45625 192.10104Q31.64375 192.85104 31.64375 194.1323Q31.64375 195.64792 31.33125 196.5698Q31.034374 197.49167 30.409374 198.0073Q29.8 198.5073 28.846874 198.5073Q27.6125 198.5073 26.89375 197.61667Q26.05 196.55417 26.05 194.1323ZM27.128124 194.1323Q27.128124 196.24167 27.628124 196.9448Q28.128124 197.64792 28.846874 197.64792Q29.58125 197.64792 30.065624 196.9448Q30.565624 196.24167 30.565624 194.1323Q30.565624 192.0073 30.065624 191.3198Q29.58125 190.61667 28.83125 190.61667Q28.1125 190.61667 27.675 191.22604Q27.128124 192.0073 27.128124 194.1323ZM33.05 194.1323Q33.05 192.60104 33.3625 191.67917Q33.675 190.74167 34.284374 190.24167Q34.909374 189.74167 35.846874 189.74167Q36.534374 189.74167 37.05 190.02292Q37.58125 190.30417 37.925 190.83542Q38.26875 191.35104 38.45625 192.10104Q38.64375 192.85104 38.64375 194.1323Q38.64375 195.64792 38.33125 196.5698Q38.034374 197.49167 37.409374 198.0073Q36.8 198.5073 35.846874 198.5073Q34.6125 198.5073 33.89375 197.61667Q33.05 196.55417 33.05 194.1323ZM34.128124 194.1323Q34.128124 196.24167 34.628124 196.9448Q35.128124 197.64792 35.846874 197.64792Q36.58125 197.64792 37.065624 196.9448Q37.565624 196.24167 37.565624 194.1323Q37.565624 192.0073 37.065624 191.3198Q36.58125 190.61667 35.83125 190.61667Q35.1125 190.61667 34.675 191.22604Q34.128124 192.0073 34.128124 194.1323ZM40.05 194.1323Q40.05 192.60104 40.3625 191.67917Q40.675 190.74167 41.284374 190.24167Q41.909374 189.74167 42.846874 189.74167Q43.534374 189.74167 44.05 190.02292Q44.58125 190.30417 44.925 190.83542Q45.26875 191.35104 45.45625 192.10104Q45.64375 192.85104 45.64375 194.1323Q45.64375 195.64792 45.33125 196.5698Q45.034374 197.49167 44.409374 198.0073Q43.8 198.5073 42.846874 198.5073Q41.6125 198.5073 40.89375 197.61667Q40.05 196.55417 40.05 194.1323ZM41.128124 194.1323Q41.128124 196.24167 41.628124 196.9448Q42.128124 197.64792 42.846874 197.64792Q43.58125 197.64792 44.065624 196.9448Q44.565624 196.24167 44.565624 194.1323Q44.565624 192.0073 44.065624 191.3198Q43.58125 190.61667 42.83125 190.61667Q42.1125 190.61667 41.675 191.22604Q41.128124 192.0073 41.128124 194.1323ZM47.05 194.1323Q47.05 192.60104 47.3625 191.67917Q47.675 190.74167 48.284374 190.24167Q48.909374 189.74167 49.846874 189.74167Q50.534374 189.74167 51.05 190.02292Q51.58125 190.30417 51.925 190.83542Q52.26875 191.35104 52.45625 192.10104Q52.64375 192.85104 52.64375 194.1323Q52.64375 195.64792 52.33125 196.5698Q52.034374 197.49167 51.409374 198.0073Q50.8 198.5073 49.846874 198.5073Q48.6125 198.5073 47.89375 197.61667Q47.05 196.55417 47.05 194.1323ZM48.128124 194.1323Q48.128124 196.24167 48.628124 196.9448Q49.128124 197.64792 49.846874 197.64792Q50.58125 197.64792 51.065624 196.9448Q51.565624 196.24167 51.565624 194.1323Q51.565624 192.0073 51.065624 191.3198Q50.58125 190.61667 49.83125 190.61667Q49.1125 190.61667 48.675 191.22604Q48.128124 192.0073 48.128124 194.1323Z" fill-rule="nonzero"/><path fill="#000000" d="M23.01875 145.325L21.971874 145.325L21.971874 138.60625Q21.58125 138.96562 20.95625 139.34062Q20.346874 139.7 19.8625 139.87187L19.8625 138.85625Q20.7375 138.43437 21.39375 137.85625Q22.065624 137.2625 22.346874 136.7L23.01875 136.7L23.01875 145.325ZM26.05 143.075L27.159374 142.98125Q27.284374 143.79375 27.721874 144.2Q28.175 144.60625 28.815624 144.60625Q29.565624 144.60625 30.096874 144.02812Q30.628124 143.45 30.628124 142.5125Q30.628124 141.60625 30.1125 141.09062Q29.6125 140.55937 28.784374 140.55937Q28.284374 140.55937 27.8625 140.79375Q27.45625 141.02812 27.221874 141.3875L26.2375 141.2625L27.065624 136.85625L31.346874 136.85625L31.346874 137.85625L27.909374 137.85625L27.45625 140.16875Q28.221874 139.62187 29.065624 139.62187Q30.190624 139.62187 30.95625 140.40312Q31.7375 141.18437 31.7375 142.41875Q31.7375 143.575 31.065624 144.43437Q30.2375 145.46562 28.815624 145.46562Q27.64375 145.46562 26.89375 144.80937Q26.159374 144.15312 26.05 143.075ZM33.05 141.09062Q33.05 139.55937 33.3625 138.6375Q33.675 137.7 34.284374 137.2Q34.909374 136.7 35.846874 136.7Q36.534374 136.7 37.05 136.98125Q37.58125 137.2625 37.925 137.79375Q38.26875 138.30937 38.45625 139.05937Q38.64375 139.80937 38.64375 141.09062Q38.64375 142.60625 38.33125 143.52812Q38.034374 144.45 37.409374 144.96562Q36.8 145.46562 35.846874 145.46562Q34.6125 145.46562 33.89375 144.575Q33.05 143.5125 33.05 141.09062ZM34.128124 141.09062Q34.128124 143.2 34.628124 143.90312Q35.128124 144.60625 35.846874 144.60625Q36.58125 144.60625 37.065624 143.90312Q37.565624 143.2 37.565624 141.09062Q37.565624 138.96562 37.065624 138.27812Q36.58125 137.575 35.83125 137.575Q35.1125 137.575 34.675 138.18437Q34.128124 138.96562 34.128124 141.09062ZM40.05 141.09062Q40.05 139.55937 40.3625 138.6375Q40.675 137.7 41.284374 137.2Q41.909374 136.7 42.846874 136.7Q43.534374 136.7 44.05 136.98125Q44.58125 137.2625 44.925 137.79375Q45.26875 138.30937 45.45625 139.05937Q45.64375 139.80937 45.64375 141.09062Q45.64375 142.60625 45.33125 143.52812Q45.034374 144.45 44.409374 144.96562Q43.8 145.46562 42.846874 145.46562Q41.6125 145.46562 40.89375 144.575Q40.05 143.5125 40.05 141.09062ZM41.128124 141.09062Q41.128124 143.2 41.628124 143.90312Q42.128124 144.60625 42.846874 144.60625Q43.58125 144.60625 44.065624 143.90312Q44.565624 143.2 44.565624 141.09062Q44.565624 138.96562 44.065624 138.27812Q43.58125 137.575 42.83125 137.575Q42.1125 137.575 41.675 138.18437Q41.128124 138.96562 41.128124 141.09062ZM47.05 141.09062Q47.05 139.55937 47.3625 138.6375Q47.675 137.7 48.284374 137.2Q48.909374 136.7 49.846874 136.7Q50.534374 136.7 51.05 136.98125Q51.58125 137.2625 51.925 137.79375Q52.26875 138.30937 52.45625 139.05937Q52.64375 139.80937 52.64375 141.09062Q52.64375 142.60625 52.33125 143.52812Q52.034374 144.45 51.409374 144.96562Q50.8 145.46562 49.846874 145.46562Q48.6125 145.46562 47.89375 144.575Q47.05 143.5125 47.05 141.09062ZM48.128124 141.09062Q48.128124 143.2 48.628124 143.90312Q49.128124 144.60625 49.846874 144.60625Q50.58125 144.60625 51.065624 143.90312Q51.565624 143.2 51.565624 141.09062Q51.565624 138.96562 51.065624 138.27812Q50.58125 137.575 49.83125 137.575Q49.1125 137.575 48.675 138.18437Q48.128124 138.96562 48.128124 141.09062Z" fill-rule="nonzero"/><path fill="#000000" d="M24.596874 91.26771L24.596874 92.28333L18.909374 92.28333Q18.909374 91.90833 19.034374 91.54896Q19.253124 90.97083 19.721874 90.40833Q20.20625 89.84583 21.1125 89.11146Q22.51875 87.95521 23.003124 87.28333Q23.503124 86.61146 23.503124 86.01771Q23.503124 85.39271 23.05 84.97083Q22.596874 84.53333 21.878124 84.53333Q21.1125 84.53333 20.659374 84.98646Q20.20625 85.43958 20.190624 86.25208L19.1125 86.14271Q19.221874 84.92396 19.940624 84.29896Q20.675 83.65833 21.909374 83.65833Q23.14375 83.65833 23.8625 84.34583Q24.58125 85.03333 24.58125 86.04896Q24.58125 86.56458 24.3625 87.06458Q24.159374 87.54896 23.659374 88.11146Q23.175 88.65833 22.05 89.61146Q21.096874 90.40833 20.815624 90.70521Q20.55 90.98646 20.378124 91.26771L24.596874 91.26771ZM26.05 88.04896Q26.05 86.51771 26.3625 85.59583Q26.675 84.65833 27.284374 84.15833Q27.909374 83.65833 28.846874 83.65833Q29.534374 83.65833 30.05 83.93958Q30.58125 84.22083 30.925 84.75208Q31.26875 85.26771 31.45625 86.01771Q31.64375 86.76771 31.64375 88.04896Q31.64375 89.56458 31.33125 90.48646Q31.034374 91.40833 30.409374 91.92396Q29.8 92.42396 28.846874 92.42396Q27.6125 92.42396 26.89375 91.53333Q26.05 90.47083 26.05 88.04896ZM27.128124 88.04896Q27.128124 90.15833 27.628124 90.86146Q28.128124 91.56458 28.846874 91.56458Q29.58125 91.56458 30.065624 90.86146Q30.565624 90.15833 30.565624 88.04896Q30.565624 85.92396 30.065624 85.23646Q29.58125 84.53333 28.83125 84.53333Q28.1125 84.53333 27.675 85.14271Q27.128124 85.92396 27.128124 88.04896ZM33.05 88.04896Q33.05 86.51771 33.3625 85.59583Q33.675 84.65833 34.284374 84.15833Q34.909374 83.65833 35.846874 83.65833Q36.534374 83.65833 37.05 83.93958Q37.58125 84.22083 37.925 84.75208Q38.26875 85.26771 38.45625 86.01771Q38.64375 86.76771 38.64375 88.04896Q38.64375 89.56458 38.33125 90.48646Q38.034374 91.40833 37.409374 91.92396Q36.8 92.42396 35.846874 92.42396Q34.6125 92.42396 33.89375 91.53333Q33.05 90.47083 33.05 88.04896ZM34.128124 88.04896Q34.128124 90.15833 34.628124 90.86146Q35.128124 91.56458 35.846874 91.56458Q36.58125 91.56458 37.065624 90.86146Q37.565624 90.15833 37.565624 88.04896Q37.565624 85.92396 37.065624 85.23646Q36.58125 84.53333 35.83125 84.53333Q35.1125 84.53333 34.675 85.14271Q34.128124 85.92396 34.128124 88.04896ZM40.05 88.04896Q40.05 86.51771 40.3625 85.59583Q40.675 84.65833 41.284374 84.15833Q41.909374 83.65833 42.846874 83.65833Q43.534374 83.65833 44.05 83.93958Q44.58125 84.22083 44.925 84.75208Q45.26875 85.26771 45.45625 86.01771Q45.64375 86.76771 45.64375 88.04896Q45.64375 89.56458 45.33125 90.48646Q45.034374 91.40833 44.409374 91.92396Q43.8 92.42396 42.846874 92.42396Q41.6125 92.42396 40.89375 91.53333Q40.05 90.47083 40.05 88.04896ZM41.128124 88.04896Q41.128124 90.15833 41.628124 90.86146Q42.128124 91.56458 42.846874 91.56458Q43.58125 91.56458 44.065624 90.86146Q44.565624 90.15833 44.565624 88.04896Q44.565624 85.92396 44.065624 85.23646Q43.58125 84.53333 42.83125 84.53333Q42.1125 84.53333 41.675 85.14271Q41.128124 85.92396 41.128124 88.04896ZM47.05 88.04896Q47.05 86.51771 47.3625 85.59583Q47.675 84.65833 48.284374 84.15833Q48.909374 83.65833 49.846874 83.65833Q50.534374 83.65833 51.05 83.93958Q51.58125 84.22083 51.925 84.75208Q52.26875 85.26771 52.45625 86.01771Q52.64375 86.76771 52.64375 88.04896Q52.64375 89.56458 52.33125 90.48646Q52.034374 91.40833 51.409374 91.92396Q50.8 92.42396 49.846874 92.42396Q48.6125 92.42396 47.89375 91.53333Q47.05 90.47083 47.05 88.04896ZM48.128124 88.04896Q48.128124 90.15833 48.628124 90.86146Q49.128124 91.56458 49.846874 91.56458Q50.58125 91.56458 51.065624 90.86146Q51.565624 90.15833 51.565624 88.04896Q51.565624 85.92396 51.065624 85.23646Q50.58125 84.53333 49.83125 84.53333Q49.1125 84.53333 48.675 85.14271Q48.128124 85.92396 48.128124 88.04896Z" fill-rule="nonzero"/><path fill="#000000" d="M60.51875 317.45L59.471874 317.45L59.471874 310.73126Q59.08125 311.09064 58.45625 311.46564Q57.846874 311.825 57.3625 311.9969L57.3625 310.98126Q58.2375 310.5594 58.89375 309.98126Q59.565624 309.3875 59.846874 308.825L60.51875 308.825L60.51875 317.45Z" fill-rule="nonzero"/><path fill="#000000" d="M166.47687 316.4344L166.47687 317.45L160.78937 317.45Q160.78937 317.075 160.91437 316.71564Q161.13312 316.1375 161.60187 315.575Q162.08624 315.0125 162.9925 314.27814Q164.39874 313.1219 164.88312 312.45Q165.38312 311.77814 165.38312 311.1844Q165.38312 310.5594 164.93 310.1375Q164.47687 309.7 163.75812 309.7Q162.9925 309.7 162.53937 310.15314Q162.08624 310.60626 162.07062 311.41876L160.9925 311.3094Q161.10187 310.09064 161.82062 309.46564Q162.555 308.825 163.78937 308.825Q165.02374 308.825 165.7425 309.5125Q166.46124 310.2 166.46124 311.21564Q166.46124 311.73126 166.2425 312.23126Q166.03937 312.71564 165.53937 313.27814Q165.055 313.825 163.93 314.77814Q162.97687 315.575 162.69562 315.8719Q162.43 316.15314 162.25812 316.4344L166.47687 316.4344Z" fill-rule="nonzero"/><path fill="#000000" d="M265.31 315.1844L266.3725 315.04376Q266.54437 315.9344 266.98187 316.34064Q267.41937 316.73126 268.04437 316.73126Q268.79437 316.73126 269.31 316.21564Q269.82562 315.7 269.82562 314.9344Q269.82562 314.21564 269.34125 313.7469Q268.8725 313.2625 268.13812 313.2625Q267.84125 313.2625 267.38812 313.3875L267.51312 312.45Q267.6225 312.46564 267.685 312.46564Q268.35687 312.46564 268.88812 312.1219Q269.435 311.7625 269.435 311.02814Q269.435 310.45 269.04437 310.075Q268.65375 309.6844 268.02875 309.6844Q267.41937 309.6844 266.9975 310.075Q266.59125 310.46564 266.48187 311.23126L265.41937 311.04376Q265.60687 309.9969 266.29437 309.41876Q266.98187 308.825 267.9975 308.825Q268.70062 308.825 269.29437 309.1375Q269.88812 309.4344 270.20062 309.95Q270.51312 310.46564 270.51312 311.0594Q270.51312 311.60626 270.21625 312.075Q269.91937 312.52814 269.34125 312.79376Q270.09125 312.96564 270.51312 313.52814Q270.935 314.075 270.935 314.91876Q270.935 316.04376 270.10687 316.825Q269.29437 317.60626 268.04437 317.60626Q266.91937 317.60626 266.16937 316.9344Q265.41937 316.2469 265.31 315.1844Z" fill-rule="nonzero"/><path fill="#000000" d="M373.065 317.45L373.065 315.3875L369.34625 315.3875L369.34625 314.41876L373.26813 308.85626L374.1275 308.85626L374.1275 314.41876L375.28375 314.41876L375.28375 315.3875L374.1275 315.3875L374.1275 317.45L373.065 317.45ZM373.065 314.41876L373.065 310.5594L370.3775 314.41876L373.065 314.41876Z" fill-rule="nonzero"/><path fill="#000000" d="M474.07 315.2L475.17938 315.10626Q475.30438 315.91876 475.74188 316.325Q476.195 316.73126 476.83563 316.73126Q477.58563 316.73126 478.11688 316.15314Q478.64813 315.575 478.64813 314.6375Q478.64813 313.73126 478.1325 313.21564Q477.6325 312.6844 476.80438 312.6844Q476.30438 312.6844 475.8825 312.91876Q475.47626 313.15314 475.24188 313.5125L474.2575 313.3875L475.08563 308.98126L479.36688 308.98126L479.36688 309.98126L475.92938 309.98126L475.47626 312.29376Q476.24188 311.7469 477.08563 311.7469Q478.21063 311.7469 478.97626 312.52814Q479.7575 313.3094 479.7575 314.54376Q479.7575 315.7 479.08563 316.5594Q478.2575 317.59064 476.83563 317.59064Q475.66376 317.59064 474.91376 316.9344Q474.17938 316.27814 474.07 315.2Z" fill-rule="nonzero"/><path fill="#000000" d="M583.91876 310.96564L582.8719 311.04376Q582.73126 310.41876 582.48126 310.1375Q582.04376 309.6844 581.41876 309.6844Q580.91876 309.6844 580.52814 309.96564Q580.04376 310.34064 579.7469 311.04376Q579.46564 311.73126 579.45 313.0125Q579.825 312.4344 580.3719 312.15314Q580.9344 311.8719 581.54376 311.8719Q582.59064 311.8719 583.325 312.65314Q584.075 313.4344 584.075 314.65314Q584.075 315.46564 583.71564 316.16876Q583.3719 316.85626 582.7625 317.23126Q582.15314 317.59064 581.3875 317.59064Q580.0594 317.59064 579.23126 316.6219Q578.40314 315.65314 578.40314 313.4344Q578.40314 310.9344 579.325 309.8094Q580.1219 308.825 581.48126 308.825Q582.4969 308.825 583.1375 309.40314Q583.79376 309.96564 583.91876 310.96564ZM579.6219 314.66876Q579.6219 315.21564 579.84064 315.71564Q580.075 316.2 580.48126 316.46564Q580.90314 316.73126 581.3719 316.73126Q582.02814 316.73126 582.5125 316.2Q582.9969 315.65314 582.9969 314.73126Q582.9969 313.84064 582.5125 313.325Q582.04376 312.8094 581.325 312.8094Q580.60626 312.8094 580.10626 313.325Q579.6219 313.84064 579.6219 314.66876Z" fill-rule="nonzero"/><path stroke="#4285f4" stroke-width="4.0" stroke-linecap="butt" d="M196.5 61.916668L208.5 61.916668" fill-rule="nonzero"/><path fill="#1a1a1a" d="M223.5625 62.90104L224.6875 63.197914Q224.32812 64.58854 223.40625 65.322914Q222.48438 66.05729 221.14062 66.05729Q219.75 66.05729 218.875 65.49479Q218.0 64.93229 217.54688 63.86979Q217.09375 62.791664 217.09375 61.55729Q217.09375 60.21354 217.60938 59.21354Q218.125 58.21354 219.0625 57.697914Q220.01562 57.18229 221.15625 57.18229Q222.4375 57.18229 223.3125 57.83854Q224.20312 58.49479 224.54688 59.68229L223.42188 59.947914Q223.125 59.010414 222.54688 58.58854Q221.98438 58.15104 221.125 58.15104Q220.14062 58.15104 219.46875 58.635414Q218.8125 59.104164 218.53125 59.90104Q218.26562 60.697914 218.26562 61.55729Q218.26562 62.65104 218.57812 63.46354Q218.90625 64.27604 219.57812 64.68229Q220.25 65.08854 221.04688 65.08854Q222.0 65.08854 222.65625 64.541664Q223.32812 63.99479 223.5625 62.90104ZM225.90625 62.80729Q225.90625 61.072914 226.85938 60.24479Q227.65625 59.55729 228.8125 59.55729Q230.09375 59.55729 230.90625 60.40104Q231.73438 61.229164 231.73438 62.71354Q231.73438 63.916664 231.375 64.604164Q231.01562 65.291664 230.3125 65.68229Q229.625 66.05729 228.8125 66.05729Q227.51562 66.05729 226.70312 65.229164Q225.90625 64.385414 225.90625 62.80729ZM226.98438 62.80729Q226.98438 63.99479 227.5 64.58854Q228.03125 65.18229 228.8125 65.18229Q229.60938 65.18229 230.125 64.58854Q230.64062 63.99479 230.64062 62.77604Q230.64062 61.61979 230.10938 61.02604Q229.59375 60.43229 228.8125 60.43229Q228.03125 60.43229 227.5 61.02604Q226.98438 61.604164 226.98438 62.80729ZM233.29688 65.916664L233.29688 59.697914L234.23438 59.697914L234.23438 60.572914Q234.92188 59.55729 236.21875 59.55729Q236.78125 59.55729 237.25 59.760414Q237.73438 59.96354 237.96875 60.291664Q238.20312 60.61979 238.29688 61.05729Q238.34375 61.354164 238.34375 62.08854L238.34375 65.916664L237.29688 65.916664L237.29688 62.135414Q237.29688 61.479164 237.17188 61.166664Q237.04688 60.854164 236.73438 60.666664Q236.42188 60.46354 236.0 60.46354Q235.32812 60.46354 234.82812 60.90104Q234.34375 61.322914 234.34375 62.510414L234.34375 65.916664L233.29688 65.916664ZM242.59375 64.979164L242.75 65.90104Q242.29688 65.99479 241.95312 65.99479Q241.375 65.99479 241.0625 65.822914Q240.75 65.635414 240.60938 65.33854Q240.48438 65.041664 240.48438 64.08854L240.48438 60.510414L239.71875 60.510414L239.71875 59.697914L240.48438 59.697914L240.48438 58.15104L241.53125 57.52604L241.53125 59.697914L242.59375 59.697914L242.59375 60.510414L241.53125 60.510414L241.53125 64.15104Q241.53125 64.604164 241.57812 64.729164Q241.64062 64.854164 241.76562 64.93229Q241.89062 65.010414 242.125 65.010414Q242.3125 65.010414 242.59375 64.979164ZM243.29688 58.541664L243.29688 57.322914L244.35938 57.322914L244.35938 58.541664L243.29688 58.541664ZM243.29688 65.916664L243.29688 59.697914L244.35938 59.697914L244.35938 65.916664L243.29688 65.916664ZM246.29688 65.916664L246.29688 59.697914L247.23438 59.697914L247.23438 60.572914Q247.92188 59.55729 249.21875 59.55729Q249.78125 59.55729 250.25 59.760414Q250.73438 59.96354 250.96875 60.291664Q251.20312 60.61979 251.29688 61.05729Q251.34375 61.354164 251.34375 62.08854L251.34375 65.916664L250.29688 65.916664L250.29688 62.135414Q250.29688 61.479164 250.17188 61.166664Q250.04688 60.854164 249.73438 60.666664Q249.42188 60.46354 249.0 60.46354Q248.32812 60.46354 247.82812 60.90104Q247.34375 61.322914 247.34375 62.510414L247.34375 65.916664L246.29688 65.916664ZM257.375 65.916664L257.375 64.99479Q256.64062 66.05729 255.39062 66.05729Q254.84375 66.05729 254.35938 65.854164Q253.89062 65.635414 253.65625 65.322914Q253.42188 64.99479 253.32812 64.52604Q253.26562 64.229164 253.26562 63.541664L253.26562 59.697914L254.32812 59.697914L254.32812 63.15104Q254.32812 63.96354 254.39062 64.260414Q254.48438 64.666664 254.79688 64.916664Q255.125 65.15104 255.60938 65.15104Q256.07812 65.15104 256.48438 64.916664Q256.90625 64.666664 257.07812 64.24479Q257.26562 63.822914 257.26562 63.02604L257.26562 59.697914L258.3125 59.697914L258.3125 65.916664L257.375 65.916664ZM259.90625 62.80729Q259.90625 61.072914 260.85938 60.24479Q261.65625 59.55729 262.8125 59.55729Q264.09375 59.55729 264.90625 60.40104Q265.73438 61.229164 265.73438 62.71354Q265.73438 63.916664 265.375 64.604164Q265.01562 65.291664 264.3125 65.68229Q263.625 66.05729 262.8125 66.05729Q261.51562 66.05729 260.70312 65.229164Q259.90625 64.385414 259.90625 62.80729ZM260.98438 62.80729Q260.98438 63.99479 261.5 64.58854Q262.03125 65.18229 262.8125 65.18229Q263.60938 65.18229 264.125 64.58854Q264.64062 63.99479 264.64062 62.77604Q264.64062 61.61979 264.10938 61.02604Q263.59375 60.43229 262.8125 60.43229Q262.03125 60.43229 261.5 61.02604Q260.98438 61.604164 260.98438 62.80729ZM271.375 65.916664L271.375 64.99479Q270.64062 66.05729 269.39062 66.05729Q268.84375 66.05729 268.35938 65.854164Q267.89062 65.635414 267.65625 65.322914Q267.42188 64.99479 267.32812 64.52604Q267.26562 64.229164 267.26562 63.541664L267.26562 59.697914L268.32812 59.697914L268.32812 63.15104Q268.32812 63.96354 268.39062 64.260414Q268.48438 64.666664 268.79688 64.916664Q269.125 65.15104 269.60938 65.15104Q270.07812 65.15104 270.48438 64.916664Q270.90625 64.666664 271.07812 64.24479Q271.26562 63.822914 271.26562 63.02604L271.26562 59.697914L272.3125 59.697914L272.3125 65.916664L271.375 65.916664ZM273.875 64.05729L274.90625 63.90104Q275.0 64.52604 275.39062 64.854164Q275.79688 65.18229 276.53125 65.18229Q277.25 65.18229 277.59375 64.90104Q277.95312 64.604164 277.95312 64.197914Q277.95312 63.83854 277.64062 63.635414Q277.42188 63.49479 276.5625 63.27604Q275.40625 62.979164 274.95312 62.77604Q274.51562 62.55729 274.28125 62.18229Q274.04688 61.80729 274.04688 61.33854Q274.04688 60.93229 274.23438 60.572914Q274.42188 60.21354 274.75 59.979164Q275.0 59.80729 275.42188 59.68229Q275.84375 59.55729 276.34375 59.55729Q277.0625 59.55729 277.60938 59.77604Q278.17188 59.979164 278.4375 60.33854Q278.70312 60.697914 278.79688 61.291664L277.76562 61.43229Q277.70312 60.96354 277.35938 60.697914Q277.03125 60.416664 276.40625 60.416664Q275.6875 60.416664 275.375 60.666664Q275.0625 60.90104 275.0625 61.229164Q275.0625 61.43229 275.1875 61.58854Q275.32812 61.760414 275.59375 61.86979Q275.75 61.93229 276.53125 62.135414Q277.65625 62.447914 278.09375 62.635414Q278.53125 62.822914 278.78125 63.18229Q279.03125 63.541664 279.03125 64.08854Q279.03125 64.61979 278.71875 65.08854Q278.42188 65.541664 277.84375 65.80729Q277.26562 66.05729 276.53125 66.05729Q275.3125 66.05729 274.67188 65.55729Q274.04688 65.041664 273.875 64.05729ZM285.3125 68.447914Q284.4375 67.33854 283.82812 65.86979Q283.23438 64.385414 283.23438 62.80729Q283.23438 61.416664 283.67188 60.135414Q284.20312 58.65104 285.3125 57.18229L286.0625 57.18229Q285.35938 58.40104 285.125 58.916664Q284.76562 59.729164 284.5625 60.604164Q284.3125 61.697914 284.3125 62.80729Q284.3125 65.635414 286.0625 68.447914L285.3125 68.447914ZM286.875 64.05729L287.90625 63.90104Q288.0 64.52604 288.39062 64.854164Q288.79688 65.18229 289.53125 65.18229Q290.25 65.18229 290.59375 64.90104Q290.95312 64.604164 290.95312 64.197914Q290.95312 63.83854 290.64062 63.635414Q290.42188 63.49479 289.5625 63.27604Q288.40625 62.979164 287.95312 62.77604Q287.51562 62.55729 287.28125 62.18229Q287.04688 61.80729 287.04688 61.33854Q287.04688 60.93229 287.23438 60.572914Q287.42188 60.21354 287.75 59.979164Q288.0 59.80729 288.42188 59.68229Q288.84375 59.55729 289.34375 59.55729Q290.0625 59.55729 290.60938 59.77604Q291.17188 59.979164 291.4375 60.33854Q291.70312 60.697914 291.79688 61.291664L290.76562 61.43229Q290.70312 60.96354 290.35938 60.697914Q290.03125 60.416664 289.40625 60.416664Q288.6875 60.416664 288.375 60.666664Q288.0625 60.90104 288.0625 61.229164Q288.0625 61.43229 288.1875 61.58854Q288.32812 61.760414 288.59375 61.86979Q288.75 61.93229 289.53125 62.135414Q290.65625 62.447914 291.09375 62.635414Q291.53125 62.822914 291.78125 63.18229Q292.03125 63.541664 292.03125 64.08854Q292.03125 64.61979 291.71875 65.08854Q291.42188 65.541664 290.84375 65.80729Q290.26562 66.05729 289.53125 66.05729Q288.3125 66.05729 287.67188 65.55729Q287.04688 65.041664 286.875 64.05729ZM293.98438 68.447914L293.23438 68.447914Q294.98438 65.635414 294.98438 62.80729Q294.98438 61.71354 294.73438 60.61979Q294.53125 59.74479 294.17188 58.93229Q293.9375 58.416664 293.23438 57.18229L293.98438 57.18229Q295.07812 58.65104 295.60938 60.135414Q296.0625 61.416664 296.0625 62.80729Q296.0625 64.385414 295.45312 65.86979Q294.84375 67.33854 293.98438 68.447914Z" fill-rule="nonzero"/><path stroke="#ea4335" stroke-width="4.0" stroke-linecap="butt" d="M312.5 61.916668L324.5 61.916668" fill-rule="nonzero"/><path fill="#1a1a1a" d="M333.46875 65.916664L333.46875 57.322914L334.59375 57.322914L334.59375 60.854164L339.0625 60.854164L339.0625 57.322914L340.20312 57.322914L340.20312 65.916664L339.0625 65.916664L339.0625 61.86979L334.59375 61.86979L334.59375 65.916664L333.46875 65.916664ZM346.54688 63.916664L347.64062 64.041664Q347.39062 64.99479 346.6875 65.52604Q345.98438 66.05729 344.90625 66.05729Q343.54688 66.05729 342.73438 65.21354Q341.9375 64.36979 341.9375 62.854164Q341.9375 61.291664 342.75 60.43229Q343.5625 59.55729 344.84375 59.55729Q346.09375 59.55729 346.875 60.40104Q347.67188 61.24479 347.67188 62.791664Q347.67188 62.885414 347.67188 63.072914L343.03125 63.072914Q343.09375 64.104164 343.60938 64.65104Q344.125 65.18229 344.90625 65.18229Q345.48438 65.18229 345.89062 64.885414Q346.3125 64.572914 346.54688 63.916664ZM343.09375 62.21354L346.5625 62.21354Q346.5 61.416664 346.17188 61.02604Q345.65625 60.416664 344.85938 60.416664Q344.125 60.416664 343.625 60.90104Q343.14062 61.385414 343.09375 62.21354ZM353.35938 65.15104Q352.76562 65.65104 352.21875 65.854164Q351.6875 66.05729 351.0625 66.05729Q350.03125 66.05729 349.48438 65.55729Q348.9375 65.05729 348.9375 64.27604Q348.9375 63.822914 349.14062 63.447914Q349.34375 63.05729 349.6875 62.83854Q350.03125 62.604164 350.45312 62.49479Q350.75 62.40104 351.39062 62.322914Q352.65625 62.18229 353.26562 61.96354Q353.26562 61.74479 353.26562 61.697914Q353.26562 61.041664 352.96875 60.77604Q352.5625 60.43229 351.76562 60.43229Q351.03125 60.43229 350.67188 60.697914Q350.3125 60.947914 350.14062 61.604164L349.10938 61.46354Q349.25 60.80729 349.57812 60.40104Q349.90625 59.99479 350.51562 59.77604Q351.125 59.55729 351.92188 59.55729Q352.71875 59.55729 353.21875 59.74479Q353.71875 59.93229 353.95312 60.21354Q354.1875 60.49479 354.28125 60.93229Q354.32812 61.197914 354.32812 61.90104L354.32812 63.30729Q354.32812 64.77604 354.39062 65.166664Q354.46875 65.55729 354.67188 65.916664L353.5625 65.916664Q353.40625 65.58854 353.35938 65.15104ZM353.26562 62.791664Q352.6875 63.02604 351.54688 63.197914Q350.89062 63.291664 350.625 63.416664Q350.35938 63.52604 350.20312 63.74479Q350.0625 63.96354 350.0625 64.24479Q350.0625 64.666664 350.375 64.947914Q350.70312 65.229164 351.3125 65.229164Q351.92188 65.229164 352.39062 64.96354Q352.875 64.697914 353.09375 64.229164Q353.26562 63.86979 353.26562 63.18229L353.26562 62.791664ZM356.28125 65.916664L356.28125 59.697914L357.23438 59.697914L357.23438 60.635414Q357.59375 59.979164 357.89062 59.77604Q358.20312 59.55729 358.57812 59.55729Q359.10938 59.55729 359.65625 59.885414L359.29688 60.86979Q358.90625 60.635414 358.53125 60.635414Q358.17188 60.635414 357.89062 60.854164Q357.625 61.05729 357.51562 61.43229Q357.32812 61.99479 357.32812 62.65104L357.32812 65.916664L356.28125 65.916664ZM362.59375 64.979164L362.75 65.90104Q362.29688 65.99479 361.95312 65.99479Q361.375 65.99479 361.0625 65.822914Q360.75 65.635414 360.60938 65.33854Q360.48438 65.041664 360.48438 64.08854L360.48438 60.510414L359.71875 60.510414L359.71875 59.697914L360.48438 59.697914L360.48438 58.15104L361.53125 57.52604L361.53125 59.697914L362.59375 59.697914L362.59375 60.510414L361.53125 60.510414L361.53125 64.15104Q361.53125 64.604164 361.57812 64.729164Q361.64062 64.854164 361.76562 64.93229Q361.89062 65.010414 362.125 65.010414Q362.3125 65.010414 362.59375 64.979164ZM364.26562 65.916664L363.28125 65.916664L363.28125 57.322914L364.34375 57.322914L364.34375 60.385414Q365.01562 59.55729 366.04688 59.55729Q366.625 59.55729 367.125 59.791664Q367.64062 60.010414 367.96875 60.43229Q368.3125 60.854164 368.5 61.447914Q368.6875 62.041664 368.6875 62.71354Q368.6875 64.30729 367.89062 65.18229Q367.09375 66.05729 366.0 66.05729Q364.89062 66.05729 364.26562 65.135414L364.26562 65.916664ZM364.25 62.760414Q364.25 63.86979 364.5625 64.36979Q365.0625 65.18229 365.90625 65.18229Q366.59375 65.18229 367.09375 64.58854Q367.60938 63.99479 367.60938 62.791664Q367.60938 61.572914 367.125 60.99479Q366.64062 60.416664 365.95312 60.416664Q365.26562 60.416664 364.75 61.02604Q364.25 61.61979 364.25 62.760414ZM374.54688 63.916664L375.64062 64.041664Q375.39062 64.99479 374.6875 65.52604Q373.98438 66.05729 372.90625 66.05729Q371.54688 66.05729 370.73438 65.21354Q369.9375 64.36979 369.9375 62.854164Q369.9375 61.291664 370.75 60.43229Q371.5625 59.55729 372.84375 59.55729Q374.09375 59.55729 374.875 60.40104Q375.67188 61.24479 375.67188 62.791664Q375.67188 62.885414 375.67188 63.072914L371.03125 63.072914Q371.09375 64.104164 371.60938 64.65104Q372.125 65.18229 372.90625 65.18229Q373.48438 65.18229 373.89062 64.885414Q374.3125 64.572914 374.54688 63.916664ZM371.09375 62.21354L374.5625 62.21354Q374.5 61.416664 374.17188 61.02604Q373.65625 60.416664 372.85938 60.416664Q372.125 60.416664 371.625 60.90104Q371.14062 61.385414 371.09375 62.21354ZM381.35938 65.15104Q380.76562 65.65104 380.21875 65.854164Q379.6875 66.05729 379.0625 66.05729Q378.03125 66.05729 377.48438 65.55729Q376.9375 65.05729 376.9375 64.27604Q376.9375 63.822914 377.14062 63.447914Q377.34375 63.05729 377.6875 62.83854Q378.03125 62.604164 378.45312 62.49479Q378.75 62.40104 379.39062 62.322914Q380.65625 62.18229 381.26562 61.96354Q381.26562 61.74479 381.26562 61.697914Q381.26562 61.041664 380.96875 60.77604Q380.5625 60.43229 379.76562 60.43229Q379.03125 60.43229 378.67188 60.697914Q378.3125 60.947914 378.14062 61.604164L377.10938 61.46354Q377.25 60.80729 377.57812 60.40104Q377.90625 59.99479 378.51562 59.77604Q379.125 59.55729 379.92188 59.55729Q380.71875 59.55729 381.21875 59.74479Q381.71875 59.93229 381.95312 60.21354Q382.1875 60.49479 382.28125 60.93229Q382.32812 61.197914 382.32812 61.90104L382.32812 63.30729Q382.32812 64.77604 382.39062 65.166664Q382.46875 65.55729 382.67188 65.916664L381.5625 65.916664Q381.40625 65.58854 381.35938 65.15104ZM381.26562 62.791664Q380.6875 63.02604 379.54688 63.197914Q378.89062 63.291664 378.625 63.416664Q378.35938 63.52604 378.20312 63.74479Q378.0625 63.96354 378.0625 64.24479Q378.0625 64.666664 378.375 64.947914Q378.70312 65.229164 379.3125 65.229164Q379.92188 65.229164 380.39062 64.96354Q380.875 64.697914 381.09375 64.229164Q381.26562 63.86979 381.26562 63.18229L381.26562 62.791664ZM386.59375 64.979164L386.75 65.90104Q386.29688 65.99479 385.95312 65.99479Q385.375 65.99479 385.0625 65.822914Q384.75 65.635414 384.60938 65.33854Q384.48438 65.041664 384.48438 64.08854L384.48438 60.510414L383.71875 60.510414L383.71875 59.697914L384.48438 59.697914L384.48438 58.15104L385.53125 57.52604L385.53125 59.697914L386.59375 59.697914L386.59375 60.510414L385.53125 60.510414L385.53125 64.15104Q385.53125 64.604164 385.57812 64.729164Q385.64062 64.854164 385.76562 64.93229Q385.89062 65.010414 386.125 65.010414Q386.3125 65.010414 386.59375 64.979164ZM392.3125 68.447914Q391.4375 67.33854 390.82812 65.86979Q390.23438 64.385414 390.23438 62.80729Q390.23438 61.416664 390.67188 60.135414Q391.20312 58.65104 392.3125 57.18229L393.0625 57.18229Q392.35938 58.40104 392.125 58.916664Q391.76562 59.729164 391.5625 60.604164Q391.3125 61.697914 391.3125 62.80729Q391.3125 65.635414 393.0625 68.447914L392.3125 68.447914ZM393.875 64.05729L394.90625 63.90104Q395.0 64.52604 395.39062 64.854164Q395.79688 65.18229 396.53125 65.18229Q397.25 65.18229 397.59375 64.90104Q397.95312 64.604164 397.95312 64.197914Q397.95312 63.83854 397.64062 63.635414Q397.42188 63.49479 396.5625 63.27604Q395.40625 62.979164 394.95312 62.77604Q394.51562 62.55729 394.28125 62.18229Q394.04688 61.80729 394.04688 61.33854Q394.04688 60.93229 394.23438 60.572914Q394.42188 60.21354 394.75 59.979164Q395.0 59.80729 395.42188 59.68229Q395.84375 59.55729 396.34375 59.55729Q397.0625 59.55729 397.60938 59.77604Q398.17188 59.979164 398.4375 60.33854Q398.70312 60.697914 398.79688 61.291664L397.76562 61.43229Q397.70312 60.96354 397.35938 60.697914Q397.03125 60.416664 396.40625 60.416664Q395.6875 60.416664 395.375 60.666664Q395.0625 60.90104 395.0625 61.229164Q395.0625 61.43229 395.1875 61.58854Q395.32812 61.760414 395.59375 61.86979Q395.75 61.93229 396.53125 62.135414Q397.65625 62.447914 398.09375 62.635414Q398.53125 62.822914 398.78125 63.18229Q399.03125 63.541664 399.03125 64.08854Q399.03125 64.61979 398.71875 65.08854Q398.42188 65.541664 397.84375 65.80729Q397.26562 66.05729 396.53125 66.05729Q395.3125 66.05729 394.67188 65.55729Q394.04688 65.041664 393.875 64.05729ZM400.98438 68.447914L400.23438 68.447914Q401.98438 65.635414 401.98438 62.80729Q401.98438 61.71354 401.73438 60.61979Q401.53125 59.74479 401.17188 58.93229Q400.9375 58.416664 400.23438 57.18229L400.98438 57.18229Q402.07812 58.65104 402.60938 60.135414Q403.0625 61.416664 403.0625 62.80729Q403.0625 64.385414 402.45312 65.86979Q401.84375 67.33854 400.98438 68.447914Z" fill-rule="nonzero"/><path fill="#757575" d="M22.596874 37.55L18.8 23.2375L20.7375 23.2375L22.909374 32.6125Q23.26875 34.096874 23.51875 35.55Q24.065624 33.253124 24.159374 32.89375L26.89375 23.2375L29.175 23.2375L31.221874 30.471874Q32.003124 33.175 32.346874 35.55Q32.6125 34.190624 33.05 32.425L35.3 23.2375L37.20625 23.2375L33.284374 37.55L31.45625 37.55L28.440624 26.64375Q28.05 25.26875 27.9875 24.95625Q27.753124 25.940624 27.565624 26.64375L24.534374 37.55L22.596874 37.55ZM38.878124 25.253124L38.878124 23.2375L40.64375 23.2375L40.64375 25.253124L38.878124 25.253124ZM38.878124 37.55L38.878124 27.175L40.64375 27.175L40.64375 37.55L38.878124 37.55ZM43.284374 37.55L43.284374 28.55L41.7375 28.55L41.7375 27.175L43.284374 27.175L43.284374 26.08125Q43.284374 25.034374 43.471874 24.51875Q43.721874 23.83125 44.3625 23.409374Q45.003124 22.9875 46.159374 22.9875Q46.909374 22.9875 47.8 23.159374L47.534374 24.690624Q46.9875 24.596874 46.503124 24.596874Q45.70625 24.596874 45.3625 24.940624Q45.034374 25.284374 45.034374 26.221874L45.034374 27.175L47.065624 27.175L47.065624 28.55L45.034374 28.55L45.034374 37.55L43.284374 37.55ZM48.878124 25.253124L48.878124 23.2375L50.64375 23.2375L50.64375 25.253124L48.878124 25.253124ZM48.878124 37.55L48.878124 27.175L50.64375 27.175L50.64375 37.55L48.878124 37.55ZM52.190624 33.253124L52.190624 31.4875L57.58125 31.4875L57.58125 33.253124L52.190624 33.253124ZM70.31563 32.534374L72.20625 33.003124Q71.6125 35.346874 70.06563 36.58125Q68.51875 37.8 66.26875 37.8Q63.95625 37.8 62.503124 36.8625Q61.065624 35.909374 60.3 34.128124Q59.55 32.33125 59.55 30.284374Q59.55 28.05 60.39375 26.39375Q61.253124 24.721874 62.83125 23.8625Q64.40938 22.9875 66.3 22.9875Q68.45625 22.9875 69.90938 24.08125Q71.37813 25.175 71.95625 27.159374L70.09688 27.596874Q69.59688 26.034374 68.64375 25.33125Q67.70625 24.6125 66.26875 24.6125Q64.6125 24.6125 63.503124 25.409374Q62.39375 26.190624 61.940624 27.534374Q61.503124 28.8625 61.503124 30.26875Q61.503124 32.096874 62.034374 33.471874Q62.565624 34.83125 63.690624 35.503124Q64.81563 36.175 66.1125 36.175Q67.70625 36.175 68.81563 35.253124Q69.925 34.33125 70.31563 32.534374ZM73.22188 32.3625Q73.22188 29.4875 74.81563 28.096874Q76.15938 26.940624 78.08125 26.940624Q80.22188 26.940624 81.56563 28.346874Q82.925 29.753124 82.925 32.221874Q82.925 34.221874 82.33125 35.378124Q81.7375 36.51875 80.58125 37.159374Q79.44063 37.784374 78.08125 37.784374Q75.89375 37.784374 74.55 36.39375Q73.22188 34.9875 73.22188 32.3625ZM75.01875 32.3625Q75.01875 34.3625 75.87813 35.346874Q76.75313 36.33125 78.08125 36.33125Q79.39375 36.33125 80.25313 35.346874Q81.12813 34.346874 81.12813 32.3Q81.12813 30.378124 80.25313 29.39375Q79.37813 28.39375 78.08125 28.39375Q76.75313 28.39375 75.87813 29.39375Q75.01875 30.378124 75.01875 32.3625ZM84.8625 37.55L84.8625 27.175L86.45625 27.175L86.45625 28.659374Q87.59688 26.940624 89.75313 26.940624Q90.69063 26.940624 91.47188 27.284374Q92.26875 27.6125 92.65938 28.159374Q93.05 28.70625 93.20625 29.45625Q93.3 29.95625 93.3 31.175L93.3 37.55L91.53438 37.55L91.53438 31.2375Q91.53438 30.159374 91.33125 29.628124Q91.12813 29.096874 90.59688 28.784374Q90.08125 28.471874 89.37813 28.471874Q88.25313 28.471874 87.44063 29.190624Q86.62813 29.89375 86.62813 31.878124L86.62813 37.55L84.8625 37.55ZM95.8625 37.55L95.8625 27.175L97.45625 27.175L97.45625 28.659374Q98.59688 26.940624 100.75313 26.940624Q101.69063 26.940624 102.47188 27.284374Q103.26875 27.6125 103.65938 28.159374Q104.05 28.70625 104.20625 29.45625Q104.3 29.95625 104.3 31.175L104.3 37.55L102.53438 37.55L102.53438 31.2375Q102.53438 30.159374 102.33125 29.628124Q102.12813 29.096874 101.59688 28.784374Q101.08125 28.471874 100.37813 28.471874Q99.25313 28.471874 98.44063 29.190624Q97.62813 29.89375 97.62813 31.878124L97.62813 37.55L95.8625 37.55ZM113.97188 34.20625L115.78438 34.440624Q115.3625 36.01875 114.19063 36.909374Q113.03438 37.784374 111.22188 37.784374Q108.95625 37.784374 107.6125 36.39375Q106.28438 34.9875 106.28438 32.45625Q106.28438 29.83125 107.62813 28.39375Q108.97188 26.940624 111.12813 26.940624Q113.20625 26.940624 114.51875 28.3625Q115.84688 29.76875 115.84688 32.346874Q115.84688 32.503124 115.83125 32.815624L108.09688 32.815624Q108.19063 34.51875 109.06563 35.425Q109.94063 36.33125 111.2375 36.33125Q112.20625 36.33125 112.87813 35.83125Q113.56563 35.315624 113.97188 34.20625ZM108.19063 31.3625L113.9875 31.3625Q113.87813 30.065624 113.33125 29.409374Q112.4875 28.39375 111.14375 28.39375Q109.94063 28.39375 109.1125 29.20625Q108.28438 30.003124 108.19063 31.3625ZM124.64375 33.753124L126.3625 33.971874Q126.08125 35.76875 124.90938 36.784374Q123.75313 37.784374 122.05 37.784374Q119.925 37.784374 118.62813 36.39375Q117.33125 35.003124 117.33125 32.409374Q117.33125 30.721874 117.87813 29.471874Q118.44063 28.20625 119.58125 27.58125Q120.72188 26.940624 122.06563 26.940624Q123.75313 26.940624 124.81563 27.8Q125.89375 28.659374 126.20625 30.221874L124.4875 30.4875Q124.25313 29.440624 123.62813 28.925Q123.00313 28.39375 122.12813 28.39375Q120.8 28.39375 119.97188 29.346874Q119.14375 30.3 119.14375 32.346874Q119.14375 34.440624 119.94063 35.39375Q120.7375 36.33125 122.03438 36.33125Q123.06563 36.33125 123.75313 35.70625Q124.45625 35.065624 124.64375 33.753124ZM131.70625 35.971874L131.95625 37.534374Q131.22188 37.690624 130.62813 37.690624Q129.675 37.690624 129.14375 37.39375Q128.62813 37.08125 128.40938 36.596874Q128.19063 36.096874 128.19063 34.51875L128.19063 28.55L126.90938 28.55L126.90938 27.175L128.19063 27.175L128.19063 24.6125L129.94063 23.55L129.94063 27.175L131.70625 27.175L131.70625 28.55L129.94063 28.55L129.94063 34.6125Q129.94063 35.3625 130.03438 35.58125Q130.12813 35.784374 130.33125 35.925Q130.55 36.05 130.94063 36.05Q131.22188 36.05 131.70625 35.971874ZM140.97188 34.20625L142.78438 34.440624Q142.3625 36.01875 141.19063 36.909374Q140.03438 37.784374 138.22188 37.784374Q135.95625 37.784374 134.6125 36.39375Q133.28438 34.9875 133.28438 32.45625Q133.28438 29.83125 134.62813 28.39375Q135.97188 26.940624 138.12813 26.940624Q140.20625 26.940624 141.51875 28.3625Q142.84688 29.76875 142.84688 32.346874Q142.84688 32.503124 142.83125 32.815624L135.09688 32.815624Q135.19063 34.51875 136.06563 35.425Q136.94063 36.33125 138.2375 36.33125Q139.20625 36.33125 139.87813 35.83125Q140.56563 35.315624 140.97188 34.20625ZM135.19063 31.3625L140.9875 31.3625Q140.87813 30.065624 140.33125 29.409374Q139.4875 28.39375 138.14375 28.39375Q136.94063 28.39375 136.1125 29.20625Q135.28438 30.003124 135.19063 31.3625ZM151.59688 37.55L151.59688 36.2375Q150.6125 37.784374 148.69063 37.784374Q147.45625 37.784374 146.40938 37.096874Q145.37813 36.409374 144.8 35.190624Q144.2375 33.971874 144.2375 32.378124Q144.2375 30.815624 144.75313 29.55Q145.26875 28.284374 146.3 27.6125Q147.34688 26.940624 148.6125 26.940624Q149.55 26.940624 150.28438 27.346874Q151.01875 27.7375 151.4875 28.3625L151.4875 23.2375L153.22188 23.2375L153.22188 37.55L151.59688 37.55ZM146.03438 32.378124Q146.03438 34.3625 146.87813 35.346874Q147.72188 36.33125 148.8625 36.33125Q150.01875 36.33125 150.81563 35.39375Q151.62813 34.45625 151.62813 32.51875Q151.62813 30.39375 150.8 29.39375Q149.9875 28.39375 148.78438 28.39375Q147.6125 28.39375 146.81563 29.3625Q146.03438 30.315624 146.03438 32.378124ZM156.3625 29.175L156.3625 27.175L158.3625 27.175L158.3625 29.175L156.3625 29.175ZM156.3625 37.55L156.3625 35.55L158.3625 35.55L158.3625 37.55L156.3625 37.55ZM178.31563 32.534374L180.20625 33.003124Q179.6125 35.346874 178.06563 36.58125Q176.51875 37.8 174.26875 37.8Q171.95625 37.8 170.50313 36.8625Q169.06563 35.909374 168.3 34.128124Q167.55 32.33125 167.55 30.284374Q167.55 28.05 168.39375 26.39375Q169.25313 24.721874 170.83125 23.8625Q172.40938 22.9875 174.3 22.9875Q176.45625 22.9875 177.90938 24.08125Q179.37813 25.175 179.95625 27.159374L178.09688 27.596874Q177.59688 26.034374 176.64375 25.33125Q175.70625 24.6125 174.26875 24.6125Q172.6125 24.6125 171.50313 25.409374Q170.39375 26.190624 169.94063 27.534374Q169.50313 28.8625 169.50313 30.26875Q169.50313 32.096874 170.03438 33.471874Q170.56563 34.83125 171.69063 35.503124Q172.81563 36.175 174.1125 36.175Q175.70625 36.175 176.81563 35.253124Q177.925 34.33125 178.31563 32.534374ZM181.22188 32.3625Q181.22188 29.4875 182.81563 28.096874Q184.15938 26.940624 186.08125 26.940624Q188.22188 26.940624 189.56563 28.346874Q190.925 29.753124 190.925 32.221874Q190.925 34.221874 190.33125 35.378124Q189.7375 36.51875 188.58125 37.159374Q187.44063 37.784374 186.08125 37.784374Q183.89375 37.784374 182.55 36.39375Q181.22188 34.9875 181.22188 32.3625ZM183.01875 32.3625Q183.01875 34.3625 183.87813 35.346874Q184.75313 36.33125 186.08125 36.33125Q187.39375 36.33125 188.25313 35.346874Q189.12813 34.346874 189.12813 32.3Q189.12813 30.378124 188.25313 29.39375Q187.37813 28.39375 186.08125 28.39375Q184.75313 28.39375 183.87813 29.39375Q183.01875 30.378124 183.01875 32.3625ZM192.8625 37.55L192.8625 27.175L194.45625 27.175L194.45625 28.659374Q195.59688 26.940624 197.75313 26.940624Q198.69063 26.940624 199.47188 27.284374Q200.26875 27.6125 200.65938 28.159374Q201.05 28.70625 201.20625 29.45625Q201.3 29.95625 201.3 31.175L201.3 37.55L199.53438 37.55L199.53438 31.2375Q199.53438 30.159374 199.33125 29.628124Q199.12813 29.096874 198.59688 28.784374Q198.08125 28.471874 197.37813 28.471874Q196.25313 28.471874 195.44063 29.190624Q194.62813 29.89375 194.62813 31.878124L194.62813 37.55L192.8625 37.55ZM207.70625 35.971874L207.95625 37.534374Q207.22188 37.690624 206.62813 37.690624Q205.675 37.690624 205.14375 37.39375Q204.62813 37.08125 204.40938 36.596874Q204.19063 36.096874 204.19063 34.51875L204.19063 28.55L202.90938 28.55L202.90938 27.175L204.19063 27.175L204.19063 24.6125L205.94063 23.55L205.94063 27.175L207.70625 27.175L207.70625 28.55L205.94063 28.55L205.94063 34.6125Q205.94063 35.3625 206.03438 35.58125Q206.12813 35.784374 206.33125 35.925Q206.55 36.05 206.94063 36.05Q207.22188 36.05 207.70625 35.971874ZM209.87813 25.253124L209.87813 23.2375L211.64375 23.2375L211.64375 25.253124L209.87813 25.253124ZM209.87813 37.55L209.87813 27.175L211.64375 27.175L211.64375 37.55L209.87813 37.55ZM213.8625 37.55L213.8625 27.175L215.45625 27.175L215.45625 28.659374Q216.59688 26.940624 218.75313 26.940624Q219.69063 26.940624 220.47188 27.284374Q221.26875 27.6125 221.65938 28.159374Q222.05 28.70625 222.20625 29.45625Q222.3 29.95625 222.3 31.175L222.3 37.55L220.53438 37.55L220.53438 31.2375Q220.53438 30.159374 220.33125 29.628124Q220.12813 29.096874 219.59688 28.784374Q219.08125 28.471874 218.37813 28.471874Q217.25313 28.471874 216.44063 29.190624Q215.62813 29.89375 215.62813 31.878124L215.62813 37.55L213.8625 37.55ZM231.65938 37.55L231.65938 36.01875Q230.45625 37.784374 228.37813 37.784374Q227.45625 37.784374 226.65938 37.440624Q225.8625 37.08125 225.47188 36.55Q225.09688 36.01875 224.94063 35.2375Q224.83125 34.721874 224.83125 33.596874L224.83125 27.175L226.58125 27.175L226.58125 32.925Q226.58125 34.3 226.69063 34.784374Q226.8625 35.471874 227.39375 35.878124Q227.94063 36.26875 228.72188 36.26875Q229.51875 36.26875 230.20625 35.8625Q230.90938 35.45625 231.19063 34.76875Q231.4875 34.065624 231.4875 32.7375L231.4875 27.175L233.2375 27.175L233.2375 37.55L231.65938 37.55ZM235.22188 32.3625Q235.22188 29.4875 236.81563 28.096874Q238.15938 26.940624 240.08125 26.940624Q242.22188 26.940624 243.56563 28.346874Q244.925 29.753124 244.925 32.221874Q244.925 34.221874 244.33125 35.378124Q243.7375 36.51875 242.58125 37.159374Q241.44063 37.784374 240.08125 37.784374Q237.89375 37.784374 236.55 36.39375Q235.22188 34.9875 235.22188 32.3625ZM237.01875 32.3625Q237.01875 34.3625 237.87813 35.346874Q238.75313 36.33125 240.08125 36.33125Q241.39375 36.33125 242.25313 35.346874Q243.12813 34.346874 243.12813 32.3Q243.12813 30.378124 242.25313 29.39375Q241.37813 28.39375 240.08125 28.39375Q238.75313 28.39375 237.87813 29.39375Q237.01875 30.378124 237.01875 32.3625ZM253.65938 37.55L253.65938 36.01875Q252.45625 37.784374 250.37813 37.784374Q249.45625 37.784374 248.65938 37.440624Q247.8625 37.08125 247.47188 36.55Q247.09688 36.01875 246.94063 35.2375Q246.83125 34.721874 246.83125 33.596874L246.83125 27.175L248.58125 27.175L248.58125 32.925Q248.58125 34.3 248.69063 34.784374Q248.8625 35.471874 249.39375 35.878124Q249.94063 36.26875 250.72188 36.26875Q251.51875 36.26875 252.20625 35.8625Q252.90938 35.45625 253.19063 34.76875Q253.4875 34.065624 253.4875 32.7375L253.4875 27.175L255.2375 27.175L255.2375 37.55L253.65938 37.55ZM257.15936 34.45625L258.90936 34.175Q259.05 35.221874 259.72186 35.784374Q260.39374 36.33125 261.59686 36.33125Q262.8 36.33125 263.3781 35.846874Q263.97186 35.346874 263.97186 34.690624Q263.97186 34.096874 263.45624 33.753124Q263.09686 33.51875 261.65936 33.159374Q259.72186 32.659374 258.97186 32.315624Q258.2375 31.95625 257.84686 31.33125Q257.45624 30.690624 257.45624 29.925Q257.45624 29.2375 257.76874 28.64375Q258.09686 28.05 258.64374 27.659374Q259.05 27.3625 259.7531 27.159374Q260.47186 26.940624 261.28436 26.940624Q262.5031 26.940624 263.425 27.3Q264.34686 27.64375 264.78436 28.253124Q265.22186 28.846874 265.39374 29.846874L263.675 30.08125Q263.55 29.284374 262.9875 28.846874Q262.425 28.39375 261.40936 28.39375Q260.1906 28.39375 259.675 28.8Q259.15936 29.190624 259.15936 29.721874Q259.15936 30.065624 259.3781 30.346874Q259.58124 30.628124 260.05 30.815624Q260.3156 30.909374 261.59686 31.253124Q263.47186 31.753124 264.20624 32.08125Q264.9406 32.39375 265.3625 33.003124Q265.78436 33.596874 265.78436 34.503124Q265.78436 35.378124 265.26874 36.159374Q264.7531 36.940624 263.78436 37.3625Q262.8156 37.784374 261.59686 37.784374Q259.58124 37.784374 258.51874 36.940624Q257.45624 36.096874 257.15936 34.45625ZM273.45624 32.95625L275.2375 32.8Q275.3625 33.8625 275.8156 34.55Q276.28436 35.2375 277.2531 35.675Q278.2375 36.096874 279.47186 36.096874Q280.55 36.096874 281.3781 35.784374Q282.20624 35.45625 282.6125 34.89375Q283.01874 34.33125 283.01874 33.659374Q283.01874 32.9875 282.6281 32.4875Q282.2375 31.9875 281.34686 31.64375Q280.76874 31.409374 278.78436 30.940624Q276.8156 30.471874 276.03436 30.05Q275.0031 29.51875 274.5031 28.721874Q274.0031 27.925 274.0031 26.940624Q274.0031 25.846874 274.6125 24.909374Q275.22186 23.971874 276.40936 23.4875Q277.59686 22.9875 279.03436 22.9875Q280.6281 22.9875 281.84686 23.503124Q283.0656 24.01875 283.70624 25.01875Q284.3625 26.003124 284.40936 27.26875L282.59686 27.409374Q282.45624 26.05 281.6125 25.3625Q280.76874 24.659374 279.1125 24.659374Q277.39374 24.659374 276.59686 25.3Q275.8156 25.925 275.8156 26.8Q275.8156 27.58125 276.3781 28.08125Q276.925 28.58125 279.2375 29.096874Q281.55 29.6125 282.40936 30.003124Q283.65936 30.58125 284.2531 31.471874Q284.84686 32.346874 284.84686 33.503124Q284.84686 34.64375 284.1906 35.659374Q283.53436 36.675 282.3 37.2375Q281.08124 37.8 279.55 37.8Q277.6125 37.8 276.3 37.2375Q274.9875 36.659374 274.2375 35.51875Q273.4875 34.378124 273.45624 32.95625ZM293.65936 37.55L293.65936 36.01875Q292.45624 37.784374 290.3781 37.784374Q289.45624 37.784374 288.65936 37.440624Q287.8625 37.08125 287.47186 36.55Q287.09686 36.01875 286.9406 35.2375Q286.83124 34.721874 286.83124 33.596874L286.83124 27.175L288.58124 27.175L288.58124 32.925Q288.58124 34.3 288.6906 34.784374Q288.8625 35.471874 289.39374 35.878124Q289.9406 36.26875 290.72186 36.26875Q291.51874 36.26875 292.20624 35.8625Q292.90936 35.45625 293.1906 34.76875Q293.4875 34.065624 293.4875 32.7375L293.4875 27.175L295.2375 27.175L295.2375 37.55L293.65936 37.55ZM297.8625 37.55L297.8625 27.175L299.4406 27.175L299.4406 28.628124Q299.925 27.878124 300.7375 27.409374Q301.55 26.940624 302.58124 26.940624Q303.7375 26.940624 304.47186 27.425Q305.20624 27.89375 305.51874 28.753124Q306.7531 26.940624 308.72186 26.940624Q310.26874 26.940624 311.09686 27.8Q311.925 28.659374 311.925 30.425L311.925 37.55L310.175 37.55L310.175 31.01875Q310.175 29.95625 310.0031 29.503124Q309.83124 29.034374 309.3781 28.753124Q308.9406 28.471874 308.33124 28.471874Q307.2375 28.471874 306.5031 29.20625Q305.78436 29.925 305.78436 31.51875L305.78436 37.55L304.03436 37.55L304.03436 30.815624Q304.03436 29.64375 303.59686 29.065624Q303.175 28.471874 302.1906 28.471874Q301.45624 28.471874 300.8156 28.8625Q300.1906 29.253124 299.90936 30.003124Q299.6281 30.753124 299.6281 32.175L299.6281 37.55L297.8625 37.55ZM323.7531 37.55L319.8 27.175L321.65936 27.175L323.89374 33.39375Q324.2531 34.39375 324.55 35.471874Q324.78436 34.659374 325.20624 33.503124L327.5031 27.175L329.3156 27.175L325.39374 37.55L323.7531 37.55ZM330.15936 34.45625L331.90936 34.175Q332.05 35.221874 332.72186 35.784374Q333.39374 36.33125 334.59686 36.33125Q335.8 36.33125 336.3781 35.846874Q336.97186 35.346874 336.97186 34.690624Q336.97186 34.096874 336.45624 33.753124Q336.09686 33.51875 334.65936 33.159374Q332.72186 32.659374 331.97186 32.315624Q331.2375 31.95625 330.84686 31.33125Q330.45624 30.690624 330.45624 29.925Q330.45624 29.2375 330.76874 28.64375Q331.09686 28.05 331.64374 27.659374Q332.05 27.3625 332.7531 27.159374Q333.47186 26.940624 334.28436 26.940624Q335.5031 26.940624 336.425 27.3Q337.34686 27.64375 337.78436 28.253124Q338.22186 28.846874 338.39374 29.846874L336.675 30.08125Q336.55 29.284374 335.9875 28.846874Q335.425 28.39375 334.40936 28.39375Q333.1906 28.39375 332.675 28.8Q332.15936 29.190624 332.15936 29.721874Q332.15936 30.065624 332.3781 30.346874Q332.58124 30.628124 333.05 30.815624Q333.3156 30.909374 334.59686 31.253124Q336.47186 31.753124 337.20624 32.08125Q337.9406 32.39375 338.3625 33.003124Q338.78436 33.596874 338.78436 34.503124Q338.78436 35.378124 338.26874 36.159374Q337.7531 36.940624 336.78436 37.3625Q335.8156 37.784374 334.59686 37.784374Q332.58124 37.784374 331.51874 36.940624Q330.45624 36.096874 330.15936 34.45625ZM347.15936 37.55L347.15936 23.2375L349.05 23.2375L349.05 29.1125L356.4875 29.1125L356.4875 23.2375L358.3781 23.2375L358.3781 37.55L356.4875 37.55L356.4875 30.8L349.05 30.8L349.05 37.55L347.15936 37.55ZM367.97186 34.20625L369.78436 34.440624Q369.3625 36.01875 368.1906 36.909374Q367.03436 37.784374 365.22186 37.784374Q362.95624 37.784374 361.6125 36.39375Q360.28436 34.9875 360.28436 32.45625Q360.28436 29.83125 361.6281 28.39375Q362.97186 26.940624 365.1281 26.940624Q367.20624 26.940624 368.51874 28.3625Q369.84686 29.76875 369.84686 32.346874Q369.84686 32.503124 369.83124 32.815624L362.09686 32.815624Q362.1906 34.51875 363.0656 35.425Q363.9406 36.33125 365.2375 36.33125Q366.20624 36.33125 366.8781 35.83125Q367.5656 35.315624 367.97186 34.20625ZM362.1906 31.3625L367.9875 31.3625Q367.8781 30.065624 367.33124 29.409374Q366.4875 28.39375 365.14374 28.39375Q363.9406 28.39375 363.1125 29.20625Q362.28436 30.003124 362.1906 31.3625ZM378.64374 36.26875Q377.65936 37.096874 376.7531 37.440624Q375.84686 37.784374 374.8156 37.784374Q373.1125 37.784374 372.1906 36.95625Q371.26874 36.1125 371.26874 34.815624Q371.26874 34.05 371.6125 33.425Q371.97186 32.8 372.53436 32.425Q373.09686 32.034374 373.8 31.83125Q374.3156 31.70625 375.3625 31.565624Q377.4875 31.315624 378.4875 30.971874Q378.5031 30.6125 378.5031 30.503124Q378.5031 29.440624 378.0031 28.9875Q377.33124 28.39375 376.0031 28.39375Q374.7531 28.39375 374.15936 28.83125Q373.58124 29.26875 373.3 30.378124L371.58124 30.14375Q371.8156 29.034374 372.34686 28.3625Q372.8781 27.675 373.89374 27.315624Q374.90936 26.940624 376.2531 26.940624Q377.58124 26.940624 378.40936 27.253124Q379.2375 27.565624 379.6281 28.05Q380.01874 28.51875 380.175 29.2375Q380.26874 29.690624 380.26874 30.8625L380.26874 33.20625Q380.26874 35.659374 380.3781 36.315624Q380.4875 36.95625 380.83124 37.55L378.9875 37.55Q378.72186 37.003124 378.64374 36.26875ZM378.4875 32.346874Q377.53436 32.7375 375.6125 33.003124Q374.53436 33.159374 374.08124 33.3625Q373.64374 33.55 373.39374 33.925Q373.14374 34.3 373.14374 34.76875Q373.14374 35.471874 373.675 35.940624Q374.20624 36.409374 375.2375 36.409374Q376.2531 36.409374 377.03436 35.971874Q377.83124 35.51875 378.20624 34.753124Q378.4875 34.14375 378.4875 32.9875L378.4875 32.346874ZM382.84686 37.55L382.84686 27.175L384.425 27.175L384.425 28.753124Q385.03436 27.64375 385.55 27.3Q386.0656 26.940624 386.675 26.940624Q387.5656 26.940624 388.4875 27.503124L387.8781 29.14375Q387.2375 28.753124 386.59686 28.753124Q386.01874 28.753124 385.55 29.1125Q385.09686 29.45625 384.89374 30.065624Q384.6125 31.003124 384.6125 32.1125L384.6125 37.55L382.84686 37.55ZM393.70624 35.971874L393.95624 37.534374Q393.22186 37.690624 392.6281 37.690624Q391.675 37.690624 391.14374 37.39375Q390.6281 37.08125 390.40936 36.596874Q390.1906 36.096874 390.1906 34.51875L390.1906 28.55L388.90936 28.55L388.90936 27.175L390.1906 27.175L390.1906 24.6125L391.9406 23.55L391.9406 27.175L393.70624 27.175L393.70624 28.55L391.9406 28.55L391.9406 34.6125Q391.9406 35.3625 392.03436 35.58125Q392.1281 35.784374 392.33124 35.925Q392.55 36.05 392.9406 36.05Q393.22186 36.05 393.70624 35.971874ZM397.4875 37.55L395.8625 37.55L395.8625 23.2375L397.6125 23.2375L397.6125 28.346874Q398.7375 26.940624 400.45624 26.940624Q401.40936 26.940624 402.26874 27.33125Q403.1281 27.721874 403.675 28.425Q404.22186 29.1125 404.53436 30.096874Q404.84686 31.08125 404.84686 32.20625Q404.84686 34.878124 403.53436 36.33125Q402.22186 37.784374 400.3781 37.784374Q398.53436 37.784374 397.4875 36.253124L397.4875 37.55ZM397.47186 32.284374Q397.47186 34.14375 397.97186 34.9875Q398.8156 36.33125 400.22186 36.33125Q401.3781 36.33125 402.20624 35.33125Q403.05 34.33125 403.05 32.346874Q403.05 30.315624 402.2375 29.3625Q401.4406 28.39375 400.3 28.39375Q399.14374 28.39375 398.3 29.39375Q397.47186 30.39375 397.47186 32.284374ZM413.97186 34.20625L415.78436 34.440624Q415.3625 36.01875 414.1906 36.909374Q413.03436 37.784374 411.22186 37.784374Q408.95624 37.784374 407.6125 36.39375Q406.28436 34.9875 406.28436 32.45625Q406.28436 29.83125 407.6281 28.39375Q408.97186 26.940624 411.1281 26.940624Q413.20624 26.940624 414.51874 28.3625Q415.84686 29.76875 415.84686 32.346874Q415.84686 32.503124 415.83124 32.815624L408.09686 32.815624Q408.1906 34.51875 409.0656 35.425Q409.9406 36.33125 411.2375 36.33125Q412.20624 36.33125 412.8781 35.83125Q413.5656 35.315624 413.97186 34.20625ZM408.1906 31.3625L413.9875 31.3625Q413.8781 30.065624 413.33124 29.409374Q412.4875 28.39375 411.14374 28.39375Q409.9406 28.39375 409.1125 29.20625Q408.28436 30.003124 408.1906 31.3625ZM424.64374 36.26875Q423.65936 37.096874 422.7531 37.440624Q421.84686 37.784374 420.8156 37.784374Q419.1125 37.784374 418.1906 36.95625Q417.26874 36.1125 417.26874 34.815624Q417.26874 34.05 417.6125 33.425Q417.97186 32.8 418.53436 32.425Q419.09686 32.034374 419.8 31.83125Q420.3156 31.70625 421.3625 31.565624Q423.4875 31.315624 424.4875 30.971874Q424.5031 30.6125 424.5031 30.503124Q424.5031 29.440624 424.0031 28.9875Q423.33124 28.39375 422.0031 28.39375Q420.7531 28.39375 420.15936 28.83125Q419.58124 29.26875 419.3 30.378124L417.58124 30.14375Q417.8156 29.034374 418.34686 28.3625Q418.8781 27.675 419.89374 27.315624Q420.90936 26.940624 422.2531 26.940624Q423.58124 26.940624 424.40936 27.253124Q425.2375 27.565624 425.6281 28.05Q426.01874 28.51875 426.175 29.2375Q426.26874 29.690624 426.26874 30.8625L426.26874 33.20625Q426.26874 35.659374 426.3781 36.315624Q426.4875 36.95625 426.83124 37.55L424.9875 37.55Q424.72186 37.003124 424.64374 36.26875ZM424.4875 32.346874Q423.53436 32.7375 421.6125 33.003124Q420.53436 33.159374 420.08124 33.3625Q419.64374 33.55 419.39374 33.925Q419.14374 34.3 419.14374 34.76875Q419.14374 35.471874 419.675 35.940624Q420.20624 36.409374 421.2375 36.409374Q422.2531 36.409374 423.03436 35.971874Q423.83124 35.51875 424.20624 34.753124Q424.4875 34.14375 424.4875 32.9875L424.4875 32.346874ZM432.70624 35.971874L432.95624 37.534374Q432.22186 37.690624 431.6281 37.690624Q430.675 37.690624 430.14374 37.39375Q429.6281 37.08125 429.40936 36.596874Q429.1906 36.096874 429.1906 34.51875L429.1906 28.55L427.90936 28.55L427.90936 27.175L429.1906 27.175L429.1906 24.6125L430.9406 23.55L430.9406 27.175L432.70624 27.175L432.70624 28.55L430.9406 28.55L430.9406 34.6125Q430.9406 35.3625 431.03436 35.58125Q431.1281 35.784374 431.33124 35.925Q431.55 36.05 431.9406 36.05Q432.22186 36.05 432.70624 35.971874Z" fill-rule="nonzero"/></svg>