<svg xmlns="http://www.w3.org/2000/svg" xmlns:xlink="http://www.w3.org/1999/xlink" xmlns:lucid="lucid" width="1346" height="3680"><g transform="translate(-60 -80.00000000000001)" lucid:page-tab-id="0_0"><path d="M576 320c24.3 0 44 26.86 44 60s-19.7 60-44 60H444c-24.3 0-44-26.86-44-60s19.7-60 44-60z" stroke="#000" stroke-opacity="0" fill="#ff8f80"/><use xlink:href="#a" transform="matrix(1,0,0,1,405,325) translate(44.125 47.8)"/><use xlink:href="#b" transform="matrix(1,0,0,1,405,325) translate(77.075 47.8)"/><use xlink:href="#c" transform="matrix(1,0,0,1,405,325) translate(138.025 47.8)"/><use xlink:href="#d" transform="matrix(1,0,0,1,405,325) translate(56.14999999999999 69.4)"/><path d="M502.98 711.83c3.88-2.1 10.16-2.1 14.04 0l95.96 52.34c3.88 2.1 3.88 5.55 0 7.66l-95.96 52.34c-3.88 2.1-10.16 2.1-14.04 0l-95.96-52.34c-3.88-2.1-3.88-5.55 0-7.66z" stroke="#fff" fill="#ffdf71"/><use xlink:href="#e" transform="matrix(1,0,0,1,405,713) translate(53.599999999999994 47.8)"/><use xlink:href="#f" transform="matrix(1,0,0,1,405,713) translate(92.5 47.8)"/><use xlink:href="#g" transform="matrix(1,0,0,1,405,713) translate(50.64999999999999 69.4)"/><path d="M898 708c24.3 0 44 26.86 44 60s-19.7 60-44 60H766c-24.3 0-44-26.86-44-60s19.7-60 44-60z" stroke="#fff" fill="#a3d977"/><use xlink:href="#h" transform="matrix(1,0,0,1,727,713) translate(3.5999999999999943 47.8)"/><use xlink:href="#i" transform="matrix(1,0,0,1,727,713) translate(40.55 47.8)"/><use xlink:href="#j" transform="matrix(1,0,0,1,727,713) translate(103.5 47.8)"/><use xlink:href="#k" transform="matrix(1,0,0,1,727,713) translate(177.4 47.8)"/><use xlink:href="#l" transform="matrix(1,0,0,1,727,713) translate(32.025000000000006 69.4)"/><use xlink:href="#m" transform="matrix(1,0,0,1,727,713) translate(86.025 69.4)"/><use xlink:href="#n" transform="matrix(1,0,0,1,727,713) translate(96.025 69.4)"/><use xlink:href="#o" transform="matrix(1,0,0,1,727,713) translate(116.97500000000001 69.4)"/><path d="M502.98 905.83c3.88-2.1 10.16-2.1 14.04 0l95.96 52.34c3.88 2.1 3.88 5.55 0 7.66l-95.96 52.34c-3.88 2.1-10.16 2.1-14.04 0l-95.96-52.34c-3.88-2.1-3.88-5.55 0-7.66z" stroke="#fff" fill="#ffdf71"/><use xlink:href="#p" transform="matrix(1,0,0,1,405,907.0000000000001) translate(34.67499999999998 47.8)"/><use xlink:href="#q" transform="matrix(1,0,0,1,405,907.0000000000001) translate(88.57499999999999 47.8)"/><use xlink:href="#r" transform="matrix(1,0,0,1,405,907.0000000000001) translate(40.599999999999994 69.4)"/><use xlink:href="#s" transform="matrix(1,0,0,1,405,907.0000000000001) translate(67.5 69.4)"/><use xlink:href="#t" transform="matrix(1,0,0,1,405,907.0000000000001) translate(92.5 69.4)"/><path d="M896 900c24.3 0 44 26.86 44 60s-19.7 60-44 60H764c-24.3 0-44-26.86-44-60s19.7-60 44-60z" stroke="#fff" fill="#a3d977"/><use xlink:href="#u" transform="matrix(1,0,0,1,725,905) translate(3.674999999999997 47.8)"/><use xlink:href="#v" transform="matrix(1,0,0,1,725,905) translate(68.525 47.8)"/><use xlink:href="#w" transform="matrix(1,0,0,1,725,905) translate(114.47500000000001 47.8)"/><use xlink:href="#x" transform="matrix(1,0,0,1,725,905) translate(192.375 47.8)"/><use xlink:href="#y" transform="matrix(1,0,0,1,725,905) translate(70.625 69.4)"/><path d="M510.5 887.4h-1v-11.6h1zm0-33.2h-1v-27.5h1z" fill="#666"/><path d="M510.5 826.72h-1v-.47l1-.1zM510 902.17l-4.64-14.26h9.28z" fill="#666"/><path d="M510 903.8l-5.32-16.4h10.64zm-3.95-15.4l3.95 12.16 3.95-12.15z" fill="#666"/><use xlink:href="#z" transform="matrix(1,0,0,1,495,854.2) translate(0.005000000000000782 14.4)"/><path d="M656.45 962.5h-39.6v-1h39.6zm46.67-2H679.4v-1h23.72z" fill="#666"/><path d="M616.86 962.5h-.57l.1-.3-.2-.7h.66zM717.88 960l-14.26 4.64v-9.28z" fill="#666"/><path d="M719.5 960l-16.38 5.32v-10.64zm-15.38 3.95l12.14-3.95-12.14-3.95z" fill="#666"/><use xlink:href="#A" transform="matrix(1,0,0,1,656.4482661717949,950.2) translate(0.005000000000000782 14.4)"/><path d="M400 523.5c0-4.42 3.58-8 8-8h204c4.42 0 8 3.58 8 8v104c0 4.42-3.58 8-8 8H408c-4.42 0-8-3.58-8-8z" stroke="#fff" fill="#99d2f2"/><use xlink:href="#B" transform="matrix(1,0,0,1,405,520.4999999999673) translate(33.025000000000006 58.6)"/><use xlink:href="#C" transform="matrix(1,0,0,1,405,520.4999999999673) translate(88.97500000000001 58.6)"/><path d="M510 440.5v58.12" stroke="#666" fill="none"/><path d="M510.5 440.5h-1v-.5h1z" fill="#666"/><path d="M510 513.38l-4.64-14.26h9.28z" stroke="#666" fill="#666"/><path d="M510 636.5v56.9" stroke="#666" fill="none"/><path d="M510.5 636.5h-1v-.5h1z" fill="#666"/><path d="M510 708.17l-4.64-14.26h9.28z" stroke="#666" fill="#666"/><path d="M400 522c0-4.42 3.58-8 8-8h204c4.42 0 8 3.58 8 8v104c0 4.42-3.58 8-8 8H408c-4.42 0-8-3.58-8-8z" stroke="#fff" fill="#99d2f2"/><use xlink:href="#B" transform="matrix(1,0,0,1,405,519) translate(33.025000000000006 58.6)"/><use xlink:href="#C" transform="matrix(1,0,0,1,405,519) translate(88.97500000000001 58.6)"/><path d="M400 1104c0-4.42 3.58-8 8-8h204c4.42 0 8 3.58 8 8v104c0 4.42-3.58 8-8 8H408c-4.42 0-8-3.58-8-8z" stroke="#fff" fill="#99d2f2"/><use xlink:href="#D" transform="matrix(1,0,0,1,405,1101) translate(4.199999999999989 47.8)"/><use xlink:href="#E" transform="matrix(1,0,0,1,405,1101) translate(57.14999999999999 47.8)"/><use xlink:href="#F" transform="matrix(1,0,0,1,405,1101) translate(90.1 47.8)"/><use xlink:href="#G" transform="matrix(1,0,0,1,405,1101) translate(132 47.8)"/><use xlink:href="#H" transform="matrix(1,0,0,1,405,1101) translate(168.9 47.8)"/><use xlink:href="#I" transform="matrix(1,0,0,1,405,1101) translate(71.05 69.4)"/><path d="M510.5 1079.12h-1v-10.47h1zm0-32.07h-1v-26.34h1z" fill="#666"/><path d="M510.5 1020.72h-1v-.47l1-.1zM510 1093.88l-4.64-14.26h9.28z" fill="#666"/><path d="M510 1095.5l-5.32-16.38h10.64zm-3.95-15.38l3.95 12.14 3.95-12.14z" fill="#666"/><use xlink:href="#z" transform="matrix(1,0,0,1,495,1047.0537950286423) translate(0.005000000000000782 14.4)"/><path d="M657.45 768.5h-40.6v-1h40.6zm47.67 0H680.4v-1h24.72z" fill="#666"/><path d="M616.86 768.5h-.57l.1-.3-.2-.7h.66zM719.88 768l-14.26 4.64v-9.28z" fill="#666"/><path d="M721.5 768l-16.38 5.32v-10.64zm-15.38 3.95l12.14-3.95-12.14-3.95z" fill="#666"/><use xlink:href="#A" transform="matrix(1,0,0,1,657.4482661717949,757.2) translate(0.005000000000000782 14.4)"/><path d="M503.98 3235.83c3.88-2.1 10.16-2.1 14.04 0l95.96 52.34c3.88 2.1 3.88 5.55 0 7.66l-95.96 52.34c-3.88 2.1-10.16 2.1-14.04 0l-95.96-52.34c-3.88-2.1-3.88-5.55 0-7.66z" stroke="#fff" fill="#ffdf71"/><use xlink:href="#J" transform="matrix(1,0,0,1,405.99999999999994,3237) translate(52.625 58.6)"/><use xlink:href="#K" transform="matrix(1,0,0,1,405.99999999999994,3237) translate(104.525 58.6)"/><path d="M825.63 1293.83c3.88-2.1 10.17-2.1 14.05 0l95.95 52.34c3.88 2.1 3.88 5.55 0 7.66l-95.95 52.34c-3.88 2.1-10.17 2.1-14.05 0l-95.95-52.34c-3.88-2.1-3.88-5.55 0-7.66z" stroke="#fff" fill="#ffdf71"/><use xlink:href="#L" transform="matrix(1,0,0,1,727.6531569064534,1295) translate(12.25 58.6)"/><use xlink:href="#M" transform="matrix(1,0,0,1,727.6531569064534,1295) translate(47.2 58.6)"/><use xlink:href="#N" transform="matrix(1,0,0,1,727.6531569064534,1295) translate(121.95 58.6)"/><path d="M1221.65 1290c24.3 0 44 26.86 44 60s-19.7 60-44 60h-132c-24.3 0-44-26.86-44-60s19.7-60 44-60z" stroke="#fff" fill="#a3d977"/><use xlink:href="#O" transform="matrix(1,0,0,1,1050.6531569064534,1295) translate(21.599999999999994 47.8)"/><use xlink:href="#P" transform="matrix(1,0,0,1,1050.6531569064534,1295) translate(87.45 47.8)"/><use xlink:href="#Q" transform="matrix(1,0,0,1,1050.6531569064534,1295) translate(138.4 47.8)"/><use xlink:href="#R" transform="matrix(1,0,0,1,1050.6531569064534,1295) translate(158.4 47.8)"/><use xlink:href="#S" transform="matrix(1,0,0,1,1050.6531569064534,1295) translate(73.575 69.4)"/><path d="M980.6 1350.5h-41.1v-1h41.1zm48.17 0h-25.22v-1h25.22z" fill="#666"/><path d="M939.5 1350.5h-.56l.13-.3-.22-.7h.66zM1043.53 1350l-14.26 4.64v-9.28z" fill="#666"/><path d="M1045.15 1350l-16.38 5.32v-10.64zm-15.38 3.95l12.15-3.95-12.15-3.95z" fill="#666"/><use xlink:href="#A" transform="matrix(1,0,0,1,980.6014230782483,1339.2) translate(0.005000000000000782 14.4)"/><path d="M898.65 1474c24.3 0 44 26.86 44 60s-19.7 60-44 60h-132c-24.3 0-44-26.86-44-60s19.7-60 44-60z" stroke="#fff" fill="#a3d977"/><use xlink:href="#T" transform="matrix(1,0,0,1,727.6531569064534,1479) translate(32.07499999999999 47.8)"/><use xlink:href="#U" transform="matrix(1,0,0,1,727.6531569064534,1479) translate(75.02499999999999 47.8)"/><use xlink:href="#V" transform="matrix(1,0,0,1,727.6531569064534,1479) translate(22.075000000000003 69.4)"/><use xlink:href="#W" transform="matrix(1,0,0,1,727.6531569064534,1479) translate(88.025 69.4)"/><use xlink:href="#X" transform="matrix(1,0,0,1,727.6531569064534,1479) translate(128.925 69.4)"/><use xlink:href="#Y" transform="matrix(1,0,0,1,727.6531569064534,1479) translate(158.925 69.4)"/><path d="M833.15 1457.12h-1v-5.47h1zm0-27.07h-1v-21.34h1z" fill="#666"/><path d="M833.15 1408.72h-1v-.47l1-.1zM832.65 1471.88l-4.63-14.26h9.27z" fill="#666"/><path d="M832.65 1473.5l-5.32-16.38h10.65zm-3.94-15.38l3.95 12.14 3.95-12.14z" fill="#666"/><use xlink:href="#z" transform="matrix(1,0,0,1,817.6531569064534,1430.0537950286423) translate(0.005000000000000782 14.4)"/><path d="M256 1290c24.3 0 44 26.86 44 60s-19.7 60-44 60H124c-24.3 0-44-26.86-44-60s19.7-60 44-60z" stroke="#fff" fill="#a3d977"/><use xlink:href="#B" transform="matrix(1,0,0,1,85,1295) translate(12.675000000000011 47.8)"/><use xlink:href="#Z" transform="matrix(1,0,0,1,85,1295) translate(68.62500000000001 47.8)"/><use xlink:href="#aa" transform="matrix(1,0,0,1,85,1295) translate(142.375 47.8)"/><use xlink:href="#ab" transform="matrix(1,0,0,1,85,1295) translate(19.125 69.4)"/><use xlink:href="#ac" transform="matrix(1,0,0,1,85,1295) translate(52.025 69.4)"/><use xlink:href="#ad" transform="matrix(1,0,0,1,85,1295) translate(87.025 69.4)"/><use xlink:href="#ae" transform="matrix(1,0,0,1,85,1295) translate(138.925 69.4)"/><path d="M400 3046c0-4.42 3.58-8 8-8h204c4.42 0 8 3.58 8 8v104c0 4.42-3.58 8-8 8H408c-4.42 0-8-3.58-8-8z" stroke="#fff" fill="#99d2f2"/><use xlink:href="#D" transform="matrix(1,0,0,1,405,3043) translate(25.14999999999999 47.8)"/><use xlink:href="#E" transform="matrix(1,0,0,1,405,3043) translate(78.1 47.8)"/><use xlink:href="#F" transform="matrix(1,0,0,1,405,3043) translate(111.05 47.8)"/><use xlink:href="#af" transform="matrix(1,0,0,1,405,3043) translate(152.95 47.8)"/><use xlink:href="#ag" transform="matrix(1,0,0,1,405,3043) translate(56.075 69.4)"/><path d="M510.5 3411.4h-1v-11.6h1zm1-33.2h-1v-27.5h1z" fill="#666"/><path d="M511.5 3350.72h-1v-.47l1-.1zM510 3426.17l-4.64-14.26h9.28z" fill="#666"/><path d="M510 3427.8l-5.32-16.4h10.64zm-3.95-15.4l3.95 12.16 3.95-12.15z" fill="#666"/><use xlink:href="#ah" transform="matrix(1,0,0,1,476.9,3378.2) translate(0.005000000000002558 14.4)"/><path d="M502.98 3429.83c3.88-2.1 10.16-2.1 14.04 0l95.96 52.34c3.88 2.1 3.88 5.55 0 7.66l-95.96 52.34c-3.88 2.1-10.16 2.1-14.04 0l-95.96-52.34c-3.88-2.1-3.88-5.55 0-7.66z" stroke="#fff" fill="#ffdf71"/><use xlink:href="#ai" transform="matrix(1,0,0,1,405,3431) translate(29.724999999999994 58.6)"/><use xlink:href="#aj" transform="matrix(1,0,0,1,405,3431) translate(112.425 58.6)"/><path d="M576 3620c24.3 0 44 26.86 44 60s-19.7 60-44 60H444c-24.3 0-44-26.86-44-60s19.7-60 44-60z" stroke="#fff" fill="#a3d977"/><use xlink:href="#h" transform="matrix(1,0,0,1,405,3625.000000000656) translate(2.1500000000000057 47.8)"/><use xlink:href="#ak" transform="matrix(1,0,0,1,405,3625.000000000656) translate(39.10000000000001 47.8)"/><use xlink:href="#al" transform="matrix(1,0,0,1,405,3625.000000000656) translate(110.00000000000001 47.8)"/><use xlink:href="#am" transform="matrix(1,0,0,1,405,3625.000000000656) translate(171.9 47.8)"/><use xlink:href="#an" transform="matrix(1,0,0,1,405,3625.000000000656) translate(91.025 69.4)"/><path d="M510.5 3603.12h-1v-10.47h1zm0-32.07h-1v-26.34h1z" fill="#666"/><path d="M510.5 3544.72h-1v-.47l1-.1zM510 3617.88l-4.64-14.26h9.28z" fill="#666"/><path d="M510 3619.5l-5.32-16.38h10.64zm-3.95-15.38l3.95 12.14 3.95-12.14z" fill="#666"/><use xlink:href="#z" transform="matrix(1,0,0,1,495,3571.05379502897) translate(0.005000000000000782 14.4)"/><path d="M502.98 1683.83c3.88-2.1 10.16-2.1 14.04 0l95.96 52.34c3.88 2.1 3.88 5.55 0 7.66l-95.96 52.34c-3.88 2.1-10.16 2.1-14.04 0l-95.96-52.34c-3.88-2.1-3.88-5.55 0-7.66z" stroke="#fff" fill="#ffdf71"/><use xlink:href="#ao" transform="matrix(1,0,0,1,405,1685) translate(1.2249999999999943 58.6)"/><use xlink:href="#ap" transform="matrix(1,0,0,1,405,1685) translate(86.075 58.6)"/><use xlink:href="#aq" transform="matrix(1,0,0,1,405,1685) translate(128.925 58.6)"/><path d="M896 1680c24.3 0 44 26.86 44 60s-19.7 60-44 60H764c-24.3 0-44-26.86-44-60s19.7-60 44-60z" stroke="#fff" fill="#a3d977"/><use xlink:href="#ar" transform="matrix(1,0,0,1,725,1685) translate(17.075000000000003 47.8)"/><use xlink:href="#as" transform="matrix(1,0,0,1,725,1685) translate(80.025 47.8)"/><use xlink:href="#at" transform="matrix(1,0,0,1,725,1685) translate(110.025 47.8)"/><use xlink:href="#x" transform="matrix(1,0,0,1,725,1685) translate(178.97500000000002 47.8)"/><use xlink:href="#y" transform="matrix(1,0,0,1,725,1685) translate(70.625 69.4)"/><path d="M656.45 1740.5h-39.6v-1h39.6zm46.67 0H679.4v-1h23.72z" fill="#666"/><path d="M616.86 1740.5h-.57l.1-.3-.2-.7h.66zM717.88 1740l-14.26 4.64v-9.28z" fill="#666"/><path d="M719.5 1740l-16.38 5.32v-10.64zm-15.38 3.95l12.14-3.95-12.14-3.95z" fill="#666"/><use xlink:href="#A" transform="matrix(1,0,0,1,656.4482661717949,1729.2) translate(0.005000000000000782 14.4)"/><path d="M400 1882c0-4.42 3.58-8 8-8h204c4.42 0 8 3.58 8 8v104c0 4.42-3.58 8-8 8H408c-4.42 0-8-3.58-8-8z" stroke="#fff" fill="#99d2f2"/><use xlink:href="#B" transform="matrix(1,0,0,1,405,1879) translate(11.625 47.8)"/><use xlink:href="#au" transform="matrix(1,0,0,1,405,1879) translate(67.575 47.8)"/><use xlink:href="#av" transform="matrix(1,0,0,1,405,1879) translate(95.525 47.8)"/><use xlink:href="#aw" transform="matrix(1,0,0,1,405,1879) translate(9.650000000000006 69.4)"/><use xlink:href="#ax" transform="matrix(1,0,0,1,405,1879) translate(38.60000000000001 69.4)"/><use xlink:href="#ay" transform="matrix(1,0,0,1,405,1879) translate(71.5 69.4)"/><use xlink:href="#az" transform="matrix(1,0,0,1,405,1879) translate(105.5 69.4)"/><use xlink:href="#ax" transform="matrix(1,0,0,1,405,1879) translate(115.5 69.4)"/><use xlink:href="#aA" transform="matrix(1,0,0,1,405,1879) translate(148.4 69.4)"/><path d="M510.5 1857.12h-1v-10.47h1zm0-32.07h-1v-26.34h1z" fill="#666"/><path d="M510.5 1798.72h-1v-.47l1-.1zM510 1871.88l-4.64-14.26h9.28z" fill="#666"/><path d="M510 1873.5l-5.32-16.38h10.64zm-3.95-15.38l3.95 12.14 3.95-12.14z" fill="#666"/><use xlink:href="#z" transform="matrix(1,0,0,1,495,1825.0537950286423) translate(0.005000000000000782 14.4)"/><path d="M502.98 2071.83c3.88-2.1 10.16-2.1 14.04 0l95.96 52.34c3.88 2.1 3.88 5.55 0 7.66l-95.96 52.34c-3.88 2.1-10.16 2.1-14.04 0l-95.96-52.34c-3.88-2.1-3.88-5.55 0-7.66z" stroke="#fff" fill="#ffdf71"/><use xlink:href="#ao" transform="matrix(1,0,0,1,405,2073) translate(14.249999999999986 58.6)"/><use xlink:href="#aB" transform="matrix(1,0,0,1,405,2073) translate(99.1 58.6)"/><use xlink:href="#aC" transform="matrix(1,0,0,1,405,2073) translate(131 58.6)"/><path d="M896 2070c24.3 0 44 26.86 44 60s-19.7 60-44 60H764c-24.3 0-44-26.86-44-60s19.7-60 44-60z" stroke="#fff" fill="#a3d977"/><use xlink:href="#ar" transform="matrix(1,0,0,1,725,2075) translate(3.575000000000003 47.8)"/><use xlink:href="#aD" transform="matrix(1,0,0,1,725,2075) translate(66.525 47.8)"/><use xlink:href="#n" transform="matrix(1,0,0,1,725,2075) translate(126.47500000000001 47.8)"/><use xlink:href="#aE" transform="matrix(1,0,0,1,725,2075) translate(147.425 47.8)"/><use xlink:href="#aw" transform="matrix(1,0,0,1,725,2075) translate(66.55 69.4)"/><use xlink:href="#aF" transform="matrix(1,0,0,1,725,2075) translate(95.5 69.4)"/><path d="M656.45 2130.5h-39.6v-1h39.6zm46.67 0H679.4v-1h23.72z" fill="#666"/><path d="M616.86 2130.5h-.5v-1h.5zM717.88 2130l-14.26 4.64v-9.28z" fill="#666"/><path d="M719.5 2130l-16.38 5.32v-10.64zm-15.38 3.95l12.14-3.95-12.14-3.95z" fill="#666"/><use xlink:href="#A" transform="matrix(1,0,0,1,656.4482661717949,2119.2) translate(0.005000000000000782 14.4)"/><path d="M510 1995v58.4" stroke="#666" fill="none"/><path d="M510.5 1995h-1v-.5h1z" fill="#666"/><path d="M510 2068.17l-4.64-14.26h9.28z" stroke="#666" fill="#666"/><path d="M400 2270c0-4.42 3.58-8 8-8h204c4.42 0 8 3.58 8 8v104c0 4.42-3.58 8-8 8H408c-4.42 0-8-3.58-8-8z" stroke="#fff" fill="#99d2f2"/><use xlink:href="#B" transform="matrix(1,0,0,1,405,2267) translate(20.599999999999994 47.8)"/><use xlink:href="#aG" transform="matrix(1,0,0,1,405,2267) translate(76.55 47.8)"/><use xlink:href="#aH" transform="matrix(1,0,0,1,405,2267) translate(123.5 47.8)"/><use xlink:href="#aI" transform="matrix(1,0,0,1,405,2267) translate(177.4 47.8)"/><use xlink:href="#aJ" transform="matrix(1,0,0,1,405,2267) translate(64.075 69.4)"/><use xlink:href="#aK" transform="matrix(1,0,0,1,405,2267) translate(109.025 69.4)"/><path d="M510.5 2245.12h-1v-10.47h1zm0-32.07h-1v-26.34h1z" fill="#666"/><path d="M510.5 2186.72h-1v-.47l1-.1zM510 2259.88l-4.64-14.26h9.28z" fill="#666"/><path d="M510 2261.5l-5.32-16.38h10.64zm-3.95-15.38l3.95 12.14 3.95-12.14z" fill="#666"/><g><use xlink:href="#z" transform="matrix(1,0,0,1,495,2213.053795028642) translate(0.005000000000000782 14.4)"/></g><path d="M502.98 2459.83c3.88-2.1 10.16-2.1 14.04 0l95.96 52.34c3.88 2.1 3.88 5.55 0 7.66l-95.96 52.34c-3.88 2.1-10.16 2.1-14.04 0l-95.96-52.34c-3.88-2.1-3.88-5.55 0-7.66z" stroke="#fff" fill="#ffdf71"/><g><use xlink:href="#aL" transform="matrix(1,0,0,1,405,2461) translate(7.199999999999989 47.8)"/><use xlink:href="#aM" transform="matrix(1,0,0,1,405,2461) translate(59.19999999999999 47.8)"/><use xlink:href="#aN" transform="matrix(1,0,0,1,405,2461) translate(138.05 47.8)"/><use xlink:href="#aO" transform="matrix(1,0,0,1,405,2461) translate(174.95000000000002 47.8)"/><use xlink:href="#aP" transform="matrix(1,0,0,1,405,2461) translate(67.1 69.4)"/><use xlink:href="#aQ" transform="matrix(1,0,0,1,405,2461) translate(89 69.4)"/></g><path d="M896 2457c24.3 0 44 26.86 44 60s-19.7 60-44 60H764c-24.3 0-44-26.86-44-60s19.7-60 44-60z" stroke="#fff" fill="#a3d977"/><g><use xlink:href="#aR" transform="matrix(1,0,0,1,725,2462) translate(32.57499999999999 37)"/><use xlink:href="#aS" transform="matrix(1,0,0,1,725,2462) translate(93.52499999999999 37)"/><use xlink:href="#aT" transform="matrix(1,0,0,1,725,2462) translate(147.425 37)"/><use xlink:href="#aU" transform="matrix(1,0,0,1,725,2462) translate(34.075 58.6)"/><use xlink:href="#aJ" transform="matrix(1,0,0,1,725,2462) translate(108.025 58.6)"/><use xlink:href="#aV" transform="matrix(1,0,0,1,725,2462) translate(152.97500000000002 58.6)"/><use xlink:href="#aW" transform="matrix(1,0,0,1,725,2462) translate(30.724999999999994 80.20000000000002)"/><use xlink:href="#n" transform="matrix(1,0,0,1,725,2462) translate(104.475 80.20000000000002)"/><use xlink:href="#aX" transform="matrix(1,0,0,1,725,2462) translate(125.425 80.20000000000002)"/></g><path d="M703.12 2516.5v1H679.4v-1zm-86.27 0v-1h39.6v1z" fill="#666"/><path d="M616.86 2516.5h-.57l.1-.3-.2-.7h.66zM717.88 2517l-14.26 4.64v-9.28z" fill="#666"/><path d="M719.5 2517l-16.38 5.32v-10.64zm-15.38 3.95l12.14-3.95-12.14-3.95z" fill="#666"/><g><use xlink:href="#A" transform="matrix(1,0,0,1,656.4482661717949,2505.7) translate(0.005000000000000782 14.4)"/></g><path d="M510 2383v58.4" stroke="#666" fill="none"/><path d="M510.5 2383h-1v-.5h1z" fill="#666"/><path d="M510 2456.17l-4.64-14.26h9.28z" stroke="#666" fill="#666"/><path d="M400 2658c0-4.42 3.58-8 8-8h204c4.42 0 8 3.58 8 8v104c0 4.42-3.58 8-8 8H408c-4.42 0-8-3.58-8-8z" stroke="#fff" fill="#99d2f2"/><g><use xlink:href="#aY" transform="matrix(1,0,0,1,405,2655) translate(13.425000000000011 58.6)"/><use xlink:href="#aZ" transform="matrix(1,0,0,1,405,2655) translate(51.72500000000001 58.6)"/><use xlink:href="#ba" transform="matrix(1,0,0,1,405,2655) translate(117.67500000000001 58.6)"/><use xlink:href="#az" transform="matrix(1,0,0,1,405,2655) translate(168.625 58.6)"/><use xlink:href="#bb" transform="matrix(1,0,0,1,405,2655) translate(178.625 58.6)"/></g><path d="M502.98 2847.83c3.88-2.1 10.16-2.1 14.04 0l95.96 52.34c3.88 2.1 3.88 5.55 0 7.66l-95.96 52.34c-3.88 2.1-10.16 2.1-14.04 0l-95.96-52.34c-3.88-2.1-3.88-5.55 0-7.66z" stroke="#fff" fill="#ffdf71"/><g><use xlink:href="#bc" transform="matrix(1,0,0,1,405,2849) translate(19.64999999999999 47.8)"/><use xlink:href="#bd" transform="matrix(1,0,0,1,405,2849) translate(72.54999999999998 47.8)"/><use xlink:href="#be" transform="matrix(1,0,0,1,405,2849) translate(150.35000000000002 47.8)"/><use xlink:href="#bf" transform="matrix(1,0,0,1,405,2849) translate(76.55 69.4)"/></g><path d="M896 2844c24.3 0 44 26.86 44 60s-19.7 60-44 60H764c-24.3 0-44-26.86-44-60s19.7-60 44-60z" stroke="#fff" fill="#a3d977"/><g><use xlink:href="#bg" transform="matrix(1,0,0,1,725,2849) translate(30.099999999999994 58.6)"/><use xlink:href="#P" transform="matrix(1,0,0,1,725,2849) translate(101 58.6)"/><use xlink:href="#az" transform="matrix(1,0,0,1,725,2849) translate(151.95 58.6)"/><use xlink:href="#bb" transform="matrix(1,0,0,1,725,2849) translate(161.95000000000002 58.6)"/></g><path d="M656.45 2904.5h-39.6v-1h39.6zm46.67 0H679.4v-1h23.72z" fill="#666"/><path d="M616.86 2904.5h-.57l.1-.3-.2-.7h.66zM717.88 2904l-14.26 4.64v-9.28z" fill="#666"/><path d="M719.5 2904l-16.38 5.32v-10.64zm-15.38 3.95l12.14-3.95-12.14-3.95z" fill="#666"/><g><use xlink:href="#A" transform="matrix(1,0,0,1,656.4482661717949,2893.2) translate(0.005000000000000782 14.4)"/></g><path d="M510 2771v58.4" stroke="#666" fill="none"/><path d="M510.5 2771h-1v-.5h1z" fill="#666"/><path d="M510 2844.17l-4.64-14.26h9.28z" stroke="#666" fill="#666"/><path d="M510.5 3021.12h-1v-10.47h1zm0-32.07h-1v-26.34h1z" fill="#666"/><path d="M510.5 2962.72h-1v-.47l1-.1zM510 3035.88l-4.64-14.26h9.28z" fill="#666"/><path d="M510 3037.5l-5.32-16.38h10.64zm-3.95-15.38l3.95 12.14 3.95-12.14z" fill="#666"/><g><use xlink:href="#z" transform="matrix(1,0,0,1,495,2989.053795028642) translate(0.005000000000000782 14.4)"/></g><path d="M510.5 2633.12h-1v-10.47h1zm0-32.07h-1v-26.34h1z" fill="#666"/><path d="M510.5 2574.72h-1v-.47l1-.1zM510 2647.88l-4.64-14.26h9.28z" fill="#666"/><path d="M510 2649.5l-5.32-16.38h10.64zm-3.95-15.38l3.95 12.14 3.95-12.14z" fill="#666"/><g><use xlink:href="#z" transform="matrix(1,0,0,1,495,2601.053795028642) translate(0.005000000000000782 14.4)"/></g><path d="M200 108c0-4.42 3.58-8 8-8h944c4.42 0 8 3.58 8 8v145.5c0 4.42-3.58 8-8 8H208c-4.42 0-8-3.58-8-8z" stroke="#000" stroke-opacity="0" fill="#fff" fill-opacity="0"/><g><use xlink:href="#bh" transform="matrix(1,0,0,1,205.00000000000006,105.00000000000001) translate(54.69270833324231 101.25000000000547)"/><use xlink:href="#bi" transform="matrix(1,0,0,1,205.00000000000006,105.00000000000001) translate(285.80034722218124 101.25000000000547)"/></g><path d="M503.98 1293.83c3.88-2.1 10.16-2.1 14.04 0l95.96 52.34c3.88 2.1 3.88 5.55 0 7.66l-95.96 52.34c-3.88 2.1-10.16 2.1-14.04 0l-95.96-52.34c-3.88-2.1-3.88-5.55 0-7.66z" stroke="#fff" fill="#ffdf71"/><g><use xlink:href="#bj" transform="matrix(1,0,0,1,406,1295) translate(57.625 58.6)"/><use xlink:href="#K" transform="matrix(1,0,0,1,406,1295) translate(99.525 58.6)"/></g><path d="M510 1217v58.5" stroke="#666" fill="none"/><path d="M510.5 1217h-1v-.5h1z" fill="#666"/><path d="M510 1290.28l-4.64-14.27h9.28z" stroke="#666" fill="#666"/><path d="M655.35 1350.5h-37.5v-1h37.5zm54.57 0H688.3v-1h21.62z" fill="#666"/><path d="M617.86 1350.5h-.57l.1-.3-.2-.7h.66zM724.7 1350l-14.28 4.64v-9.28z" fill="#666"/><path d="M726.3 1350l-16.38 5.32v-10.64zm-15.38 3.95l12.15-3.95-12.15-3.95z" fill="#666"/><g><use xlink:href="#bk" transform="matrix(1,0,0,1,655.3515784532267,1339.2) translate(0.004999999999999005 14.4)"/></g><path d="M510 3159v58.5" stroke="#666" fill="none"/><path d="M510.5 3159h-1v-.5h1z" fill="#666"/><path d="M510 3232.28l-4.64-14.27h9.28z" stroke="#666" fill="#666"/><path d="M334.13 1350.5h-17.25v-1h17.25zm70.02 0h-33.12v-1h33.12z" fill="#666"/><path d="M404.6 1349.8l.2.7h-.66v-1h.57zM316.38 1354.64l-14.26-4.64 14.26-4.64z" fill="#666"/><path d="M316.88 1355.32L300.5 1350l16.38-5.32zm-13.14-5.32l12.14 3.95v-7.9z" fill="#666"/><g><use xlink:href="#bl" transform="matrix(1,0,0,1,334.1267338282051,1339.2) translate(0.004999999999999005 14.4)"/></g><path d="M511.5 1665.44h-1v-109.62h1zm0-131.22h-1v-125.5h1zM511.5 1408.72h-1v-.47l1-.1zM511 1680.2l-4.64-14.26h9.28z" fill="#666"/><path d="M511 1681.83l-5.32-16.4h10.64zm-3.95-15.4l3.95 12.16 3.95-12.16z" fill="#666"/><g><use xlink:href="#bm" transform="matrix(1,0,0,1,477.4,1534.2174678223585) translate(0.005000000000002558 14.4)"/></g><path d="M655.5 3292.5h-37.65v-1h37.66zm735.74-2040.8l3 1.26 2.6 2 2 2.6 1.24 3 .42 3.2v2016.27l-.42 3.2-1.24 3-2 2.6-2.6 2-3 1.25-3.2.42H688.45v-1h699.5l3.02-.4 2.76-1.14 2.4-1.83 1.82-2.4 1.14-2.75.4-3V1263.82l-.4-3.02-1.14-2.75-1.83-2.4-2.4-1.82-2.75-1.14-3-.4h-543.3l-3 .4-2.77 1.13-2.38 1.83-1.83 2.4-1.15 2.75-.4 3.03v11.58h-1v-11.64l.42-3.2 1.25-3 2-2.6 2.6-2 3-1.25 3.2-.4h543.4z" fill="#666"/><path d="M617.86 3292.5h-.57l.1-.3-.2-.7h.66zM832.65 1290.17l-4.63-14.26h9.27z" fill="#666"/><path d="M832.65 1291.8l-5.32-16.4h10.65zm-3.94-15.4l3.95 12.16 3.95-12.15z" fill="#666"/><g><use xlink:href="#bk" transform="matrix(1,0,0,1,655.5064247515713,3281.2) translate(0.004999999999999005 14.4)"/></g><path d="M190.5 3279.97l.4 3 1.14 2.77 1.83 2.4 2.4 1.82 2.75 1.14 3 .4h131.24v1h-131.3l-3.2-.42-3-1.24-2.6-2-2-2.6-1.24-3-.42-3.2V1426.87h1zm213.65 11.53v1h-34v-1z" fill="#666"/><path d="M404.6 3291.8l.2.7h-.66v-1h.57zM194.64 1426.38h-9.28l4.64-14.26z" fill="#666"/><path d="M195.32 1426.88h-10.64l5.32-16.38zm-9.27-1h7.9l-3.95-12.14z" fill="#666"/><g><use xlink:href="#bl" transform="matrix(1,0,0,1,333.25957611266455,3281.2) translate(0.004999999999999005 14.4)"/></g><defs><path d="M6 0l48-248h52L58 0H6" id="bn"/><path d="M121-251c83 0 93 87 42 126-35 27-77 48-103 84h115l-7 41H-6C6-94 102-103 141-168c11-20 3-46-24-44-23 2-33 13-39 32l-47-10c12-38 39-61 90-61" id="bo"/><path d="M161-211c-63 0-91 46-91 110 0 39 17 65 58 64 38-1 60-20 74-45l40 20C220-23 184 0 125 4 9 13-10-144 57-208c33-50 166-62 196-1 4 8 9 18 11 27l-48 12c-6-24-25-41-55-41" id="bp"/><g id="a"><use transform="matrix(0.05,0,0,0.05,0,0)" xlink:href="#bn"/><use transform="matrix(0.05,0,0,0.05,5,0)" xlink:href="#bo"/><use transform="matrix(0.05,0,0,0.05,15,0)" xlink:href="#bp"/></g><path d="M132-28C118-9 101 4 69 4 30 4 10-23 10-62c0-70 24-129 92-132 31-1 47 14 56 35l19-102h49L179 0h-49zM62-69c0 22 7 39 29 39 45-2 54-45 57-90 2-27-10-40-33-40-44 0-53 48-53 91" id="bq"/><path d="M114-194c63-2 87 48 72 110H63c-3 28 1 55 31 54 21-1 32-13 37-29l44 13C160-14 137 4 91 4 41 4 11-22 11-73c0-71 33-119 103-121zm30 77c14-47-50-61-67-22-3 6-6 13-8 22h75" id="br"/><path d="M109 0H50L19-190h51L86-37l77-153h54" id="bs"/><path d="M50-224l7-37h49l-7 37H50zM6 0l37-190h49L55 0H6" id="bt"/><path d="M67-101c-8 29-7 73 27 71 23-2 32-16 39-37l48 9C170-19 141 4 91 4 36 4 7-28 12-86c6-75 61-124 140-103 26 7 40 29 43 59l-50 4c-1-20-9-34-29-34-35 0-41 29-49 59" id="bu"/><g id="b"><use transform="matrix(0.05,0,0,0.05,0,0)" xlink:href="#bq"/><use transform="matrix(0.05,0,0,0.05,10.950000000000001,0)" xlink:href="#br"/><use transform="matrix(0.05,0,0,0.05,20.950000000000003,0)" xlink:href="#bs"/><use transform="matrix(0.05,0,0,0.05,30.950000000000003,0)" xlink:href="#bt"/><use transform="matrix(0.05,0,0,0.05,35.95,0)" xlink:href="#bu"/><use transform="matrix(0.05,0,0,0.05,45.95,0)" xlink:href="#br"/></g><path d="M151-194c95 0 34 128 28 194h-49l25-134c0-29-45-25-59-9C67-111 69-48 56 0H6l36-190h47l-4 32c15-20 33-36 66-36" id="bv"/><path d="M124-194c51 0 84 22 84 74C207-44 167 4 94 4 43 4 11-23 11-74c0-74 41-120 113-120zM99-30c46 0 58-42 58-86 0-27-11-44-37-44-44 0-55 40-57 84-1 27 10 45 36 46" id="bw"/><path d="M72-63c-8 23 5 39 32 30L98-1C54 14 12-6 23-64l18-93H15l7-33h28l24-45h31l-8 45h35l-6 33H90" id="bx"/><g id="c"><use transform="matrix(0.05,0,0,0.05,0,0)" xlink:href="#bv"/><use transform="matrix(0.05,0,0,0.05,10.950000000000001,0)" xlink:href="#bw"/><use transform="matrix(0.05,0,0,0.05,21.900000000000002,0)" xlink:href="#bx"/></g><path d="M84-151c13-25 34-51 72-40l-8 41C67-170 71-64 56 0H6l36-190h47" id="by"/><path d="M144-137c-1-29-70-35-71-2 16 41 103 10 103 80C176 9 79 16 32-9 18-17 9-31 4-48l44-6c3 32 80 36 82 1-15-42-103-11-103-82 0-77 157-79 161-8" id="bz"/><path d="M156-122c2-23-7-37-28-37-47 0-58 44-58 89 0 24 12 40 36 40 43 0 47-49 50-92zM-8 75l50-265h48c0 10-3 24-3 30 22-50 127-45 121 29-6 73-21 135-92 135-29 0-46-14-55-35L41 75H-8" id="bA"/><path d="M45-171c29-32 103-29 114 14 2-11 5-23 8-33h47L176-2c-3 70-92 96-155 64C9 56 1 42-1 25l50-5c2 28 48 27 63 11 13-13 20-45 21-66-13 20-30 35-62 36-87 3-60-134-26-172zM94-35c41-3 55-43 55-86 0-24-12-39-35-39-43 0-51 48-51 90 0 22 9 37 31 35" id="bB"/><g id="d"><use transform="matrix(0.05,0,0,0.05,0,0)" xlink:href="#by"/><use transform="matrix(0.05,0,0,0.05,7,0)" xlink:href="#br"/><use transform="matrix(0.05,0,0,0.05,17,0)" xlink:href="#bz"/><use transform="matrix(0.05,0,0,0.05,27,0)" xlink:href="#bA"/><use transform="matrix(0.05,0,0,0.05,37.95,0)" xlink:href="#bw"/><use transform="matrix(0.05,0,0,0.05,48.900000000000006,0)" xlink:href="#bv"/><use transform="matrix(0.05,0,0,0.05,59.85,0)" xlink:href="#bq"/><use transform="matrix(0.05,0,0,0.05,70.80000000000001,0)" xlink:href="#bt"/><use transform="matrix(0.05,0,0,0.05,75.80000000000001,0)" xlink:href="#bv"/><use transform="matrix(0.05,0,0,0.05,86.75000000000001,0)" xlink:href="#bB"/></g><path d="M240-76C239 26 104-5 6 0l48-248c79 4 193-21 193 58 0 38-25 53-57 60 29 5 49 21 50 54zm-45-106c0-40-58-24-96-27l-12 61c45-3 108 12 108-34zm-7 105c0-44-65-31-109-33L66-38c51-3 122 14 122-39" id="bC"/><path d="M69 3c-96 0-34-126-28-193h49L65-57c6 42 62 18 71-6 14-38 17-86 28-127h50L178 0h-47c0-11 4-26 3-33-14 20-30 37-65 36" id="bD"/><g id="e"><use transform="matrix(0.05,0,0,0.05,0,0)" xlink:href="#bC"/><use transform="matrix(0.05,0,0,0.05,12.950000000000001,0)" xlink:href="#bD"/><use transform="matrix(0.05,0,0,0.05,23.900000000000002,0)" xlink:href="#bz"/></g><path d="M178-136c88 48 22 151-73 140C49-3 12-15 4-64l51-9c1 50 111 53 115 3-16-63-132-20-133-112 0-93 190-91 199-10l-50 12c-4-41-93-50-97-4 7 38 59 32 89 48" id="bE"/><g id="f"><use transform="matrix(0.05,0,0,0.05,0,0)" xlink:href="#bE"/><use transform="matrix(0.05,0,0,0.05,12,0)" xlink:href="#bA"/><use transform="matrix(0.05,0,0,0.05,22.950000000000003,0)" xlink:href="#br"/><use transform="matrix(0.05,0,0,0.05,32.95,0)" xlink:href="#br"/><use transform="matrix(0.05,0,0,0.05,42.95,0)" xlink:href="#bq"/><use transform="matrix(0.05,0,0,0.05,53.900000000000006,0)" xlink:href="#bz"/></g><path d="M255-194c90 0 29 129 24 194h-49l25-136c-7-39-53-14-60 9-12 38-18 85-28 127h-49l25-136c2-29-39-23-50-7C69-108 68-47 56 0H6l36-190h48c-1 10-6 24-4 32 12-20 27-36 57-36s46 15 50 41c14-21 29-41 62-41" id="bF"/><path d="M166-52c-4 17 5 29 24 23l-3 27c-30 11-74 1-67-34C105-15 91 4 56 4 23 4 3-15 2-49c0-64 63-67 128-67 10-22 3-53-29-45-13 3-22 10-25 24l-46-5c5-64 156-77 153 0-1 33-11 60-17 90zM97-88c-44-9-64 57-19 57 31 0 42-28 47-57H97" id="bG"/><path d="M87-160c15-17 32-34 63-34 99 1 59 172-1 192-36 12-78 0-87-29L54 0H6l52-261h49zm71 38c0-24-5-37-29-37-46 0-55 46-57 89-1 25 12 40 35 40 44 0 51-50 51-92" id="bH"/><path d="M6 0l51-261h49L55 0H6" id="bI"/><path d="M163-185c-5-40-82-31-84 8l-47-7c13-42 43-68 99-67 46 1 82 17 82 62 0 69-80 60-96 114H70c8-55 68-59 91-98 1-4 2-7 2-12zM54 0l9-47h51l-9 47H54" id="bJ"/><g id="g"><use transform="matrix(0.05,0,0,0.05,0,0)" xlink:href="#bp"/><use transform="matrix(0.05,0,0,0.05,12.950000000000001,0)" xlink:href="#bw"/><use transform="matrix(0.05,0,0,0.05,23.900000000000002,0)" xlink:href="#bF"/><use transform="matrix(0.05,0,0,0.05,39.900000000000006,0)" xlink:href="#bA"/><use transform="matrix(0.05,0,0,0.05,50.85000000000001,0)" xlink:href="#bG"/><use transform="matrix(0.05,0,0,0.05,60.85,0)" xlink:href="#bx"/><use transform="matrix(0.05,0,0,0.05,66.80000000000001,0)" xlink:href="#bt"/><use transform="matrix(0.05,0,0,0.05,71.80000000000001,0)" xlink:href="#bH"/><use transform="matrix(0.05,0,0,0.05,82.75000000000001,0)" xlink:href="#bI"/><use transform="matrix(0.05,0,0,0.05,87.75000000000001,0)" xlink:href="#br"/><use transform="matrix(0.05,0,0,0.05,97.75000000000001,0)" xlink:href="#bJ"/></g><path d="M62-99C39-31 123 0 170-40s38-139 58-208h34C234-144 253 4 115 4 49 4 18-43 31-112l26-136h34" id="bK"/><path d="M55-144c13 50 104 24 104 88C159 21 15 23 1-39l26-10c6 40 102 42 102-4-13-50-104-23-104-87 0-71 143-71 148-8l-29 4c-5-35-85-37-89 0" id="bL"/><path d="M111-194c62-3 86 47 72 106H45c-7 38 6 69 45 68 27-1 43-14 53-32l24 11C152-15 129 4 87 4 38 3 12-23 12-71c0-70 32-119 99-123zm44 81c14-66-71-72-95-28-4 8-8 17-11 28h106" id="bM"/><g id="h"><use transform="matrix(0.05,0,0,0.05,0,0)" xlink:href="#bK"/><use transform="matrix(0.05,0,0,0.05,12.950000000000001,0)" xlink:href="#bL"/><use transform="matrix(0.05,0,0,0.05,21.950000000000003,0)" xlink:href="#bM"/></g><path d="M67-158c15-20 31-36 64-36 94 0 33 127 27 194h-32l25-140c3-38-53-32-70-12C52-117 51-51 37 0H6l51-261h31" id="bN"/><path d="M50-231l6-30h32l-6 30H50zM6 0l37-190h31L37 0H6" id="bO"/><path d="M103-194c29 0 47 14 56 36 2-11 5-23 8-32h30L160-5C157 61 82 97 21 62 9 55 4 45 1 30l28-7c7 42 83 31 92-3 4-16 9-38 13-55-13 20-29 36-62 36-40 0-60-25-60-64 0-71 23-131 91-131zm4 24c-53 0-58 54-61 104-2 27 10 44 36 44 49 0 65-50 67-102 1-29-15-46-42-46" id="bP"/><path d="M51-54c-9 22 5 41 31 30L79-1C43 14 10-4 19-52l22-115H19l5-23h22l19-43h21l-9 43h35l-4 23H73" id="bQ"/><g id="i"><use transform="matrix(0.05,0,0,0.05,0,0)" xlink:href="#bN"/><use transform="matrix(0.05,0,0,0.05,10,0)" xlink:href="#bO"/><use transform="matrix(0.05,0,0,0.05,13.949999999999998,0)" xlink:href="#bP"/><use transform="matrix(0.05,0,0,0.05,23.95,0)" xlink:href="#bN"/><use transform="matrix(0.05,0,0,0.05,33.95,0)" xlink:href="#bM"/><use transform="matrix(0.05,0,0,0.05,43.95,0)" xlink:href="#bL"/><use transform="matrix(0.05,0,0,0.05,52.95,0)" xlink:href="#bQ"/></g><path d="M44-68c0 29 11 47 38 47 30 0 42-19 51-41l28 9C148-21 126 4 82 4 31 4 10-29 12-85c3-77 74-140 146-93 12 8 15 23 18 40l-31 5c-1-22-13-36-36-36-52 0-65 49-65 101" id="bR"/><path d="M30-147c31-64 166-65 159 27C183-49 158 1 86 4 9 8 1-88 30-147zM88-20c53 0 68-48 68-100 0-31-11-51-44-50-52 1-68 46-68 97 0 32 13 53 44 53" id="bS"/><path d="M248-111c6-24 9-61-24-58-72 9-57 108-77 169h-31l26-142c3-37-50-30-64-10C52-115 50-51 37 0H6l36-190h30c-1 10-6 24-4 32 13-43 101-52 105 5 13-22 29-41 61-41 90 0 28 129 23 194h-31" id="bT"/><path d="M67-158c22-48 132-52 116 29L158 0h-32l25-140c3-38-53-32-70-12C52-117 51-52 38 0H6l36-190h30" id="bU"/><g id="j"><use transform="matrix(0.05,0,0,0.05,0,0)" xlink:href="#bR"/><use transform="matrix(0.05,0,0,0.05,9,0)" xlink:href="#bS"/><use transform="matrix(0.05,0,0,0.05,19,0)" xlink:href="#bT"/><use transform="matrix(0.05,0,0,0.05,33.95,0)" xlink:href="#bT"/><use transform="matrix(0.05,0,0,0.05,48.900000000000006,0)" xlink:href="#bS"/><use transform="matrix(0.05,0,0,0.05,58.900000000000006,0)" xlink:href="#bU"/></g><path d="M68-162c25-46 127-43 121 31C183-60 169 1 98 4 69 5 53-11 43-31L36 0H5l52-261h31zm88 36c2-27-9-43-34-43-55 0-70 51-70 103 0 29 15 45 43 46 52 0 58-58 61-106" id="bV"/><path d="M67 3c-93-2-31-127-26-193h32L48-50c-3 39 53 32 70 12 30-34 30-101 43-152h32L157 0h-30c1-10 6-24 4-33-14 20-29 37-64 36" id="bW"/><g id="k"><use transform="matrix(0.05,0,0,0.05,0,0)" xlink:href="#bV"/><use transform="matrix(0.05,0,0,0.05,10,0)" xlink:href="#bW"/><use transform="matrix(0.05,0,0,0.05,20,0)" xlink:href="#bL"/></g><path d="M67-162c32-53 139-36 121 50C175-51 163 2 97 4 68 4 52-11 42-31 38 6 28 39 22 75H-9l50-265h29c-1 10 0 20-3 28zm89 36c0-26-10-43-35-43-54 0-67 50-69 103-1 29 14 45 42 46 53 0 62-58 62-106" id="bX"/><path d="M133-28C103 26-5 8 13-77c13-62 24-115 90-117 29-1 46 15 56 35l19-102h32L160 0h-30zM45-64c-2 27 10 43 35 43 54-1 69-50 69-103 0-29-15-46-42-46-53-1-58 58-62 106" id="bY"/><g id="l"><use transform="matrix(0.05,0,0,0.05,0,0)" xlink:href="#bL"/><use transform="matrix(0.05,0,0,0.05,9,0)" xlink:href="#bX"/><use transform="matrix(0.05,0,0,0.05,19,0)" xlink:href="#bM"/><use transform="matrix(0.05,0,0,0.05,29,0)" xlink:href="#bM"/><use transform="matrix(0.05,0,0,0.05,39,0)" xlink:href="#bY"/></g><path d="M58-38C53-5 46 26 28 46H7C19 32 27 18 32 0H17l7-38h34" id="bZ"/><use transform="matrix(0.05,0,0,0.05,0,0)" xlink:href="#bZ" id="m"/><path d="M66-151c12-25 30-51 66-40l-6 26C45-176 58-65 38 0H6l36-190h30" id="ca"/><g id="n"><use transform="matrix(0.05,0,0,0.05,0,0)" xlink:href="#bS"/><use transform="matrix(0.05,0,0,0.05,10,0)" xlink:href="#ca"/></g><path d="M9 0l6-27h63l36-188-63 39 6-31 66-41h29L110-27h60l-5 27H9" id="cb"/><path d="M16-82c0-90 25-169 113-169 48 0 68 33 68 82C197-79 170 4 84 4 37 4 16-31 16-82zm30 5c0 32 11 55 40 55 69 0 76-79 80-149 2-32-10-55-39-55-69 0-81 81-81 149" id="cc"/><path d="M180 0L97-118 63-96 45 0H11l48-248h34L69-126c44-43 94-81 141-122h43L121-137 219 0h-39" id="cd"/><path d="M-8 0l5-24 140-142H31l5-24h145l-5 24L36-24h119l-5 24H-8" id="ce"/><g id="o"><use transform="matrix(0.05,0,0,0.05,0,0)" xlink:href="#cb"/><use transform="matrix(0.05,0,0,0.05,10,0)" xlink:href="#cc"/><use transform="matrix(0.05,0,0,0.05,20,0)" xlink:href="#cc"/><use transform="matrix(0.05,0,0,0.05,30,0)" xlink:href="#cd"/><use transform="matrix(0.05,0,0,0.05,42,0)" xlink:href="#bN"/><use transform="matrix(0.05,0,0,0.05,52,0)" xlink:href="#ce"/></g><path d="M128 0L95-87 70-74 55 0H6l51-261h49L77-111l82-79h56l-83 74L180 0h-52" id="cf"/><g id="p"><use transform="matrix(0.05,0,0,0.05,0,0)" xlink:href="#bp"/><use transform="matrix(0.05,0,0,0.05,12.950000000000001,0)" xlink:href="#bI"/><use transform="matrix(0.05,0,0,0.05,17.950000000000003,0)" xlink:href="#bw"/><use transform="matrix(0.05,0,0,0.05,28.900000000000006,0)" xlink:href="#bu"/><use transform="matrix(0.05,0,0,0.05,38.900000000000006,0)" xlink:href="#cf"/></g><path d="M150-105c8-23 8-54-22-51-68 7-54 98-72 156H6l50-261h50L85-158c15-20 33-36 66-36 95 0 34 128 28 194h-49" id="cg"/><g id="q"><use transform="matrix(0.05,0,0,0.05,0,0)" xlink:href="#bz"/><use transform="matrix(0.05,0,0,0.05,10,0)" xlink:href="#bx"/><use transform="matrix(0.05,0,0,0.05,15.949999999999998,0)" xlink:href="#by"/><use transform="matrix(0.05,0,0,0.05,22.95,0)" xlink:href="#br"/><use transform="matrix(0.05,0,0,0.05,32.95,0)" xlink:href="#bx"/><use transform="matrix(0.05,0,0,0.05,38.900000000000006,0)" xlink:href="#bu"/><use transform="matrix(0.05,0,0,0.05,48.900000000000006,0)" xlink:href="#cg"/><use transform="matrix(0.05,0,0,0.05,59.85,0)" xlink:href="#bt"/><use transform="matrix(0.05,0,0,0.05,64.85000000000001,0)" xlink:href="#bv"/><use transform="matrix(0.05,0,0,0.05,75.80000000000001,0)" xlink:href="#bB"/></g><g id="r"><use transform="matrix(0.05,0,0,0.05,0,0)" xlink:href="#bw"/><use transform="matrix(0.05,0,0,0.05,10.950000000000001,0)" xlink:href="#bv"/></g><g id="s"><use transform="matrix(0.05,0,0,0.05,0,0)" xlink:href="#bG"/><use transform="matrix(0.05,0,0,0.05,10,0)" xlink:href="#bI"/><use transform="matrix(0.05,0,0,0.05,15,0)" xlink:href="#bI"/></g><g id="t"><use transform="matrix(0.05,0,0,0.05,0,0)" xlink:href="#bq"/><use transform="matrix(0.05,0,0,0.05,10.950000000000001,0)" xlink:href="#br"/><use transform="matrix(0.05,0,0,0.05,20.950000000000003,0)" xlink:href="#bs"/><use transform="matrix(0.05,0,0,0.05,30.950000000000003,0)" xlink:href="#bt"/><use transform="matrix(0.05,0,0,0.05,35.95,0)" xlink:href="#bu"/><use transform="matrix(0.05,0,0,0.05,45.95,0)" xlink:href="#br"/><use transform="matrix(0.05,0,0,0.05,55.95,0)" xlink:href="#bz"/><use transform="matrix(0.05,0,0,0.05,65.95,0)" xlink:href="#bJ"/></g><path d="M248-139C247-14 144 9 11 0l48-248c105-6 190 8 189 109zm-34 0c1-70-52-87-126-82L50-27c98 7 163-21 164-112" id="ch"/><path d="M165-48c-4 18 1 34 23 27l-3 20c-29 8-62 0-52-35h-2C116-14 99 4 63 4 30 4 8-16 8-49c0-68 71-67 138-67 10-26 0-56-31-54-26 1-42 9-47 31l-32-5c8-67 160-71 144 15-5 28-9 54-15 81zM42-50c3 52 80 24 89-6 7-12 7-24 11-38-47 1-103-4-100 44" id="ci"/><path d="M6 0l50-261h32L37 0H6" id="cj"/><g id="u"><use transform="matrix(0.05,0,0,0.05,0,0)" xlink:href="#ch"/><use transform="matrix(0.05,0,0,0.05,12.950000000000001,0)" xlink:href="#bO"/><use transform="matrix(0.05,0,0,0.05,16.900000000000002,0)" xlink:href="#bL"/><use transform="matrix(0.05,0,0,0.05,25.900000000000002,0)" xlink:href="#ci"/><use transform="matrix(0.05,0,0,0.05,35.900000000000006,0)" xlink:href="#bV"/><use transform="matrix(0.05,0,0,0.05,45.900000000000006,0)" xlink:href="#cj"/><use transform="matrix(0.05,0,0,0.05,49.85000000000001,0)" xlink:href="#bM"/></g><path d="M127 0L80-88 50-66 37 0H6l51-261h31L57-100l99-90h39l-93 82L161 0h-34" id="ck"/><g id="v"><use transform="matrix(0.05,0,0,0.05,0,0)" xlink:href="#bR"/><use transform="matrix(0.05,0,0,0.05,9,0)" xlink:href="#cj"/><use transform="matrix(0.05,0,0,0.05,12.949999999999998,0)" xlink:href="#bS"/><use transform="matrix(0.05,0,0,0.05,22.95,0)" xlink:href="#bR"/><use transform="matrix(0.05,0,0,0.05,31.950000000000003,0)" xlink:href="#ck"/></g><g id="w"><use transform="matrix(0.05,0,0,0.05,0,0)" xlink:href="#bL"/><use transform="matrix(0.05,0,0,0.05,9,0)" xlink:href="#bQ"/><use transform="matrix(0.05,0,0,0.05,14,0)" xlink:href="#ca"/><use transform="matrix(0.05,0,0,0.05,19.95,0)" xlink:href="#bM"/><use transform="matrix(0.05,0,0,0.05,29.950000000000003,0)" xlink:href="#bR"/><use transform="matrix(0.05,0,0,0.05,38.95,0)" xlink:href="#bN"/><use transform="matrix(0.05,0,0,0.05,48.95,0)" xlink:href="#bO"/><use transform="matrix(0.05,0,0,0.05,52.900000000000006,0)" xlink:href="#bU"/><use transform="matrix(0.05,0,0,0.05,62.900000000000006,0)" xlink:href="#bP"/></g><g id="x"><use transform="matrix(0.05,0,0,0.05,0,0)" xlink:href="#bO"/><use transform="matrix(0.05,0,0,0.05,3.95,0)" xlink:href="#bU"/></g><path d="M76-167L44 0H12l33-167H18l4-23h27c3-47 25-81 82-69l-4 24c-35-8-44 15-46 45h37l-5 23H76" id="cl"/><path d="M188 0h-37l-8-164L71 0H34L18-190h31l8 164 75-164h34l8 164 74-164h31" id="cm"/><g id="y"><use transform="matrix(0.05,0,0,0.05,0,0)" xlink:href="#cl"/><use transform="matrix(0.05,0,0,0.05,5,0)" xlink:href="#bO"/><use transform="matrix(0.05,0,0,0.05,8.95,0)" xlink:href="#ca"/><use transform="matrix(0.05,0,0,0.05,14.899999999999999,0)" xlink:href="#bT"/><use transform="matrix(0.05,0,0,0.05,29.85,0)" xlink:href="#cm"/><use transform="matrix(0.05,0,0,0.05,42.800000000000004,0)" xlink:href="#ci"/><use transform="matrix(0.05,0,0,0.05,52.800000000000004,0)" xlink:href="#ca"/><use transform="matrix(0.05,0,0,0.05,58.75,0)" xlink:href="#bM"/></g><path d="M138-103L118 0H85l20-103-68-145h35l54 119 98-119h38" id="cn"/><g id="z"><use transform="matrix(0.05,0,0,0.05,0,0)" xlink:href="#cn"/><use transform="matrix(0.05,0,0,0.05,11,0)" xlink:href="#bM"/><use transform="matrix(0.05,0,0,0.05,21,0)" xlink:href="#bL"/></g><path d="M173 0L80-213 41 0H11l48-248h37l94 214 40-214h30L212 0h-39" id="co"/><g id="A"><use transform="matrix(0.05,0,0,0.05,0,0)" xlink:href="#co"/><use transform="matrix(0.05,0,0,0.05,12.950000000000001,0)" xlink:href="#bS"/></g><path d="M125-24c46 0 70-25 89-51l25 16C214-24 183 4 123 4 8 4-5-146 60-208c32-50 158-61 191-5 5 7 9 14 11 22l-32 10c-9-28-33-43-69-43-74 0-108 51-108 125 0 46 24 75 72 75" id="cp"/><g id="B"><use transform="matrix(0.05,0,0,0.05,0,0)" xlink:href="#cp"/><use transform="matrix(0.05,0,0,0.05,12.950000000000001,0)" xlink:href="#bN"/><use transform="matrix(0.05,0,0,0.05,22.950000000000003,0)" xlink:href="#bM"/><use transform="matrix(0.05,0,0,0.05,32.95,0)" xlink:href="#bR"/><use transform="matrix(0.05,0,0,0.05,41.95,0)" xlink:href="#ck"/></g><g id="C"><use transform="matrix(0.05,0,0,0.05,0,0)" xlink:href="#bY"/><use transform="matrix(0.05,0,0,0.05,10,0)" xlink:href="#ci"/><use transform="matrix(0.05,0,0,0.05,20,0)" xlink:href="#bQ"/><use transform="matrix(0.05,0,0,0.05,25,0)" xlink:href="#ci"/><use transform="matrix(0.05,0,0,0.05,35,0)" xlink:href="#bL"/><use transform="matrix(0.05,0,0,0.05,44,0)" xlink:href="#bN"/><use transform="matrix(0.05,0,0,0.05,54,0)" xlink:href="#bM"/><use transform="matrix(0.05,0,0,0.05,64,0)" xlink:href="#bM"/><use transform="matrix(0.05,0,0,0.05,74,0)" xlink:href="#bQ"/><use transform="matrix(0.05,0,0,0.05,79,0)" xlink:href="#bL"/></g><path d="M238-179c0 84-86 86-175 82L45 0H11l48-248c82 0 179-12 179 69zm-34 1c0-53-64-42-116-43l-19 98c63 0 135 9 135-55" id="cq"/><g id="D"><use transform="matrix(0.05,0,0,0.05,0,0)" xlink:href="#cq"/><use transform="matrix(0.05,0,0,0.05,12,0)" xlink:href="#ca"/><use transform="matrix(0.05,0,0,0.05,17.95,0)" xlink:href="#bS"/><use transform="matrix(0.05,0,0,0.05,27.950000000000003,0)" xlink:href="#bV"/><use transform="matrix(0.05,0,0,0.05,37.95,0)" xlink:href="#bM"/></g><path d="M14 0l48-248h34L48 0H14" id="cr"/><path d="M123-251c66 0 92 69 53 113C138-94 73-75 39-27h128l-5 27H-2c17-92 123-93 159-163 14-28-1-64-36-62-29 2-46 17-54 41l-30-6c13-36 37-61 86-61" id="cs"/><g id="E"><use transform="matrix(0.05,0,0,0.05,0,0)" xlink:href="#cr"/><use transform="matrix(0.05,0,0,0.05,5,0)" xlink:href="#cs"/><use transform="matrix(0.05,0,0,0.05,15,0)" xlink:href="#cp"/></g><g id="F"><use transform="matrix(0.05,0,0,0.05,0,0)" xlink:href="#cj"/><use transform="matrix(0.05,0,0,0.05,3.95,0)" xlink:href="#bO"/><use transform="matrix(0.05,0,0,0.05,7.9,0)" xlink:href="#bU"/><use transform="matrix(0.05,0,0,0.05,17.9,0)" xlink:href="#bM"/><use transform="matrix(0.05,0,0,0.05,27.899999999999995,0)" xlink:href="#bL"/></g><g id="G"><use transform="matrix(0.05,0,0,0.05,0,0)" xlink:href="#cm"/><use transform="matrix(0.05,0,0,0.05,12.950000000000001,0)" xlink:href="#bO"/><use transform="matrix(0.05,0,0,0.05,16.900000000000002,0)" xlink:href="#bQ"/><use transform="matrix(0.05,0,0,0.05,21.900000000000002,0)" xlink:href="#bN"/></g><g id="H"><use transform="matrix(0.05,0,0,0.05,0,0)" xlink:href="#cj"/><use transform="matrix(0.05,0,0,0.05,3.95,0)" xlink:href="#bS"/><use transform="matrix(0.05,0,0,0.05,13.949999999999998,0)" xlink:href="#bP"/><use transform="matrix(0.05,0,0,0.05,23.95,0)" xlink:href="#bO"/><use transform="matrix(0.05,0,0,0.05,27.899999999999995,0)" xlink:href="#bR"/></g><path d="M198-190L69 30C53 58 25 83-20 72c4-11-1-27 19-22 33-1 43-29 59-52L20-190h32L79-34l84-156h35" id="ct"/><g id="I"><use transform="matrix(0.05,0,0,0.05,0,0)" xlink:href="#ci"/><use transform="matrix(0.05,0,0,0.05,10,0)" xlink:href="#bU"/><use transform="matrix(0.05,0,0,0.05,20,0)" xlink:href="#ci"/><use transform="matrix(0.05,0,0,0.05,30,0)" xlink:href="#cj"/><use transform="matrix(0.05,0,0,0.05,33.95,0)" xlink:href="#ct"/><use transform="matrix(0.05,0,0,0.05,42.95,0)" xlink:href="#ce"/><use transform="matrix(0.05,0,0,0.05,51.95,0)" xlink:href="#bM"/><use transform="matrix(0.05,0,0,0.05,61.95,0)" xlink:href="#ca"/></g><path d="M6 0l48-248h52L66-40h133l-8 40H6" id="cu"/><g id="J"><use transform="matrix(0.05,0,0,0.05,0,0)" xlink:href="#cu"/><use transform="matrix(0.05,0,0,0.05,10.950000000000001,0)" xlink:href="#bt"/><use transform="matrix(0.05,0,0,0.05,15.950000000000001,0)" xlink:href="#bv"/><use transform="matrix(0.05,0,0,0.05,26.900000000000002,0)" xlink:href="#br"/><use transform="matrix(0.05,0,0,0.05,36.900000000000006,0)" xlink:href="#bz"/></g><g id="K"><use transform="matrix(0.05,0,0,0.05,0,0)" xlink:href="#bz"/><use transform="matrix(0.05,0,0,0.05,10,0)" xlink:href="#bx"/><use transform="matrix(0.05,0,0,0.05,15.949999999999998,0)" xlink:href="#bG"/><use transform="matrix(0.05,0,0,0.05,25.950000000000003,0)" xlink:href="#bx"/><use transform="matrix(0.05,0,0,0.05,31.899999999999995,0)" xlink:href="#br"/><use transform="matrix(0.05,0,0,0.05,41.9,0)" xlink:href="#bJ"/></g><path d="M183 0l-10-63H79L44 0H-7l138-248h61L234 0h-51zm-14-102l-15-108c-16 38-36 73-55 108h70" id="cv"/><g id="L"><use transform="matrix(0.05,0,0,0.05,0,0)" xlink:href="#cv"/><use transform="matrix(0.05,0,0,0.05,12.950000000000001,0)" xlink:href="#by"/><use transform="matrix(0.05,0,0,0.05,19.950000000000003,0)" xlink:href="#br"/></g><path d="M10-72l8-43h92l-9 43H10" id="cw"/><g id="M"><use transform="matrix(0.05,0,0,0.05,0,0)" xlink:href="#bA"/><use transform="matrix(0.05,0,0,0.05,10.950000000000001,0)" xlink:href="#bD"/><use transform="matrix(0.05,0,0,0.05,21.900000000000002,0)" xlink:href="#bI"/><use transform="matrix(0.05,0,0,0.05,26.900000000000002,0)" xlink:href="#bI"/><use transform="matrix(0.05,0,0,0.05,31.900000000000002,0)" xlink:href="#cw"/><use transform="matrix(0.05,0,0,0.05,37.85,0)" xlink:href="#bD"/><use transform="matrix(0.05,0,0,0.05,48.800000000000004,0)" xlink:href="#bA"/><use transform="matrix(0.05,0,0,0.05,59.75,0)" xlink:href="#bz"/></g><g id="N"><use transform="matrix(0.05,0,0,0.05,0,0)" xlink:href="#bA"/><use transform="matrix(0.05,0,0,0.05,10.950000000000001,0)" xlink:href="#by"/><use transform="matrix(0.05,0,0,0.05,17.950000000000003,0)" xlink:href="#br"/><use transform="matrix(0.05,0,0,0.05,27.950000000000003,0)" xlink:href="#bz"/><use transform="matrix(0.05,0,0,0.05,37.95,0)" xlink:href="#br"/><use transform="matrix(0.05,0,0,0.05,47.95,0)" xlink:href="#bv"/><use transform="matrix(0.05,0,0,0.05,58.900000000000006,0)" xlink:href="#bx"/><use transform="matrix(0.05,0,0,0.05,64.85000000000001,0)" xlink:href="#bJ"/></g><path d="M249-183c0 48-29 72-75 77L221 0h-36l-43-103H65L45 0H11l48-248c83 2 190-17 190 65zm-34 3c0-55-74-39-127-41l-18 92c63-1 145 13 145-51" id="cx"/><g id="O"><use transform="matrix(0.05,0,0,0.05,0,0)" xlink:href="#cx"/><use transform="matrix(0.05,0,0,0.05,12.950000000000001,0)" xlink:href="#bM"/><use transform="matrix(0.05,0,0,0.05,22.950000000000003,0)" xlink:href="#cm"/><use transform="matrix(0.05,0,0,0.05,35.900000000000006,0)" xlink:href="#bS"/><use transform="matrix(0.05,0,0,0.05,45.900000000000006,0)" xlink:href="#ca"/><use transform="matrix(0.05,0,0,0.05,51.85,0)" xlink:href="#ck"/></g><g id="P"><use transform="matrix(0.05,0,0,0.05,0,0)" xlink:href="#bV"/><use transform="matrix(0.05,0,0,0.05,10,0)" xlink:href="#bS"/><use transform="matrix(0.05,0,0,0.05,20,0)" xlink:href="#ci"/><use transform="matrix(0.05,0,0,0.05,30,0)" xlink:href="#ca"/><use transform="matrix(0.05,0,0,0.05,35.95,0)" xlink:href="#bY"/></g><g id="Q"><use transform="matrix(0.05,0,0,0.05,0,0)" xlink:href="#bQ"/><use transform="matrix(0.05,0,0,0.05,5,0)" xlink:href="#bS"/></g><g id="R"><use transform="matrix(0.05,0,0,0.05,0,0)" xlink:href="#ci"/><use transform="matrix(0.05,0,0,0.05,10,0)" xlink:href="#bY"/><use transform="matrix(0.05,0,0,0.05,20,0)" xlink:href="#bY"/></g><path d="M18-82l6-28h88l-6 28H18" id="cy"/><g id="S"><use transform="matrix(0.05,0,0,0.05,0,0)" xlink:href="#bX"/><use transform="matrix(0.05,0,0,0.05,10,0)" xlink:href="#bW"/><use transform="matrix(0.05,0,0,0.05,20,0)" xlink:href="#cj"/><use transform="matrix(0.05,0,0,0.05,23.95,0)" xlink:href="#cj"/><use transform="matrix(0.05,0,0,0.05,27.899999999999995,0)" xlink:href="#cy"/><use transform="matrix(0.05,0,0,0.05,33.85,0)" xlink:href="#bW"/><use transform="matrix(0.05,0,0,0.05,43.85,0)" xlink:href="#bX"/><use transform="matrix(0.05,0,0,0.05,53.85,0)" xlink:href="#bL"/></g><path d="M194-120c59 52 2 134-86 124-53-6-90-18-98-63l31-7c8 30 29 43 70 43 46 0 84-17 71-62-32-43-135-20-137-98-3-89 178-90 191-16l-30 9c-8-48-127-53-127 5 0 53 81 35 115 65" id="cz"/><g id="T"><use transform="matrix(0.05,0,0,0.05,0,0)" xlink:href="#cz"/><use transform="matrix(0.05,0,0,0.05,12,0)" xlink:href="#bQ"/><use transform="matrix(0.05,0,0,0.05,17,0)" xlink:href="#ci"/><use transform="matrix(0.05,0,0,0.05,27,0)" xlink:href="#ca"/><use transform="matrix(0.05,0,0,0.05,32.95,0)" xlink:href="#bQ"/></g><g id="U"><use transform="matrix(0.05,0,0,0.05,0,0)" xlink:href="#bY"/><use transform="matrix(0.05,0,0,0.05,10,0)" xlink:href="#bM"/><use transform="matrix(0.05,0,0,0.05,20,0)" xlink:href="#bX"/><use transform="matrix(0.05,0,0,0.05,30,0)" xlink:href="#bS"/><use transform="matrix(0.05,0,0,0.05,40,0)" xlink:href="#bX"/><use transform="matrix(0.05,0,0,0.05,50,0)" xlink:href="#bW"/><use transform="matrix(0.05,0,0,0.05,60,0)" xlink:href="#cj"/><use transform="matrix(0.05,0,0,0.05,63.95,0)" xlink:href="#ci"/><use transform="matrix(0.05,0,0,0.05,73.95,0)" xlink:href="#bQ"/><use transform="matrix(0.05,0,0,0.05,78.95,0)" xlink:href="#bO"/><use transform="matrix(0.05,0,0,0.05,82.9,0)" xlink:href="#bU"/><use transform="matrix(0.05,0,0,0.05,92.9,0)" xlink:href="#bP"/></g><path d="M89 0H52L20-190h33L74-25l89-165h34" id="cA"/><g id="V"><use transform="matrix(0.05,0,0,0.05,0,0)" xlink:href="#bY"/><use transform="matrix(0.05,0,0,0.05,10,0)" xlink:href="#bM"/><use transform="matrix(0.05,0,0,0.05,20,0)" xlink:href="#cA"/><use transform="matrix(0.05,0,0,0.05,29,0)" xlink:href="#bO"/><use transform="matrix(0.05,0,0,0.05,32.95,0)" xlink:href="#bR"/><use transform="matrix(0.05,0,0,0.05,41.95,0)" xlink:href="#bM"/><use transform="matrix(0.05,0,0,0.05,51.95,0)" xlink:href="#bL"/></g><g id="W"><use transform="matrix(0.05,0,0,0.05,0,0)" xlink:href="#cl"/><use transform="matrix(0.05,0,0,0.05,5,0)" xlink:href="#ca"/><use transform="matrix(0.05,0,0,0.05,10.95,0)" xlink:href="#bS"/><use transform="matrix(0.05,0,0,0.05,20.95,0)" xlink:href="#bT"/></g><g id="X"><use transform="matrix(0.05,0,0,0.05,0,0)" xlink:href="#bQ"/><use transform="matrix(0.05,0,0,0.05,5,0)" xlink:href="#bN"/><use transform="matrix(0.05,0,0,0.05,15,0)" xlink:href="#bM"/></g><g id="Y"><use transform="matrix(0.05,0,0,0.05,0,0)" xlink:href="#bV"/><use transform="matrix(0.05,0,0,0.05,10,0)" xlink:href="#bW"/><use transform="matrix(0.05,0,0,0.05,20,0)" xlink:href="#bL"/></g><g id="Z"><use transform="matrix(0.05,0,0,0.05,0,0)" xlink:href="#cl"/><use transform="matrix(0.05,0,0,0.05,5,0)" xlink:href="#bO"/><use transform="matrix(0.05,0,0,0.05,8.95,0)" xlink:href="#ca"/><use transform="matrix(0.05,0,0,0.05,14.899999999999999,0)" xlink:href="#bT"/><use transform="matrix(0.05,0,0,0.05,29.85,0)" xlink:href="#cm"/><use transform="matrix(0.05,0,0,0.05,42.800000000000004,0)" xlink:href="#ci"/><use transform="matrix(0.05,0,0,0.05,52.800000000000004,0)" xlink:href="#ca"/><use transform="matrix(0.05,0,0,0.05,58.75,0)" xlink:href="#bM"/></g><g id="aa"><use transform="matrix(0.05,0,0,0.05,0,0)" xlink:href="#bR"/><use transform="matrix(0.05,0,0,0.05,9,0)" xlink:href="#cj"/><use transform="matrix(0.05,0,0,0.05,12.949999999999998,0)" xlink:href="#bS"/><use transform="matrix(0.05,0,0,0.05,22.95,0)" xlink:href="#bR"/><use transform="matrix(0.05,0,0,0.05,31.950000000000003,0)" xlink:href="#ck"/><use transform="matrix(0.05,0,0,0.05,40.95,0)" xlink:href="#bL"/><use transform="matrix(0.05,0,0,0.05,49.95,0)" xlink:href="#bZ"/></g><g id="ab"><use transform="matrix(0.05,0,0,0.05,0,0)" xlink:href="#bO"/><use transform="matrix(0.05,0,0,0.05,3.95,0)" xlink:href="#bU"/><use transform="matrix(0.05,0,0,0.05,13.949999999999998,0)" xlink:href="#bO"/><use transform="matrix(0.05,0,0,0.05,17.9,0)" xlink:href="#bQ"/><use transform="matrix(0.05,0,0,0.05,22.9,0)" xlink:href="#bZ"/></g><g id="ac"><use transform="matrix(0.05,0,0,0.05,0,0)" xlink:href="#ci"/><use transform="matrix(0.05,0,0,0.05,10,0)" xlink:href="#bU"/><use transform="matrix(0.05,0,0,0.05,20,0)" xlink:href="#bY"/></g><g id="ad"><use transform="matrix(0.05,0,0,0.05,0,0)" xlink:href="#ca"/><use transform="matrix(0.05,0,0,0.05,5.95,0)" xlink:href="#bM"/><use transform="matrix(0.05,0,0,0.05,15.949999999999998,0)" xlink:href="#bQ"/><use transform="matrix(0.05,0,0,0.05,20.95,0)" xlink:href="#bW"/><use transform="matrix(0.05,0,0,0.05,30.950000000000003,0)" xlink:href="#ca"/><use transform="matrix(0.05,0,0,0.05,36.9,0)" xlink:href="#bU"/></g><g id="ae"><use transform="matrix(0.05,0,0,0.05,0,0)" xlink:href="#cA"/><use transform="matrix(0.05,0,0,0.05,9,0)" xlink:href="#ci"/><use transform="matrix(0.05,0,0,0.05,19,0)" xlink:href="#cj"/><use transform="matrix(0.05,0,0,0.05,22.95,0)" xlink:href="#bW"/><use transform="matrix(0.05,0,0,0.05,32.95,0)" xlink:href="#bM"/><use transform="matrix(0.05,0,0,0.05,42.95,0)" xlink:href="#bL"/></g><g id="af"><use transform="matrix(0.05,0,0,0.05,0,0)" xlink:href="#cm"/><use transform="matrix(0.05,0,0,0.05,12.950000000000001,0)" xlink:href="#bO"/><use transform="matrix(0.05,0,0,0.05,16.900000000000002,0)" xlink:href="#bQ"/><use transform="matrix(0.05,0,0,0.05,21.900000000000002,0)" xlink:href="#bN"/></g><g id="ag"><use transform="matrix(0.05,0,0,0.05,0,0)" xlink:href="#bS"/><use transform="matrix(0.05,0,0,0.05,10,0)" xlink:href="#bL"/><use transform="matrix(0.05,0,0,0.05,19,0)" xlink:href="#bR"/><use transform="matrix(0.05,0,0,0.05,28,0)" xlink:href="#bO"/><use transform="matrix(0.05,0,0,0.05,31.950000000000003,0)" xlink:href="#cj"/><use transform="matrix(0.05,0,0,0.05,35.9,0)" xlink:href="#cj"/><use transform="matrix(0.05,0,0,0.05,39.85,0)" xlink:href="#bS"/><use transform="matrix(0.05,0,0,0.05,49.85,0)" xlink:href="#bL"/><use transform="matrix(0.05,0,0,0.05,58.85,0)" xlink:href="#bR"/><use transform="matrix(0.05,0,0,0.05,67.85,0)" xlink:href="#bS"/><use transform="matrix(0.05,0,0,0.05,77.85,0)" xlink:href="#bX"/><use transform="matrix(0.05,0,0,0.05,87.85,0)" xlink:href="#bM"/></g><path d="M151-220L108 0H75l42-220H32l6-28h203l-5 28h-85" id="cB"/><g id="ah"><use transform="matrix(0.05,0,0,0.05,0,0)" xlink:href="#cB"/><use transform="matrix(0.05,0,0,0.05,9.3,0)" xlink:href="#bS"/><use transform="matrix(0.05,0,0,0.05,19.3,0)" xlink:href="#bP"/><use transform="matrix(0.05,0,0,0.05,29.3,0)" xlink:href="#bP"/><use transform="matrix(0.05,0,0,0.05,39.3,0)" xlink:href="#cj"/><use transform="matrix(0.05,0,0,0.05,43.25,0)" xlink:href="#bO"/><use transform="matrix(0.05,0,0,0.05,47.2,0)" xlink:href="#bU"/><use transform="matrix(0.05,0,0,0.05,57.2,0)" xlink:href="#bP"/></g><path d="M258-177c0 46-32 67-71 75L235 0h-57l-41-94H76L58 0H6l48-248c89 2 204-19 204 71zm-53 3c0-46-63-30-107-33l-14 73c51-2 120 13 121-40" id="cC"/><g id="ai"><use transform="matrix(0.05,0,0,0.05,0,0)" xlink:href="#cC"/><use transform="matrix(0.05,0,0,0.05,12.950000000000001,0)" xlink:href="#bw"/><use transform="matrix(0.05,0,0,0.05,23.900000000000002,0)" xlink:href="#bD"/><use transform="matrix(0.05,0,0,0.05,34.85,0)" xlink:href="#bv"/><use transform="matrix(0.05,0,0,0.05,45.800000000000004,0)" xlink:href="#bq"/><use transform="matrix(0.05,0,0,0.05,56.75,0)" xlink:href="#br"/><use transform="matrix(0.05,0,0,0.05,66.75,0)" xlink:href="#bq"/></g><g id="aj"><use transform="matrix(0.05,0,0,0.05,0,0)" xlink:href="#bA"/><use transform="matrix(0.05,0,0,0.05,10.950000000000001,0)" xlink:href="#bD"/><use transform="matrix(0.05,0,0,0.05,21.900000000000002,0)" xlink:href="#bI"/><use transform="matrix(0.05,0,0,0.05,26.900000000000002,0)" xlink:href="#bz"/><use transform="matrix(0.05,0,0,0.05,36.900000000000006,0)" xlink:href="#br"/><use transform="matrix(0.05,0,0,0.05,46.900000000000006,0)" xlink:href="#bz"/><use transform="matrix(0.05,0,0,0.05,56.900000000000006,0)" xlink:href="#bJ"/></g><g id="ak"><use transform="matrix(0.05,0,0,0.05,0,0)" xlink:href="#bL"/><use transform="matrix(0.05,0,0,0.05,9,0)" xlink:href="#bQ"/><use transform="matrix(0.05,0,0,0.05,14,0)" xlink:href="#ca"/><use transform="matrix(0.05,0,0,0.05,19.95,0)" xlink:href="#bS"/><use transform="matrix(0.05,0,0,0.05,29.950000000000003,0)" xlink:href="#bU"/><use transform="matrix(0.05,0,0,0.05,39.95,0)" xlink:href="#bP"/><use transform="matrix(0.05,0,0,0.05,49.95,0)" xlink:href="#bM"/><use transform="matrix(0.05,0,0,0.05,59.95,0)" xlink:href="#ca"/></g><g id="al"><use transform="matrix(0.05,0,0,0.05,0,0)" xlink:href="#bX"/><use transform="matrix(0.05,0,0,0.05,10,0)" xlink:href="#bW"/><use transform="matrix(0.05,0,0,0.05,20,0)" xlink:href="#cj"/><use transform="matrix(0.05,0,0,0.05,23.95,0)" xlink:href="#cj"/><use transform="matrix(0.05,0,0,0.05,27.899999999999995,0)" xlink:href="#bW"/><use transform="matrix(0.05,0,0,0.05,37.9,0)" xlink:href="#bX"/><use transform="matrix(0.05,0,0,0.05,47.9,0)" xlink:href="#bL"/></g><path d="M17-49c1-102 45-165 103-212h30C92-210 49-145 49-46 49 4 63 43 85 75H54C30 43 18 2 17-49" id="cD"/><path d="M14 0l8-38h34L48 0H14" id="cE"/><g id="am"><use transform="matrix(0.05,0,0,0.05,0,0)" xlink:href="#cD"/><use transform="matrix(0.05,0,0,0.05,5.95,0)" xlink:href="#bM"/><use transform="matrix(0.05,0,0,0.05,15.949999999999998,0)" xlink:href="#cE"/><use transform="matrix(0.05,0,0,0.05,20.95,0)" xlink:href="#bP"/><use transform="matrix(0.05,0,0,0.05,30.950000000000003,0)" xlink:href="#cE"/></g><path d="M98-137C97-35 54 29-4 75h-31C23 23 67-41 67-140c0-50-15-89-37-121h31c24 32 36 73 37 124" id="cF"/><g id="an"><use transform="matrix(0.05,0,0,0.05,0,0)" xlink:href="#cs"/><use transform="matrix(0.05,0,0,0.05,10,0)" xlink:href="#cd"/><use transform="matrix(0.05,0,0,0.05,22,0)" xlink:href="#cF"/></g><path d="M6 0l48-248h195l-8 40H98l-12 63h132l-7 40H79L66-40h150l-8 40H6" id="cG"/><path d="M127 0L95-67 37 0h-53l89-99-49-91h52l30 61 52-61h54l-85 92 52 98h-52" id="cH"/><g id="ao"><use transform="matrix(0.05,0,0,0.05,0,0)" xlink:href="#cG"/><use transform="matrix(0.05,0,0,0.05,12,0)" xlink:href="#cH"/><use transform="matrix(0.05,0,0,0.05,22,0)" xlink:href="#bA"/><use transform="matrix(0.05,0,0,0.05,32.95,0)" xlink:href="#br"/><use transform="matrix(0.05,0,0,0.05,42.95,0)" xlink:href="#bu"/><use transform="matrix(0.05,0,0,0.05,52.95,0)" xlink:href="#bx"/><use transform="matrix(0.05,0,0,0.05,58.900000000000006,0)" xlink:href="#br"/><use transform="matrix(0.05,0,0,0.05,68.9,0)" xlink:href="#bq"/></g><path d="M33-248h181l-7 40C159-145 100-94 83 0H31c18-93 73-148 126-207H25" id="cI"/><g id="ap"><use transform="matrix(0.05,0,0,0.05,0,0)" xlink:href="#cI"/><use transform="matrix(0.05,0,0,0.05,10,0)" xlink:href="#cw"/><use transform="matrix(0.05,0,0,0.05,15.949999999999998,0)" xlink:href="#bH"/><use transform="matrix(0.05,0,0,0.05,26.899999999999995,0)" xlink:href="#bt"/><use transform="matrix(0.05,0,0,0.05,31.899999999999995,0)" xlink:href="#bx"/></g><g id="aq"><use transform="matrix(0.05,0,0,0.05,0,0)" xlink:href="#bG"/><use transform="matrix(0.05,0,0,0.05,10,0)" xlink:href="#bq"/><use transform="matrix(0.05,0,0,0.05,20.950000000000003,0)" xlink:href="#bq"/><use transform="matrix(0.05,0,0,0.05,31.900000000000006,0)" xlink:href="#by"/><use transform="matrix(0.05,0,0,0.05,38.900000000000006,0)" xlink:href="#br"/><use transform="matrix(0.05,0,0,0.05,48.900000000000006,0)" xlink:href="#bz"/><use transform="matrix(0.05,0,0,0.05,58.900000000000006,0)" xlink:href="#bz"/><use transform="matrix(0.05,0,0,0.05,68.9,0)" xlink:href="#bJ"/></g><g id="ar"><use transform="matrix(0.05,0,0,0.05,0,0)" xlink:href="#bK"/><use transform="matrix(0.05,0,0,0.05,12.950000000000001,0)" xlink:href="#bX"/><use transform="matrix(0.05,0,0,0.05,22.950000000000003,0)" xlink:href="#bY"/><use transform="matrix(0.05,0,0,0.05,32.95,0)" xlink:href="#ci"/><use transform="matrix(0.05,0,0,0.05,42.95,0)" xlink:href="#bQ"/><use transform="matrix(0.05,0,0,0.05,47.95,0)" xlink:href="#bM"/></g><g id="as"><use transform="matrix(0.05,0,0,0.05,0,0)" xlink:href="#bQ"/><use transform="matrix(0.05,0,0,0.05,5,0)" xlink:href="#bN"/><use transform="matrix(0.05,0,0,0.05,15,0)" xlink:href="#bM"/></g><g id="at"><use transform="matrix(0.05,0,0,0.05,0,0)" xlink:href="#ci"/><use transform="matrix(0.05,0,0,0.05,10,0)" xlink:href="#bY"/><use transform="matrix(0.05,0,0,0.05,20,0)" xlink:href="#bY"/><use transform="matrix(0.05,0,0,0.05,30,0)" xlink:href="#ca"/><use transform="matrix(0.05,0,0,0.05,35.95,0)" xlink:href="#bM"/><use transform="matrix(0.05,0,0,0.05,45.95,0)" xlink:href="#bL"/><use transform="matrix(0.05,0,0,0.05,54.95,0)" xlink:href="#bL"/></g><g id="au"><use transform="matrix(0.05,0,0,0.05,0,0)" xlink:href="#bO"/><use transform="matrix(0.05,0,0,0.05,3.95,0)" xlink:href="#cs"/><use transform="matrix(0.05,0,0,0.05,13.949999999999998,0)" xlink:href="#bR"/></g><g id="av"><use transform="matrix(0.05,0,0,0.05,0,0)" xlink:href="#bR"/><use transform="matrix(0.05,0,0,0.05,9,0)" xlink:href="#bS"/><use transform="matrix(0.05,0,0,0.05,19,0)" xlink:href="#bU"/><use transform="matrix(0.05,0,0,0.05,29,0)" xlink:href="#cl"/><use transform="matrix(0.05,0,0,0.05,34,0)" xlink:href="#bO"/><use transform="matrix(0.05,0,0,0.05,37.95,0)" xlink:href="#bP"/><use transform="matrix(0.05,0,0,0.05,47.95,0)" xlink:href="#bW"/><use transform="matrix(0.05,0,0,0.05,57.95,0)" xlink:href="#ca"/><use transform="matrix(0.05,0,0,0.05,63.900000000000006,0)" xlink:href="#ci"/><use transform="matrix(0.05,0,0,0.05,73.9,0)" xlink:href="#bQ"/><use transform="matrix(0.05,0,0,0.05,78.9,0)" xlink:href="#bO"/><use transform="matrix(0.05,0,0,0.05,82.85000000000001,0)" xlink:href="#bS"/><use transform="matrix(0.05,0,0,0.05,92.85000000000001,0)" xlink:href="#bU"/></g><g id="aw"><use transform="matrix(0.05,0,0,0.05,0,0)" xlink:href="#bX"/><use transform="matrix(0.05,0,0,0.05,10,0)" xlink:href="#bO"/><use transform="matrix(0.05,0,0,0.05,13.949999999999998,0)" xlink:href="#bU"/></g><g id="ax"><use transform="matrix(0.05,0,0,0.05,0,0)" xlink:href="#bX"/><use transform="matrix(0.05,0,0,0.05,10,0)" xlink:href="#bW"/><use transform="matrix(0.05,0,0,0.05,20,0)" xlink:href="#cj"/><use transform="matrix(0.05,0,0,0.05,23.95,0)" xlink:href="#cj"/></g><g id="ay"><use transform="matrix(0.05,0,0,0.05,0,0)" xlink:href="#bW"/><use transform="matrix(0.05,0,0,0.05,10,0)" xlink:href="#bX"/><use transform="matrix(0.05,0,0,0.05,20,0)" xlink:href="#bL"/></g><path d="M-20 4l123-265h28L8 4h-28" id="cJ"/><use transform="matrix(0.05,0,0,0.05,0,0)" xlink:href="#cJ" id="az"/><g id="aA"><use transform="matrix(0.05,0,0,0.05,0,0)" xlink:href="#bY"/><use transform="matrix(0.05,0,0,0.05,10,0)" xlink:href="#bS"/><use transform="matrix(0.05,0,0,0.05,20,0)" xlink:href="#cm"/><use transform="matrix(0.05,0,0,0.05,32.95,0)" xlink:href="#bU"/><use transform="matrix(0.05,0,0,0.05,42.95,0)" xlink:href="#bL"/></g><g id="aB"><use transform="matrix(0.05,0,0,0.05,0,0)" xlink:href="#bA"/><use transform="matrix(0.05,0,0,0.05,10.950000000000001,0)" xlink:href="#bt"/><use transform="matrix(0.05,0,0,0.05,15.950000000000001,0)" xlink:href="#bv"/></g><path d="M93-157L62 0H13l31-157H16l6-33h28c2-54 40-81 100-68l-6 32c-29-8-44 9-45 36h38l-7 33H93" id="cK"/><g id="aC"><use transform="matrix(0.05,0,0,0.05,0,0)" xlink:href="#bu"/><use transform="matrix(0.05,0,0,0.05,10,0)" xlink:href="#bw"/><use transform="matrix(0.05,0,0,0.05,20.950000000000003,0)" xlink:href="#bv"/><use transform="matrix(0.05,0,0,0.05,31.900000000000006,0)" xlink:href="#cK"/><use transform="matrix(0.05,0,0,0.05,37.85000000000001,0)" xlink:href="#bt"/><use transform="matrix(0.05,0,0,0.05,42.85000000000001,0)" xlink:href="#bB"/><use transform="matrix(0.05,0,0,0.05,53.80000000000001,0)" xlink:href="#bJ"/></g><g id="aD"><use transform="matrix(0.05,0,0,0.05,0,0)" xlink:href="#ci"/><use transform="matrix(0.05,0,0,0.05,10,0)" xlink:href="#bY"/><use transform="matrix(0.05,0,0,0.05,20,0)" xlink:href="#bY"/><use transform="matrix(0.05,0,0,0.05,30,0)" xlink:href="#ca"/><use transform="matrix(0.05,0,0,0.05,35.95,0)" xlink:href="#bM"/><use transform="matrix(0.05,0,0,0.05,45.95,0)" xlink:href="#bL"/></g><g id="aE"><use transform="matrix(0.05,0,0,0.05,0,0)" xlink:href="#bR"/><use transform="matrix(0.05,0,0,0.05,9,0)" xlink:href="#bN"/><use transform="matrix(0.05,0,0,0.05,19,0)" xlink:href="#ci"/><use transform="matrix(0.05,0,0,0.05,29,0)" xlink:href="#bU"/><use transform="matrix(0.05,0,0,0.05,39,0)" xlink:href="#bP"/><use transform="matrix(0.05,0,0,0.05,49,0)" xlink:href="#bM"/></g><g id="aF"><use transform="matrix(0.05,0,0,0.05,0,0)" xlink:href="#bR"/><use transform="matrix(0.05,0,0,0.05,9,0)" xlink:href="#bS"/><use transform="matrix(0.05,0,0,0.05,19,0)" xlink:href="#bU"/><use transform="matrix(0.05,0,0,0.05,29,0)" xlink:href="#cl"/><use transform="matrix(0.05,0,0,0.05,34,0)" xlink:href="#bO"/><use transform="matrix(0.05,0,0,0.05,37.95,0)" xlink:href="#bP"/></g><g id="aG"><use transform="matrix(0.05,0,0,0.05,0,0)" xlink:href="#bL"/><use transform="matrix(0.05,0,0,0.05,9,0)" xlink:href="#cj"/><use transform="matrix(0.05,0,0,0.05,12.949999999999998,0)" xlink:href="#ci"/><use transform="matrix(0.05,0,0,0.05,22.95,0)" xlink:href="#cA"/><use transform="matrix(0.05,0,0,0.05,31.950000000000003,0)" xlink:href="#bM"/></g><g id="aH"><use transform="matrix(0.05,0,0,0.05,0,0)" xlink:href="#bX"/><use transform="matrix(0.05,0,0,0.05,10,0)" xlink:href="#bS"/><use transform="matrix(0.05,0,0,0.05,20,0)" xlink:href="#cm"/><use transform="matrix(0.05,0,0,0.05,32.95,0)" xlink:href="#bM"/><use transform="matrix(0.05,0,0,0.05,42.95,0)" xlink:href="#ca"/></g><path d="M76-182c-8-73 125-95 125-21 0 51-54 56-87 74 9 28 22 52 38 74 18-21 33-48 44-75l23 10c-14 30-29 60-51 83 10 12 32 18 53 12l-3 23c-25 10-55 0-69-17C107 16 2 14 6-62c3-51 38-63 75-80-2-12-3-27-5-40zM36-62c0 51 68 50 96 25-18-23-33-52-44-82-24 12-52 20-52 57zm109-166c-39-2-46 38-38 76 28-11 67-14 67-50 0-17-12-25-29-26" id="cL"/><use transform="matrix(0.05,0,0,0.05,0,0)" xlink:href="#cL" id="aI"/><g id="aJ"><use transform="matrix(0.05,0,0,0.05,0,0)" xlink:href="#ca"/><use transform="matrix(0.05,0,0,0.05,5.95,0)" xlink:href="#bM"/><use transform="matrix(0.05,0,0,0.05,15.949999999999998,0)" xlink:href="#bL"/><use transform="matrix(0.05,0,0,0.05,24.95,0)" xlink:href="#bM"/><use transform="matrix(0.05,0,0,0.05,34.95,0)" xlink:href="#bQ"/></g><g id="aK"><use transform="matrix(0.05,0,0,0.05,0,0)" xlink:href="#cj"/><use transform="matrix(0.05,0,0,0.05,3.95,0)" xlink:href="#bO"/><use transform="matrix(0.05,0,0,0.05,7.9,0)" xlink:href="#bU"/><use transform="matrix(0.05,0,0,0.05,17.9,0)" xlink:href="#bM"/><use transform="matrix(0.05,0,0,0.05,27.899999999999995,0)" xlink:href="#bL"/></g><g id="aL"><use transform="matrix(0.05,0,0,0.05,0,0)" xlink:href="#bE"/><use transform="matrix(0.05,0,0,0.05,12,0)" xlink:href="#bI"/><use transform="matrix(0.05,0,0,0.05,17,0)" xlink:href="#bG"/><use transform="matrix(0.05,0,0,0.05,27,0)" xlink:href="#bs"/><use transform="matrix(0.05,0,0,0.05,37,0)" xlink:href="#br"/></g><path d="M212 0h-52l-8-156L82 0H30L17-190h46l2 145 66-145h53l8 145 60-145h47" id="cM"/><g id="aM"><use transform="matrix(0.05,0,0,0.05,0,0)" xlink:href="#bA"/><use transform="matrix(0.05,0,0,0.05,10.950000000000001,0)" xlink:href="#bw"/><use transform="matrix(0.05,0,0,0.05,21.900000000000002,0)" xlink:href="#cM"/><use transform="matrix(0.05,0,0,0.05,35.900000000000006,0)" xlink:href="#br"/><use transform="matrix(0.05,0,0,0.05,45.900000000000006,0)" xlink:href="#by"/><use transform="matrix(0.05,0,0,0.05,52.900000000000006,0)" xlink:href="#br"/><use transform="matrix(0.05,0,0,0.05,62.900000000000006,0)" xlink:href="#bq"/></g><g id="aN"><use transform="matrix(0.05,0,0,0.05,0,0)" xlink:href="#bG"/><use transform="matrix(0.05,0,0,0.05,10,0)" xlink:href="#bv"/><use transform="matrix(0.05,0,0,0.05,20.950000000000003,0)" xlink:href="#bq"/></g><g id="aO"><use transform="matrix(0.05,0,0,0.05,0,0)" xlink:href="#bw"/><use transform="matrix(0.05,0,0,0.05,10.950000000000001,0)" xlink:href="#bD"/><use transform="matrix(0.05,0,0,0.05,21.900000000000002,0)" xlink:href="#bx"/></g><g id="aP"><use transform="matrix(0.05,0,0,0.05,0,0)" xlink:href="#bw"/><use transform="matrix(0.05,0,0,0.05,10.950000000000001,0)" xlink:href="#cK"/></g><g id="aQ"><use transform="matrix(0.05,0,0,0.05,0,0)" xlink:href="#by"/><use transform="matrix(0.05,0,0,0.05,7,0)" xlink:href="#br"/><use transform="matrix(0.05,0,0,0.05,17,0)" xlink:href="#bz"/><use transform="matrix(0.05,0,0,0.05,27,0)" xlink:href="#br"/><use transform="matrix(0.05,0,0,0.05,37,0)" xlink:href="#bx"/><use transform="matrix(0.05,0,0,0.05,42.95,0)" xlink:href="#bJ"/></g><path d="M11 0l48-248h184l-5 28H87l-15 79h140l-5 27H67L50-27h158l-5 27H11" id="cN"/><g id="aR"><use transform="matrix(0.05,0,0,0.05,0,0)" xlink:href="#cN"/><use transform="matrix(0.05,0,0,0.05,12,0)" xlink:href="#bU"/><use transform="matrix(0.05,0,0,0.05,22,0)" xlink:href="#ci"/><use transform="matrix(0.05,0,0,0.05,32,0)" xlink:href="#bV"/><use transform="matrix(0.05,0,0,0.05,42,0)" xlink:href="#cj"/><use transform="matrix(0.05,0,0,0.05,45.95,0)" xlink:href="#bM"/></g><g id="aS"><use transform="matrix(0.05,0,0,0.05,0,0)" xlink:href="#bX"/><use transform="matrix(0.05,0,0,0.05,10,0)" xlink:href="#bS"/><use transform="matrix(0.05,0,0,0.05,20,0)" xlink:href="#cm"/><use transform="matrix(0.05,0,0,0.05,32.95,0)" xlink:href="#bM"/><use transform="matrix(0.05,0,0,0.05,42.95,0)" xlink:href="#ca"/></g><g id="aT"><use transform="matrix(0.05,0,0,0.05,0,0)" xlink:href="#ci"/><use transform="matrix(0.05,0,0,0.05,10,0)" xlink:href="#bU"/><use transform="matrix(0.05,0,0,0.05,20,0)" xlink:href="#bY"/></g><g id="aU"><use transform="matrix(0.05,0,0,0.05,0,0)" xlink:href="#bY"/><use transform="matrix(0.05,0,0,0.05,10,0)" xlink:href="#bM"/><use transform="matrix(0.05,0,0,0.05,20,0)" xlink:href="#ci"/><use transform="matrix(0.05,0,0,0.05,30,0)" xlink:href="#bL"/><use transform="matrix(0.05,0,0,0.05,39,0)" xlink:href="#bL"/><use transform="matrix(0.05,0,0,0.05,48,0)" xlink:href="#bM"/><use transform="matrix(0.05,0,0,0.05,58,0)" xlink:href="#ca"/><use transform="matrix(0.05,0,0,0.05,63.95,0)" xlink:href="#bQ"/></g><g id="aV"><use transform="matrix(0.05,0,0,0.05,0,0)" xlink:href="#cA"/><use transform="matrix(0.05,0,0,0.05,9,0)" xlink:href="#bO"/><use transform="matrix(0.05,0,0,0.05,12.949999999999998,0)" xlink:href="#ci"/></g><g id="aW"><use transform="matrix(0.05,0,0,0.05,0,0)" xlink:href="#cl"/><use transform="matrix(0.05,0,0,0.05,5,0)" xlink:href="#bO"/><use transform="matrix(0.05,0,0,0.05,8.95,0)" xlink:href="#ca"/><use transform="matrix(0.05,0,0,0.05,14.899999999999999,0)" xlink:href="#bT"/><use transform="matrix(0.05,0,0,0.05,29.85,0)" xlink:href="#cm"/><use transform="matrix(0.05,0,0,0.05,42.800000000000004,0)" xlink:href="#ci"/><use transform="matrix(0.05,0,0,0.05,52.800000000000004,0)" xlink:href="#ca"/><use transform="matrix(0.05,0,0,0.05,58.75,0)" xlink:href="#bM"/></g><g id="aX"><use transform="matrix(0.05,0,0,0.05,0,0)" xlink:href="#ca"/><use transform="matrix(0.05,0,0,0.05,5.95,0)" xlink:href="#bM"/><use transform="matrix(0.05,0,0,0.05,15.949999999999998,0)" xlink:href="#cm"/><use transform="matrix(0.05,0,0,0.05,28.899999999999995,0)" xlink:href="#bS"/><use transform="matrix(0.05,0,0,0.05,38.9,0)" xlink:href="#ca"/><use transform="matrix(0.05,0,0,0.05,44.85,0)" xlink:href="#ck"/></g><g id="aY"><use transform="matrix(0.05,0,0,0.05,0,0)" xlink:href="#cB"/><use transform="matrix(0.05,0,0,0.05,9.3,0)" xlink:href="#bM"/><use transform="matrix(0.05,0,0,0.05,19.3,0)" xlink:href="#bL"/><use transform="matrix(0.05,0,0,0.05,28.3,0)" xlink:href="#bQ"/></g><g id="aZ"><use transform="matrix(0.05,0,0,0.05,0,0)" xlink:href="#ci"/><use transform="matrix(0.05,0,0,0.05,10,0)" xlink:href="#bU"/><use transform="matrix(0.05,0,0,0.05,20,0)" xlink:href="#bS"/><use transform="matrix(0.05,0,0,0.05,30,0)" xlink:href="#bQ"/><use transform="matrix(0.05,0,0,0.05,35,0)" xlink:href="#bN"/><use transform="matrix(0.05,0,0,0.05,45,0)" xlink:href="#bM"/><use transform="matrix(0.05,0,0,0.05,55,0)" xlink:href="#ca"/></g><g id="ba"><use transform="matrix(0.05,0,0,0.05,0,0)" xlink:href="#bV"/><use transform="matrix(0.05,0,0,0.05,10,0)" xlink:href="#bS"/><use transform="matrix(0.05,0,0,0.05,20,0)" xlink:href="#ci"/><use transform="matrix(0.05,0,0,0.05,30,0)" xlink:href="#ca"/><use transform="matrix(0.05,0,0,0.05,35.95,0)" xlink:href="#bY"/></g><g id="bb"><use transform="matrix(0.05,0,0,0.05,0,0)" xlink:href="#cr"/><use transform="matrix(0.05,0,0,0.05,5,0)" xlink:href="#cp"/></g><path d="M18-101c0-91 52-150 145-150 68 0 111 34 111 101C274-54 221 4 128 4 59 4 18-33 18-101zm202-32c4-46-15-77-59-77-65 0-88 46-91 108-2 41 22 65 60 65 60 0 84-40 90-96" id="cO"/><g id="bc"><use transform="matrix(0.05,0,0,0.05,0,0)" xlink:href="#cO"/><use transform="matrix(0.05,0,0,0.05,14,0)" xlink:href="#bx"/><use transform="matrix(0.05,0,0,0.05,19.95,0)" xlink:href="#cg"/><use transform="matrix(0.05,0,0,0.05,30.899999999999995,0)" xlink:href="#br"/><use transform="matrix(0.05,0,0,0.05,40.9,0)" xlink:href="#by"/></g><path d="M-13 7L90-261h42L29 7h-42" id="cP"/><g id="bd"><use transform="matrix(0.05,0,0,0.05,0,0)" xlink:href="#bH"/><use transform="matrix(0.05,0,0,0.05,10.950000000000001,0)" xlink:href="#bw"/><use transform="matrix(0.05,0,0,0.05,21.900000000000002,0)" xlink:href="#bG"/><use transform="matrix(0.05,0,0,0.05,31.900000000000002,0)" xlink:href="#by"/><use transform="matrix(0.05,0,0,0.05,38.900000000000006,0)" xlink:href="#bq"/><use transform="matrix(0.05,0,0,0.05,49.85000000000001,0)" xlink:href="#cP"/><use transform="matrix(0.05,0,0,0.05,54.85,0)" xlink:href="#bn"/><use transform="matrix(0.05,0,0,0.05,59.85,0)" xlink:href="#bp"/></g><g id="be"><use transform="matrix(0.05,0,0,0.05,0,0)" xlink:href="#bz"/><use transform="matrix(0.05,0,0,0.05,10,0)" xlink:href="#br"/><use transform="matrix(0.05,0,0,0.05,20,0)" xlink:href="#br"/><use transform="matrix(0.05,0,0,0.05,30,0)" xlink:href="#bz"/></g><g id="bf"><use transform="matrix(0.05,0,0,0.05,0,0)" xlink:href="#bt"/><use transform="matrix(0.05,0,0,0.05,5,0)" xlink:href="#bz"/><use transform="matrix(0.05,0,0,0.05,15,0)" xlink:href="#bz"/><use transform="matrix(0.05,0,0,0.05,25,0)" xlink:href="#bD"/><use transform="matrix(0.05,0,0,0.05,35.95,0)" xlink:href="#br"/><use transform="matrix(0.05,0,0,0.05,45.95,0)" xlink:href="#bJ"/></g><g id="bg"><use transform="matrix(0.05,0,0,0.05,0,0)" xlink:href="#cx"/><use transform="matrix(0.05,0,0,0.05,12.950000000000001,0)" xlink:href="#bM"/><use transform="matrix(0.05,0,0,0.05,22.950000000000003,0)" xlink:href="#bX"/><use transform="matrix(0.05,0,0,0.05,32.95,0)" xlink:href="#cj"/><use transform="matrix(0.05,0,0,0.05,36.900000000000006,0)" xlink:href="#ci"/><use transform="matrix(0.05,0,0,0.05,46.900000000000006,0)" xlink:href="#bR"/><use transform="matrix(0.05,0,0,0.05,55.900000000000006,0)" xlink:href="#bM"/></g><g id="bh"><use transform="matrix(0.3506944444445204,0,0,0.3506944444445204,0,0)" xlink:href="#cr"/><use transform="matrix(0.3506944444445204,0,0,0.3506944444445204,35.06944444445204,0)" xlink:href="#cs"/><use transform="matrix(0.3506944444445204,0,0,0.3506944444445204,105.20833333335611,0)" xlink:href="#cp"/></g><g id="bi"><use transform="matrix(0.3506944444445204,0,0,0.3506944444445204,0,0)" xlink:href="#ch"/><use transform="matrix(0.3506944444445204,0,0,0.3506944444445204,90.82986111113078,0)" xlink:href="#bM"/><use transform="matrix(0.3506944444445204,0,0,0.3506944444445204,160.96875000003485,0)" xlink:href="#bV"/><use transform="matrix(0.3506944444445204,0,0,0.3506944444445204,231.10763888893896,0)" xlink:href="#bW"/><use transform="matrix(0.3506944444445204,0,0,0.3506944444445204,301.246527777843,0)" xlink:href="#bP"/><use transform="matrix(0.3506944444445204,0,0,0.3506944444445204,371.3854166667471,0)" xlink:href="#bP"/><use transform="matrix(0.3506944444445204,0,0,0.3506944444445204,441.5243055556512,0)" xlink:href="#bO"/><use transform="matrix(0.3506944444445204,0,0,0.3506944444445204,469.2291666667683,0)" xlink:href="#bU"/><use transform="matrix(0.3506944444445204,0,0,0.3506944444445204,539.3680555556724,0)" xlink:href="#bP"/></g><g id="bj"><use transform="matrix(0.05,0,0,0.05,0,0)" xlink:href="#cu"/><use transform="matrix(0.05,0,0,0.05,10.950000000000001,0)" xlink:href="#bt"/><use transform="matrix(0.05,0,0,0.05,15.950000000000001,0)" xlink:href="#bv"/><use transform="matrix(0.05,0,0,0.05,26.900000000000002,0)" xlink:href="#br"/></g><path d="M11 0l48-248h34L50-27h125l-5 27H11" id="cQ"/><g id="bk"><use transform="matrix(0.05,0,0,0.05,0,0)" xlink:href="#cQ"/><use transform="matrix(0.05,0,0,0.05,10,0)" xlink:href="#bS"/><use transform="matrix(0.05,0,0,0.05,20,0)" xlink:href="#cm"/></g><path d="M179 0l23-115H67L45 0H11l48-248h34L72-143h135l21-105h32L212 0h-33" id="cR"/><g id="bl"><use transform="matrix(0.05,0,0,0.05,0,0)" xlink:href="#cR"/><use transform="matrix(0.05,0,0,0.05,12.950000000000001,0)" xlink:href="#bO"/><use transform="matrix(0.05,0,0,0.05,16.900000000000002,0)" xlink:href="#bP"/><use transform="matrix(0.05,0,0,0.05,26.900000000000002,0)" xlink:href="#bN"/></g><g id="bm"><use transform="matrix(0.05,0,0,0.05,0,0)" xlink:href="#cB"/><use transform="matrix(0.05,0,0,0.05,9.3,0)" xlink:href="#bS"/><use transform="matrix(0.05,0,0,0.05,19.3,0)" xlink:href="#bP"/><use transform="matrix(0.05,0,0,0.05,29.3,0)" xlink:href="#bP"/><use transform="matrix(0.05,0,0,0.05,39.3,0)" xlink:href="#cj"/><use transform="matrix(0.05,0,0,0.05,43.25,0)" xlink:href="#bO"/><use transform="matrix(0.05,0,0,0.05,47.2,0)" xlink:href="#bU"/><use transform="matrix(0.05,0,0,0.05,57.2,0)" xlink:href="#bP"/></g></defs></g></svg>