<svg version="1.1" viewBox="0.0 0.0 600.0 371.0" fill="none" stroke="none" stroke-linecap="square" stroke-miterlimit="10" width="600" height="371" xmlns:xlink="http://www.w3.org/1999/xlink" xmlns="http://www.w3.org/2000/svg"><path fill="#ffffff" d="M0 0L600.0 0L600.0 371.0L0 371.0L0 0Z" fill-rule="nonzero"/><path stroke="#333333" stroke-width="1.0" stroke-linecap="butt" d="M77.5 300.5L581.5 300.5" fill-rule="nonzero"/><path stroke="#cccccc" stroke-width="1.0" stroke-linecap="butt" d="M77.5 265.5L581.5 265.5" fill-rule="nonzero"/><path stroke="#cccccc" stroke-width="1.0" stroke-linecap="butt" d="M77.5 229.5L581.5 229.5" fill-rule="nonzero"/><path stroke="#cccccc" stroke-width="1.0" stroke-linecap="butt" d="M77.5 194.5L581.5 194.5" fill-rule="nonzero"/><path stroke="#cccccc" stroke-width="1.0" stroke-linecap="butt" d="M77.5 159.5L581.5 159.5" fill-rule="nonzero"/><path stroke="#cccccc" stroke-width="1.0" stroke-linecap="butt" d="M77.5 123.5L581.5 123.5" fill-rule="nonzero"/><path stroke="#cccccc" stroke-width="1.0" stroke-linecap="butt" d="M77.5 88.5L581.5 88.5" fill-rule="nonzero"/><path stroke="#e6e6e6" stroke-width="1.0" stroke-linecap="butt" d="M77.5 288.5L581.5 288.5" fill-rule="nonzero"/><path stroke="#e6e6e6" stroke-width="1.0" stroke-linecap="butt" d="M77.5 276.5L581.5 276.5" fill-rule="nonzero"/><path stroke="#e6e6e6" stroke-width="1.0" stroke-linecap="butt" d="M77.5 253.5L581.5 253.5" fill-rule="nonzero"/><path stroke="#e6e6e6" stroke-width="1.0" stroke-linecap="butt" d="M77.5 241.5L581.5 241.5" fill-rule="nonzero"/><path stroke="#e6e6e6" stroke-width="1.0" stroke-linecap="butt" d="M77.5 217.5L581.5 217.5" fill-rule="nonzero"/><path stroke="#e6e6e6" stroke-width="1.0" stroke-linecap="butt" d="M77.5 206.5L581.5 206.5" fill-rule="nonzero"/><path stroke="#e6e6e6" stroke-width="1.0" stroke-linecap="butt" d="M77.5 182.5L581.5 182.5" fill-rule="nonzero"/><path stroke="#e6e6e6" stroke-width="1.0" stroke-linecap="butt" d="M77.5 170.5L581.5 170.5" fill-rule="nonzero"/><path stroke="#e6e6e6" stroke-width="1.0" stroke-linecap="butt" d="M77.5 147.5L581.5 147.5" fill-rule="nonzero"/><path stroke="#e6e6e6" stroke-width="1.0" stroke-linecap="butt" d="M77.5 135.5L581.5 135.5" fill-rule="nonzero"/><path stroke="#e6e6e6" stroke-width="1.0" stroke-linecap="butt" d="M77.5 111.5L581.5 111.5" fill-rule="nonzero"/><path stroke="#e6e6e6" stroke-width="1.0" stroke-linecap="butt" d="M77.5 100.5L581.5 100.5" fill-rule="nonzero"/><clipPath id="id_0"><path d="M77.55 88.28333L581.45 88.28333L581.45 300.45L77.55 300.45L77.55 88.28333Z" clip-rule="nonzero"/></clipPath><path stroke="#000000" stroke-width="0.0" stroke-linecap="butt" stroke-opacity="0.0" clip-path="url(#id_0)" d="M130.0 300.0L105.0 300.0L105.0 248.0C105.0 246.89543 105.89543 246.0 107.0 246.0L128.0 246.0C129.10457 246.0 130.0 246.89543 130.0 248.0Z" fill-rule="nonzero"/><path fill="#4285f4" clip-path="url(#id_0)" d="M130.0 300.0L105.0 300.0L105.0 248.0C105.0 246.89543 105.89543 246.0 107.0 246.0L128.0 246.0C129.10457 246.0 130.0 246.89543 130.0 248.0Z" fill-rule="nonzero"/><path stroke="#000000" stroke-width="0.0" stroke-linecap="butt" stroke-opacity="0.0" clip-path="url(#id_0)" d="M209.0 300.0L184.0 300.0L184.0 253.0C184.0 251.89543 184.89543 251.0 186.0 251.0L207.0 251.0C208.10457 251.0 209.0 251.89543 209.0 253.0Z" fill-rule="nonzero"/><path fill="#4285f4" clip-path="url(#id_0)" d="M209.0 300.0L184.0 300.0L184.0 253.0C184.0 251.89543 184.89543 251.0 186.0 251.0L207.0 251.0C208.10457 251.0 209.0 251.89543 209.0 253.0Z" fill-rule="nonzero"/><path stroke="#000000" stroke-width="0.0" stroke-linecap="butt" stroke-opacity="0.0" clip-path="url(#id_0)" d="M289.0 300.0L264.0 300.0L264.0 252.0C264.0 250.89543 264.89542 250.0 266.0 250.0L287.0 250.0C288.10458 250.0 289.0 250.89543 289.0 252.0Z" fill-rule="nonzero"/><path fill="#4285f4" clip-path="url(#id_0)" d="M289.0 300.0L264.0 300.0L264.0 252.0C264.0 250.89543 264.89542 250.0 266.0 250.0L287.0 250.0C288.10458 250.0 289.0 250.89543 289.0 252.0Z" fill-rule="nonzero"/><path stroke="#000000" stroke-width="0.0" stroke-linecap="butt" stroke-opacity="0.0" clip-path="url(#id_0)" d="M368.0 300.0L343.0 300.0L343.0 93.0C343.0 91.89543 343.89542 91.0 345.0 91.0L366.0 91.0C367.10458 91.0 368.0 91.89543 368.0 93.0Z" fill-rule="nonzero"/><path fill="#4285f4" clip-path="url(#id_0)" d="M368.0 300.0L343.0 300.0L343.0 93.0C343.0 91.89543 343.89542 91.0 345.0 91.0L366.0 91.0C367.10458 91.0 368.0 91.89543 368.0 93.0Z" fill-rule="nonzero"/><path stroke="#000000" stroke-width="0.0" stroke-linecap="butt" stroke-opacity="0.0" clip-path="url(#id_0)" d="M448.0 300.0L423.0 300.0L423.0 244.0C423.0 242.89543 423.89542 242.0 425.0 242.0L446.0 242.0C447.10458 242.0 448.0 242.89543 448.0 244.0Z" fill-rule="nonzero"/><path fill="#4285f4" clip-path="url(#id_0)" d="M448.0 300.0L423.0 300.0L423.0 244.0C423.0 242.89543 423.89542 242.0 425.0 242.0L446.0 242.0C447.10458 242.0 448.0 242.89543 448.0 244.0Z" fill-rule="nonzero"/><path stroke="#000000" stroke-width="0.0" stroke-linecap="butt" stroke-opacity="0.0" clip-path="url(#id_0)" d="M527.0 300.0L502.0 300.0L502.0 235.0C502.0 233.89543 502.89542 233.0 504.0 233.0L525.0 233.0C526.10455 233.0 527.0 233.89543 527.0 235.0Z" fill-rule="nonzero"/><path fill="#4285f4" clip-path="url(#id_0)" d="M527.0 300.0L502.0 300.0L502.0 235.0C502.0 233.89543 502.89542 233.0 504.0 233.0L525.0 233.0C526.10455 233.0 527.0 233.89543 527.0 235.0Z" fill-rule="nonzero"/><path stroke="#000000" stroke-width="0.0" stroke-linecap="butt" stroke-opacity="0.0" clip-path="url(#id_0)" d="M156.0 300.0L131.0 300.0L131.0 286.0C131.0 284.89542 131.89543 284.0 133.0 284.0L154.0 284.0C155.10457 284.0 156.0 284.89542 156.0 286.0Z" fill-rule="nonzero"/><path fill="#ea4335" clip-path="url(#id_0)" d="M156.0 300.0L131.0 300.0L131.0 286.0C131.0 284.89542 131.89543 284.0 133.0 284.0L154.0 284.0C155.10457 284.0 156.0 284.89542 156.0 286.0Z" fill-rule="nonzero"/><path stroke="#000000" stroke-width="0.0" stroke-linecap="butt" stroke-opacity="0.0" clip-path="url(#id_0)" d="M235.0 300.0L210.0 300.0L210.0 285.0C210.0 283.89542 210.89543 283.0 212.0 283.0L233.0 283.0C234.10457 283.0 235.0 283.89542 235.0 285.0Z" fill-rule="nonzero"/><path fill="#ea4335" clip-path="url(#id_0)" d="M235.0 300.0L210.0 300.0L210.0 285.0C210.0 283.89542 210.89543 283.0 212.0 283.0L233.0 283.0C234.10457 283.0 235.0 283.89542 235.0 285.0Z" fill-rule="nonzero"/><path stroke="#000000" stroke-width="0.0" stroke-linecap="butt" stroke-opacity="0.0" clip-path="url(#id_0)" d="M315.0 300.0L290.0 300.0L290.0 287.0C290.0 285.89542 290.89542 285.0 292.0 285.0L313.0 285.0C314.10458 285.0 315.0 285.89542 315.0 287.0Z" fill-rule="nonzero"/><path fill="#ea4335" clip-path="url(#id_0)" d="M315.0 300.0L290.0 300.0L290.0 287.0C290.0 285.89542 290.89542 285.0 292.0 285.0L313.0 285.0C314.10458 285.0 315.0 285.89542 315.0 287.0Z" fill-rule="nonzero"/><path stroke="#000000" stroke-width="0.0" stroke-linecap="butt" stroke-opacity="0.0" clip-path="url(#id_0)" d="M394.0 300.0L369.0 300.0L369.0 153.0C369.0 151.89543 369.89542 151.0 371.0 151.0L392.0 151.0C393.10458 151.0 394.0 151.89543 394.0 153.0Z" fill-rule="nonzero"/><path fill="#ea4335" clip-path="url(#id_0)" d="M394.0 300.0L369.0 300.0L369.0 153.0C369.0 151.89543 369.89542 151.0 371.0 151.0L392.0 151.0C393.10458 151.0 394.0 151.89543 394.0 153.0Z" fill-rule="nonzero"/><path stroke="#000000" stroke-width="0.0" stroke-linecap="butt" stroke-opacity="0.0" clip-path="url(#id_0)" d="M474.0 300.0L449.0 300.0L449.0 282.0C449.0 280.89542 449.89542 280.0 451.0 280.0L472.0 280.0C473.10458 280.0 474.0 280.89542 474.0 282.0Z" fill-rule="nonzero"/><path fill="#ea4335" clip-path="url(#id_0)" d="M474.0 300.0L449.0 300.0L449.0 282.0C449.0 280.89542 449.89542 280.0 451.0 280.0L472.0 280.0C473.10458 280.0 474.0 280.89542 474.0 282.0Z" fill-rule="nonzero"/><path stroke="#000000" stroke-width="0.0" stroke-linecap="butt" stroke-opacity="0.0" clip-path="url(#id_0)" d="M553.0 300.0L528.0 300.0L528.0 283.0C528.0 281.89542 528.89545 281.0 530.0 281.0L551.0 281.0C552.10455 281.0 553.0 281.89542 553.0 283.0Z" fill-rule="nonzero"/><path fill="#ea4335" clip-path="url(#id_0)" d="M553.0 300.0L528.0 300.0L528.0 283.0C528.0 281.89542 528.89545 281.0 530.0 281.0L551.0 281.0C552.10455 281.0 553.0 281.89542 553.0 283.0Z" fill-rule="nonzero"/><path fill="#000000" d="M311.5625 346.4344L312.6875 346.73126Q312.32812 348.1219 311.40625 348.85626Q310.48438 349.59064 309.14062 349.59064Q307.75 349.59064 306.875 349.02814Q306.0 348.46564 305.54688 347.40314Q305.09375 346.325 305.09375 345.09064Q305.09375 343.7469 305.60938 342.7469Q306.125 341.7469 307.0625 341.23126Q308.01562 340.71564 309.15625 340.71564Q310.4375 340.71564 311.3125 341.3719Q312.20312 342.02814 312.54688 343.21564L311.42188 343.48126Q311.125 342.54376 310.54688 342.1219Q309.98438 341.6844 309.125 341.6844Q308.14062 341.6844 307.46875 342.16876Q306.8125 342.6375 306.53125 343.4344Q306.26562 344.23126 306.26562 345.09064Q306.26562 346.1844 306.57812 346.9969Q306.90625 347.8094 307.57812 348.21564Q308.25 348.6219 309.04688 348.6219Q310.0 348.6219 310.65625 348.075Q311.32812 347.52814 311.5625 346.4344ZM313.90625 346.34064Q313.90625 344.60626 314.85938 343.77814Q315.65625 343.09064 316.8125 343.09064Q318.09375 343.09064 318.90625 343.9344Q319.73438 344.7625 319.73438 346.2469Q319.73438 347.45 319.375 348.1375Q319.01562 348.825 318.3125 349.21564Q317.625 349.59064 316.8125 349.59064Q315.51562 349.59064 314.70312 348.7625Q313.90625 347.91876 313.90625 346.34064ZM314.98438 346.34064Q314.98438 347.52814 315.5 348.1219Q316.03125 348.71564 316.8125 348.71564Q317.60938 348.71564 318.125 348.1219Q318.64062 347.52814 318.64062 346.3094Q318.64062 345.15314 318.10938 344.5594Q317.59375 343.96564 316.8125 343.96564Q316.03125 343.96564 315.5 344.5594Q314.98438 345.1375 314.98438 346.34064ZM321.29688 349.45L321.29688 343.23126L322.23438 343.23126L322.23438 344.10626Q322.53125 343.6375 323.01562 343.3719Q323.5 343.09064 324.125 343.09064Q324.8125 343.09064 325.25 343.3719Q325.70312 343.65314 325.875 344.16876Q326.625 343.09064 327.79688 343.09064Q328.73438 343.09064 329.21875 343.60626Q329.71875 344.10626 329.71875 345.1844L329.71875 349.45L328.67188 349.45L328.67188 345.52814Q328.67188 344.90314 328.5625 344.6219Q328.46875 344.34064 328.20312 344.16876Q327.9375 343.9969 327.5625 343.9969Q326.90625 343.9969 326.46875 344.4344Q326.04688 344.8719 326.04688 345.84064L326.04688 349.45L324.98438 349.45L324.98438 345.40314Q324.98438 344.7 324.71875 344.35626Q324.46875 343.9969 323.89062 343.9969Q323.4375 343.9969 323.0625 344.23126Q322.6875 344.46564 322.51562 344.91876Q322.34375 345.3719 322.34375 346.21564L322.34375 349.45L321.29688 349.45ZM331.29688 351.84064L331.29688 343.23126L332.25 343.23126L332.25 344.02814Q332.59375 343.5594 333.01562 343.325Q333.45312 343.09064 334.0625 343.09064Q334.85938 343.09064 335.46875 343.4969Q336.07812 343.90314 336.375 344.65314Q336.6875 345.40314 336.6875 346.29376Q336.6875 347.2469 336.34375 348.0125Q336.01562 348.77814 335.35938 349.1844Q334.70312 349.59064 333.98438 349.59064Q333.45312 349.59064 333.03125 349.3719Q332.60938 349.1375 332.34375 348.8094L332.34375 351.84064L331.29688 351.84064ZM332.25 346.3719Q332.25 347.575 332.73438 348.15314Q333.21875 348.71564 333.90625 348.71564Q334.60938 348.71564 335.10938 348.1219Q335.60938 347.52814 335.60938 346.27814Q335.60938 345.09064 335.125 344.5125Q334.64062 343.91876 333.95312 343.91876Q333.28125 343.91876 332.76562 344.54376Q332.25 345.16876 332.25 346.3719ZM338.29688 342.075L338.29688 340.85626L339.35938 340.85626L339.35938 342.075L338.29688 342.075ZM338.29688 349.45L338.29688 343.23126L339.35938 343.23126L339.35938 349.45L338.29688 349.45ZM341.26562 349.45L341.26562 340.85626L342.32812 340.85626L342.32812 349.45L341.26562 349.45ZM348.54688 347.45L349.64062 347.575Q349.39062 348.52814 348.6875 349.0594Q347.98438 349.59064 346.90625 349.59064Q345.54688 349.59064 344.73438 348.7469Q343.9375 347.90314 343.9375 346.3875Q343.9375 344.825 344.75 343.96564Q345.5625 343.09064 346.84375 343.09064Q348.09375 343.09064 348.875 343.9344Q349.67188 344.77814 349.67188 346.325Q349.67188 346.41876 349.67188 346.60626L345.03125 346.60626Q345.09375 347.6375 345.60938 348.1844Q346.125 348.71564 346.90625 348.71564Q347.48438 348.71564 347.89062 348.41876Q348.3125 348.10626 348.54688 347.45ZM345.09375 345.7469L348.5625 345.7469Q348.5 344.95 348.17188 344.5594Q347.65625 343.95 346.85938 343.95Q346.125 343.95 345.625 344.4344Q345.14062 344.91876 345.09375 345.7469ZM351.28125 349.45L351.28125 343.23126L352.23438 343.23126L352.23438 344.16876Q352.59375 343.5125 352.89062 343.3094Q353.20312 343.09064 353.57812 343.09064Q354.10938 343.09064 354.65625 343.41876L354.29688 344.40314Q353.90625 344.16876 353.53125 344.16876Q353.17188 344.16876 352.89062 344.3875Q352.625 344.59064 352.51562 344.96564Q352.32812 345.52814 352.32812 346.1844L352.32812 349.45L351.28125 349.45Z" fill-rule="nonzero"/><path fill="#000000" d="M29.550013 239.7573L21.971888 239.7573L21.971888 242.58542L20.956263 242.58542L20.956263 235.77292L21.971888 235.77292L21.971888 238.61667L29.550013 238.61667L29.550013 239.7573ZM22.175013 235.0698L20.956263 235.0698L20.956263 234.0073L22.175013 234.0073L22.175013 235.0698ZM29.550013 235.0698L23.331263 235.0698L23.331263 234.0073L29.550013 234.0073L29.550013 235.0698ZM29.550013 232.0698L23.331263 232.0698L23.331263 231.1323L24.206263 231.1323Q23.737513 230.83542 23.471888 230.35104Q23.190638 229.86667 23.190638 229.24167Q23.190638 228.55417 23.471888 228.11667Q23.753138 227.66354 24.268763 227.49167Q23.190638 226.74167 23.190638 225.5698Q23.190638 224.6323 23.706263 224.14792Q24.206263 223.64792 25.284388 223.64792L29.550013 223.64792L29.550013 224.6948L25.628138 224.6948Q25.003138 224.6948 24.721888 224.80417Q24.440638 224.89792 24.268763 225.16354Q24.096888 225.42917 24.096888 225.80417Q24.096888 226.46042 24.534388 226.89792Q24.971888 227.3198 25.940638 227.3198L29.550013 227.3198L29.550013 228.3823L25.503138 228.3823Q24.800013 228.3823 24.456263 228.64792Q24.096888 228.89792 24.096888 229.47604Q24.096888 229.92917 24.331263 230.30417Q24.565638 230.67917 25.018763 230.85104Q25.471888 231.02292 26.315638 231.02292L29.550013 231.02292L29.550013 232.0698ZM27.550013 217.8198L27.675013 216.72604Q28.628138 216.97604 29.159388 217.67917Q29.690638 218.3823 29.690638 219.46042Q29.690638 220.8198 28.846888 221.6323Q28.003138 222.42917 26.487513 222.42917Q24.925013 222.42917 24.065638 221.61667Q23.190638 220.80417 23.190638 219.52292Q23.190638 218.27292 24.034388 217.49167Q24.878138 216.6948 26.425013 216.6948Q26.518763 216.6948 26.706263 216.6948L26.706263 221.33542Q27.737513 221.27292 28.284388 220.7573Q28.815638 220.24167 28.815638 219.46042Q28.815638 218.8823 28.518763 218.47604Q28.206263 218.05417 27.550013 217.8198ZM25.846888 221.27292L25.846888 217.80417Q25.050013 217.86667 24.659388 218.1948Q24.050013 218.71042 24.050013 219.5073Q24.050013 220.24167 24.534388 220.74167Q25.018763 221.22604 25.846888 221.27292ZM32.08126 210.05417Q30.971888 210.92917 29.503138 211.53854Q28.018763 212.1323 26.440638 212.1323Q25.050013 212.1323 23.768763 211.6948Q22.284388 211.16354 20.815638 210.05417L20.815638 209.30417Q22.034388 210.0073 22.550013 210.24167Q23.362513 210.60104 24.237513 210.80417Q25.331263 211.05417 26.440638 211.05417Q29.268763 211.05417 32.08126 209.30417L32.08126 210.05417ZM27.690638 208.49167L27.534388 207.46042Q28.159388 207.36667 28.487513 206.97604Q28.815638 206.5698 28.815638 205.83542Q28.815638 205.11667 28.534388 204.77292Q28.237513 204.41354 27.831263 204.41354Q27.471888 204.41354 27.268763 204.72604Q27.128138 204.9448 26.909388 205.80417Q26.612513 206.96042 26.409388 207.41354Q26.190638 207.85104 25.815638 208.08542Q25.440638 208.3198 24.971888 208.3198Q24.565638 208.3198 24.206263 208.1323Q23.846888 207.9448 23.612513 207.61667Q23.440638 207.36667 23.315638 206.9448Q23.190638 206.52292 23.190638 206.02292Q23.190638 205.30417 23.409388 204.7573Q23.612513 204.1948 23.971888 203.92917Q24.331263 203.66354 24.925013 203.5698L25.065638 204.60104Q24.596888 204.66354 24.331263 205.0073Q24.050013 205.33542 24.050013 205.96042Q24.050013 206.67917 24.300013 206.99167Q24.534388 207.30417 24.862513 207.30417Q25.065638 207.30417 25.221888 207.17917Q25.393763 207.03854 25.503138 206.77292Q25.565638 206.61667 25.768763 205.83542Q26.081263 204.71042 26.268763 204.27292Q26.456263 203.83542 26.815638 203.58542Q27.175013 203.33542 27.721888 203.33542Q28.253138 203.33542 28.721888 203.64792Q29.175013 203.9448 29.440638 204.52292Q29.690638 205.10104 29.690638 205.83542Q29.690638 207.05417 29.190638 207.6948Q28.675013 208.3198 27.690638 208.49167ZM27.550013 197.8198L27.675013 196.72604Q28.628138 196.97604 29.159388 197.67917Q29.690638 198.3823 29.690638 199.46042Q29.690638 200.8198 28.846888 201.6323Q28.003138 202.42917 26.487513 202.42917Q24.925013 202.42917 24.065638 201.61667Q23.190638 200.80417 23.190638 199.52292Q23.190638 198.27292 24.034388 197.49167Q24.878138 196.6948 26.425013 196.6948Q26.518763 196.6948 26.706263 196.6948L26.706263 201.33542Q27.737513 201.27292 28.284388 200.7573Q28.815638 200.24167 28.815638 199.46042Q28.815638 198.8823 28.518763 198.47604Q28.206263 198.05417 27.550013 197.8198ZM25.846888 201.27292L25.846888 197.80417Q25.050013 197.86667 24.659388 198.1948Q24.050013 198.71042 24.050013 199.5073Q24.050013 200.24167 24.534388 200.74167Q25.018763 201.22604 25.846888 201.27292ZM27.268763 191.0073L27.409388 189.97604Q28.471888 190.14792 29.081263 190.85104Q29.690638 191.55417 29.690638 192.5698Q29.690638 193.85104 28.862513 194.6323Q28.018763 195.39792 26.456263 195.39792Q25.456263 195.39792 24.706263 195.0698Q23.940638 194.72604 23.565638 194.05417Q23.190638 193.36667 23.190638 192.55417Q23.190638 191.55417 23.706263 190.91354Q24.206263 190.2573 25.159388 190.0698L25.315638 191.10104Q24.690638 191.24167 24.378138 191.61667Q24.050013 191.99167 24.050013 192.52292Q24.050013 193.3198 24.628138 193.8198Q25.190638 194.3198 26.425013 194.3198Q27.690638 194.3198 28.253138 193.83542Q28.815638 193.35104 28.815638 192.58542Q28.815638 191.96042 28.440638 191.55417Q28.065638 191.1323 27.268763 191.0073ZM26.440638 189.46042Q24.706263 189.46042 23.878138 188.5073Q23.190638 187.71042 23.190638 186.55417Q23.190638 185.27292 24.034388 184.46042Q24.862513 183.6323 26.346888 183.6323Q27.550013 183.6323 28.237513 183.99167Q28.925013 184.35104 29.315638 185.05417Q29.690638 185.74167 29.690638 186.55417Q29.690638 187.85104 28.862513 188.66354Q28.018763 189.46042 26.440638 189.46042ZM26.440638 188.3823Q27.628138 188.3823 28.221888 187.86667Q28.815638 187.33542 28.815638 186.55417Q28.815638 185.7573 28.221888 185.24167Q27.628138 184.72604 26.409388 184.72604Q25.253138 184.72604 24.659388 185.2573Q24.065638 185.77292 24.065638 186.55417Q24.065638 187.33542 24.659388 187.86667Q25.237513 188.3823 26.440638 188.3823ZM29.550013 182.0698L23.331263 182.0698L23.331263 181.1323L24.206263 181.1323Q23.190638 180.4448 23.190638 179.14792Q23.190638 178.58542 23.393763 178.11667Q23.596888 177.6323 23.925013 177.39792Q24.253138 177.16354 24.690638 177.0698Q24.987513 177.02292 25.721888 177.02292L29.550013 177.02292L29.550013 178.0698L25.768763 178.0698Q25.112513 178.0698 24.800013 178.1948Q24.487513 178.3198 24.300013 178.6323Q24.096888 178.9448 24.096888 179.36667Q24.096888 180.03854 24.534388 180.53854Q24.956263 181.02292 26.143763 181.02292L29.550013 181.02292L29.550013 182.0698ZM29.550013 171.03854L28.768763 171.03854Q29.690638 171.6323 29.690638 172.77292Q29.690638 173.52292 29.284388 174.14792Q28.862513 174.77292 28.128138 175.11667Q27.393763 175.46042 26.440638 175.46042Q25.518763 175.46042 24.753138 175.14792Q23.987513 174.83542 23.596888 174.21042Q23.190638 173.58542 23.190638 172.8198Q23.190638 172.2573 23.425013 171.8198Q23.659388 171.3823 24.034388 171.10104L20.956263 171.10104L20.956263 170.05417L29.550013 170.05417L29.550013 171.03854ZM26.440638 174.36667Q27.643763 174.36667 28.237513 173.86667Q28.815638 173.36667 28.815638 172.67917Q28.815638 171.99167 28.253138 171.5073Q27.690638 171.02292 26.534388 171.02292Q25.253138 171.02292 24.659388 171.52292Q24.065638 172.0073 24.065638 172.72604Q24.065638 173.42917 24.643763 173.89792Q25.206263 174.36667 26.440638 174.36667ZM27.690638 168.49167L27.534388 167.46042Q28.159388 167.36667 28.487513 166.97604Q28.815638 166.5698 28.815638 165.83542Q28.815638 165.11667 28.534388 164.77292Q28.237513 164.41354 27.831263 164.41354Q27.471888 164.41354 27.268763 164.72604Q27.128138 164.9448 26.909388 165.80417Q26.612513 166.96042 26.409388 167.41354Q26.190638 167.85104 25.815638 168.08542Q25.440638 168.3198 24.971888 168.3198Q24.565638 168.3198 24.206263 168.1323Q23.846888 167.9448 23.612513 167.61667Q23.440638 167.36667 23.315638 166.9448Q23.190638 166.52292 23.190638 166.02292Q23.190638 165.30417 23.409388 164.7573Q23.612513 164.1948 23.971888 163.92917Q24.331263 163.66354 24.925013 163.5698L25.065638 164.60104Q24.596888 164.66354 24.331263 165.0073Q24.050013 165.33542 24.050013 165.96042Q24.050013 166.67917 24.300013 166.99167Q24.534388 167.30417 24.862513 167.30417Q25.065638 167.30417 25.221888 167.17917Q25.393763 167.03854 25.503138 166.77292Q25.565638 166.61667 25.768763 165.83542Q26.081263 164.71042 26.268763 164.27292Q26.456263 163.83542 26.815638 163.58542Q27.175013 163.33542 27.721888 163.33542Q28.253138 163.33542 28.721888 163.64792Q29.175013 163.9448 29.440638 164.52292Q29.690638 165.10104 29.690638 165.83542Q29.690638 167.05417 29.190638 167.6948Q28.675013 168.3198 27.690638 168.49167ZM32.08126 161.3823L32.08126 162.1323Q29.268763 160.3823 26.440638 160.3823Q25.346888 160.3823 24.253138 160.6323Q23.378138 160.83542 22.565638 161.1948Q22.050013 161.42917 20.815638 162.1323L20.815638 161.3823Q22.284388 160.28854 23.768763 159.7573Q25.050013 159.30417 26.440638 159.30417Q28.018763 159.30417 29.503138 159.91354Q30.971888 160.52292 32.08126 161.3823Z" fill-rule="nonzero"/><path fill="#000000" d="M65.05 300.21564Q65.05 298.6844 65.3625 297.7625Q65.675 296.825 66.28438 296.325Q66.90938 295.825 67.84688 295.825Q68.53438 295.825 69.05 296.10626Q69.58125 296.3875 69.925 296.91876Q70.26875 297.4344 70.45625 298.1844Q70.64375 298.9344 70.64375 300.21564Q70.64375 301.73126 70.33125 302.65314Q70.03438 303.575 69.40938 304.09064Q68.8 304.59064 67.84688 304.59064Q66.6125 304.59064 65.89375 303.7Q65.05 302.6375 65.05 300.21564ZM66.12813 300.21564Q66.12813 302.325 66.62813 303.02814Q67.12813 303.73126 67.84688 303.73126Q68.58125 303.73126 69.06563 303.02814Q69.56563 302.325 69.56563 300.21564Q69.56563 298.09064 69.06563 297.40314Q68.58125 296.7 67.83125 296.7Q67.1125 296.7 66.675 297.3094Q66.12813 298.09064 66.12813 300.21564Z" fill-rule="nonzero"/><path fill="#000000" d="M63.596874 268.07327L63.596874 269.0889L57.909374 269.0889Q57.909374 268.7139 58.034374 268.35452Q58.253124 267.7764 58.721874 267.2139Q59.20625 266.6514 60.1125 265.91702Q61.51875 264.76077 62.003124 264.0889Q62.503124 263.41702 62.503124 262.82327Q62.503124 262.19827 62.05 261.7764Q61.596874 261.3389 60.878124 261.3389Q60.1125 261.3389 59.659374 261.79202Q59.20625 262.24515 59.190624 263.05765L58.1125 262.94827Q58.221874 261.72952 58.940624 261.10452Q59.675 260.4639 60.909374 260.4639Q62.14375 260.4639 62.8625 261.1514Q63.58125 261.8389 63.58125 262.85452Q63.58125 263.37015 63.3625 263.87015Q63.159374 264.35452 62.659374 264.91702Q62.175 265.4639 61.05 266.41702Q60.096874 267.2139 59.815624 267.51077Q59.55 267.79202 59.378124 268.07327L63.596874 268.07327ZM65.05 264.85452Q65.05 263.32327 65.3625 262.4014Q65.675 261.4639 66.28438 260.9639Q66.90938 260.4639 67.84688 260.4639Q68.53438 260.4639 69.05 260.74515Q69.58125 261.0264 69.925 261.55765Q70.26875 262.07327 70.45625 262.82327Q70.64375 263.57327 70.64375 264.85452Q70.64375 266.37015 70.33125 267.29202Q70.03438 268.2139 69.40938 268.72952Q68.8 269.22952 67.84688 269.22952Q66.6125 269.22952 65.89375 268.3389Q65.05 267.2764 65.05 264.85452ZM66.12813 264.85452Q66.12813 266.9639 66.62813 267.66702Q67.12813 268.37015 67.84688 268.37015Q68.58125 268.37015 69.06563 267.66702Q69.56563 266.9639 69.56563 264.85452Q69.56563 262.72952 69.06563 262.04202Q68.58125 261.3389 67.83125 261.3389Q67.1125 261.3389 66.675 261.94827Q66.12813 262.72952 66.12813 264.85452Z" fill-rule="nonzero"/><path fill="#000000" d="M61.425 233.72778L61.425 231.66528L57.70625 231.66528L57.70625 230.69653L61.628124 225.13403L62.4875 225.13403L62.4875 230.69653L63.64375 230.69653L63.64375 231.66528L62.4875 231.66528L62.4875 233.72778L61.425 233.72778ZM61.425 230.69653L61.425 226.83716L58.7375 230.69653L61.425 230.69653ZM65.05 229.49341Q65.05 227.96216 65.3625 227.04028Q65.675 226.10278 66.28438 225.60278Q66.90938 225.10278 67.84688 225.10278Q68.53438 225.10278 69.05 225.38403Q69.58125 225.66528 69.925 226.19653Q70.26875 226.71216 70.45625 227.46216Q70.64375 228.21216 70.64375 229.49341Q70.64375 231.00903 70.33125 231.93091Q70.03438 232.85278 69.40938 233.36841Q68.8 233.86841 67.84688 233.86841Q66.6125 233.86841 65.89375 232.97778Q65.05 231.91528 65.05 229.49341ZM66.12813 229.49341Q66.12813 231.60278 66.62813 232.30591Q67.12813 233.00903 67.84688 233.00903Q68.58125 233.00903 69.06563 232.30591Q69.56563 231.60278 69.56563 229.49341Q69.56563 227.36841 69.06563 226.68091Q68.58125 225.97778 67.83125 225.97778Q67.1125 225.97778 66.675 226.58716Q66.12813 227.36841 66.12813 229.49341Z" fill-rule="nonzero"/><path fill="#000000" d="M63.51875 191.8823L62.471874 191.96042Q62.33125 191.33542 62.08125 191.05417Q61.64375 190.60104 61.01875 190.60104Q60.51875 190.60104 60.128124 190.8823Q59.64375 191.2573 59.346874 191.96042Q59.065624 192.64792 59.05 193.92917Q59.425 193.35104 59.971874 193.0698Q60.534374 192.78854 61.14375 192.78854Q62.190624 192.78854 62.925 193.5698Q63.675 194.35104 63.675 195.5698Q63.675 196.3823 63.315624 197.08542Q62.971874 197.77292 62.3625 198.14792Q61.753124 198.5073 60.9875 198.5073Q59.659374 198.5073 58.83125 197.53854Q58.003124 196.5698 58.003124 194.35104Q58.003124 191.85104 58.925 190.72604Q59.721874 189.74167 61.08125 189.74167Q62.096874 189.74167 62.7375 190.3198Q63.39375 190.8823 63.51875 191.8823ZM59.221874 195.58542Q59.221874 196.1323 59.440624 196.6323Q59.675 197.11667 60.08125 197.3823Q60.503124 197.64792 60.971874 197.64792Q61.628124 197.64792 62.1125 197.11667Q62.596874 196.5698 62.596874 195.64792Q62.596874 194.7573 62.1125 194.24167Q61.64375 193.72604 60.925 193.72604Q60.20625 193.72604 59.70625 194.24167Q59.221874 194.7573 59.221874 195.58542ZM65.05 194.1323Q65.05 192.60104 65.3625 191.67917Q65.675 190.74167 66.28438 190.24167Q66.90938 189.74167 67.84688 189.74167Q68.53438 189.74167 69.05 190.02292Q69.58125 190.30417 69.925 190.83542Q70.26875 191.35104 70.45625 192.10104Q70.64375 192.85104 70.64375 194.1323Q70.64375 195.64792 70.33125 196.5698Q70.03438 197.49167 69.40938 198.0073Q68.8 198.5073 67.84688 198.5073Q66.6125 198.5073 65.89375 197.61667Q65.05 196.55417 65.05 194.1323ZM66.12813 194.1323Q66.12813 196.24167 66.62813 196.9448Q67.12813 197.64792 67.84688 197.64792Q68.58125 197.64792 69.06563 196.9448Q69.56563 196.24167 69.56563 194.1323Q69.56563 192.0073 69.06563 191.3198Q68.58125 190.61667 67.83125 190.61667Q67.1125 190.61667 66.675 191.22604Q66.12813 192.0073 66.12813 194.1323Z" fill-rule="nonzero"/><path fill="#000000" d="M59.675 158.3493Q59.01875 158.0993 58.690624 157.6618Q58.378124 157.20868 58.378124 156.5993Q58.378124 155.6618 59.05 155.02118Q59.7375 154.38055 60.846874 154.38055Q61.971874 154.38055 62.659374 155.0368Q63.346874 155.69305 63.346874 156.63055Q63.346874 157.2243 63.034374 157.6618Q62.721874 158.0993 62.08125 158.3493Q62.878124 158.5993 63.284374 159.17743Q63.690624 159.75555 63.690624 160.55243Q63.690624 161.64618 62.909374 162.39618Q62.14375 163.14618 60.8625 163.14618Q59.596874 163.14618 58.815624 162.39618Q58.034374 161.64618 58.034374 160.52118Q58.034374 159.67743 58.45625 159.11493Q58.89375 158.55243 59.675 158.3493ZM59.45625 156.55243Q59.45625 157.1618 59.846874 157.55243Q60.253124 157.94305 60.878124 157.94305Q61.4875 157.94305 61.878124 157.56805Q62.26875 157.17743 62.26875 156.61493Q62.26875 156.0368 61.8625 155.64618Q61.45625 155.23993 60.8625 155.23993Q60.253124 155.23993 59.846874 155.63055Q59.45625 156.02118 59.45625 156.55243ZM59.128124 160.52118Q59.128124 160.9743 59.33125 161.39618Q59.55 161.81805 59.971874 162.05243Q60.39375 162.2868 60.878124 162.2868Q61.628124 162.2868 62.1125 161.80243Q62.6125 161.31805 62.6125 160.56805Q62.6125 159.80243 62.1125 159.30243Q61.6125 158.80243 60.846874 158.80243Q60.096874 158.80243 59.6125 159.30243Q59.128124 159.7868 59.128124 160.52118ZM65.05 158.77118Q65.05 157.23993 65.3625 156.31805Q65.675 155.38055 66.28438 154.88055Q66.90938 154.38055 67.84688 154.38055Q68.53438 154.38055 69.05 154.6618Q69.58125 154.94305 69.925 155.4743Q70.26875 155.98993 70.45625 156.73993Q70.64375 157.48993 70.64375 158.77118Q70.64375 160.2868 70.33125 161.20868Q70.03438 162.13055 69.40938 162.64618Q68.8 163.14618 67.84688 163.14618Q66.6125 163.14618 65.89375 162.25555Q65.05 161.19305 65.05 158.77118ZM66.12813 158.77118Q66.12813 160.88055 66.62813 161.58368Q67.12813 162.2868 67.84688 162.2868Q68.58125 162.2868 69.06563 161.58368Q69.56563 160.88055 69.56563 158.77118Q69.56563 156.64618 69.06563 155.95868Q68.58125 155.25555 67.83125 155.25555Q67.1125 155.25555 66.675 155.86493Q66.12813 156.64618 66.12813 158.77118Z" fill-rule="nonzero"/><path fill="#000000" d="M55.01875 127.64445L53.971874 127.64445L53.971874 120.9257Q53.58125 121.28507 52.95625 121.66007Q52.346874 122.01945 51.8625 122.19132L51.8625 121.1757Q52.7375 120.75382 53.39375 120.1757Q54.065624 119.58195 54.346874 119.01945L55.01875 119.01945L55.01875 127.64445ZM58.05 123.41007Q58.05 121.87882 58.3625 120.95695Q58.675 120.01945 59.284374 119.51945Q59.909374 119.01945 60.846874 119.01945Q61.534374 119.01945 62.05 119.3007Q62.58125 119.58195 62.925 120.1132Q63.26875 120.62882 63.45625 121.37882Q63.64375 122.12882 63.64375 123.41007Q63.64375 124.9257 63.33125 125.84757Q63.034374 126.76945 62.409374 127.28507Q61.8 127.78507 60.846874 127.78507Q59.6125 127.78507 58.89375 126.89445Q58.05 125.83195 58.05 123.41007ZM59.128124 123.41007Q59.128124 125.51945 59.628124 126.22257Q60.128124 126.9257 60.846874 126.9257Q61.58125 126.9257 62.065624 126.22257Q62.565624 125.51945 62.565624 123.41007Q62.565624 121.28507 62.065624 120.59757Q61.58125 119.89445 60.83125 119.89445Q60.1125 119.89445 59.675 120.50382Q59.128124 121.28507 59.128124 123.41007ZM65.05 123.41007Q65.05 121.87882 65.3625 120.95695Q65.675 120.01945 66.28438 119.51945Q66.90938 119.01945 67.84688 119.01945Q68.53438 119.01945 69.05 119.3007Q69.58125 119.58195 69.925 120.1132Q70.26875 120.62882 70.45625 121.37882Q70.64375 122.12882 70.64375 123.41007Q70.64375 124.9257 70.33125 125.84757Q70.03438 126.76945 69.40938 127.28507Q68.8 127.78507 67.84688 127.78507Q66.6125 127.78507 65.89375 126.89445Q65.05 125.83195 65.05 123.41007ZM66.12813 123.41007Q66.12813 125.51945 66.62813 126.22257Q67.12813 126.9257 67.84688 126.9257Q68.58125 126.9257 69.06563 126.22257Q69.56563 125.51945 69.56563 123.41007Q69.56563 121.28507 69.06563 120.59757Q68.58125 119.89445 67.83125 119.89445Q67.1125 119.89445 66.675 120.50382Q66.12813 121.28507 66.12813 123.41007Z" fill-rule="nonzero"/><path fill="#000000" d="M55.01875 92.28333L53.971874 92.28333L53.971874 85.56458Q53.58125 85.92396 52.95625 86.29896Q52.346874 86.65833 51.8625 86.83021L51.8625 85.81458Q52.7375 85.39271 53.39375 84.81458Q54.065624 84.22083 54.346874 83.65833L55.01875 83.65833L55.01875 92.28333ZM63.596874 91.26771L63.596874 92.28333L57.909374 92.28333Q57.909374 91.90833 58.034374 91.54896Q58.253124 90.97083 58.721874 90.40833Q59.20625 89.84583 60.1125 89.11146Q61.51875 87.95521 62.003124 87.28333Q62.503124 86.61146 62.503124 86.01771Q62.503124 85.39271 62.05 84.97083Q61.596874 84.53333 60.878124 84.53333Q60.1125 84.53333 59.659374 84.98646Q59.20625 85.43958 59.190624 86.25208L58.1125 86.14271Q58.221874 84.92396 58.940624 84.29896Q59.675 83.65833 60.909374 83.65833Q62.14375 83.65833 62.8625 84.34583Q63.58125 85.03333 63.58125 86.04896Q63.58125 86.56458 63.3625 87.06458Q63.159374 87.54896 62.659374 88.11146Q62.175 88.65833 61.05 89.61146Q60.096874 90.40833 59.815624 90.70521Q59.55 90.98646 59.378124 91.26771L63.596874 91.26771ZM65.05 88.04896Q65.05 86.51771 65.3625 85.59583Q65.675 84.65833 66.28438 84.15833Q66.90938 83.65833 67.84688 83.65833Q68.53438 83.65833 69.05 83.93958Q69.58125 84.22083 69.925 84.75208Q70.26875 85.26771 70.45625 86.01771Q70.64375 86.76771 70.64375 88.04896Q70.64375 89.56458 70.33125 90.48646Q70.03438 91.40833 69.40938 91.92396Q68.8 92.42396 67.84688 92.42396Q66.6125 92.42396 65.89375 91.53333Q65.05 90.47083 65.05 88.04896ZM66.12813 88.04896Q66.12813 90.15833 66.62813 90.86146Q67.12813 91.56458 67.84688 91.56458Q68.58125 91.56458 69.06563 90.86146Q69.56563 90.15833 69.56563 88.04896Q69.56563 85.92396 69.06563 85.23646Q68.58125 84.53333 67.83125 84.53333Q67.1125 84.53333 66.675 85.14271Q66.12813 85.92396 66.12813 88.04896Z" fill-rule="nonzero"/><path fill="#000000" d="M105.5673 314.075L105.5673 313.075L109.1923 313.0594L109.1923 316.2469Q108.364174 316.91876 107.47355 317.2625Q106.582924 317.59064 105.645424 317.59064Q104.3798 317.59064 103.332924 317.0594Q102.301674 316.5125 101.770424 315.4969Q101.2548 314.46564 101.2548 313.2Q101.2548 311.9344 101.770424 310.85626Q102.301674 309.7625 103.28605 309.2469Q104.270424 308.71564 105.551674 308.71564Q106.489174 308.71564 107.239174 309.0125Q107.989174 309.3094 108.41105 309.85626Q108.84855 310.3875 109.0673 311.2625L108.051674 311.54376Q107.84855 310.8875 107.551674 310.5125Q107.270424 310.1375 106.739174 309.91876Q106.207924 309.6844 105.5673 309.6844Q104.78605 309.6844 104.207924 309.91876Q103.645424 310.15314 103.28605 310.54376Q102.9423 310.9344 102.7548 311.40314Q102.426674 312.2 102.426674 313.1219Q102.426674 314.27814 102.8173 315.0594Q103.22355 315.825 103.97355 316.2Q104.72355 316.575 105.582924 316.575Q106.3173 316.575 107.020424 316.29376Q107.72355 315.9969 108.082924 315.6844L108.082924 314.075L105.5673 314.075ZM116.676674 314.4344L117.801674 314.73126Q117.4423 316.1219 116.520424 316.85626Q115.59855 317.59064 114.2548 317.59064Q112.864174 317.59064 111.989174 317.02814Q111.114174 316.46564 110.66105 315.40314Q110.207924 314.325 110.207924 313.09064Q110.207924 311.7469 110.72355 310.7469Q111.239174 309.7469 112.176674 309.23126Q113.1298 308.71564 114.270424 308.71564Q115.551674 308.71564 116.426674 309.3719Q117.3173 310.02814 117.66105 311.21564L116.53605 311.48126Q116.239174 310.54376 115.66105 310.1219Q115.09855 309.6844 114.239174 309.6844Q113.2548 309.6844 112.582924 310.16876Q111.926674 310.6375 111.645424 311.4344Q111.3798 312.23126 111.3798 313.09064Q111.3798 314.1844 111.6923 314.9969Q112.020424 315.8094 112.6923 316.21564Q113.364174 316.6219 114.16105 316.6219Q115.114174 316.6219 115.770424 316.075Q116.4423 315.52814 116.676674 314.4344ZM125.676674 314.4344L126.801674 314.73126Q126.4423 316.1219 125.520424 316.85626Q124.59855 317.59064 123.2548 317.59064Q121.864174 317.59064 120.989174 317.02814Q120.114174 316.46564 119.66105 315.40314Q119.207924 314.325 119.207924 313.09064Q119.207924 311.7469 119.72355 310.7469Q120.239174 309.7469 121.176674 309.23126Q122.1298 308.71564 123.270424 308.71564Q124.551674 308.71564 125.426674 309.3719Q126.3173 310.02814 126.66105 311.21564L125.53605 311.48126Q125.239174 310.54376 124.66105 310.1219Q124.09855 309.6844 123.239174 309.6844Q122.2548 309.6844 121.582924 310.16876Q120.926674 310.6375 120.645424 311.4344Q120.3798 312.23126 120.3798 313.09064Q120.3798 314.1844 120.6923 314.9969Q121.020424 315.8094 121.6923 316.21564Q122.364174 316.6219 123.16105 316.6219Q124.114174 316.6219 124.770424 316.075Q125.4423 315.52814 125.676674 314.4344ZM133.42667 319.98126Q132.55167 318.8719 131.94229 317.40314Q131.34854 315.91876 131.34854 314.34064Q131.34854 312.95 131.78604 311.66876Q132.31729 310.1844 133.42667 308.71564L134.17667 308.71564Q133.47354 309.9344 133.23917 310.45Q132.87979 311.2625 132.67667 312.1375Q132.42667 313.23126 132.42667 314.34064Q132.42667 317.16876 134.17667 319.98126L133.42667 319.98126ZM135.50479 317.45L135.50479 308.85626L137.22354 308.85626L139.25479 314.9344Q139.53604 315.79376 139.66104 316.21564Q139.80167 315.7469 140.11417 314.84064L142.17667 308.85626L143.70792 308.85626L143.70792 317.45L142.61417 317.45L142.61417 310.2625L140.11417 317.45L139.08292 317.45L136.59854 310.1375L136.59854 317.45L135.50479 317.45ZM149.47354 316.6844Q148.87979 317.1844 148.33292 317.3875Q147.80167 317.59064 147.17667 317.59064Q146.14542 317.59064 145.59854 317.09064Q145.05167 316.59064 145.05167 315.8094Q145.05167 315.35626 145.25479 314.98126Q145.45792 314.59064 145.80167 314.3719Q146.14542 314.1375 146.56729 314.02814Q146.86417 313.9344 147.50479 313.85626Q148.77042 313.71564 149.37979 313.4969Q149.37979 313.27814 149.37979 313.23126Q149.37979 312.575 149.08292 312.3094Q148.67667 311.96564 147.87979 311.96564Q147.14542 311.96564 146.78604 312.23126Q146.42667 312.48126 146.25479 313.1375L145.22354 312.9969Q145.36417 312.34064 145.69229 311.9344Q146.02042 311.52814 146.62979 311.3094Q147.23917 311.09064 148.03604 311.09064Q148.83292 311.09064 149.33292 311.27814Q149.83292 311.46564 150.06729 311.7469Q150.30167 312.02814 150.39542 312.46564Q150.44229 312.73126 150.44229 313.4344L150.44229 314.84064Q150.44229 316.3094 150.50479 316.7Q150.58292 317.09064 150.78604 317.45L149.67667 317.45Q149.52042 317.1219 149.47354 316.6844ZM149.37979 314.325Q148.80167 314.5594 147.66104 314.73126Q147.00479 314.825 146.73917 314.95Q146.47354 315.0594 146.31729 315.27814Q146.17667 315.4969 146.17667 315.77814Q146.17667 316.2 146.48917 316.48126Q146.81729 316.7625 147.42667 316.7625Q148.03604 316.7625 148.50479 316.4969Q148.98917 316.23126 149.20792 315.7625Q149.37979 315.40314 149.37979 314.71564L149.37979 314.325ZM156.47354 315.16876L157.50479 315.3094Q157.33292 316.3719 156.62979 316.98126Q155.92667 317.59064 154.91104 317.59064Q153.62979 317.59064 152.84854 316.7625Q152.08292 315.91876 152.08292 314.35626Q152.08292 313.35626 152.41104 312.60626Q152.75479 311.84064 153.42667 311.46564Q154.11417 311.09064 154.92667 311.09064Q155.92667 311.09064 156.56729 311.60626Q157.22354 312.10626 157.41104 313.0594L156.37979 313.21564Q156.23917 312.59064 155.86417 312.27814Q155.48917 311.95 154.95792 311.95Q154.16104 311.95 153.66104 312.52814Q153.16104 313.09064 153.16104 314.325Q153.16104 315.59064 153.64542 316.15314Q154.12979 316.71564 154.89542 316.71564Q155.52042 316.71564 155.92667 316.34064Q156.34854 315.96564 156.47354 315.16876ZM159.09854 319.98126L158.34854 319.98126Q160.09854 317.16876 160.09854 314.34064Q160.09854 313.2469 159.84854 312.15314Q159.64542 311.27814 159.28604 310.46564Q159.05167 309.95 158.34854 308.71564L159.09854 308.71564Q160.19229 310.1844 160.72354 311.66876Q161.17667 312.95 161.17667 314.34064Q161.17667 315.91876 160.56729 317.40314Q159.95792 318.8719 159.09854 319.98126Z" fill-rule="nonzero"/><path fill="#000000" d="M181.42163 314.075L181.42163 313.075L185.04663 313.0594L185.04663 316.2469Q184.2185 316.91876 183.32788 317.2625Q182.43726 317.59064 181.49976 317.59064Q180.23413 317.59064 179.18726 317.0594Q178.156 316.5125 177.62476 315.4969Q177.10913 314.46564 177.10913 313.2Q177.10913 311.9344 177.62476 310.85626Q178.156 309.7625 179.14038 309.2469Q180.12476 308.71564 181.406 308.71564Q182.3435 308.71564 183.0935 309.0125Q183.8435 309.3094 184.26538 309.85626Q184.70288 310.3875 184.92163 311.2625L183.906 311.54376Q183.70288 310.8875 183.406 310.5125Q183.12476 310.1375 182.5935 309.91876Q182.06226 309.6844 181.42163 309.6844Q180.64038 309.6844 180.06226 309.91876Q179.49976 310.15314 179.14038 310.54376Q178.79663 310.9344 178.60913 311.40314Q178.281 312.2 178.281 313.1219Q178.281 314.27814 178.67163 315.0594Q179.07788 315.825 179.82788 316.2Q180.57788 316.575 181.43726 316.575Q182.17163 316.575 182.87476 316.29376Q183.57788 315.9969 183.93726 315.6844L183.93726 314.075L181.42163 314.075ZM192.531 314.4344L193.656 314.73126Q193.29663 316.1219 192.37476 316.85626Q191.45288 317.59064 190.10913 317.59064Q188.7185 317.59064 187.8435 317.02814Q186.9685 316.46564 186.51538 315.40314Q186.06226 314.325 186.06226 313.09064Q186.06226 311.7469 186.57788 310.7469Q187.0935 309.7469 188.031 309.23126Q188.98413 308.71564 190.12476 308.71564Q191.406 308.71564 192.281 309.3719Q193.17163 310.02814 193.51538 311.21564L192.39038 311.48126Q192.0935 310.54376 191.51538 310.1219Q190.95288 309.6844 190.0935 309.6844Q189.10913 309.6844 188.43726 310.16876Q187.781 310.6375 187.49976 311.4344Q187.23413 312.23126 187.23413 313.09064Q187.23413 314.1844 187.54663 314.9969Q187.87476 315.8094 188.54663 316.21564Q189.2185 316.6219 190.01538 316.6219Q190.9685 316.6219 191.62476 316.075Q192.29663 315.52814 192.531 314.4344ZM201.531 314.4344L202.656 314.73126Q202.29663 316.1219 201.37476 316.85626Q200.45288 317.59064 199.10913 317.59064Q197.7185 317.59064 196.8435 317.02814Q195.9685 316.46564 195.51538 315.40314Q195.06226 314.325 195.06226 313.09064Q195.06226 311.7469 195.57788 310.7469Q196.0935 309.7469 197.031 309.23126Q197.98413 308.71564 199.12476 308.71564Q200.406 308.71564 201.281 309.3719Q202.17163 310.02814 202.51538 311.21564L201.39038 311.48126Q201.0935 310.54376 200.51538 310.1219Q199.95288 309.6844 199.0935 309.6844Q198.10913 309.6844 197.43726 310.16876Q196.781 310.6375 196.49976 311.4344Q196.23413 312.23126 196.23413 313.09064Q196.23413 314.1844 196.54663 314.9969Q196.87476 315.8094 197.54663 316.21564Q198.2185 316.6219 199.01538 316.6219Q199.9685 316.6219 200.62476 316.075Q201.29663 315.52814 201.531 314.4344ZM209.281 319.98126Q208.406 318.8719 207.79663 317.40314Q207.20288 315.91876 207.20288 314.34064Q207.20288 312.95 207.64038 311.66876Q208.17163 310.1844 209.281 308.71564L210.031 308.71564Q209.32788 309.9344 209.0935 310.45Q208.73413 311.2625 208.531 312.1375Q208.281 313.23126 208.281 314.34064Q208.281 317.16876 210.031 319.98126L209.281 319.98126ZM211.3435 317.45L211.3435 308.85626L212.48413 308.85626L212.48413 316.4344L216.7185 316.4344L216.7185 317.45L211.3435 317.45ZM218.26538 310.075L218.26538 308.85626L219.32788 308.85626L219.32788 310.075L218.26538 310.075ZM218.26538 317.45L218.26538 311.23126L219.32788 311.23126L219.32788 317.45L218.26538 317.45ZM221.26538 317.45L221.26538 311.23126L222.20288 311.23126L222.20288 312.10626Q222.89038 311.09064 224.18726 311.09064Q224.74976 311.09064 225.2185 311.29376Q225.70288 311.4969 225.93726 311.825Q226.17163 312.15314 226.26538 312.59064Q226.31226 312.8875 226.31226 313.6219L226.31226 317.45L225.26538 317.45L225.26538 313.66876Q225.26538 313.0125 225.14038 312.7Q225.01538 312.3875 224.70288 312.2Q224.39038 311.9969 223.9685 311.9969Q223.29663 311.9969 222.79663 312.4344Q222.31226 312.85626 222.31226 314.04376L222.31226 317.45L221.26538 317.45ZM232.3435 317.45L232.3435 316.52814Q231.60913 317.59064 230.35913 317.59064Q229.81226 317.59064 229.32788 317.3875Q228.85913 317.16876 228.62476 316.85626Q228.39038 316.52814 228.29663 316.0594Q228.23413 315.7625 228.23413 315.075L228.23413 311.23126L229.29663 311.23126L229.29663 314.6844Q229.29663 315.4969 229.35913 315.79376Q229.45288 316.2 229.76538 316.45Q230.0935 316.6844 230.57788 316.6844Q231.04663 316.6844 231.45288 316.45Q231.87476 316.2 232.04663 315.77814Q232.23413 315.35626 232.23413 314.5594L232.23413 311.23126L233.281 311.23126L233.281 317.45L232.3435 317.45ZM234.56226 317.45L236.82788 314.21564L234.73413 311.23126L236.04663 311.23126L236.99976 312.6844Q237.26538 313.10626 237.43726 313.3875Q237.68726 312.9969 237.906 312.7L238.95288 311.23126L240.2185 311.23126L238.06226 314.15314L240.37476 317.45L239.0935 317.45L237.81226 315.5125L237.4685 314.9969L235.82788 317.45L234.56226 317.45ZM241.95288 319.98126L241.20288 319.98126Q242.95288 317.16876 242.95288 314.34064Q242.95288 313.2469 242.70288 312.15314Q242.49976 311.27814 242.14038 310.46564Q241.906 309.95 241.20288 308.71564L241.95288 308.71564Q243.04663 310.1844 243.57788 311.66876Q244.031 312.95 244.031 314.34064Q244.031 315.91876 243.42163 317.40314Q242.81226 318.8719 241.95288 319.98126Z" fill-rule="nonzero"/><path fill="#000000" d="M265.27597 314.075L265.27597 313.075L268.90097 313.0594L268.90097 316.2469Q268.07285 316.91876 267.18222 317.2625Q266.2916 317.59064 265.3541 317.59064Q264.08847 317.59064 263.0416 317.0594Q262.01035 316.5125 261.4791 315.4969Q260.96347 314.46564 260.96347 313.2Q260.96347 311.9344 261.4791 310.85626Q262.01035 309.7625 262.99472 309.2469Q263.9791 308.71564 265.26035 308.71564Q266.19785 308.71564 266.94785 309.0125Q267.69785 309.3094 268.11972 309.85626Q268.55722 310.3875 268.77597 311.2625L267.76035 311.54376Q267.55722 310.8875 267.26035 310.5125Q266.9791 310.1375 266.44785 309.91876Q265.9166 309.6844 265.27597 309.6844Q264.49472 309.6844 263.9166 309.91876Q263.3541 310.15314 262.99472 310.54376Q262.65097 310.9344 262.46347 311.40314Q262.13535 312.2 262.13535 313.1219Q262.13535 314.27814 262.52597 315.0594Q262.93222 315.825 263.68222 316.2Q264.43222 316.575 265.2916 316.575Q266.02597 316.575 266.7291 316.29376Q267.43222 315.9969 267.7916 315.6844L267.7916 314.075L265.27597 314.075ZM276.38535 314.4344L277.51035 314.73126Q277.15097 316.1219 276.2291 316.85626Q275.30722 317.59064 273.96347 317.59064Q272.57285 317.59064 271.69785 317.02814Q270.82285 316.46564 270.36972 315.40314Q269.9166 314.325 269.9166 313.09064Q269.9166 311.7469 270.43222 310.7469Q270.94785 309.7469 271.88535 309.23126Q272.83847 308.71564 273.9791 308.71564Q275.26035 308.71564 276.13535 309.3719Q277.02597 310.02814 277.36972 311.21564L276.24472 311.48126Q275.94785 310.54376 275.36972 310.1219Q274.80722 309.6844 273.94785 309.6844Q272.96347 309.6844 272.2916 310.16876Q271.63535 310.6375 271.3541 311.4344Q271.08847 312.23126 271.08847 313.09064Q271.08847 314.1844 271.40097 314.9969Q271.7291 315.8094 272.40097 316.21564Q273.07285 316.6219 273.86972 316.6219Q274.82285 316.6219 275.4791 316.075Q276.15097 315.52814 276.38535 314.4344ZM285.38535 314.4344L286.51035 314.73126Q286.15097 316.1219 285.2291 316.85626Q284.30722 317.59064 282.96347 317.59064Q281.57285 317.59064 280.69785 317.02814Q279.82285 316.46564 279.36972 315.40314Q278.9166 314.325 278.9166 313.09064Q278.9166 311.7469 279.43222 310.7469Q279.94785 309.7469 280.88535 309.23126Q281.83847 308.71564 282.9791 308.71564Q284.26035 308.71564 285.13535 309.3719Q286.02597 310.02814 286.36972 311.21564L285.24472 311.48126Q284.94785 310.54376 284.36972 310.1219Q283.80722 309.6844 282.94785 309.6844Q281.96347 309.6844 281.2916 310.16876Q280.63535 310.6375 280.3541 311.4344Q280.08847 312.23126 280.08847 313.09064Q280.08847 314.1844 280.40097 314.9969Q280.7291 315.8094 281.40097 316.21564Q282.07285 316.6219 282.86972 316.6219Q283.82285 316.6219 284.4791 316.075Q285.15097 315.52814 285.38535 314.4344ZM293.13535 319.98126Q292.26035 318.8719 291.65097 317.40314Q291.05722 315.91876 291.05722 314.34064Q291.05722 312.95 291.49472 311.66876Q292.02597 310.1844 293.13535 308.71564L293.88535 308.71564Q293.18222 309.9344 292.94785 310.45Q292.58847 311.2625 292.38535 312.1375Q292.13535 313.23126 292.13535 314.34064Q292.13535 317.16876 293.88535 319.98126L293.13535 319.98126ZM296.74472 317.45L294.46347 308.85626L295.63535 308.85626L296.94785 314.4969Q297.15097 315.3719 297.30722 316.2469Q297.63535 314.8719 297.69785 314.65314L299.32285 308.85626L300.69785 308.85626L301.93222 313.2Q302.38535 314.825 302.6041 316.2469Q302.76035 315.4344 303.02597 314.3719L304.36972 308.85626L305.51035 308.85626L303.1666 317.45L302.05722 317.45L300.26035 310.90314Q300.02597 310.09064 299.9791 309.90314Q299.8541 310.48126 299.7291 310.90314L297.9166 317.45L296.74472 317.45ZM306.11972 310.075L306.11972 308.85626L307.18222 308.85626L307.18222 310.075L306.11972 310.075ZM306.11972 317.45L306.11972 311.23126L307.18222 311.23126L307.18222 317.45L306.11972 317.45ZM309.11972 317.45L309.11972 311.23126L310.05722 311.23126L310.05722 312.10626Q310.74472 311.09064 312.0416 311.09064Q312.6041 311.09064 313.07285 311.29376Q313.55722 311.4969 313.7916 311.825Q314.02597 312.15314 314.11972 312.59064Q314.1666 312.8875 314.1666 313.6219L314.1666 317.45L313.11972 317.45L313.11972 313.66876Q313.11972 313.0125 312.99472 312.7Q312.86972 312.3875 312.55722 312.2Q312.24472 311.9969 311.82285 311.9969Q311.15097 311.9969 310.65097 312.4344Q310.1666 312.85626 310.1666 314.04376L310.1666 317.45L309.11972 317.45ZM316.80722 319.98126L316.05722 319.98126Q317.80722 317.16876 317.80722 314.34064Q317.80722 313.2469 317.55722 312.15314Q317.3541 311.27814 316.99472 310.46564Q316.76035 309.95 316.05722 308.71564L316.80722 308.71564Q317.90097 310.1844 318.43222 311.66876Q318.88535 312.95 318.88535 314.34064Q318.88535 315.91876 318.27597 317.40314Q317.6666 318.8719 316.80722 319.98126Z" fill-rule="nonzero"/><path fill="#000000" d="M337.55215 317.45L337.55215 308.85626L338.69278 308.85626L338.69278 313.1219L342.9584 308.85626L344.50528 308.85626L340.8959 312.34064L344.66153 317.45L343.16153 317.45L340.09903 313.10626L338.69278 314.46564L338.69278 317.45L337.55215 317.45ZM349.72403 315.45L350.81778 315.575Q350.56778 316.52814 349.86465 317.0594Q349.16153 317.59064 348.0834 317.59064Q346.72403 317.59064 345.91153 316.7469Q345.11465 315.90314 345.11465 314.3875Q345.11465 312.825 345.92715 311.96564Q346.73965 311.09064 348.0209 311.09064Q349.2709 311.09064 350.05215 311.9344Q350.84903 312.77814 350.84903 314.325Q350.84903 314.41876 350.84903 314.60626L346.2084 314.60626Q346.2709 315.6375 346.78653 316.1844Q347.30215 316.71564 348.0834 316.71564Q348.66153 316.71564 349.06778 316.41876Q349.48965 316.10626 349.72403 315.45ZM346.2709 313.7469L349.73965 313.7469Q349.67715 312.95 349.34903 312.5594Q348.8334 311.95 348.03653 311.95Q347.30215 311.95 346.80215 312.4344Q346.31778 312.91876 346.2709 313.7469ZM352.47403 310.075L352.47403 308.85626L353.53653 308.85626L353.53653 310.075L352.47403 310.075ZM352.47403 317.45L352.47403 311.23126L353.53653 311.23126L353.53653 317.45L352.47403 317.45ZM355.44278 317.45L355.44278 308.85626L356.50528 308.85626L356.50528 317.45L355.44278 317.45ZM363.48965 319.98126Q362.61465 318.8719 362.00528 317.40314Q361.41153 315.91876 361.41153 314.34064Q361.41153 312.95 361.84903 311.66876Q362.38028 310.1844 363.48965 308.71564L364.23965 308.71564Q363.53653 309.9344 363.30215 310.45Q362.94278 311.2625 362.73965 312.1375Q362.48965 313.23126 362.48965 314.34064Q362.48965 317.16876 364.23965 319.98126L363.48965 319.98126ZM369.53653 316.6844Q368.94278 317.1844 368.3959 317.3875Q367.86465 317.59064 367.23965 317.59064Q366.2084 317.59064 365.66153 317.09064Q365.11465 316.59064 365.11465 315.8094Q365.11465 315.35626 365.31778 314.98126Q365.5209 314.59064 365.86465 314.3719Q366.2084 314.1375 366.63028 314.02814Q366.92715 313.9344 367.56778 313.85626Q368.8334 313.71564 369.44278 313.4969Q369.44278 313.27814 369.44278 313.23126Q369.44278 312.575 369.1459 312.3094Q368.73965 311.96564 367.94278 311.96564Q367.2084 311.96564 366.84903 312.23126Q366.48965 312.48126 366.31778 313.1375L365.28653 312.9969Q365.42715 312.34064 365.75528 311.9344Q366.0834 311.52814 366.69278 311.3094Q367.30215 311.09064 368.09903 311.09064Q368.8959 311.09064 369.3959 311.27814Q369.8959 311.46564 370.13028 311.7469Q370.36465 312.02814 370.4584 312.46564Q370.50528 312.73126 370.50528 313.4344L370.50528 314.84064Q370.50528 316.3094 370.56778 316.7Q370.6459 317.09064 370.84903 317.45L369.73965 317.45Q369.5834 317.1219 369.53653 316.6844ZM369.44278 314.325Q368.86465 314.5594 367.72403 314.73126Q367.06778 314.825 366.80215 314.95Q366.53653 315.0594 366.38028 315.27814Q366.23965 315.4969 366.23965 315.77814Q366.23965 316.2 366.55215 316.48126Q366.88028 316.7625 367.48965 316.7625Q368.09903 316.7625 368.56778 316.4969Q369.05215 316.23126 369.2709 315.7625Q369.44278 315.40314 369.44278 314.71564L369.44278 314.325ZM372.4584 317.45L372.4584 311.23126L373.41153 311.23126L373.41153 312.16876Q373.7709 311.5125 374.06778 311.3094Q374.38028 311.09064 374.75528 311.09064Q375.28653 311.09064 375.8334 311.41876L375.47403 312.40314Q375.0834 312.16876 374.7084 312.16876Q374.34903 312.16876 374.06778 312.3875Q373.80215 312.59064 373.69278 312.96564Q373.50528 313.52814 373.50528 314.1844L373.50528 317.45L372.4584 317.45ZM376.47403 317.45L376.47403 311.23126L377.41153 311.23126L377.41153 312.10626Q377.7084 311.6375 378.19278 311.3719Q378.67715 311.09064 379.30215 311.09064Q379.98965 311.09064 380.42715 311.3719Q380.88028 311.65314 381.05215 312.16876Q381.80215 311.09064 382.97403 311.09064Q383.91153 311.09064 384.3959 311.60626Q384.8959 312.10626 384.8959 313.1844L384.8959 317.45L383.84903 317.45L383.84903 313.52814Q383.84903 312.90314 383.73965 312.6219Q383.6459 312.34064 383.38028 312.16876Q383.11465 311.9969 382.73965 311.9969Q382.0834 311.9969 381.6459 312.4344Q381.22403 312.8719 381.22403 313.84064L381.22403 317.45L380.16153 317.45L380.16153 313.40314Q380.16153 312.7 379.8959 312.35626Q379.6459 311.9969 379.06778 311.9969Q378.61465 311.9969 378.23965 312.23126Q377.86465 312.46564 377.69278 312.91876Q377.5209 313.3719 377.5209 314.21564L377.5209 317.45L376.47403 317.45ZM390.53653 315.16876L391.56778 315.3094Q391.3959 316.3719 390.69278 316.98126Q389.98965 317.59064 388.97403 317.59064Q387.69278 317.59064 386.91153 316.7625Q386.1459 315.91876 386.1459 314.35626Q386.1459 313.35626 386.47403 312.60626Q386.81778 311.84064 387.48965 311.46564Q388.17715 311.09064 388.98965 311.09064Q389.98965 311.09064 390.63028 311.60626Q391.28653 312.10626 391.47403 313.0594L390.44278 313.21564Q390.30215 312.59064 389.92715 312.27814Q389.55215 311.95 389.0209 311.95Q388.22403 311.95 387.72403 312.52814Q387.22403 313.09064 387.22403 314.325Q387.22403 315.59064 387.7084 316.15314Q388.19278 316.71564 388.9584 316.71564Q389.5834 316.71564 389.98965 316.34064Q390.41153 315.96564 390.53653 315.16876ZM396.53653 315.16876L397.56778 315.3094Q397.3959 316.3719 396.69278 316.98126Q395.98965 317.59064 394.97403 317.59064Q393.69278 317.59064 392.91153 316.7625Q392.1459 315.91876 392.1459 314.35626Q392.1459 313.35626 392.47403 312.60626Q392.81778 311.84064 393.48965 311.46564Q394.17715 311.09064 394.98965 311.09064Q395.98965 311.09064 396.63028 311.60626Q397.28653 312.10626 397.47403 313.0594L396.44278 313.21564Q396.30215 312.59064 395.92715 312.27814Q395.55215 311.95 395.0209 311.95Q394.22403 311.95 393.72403 312.52814Q393.22403 313.09064 393.22403 314.325Q393.22403 315.59064 393.7084 316.15314Q394.19278 316.71564 394.9584 316.71564Q395.5834 316.71564 395.98965 316.34064Q396.41153 315.96564 396.53653 315.16876ZM399.16153 319.98126L398.41153 319.98126Q400.16153 317.16876 400.16153 314.34064Q400.16153 313.2469 399.91153 312.15314Q399.7084 311.27814 399.34903 310.46564Q399.11465 309.95 398.41153 308.71564L399.16153 308.71564Q400.25528 310.1844 400.78653 311.66876Q401.23965 312.95 401.23965 314.34064Q401.23965 315.91876 400.63028 317.40314Q400.0209 318.8719 399.16153 319.98126Z" fill-rule="nonzero"/><path fill="#000000" d="M407.9065 317.45L407.9065 308.85626L409.04712 308.85626L409.04712 313.1219L413.31274 308.85626L414.85962 308.85626L411.25024 312.34064L415.01587 317.45L413.51587 317.45L410.45337 313.10626L409.04712 314.46564L409.04712 317.45L407.9065 317.45ZM420.07837 315.45L421.17212 315.575Q420.92212 316.52814 420.219 317.0594Q419.51587 317.59064 418.43774 317.59064Q417.07837 317.59064 416.26587 316.7469Q415.469 315.90314 415.469 314.3875Q415.469 312.825 416.2815 311.96564Q417.094 311.09064 418.37524 311.09064Q419.62524 311.09064 420.4065 311.9344Q421.20337 312.77814 421.20337 314.325Q421.20337 314.41876 421.20337 314.60626L416.56274 314.60626Q416.62524 315.6375 417.14087 316.1844Q417.6565 316.71564 418.43774 316.71564Q419.01587 316.71564 419.42212 316.41876Q419.844 316.10626 420.07837 315.45ZM416.62524 313.7469L420.094 313.7469Q420.0315 312.95 419.70337 312.5594Q419.18774 311.95 418.39087 311.95Q417.6565 311.95 417.1565 312.4344Q416.67212 312.91876 416.62524 313.7469ZM422.82837 310.075L422.82837 308.85626L423.89087 308.85626L423.89087 310.075L422.82837 310.075ZM422.82837 317.45L422.82837 311.23126L423.89087 311.23126L423.89087 317.45L422.82837 317.45ZM425.79712 317.45L425.79712 308.85626L426.85962 308.85626L426.85962 317.45L425.79712 317.45ZM433.844 319.98126Q432.969 318.8719 432.35962 317.40314Q431.76587 315.91876 431.76587 314.34064Q431.76587 312.95 432.20337 311.66876Q432.73462 310.1844 433.844 308.71564L434.594 308.71564Q433.89087 309.9344 433.6565 310.45Q433.29712 311.2625 433.094 312.1375Q432.844 313.23126 432.844 314.34064Q432.844 317.16876 434.594 319.98126L433.844 319.98126ZM439.89087 316.6844Q439.29712 317.1844 438.75024 317.3875Q438.219 317.59064 437.594 317.59064Q436.56274 317.59064 436.01587 317.09064Q435.469 316.59064 435.469 315.8094Q435.469 315.35626 435.67212 314.98126Q435.87524 314.59064 436.219 314.3719Q436.56274 314.1375 436.98462 314.02814Q437.2815 313.9344 437.92212 313.85626Q439.18774 313.71564 439.79712 313.4969Q439.79712 313.27814 439.79712 313.23126Q439.79712 312.575 439.50024 312.3094Q439.094 311.96564 438.29712 311.96564Q437.56274 311.96564 437.20337 312.23126Q436.844 312.48126 436.67212 313.1375L435.64087 312.9969Q435.7815 312.34064 436.10962 311.9344Q436.43774 311.52814 437.04712 311.3094Q437.6565 311.09064 438.45337 311.09064Q439.25024 311.09064 439.75024 311.27814Q440.25024 311.46564 440.48462 311.7469Q440.719 312.02814 440.81274 312.46564Q440.85962 312.73126 440.85962 313.4344L440.85962 314.84064Q440.85962 316.3094 440.92212 316.7Q441.00024 317.09064 441.20337 317.45L440.094 317.45Q439.93774 317.1219 439.89087 316.6844ZM439.79712 314.325Q439.219 314.5594 438.07837 314.73126Q437.42212 314.825 437.1565 314.95Q436.89087 315.0594 436.73462 315.27814Q436.594 315.4969 436.594 315.77814Q436.594 316.2 436.9065 316.48126Q437.23462 316.7625 437.844 316.7625Q438.45337 316.7625 438.92212 316.4969Q439.4065 316.23126 439.62524 315.7625Q439.79712 315.40314 439.79712 314.71564L439.79712 314.325ZM442.81274 317.45L442.81274 311.23126L443.76587 311.23126L443.76587 312.16876Q444.12524 311.5125 444.42212 311.3094Q444.73462 311.09064 445.10962 311.09064Q445.64087 311.09064 446.18774 311.41876L445.82837 312.40314Q445.43774 312.16876 445.06274 312.16876Q444.70337 312.16876 444.42212 312.3875Q444.1565 312.59064 444.04712 312.96564Q443.85962 313.52814 443.85962 314.1844L443.85962 317.45L442.81274 317.45ZM446.82837 317.45L446.82837 311.23126L447.76587 311.23126L447.76587 312.10626Q448.06274 311.6375 448.54712 311.3719Q449.0315 311.09064 449.6565 311.09064Q450.344 311.09064 450.7815 311.3719Q451.23462 311.65314 451.4065 312.16876Q452.1565 311.09064 453.32837 311.09064Q454.26587 311.09064 454.75024 311.60626Q455.25024 312.10626 455.25024 313.1844L455.25024 317.45L454.20337 317.45L454.20337 313.52814Q454.20337 312.90314 454.094 312.6219Q454.00024 312.34064 453.73462 312.16876Q453.469 311.9969 453.094 311.9969Q452.43774 311.9969 452.00024 312.4344Q451.57837 312.8719 451.57837 313.84064L451.57837 317.45L450.51587 317.45L450.51587 313.40314Q450.51587 312.7 450.25024 312.35626Q450.00024 311.9969 449.42212 311.9969Q448.969 311.9969 448.594 312.23126Q448.219 312.46564 448.04712 312.91876Q447.87524 313.3719 447.87524 314.21564L447.87524 317.45L446.82837 317.45ZM460.89087 315.16876L461.92212 315.3094Q461.75024 316.3719 461.04712 316.98126Q460.344 317.59064 459.32837 317.59064Q458.04712 317.59064 457.26587 316.7625Q456.50024 315.91876 456.50024 314.35626Q456.50024 313.35626 456.82837 312.60626Q457.17212 311.84064 457.844 311.46564Q458.5315 311.09064 459.344 311.09064Q460.344 311.09064 460.98462 311.60626Q461.64087 312.10626 461.82837 313.0594L460.79712 313.21564Q460.6565 312.59064 460.2815 312.27814Q459.9065 311.95 459.37524 311.95Q458.57837 311.95 458.07837 312.52814Q457.57837 313.09064 457.57837 314.325Q457.57837 315.59064 458.06274 316.15314Q458.54712 316.71564 459.31274 316.71564Q459.93774 316.71564 460.344 316.34064Q460.76587 315.96564 460.89087 315.16876ZM462.79712 317.45L462.79712 308.85626L463.85962 308.85626L463.85962 317.45L462.79712 317.45ZM469.89087 316.6844Q469.29712 317.1844 468.75024 317.3875Q468.219 317.59064 467.594 317.59064Q466.56274 317.59064 466.01587 317.09064Q465.469 316.59064 465.469 315.8094Q465.469 315.35626 465.67212 314.98126Q465.87524 314.59064 466.219 314.3719Q466.56274 314.1375 466.98462 314.02814Q467.2815 313.9344 467.92212 313.85626Q469.18774 313.71564 469.79712 313.4969Q469.79712 313.27814 469.79712 313.23126Q469.79712 312.575 469.50024 312.3094Q469.094 311.96564 468.29712 311.96564Q467.56274 311.96564 467.20337 312.23126Q466.844 312.48126 466.67212 313.1375L465.64087 312.9969Q465.7815 312.34064 466.10962 311.9344Q466.43774 311.52814 467.04712 311.3094Q467.6565 311.09064 468.45337 311.09064Q469.25024 311.09064 469.75024 311.27814Q470.25024 311.46564 470.48462 311.7469Q470.719 312.02814 470.81274 312.46564Q470.85962 312.73126 470.85962 313.4344L470.85962 314.84064Q470.85962 316.3094 470.92212 316.7Q471.00024 317.09064 471.20337 317.45L470.094 317.45Q469.93774 317.1219 469.89087 316.6844ZM469.79712 314.325Q469.219 314.5594 468.07837 314.73126Q467.42212 314.825 467.1565 314.95Q466.89087 315.0594 466.73462 315.27814Q466.594 315.4969 466.594 315.77814Q466.594 316.2 466.9065 316.48126Q467.23462 316.7625 467.844 316.7625Q468.45337 316.7625 468.92212 316.4969Q469.4065 316.23126 469.62524 315.7625Q469.79712 315.40314 469.79712 314.71564L469.79712 314.325ZM472.82837 317.45L472.82837 311.23126L473.76587 311.23126L473.76587 312.10626Q474.45337 311.09064 475.75024 311.09064Q476.31274 311.09064 476.7815 311.29376Q477.26587 311.4969 477.50024 311.825Q477.73462 312.15314 477.82837 312.59064Q477.87524 312.8875 477.87524 313.6219L477.87524 317.45L476.82837 317.45L476.82837 313.66876Q476.82837 313.0125 476.70337 312.7Q476.57837 312.3875 476.26587 312.2Q475.95337 311.9969 475.5315 311.9969Q474.85962 311.9969 474.35962 312.4344Q473.87524 312.85626 473.87524 314.04376L473.87524 317.45L472.82837 317.45ZM479.62524 317.96564L480.6565 318.1219Q480.719 318.59064 481.01587 318.8094Q481.4065 319.10626 482.07837 319.10626Q482.81274 319.10626 483.20337 318.8094Q483.60962 318.5125 483.75024 317.9969Q483.844 317.66876 483.82837 316.6375Q483.14087 317.45 482.10962 317.45Q480.82837 317.45 480.12524 316.52814Q479.42212 315.59064 479.42212 314.3094Q479.42212 313.41876 479.73462 312.66876Q480.06274 311.90314 480.67212 311.4969Q481.2815 311.09064 482.10962 311.09064Q483.219 311.09064 483.93774 311.98126L483.93774 311.23126L484.9065 311.23126L484.9065 316.60626Q484.9065 318.0594 484.60962 318.66876Q484.31274 319.27814 483.67212 319.6219Q483.0315 319.98126 482.094 319.98126Q480.98462 319.98126 480.29712 319.48126Q479.60962 318.98126 479.62524 317.96564ZM480.50024 314.23126Q480.50024 315.45 480.98462 316.0125Q481.469 316.575 482.20337 316.575Q482.93774 316.575 483.42212 316.0125Q483.92212 315.45 483.92212 314.2625Q483.92212 313.1219 483.4065 312.54376Q482.9065 311.96564 482.18774 311.96564Q481.48462 311.96564 480.98462 312.54376Q480.50024 313.10626 480.50024 314.23126ZM487.51587 319.98126L486.76587 319.98126Q488.51587 317.16876 488.51587 314.34064Q488.51587 313.2469 488.26587 312.15314Q488.06274 311.27814 487.70337 310.46564Q487.469 309.95 486.76587 308.71564L487.51587 308.71564Q488.60962 310.1844 489.14087 311.66876Q489.594 312.95 489.594 314.34064Q489.594 315.91876 488.98462 317.40314Q488.37524 318.8719 487.51587 319.98126Z" fill-rule="nonzero"/><path fill="#000000" d="M519.0108 317.45L519.0108 308.85626L520.1358 308.85626L520.1358 317.45L519.0108 317.45ZM520.8702 317.45L524.16705 308.85626L525.3858 308.85626L528.9014 317.45L527.6202 317.45L526.60455 314.84064L523.0264 314.84064L522.0733 317.45L520.8702 317.45ZM523.35455 313.91876L526.2608 313.91876L525.3702 311.54376Q524.9483 310.46564 524.7608 309.7625Q524.5889 310.59064 524.29205 311.40314L523.35455 313.91876ZM529.8233 317.45L529.8233 308.85626L533.6358 308.85626Q534.79205 308.85626 535.3858 309.09064Q535.97955 309.325 536.3389 309.91876Q536.6983 310.4969 536.6983 311.2Q536.6983 312.1219 536.10455 312.7469Q535.5108 313.3719 534.2764 313.54376Q534.72955 313.7625 534.9639 313.96564Q535.4639 314.41876 535.9014 315.10626L537.4014 317.45L535.9639 317.45L534.8389 315.66876Q534.3389 314.8875 534.0108 314.48126Q533.6983 314.075 533.4327 313.91876Q533.1827 313.7469 532.91705 313.66876Q532.72955 313.6375 532.29205 313.6375L530.9639 313.6375L530.9639 317.45L529.8233 317.45ZM530.9639 312.65314L533.41705 312.65314Q534.1827 312.65314 534.6202 312.4969Q535.0733 312.325 535.29205 311.98126Q535.5264 311.6219 535.5264 311.2Q535.5264 310.59064 535.0733 310.2Q534.6358 309.8094 533.6827 309.8094L530.9639 309.8094L530.9639 312.65314Z" fill-rule="nonzero"/><path fill="#4285f4" d="M220.0 56.916668C220.0 56.364384 220.44771 55.916668 221.0 55.916668L231.0 55.916668C231.55229 55.916668 232.0 56.364384 232.0 56.916668L232.0 66.916664C232.0 67.46895 231.55229 67.916664 231.0 67.916664L221.0 67.916664C220.44771 67.916664 220.0 67.46895 220.0 66.916664Z" fill-rule="nonzero"/><path fill="#1a1a1a" d="M244.46875 65.916664L243.42188 65.916664L243.42188 59.197914Q243.03125 59.55729 242.40625 59.93229Q241.79688 60.291664 241.3125 60.46354L241.3125 59.447914Q242.1875 59.02604 242.84375 58.447914Q243.51562 57.854164 243.79688 57.291664L244.46875 57.291664L244.46875 65.916664ZM253.10938 65.916664L253.10938 58.33854L250.28125 58.33854L250.28125 57.322914L257.09375 57.322914L257.09375 58.33854L254.25 58.33854L254.25 65.916664L253.10938 65.916664ZM257.79688 65.916664L257.79688 57.322914L258.84375 57.322914L258.84375 60.40104Q259.57812 59.55729 260.70312 59.55729Q261.40625 59.55729 261.90625 59.83854Q262.42188 60.104164 262.64062 60.58854Q262.85938 61.05729 262.85938 61.979164L262.85938 65.916664L261.8125 65.916664L261.8125 61.979164Q261.8125 61.18229 261.46875 60.822914Q261.125 60.46354 260.5 60.46354Q260.03125 60.46354 259.60938 60.71354Q259.20312 60.947914 259.01562 61.36979Q258.84375 61.77604 258.84375 62.510414L258.84375 65.916664L257.79688 65.916664ZM264.78125 65.916664L264.78125 59.697914L265.73438 59.697914L265.73438 60.635414Q266.09375 59.979164 266.39062 59.77604Q266.70312 59.55729 267.07812 59.55729Q267.60938 59.55729 268.15625 59.885414L267.79688 60.86979Q267.40625 60.635414 267.03125 60.635414Q266.67188 60.635414 266.39062 60.854164Q266.125 61.05729 266.01562 61.43229Q265.82812 61.99479 265.82812 62.65104L265.82812 65.916664L264.78125 65.916664ZM273.04688 63.916664L274.14062 64.041664Q273.89062 64.99479 273.1875 65.52604Q272.48438 66.05729 271.40625 66.05729Q270.04688 66.05729 269.23438 65.21354Q268.4375 64.36979 268.4375 62.854164Q268.4375 61.291664 269.25 60.43229Q270.0625 59.55729 271.34375 59.55729Q272.59375 59.55729 273.375 60.40104Q274.17188 61.24479 274.17188 62.791664Q274.17188 62.885414 274.17188 63.072914L269.53125 63.072914Q269.59375 64.104164 270.10938 64.65104Q270.625 65.18229 271.40625 65.18229Q271.98438 65.18229 272.39062 64.885414Q272.8125 64.572914 273.04688 63.916664ZM269.59375 62.21354L273.0625 62.21354Q273.0 61.416664 272.67188 61.02604Q272.15625 60.416664 271.35938 60.416664Q270.625 60.416664 270.125 60.90104Q269.64062 61.385414 269.59375 62.21354ZM279.85938 65.15104Q279.26562 65.65104 278.71875 65.854164Q278.1875 66.05729 277.5625 66.05729Q276.53125 66.05729 275.98438 65.55729Q275.4375 65.05729 275.4375 64.27604Q275.4375 63.822914 275.64062 63.447914Q275.84375 63.05729 276.1875 62.83854Q276.53125 62.604164 276.95312 62.49479Q277.25 62.40104 277.89062 62.322914Q279.15625 62.18229 279.76562 61.96354Q279.76562 61.74479 279.76562 61.697914Q279.76562 61.041664 279.46875 60.77604Q279.0625 60.43229 278.26562 60.43229Q277.53125 60.43229 277.17188 60.697914Q276.8125 60.947914 276.64062 61.604164L275.60938 61.46354Q275.75 60.80729 276.07812 60.40104Q276.40625 59.99479 277.01562 59.77604Q277.625 59.55729 278.42188 59.55729Q279.21875 59.55729 279.71875 59.74479Q280.21875 59.93229 280.45312 60.21354Q280.6875 60.49479 280.78125 60.93229Q280.82812 61.197914 280.82812 61.90104L280.82812 63.30729Q280.82812 64.77604 280.89062 65.166664Q280.96875 65.55729 281.17188 65.916664L280.0625 65.916664Q279.90625 65.58854 279.85938 65.15104ZM279.76562 62.791664Q279.1875 63.02604 278.04688 63.197914Q277.39062 63.291664 277.125 63.416664Q276.85938 63.52604 276.70312 63.74479Q276.5625 63.96354 276.5625 64.24479Q276.5625 64.666664 276.875 64.947914Q277.20312 65.229164 277.8125 65.229164Q278.42188 65.229164 278.89062 64.96354Q279.375 64.697914 279.59375 64.229164Q279.76562 63.86979 279.76562 63.18229L279.76562 62.791664ZM286.82812 65.916664L286.82812 65.135414Q286.23438 66.05729 285.09375 66.05729Q284.34375 66.05729 283.71875 65.65104Q283.09375 65.229164 282.75 64.49479Q282.40625 63.760414 282.40625 62.80729Q282.40625 61.885414 282.71875 61.11979Q283.03125 60.354164 283.65625 59.96354Q284.28125 59.55729 285.04688 59.55729Q285.60938 59.55729 286.04688 59.791664Q286.48438 60.02604 286.76562 60.40104L286.76562 57.322914L287.8125 57.322914L287.8125 65.916664L286.82812 65.916664ZM283.5 62.80729Q283.5 64.010414 284.0 64.604164Q284.5 65.18229 285.1875 65.18229Q285.875 65.18229 286.35938 64.61979Q286.84375 64.05729 286.84375 62.90104Q286.84375 61.61979 286.34375 61.02604Q285.85938 60.43229 285.14062 60.43229Q284.4375 60.43229 283.96875 61.010414Q283.5 61.572914 283.5 62.80729Z" fill-rule="nonzero"/><path fill="#ea4335" d="M305.0 56.916668C305.0 56.364384 305.44772 55.916668 306.0 55.916668L316.0 55.916668C316.55228 55.916668 317.0 56.364384 317.0 56.916668L317.0 66.916664C317.0 67.46895 316.55228 67.916664 316.0 67.916664L306.0 67.916664C305.44772 67.916664 305.0 67.46895 305.0 66.916664Z" fill-rule="nonzero"/><path fill="#1a1a1a" d="M328.875 65.916664L328.875 63.854164L325.15625 63.854164L325.15625 62.885414L329.07812 57.322914L329.9375 57.322914L329.9375 62.885414L331.09375 62.885414L331.09375 63.854164L329.9375 63.854164L329.9375 65.916664L328.875 65.916664ZM328.875 62.885414L328.875 59.02604L326.1875 62.885414L328.875 62.885414ZM338.10938 65.916664L338.10938 58.33854L335.28125 58.33854L335.28125 57.322914L342.09375 57.322914L342.09375 58.33854L339.25 58.33854L339.25 65.916664L338.10938 65.916664ZM342.79688 65.916664L342.79688 57.322914L343.84375 57.322914L343.84375 60.40104Q344.57812 59.55729 345.70312 59.55729Q346.40625 59.55729 346.90625 59.83854Q347.42188 60.104164 347.64062 60.58854Q347.85938 61.05729 347.85938 61.979164L347.85938 65.916664L346.8125 65.916664L346.8125 61.979164Q346.8125 61.18229 346.46875 60.822914Q346.125 60.46354 345.5 60.46354Q345.03125 60.46354 344.60938 60.71354Q344.20312 60.947914 344.01562 61.36979Q343.84375 61.77604 343.84375 62.510414L343.84375 65.916664L342.79688 65.916664ZM349.78125 65.916664L349.78125 59.697914L350.73438 59.697914L350.73438 60.635414Q351.09375 59.979164 351.39062 59.77604Q351.70312 59.55729 352.07812 59.55729Q352.60938 59.55729 353.15625 59.885414L352.79688 60.86979Q352.40625 60.635414 352.03125 60.635414Q351.67188 60.635414 351.39062 60.854164Q351.125 61.05729 351.01562 61.43229Q350.82812 61.99479 350.82812 62.65104L350.82812 65.916664L349.78125 65.916664ZM358.04688 63.916664L359.14062 64.041664Q358.89062 64.99479 358.1875 65.52604Q357.48438 66.05729 356.40625 66.05729Q355.04688 66.05729 354.23438 65.21354Q353.4375 64.36979 353.4375 62.854164Q353.4375 61.291664 354.25 60.43229Q355.0625 59.55729 356.34375 59.55729Q357.59375 59.55729 358.375 60.40104Q359.17188 61.24479 359.17188 62.791664Q359.17188 62.885414 359.17188 63.072914L354.53125 63.072914Q354.59375 64.104164 355.10938 64.65104Q355.625 65.18229 356.40625 65.18229Q356.98438 65.18229 357.39062 64.885414Q357.8125 64.572914 358.04688 63.916664ZM354.59375 62.21354L358.0625 62.21354Q358.0 61.416664 357.67188 61.02604Q357.15625 60.416664 356.35938 60.416664Q355.625 60.416664 355.125 60.90104Q354.64062 61.385414 354.59375 62.21354ZM364.85938 65.15104Q364.26562 65.65104 363.71875 65.854164Q363.1875 66.05729 362.5625 66.05729Q361.53125 66.05729 360.98438 65.55729Q360.4375 65.05729 360.4375 64.27604Q360.4375 63.822914 360.64062 63.447914Q360.84375 63.05729 361.1875 62.83854Q361.53125 62.604164 361.95312 62.49479Q362.25 62.40104 362.89062 62.322914Q364.15625 62.18229 364.76562 61.96354Q364.76562 61.74479 364.76562 61.697914Q364.76562 61.041664 364.46875 60.77604Q364.0625 60.43229 363.26562 60.43229Q362.53125 60.43229 362.17188 60.697914Q361.8125 60.947914 361.64062 61.604164L360.60938 61.46354Q360.75 60.80729 361.07812 60.40104Q361.40625 59.99479 362.01562 59.77604Q362.625 59.55729 363.42188 59.55729Q364.21875 59.55729 364.71875 59.74479Q365.21875 59.93229 365.45312 60.21354Q365.6875 60.49479 365.78125 60.93229Q365.82812 61.197914 365.82812 61.90104L365.82812 63.30729Q365.82812 64.77604 365.89062 65.166664Q365.96875 65.55729 366.17188 65.916664L365.0625 65.916664Q364.90625 65.58854 364.85938 65.15104ZM364.76562 62.791664Q364.1875 63.02604 363.04688 63.197914Q362.39062 63.291664 362.125 63.416664Q361.85938 63.52604 361.70312 63.74479Q361.5625 63.96354 361.5625 64.24479Q361.5625 64.666664 361.875 64.947914Q362.20312 65.229164 362.8125 65.229164Q363.42188 65.229164 363.89062 64.96354Q364.375 64.697914 364.59375 64.229164Q364.76562 63.86979 364.76562 63.18229L364.76562 62.791664ZM371.82812 65.916664L371.82812 65.135414Q371.23438 66.05729 370.09375 66.05729Q369.34375 66.05729 368.71875 65.65104Q368.09375 65.229164 367.75 64.49479Q367.40625 63.760414 367.40625 62.80729Q367.40625 61.885414 367.71875 61.11979Q368.03125 60.354164 368.65625 59.96354Q369.28125 59.55729 370.04688 59.55729Q370.60938 59.55729 371.04688 59.791664Q371.48438 60.02604 371.76562 60.40104L371.76562 57.322914L372.8125 57.322914L372.8125 65.916664L371.82812 65.916664ZM368.5 62.80729Q368.5 64.010414 369.0 64.604164Q369.5 65.18229 370.1875 65.18229Q370.875 65.18229 371.35938 64.61979Q371.84375 64.05729 371.84375 62.90104Q371.84375 61.61979 371.34375 61.02604Q370.85938 60.43229 370.14062 60.43229Q369.4375 60.43229 368.96875 61.010414Q368.5 61.572914 368.5 62.80729ZM374.375 64.05729L375.40625 63.90104Q375.5 64.52604 375.89062 64.854164Q376.29688 65.18229 377.03125 65.18229Q377.75 65.18229 378.09375 64.90104Q378.45312 64.604164 378.45312 64.197914Q378.45312 63.83854 378.14062 63.635414Q377.92188 63.49479 377.0625 63.27604Q375.90625 62.979164 375.45312 62.77604Q375.01562 62.55729 374.78125 62.18229Q374.54688 61.80729 374.54688 61.33854Q374.54688 60.93229 374.73438 60.572914Q374.92188 60.21354 375.25 59.979164Q375.5 59.80729 375.92188 59.68229Q376.34375 59.55729 376.84375 59.55729Q377.5625 59.55729 378.10938 59.77604Q378.67188 59.979164 378.9375 60.33854Q379.20312 60.697914 379.29688 61.291664L378.26562 61.43229Q378.20312 60.96354 377.85938 60.697914Q377.53125 60.416664 376.90625 60.416664Q376.1875 60.416664 375.875 60.666664Q375.5625 60.90104 375.5625 61.229164Q375.5625 61.43229 375.6875 61.58854Q375.82812 61.760414 376.09375 61.86979Q376.25 61.93229 377.03125 62.135414Q378.15625 62.447914 378.59375 62.635414Q379.03125 62.822914 379.28125 63.18229Q379.53125 63.541664 379.53125 64.08854Q379.53125 64.61979 379.21875 65.08854Q378.92188 65.541664 378.34375 65.80729Q377.76562 66.05729 377.03125 66.05729Q375.8125 66.05729 375.17188 65.55729Q374.54688 65.041664 374.375 64.05729Z" fill-rule="nonzero"/><path fill="#757575" d="M30.315624 32.534374L32.20625 33.003124Q31.6125 35.346874 30.065624 36.58125Q28.51875 37.8 26.26875 37.8Q23.95625 37.8 22.503124 36.8625Q21.065624 35.909374 20.3 34.128124Q19.55 32.33125 19.55 30.284374Q19.55 28.05 20.39375 26.39375Q21.253124 24.721874 22.83125 23.8625Q24.409374 22.9875 26.3 22.9875Q28.45625 22.9875 29.909374 24.08125Q31.378124 25.175 31.95625 27.159374L30.096874 27.596874Q29.596874 26.034374 28.64375 25.33125Q27.70625 24.6125 26.26875 24.6125Q24.6125 24.6125 23.503124 25.409374Q22.39375 26.190624 21.940624 27.534374Q21.503124 28.8625 21.503124 30.26875Q21.503124 32.096874 22.034374 33.471874Q22.565624 34.83125 23.690624 35.503124Q24.815624 36.175 26.1125 36.175Q27.70625 36.175 28.815624 35.253124Q29.925 34.33125 30.315624 32.534374ZM33.221874 32.3625Q33.221874 29.4875 34.815624 28.096874Q36.159374 26.940624 38.08125 26.940624Q40.221874 26.940624 41.565624 28.346874Q42.925 29.753124 42.925 32.221874Q42.925 34.221874 42.33125 35.378124Q41.7375 36.51875 40.58125 37.159374Q39.440624 37.784374 38.08125 37.784374Q35.89375 37.784374 34.55 36.39375Q33.221874 34.9875 33.221874 32.3625ZM35.01875 32.3625Q35.01875 34.3625 35.878124 35.346874Q36.753124 36.33125 38.08125 36.33125Q39.39375 36.33125 40.253124 35.346874Q41.128124 34.346874 41.128124 32.3Q41.128124 30.378124 40.253124 29.39375Q39.378124 28.39375 38.08125 28.39375Q36.753124 28.39375 35.878124 29.39375Q35.01875 30.378124 35.01875 32.3625ZM44.8625 37.55L44.8625 27.175L46.440624 27.175L46.440624 28.628124Q46.925 27.878124 47.7375 27.409374Q48.55 26.940624 49.58125 26.940624Q50.7375 26.940624 51.471874 27.425Q52.20625 27.89375 52.51875 28.753124Q53.753124 26.940624 55.721874 26.940624Q57.26875 26.940624 58.096874 27.8Q58.925 28.659374 58.925 30.425L58.925 37.55L57.175 37.55L57.175 31.01875Q57.175 29.95625 57.003124 29.503124Q56.83125 29.034374 56.378124 28.753124Q55.940624 28.471874 55.33125 28.471874Q54.2375 28.471874 53.503124 29.20625Q52.784374 29.925 52.784374 31.51875L52.784374 37.55L51.034374 37.55L51.034374 30.815624Q51.034374 29.64375 50.596874 29.065624Q50.175 28.471874 49.190624 28.471874Q48.45625 28.471874 47.815624 28.8625Q47.190624 29.253124 46.909374 30.003124Q46.628124 30.753124 46.628124 32.175L46.628124 37.55L44.8625 37.55ZM61.8625 41.51875L61.8625 27.175L63.471874 27.175L63.471874 28.51875Q64.03438 27.7375 64.7375 27.346874Q65.45625 26.940624 66.47188 26.940624Q67.8 26.940624 68.81563 27.628124Q69.83125 28.315624 70.34688 29.565624Q70.87813 30.8 70.87813 32.284374Q70.87813 33.878124 70.3 35.159374Q69.7375 36.425 68.64375 37.1125Q67.55 37.784374 66.34688 37.784374Q65.47188 37.784374 64.76875 37.409374Q64.08125 37.034374 63.628124 36.471874L63.628124 41.51875L61.8625 41.51875ZM63.45625 32.425Q63.45625 34.425 64.26875 35.378124Q65.08125 36.33125 66.2375 36.33125Q67.40938 36.33125 68.2375 35.346874Q69.08125 34.3625 69.08125 32.26875Q69.08125 30.3 68.25313 29.315624Q67.44063 28.315624 66.31563 28.315624Q65.19063 28.315624 64.31563 29.378124Q63.45625 30.425 63.45625 32.425ZM72.87813 25.253124L72.87813 23.2375L74.64375 23.2375L74.64375 25.253124L72.87813 25.253124ZM72.87813 37.55L72.87813 27.175L74.64375 27.175L74.64375 37.55L72.87813 37.55ZM76.83125 37.55L76.83125 23.2375L78.58125 23.2375L78.58125 37.55L76.83125 37.55ZM87.97188 34.20625L89.78438 34.440624Q89.3625 36.01875 88.19063 36.909374Q87.03438 37.784374 85.22188 37.784374Q82.95625 37.784374 81.6125 36.39375Q80.28438 34.9875 80.28438 32.45625Q80.28438 29.83125 81.62813 28.39375Q82.97188 26.940624 85.12813 26.940624Q87.20625 26.940624 88.51875 28.3625Q89.84688 29.76875 89.84688 32.346874Q89.84688 32.503124 89.83125 32.815624L82.09688 32.815624Q82.19063 34.51875 83.06563 35.425Q83.94063 36.33125 85.2375 36.33125Q86.20625 36.33125 86.87813 35.83125Q87.56563 35.315624 87.97188 34.20625ZM82.19063 31.3625L87.9875 31.3625Q87.87813 30.065624 87.33125 29.409374Q86.4875 28.39375 85.14375 28.39375Q83.94063 28.39375 83.1125 29.20625Q82.28438 30.003124 82.19063 31.3625ZM91.84688 37.55L91.84688 27.175L93.425 27.175L93.425 28.753124Q94.03438 27.64375 94.55 27.3Q95.06563 26.940624 95.675 26.940624Q96.56563 26.940624 97.4875 27.503124L96.87813 29.14375Q96.2375 28.753124 95.59688 28.753124Q95.01875 28.753124 94.55 29.1125Q94.09688 29.45625 93.89375 30.065624Q93.6125 31.003124 93.6125 32.1125L93.6125 37.55L91.84688 37.55ZM105.01875 37.55L105.01875 23.2375L110.39375 23.2375Q112.03438 23.2375 113.01875 23.675Q114.00313 24.096874 114.56563 25.003124Q115.12813 25.909374 115.12813 26.89375Q115.12813 27.815624 114.62813 28.628124Q114.14375 29.440624 113.12813 29.925Q114.425 30.315624 115.12813 31.2375Q115.83125 32.14375 115.83125 33.39375Q115.83125 34.409374 115.39375 35.26875Q114.97188 36.128124 114.34688 36.596874Q113.72188 37.065624 112.78438 37.315624Q111.84688 37.55 110.47188 37.55L105.01875 37.55ZM106.90938 29.253124L110.00313 29.253124Q111.26875 29.253124 111.81563 29.08125Q112.53438 28.8625 112.89375 28.378124Q113.26875 27.878124 113.26875 27.1125Q113.26875 26.409374 112.925 25.8625Q112.58125 25.315624 111.94063 25.128124Q111.31563 24.925 109.76875 24.925L106.90938 24.925L106.90938 29.253124ZM106.90938 35.8625L110.47188 35.8625Q111.39375 35.8625 111.76875 35.784374Q112.425 35.675 112.8625 35.409374Q113.3 35.128124 113.58125 34.6125Q113.8625 34.08125 113.8625 33.39375Q113.8625 32.596874 113.45625 32.003124Q113.05 31.409374 112.31563 31.175Q111.58125 30.940624 110.22188 30.940624L106.90938 30.940624L106.90938 35.8625ZM124.65938 37.55L124.65938 36.01875Q123.45625 37.784374 121.37813 37.784374Q120.45625 37.784374 119.65938 37.440624Q118.8625 37.08125 118.47188 36.55Q118.09688 36.01875 117.94063 35.2375Q117.83125 34.721874 117.83125 33.596874L117.83125 27.175L119.58125 27.175L119.58125 32.925Q119.58125 34.3 119.69063 34.784374Q119.8625 35.471874 120.39375 35.878124Q120.94063 36.26875 121.72188 36.26875Q122.51875 36.26875 123.20625 35.8625Q123.90938 35.45625 124.19063 34.76875Q124.4875 34.065624 124.4875 32.7375L124.4875 27.175L126.2375 27.175L126.2375 37.55L124.65938 37.55ZM128.87813 25.253124L128.87813 23.2375L130.64375 23.2375L130.64375 25.253124L128.87813 25.253124ZM128.87813 37.55L128.87813 27.175L130.64375 27.175L130.64375 37.55L128.87813 37.55ZM132.83125 37.55L132.83125 23.2375L134.58125 23.2375L134.58125 37.55L132.83125 37.55ZM143.59688 37.55L143.59688 36.2375Q142.6125 37.784374 140.69063 37.784374Q139.45625 37.784374 138.40938 37.096874Q137.37813 36.409374 136.8 35.190624Q136.2375 33.971874 136.2375 32.378124Q136.2375 30.815624 136.75313 29.55Q137.26875 28.284374 138.3 27.6125Q139.34688 26.940624 140.6125 26.940624Q141.55 26.940624 142.28438 27.346874Q143.01875 27.7375 143.4875 28.3625L143.4875 23.2375L145.22188 23.2375L145.22188 37.55L143.59688 37.55ZM138.03438 32.378124Q138.03438 34.3625 138.87813 35.346874Q139.72188 36.33125 140.8625 36.33125Q142.01875 36.33125 142.81563 35.39375Q143.62813 34.45625 143.62813 32.51875Q143.62813 30.39375 142.8 29.39375Q141.9875 28.39375 140.78438 28.39375Q139.6125 28.39375 138.81563 29.3625Q138.03438 30.315624 138.03438 32.378124ZM157.7375 37.55L157.7375 24.925L153.01875 24.925L153.01875 23.2375L164.3625 23.2375L164.3625 24.925L159.62813 24.925L159.62813 37.55L157.7375 37.55ZM165.87813 25.253124L165.87813 23.2375L167.64375 23.2375L167.64375 25.253124L165.87813 25.253124ZM165.87813 37.55L165.87813 27.175L167.64375 27.175L167.64375 37.55L165.87813 37.55ZM169.8625 37.55L169.8625 27.175L171.44063 27.175L171.44063 28.628124Q171.925 27.878124 172.7375 27.409374Q173.55 26.940624 174.58125 26.940624Q175.7375 26.940624 176.47188 27.425Q177.20625 27.89375 177.51875 28.753124Q178.75313 26.940624 180.72188 26.940624Q182.26875 26.940624 183.09688 27.8Q183.925 28.659374 183.925 30.425L183.925 37.55L182.175 37.55L182.175 31.01875Q182.175 29.95625 182.00313 29.503124Q181.83125 29.034374 181.37813 28.753124Q180.94063 28.471874 180.33125 28.471874Q179.2375 28.471874 178.50313 29.20625Q177.78438 29.925 177.78438 31.51875L177.78438 37.55L176.03438 37.55L176.03438 30.815624Q176.03438 29.64375 175.59688 29.065624Q175.175 28.471874 174.19063 28.471874Q173.45625 28.471874 172.81563 28.8625Q172.19063 29.253124 171.90938 30.003124Q171.62813 30.753124 171.62813 32.175L171.62813 37.55L169.8625 37.55ZM193.97188 34.20625L195.78438 34.440624Q195.3625 36.01875 194.19063 36.909374Q193.03438 37.784374 191.22188 37.784374Q188.95625 37.784374 187.6125 36.39375Q186.28438 34.9875 186.28438 32.45625Q186.28438 29.83125 187.62813 28.39375Q188.97188 26.940624 191.12813 26.940624Q193.20625 26.940624 194.51875 28.3625Q195.84688 29.76875 195.84688 32.346874Q195.84688 32.503124 195.83125 32.815624L188.09688 32.815624Q188.19063 34.51875 189.06563 35.425Q189.94063 36.33125 191.2375 36.33125Q192.20625 36.33125 192.87813 35.83125Q193.56563 35.315624 193.97188 34.20625ZM188.19063 31.3625L193.9875 31.3625Q193.87813 30.065624 193.33125 29.409374Q192.4875 28.39375 191.14375 28.39375Q189.94063 28.39375 189.1125 29.20625Q188.28438 30.003124 188.19063 31.3625ZM197.15938 34.45625L198.90938 34.175Q199.05 35.221874 199.72188 35.784374Q200.39375 36.33125 201.59688 36.33125Q202.8 36.33125 203.37813 35.846874Q203.97188 35.346874 203.97188 34.690624Q203.97188 34.096874 203.45625 33.753124Q203.09688 33.51875 201.65938 33.159374Q199.72188 32.659374 198.97188 32.315624Q198.2375 31.95625 197.84688 31.33125Q197.45625 30.690624 197.45625 29.925Q197.45625 29.2375 197.76875 28.64375Q198.09688 28.05 198.64375 27.659374Q199.05 27.3625 199.75313 27.159374Q200.47188 26.940624 201.28438 26.940624Q202.50313 26.940624 203.425 27.3Q204.34688 27.64375 204.78438 28.253124Q205.22188 28.846874 205.39375 29.846874L203.675 30.08125Q203.55 29.284374 202.9875 28.846874Q202.425 28.39375 201.40938 28.39375Q200.19063 28.39375 199.675 28.8Q199.15938 29.190624 199.15938 29.721874Q199.15938 30.065624 199.37813 30.346874Q199.58125 30.628124 200.05 30.815624Q200.31563 30.909374 201.59688 31.253124Q203.47188 31.753124 204.20625 32.08125Q204.94063 32.39375 205.3625 33.003124Q205.78438 33.596874 205.78438 34.503124Q205.78438 35.378124 205.26875 36.159374Q204.75313 36.940624 203.78438 37.3625Q202.81563 37.784374 201.59688 37.784374Q199.58125 37.784374 198.51875 36.940624Q197.45625 36.096874 197.15938 34.45625Z" fill-rule="nonzero"/></svg>