<?xml version="1.0" encoding="UTF-8" standalone="no"?>
<!DOCTYPE svg PUBLIC "-//W3C//DTD SVG 1.1//EN" "http://www.w3.org/Graphics/SVG/1.1/DTD/svg11.dtd">
<!-- Generated by graphviz version 2.40.1 (20161225.0304)
 -->
<!-- Title: G Pages: 1 -->
<svg width="460pt" height="404pt" viewBox="0.00 0.00 460.32 404.00" xmlns="http://www.w3.org/2000/svg" xmlns:xlink="http://www.w3.org/1999/xlink">
<g id="graph0" class="graph" transform="scale(1 1) rotate(0) translate(4 400)">
<title>G</title>
<polygon fill="#ffffff" stroke="transparent" points="-4,4 -4,-400 456.322,-400 456.322,4 -4,4"/>
<!-- FreeRTOSConfig.h -->
<g id="node1" class="node">
<title>FreeRTOSConfig.h</title>
<ellipse fill="none" stroke="#000000" cx="291.1389" cy="-378" rx="86.8783" ry="18"/>
<text text-anchor="middle" x="291.1389" y="-373.8" font-family="Times,serif" font-size="14.00" fill="#000000">FreeRTOSConfig.h</text>
</g>
<!-- app_util_platform.h -->
<g id="node2" class="node">
<title>app_util_platform.h</title>
<ellipse fill="none" stroke="#000000" cx="291.1389" cy="-306" rx="88.024" ry="18"/>
<text text-anchor="middle" x="291.1389" y="-301.8" font-family="Times,serif" font-size="14.00" fill="#000000">app_util_platform.h</text>
</g>
<!-- FreeRTOSConfig.h&#45;&gt;app_util_platform.h -->
<g id="edge1" class="edge">
<title>FreeRTOSConfig.h-&gt;app_util_platform.h</title>
<path fill="none" stroke="#000000" d="M291.1389,-359.8314C291.1389,-352.131 291.1389,-342.9743 291.1389,-334.4166"/>
<polygon fill="#000000" stroke="#000000" points="294.639,-334.4132 291.1389,-324.4133 287.639,-334.4133 294.639,-334.4132"/>
</g>
<!-- mdk/nrf.h -->
<g id="node3" class="node">
<title>mdk/nrf.h</title>
<ellipse fill="none" stroke="#000000" cx="229.1389" cy="-234" rx="49.2803" ry="18"/>
<text text-anchor="middle" x="229.1389" y="-229.8" font-family="Times,serif" font-size="14.00" fill="#000000">mdk/nrf.h</text>
</g>
<!-- app_util_platform.h&#45;&gt;mdk/nrf.h -->
<g id="edge2" class="edge">
<title>app_util_platform.h-&gt;mdk/nrf.h</title>
<path fill="none" stroke="#000000" d="M275.8131,-288.2022C268.249,-279.4182 258.9954,-268.672 250.7282,-259.0714"/>
<polygon fill="#000000" stroke="#000000" points="253.252,-256.6385 244.0745,-251.3446 247.9476,-261.2061 253.252,-256.6385"/>
</g>
<!-- nrf_assert.h -->
<g id="node9" class="node">
<title>nrf_assert.h</title>
<ellipse fill="none" stroke="#000000" cx="353.1389" cy="-234" rx="56.1981" ry="18"/>
<text text-anchor="middle" x="353.1389" y="-229.8" font-family="Times,serif" font-size="14.00" fill="#000000">nrf_assert.h</text>
</g>
<!-- app_util_platform.h&#45;&gt;nrf_assert.h -->
<g id="edge8" class="edge">
<title>app_util_platform.h-&gt;nrf_assert.h</title>
<path fill="none" stroke="#000000" d="M306.4648,-288.2022C313.9728,-279.4832 323.1455,-268.8311 331.3658,-259.2849"/>
<polygon fill="#000000" stroke="#000000" points="334.1163,-261.4546 337.9894,-251.593 328.8119,-256.8869 334.1163,-261.4546"/>
</g>
<!-- mdk/nrf52840.h -->
<g id="node4" class="node">
<title>mdk/nrf52840.h</title>
<ellipse fill="none" stroke="#000000" cx="229.1389" cy="-162" rx="73.5648" ry="18"/>
<text text-anchor="middle" x="229.1389" y="-157.8" font-family="Times,serif" font-size="14.00" fill="#000000">mdk/nrf52840.h</text>
</g>
<!-- mdk/nrf.h&#45;&gt;mdk/nrf52840.h -->
<g id="edge3" class="edge">
<title>mdk/nrf.h-&gt;mdk/nrf52840.h</title>
<path fill="none" stroke="#000000" d="M229.1389,-215.8314C229.1389,-208.131 229.1389,-198.9743 229.1389,-190.4166"/>
<polygon fill="#000000" stroke="#000000" points="232.639,-190.4132 229.1389,-180.4133 225.639,-190.4133 232.639,-190.4132"/>
</g>
<!-- cmsis/include/core_cm4.h -->
<g id="node5" class="node">
<title>cmsis/include/core_cm4.h</title>
<ellipse fill="none" stroke="#000000" cx="112.1389" cy="-90" rx="112.278" ry="18"/>
<text text-anchor="middle" x="112.1389" y="-85.8" font-family="Times,serif" font-size="14.00" fill="#000000">cmsis/include/core_cm4.h</text>
</g>
<!-- mdk/nrf52840.h&#45;&gt;cmsis/include/core_cm4.h -->
<g id="edge4" class="edge">
<title>mdk/nrf52840.h-&gt;cmsis/include/core_cm4.h</title>
<path fill="none" stroke="#000000" d="M201.7076,-145.1192C186.0631,-135.4918 166.2425,-123.2945 149.226,-112.8228"/>
<polygon fill="#000000" stroke="#000000" points="150.971,-109.7871 140.6201,-107.5269 147.3023,-115.7487 150.971,-109.7871"/>
</g>
<!-- mdk/system_nrf52840.h -->
<g id="node6" class="node">
<title>mdk/system_nrf52840.h</title>
<ellipse fill="none" stroke="#000000" cx="347.1389" cy="-90" rx="105.3664" ry="18"/>
<text text-anchor="middle" x="347.1389" y="-85.8" font-family="Times,serif" font-size="14.00" fill="#000000">mdk/system_nrf52840.h</text>
</g>
<!-- mdk/nrf52840.h&#45;&gt;mdk/system_nrf52840.h -->
<g id="edge5" class="edge">
<title>mdk/nrf52840.h-&gt;mdk/system_nrf52840.h</title>
<path fill="none" stroke="#000000" d="M256.8047,-145.1192C272.5829,-135.4918 292.5729,-123.2945 309.7348,-112.8228"/>
<polygon fill="#000000" stroke="#000000" points="311.701,-115.7233 318.4143,-107.5269 308.0549,-109.7478 311.701,-115.7233"/>
</g>
<!-- ...  -->
<g id="node7" class="node">
<title>... </title>
<ellipse fill="none" stroke="#000000" cx="112.1389" cy="-18" rx="27" ry="18"/>
<text text-anchor="middle" x="112.1389" y="-13.8" font-family="Times,serif" font-size="14.00" fill="#000000">... </text>
</g>
<!-- cmsis/include/core_cm4.h&#45;&gt;...  -->
<g id="edge6" class="edge">
<title>cmsis/include/core_cm4.h-&gt;... </title>
<path fill="none" stroke="#000000" d="M112.1389,-71.8314C112.1389,-64.131 112.1389,-54.9743 112.1389,-46.4166"/>
<polygon fill="#000000" stroke="#000000" points="115.639,-46.4132 112.1389,-36.4133 108.639,-46.4133 115.639,-46.4132"/>
</g>
<!-- ... -->
<g id="node8" class="node">
<title>...</title>
<ellipse fill="none" stroke="#000000" cx="347.1389" cy="-18" rx="27" ry="18"/>
<text text-anchor="middle" x="347.1389" y="-13.8" font-family="Times,serif" font-size="14.00" fill="#000000">...</text>
</g>
<!-- mdk/system_nrf52840.h&#45;&gt;... -->
<g id="edge7" class="edge">
<title>mdk/system_nrf52840.h-&gt;...</title>
<path fill="none" stroke="#000000" d="M347.1389,-71.8314C347.1389,-64.131 347.1389,-54.9743 347.1389,-46.4166"/>
<polygon fill="#000000" stroke="#000000" points="350.639,-46.4132 347.1389,-36.4133 343.639,-46.4133 350.639,-46.4132"/>
</g>
<!--  ...  -->
<g id="node10" class="node">
<title> ... </title>
<ellipse fill="none" stroke="#000000" cx="353.1389" cy="-162" rx="27" ry="18"/>
<text text-anchor="middle" x="353.1389" y="-157.8" font-family="Times,serif" font-size="14.00" fill="#000000"> ... </text>
</g>
<!-- nrf_assert.h&#45;&gt; ...  -->
<g id="edge9" class="edge">
<title>nrf_assert.h-&gt; ... </title>
<path fill="none" stroke="#000000" d="M353.1389,-215.8314C353.1389,-208.131 353.1389,-198.9743 353.1389,-190.4166"/>
<polygon fill="#000000" stroke="#000000" points="356.639,-190.4132 353.1389,-180.4133 349.639,-190.4133 356.639,-190.4132"/>
</g>
</g>
</svg>