<svg version="1.1" viewBox="0.0 0.0 600.0 371.0" fill="none" stroke="none" stroke-linecap="square" stroke-miterlimit="10" width="600" height="371" xmlns:xlink="http://www.w3.org/1999/xlink" xmlns="http://www.w3.org/2000/svg"><path fill="#ffffff" d="M0 0L600.0 0L600.0 371.0L0 371.0L0 0Z" fill-rule="nonzero"/><path stroke="#333333" stroke-width="1.0" stroke-linecap="butt" d="M45.5 332.5L435.5 332.5" fill-rule="nonzero"/><path stroke="#cccccc" stroke-width="1.0" stroke-linecap="butt" d="M45.5 293.5L435.5 293.5" fill-rule="nonzero"/><path stroke="#cccccc" stroke-width="1.0" stroke-linecap="butt" d="M45.5 255.5L435.5 255.5" fill-rule="nonzero"/><path stroke="#cccccc" stroke-width="1.0" stroke-linecap="butt" d="M45.5 216.5L435.5 216.5" fill-rule="nonzero"/><path stroke="#cccccc" stroke-width="1.0" stroke-linecap="butt" d="M45.5 177.5L435.5 177.5" fill-rule="nonzero"/><path stroke="#cccccc" stroke-width="1.0" stroke-linecap="butt" d="M45.5 139.5L435.5 139.5" fill-rule="nonzero"/><path stroke="#cccccc" stroke-width="1.0" stroke-linecap="butt" d="M45.5 100.5L435.5 100.5" fill-rule="nonzero"/><path stroke="#cccccc" stroke-width="1.0" stroke-linecap="butt" d="M45.5 61.5L435.5 61.5" fill-rule="nonzero"/><clipPath id="id_0"><path d="M45.55 61.916668L435.61444 61.916668L435.61444 332.45L45.55 332.45L45.55 61.916668Z" clip-rule="nonzero"/></clipPath><path stroke="#000000" stroke-width="0.0" stroke-linecap="butt" stroke-opacity="0.0" clip-path="url(#id_0)" d="M104.0 332.0L86.0 332.0L86.0 97.0C86.0 95.89543 86.89543 95.0 88.0 95.0L102.0 95.0C103.10457 95.0 104.0 95.89543 104.0 97.0Z" fill-rule="nonzero"/><path fill="#4285f4" clip-path="url(#id_0)" d="M104.0 332.0L86.0 332.0L86.0 97.0C86.0 95.89543 86.89543 95.0 88.0 95.0L102.0 95.0C103.10457 95.0 104.0 95.89543 104.0 97.0Z" fill-rule="nonzero"/><path stroke="#000000" stroke-width="0.0" stroke-linecap="butt" stroke-opacity="0.0" clip-path="url(#id_0)" d="M221.0 332.0L203.0 332.0L203.0 117.0C203.0 115.89543 203.89543 115.0 205.0 115.0L219.0 115.0C220.10457 115.0 221.0 115.89543 221.0 117.0Z" fill-rule="nonzero"/><path fill="#4285f4" clip-path="url(#id_0)" d="M221.0 332.0L203.0 332.0L203.0 117.0C203.0 115.89543 203.89543 115.0 205.0 115.0L219.0 115.0C220.10457 115.0 221.0 115.89543 221.0 117.0Z" fill-rule="nonzero"/><path stroke="#000000" stroke-width="0.0" stroke-linecap="butt" stroke-opacity="0.0" clip-path="url(#id_0)" d="M337.0 332.0L319.0 332.0L319.0 114.0C319.0 112.89543 319.89542 112.0 321.0 112.0L335.0 112.0C336.10458 112.0 337.0 112.89543 337.0 114.0Z" fill-rule="nonzero"/><path fill="#4285f4" clip-path="url(#id_0)" d="M337.0 332.0L319.0 332.0L319.0 114.0C319.0 112.89543 319.89542 112.0 321.0 112.0L335.0 112.0C336.10458 112.0 337.0 112.89543 337.0 114.0Z" fill-rule="nonzero"/><path stroke="#000000" stroke-width="0.0" stroke-linecap="butt" stroke-opacity="0.0" clip-path="url(#id_0)" d="M123.0 332.0L105.0 332.0L105.0 265.0C105.0 263.89542 105.89543 263.0 107.0 263.0L121.0 263.0C122.10457 263.0 123.0 263.89542 123.0 265.0Z" fill-rule="nonzero"/><path fill="#ea4335" clip-path="url(#id_0)" d="M123.0 332.0L105.0 332.0L105.0 265.0C105.0 263.89542 105.89543 263.0 107.0 263.0L121.0 263.0C122.10457 263.0 123.0 263.89542 123.0 265.0Z" fill-rule="nonzero"/><path stroke="#000000" stroke-width="0.0" stroke-linecap="butt" stroke-opacity="0.0" clip-path="url(#id_0)" d="M240.0 332.0L222.0 332.0L222.0 260.0C222.0 258.89542 222.89543 258.0 224.0 258.0L238.0 258.0C239.10457 258.0 240.0 258.89542 240.0 260.0Z" fill-rule="nonzero"/><path fill="#ea4335" clip-path="url(#id_0)" d="M240.0 332.0L222.0 332.0L222.0 260.0C222.0 258.89542 222.89543 258.0 224.0 258.0L238.0 258.0C239.10457 258.0 240.0 258.89542 240.0 260.0Z" fill-rule="nonzero"/><path stroke="#000000" stroke-width="0.0" stroke-linecap="butt" stroke-opacity="0.0" clip-path="url(#id_0)" d="M356.0 332.0L338.0 332.0L338.0 266.0C338.0 264.89542 338.89542 264.0 340.0 264.0L354.0 264.0C355.10458 264.0 356.0 264.89542 356.0 266.0Z" fill-rule="nonzero"/><path fill="#ea4335" clip-path="url(#id_0)" d="M356.0 332.0L338.0 332.0L338.0 266.0C338.0 264.89542 338.89542 264.0 340.0 264.0L354.0 264.0C355.10458 264.0 356.0 264.89542 356.0 266.0Z" fill-rule="nonzero"/><path stroke="#000000" stroke-width="0.0" stroke-linecap="butt" stroke-opacity="0.0" clip-path="url(#id_0)" d="M142.0 332.0L124.0 332.0L124.0 287.0C124.0 285.89542 124.89543 285.0 126.0 285.0L140.0 285.0C141.10457 285.0 142.0 285.89542 142.0 287.0Z" fill-rule="nonzero"/><path fill="#fbbc04" clip-path="url(#id_0)" d="M142.0 332.0L124.0 332.0L124.0 287.0C124.0 285.89542 124.89543 285.0 126.0 285.0L140.0 285.0C141.10457 285.0 142.0 285.89542 142.0 287.0Z" fill-rule="nonzero"/><path stroke="#000000" stroke-width="0.0" stroke-linecap="butt" stroke-opacity="0.0" clip-path="url(#id_0)" d="M259.0 332.0L241.0 332.0L241.0 297.0C241.0 295.89542 241.89543 295.0 243.0 295.0L257.0 295.0C258.10458 295.0 259.0 295.89542 259.0 297.0Z" fill-rule="nonzero"/><path fill="#fbbc04" clip-path="url(#id_0)" d="M259.0 332.0L241.0 332.0L241.0 297.0C241.0 295.89542 241.89543 295.0 243.0 295.0L257.0 295.0C258.10458 295.0 259.0 295.89542 259.0 297.0Z" fill-rule="nonzero"/><path stroke="#000000" stroke-width="0.0" stroke-linecap="butt" stroke-opacity="0.0" clip-path="url(#id_0)" d="M375.0 332.0L357.0 332.0L357.0 162.0C357.0 160.89543 357.89542 160.0 359.0 160.0L373.0 160.0C374.10458 160.0 375.0 160.89543 375.0 162.0Z" fill-rule="nonzero"/><path fill="#fbbc04" clip-path="url(#id_0)" d="M375.0 332.0L357.0 332.0L357.0 162.0C357.0 160.89543 357.89542 160.0 359.0 160.0L373.0 160.0C374.10458 160.0 375.0 160.89543 375.0 162.0Z" fill-rule="nonzero"/><path stroke="#000000" stroke-width="0.0" stroke-linecap="butt" stroke-opacity="0.0" clip-path="url(#id_0)" d="M161.0 332.0L143.0 332.0L143.0 316.0C143.0 314.89542 143.89543 314.0 145.0 314.0L159.0 314.0C160.10457 314.0 161.0 314.89542 161.0 316.0Z" fill-rule="nonzero"/><path fill="#34a853" clip-path="url(#id_0)" d="M161.0 332.0L143.0 332.0L143.0 316.0C143.0 314.89542 143.89543 314.0 145.0 314.0L159.0 314.0C160.10457 314.0 161.0 314.89542 161.0 316.0Z" fill-rule="nonzero"/><path stroke="#000000" stroke-width="0.0" stroke-linecap="butt" stroke-opacity="0.0" clip-path="url(#id_0)" d="M278.0 332.0L260.0 332.0L260.0 320.0C260.0 318.89542 260.89542 318.0 262.0 318.0L276.0 318.0C277.10458 318.0 278.0 318.89542 278.0 320.0Z" fill-rule="nonzero"/><path fill="#34a853" clip-path="url(#id_0)" d="M278.0 332.0L260.0 332.0L260.0 320.0C260.0 318.89542 260.89542 318.0 262.0 318.0L276.0 318.0C277.10458 318.0 278.0 318.89542 278.0 320.0Z" fill-rule="nonzero"/><path stroke="#000000" stroke-width="0.0" stroke-linecap="butt" stroke-opacity="0.0" clip-path="url(#id_0)" d="M394.0 332.0L376.0 332.0L376.0 292.0C376.0 290.89542 376.89542 290.0 378.0 290.0L392.0 290.0C393.10458 290.0 394.0 290.89542 394.0 292.0Z" fill-rule="nonzero"/><path fill="#34a853" clip-path="url(#id_0)" d="M394.0 332.0L376.0 332.0L376.0 292.0C376.0 290.89542 376.89542 290.0 378.0 290.0L392.0 290.0C393.10458 290.0 394.0 290.89542 394.0 292.0Z" fill-rule="nonzero"/><path fill="#000000" d="M33.05 332.21564Q33.05 330.6844 33.3625 329.7625Q33.675 328.825 34.284374 328.325Q34.909374 327.825 35.846874 327.825Q36.534374 327.825 37.05 328.10626Q37.58125 328.3875 37.925 328.91876Q38.26875 329.4344 38.45625 330.1844Q38.64375 330.9344 38.64375 332.21564Q38.64375 333.73126 38.33125 334.65314Q38.034374 335.575 37.409374 336.09064Q36.8 336.59064 35.846874 336.59064Q34.6125 336.59064 33.89375 335.7Q33.05 334.6375 33.05 332.21564ZM34.128124 332.21564Q34.128124 334.325 34.628124 335.02814Q35.128124 335.73126 35.846874 335.73126Q36.58125 335.73126 37.065624 335.02814Q37.565624 334.325 37.565624 332.21564Q37.565624 330.09064 37.065624 329.40314Q36.58125 328.7 35.83125 328.7Q35.1125 328.7 34.675 329.3094Q34.128124 330.09064 34.128124 332.21564Z" fill-rule="nonzero"/><path fill="#000000" d="M33.05 295.55237L34.159374 295.45862Q34.284374 296.27112 34.721874 296.67737Q35.175 297.08362 35.815624 297.08362Q36.565624 297.08362 37.096874 296.5055Q37.628124 295.92737 37.628124 294.98987Q37.628124 294.08362 37.1125 293.568Q36.6125 293.03674 35.784374 293.03674Q35.284374 293.03674 34.8625 293.27112Q34.45625 293.5055 34.221874 293.86487L33.2375 293.73987L34.065624 289.33362L38.346874 289.33362L38.346874 290.33362L34.909374 290.33362L34.45625 292.64612Q35.221874 292.09924 36.065624 292.09924Q37.190624 292.09924 37.95625 292.8805Q38.7375 293.66174 38.7375 294.89612Q38.7375 296.05237 38.065624 296.91174Q37.2375 297.943 35.815624 297.943Q34.64375 297.943 33.89375 297.28674Q33.159374 296.6305 33.05 295.55237Z" fill-rule="nonzero"/><path fill="#000000" d="M30.01875 259.15475L28.971874 259.15475L28.971874 252.436Q28.58125 252.79538 27.95625 253.17038Q27.346874 253.52975 26.8625 253.70163L26.8625 252.686Q27.7375 252.26413 28.39375 251.686Q29.065624 251.09225 29.346874 250.52975L30.01875 250.52975L30.01875 259.15475ZM33.05 254.92038Q33.05 253.38913 33.3625 252.46725Q33.675 251.52975 34.284374 251.02975Q34.909374 250.52975 35.846874 250.52975Q36.534374 250.52975 37.05 250.811Q37.58125 251.09225 37.925 251.6235Q38.26875 252.13913 38.45625 252.88913Q38.64375 253.63913 38.64375 254.92038Q38.64375 256.436 38.33125 257.35788Q38.034374 258.27975 37.409374 258.79538Q36.8 259.29538 35.846874 259.29538Q34.6125 259.29538 33.89375 258.40475Q33.05 257.34225 33.05 254.92038ZM34.128124 254.92038Q34.128124 257.02975 34.628124 257.73288Q35.128124 258.436 35.846874 258.436Q36.58125 258.436 37.065624 257.73288Q37.565624 257.02975 37.565624 254.92038Q37.565624 252.79538 37.065624 252.10788Q36.58125 251.40475 35.83125 251.40475Q35.1125 251.40475 34.675 252.01413Q34.128124 252.79538 34.128124 254.92038Z" fill-rule="nonzero"/><path fill="#000000" d="M30.01875 220.50714L28.971874 220.50714L28.971874 213.78839Q28.58125 214.14777 27.95625 214.52277Q27.346874 214.88214 26.8625 215.05402L26.8625 214.03839Q27.7375 213.61652 28.39375 213.03839Q29.065624 212.44464 29.346874 211.88214L30.01875 211.88214L30.01875 220.50714ZM33.05 218.25714L34.159374 218.16339Q34.284374 218.97589 34.721874 219.38214Q35.175 219.78839 35.815624 219.78839Q36.565624 219.78839 37.096874 219.21027Q37.628124 218.63214 37.628124 217.69464Q37.628124 216.78839 37.1125 216.27277Q36.6125 215.74152 35.784374 215.74152Q35.284374 215.74152 34.8625 215.97589Q34.45625 216.21027 34.221874 216.56964L33.2375 216.44464L34.065624 212.03839L38.346874 212.03839L38.346874 213.03839L34.909374 213.03839L34.45625 215.35089Q35.221874 214.80402 36.065624 214.80402Q37.190624 214.80402 37.95625 215.58527Q38.7375 216.36652 38.7375 217.60089Q38.7375 218.75714 38.065624 219.61652Q37.2375 220.64777 35.815624 220.64777Q34.64375 220.64777 33.89375 219.99152Q33.159374 219.33527 33.05 218.25714Z" fill-rule="nonzero"/><path fill="#000000" d="M31.596874 180.8439L31.596874 181.85953L25.909374 181.85953Q25.909374 181.48453 26.034374 181.12515Q26.253124 180.54703 26.721874 179.98453Q27.20625 179.42203 28.1125 178.68765Q29.51875 177.5314 30.003124 176.85953Q30.503124 176.18765 30.503124 175.5939Q30.503124 174.9689 30.05 174.54703Q29.596874 174.10953 28.878124 174.10953Q28.1125 174.10953 27.659374 174.56265Q27.20625 175.01578 27.190624 175.82828L26.1125 175.7189Q26.221874 174.50015 26.940624 173.87515Q27.675 173.23453 28.909374 173.23453Q30.14375 173.23453 30.8625 173.92203Q31.58125 174.60953 31.58125 175.62515Q31.58125 176.14078 31.3625 176.64078Q31.159374 177.12515 30.659374 177.68765Q30.175 178.23453 29.05 179.18765Q28.096874 179.98453 27.815624 180.2814Q27.55 180.56265 27.378124 180.8439L31.596874 180.8439ZM33.05 177.62515Q33.05 176.0939 33.3625 175.17203Q33.675 174.23453 34.284374 173.73453Q34.909374 173.23453 35.846874 173.23453Q36.534374 173.23453 37.05 173.51578Q37.58125 173.79703 37.925 174.32828Q38.26875 174.8439 38.45625 175.5939Q38.64375 176.3439 38.64375 177.62515Q38.64375 179.14078 38.33125 180.06265Q38.034374 180.98453 37.409374 181.50015Q36.8 182.00015 35.846874 182.00015Q34.6125 182.00015 33.89375 181.10953Q33.05 180.04703 33.05 177.62515ZM34.128124 177.62515Q34.128124 179.73453 34.628124 180.43765Q35.128124 181.14078 35.846874 181.14078Q36.58125 181.14078 37.065624 180.43765Q37.565624 179.73453 37.565624 177.62515Q37.565624 175.50015 37.065624 174.81265Q36.58125 174.10953 35.83125 174.10953Q35.1125 174.10953 34.675 174.7189Q34.128124 175.50015 34.128124 177.62515Z" fill-rule="nonzero"/><path fill="#000000" d="M31.596874 142.19627L31.596874 143.2119L25.909374 143.2119Q25.909374 142.8369 26.034374 142.47752Q26.253124 141.8994 26.721874 141.3369Q27.20625 140.7744 28.1125 140.04002Q29.51875 138.88377 30.003124 138.2119Q30.503124 137.54002 30.503124 136.94627Q30.503124 136.32127 30.05 135.8994Q29.596874 135.4619 28.878124 135.4619Q28.1125 135.4619 27.659374 135.91502Q27.20625 136.36815 27.190624 137.18065L26.1125 137.07127Q26.221874 135.85252 26.940624 135.22752Q27.675 134.5869 28.909374 134.5869Q30.14375 134.5869 30.8625 135.2744Q31.58125 135.9619 31.58125 136.97752Q31.58125 137.49315 31.3625 137.99315Q31.159374 138.47752 30.659374 139.04002Q30.175 139.5869 29.05 140.54002Q28.096874 141.3369 27.815624 141.63377Q27.55 141.91502 27.378124 142.19627L31.596874 142.19627ZM33.05 140.9619L34.159374 140.86815Q34.284374 141.68065 34.721874 142.0869Q35.175 142.49315 35.815624 142.49315Q36.565624 142.49315 37.096874 141.91502Q37.628124 141.3369 37.628124 140.3994Q37.628124 139.49315 37.1125 138.97752Q36.6125 138.44627 35.784374 138.44627Q35.284374 138.44627 34.8625 138.68065Q34.45625 138.91502 34.221874 139.2744L33.2375 139.1494L34.065624 134.74315L38.346874 134.74315L38.346874 135.74315L34.909374 135.74315L34.45625 138.05565Q35.221874 137.50877 36.065624 137.50877Q37.190624 137.50877 37.95625 138.29002Q38.7375 139.07127 38.7375 140.30565Q38.7375 141.4619 38.065624 142.32127Q37.2375 143.35252 35.815624 143.35252Q34.64375 143.35252 33.89375 142.69627Q33.159374 142.04002 33.05 140.9619Z" fill-rule="nonzero"/><path fill="#000000" d="M26.05 102.29866L27.1125 102.158035Q27.284374 103.04866 27.721874 103.45491Q28.159374 103.845535 28.784374 103.845535Q29.534374 103.845535 30.05 103.32991Q30.565624 102.814285 30.565624 102.04866Q30.565624 101.32991 30.08125 100.86116Q29.6125 100.376785 28.878124 100.376785Q28.58125 100.376785 28.128124 100.501785L28.253124 99.564285Q28.3625 99.57991 28.425 99.57991Q29.096874 99.57991 29.628124 99.23616Q30.175 98.876785 30.175 98.14241Q30.175 97.564285 29.784374 97.189285Q29.39375 96.79866 28.76875 96.79866Q28.159374 96.79866 27.7375 97.189285Q27.33125 97.57991 27.221874 98.345535L26.159374 98.158035Q26.346874 97.11116 27.034374 96.533035Q27.721874 95.939285 28.7375 95.939285Q29.440624 95.939285 30.034374 96.251785Q30.628124 96.54866 30.940624 97.064285Q31.253124 97.57991 31.253124 98.17366Q31.253124 98.720535 30.95625 99.189285Q30.659374 99.64241 30.08125 99.908035Q30.83125 100.07991 31.253124 100.64241Q31.675 101.189285 31.675 102.033035Q31.675 103.158035 30.846874 103.939285Q30.034374 104.720535 28.784374 104.720535Q27.659374 104.720535 26.909374 104.04866Q26.159374 103.36116 26.05 102.29866ZM33.05 100.32991Q33.05 98.79866 33.3625 97.876785Q33.675 96.939285 34.284374 96.439285Q34.909374 95.939285 35.846874 95.939285Q36.534374 95.939285 37.05 96.220535Q37.58125 96.501785 37.925 97.033035Q38.26875 97.54866 38.45625 98.29866Q38.64375 99.04866 38.64375 100.32991Q38.64375 101.845535 38.33125 102.76741Q38.034374 103.689285 37.409374 104.20491Q36.8 104.70491 35.846874 104.70491Q34.6125 104.70491 33.89375 103.814285Q33.05 102.751785 33.05 100.32991ZM34.128124 100.32991Q34.128124 102.439285 34.628124 103.14241Q35.128124 103.845535 35.846874 103.845535Q36.58125 103.845535 37.065624 103.14241Q37.565624 102.439285 37.565624 100.32991Q37.565624 98.20491 37.065624 97.51741Q36.58125 96.814285 35.83125 96.814285Q35.1125 96.814285 34.675 97.42366Q34.128124 98.20491 34.128124 100.32991Z" fill-rule="nonzero"/><path fill="#000000" d="M26.05 63.65104L27.1125 63.510414Q27.284374 64.40104 27.721874 64.80729Q28.159374 65.197914 28.784374 65.197914Q29.534374 65.197914 30.05 64.68229Q30.565624 64.166664 30.565624 63.40104Q30.565624 62.68229 30.08125 62.21354Q29.6125 61.729164 28.878124 61.729164Q28.58125 61.729164 28.128124 61.854164L28.253124 60.916664Q28.3625 60.93229 28.425 60.93229Q29.096874 60.93229 29.628124 60.58854Q30.175 60.229164 30.175 59.49479Q30.175 58.916664 29.784374 58.541664Q29.39375 58.15104 28.76875 58.15104Q28.159374 58.15104 27.7375 58.541664Q27.33125 58.93229 27.221874 59.697914L26.159374 59.510414Q26.346874 58.46354 27.034374 57.885414Q27.721874 57.291664 28.7375 57.291664Q29.440624 57.291664 30.034374 57.604164Q30.628124 57.90104 30.940624 58.416664Q31.253124 58.93229 31.253124 59.52604Q31.253124 60.072914 30.95625 60.541664Q30.659374 60.99479 30.08125 61.260414Q30.83125 61.43229 31.253124 61.99479Q31.675 62.541664 31.675 63.385414Q31.675 64.510414 30.846874 65.291664Q30.034374 66.072914 28.784374 66.072914Q27.659374 66.072914 26.909374 65.40104Q26.159374 64.71354 26.05 63.65104ZM33.05 63.666664L34.159374 63.572914Q34.284374 64.385414 34.721874 64.791664Q35.175 65.197914 35.815624 65.197914Q36.565624 65.197914 37.096874 64.61979Q37.628124 64.041664 37.628124 63.104164Q37.628124 62.197914 37.1125 61.68229Q36.6125 61.15104 35.784374 61.15104Q35.284374 61.15104 34.8625 61.385414Q34.45625 61.61979 34.221874 61.979164L33.2375 61.854164L34.065624 57.447914L38.346874 57.447914L38.346874 58.447914L34.909374 58.447914L34.45625 60.760414Q35.221874 60.21354 36.065624 60.21354Q37.190624 60.21354 37.95625 60.99479Q38.7375 61.77604 38.7375 63.010414Q38.7375 64.166664 38.065624 65.02604Q37.2375 66.05729 35.815624 66.05729Q34.64375 66.05729 33.89375 65.40104Q33.159374 64.74479 33.05 63.666664Z" fill-rule="nonzero"/><path fill="#000000" d="M113.5357 349.45L113.5357 340.85626L115.25445 340.85626L117.2857 346.9344Q117.56695 347.79376 117.69195 348.21564Q117.83257 347.7469 118.14507 346.84064L120.20757 340.85626L121.73882 340.85626L121.73882 349.45L120.64507 349.45L120.64507 342.2625L118.14507 349.45L117.11382 349.45L114.62945 342.1375L114.62945 349.45L113.5357 349.45ZM127.50445 348.6844Q126.9107 349.1844 126.36382 349.3875Q125.83257 349.59064 125.20757 349.59064Q124.17632 349.59064 123.62945 349.09064Q123.08257 348.59064 123.08257 347.8094Q123.08257 347.35626 123.2857 346.98126Q123.48882 346.59064 123.83257 346.3719Q124.17632 346.1375 124.5982 346.02814Q124.89507 345.9344 125.5357 345.85626Q126.80132 345.71564 127.4107 345.4969Q127.4107 345.27814 127.4107 345.23126Q127.4107 344.575 127.11382 344.3094Q126.70757 343.96564 125.9107 343.96564Q125.17632 343.96564 124.81695 344.23126Q124.45757 344.48126 124.2857 345.1375L123.25445 344.9969Q123.39507 344.34064 123.7232 343.9344Q124.05132 343.52814 124.6607 343.3094Q125.27007 343.09064 126.06695 343.09064Q126.86382 343.09064 127.36382 343.27814Q127.86382 343.46564 128.0982 343.7469Q128.33258 344.02814 128.42633 344.46564Q128.4732 344.73126 128.4732 345.4344L128.4732 346.84064Q128.4732 348.3094 128.5357 348.7Q128.61383 349.09064 128.81696 349.45L127.70757 349.45Q127.55132 349.1219 127.50445 348.6844ZM127.4107 346.325Q126.83257 346.5594 125.69195 346.73126Q125.0357 346.825 124.77007 346.95Q124.50445 347.0594 124.3482 347.27814Q124.20757 347.4969 124.20757 347.77814Q124.20757 348.2 124.52007 348.48126Q124.8482 348.7625 125.45757 348.7625Q126.06695 348.7625 126.5357 348.4969Q127.02007 348.23126 127.23882 347.7625Q127.4107 347.40314 127.4107 346.71564L127.4107 346.325ZM134.50446 347.16876L135.5357 347.3094Q135.36383 348.3719 134.6607 348.98126Q133.95758 349.59064 132.94196 349.59064Q131.6607 349.59064 130.87946 348.7625Q130.11383 347.91876 130.11383 346.35626Q130.11383 345.35626 130.44196 344.60626Q130.7857 343.84064 131.45758 343.46564Q132.14508 343.09064 132.95758 343.09064Q133.95758 343.09064 134.5982 343.60626Q135.25446 344.10626 135.44196 345.0594L134.4107 345.21564Q134.27008 344.59064 133.89508 344.27814Q133.52008 343.95 132.98883 343.95Q132.19196 343.95 131.69196 344.52814Q131.19196 345.09064 131.19196 346.325Q131.19196 347.59064 131.67633 348.15314Q132.1607 348.71564 132.92633 348.71564Q133.55133 348.71564 133.95758 348.34064Q134.37946 347.96564 134.50446 347.16876Z" fill-rule="nonzero"/><path fill="#000000" d="M226.45723 349.45L226.45723 340.85626L227.59785 340.85626L227.59785 348.4344L231.83223 348.4344L231.83223 349.45L226.45723 349.45ZM233.3791 342.075L233.3791 340.85626L234.4416 340.85626L234.4416 342.075L233.3791 342.075ZM233.3791 349.45L233.3791 343.23126L234.4416 343.23126L234.4416 349.45L233.3791 349.45ZM236.3791 349.45L236.3791 343.23126L237.3166 343.23126L237.3166 344.10626Q238.0041 343.09064 239.30098 343.09064Q239.86348 343.09064 240.33223 343.29376Q240.8166 343.4969 241.05098 343.825Q241.28535 344.15314 241.3791 344.59064Q241.42598 344.8875 241.42598 345.6219L241.42598 349.45L240.3791 349.45L240.3791 345.66876Q240.3791 345.0125 240.2541 344.7Q240.1291 344.3875 239.8166 344.2Q239.5041 343.9969 239.08223 343.9969Q238.41035 343.9969 237.91035 344.4344Q237.42598 344.85626 237.42598 346.04376L237.42598 349.45L236.3791 349.45ZM247.45723 349.45L247.45723 348.52814Q246.72285 349.59064 245.47285 349.59064Q244.92598 349.59064 244.4416 349.3875Q243.97285 349.16876 243.73848 348.85626Q243.5041 348.52814 243.41035 348.0594Q243.34785 347.7625 243.34785 347.075L243.34785 343.23126L244.41035 343.23126L244.41035 346.6844Q244.41035 347.4969 244.47285 347.79376Q244.5666 348.2 244.8791 348.45Q245.20723 348.6844 245.6916 348.6844Q246.16035 348.6844 246.5666 348.45Q246.98848 348.2 247.16035 347.77814Q247.34785 347.35626 247.34785 346.5594L247.34785 343.23126L248.39473 343.23126L248.39473 349.45L247.45723 349.45ZM249.67598 349.45L251.9416 346.21564L249.84785 343.23126L251.16035 343.23126L252.11348 344.6844Q252.3791 345.10626 252.55098 345.3875Q252.80098 344.9969 253.01973 344.7L254.0666 343.23126L255.33223 343.23126L253.17598 346.15314L255.48848 349.45L254.20723 349.45L252.92598 347.5125L252.58223 346.9969L250.9416 349.45L249.67598 349.45Z" fill-rule="nonzero"/><path fill="#000000" d="M348.94125 349.45L346.66 340.85626L347.83188 340.85626L349.14438 346.4969Q349.3475 347.3719 349.50375 348.2469Q349.83188 346.8719 349.89438 346.65314L351.51938 340.85626L352.89438 340.85626L354.12875 345.2Q354.58188 346.825 354.80063 348.2469Q354.95688 347.4344 355.2225 346.3719L356.56625 340.85626L357.70688 340.85626L355.36313 349.45L354.25375 349.45L352.45688 342.90314Q352.2225 342.09064 352.17563 341.90314Q352.05063 342.48126 351.92563 342.90314L350.11313 349.45L348.94125 349.45ZM358.31625 342.075L358.31625 340.85626L359.37875 340.85626L359.37875 342.075L358.31625 342.075ZM358.31625 349.45L358.31625 343.23126L359.37875 343.23126L359.37875 349.45L358.31625 349.45ZM361.31625 349.45L361.31625 343.23126L362.25375 343.23126L362.25375 344.10626Q362.94125 343.09064 364.23813 343.09064Q364.80063 343.09064 365.26938 343.29376Q365.75375 343.4969 365.98813 343.825Q366.2225 344.15314 366.31625 344.59064Q366.36313 344.8875 366.36313 345.6219L366.36313 349.45L365.31625 349.45L365.31625 345.66876Q365.31625 345.0125 365.19125 344.7Q365.06625 344.3875 364.75375 344.2Q364.44125 343.9969 364.01938 343.9969Q363.3475 343.9969 362.8475 344.4344Q362.36313 344.85626 362.36313 346.04376L362.36313 349.45L361.31625 349.45Z" fill-rule="nonzero"/><path fill="#4285f4" d="M455.45 56.916668C455.45 56.364384 455.8977 55.916668 456.45 55.916668L466.45 55.916668C467.0023 55.916668 467.45 56.364384 467.45 56.916668L467.45 66.916664C467.45 67.46895 467.0023 67.916664 466.45 67.916664L456.45 67.916664C455.8977 67.916664 455.45 67.46895 455.45 66.916664Z" fill-rule="nonzero"/><path fill="#1a1a1a" d="M476.3719 65.916664L476.3719 57.322914L477.52814 57.322914L482.04376 64.072914L482.04376 57.322914L483.1375 57.322914L483.1375 65.916664L481.96564 65.916664L477.45 59.166664L477.45 65.916664L476.3719 65.916664ZM484.85626 62.80729Q484.85626 61.072914 485.8094 60.24479Q486.60626 59.55729 487.7625 59.55729Q489.04376 59.55729 489.85626 60.40104Q490.6844 61.229164 490.6844 62.71354Q490.6844 63.916664 490.325 64.604164Q489.96564 65.291664 489.2625 65.68229Q488.575 66.05729 487.7625 66.05729Q486.46564 66.05729 485.65314 65.229164Q484.85626 64.385414 484.85626 62.80729ZM485.9344 62.80729Q485.9344 63.99479 486.45 64.58854Q486.98126 65.18229 487.7625 65.18229Q488.5594 65.18229 489.075 64.58854Q489.59064 63.99479 489.59064 62.77604Q489.59064 61.61979 489.0594 61.02604Q488.54376 60.43229 487.7625 60.43229Q486.98126 60.43229 486.45 61.02604Q485.9344 61.604164 485.9344 62.80729ZM492.23126 65.916664L492.23126 59.697914L493.1844 59.697914L493.1844 60.635414Q493.54376 59.979164 493.84064 59.77604Q494.15314 59.55729 494.52814 59.55729Q495.0594 59.55729 495.60626 59.885414L495.2469 60.86979Q494.85626 60.635414 494.48126 60.635414Q494.1219 60.635414 493.84064 60.854164Q493.575 61.05729 493.46564 61.43229Q493.27814 61.99479 493.27814 62.65104L493.27814 65.916664L492.23126 65.916664ZM496.2469 65.916664L496.2469 59.697914L497.1844 59.697914L497.1844 60.572914Q497.48126 60.104164 497.96564 59.83854Q498.45 59.55729 499.075 59.55729Q499.7625 59.55729 500.2 59.83854Q500.65314 60.11979 500.825 60.635414Q501.575 59.55729 502.7469 59.55729Q503.6844 59.55729 504.16876 60.072914Q504.66876 60.572914 504.66876 61.65104L504.66876 65.916664L503.6219 65.916664L503.6219 61.99479Q503.6219 61.36979 503.5125 61.08854Q503.41876 60.80729 503.15314 60.635414Q502.8875 60.46354 502.5125 60.46354Q501.85626 60.46354 501.41876 60.90104Q500.9969 61.33854 500.9969 62.30729L500.9969 65.916664L499.9344 65.916664L499.9344 61.86979Q499.9344 61.166664 499.66876 60.822914Q499.41876 60.46354 498.84064 60.46354Q498.3875 60.46354 498.0125 60.697914Q497.6375 60.93229 497.46564 61.385414Q497.29376 61.83854 497.29376 62.68229L497.29376 65.916664L496.2469 65.916664ZM510.3094 65.15104Q509.71564 65.65104 509.16876 65.854164Q508.6375 66.05729 508.0125 66.05729Q506.98126 66.05729 506.4344 65.55729Q505.8875 65.05729 505.8875 64.27604Q505.8875 63.822914 506.09064 63.447914Q506.29376 63.05729 506.6375 62.83854Q506.98126 62.604164 507.40314 62.49479Q507.7 62.40104 508.34064 62.322914Q509.60626 62.18229 510.21564 61.96354Q510.21564 61.74479 510.21564 61.697914Q510.21564 61.041664 509.91876 60.77604Q509.5125 60.43229 508.71564 60.43229Q507.98126 60.43229 507.6219 60.697914Q507.2625 60.947914 507.09064 61.604164L506.0594 61.46354Q506.2 60.80729 506.52814 60.40104Q506.85626 59.99479 507.46564 59.77604Q508.075 59.55729 508.8719 59.55729Q509.66876 59.55729 510.16876 59.74479Q510.66876 59.93229 510.90314 60.21354Q511.1375 60.49479 511.23126 60.93229Q511.27814 61.197914 511.27814 61.90104L511.27814 63.30729Q511.27814 64.77604 511.34064 65.166664Q511.41876 65.55729 511.6219 65.916664L510.5125 65.916664Q510.35626 65.58854 510.3094 65.15104ZM510.21564 62.791664Q509.6375 63.02604 508.4969 63.197914Q507.84064 63.291664 507.575 63.416664Q507.3094 63.52604 507.15314 63.74479Q507.0125 63.96354 507.0125 64.24479Q507.0125 64.666664 507.325 64.947914Q507.65314 65.229164 508.2625 65.229164Q508.8719 65.229164 509.34064 64.96354Q509.825 64.697914 510.04376 64.229164Q510.21564 63.86979 510.21564 63.18229L510.21564 62.791664ZM513.21564 65.916664L513.21564 57.322914L514.27814 57.322914L514.27814 65.916664L513.21564 65.916664ZM521.2625 68.447914Q520.3875 67.33854 519.77814 65.86979Q519.1844 64.385414 519.1844 62.80729Q519.1844 61.416664 519.6219 60.135414Q520.15314 58.65104 521.2625 57.18229L522.0125 57.18229Q521.3094 58.40104 521.075 58.916664Q520.71564 59.729164 520.5125 60.604164Q520.2625 61.697914 520.2625 62.80729Q520.2625 65.635414 522.0125 68.447914L521.2625 68.447914ZM526.91876 65.916664L525.8719 65.916664L525.8719 59.197914Q525.48126 59.55729 524.85626 59.93229Q524.2469 60.291664 523.7625 60.46354L523.7625 59.447914Q524.6375 59.02604 525.29376 58.447914Q525.96564 57.854164 526.2469 57.291664L526.91876 57.291664L526.91876 65.916664ZM535.5594 65.916664L535.5594 58.33854L532.73126 58.33854L532.73126 57.322914L539.54376 57.322914L539.54376 58.33854L536.7 58.33854L536.7 65.916664L535.5594 65.916664ZM540.2469 65.916664L540.2469 57.322914L541.29376 57.322914L541.29376 60.40104Q542.02814 59.55729 543.15314 59.55729Q543.85626 59.55729 544.35626 59.83854Q544.8719 60.104164 545.09064 60.58854Q545.3094 61.05729 545.3094 61.979164L545.3094 65.916664L544.2625 65.916664L544.2625 61.979164Q544.2625 61.18229 543.91876 60.822914Q543.575 60.46354 542.95 60.46354Q542.48126 60.46354 542.0594 60.71354Q541.65314 60.947914 541.46564 61.36979Q541.29376 61.77604 541.29376 62.510414L541.29376 65.916664L540.2469 65.916664ZM547.23126 65.916664L547.23126 59.697914L548.1844 59.697914L548.1844 60.635414Q548.54376 59.979164 548.84064 59.77604Q549.15314 59.55729 549.52814 59.55729Q550.0594 59.55729 550.60626 59.885414L550.2469 60.86979Q549.85626 60.635414 549.48126 60.635414Q549.1219 60.635414 548.84064 60.854164Q548.575 61.05729 548.46564 61.43229Q548.27814 61.99479 548.27814 62.65104L548.27814 65.916664L547.23126 65.916664ZM555.4969 63.916664L556.59064 64.041664Q556.34064 64.99479 555.6375 65.52604Q554.9344 66.05729 553.85626 66.05729Q552.4969 66.05729 551.6844 65.21354Q550.8875 64.36979 550.8875 62.854164Q550.8875 61.291664 551.7 60.43229Q552.5125 59.55729 553.79376 59.55729Q555.04376 59.55729 555.825 60.40104Q556.6219 61.24479 556.6219 62.791664Q556.6219 62.885414 556.6219 63.072914L551.98126 63.072914Q552.04376 64.104164 552.5594 64.65104Q553.075 65.18229 553.85626 65.18229Q554.4344 65.18229 554.84064 64.885414Q555.2625 64.572914 555.4969 63.916664ZM552.04376 62.21354L555.5125 62.21354Q555.45 61.416664 555.1219 61.02604Q554.60626 60.416664 553.8094 60.416664Q553.075 60.416664 552.575 60.90104Q552.09064 61.385414 552.04376 62.21354ZM562.3094 65.15104Q561.71564 65.65104 561.16876 65.854164Q560.6375 66.05729 560.0125 66.05729Q558.98126 66.05729 558.4344 65.55729Q557.8875 65.05729 557.8875 64.27604Q557.8875 63.822914 558.09064 63.447914Q558.29376 63.05729 558.6375 62.83854Q558.98126 62.604164 559.40314 62.49479Q559.7 62.40104 560.34064 62.322914Q561.60626 62.18229 562.21564 61.96354Q562.21564 61.74479 562.21564 61.697914Q562.21564 61.041664 561.91876 60.77604Q561.5125 60.43229 560.71564 60.43229Q559.98126 60.43229 559.6219 60.697914Q559.2625 60.947914 559.09064 61.604164L558.0594 61.46354Q558.2 60.80729 558.52814 60.40104Q558.85626 59.99479 559.46564 59.77604Q560.075 59.55729 560.8719 59.55729Q561.66876 59.55729 562.16876 59.74479Q562.66876 59.93229 562.90314 60.21354Q563.1375 60.49479 563.23126 60.93229Q563.27814 61.197914 563.27814 61.90104L563.27814 63.30729Q563.27814 64.77604 563.34064 65.166664Q563.41876 65.55729 563.6219 65.916664L562.5125 65.916664Q562.35626 65.58854 562.3094 65.15104ZM562.21564 62.791664Q561.6375 63.02604 560.4969 63.197914Q559.84064 63.291664 559.575 63.416664Q559.3094 63.52604 559.15314 63.74479Q559.0125 63.96354 559.0125 64.24479Q559.0125 64.666664 559.325 64.947914Q559.65314 65.229164 560.2625 65.229164Q560.8719 65.229164 561.34064 64.96354Q561.825 64.697914 562.04376 64.229164Q562.21564 63.86979 562.21564 63.18229L562.21564 62.791664ZM569.27814 65.916664L569.27814 65.135414Q568.6844 66.05729 567.54376 66.05729Q566.79376 66.05729 566.16876 65.65104Q565.54376 65.229164 565.2 64.49479Q564.85626 63.760414 564.85626 62.80729Q564.85626 61.885414 565.16876 61.11979Q565.48126 60.354164 566.10626 59.96354Q566.73126 59.55729 567.4969 59.55729Q568.0594 59.55729 568.4969 59.791664Q568.9344 60.02604 569.21564 60.40104L569.21564 57.322914L570.2625 57.322914L570.2625 65.916664L569.27814 65.916664ZM565.95 62.80729Q565.95 64.010414 566.45 64.604164Q566.95 65.18229 567.6375 65.18229Q568.325 65.18229 568.8094 64.61979Q569.29376 64.05729 569.29376 62.90104Q569.29376 61.61979 568.79376 61.02604Q568.3094 60.43229 567.59064 60.43229Q566.8875 60.43229 566.41876 61.010414Q565.95 61.572914 565.95 62.80729ZM572.9344 68.447914L572.1844 68.447914Q573.9344 65.635414 573.9344 62.80729Q573.9344 61.71354 573.6844 60.61979Q573.48126 59.74479 573.1219 58.93229Q572.8875 58.416664 572.1844 57.18229L572.9344 57.18229Q574.02814 58.65104 574.5594 60.135414Q575.0125 61.416664 575.0125 62.80729Q575.0125 64.385414 574.40314 65.86979Q573.79376 67.33854 572.9344 68.447914Z" fill-rule="nonzero"/><path fill="#ea4335" d="M455.45 80.916664C455.45 80.36438 455.8977 79.916664 456.45 79.916664L466.45 79.916664C467.0023 79.916664 467.45 80.36438 467.45 80.916664L467.45 90.916664C467.45 91.46895 467.0023 91.916664 466.45 91.916664L456.45 91.916664C455.8977 91.916664 455.45 91.46895 455.45 90.916664Z" fill-rule="nonzero"/><path fill="#1a1a1a" d="M476.3719 89.916664L476.3719 81.322914L477.52814 81.322914L482.04376 88.072914L482.04376 81.322914L483.1375 81.322914L483.1375 89.916664L481.96564 89.916664L477.45 83.166664L477.45 89.916664L476.3719 89.916664ZM484.85626 86.80729Q484.85626 85.072914 485.8094 84.24479Q486.60626 83.55729 487.7625 83.55729Q489.04376 83.55729 489.85626 84.40104Q490.6844 85.229164 490.6844 86.71354Q490.6844 87.916664 490.325 88.604164Q489.96564 89.291664 489.2625 89.68229Q488.575 90.05729 487.7625 90.05729Q486.46564 90.05729 485.65314 89.229164Q484.85626 88.385414 484.85626 86.80729ZM485.9344 86.80729Q485.9344 87.99479 486.45 88.58854Q486.98126 89.18229 487.7625 89.18229Q488.5594 89.18229 489.075 88.58854Q489.59064 87.99479 489.59064 86.77604Q489.59064 85.61979 489.0594 85.02604Q488.54376 84.43229 487.7625 84.43229Q486.98126 84.43229 486.45 85.02604Q485.9344 85.604164 485.9344 86.80729ZM492.23126 89.916664L492.23126 83.697914L493.1844 83.697914L493.1844 84.635414Q493.54376 83.979164 493.84064 83.77604Q494.15314 83.55729 494.52814 83.55729Q495.0594 83.55729 495.60626 83.885414L495.2469 84.86979Q494.85626 84.635414 494.48126 84.635414Q494.1219 84.635414 493.84064 84.854164Q493.575 85.05729 493.46564 85.43229Q493.27814 85.99479 493.27814 86.65104L493.27814 89.916664L492.23126 89.916664ZM496.2469 89.916664L496.2469 83.697914L497.1844 83.697914L497.1844 84.572914Q497.48126 84.104164 497.96564 83.83854Q498.45 83.55729 499.075 83.55729Q499.7625 83.55729 500.2 83.83854Q500.65314 84.11979 500.825 84.635414Q501.575 83.55729 502.7469 83.55729Q503.6844 83.55729 504.16876 84.072914Q504.66876 84.572914 504.66876 85.65104L504.66876 89.916664L503.6219 89.916664L503.6219 85.99479Q503.6219 85.36979 503.5125 85.08854Q503.41876 84.80729 503.15314 84.635414Q502.8875 84.46354 502.5125 84.46354Q501.85626 84.46354 501.41876 84.90104Q500.9969 85.33854 500.9969 86.30729L500.9969 89.916664L499.9344 89.916664L499.9344 85.86979Q499.9344 85.166664 499.66876 84.822914Q499.41876 84.46354 498.84064 84.46354Q498.3875 84.46354 498.0125 84.697914Q497.6375 84.93229 497.46564 85.385414Q497.29376 85.83854 497.29376 86.68229L497.29376 89.916664L496.2469 89.916664ZM510.3094 89.15104Q509.71564 89.65104 509.16876 89.854164Q508.6375 90.05729 508.0125 90.05729Q506.98126 90.05729 506.4344 89.55729Q505.8875 89.05729 505.8875 88.27604Q505.8875 87.822914 506.09064 87.447914Q506.29376 87.05729 506.6375 86.83854Q506.98126 86.604164 507.40314 86.49479Q507.7 86.40104 508.34064 86.322914Q509.60626 86.18229 510.21564 85.96354Q510.21564 85.74479 510.21564 85.697914Q510.21564 85.041664 509.91876 84.77604Q509.5125 84.43229 508.71564 84.43229Q507.98126 84.43229 507.6219 84.697914Q507.2625 84.947914 507.09064 85.604164L506.0594 85.46354Q506.2 84.80729 506.52814 84.40104Q506.85626 83.99479 507.46564 83.77604Q508.075 83.55729 508.8719 83.55729Q509.66876 83.55729 510.16876 83.74479Q510.66876 83.93229 510.90314 84.21354Q511.1375 84.49479 511.23126 84.93229Q511.27814 85.197914 511.27814 85.90104L511.27814 87.30729Q511.27814 88.77604 511.34064 89.166664Q511.41876 89.55729 511.6219 89.916664L510.5125 89.916664Q510.35626 89.58854 510.3094 89.15104ZM510.21564 86.791664Q509.6375 87.02604 508.4969 87.197914Q507.84064 87.291664 507.575 87.416664Q507.3094 87.52604 507.15314 87.74479Q507.0125 87.96354 507.0125 88.24479Q507.0125 88.666664 507.325 88.947914Q507.65314 89.229164 508.2625 89.229164Q508.8719 89.229164 509.34064 88.96354Q509.825 88.697914 510.04376 88.229164Q510.21564 87.86979 510.21564 87.18229L510.21564 86.791664ZM513.21564 89.916664L513.21564 81.322914L514.27814 81.322914L514.27814 89.916664L513.21564 89.916664ZM521.2625 92.447914Q520.3875 91.33854 519.77814 89.86979Q519.1844 88.385414 519.1844 86.80729Q519.1844 85.416664 519.6219 84.135414Q520.15314 82.65104 521.2625 81.18229L522.0125 81.18229Q521.3094 82.40104 521.075 82.916664Q520.71564 83.729164 520.5125 84.604164Q520.2625 85.697914 520.2625 86.80729Q520.2625 89.635414 522.0125 92.447914L521.2625 92.447914ZM526.325 89.916664L526.325 87.854164L522.60626 87.854164L522.60626 86.885414L526.52814 81.322914L527.3875 81.322914L527.3875 86.885414L528.54376 86.885414L528.54376 87.854164L527.3875 87.854164L527.3875 89.916664L526.325 89.916664ZM526.325 86.885414L526.325 83.02604L523.6375 86.885414L526.325 86.885414ZM535.5594 89.916664L535.5594 82.33854L532.73126 82.33854L532.73126 81.322914L539.54376 81.322914L539.54376 82.33854L536.7 82.33854L536.7 89.916664L535.5594 89.916664ZM540.2469 89.916664L540.2469 81.322914L541.29376 81.322914L541.29376 84.40104Q542.02814 83.55729 543.15314 83.55729Q543.85626 83.55729 544.35626 83.83854Q544.8719 84.104164 545.09064 84.58854Q545.3094 85.05729 545.3094 85.979164L545.3094 89.916664L544.2625 89.916664L544.2625 85.979164Q544.2625 85.18229 543.91876 84.822914Q543.575 84.46354 542.95 84.46354Q542.48126 84.46354 542.0594 84.71354Q541.65314 84.947914 541.46564 85.36979Q541.29376 85.77604 541.29376 86.510414L541.29376 89.916664L540.2469 89.916664ZM547.23126 89.916664L547.23126 83.697914L548.1844 83.697914L548.1844 84.635414Q548.54376 83.979164 548.84064 83.77604Q549.15314 83.55729 549.52814 83.55729Q550.0594 83.55729 550.60626 83.885414L550.2469 84.86979Q549.85626 84.635414 549.48126 84.635414Q549.1219 84.635414 548.84064 84.854164Q548.575 85.05729 548.46564 85.43229Q548.27814 85.99479 548.27814 86.65104L548.27814 89.916664L547.23126 89.916664ZM555.4969 87.916664L556.59064 88.041664Q556.34064 88.99479 555.6375 89.52604Q554.9344 90.05729 553.85626 90.05729Q552.4969 90.05729 551.6844 89.21354Q550.8875 88.36979 550.8875 86.854164Q550.8875 85.291664 551.7 84.43229Q552.5125 83.55729 553.79376 83.55729Q555.04376 83.55729 555.825 84.40104Q556.6219 85.24479 556.6219 86.791664Q556.6219 86.885414 556.6219 87.072914L551.98126 87.072914Q552.04376 88.104164 552.5594 88.65104Q553.075 89.18229 553.85626 89.18229Q554.4344 89.18229 554.84064 88.885414Q555.2625 88.572914 555.4969 87.916664ZM552.04376 86.21354L555.5125 86.21354Q555.45 85.416664 555.1219 85.02604Q554.60626 84.416664 553.8094 84.416664Q553.075 84.416664 552.575 84.90104Q552.09064 85.385414 552.04376 86.21354ZM562.3094 89.15104Q561.71564 89.65104 561.16876 89.854164Q560.6375 90.05729 560.0125 90.05729Q558.98126 90.05729 558.4344 89.55729Q557.8875 89.05729 557.8875 88.27604Q557.8875 87.822914 558.09064 87.447914Q558.29376 87.05729 558.6375 86.83854Q558.98126 86.604164 559.40314 86.49479Q559.7 86.40104 560.34064 86.322914Q561.60626 86.18229 562.21564 85.96354Q562.21564 85.74479 562.21564 85.697914Q562.21564 85.041664 561.91876 84.77604Q561.5125 84.43229 560.71564 84.43229Q559.98126 84.43229 559.6219 84.697914Q559.2625 84.947914 559.09064 85.604164L558.0594 85.46354Q558.2 84.80729 558.52814 84.40104Q558.85626 83.99479 559.46564 83.77604Q560.075 83.55729 560.8719 83.55729Q561.66876 83.55729 562.16876 83.74479Q562.66876 83.93229 562.90314 84.21354Q563.1375 84.49479 563.23126 84.93229Q563.27814 85.197914 563.27814 85.90104L563.27814 87.30729Q563.27814 88.77604 563.34064 89.166664Q563.41876 89.55729 563.6219 89.916664L562.5125 89.916664Q562.35626 89.58854 562.3094 89.15104ZM562.21564 86.791664Q561.6375 87.02604 560.4969 87.197914Q559.84064 87.291664 559.575 87.416664Q559.3094 87.52604 559.15314 87.74479Q559.0125 87.96354 559.0125 88.24479Q559.0125 88.666664 559.325 88.947914Q559.65314 89.229164 560.2625 89.229164Q560.8719 89.229164 561.34064 88.96354Q561.825 88.697914 562.04376 88.229164Q562.21564 87.86979 562.21564 87.18229L562.21564 86.791664ZM569.27814 89.916664L569.27814 89.135414Q568.6844 90.05729 567.54376 90.05729Q566.79376 90.05729 566.16876 89.65104Q565.54376 89.229164 565.2 88.49479Q564.85626 87.760414 564.85626 86.80729Q564.85626 85.885414 565.16876 85.11979Q565.48126 84.354164 566.10626 83.96354Q566.73126 83.55729 567.4969 83.55729Q568.0594 83.55729 568.4969 83.791664Q568.9344 84.02604 569.21564 84.40104L569.21564 81.322914L570.2625 81.322914L570.2625 89.916664L569.27814 89.916664ZM565.95 86.80729Q565.95 88.010414 566.45 88.604164Q566.95 89.18229 567.6375 89.18229Q568.325 89.18229 568.8094 88.61979Q569.29376 88.05729 569.29376 86.90104Q569.29376 85.61979 568.79376 85.02604Q568.3094 84.43229 567.59064 84.43229Q566.8875 84.43229 566.41876 85.010414Q565.95 85.572914 565.95 86.80729ZM571.825 88.05729L572.85626 87.90104Q572.95 88.52604 573.34064 88.854164Q573.7469 89.18229 574.48126 89.18229Q575.2 89.18229 575.54376 88.90104Q575.90314 88.604164 575.90314 88.197914Q575.90314 87.83854 575.59064 87.635414Q575.3719 87.49479 574.5125 87.27604Q573.35626 86.979164 572.90314 86.77604Q572.46564 86.55729 572.23126 86.18229Q571.9969 85.80729 571.9969 85.33854Q571.9969 84.93229 572.1844 84.572914Q572.3719 84.21354 572.7 83.979164Q572.95 83.80729 573.3719 83.68229Q573.79376 83.55729 574.29376 83.55729Q575.0125 83.55729 575.5594 83.77604Q576.1219 83.979164 576.3875 84.33854Q576.65314 84.697914 576.7469 85.291664L575.71564 85.43229Q575.65314 84.96354 575.3094 84.697914Q574.98126 84.416664 574.35626 84.416664Q573.6375 84.416664 573.325 84.666664Q573.0125 84.90104 573.0125 85.229164Q573.0125 85.43229 573.1375 85.58854Q573.27814 85.760414 573.54376 85.86979Q573.7 85.93229 574.48126 86.135414Q575.60626 86.447914 576.04376 86.635414Q576.48126 86.822914 576.73126 87.18229Q576.98126 87.541664 576.98126 88.08854Q576.98126 88.61979 576.66876 89.08854Q576.3719 89.541664 575.79376 89.80729Q575.21564 90.05729 574.48126 90.05729Q573.2625 90.05729 572.6219 89.55729Q571.9969 89.041664 571.825 88.05729ZM578.9344 92.447914L578.1844 92.447914Q579.9344 89.635414 579.9344 86.80729Q579.9344 85.71354 579.6844 84.61979Q579.48126 83.74479 579.1219 82.93229Q578.8875 82.416664 578.1844 81.18229L578.9344 81.18229Q580.02814 82.65104 580.5594 84.135414Q581.0125 85.416664 581.0125 86.80729Q581.0125 88.385414 580.40314 89.86979Q579.79376 91.33854 578.9344 92.447914Z" fill-rule="nonzero"/><path fill="#fbbc04" d="M455.45 104.916664C455.45 104.36438 455.8977 103.916664 456.45 103.916664L466.45 103.916664C467.0023 103.916664 467.45 104.36438 467.45 104.916664L467.45 114.916664C467.45 115.46895 467.0023 115.916664 466.45 115.916664L456.45 115.916664C455.8977 115.916664 455.45 115.46895 455.45 114.916664Z" fill-rule="nonzero"/><path fill="#1a1a1a" d="M480.3094 111.635414L481.34064 111.77604Q481.16876 112.83854 480.46564 113.447914Q479.7625 114.05729 478.7469 114.05729Q477.46564 114.05729 476.6844 113.229164Q475.91876 112.385414 475.91876 110.822914Q475.91876 109.822914 476.2469 109.072914Q476.59064 108.30729 477.2625 107.93229Q477.95 107.55729 478.7625 107.55729Q479.7625 107.55729 480.40314 108.072914Q481.0594 108.572914 481.2469 109.52604L480.21564 109.68229Q480.075 109.05729 479.7 108.74479Q479.325 108.416664 478.79376 108.416664Q477.9969 108.416664 477.4969 108.99479Q476.9969 109.55729 476.9969 110.791664Q476.9969 112.05729 477.48126 112.61979Q477.96564 113.18229 478.73126 113.18229Q479.35626 113.18229 479.7625 112.80729Q480.1844 112.43229 480.3094 111.635414ZM486.3094 111.635414L487.34064 111.77604Q487.16876 112.83854 486.46564 113.447914Q485.7625 114.05729 484.7469 114.05729Q483.46564 114.05729 482.6844 113.229164Q481.91876 112.385414 481.91876 110.822914Q481.91876 109.822914 482.2469 109.072914Q482.59064 108.30729 483.2625 107.93229Q483.95 107.55729 484.7625 107.55729Q485.7625 107.55729 486.40314 108.072914Q487.0594 108.572914 487.2469 109.52604L486.21564 109.68229Q486.075 109.05729 485.7 108.74479Q485.325 108.416664 484.79376 108.416664Q483.9969 108.416664 483.4969 108.99479Q482.9969 109.55729 482.9969 110.791664Q482.9969 112.05729 483.48126 112.61979Q483.96564 113.18229 484.73126 113.18229Q485.35626 113.18229 485.7625 112.80729Q486.1844 112.43229 486.3094 111.635414ZM492.3094 113.15104Q491.71564 113.65104 491.16876 113.854164Q490.6375 114.05729 490.0125 114.05729Q488.98126 114.05729 488.4344 113.55729Q487.8875 113.05729 487.8875 112.27604Q487.8875 111.822914 488.09064 111.447914Q488.29376 111.05729 488.6375 110.83854Q488.98126 110.604164 489.40314 110.49479Q489.7 110.40104 490.34064 110.322914Q491.60626 110.18229 492.21564 109.96354Q492.21564 109.74479 492.21564 109.697914Q492.21564 109.041664 491.91876 108.77604Q491.5125 108.43229 490.71564 108.43229Q489.98126 108.43229 489.6219 108.697914Q489.2625 108.947914 489.09064 109.604164L488.0594 109.46354Q488.2 108.80729 488.52814 108.40104Q488.85626 107.99479 489.46564 107.77604Q490.075 107.55729 490.8719 107.55729Q491.66876 107.55729 492.16876 107.74479Q492.66876 107.93229 492.90314 108.21354Q493.1375 108.49479 493.23126 108.93229Q493.27814 109.197914 493.27814 109.90104L493.27814 111.30729Q493.27814 112.77604 493.34064 113.166664Q493.41876 113.55729 493.6219 113.916664L492.5125 113.916664Q492.35626 113.58854 492.3094 113.15104ZM492.21564 110.791664Q491.6375 111.02604 490.4969 111.197914Q489.84064 111.291664 489.575 111.416664Q489.3094 111.52604 489.15314 111.74479Q489.0125 111.96354 489.0125 112.24479Q489.0125 112.666664 489.325 112.947914Q489.65314 113.229164 490.2625 113.229164Q490.8719 113.229164 491.34064 112.96354Q491.825 112.697914 492.04376 112.229164Q492.21564 111.86979 492.21564 111.18229L492.21564 110.791664ZM499.3094 111.635414L500.34064 111.77604Q500.16876 112.83854 499.46564 113.447914Q498.7625 114.05729 497.7469 114.05729Q496.46564 114.05729 495.6844 113.229164Q494.91876 112.385414 494.91876 110.822914Q494.91876 109.822914 495.2469 109.072914Q495.59064 108.30729 496.2625 107.93229Q496.95 107.55729 497.7625 107.55729Q498.7625 107.55729 499.40314 108.072914Q500.0594 108.572914 500.2469 109.52604L499.21564 109.68229Q499.075 109.05729 498.7 108.74479Q498.325 108.416664 497.79376 108.416664Q496.9969 108.416664 496.4969 108.99479Q495.9969 109.55729 495.9969 110.791664Q495.9969 112.05729 496.48126 112.61979Q496.96564 113.18229 497.73126 113.18229Q498.35626 113.18229 498.7625 112.80729Q499.1844 112.43229 499.3094 111.635414ZM501.2469 113.916664L501.2469 105.322914L502.29376 105.322914L502.29376 108.40104Q503.02814 107.55729 504.15314 107.55729Q504.85626 107.55729 505.35626 107.83854Q505.8719 108.104164 506.09064 108.58854Q506.3094 109.05729 506.3094 109.979164L506.3094 113.916664L505.2625 113.916664L505.2625 109.979164Q505.2625 109.18229 504.91876 108.822914Q504.575 108.46354 503.95 108.46354Q503.48126 108.46354 503.0594 108.71354Q502.65314 108.947914 502.46564 109.36979Q502.29376 109.77604 502.29376 110.510414L502.29376 113.916664L501.2469 113.916664ZM512.4969 111.916664L513.59064 112.041664Q513.34064 112.99479 512.6375 113.52604Q511.9344 114.05729 510.85626 114.05729Q509.4969 114.05729 508.6844 113.21354Q507.8875 112.36979 507.8875 110.854164Q507.8875 109.291664 508.7 108.43229Q509.5125 107.55729 510.79376 107.55729Q512.04376 107.55729 512.825 108.40104Q513.6219 109.24479 513.6219 110.791664Q513.6219 110.885414 513.6219 111.072914L508.98126 111.072914Q509.04376 112.104164 509.5594 112.65104Q510.075 113.18229 510.85626 113.18229Q511.4344 113.18229 511.84064 112.885414Q512.2625 112.572914 512.4969 111.916664ZM509.04376 110.21354L512.5125 110.21354Q512.45 109.416664 512.1219 109.02604Q511.60626 108.416664 510.8094 108.416664Q510.075 108.416664 509.575 108.90104Q509.09064 109.385414 509.04376 110.21354ZM520.2625 116.447914Q519.3875 115.33854 518.77814 113.86979Q518.1844 112.385414 518.1844 110.80729Q518.1844 109.416664 518.6219 108.135414Q519.15314 106.65104 520.2625 105.18229L521.0125 105.18229Q520.3094 106.40104 520.075 106.916664Q519.71564 107.729164 519.5125 108.604164Q519.2625 109.697914 519.2625 110.80729Q519.2625 113.635414 521.0125 116.447914L520.2625 116.447914ZM525.91876 113.916664L524.8719 113.916664L524.8719 107.197914Q524.48126 107.55729 523.85626 107.93229Q523.2469 108.291664 522.7625 108.46354L522.7625 107.447914Q523.6375 107.02604 524.29376 106.447914Q524.96564 105.854164 525.2469 105.291664L525.91876 105.291664L525.91876 113.916664ZM534.5594 113.916664L534.5594 106.33854L531.73126 106.33854L531.73126 105.322914L538.54376 105.322914L538.54376 106.33854L535.7 106.33854L535.7 113.916664L534.5594 113.916664ZM539.2469 113.916664L539.2469 105.322914L540.29376 105.322914L540.29376 108.40104Q541.02814 107.55729 542.15314 107.55729Q542.85626 107.55729 543.35626 107.83854Q543.8719 108.104164 544.09064 108.58854Q544.3094 109.05729 544.3094 109.979164L544.3094 113.916664L543.2625 113.916664L543.2625 109.979164Q543.2625 109.18229 542.91876 108.822914Q542.575 108.46354 541.95 108.46354Q541.48126 108.46354 541.0594 108.71354Q540.65314 108.947914 540.46564 109.36979Q540.29376 109.77604 540.29376 110.510414L540.29376 113.916664L539.2469 113.916664ZM546.23126 113.916664L546.23126 107.697914L547.1844 107.697914L547.1844 108.635414Q547.54376 107.979164 547.84064 107.77604Q548.15314 107.55729 548.52814 107.55729Q549.0594 107.55729 549.60626 107.885414L549.2469 108.86979Q548.85626 108.635414 548.48126 108.635414Q548.1219 108.635414 547.84064 108.854164Q547.575 109.05729 547.46564 109.43229Q547.27814 109.99479 547.27814 110.65104L547.27814 113.916664L546.23126 113.916664ZM554.4969 111.916664L555.59064 112.041664Q555.34064 112.99479 554.6375 113.52604Q553.9344 114.05729 552.85626 114.05729Q551.4969 114.05729 550.6844 113.21354Q549.8875 112.36979 549.8875 110.854164Q549.8875 109.291664 550.7 108.43229Q551.5125 107.55729 552.79376 107.55729Q554.04376 107.55729 554.825 108.40104Q555.6219 109.24479 555.6219 110.791664Q555.6219 110.885414 555.6219 111.072914L550.98126 111.072914Q551.04376 112.104164 551.5594 112.65104Q552.075 113.18229 552.85626 113.18229Q553.4344 113.18229 553.84064 112.885414Q554.2625 112.572914 554.4969 111.916664ZM551.04376 110.21354L554.5125 110.21354Q554.45 109.416664 554.1219 109.02604Q553.60626 108.416664 552.8094 108.416664Q552.075 108.416664 551.575 108.90104Q551.09064 109.385414 551.04376 110.21354ZM561.3094 113.15104Q560.71564 113.65104 560.16876 113.854164Q559.6375 114.05729 559.0125 114.05729Q557.98126 114.05729 557.4344 113.55729Q556.8875 113.05729 556.8875 112.27604Q556.8875 111.822914 557.09064 111.447914Q557.29376 111.05729 557.6375 110.83854Q557.98126 110.604164 558.40314 110.49479Q558.7 110.40104 559.34064 110.322914Q560.60626 110.18229 561.21564 109.96354Q561.21564 109.74479 561.21564 109.697914Q561.21564 109.041664 560.91876 108.77604Q560.5125 108.43229 559.71564 108.43229Q558.98126 108.43229 558.6219 108.697914Q558.2625 108.947914 558.09064 109.604164L557.0594 109.46354Q557.2 108.80729 557.52814 108.40104Q557.85626 107.99479 558.46564 107.77604Q559.075 107.55729 559.8719 107.55729Q560.66876 107.55729 561.16876 107.74479Q561.66876 107.93229 561.90314 108.21354Q562.1375 108.49479 562.23126 108.93229Q562.27814 109.197914 562.27814 109.90104L562.27814 111.30729Q562.27814 112.77604 562.34064 113.166664Q562.41876 113.55729 562.6219 113.916664L561.5125 113.916664Q561.35626 113.58854 561.3094 113.15104ZM561.21564 110.791664Q560.6375 111.02604 559.4969 111.197914Q558.84064 111.291664 558.575 111.416664Q558.3094 111.52604 558.15314 111.74479Q558.0125 111.96354 558.0125 112.24479Q558.0125 112.666664 558.325 112.947914Q558.65314 113.229164 559.2625 113.229164Q559.8719 113.229164 560.34064 112.96354Q560.825 112.697914 561.04376 112.229164Q561.21564 111.86979 561.21564 111.18229L561.21564 110.791664ZM568.27814 113.916664L568.27814 113.135414Q567.6844 114.05729 566.54376 114.05729Q565.79376 114.05729 565.16876 113.65104Q564.54376 113.229164 564.2 112.49479Q563.85626 111.760414 563.85626 110.80729Q563.85626 109.885414 564.16876 109.11979Q564.48126 108.354164 565.10626 107.96354Q565.73126 107.55729 566.4969 107.55729Q567.0594 107.55729 567.4969 107.791664Q567.9344 108.02604 568.21564 108.40104L568.21564 105.322914L569.2625 105.322914L569.2625 113.916664L568.27814 113.916664ZM564.95 110.80729Q564.95 112.010414 565.45 112.604164Q565.95 113.18229 566.6375 113.18229Q567.325 113.18229 567.8094 112.61979Q568.29376 112.05729 568.29376 110.90104Q568.29376 109.61979 567.79376 109.02604Q567.3094 108.43229 566.59064 108.43229Q565.8875 108.43229 565.41876 109.010414Q564.95 109.572914 564.95 110.80729ZM571.9344 116.447914L571.1844 116.447914Q572.9344 113.635414 572.9344 110.80729Q572.9344 109.71354 572.6844 108.61979Q572.48126 107.74479 572.1219 106.93229Q571.8875 106.416664 571.1844 105.18229L571.9344 105.18229Q573.02814 106.65104 573.5594 108.135414Q574.0125 109.416664 574.0125 110.80729Q574.0125 112.385414 573.40314 113.86979Q572.79376 115.33854 571.9344 116.447914Z" fill-rule="nonzero"/><path fill="#34a853" d="M455.45 128.91667C455.45 128.36438 455.8977 127.916664 456.45 127.916664L466.45 127.916664C467.0023 127.916664 467.45 128.36438 467.45 128.91667L467.45 138.91667C467.45 139.46895 467.0023 139.91667 466.45 139.91667L456.45 139.91667C455.8977 139.91667 455.45 139.46895 455.45 138.91667Z" fill-rule="nonzero"/><path fill="#1a1a1a" d="M480.3094 135.63542L481.34064 135.77605Q481.16876 136.83855 480.46564 137.44792Q479.7625 138.0573 478.7469 138.0573Q477.46564 138.0573 476.6844 137.22917Q475.91876 136.38542 475.91876 134.82292Q475.91876 133.82292 476.2469 133.07292Q476.59064 132.3073 477.2625 131.9323Q477.95 131.5573 478.7625 131.5573Q479.7625 131.5573 480.40314 132.07292Q481.0594 132.57292 481.2469 133.52605L480.21564 133.6823Q480.075 133.0573 479.7 132.7448Q479.325 132.41667 478.79376 132.41667Q477.9969 132.41667 477.4969 132.9948Q476.9969 133.5573 476.9969 134.79167Q476.9969 136.0573 477.48126 136.6198Q477.96564 137.1823 478.73126 137.1823Q479.35626 137.1823 479.7625 136.8073Q480.1844 136.4323 480.3094 135.63542ZM486.3094 135.63542L487.34064 135.77605Q487.16876 136.83855 486.46564 137.44792Q485.7625 138.0573 484.7469 138.0573Q483.46564 138.0573 482.6844 137.22917Q481.91876 136.38542 481.91876 134.82292Q481.91876 133.82292 482.2469 133.07292Q482.59064 132.3073 483.2625 131.9323Q483.95 131.5573 484.7625 131.5573Q485.7625 131.5573 486.40314 132.07292Q487.0594 132.57292 487.2469 133.52605L486.21564 133.6823Q486.075 133.0573 485.7 132.7448Q485.325 132.41667 484.79376 132.41667Q483.9969 132.41667 483.4969 132.9948Q482.9969 133.5573 482.9969 134.79167Q482.9969 136.0573 483.48126 136.6198Q483.96564 137.1823 484.73126 137.1823Q485.35626 137.1823 485.7625 136.8073Q486.1844 136.4323 486.3094 135.63542ZM492.3094 137.15105Q491.71564 137.65105 491.16876 137.85417Q490.6375 138.0573 490.0125 138.0573Q488.98126 138.0573 488.4344 137.5573Q487.8875 137.0573 487.8875 136.27605Q487.8875 135.82292 488.09064 135.44792Q488.29376 135.0573 488.6375 134.83855Q488.98126 134.60417 489.40314 134.4948Q489.7 134.40105 490.34064 134.32292Q491.60626 134.1823 492.21564 133.96355Q492.21564 133.7448 492.21564 133.69792Q492.21564 133.04167 491.91876 132.77605Q491.5125 132.4323 490.71564 132.4323Q489.98126 132.4323 489.6219 132.69792Q489.2625 132.94792 489.09064 133.60417L488.0594 133.46355Q488.2 132.8073 488.52814 132.40105Q488.85626 131.9948 489.46564 131.77605Q490.075 131.5573 490.8719 131.5573Q491.66876 131.5573 492.16876 131.7448Q492.66876 131.9323 492.90314 132.21355Q493.1375 132.4948 493.23126 132.9323Q493.27814 133.19792 493.27814 133.90105L493.27814 135.3073Q493.27814 136.77605 493.34064 137.16667Q493.41876 137.5573 493.6219 137.91667L492.5125 137.91667Q492.35626 137.58855 492.3094 137.15105ZM492.21564 134.79167Q491.6375 135.02605 490.4969 135.19792Q489.84064 135.29167 489.575 135.41667Q489.3094 135.52605 489.15314 135.7448Q489.0125 135.96355 489.0125 136.2448Q489.0125 136.66667 489.325 136.94792Q489.65314 137.22917 490.2625 137.22917Q490.8719 137.22917 491.34064 136.96355Q491.825 136.69792 492.04376 136.22917Q492.21564 135.8698 492.21564 135.1823L492.21564 134.79167ZM499.3094 135.63542L500.34064 135.77605Q500.16876 136.83855 499.46564 137.44792Q498.7625 138.0573 497.7469 138.0573Q496.46564 138.0573 495.6844 137.22917Q494.91876 136.38542 494.91876 134.82292Q494.91876 133.82292 495.2469 133.07292Q495.59064 132.3073 496.2625 131.9323Q496.95 131.5573 497.7625 131.5573Q498.7625 131.5573 499.40314 132.07292Q500.0594 132.57292 500.2469 133.52605L499.21564 133.6823Q499.075 133.0573 498.7 132.7448Q498.325 132.41667 497.79376 132.41667Q496.9969 132.41667 496.4969 132.9948Q495.9969 133.5573 495.9969 134.79167Q495.9969 136.0573 496.48126 136.6198Q496.96564 137.1823 497.73126 137.1823Q498.35626 137.1823 498.7625 136.8073Q499.1844 136.4323 499.3094 135.63542ZM501.2469 137.91667L501.2469 129.32292L502.29376 129.32292L502.29376 132.40105Q503.02814 131.5573 504.15314 131.5573Q504.85626 131.5573 505.35626 131.83855Q505.8719 132.10417 506.09064 132.58855Q506.3094 133.0573 506.3094 133.97917L506.3094 137.91667L505.2625 137.91667L505.2625 133.97917Q505.2625 133.1823 504.91876 132.82292Q504.575 132.46355 503.95 132.46355Q503.48126 132.46355 503.0594 132.71355Q502.65314 132.94792 502.46564 133.3698Q502.29376 133.77605 502.29376 134.51042L502.29376 137.91667L501.2469 137.91667ZM512.4969 135.91667L513.59064 136.04167Q513.34064 136.9948 512.6375 137.52605Q511.9344 138.0573 510.85626 138.0573Q509.4969 138.0573 508.6844 137.21355Q507.8875 136.3698 507.8875 134.85417Q507.8875 133.29167 508.7 132.4323Q509.5125 131.5573 510.79376 131.5573Q512.04376 131.5573 512.825 132.40105Q513.6219 133.2448 513.6219 134.79167Q513.6219 134.88542 513.6219 135.07292L508.98126 135.07292Q509.04376 136.10417 509.5594 136.65105Q510.075 137.1823 510.85626 137.1823Q511.4344 137.1823 511.84064 136.88542Q512.2625 136.57292 512.4969 135.91667ZM509.04376 134.21355L512.5125 134.21355Q512.45 133.41667 512.1219 133.02605Q511.60626 132.41667 510.8094 132.41667Q510.075 132.41667 509.575 132.90105Q509.09064 133.38542 509.04376 134.21355ZM520.2625 140.44792Q519.3875 139.33855 518.77814 137.8698Q518.1844 136.38542 518.1844 134.8073Q518.1844 133.41667 518.6219 132.13542Q519.15314 130.65105 520.2625 129.1823L521.0125 129.1823Q520.3094 130.40105 520.075 130.91667Q519.71564 131.72917 519.5125 132.60417Q519.2625 133.69792 519.2625 134.8073Q519.2625 137.63542 521.0125 140.44792L520.2625 140.44792ZM525.325 137.91667L525.325 135.85417L521.60626 135.85417L521.60626 134.88542L525.52814 129.32292L526.3875 129.32292L526.3875 134.88542L527.54376 134.88542L527.54376 135.85417L526.3875 135.85417L526.3875 137.91667L525.325 137.91667ZM525.325 134.88542L525.325 131.02605L522.6375 134.88542L525.325 134.88542ZM534.5594 137.91667L534.5594 130.33855L531.73126 130.33855L531.73126 129.32292L538.54376 129.32292L538.54376 130.33855L535.7 130.33855L535.7 137.91667L534.5594 137.91667ZM539.2469 137.91667L539.2469 129.32292L540.29376 129.32292L540.29376 132.40105Q541.02814 131.5573 542.15314 131.5573Q542.85626 131.5573 543.35626 131.83855Q543.8719 132.10417 544.09064 132.58855Q544.3094 133.0573 544.3094 133.97917L544.3094 137.91667L543.2625 137.91667L543.2625 133.97917Q543.2625 133.1823 542.91876 132.82292Q542.575 132.46355 541.95 132.46355Q541.48126 132.46355 541.0594 132.71355Q540.65314 132.94792 540.46564 133.3698Q540.29376 133.77605 540.29376 134.51042L540.29376 137.91667L539.2469 137.91667ZM546.23126 137.91667L546.23126 131.69792L547.1844 131.69792L547.1844 132.63542Q547.54376 131.97917 547.84064 131.77605Q548.15314 131.5573 548.52814 131.5573Q549.0594 131.5573 549.60626 131.88542L549.2469 132.8698Q548.85626 132.63542 548.48126 132.63542Q548.1219 132.63542 547.84064 132.85417Q547.575 133.0573 547.46564 133.4323Q547.27814 133.9948 547.27814 134.65105L547.27814 137.91667L546.23126 137.91667ZM554.4969 135.91667L555.59064 136.04167Q555.34064 136.9948 554.6375 137.52605Q553.9344 138.0573 552.85626 138.0573Q551.4969 138.0573 550.6844 137.21355Q549.8875 136.3698 549.8875 134.85417Q549.8875 133.29167 550.7 132.4323Q551.5125 131.5573 552.79376 131.5573Q554.04376 131.5573 554.825 132.40105Q555.6219 133.2448 555.6219 134.79167Q555.6219 134.88542 555.6219 135.07292L550.98126 135.07292Q551.04376 136.10417 551.5594 136.65105Q552.075 137.1823 552.85626 137.1823Q553.4344 137.1823 553.84064 136.88542Q554.2625 136.57292 554.4969 135.91667ZM551.04376 134.21355L554.5125 134.21355Q554.45 133.41667 554.1219 133.02605Q553.60626 132.41667 552.8094 132.41667Q552.075 132.41667 551.575 132.90105Q551.09064 133.38542 551.04376 134.21355ZM561.3094 137.15105Q560.71564 137.65105 560.16876 137.85417Q559.6375 138.0573 559.0125 138.0573Q557.98126 138.0573 557.4344 137.5573Q556.8875 137.0573 556.8875 136.27605Q556.8875 135.82292 557.09064 135.44792Q557.29376 135.0573 557.6375 134.83855Q557.98126 134.60417 558.40314 134.4948Q558.7 134.40105 559.34064 134.32292Q560.60626 134.1823 561.21564 133.96355Q561.21564 133.7448 561.21564 133.69792Q561.21564 133.04167 560.91876 132.77605Q560.5125 132.4323 559.71564 132.4323Q558.98126 132.4323 558.6219 132.69792Q558.2625 132.94792 558.09064 133.60417L557.0594 133.46355Q557.2 132.8073 557.52814 132.40105Q557.85626 131.9948 558.46564 131.77605Q559.075 131.5573 559.8719 131.5573Q560.66876 131.5573 561.16876 131.7448Q561.66876 131.9323 561.90314 132.21355Q562.1375 132.4948 562.23126 132.9323Q562.27814 133.19792 562.27814 133.90105L562.27814 135.3073Q562.27814 136.77605 562.34064 137.16667Q562.41876 137.5573 562.6219 137.91667L561.5125 137.91667Q561.35626 137.58855 561.3094 137.15105ZM561.21564 134.79167Q560.6375 135.02605 559.4969 135.19792Q558.84064 135.29167 558.575 135.41667Q558.3094 135.52605 558.15314 135.7448Q558.0125 135.96355 558.0125 136.2448Q558.0125 136.66667 558.325 136.94792Q558.65314 137.22917 559.2625 137.22917Q559.8719 137.22917 560.34064 136.96355Q560.825 136.69792 561.04376 136.22917Q561.21564 135.8698 561.21564 135.1823L561.21564 134.79167ZM568.27814 137.91667L568.27814 137.13542Q567.6844 138.0573 566.54376 138.0573Q565.79376 138.0573 565.16876 137.65105Q564.54376 137.22917 564.2 136.4948Q563.85626 135.76042 563.85626 134.8073Q563.85626 133.88542 564.16876 133.1198Q564.48126 132.35417 565.10626 131.96355Q565.73126 131.5573 566.4969 131.5573Q567.0594 131.5573 567.4969 131.79167Q567.9344 132.02605 568.21564 132.40105L568.21564 129.32292L569.2625 129.32292L569.2625 137.91667L568.27814 137.91667ZM564.95 134.8073Q564.95 136.01042 565.45 136.60417Q565.95 137.1823 566.6375 137.1823Q567.325 137.1823 567.8094 136.6198Q568.29376 136.0573 568.29376 134.90105Q568.29376 133.6198 567.79376 133.02605Q567.3094 132.4323 566.59064 132.4323Q565.8875 132.4323 565.41876 133.01042Q564.95 133.57292 564.95 134.8073ZM570.825 136.0573L571.85626 135.90105Q571.95 136.52605 572.34064 136.85417Q572.7469 137.1823 573.48126 137.1823Q574.2 137.1823 574.54376 136.90105Q574.90314 136.60417 574.90314 136.19792Q574.90314 135.83855 574.59064 135.63542Q574.3719 135.4948 573.5125 135.27605Q572.35626 134.97917 571.90314 134.77605Q571.46564 134.5573 571.23126 134.1823Q570.9969 133.8073 570.9969 133.33855Q570.9969 132.9323 571.1844 132.57292Q571.3719 132.21355 571.7 131.97917Q571.95 131.8073 572.3719 131.6823Q572.79376 131.5573 573.29376 131.5573Q574.0125 131.5573 574.5594 131.77605Q575.1219 131.97917 575.3875 132.33855Q575.65314 132.69792 575.7469 133.29167L574.71564 133.4323Q574.65314 132.96355 574.3094 132.69792Q573.98126 132.41667 573.35626 132.41667Q572.6375 132.41667 572.325 132.66667Q572.0125 132.90105 572.0125 133.22917Q572.0125 133.4323 572.1375 133.58855Q572.27814 133.76042 572.54376 133.8698Q572.7 133.9323 573.48126 134.13542Q574.60626 134.44792 575.04376 134.63542Q575.48126 134.82292 575.73126 135.1823Q575.98126 135.54167 575.98126 136.08855Q575.98126 136.6198 575.66876 137.08855Q575.3719 137.54167 574.79376 137.8073Q574.21564 138.0573 573.48126 138.0573Q572.2625 138.0573 571.6219 137.5573Q570.9969 137.04167 570.825 136.0573ZM577.9344 140.44792L577.1844 140.44792Q578.9344 137.63542 578.9344 134.8073Q578.9344 133.71355 578.6844 132.6198Q578.48126 131.7448 578.1219 130.9323Q577.8875 130.41667 577.1844 129.1823L577.9344 129.1823Q579.02814 130.65105 579.5594 132.13542Q580.0125 133.41667 580.0125 134.8073Q580.0125 136.38542 579.40314 137.8698Q578.79376 139.33855 577.9344 140.44792Z" fill-rule="nonzero"/><path fill="#757575" d="M20.01875 37.55L20.01875 23.2375L25.39375 23.2375Q27.034374 23.2375 28.01875 23.675Q29.003124 24.096874 29.565624 25.003124Q30.128124 25.909374 30.128124 26.89375Q30.128124 27.815624 29.628124 28.628124Q29.14375 29.440624 28.128124 29.925Q29.425 30.315624 30.128124 31.2375Q30.83125 32.14375 30.83125 33.39375Q30.83125 34.409374 30.39375 35.26875Q29.971874 36.128124 29.346874 36.596874Q28.721874 37.065624 27.784374 37.315624Q26.846874 37.55 25.471874 37.55L20.01875 37.55ZM21.909374 29.253124L25.003124 29.253124Q26.26875 29.253124 26.815624 29.08125Q27.534374 28.8625 27.89375 28.378124Q28.26875 27.878124 28.26875 27.1125Q28.26875 26.409374 27.925 25.8625Q27.58125 25.315624 26.940624 25.128124Q26.315624 24.925 24.76875 24.925L21.909374 24.925L21.909374 29.253124ZM21.909374 35.8625L25.471874 35.8625Q26.39375 35.8625 26.76875 35.784374Q27.425 35.675 27.8625 35.409374Q28.3 35.128124 28.58125 34.6125Q28.8625 34.08125 28.8625 33.39375Q28.8625 32.596874 28.45625 32.003124Q28.05 31.409374 27.315624 31.175Q26.58125 30.940624 25.221874 30.940624L21.909374 30.940624L21.909374 35.8625ZM39.659374 37.55L39.659374 36.01875Q38.45625 37.784374 36.378124 37.784374Q35.45625 37.784374 34.659374 37.440624Q33.8625 37.08125 33.471874 36.55Q33.096874 36.01875 32.940624 35.2375Q32.83125 34.721874 32.83125 33.596874L32.83125 27.175L34.58125 27.175L34.58125 32.925Q34.58125 34.3 34.690624 34.784374Q34.8625 35.471874 35.39375 35.878124Q35.940624 36.26875 36.721874 36.26875Q37.51875 36.26875 38.20625 35.8625Q38.909374 35.45625 39.190624 34.76875Q39.4875 34.065624 39.4875 32.7375L39.4875 27.175L41.2375 27.175L41.2375 37.55L39.659374 37.55ZM43.878124 25.253124L43.878124 23.2375L45.64375 23.2375L45.64375 25.253124L43.878124 25.253124ZM43.878124 37.55L43.878124 27.175L45.64375 27.175L45.64375 37.55L43.878124 37.55ZM47.83125 37.55L47.83125 23.2375L49.58125 23.2375L49.58125 37.55L47.83125 37.55ZM58.596874 37.55L58.596874 36.2375Q57.6125 37.784374 55.690624 37.784374Q54.45625 37.784374 53.409374 37.096874Q52.378124 36.409374 51.8 35.190624Q51.2375 33.971874 51.2375 32.378124Q51.2375 30.815624 51.753124 29.55Q52.26875 28.284374 53.3 27.6125Q54.346874 26.940624 55.6125 26.940624Q56.55 26.940624 57.284374 27.346874Q58.01875 27.7375 58.4875 28.3625L58.4875 23.2375L60.221874 23.2375L60.221874 37.55L58.596874 37.55ZM53.034374 32.378124Q53.034374 34.3625 53.878124 35.346874Q54.721874 36.33125 55.8625 36.33125Q57.01875 36.33125 57.815624 35.39375Q58.628124 34.45625 58.628124 32.51875Q58.628124 30.39375 57.8 29.39375Q56.9875 28.39375 55.784374 28.39375Q54.6125 28.39375 53.815624 29.3625Q53.034374 30.315624 53.034374 32.378124ZM72.7375 37.55L72.7375 24.925L68.01875 24.925L68.01875 23.2375L79.3625 23.2375L79.3625 24.925L74.62813 24.925L74.62813 37.55L72.7375 37.55ZM80.87813 25.253124L80.87813 23.2375L82.64375 23.2375L82.64375 25.253124L80.87813 25.253124ZM80.87813 37.55L80.87813 27.175L82.64375 27.175L82.64375 37.55L80.87813 37.55ZM84.8625 37.55L84.8625 27.175L86.44063 27.175L86.44063 28.628124Q86.925 27.878124 87.7375 27.409374Q88.55 26.940624 89.58125 26.940624Q90.7375 26.940624 91.47188 27.425Q92.20625 27.89375 92.51875 28.753124Q93.75313 26.940624 95.72188 26.940624Q97.26875 26.940624 98.09688 27.8Q98.925 28.659374 98.925 30.425L98.925 37.55L97.175 37.55L97.175 31.01875Q97.175 29.95625 97.00313 29.503124Q96.83125 29.034374 96.37813 28.753124Q95.94063 28.471874 95.33125 28.471874Q94.2375 28.471874 93.50313 29.20625Q92.78438 29.925 92.78438 31.51875L92.78438 37.55L91.03438 37.55L91.03438 30.815624Q91.03438 29.64375 90.59688 29.065624Q90.175 28.471874 89.19063 28.471874Q88.45625 28.471874 87.81563 28.8625Q87.19063 29.253124 86.90938 30.003124Q86.62813 30.753124 86.62813 32.175L86.62813 37.55L84.8625 37.55ZM108.97188 34.20625L110.78438 34.440624Q110.3625 36.01875 109.19063 36.909374Q108.03438 37.784374 106.22188 37.784374Q103.95625 37.784374 102.6125 36.39375Q101.28438 34.9875 101.28438 32.45625Q101.28438 29.83125 102.62813 28.39375Q103.97188 26.940624 106.12813 26.940624Q108.20625 26.940624 109.51875 28.3625Q110.84688 29.76875 110.84688 32.346874Q110.84688 32.503124 110.83125 32.815624L103.09688 32.815624Q103.19063 34.51875 104.06563 35.425Q104.94063 36.33125 106.2375 36.33125Q107.20625 36.33125 107.87813 35.83125Q108.56563 35.315624 108.97188 34.20625ZM103.19063 31.3625L108.9875 31.3625Q108.87813 30.065624 108.33125 29.409374Q107.4875 28.39375 106.14375 28.39375Q104.94063 28.39375 104.1125 29.20625Q103.28438 30.003124 103.19063 31.3625ZM112.15938 34.45625L113.90938 34.175Q114.05 35.221874 114.72188 35.784374Q115.39375 36.33125 116.59688 36.33125Q117.8 36.33125 118.37813 35.846874Q118.97188 35.346874 118.97188 34.690624Q118.97188 34.096874 118.45625 33.753124Q118.09688 33.51875 116.65938 33.159374Q114.72188 32.659374 113.97188 32.315624Q113.2375 31.95625 112.84688 31.33125Q112.45625 30.690624 112.45625 29.925Q112.45625 29.2375 112.76875 28.64375Q113.09688 28.05 113.64375 27.659374Q114.05 27.3625 114.75313 27.159374Q115.47188 26.940624 116.28438 26.940624Q117.50313 26.940624 118.425 27.3Q119.34688 27.64375 119.78438 28.253124Q120.22188 28.846874 120.39375 29.846874L118.675 30.08125Q118.55 29.284374 117.9875 28.846874Q117.425 28.39375 116.40938 28.39375Q115.19063 28.39375 114.675 28.8Q114.15938 29.190624 114.15938 29.721874Q114.15938 30.065624 114.37813 30.346874Q114.58125 30.628124 115.05 30.815624Q115.31563 30.909374 116.59688 31.253124Q118.47188 31.753124 119.20625 32.08125Q119.94063 32.39375 120.3625 33.003124Q120.78438 33.596874 120.78438 34.503124Q120.78438 35.378124 120.26875 36.159374Q119.75313 36.940624 118.78438 37.3625Q117.81563 37.784374 116.59688 37.784374Q114.58125 37.784374 113.51875 36.940624Q112.45625 36.096874 112.15938 34.45625ZM131.75313 37.55L127.8 27.175L129.65938 27.175L131.89375 33.39375Q132.25313 34.39375 132.55 35.471874Q132.78438 34.659374 133.20625 33.503124L135.50313 27.175L137.31563 27.175L133.39375 37.55L131.75313 37.55ZM138.15938 34.45625L139.90938 34.175Q140.05 35.221874 140.72188 35.784374Q141.39375 36.33125 142.59688 36.33125Q143.8 36.33125 144.37813 35.846874Q144.97188 35.346874 144.97188 34.690624Q144.97188 34.096874 144.45625 33.753124Q144.09688 33.51875 142.65938 33.159374Q140.72188 32.659374 139.97188 32.315624Q139.2375 31.95625 138.84688 31.33125Q138.45625 30.690624 138.45625 29.925Q138.45625 29.2375 138.76875 28.64375Q139.09688 28.05 139.64375 27.659374Q140.05 27.3625 140.75313 27.159374Q141.47188 26.940624 142.28438 26.940624Q143.50313 26.940624 144.425 27.3Q145.34688 27.64375 145.78438 28.253124Q146.22188 28.846874 146.39375 29.846874L144.675 30.08125Q144.55 29.284374 143.9875 28.846874Q143.425 28.39375 142.40938 28.39375Q141.19063 28.39375 140.675 28.8Q140.15938 29.190624 140.15938 29.721874Q140.15938 30.065624 140.37813 30.346874Q140.58125 30.628124 141.05 30.815624Q141.31563 30.909374 142.59688 31.253124Q144.47188 31.753124 145.20625 32.08125Q145.94063 32.39375 146.3625 33.003124Q146.78438 33.596874 146.78438 34.503124Q146.78438 35.378124 146.26875 36.159374Q145.75313 36.940624 144.78438 37.3625Q143.81563 37.784374 142.59688 37.784374Q140.58125 37.784374 139.51875 36.940624Q138.45625 36.096874 138.15938 34.45625ZM161.64375 33.753124L163.3625 33.971874Q163.08125 35.76875 161.90938 36.784374Q160.75313 37.784374 159.05 37.784374Q156.925 37.784374 155.62813 36.39375Q154.33125 35.003124 154.33125 32.409374Q154.33125 30.721874 154.87813 29.471874Q155.44063 28.20625 156.58125 27.58125Q157.72188 26.940624 159.06563 26.940624Q160.75313 26.940624 161.81563 27.8Q162.89375 28.659374 163.20625 30.221874L161.4875 30.4875Q161.25313 29.440624 160.62813 28.925Q160.00313 28.39375 159.12813 28.39375Q157.8 28.39375 156.97188 29.346874Q156.14375 30.3 156.14375 32.346874Q156.14375 34.440624 156.94063 35.39375Q157.7375 36.33125 159.03438 36.33125Q160.06563 36.33125 160.75313 35.70625Q161.45625 35.065624 161.64375 33.753124ZM171.64375 33.753124L173.3625 33.971874Q173.08125 35.76875 171.90938 36.784374Q170.75313 37.784374 169.05 37.784374Q166.925 37.784374 165.62813 36.39375Q164.33125 35.003124 164.33125 32.409374Q164.33125 30.721874 164.87813 29.471874Q165.44063 28.20625 166.58125 27.58125Q167.72188 26.940624 169.06563 26.940624Q170.75313 26.940624 171.81563 27.8Q172.89375 28.659374 173.20625 30.221874L171.4875 30.4875Q171.25313 29.440624 170.62813 28.925Q170.00313 28.39375 169.12813 28.39375Q167.8 28.39375 166.97188 29.346874Q166.14375 30.3 166.14375 32.346874Q166.14375 34.440624 166.94063 35.39375Q167.7375 36.33125 169.03438 36.33125Q170.06563 36.33125 170.75313 35.70625Q171.45625 35.065624 171.64375 33.753124ZM181.64375 36.26875Q180.65938 37.096874 179.75313 37.440624Q178.84688 37.784374 177.81563 37.784374Q176.1125 37.784374 175.19063 36.95625Q174.26875 36.1125 174.26875 34.815624Q174.26875 34.05 174.6125 33.425Q174.97188 32.8 175.53438 32.425Q176.09688 32.034374 176.8 31.83125Q177.31563 31.70625 178.3625 31.565624Q180.4875 31.315624 181.4875 30.971874Q181.50313 30.6125 181.50313 30.503124Q181.50313 29.440624 181.00313 28.9875Q180.33125 28.39375 179.00313 28.39375Q177.75313 28.39375 177.15938 28.83125Q176.58125 29.26875 176.3 30.378124L174.58125 30.14375Q174.81563 29.034374 175.34688 28.3625Q175.87813 27.675 176.89375 27.315624Q177.90938 26.940624 179.25313 26.940624Q180.58125 26.940624 181.40938 27.253124Q182.2375 27.565624 182.62813 28.05Q183.01875 28.51875 183.175 29.2375Q183.26875 29.690624 183.26875 30.8625L183.26875 33.20625Q183.26875 35.659374 183.37813 36.315624Q183.4875 36.95625 183.83125 37.55L181.9875 37.55Q181.72188 37.003124 181.64375 36.26875ZM181.4875 32.346874Q180.53438 32.7375 178.6125 33.003124Q177.53438 33.159374 177.08125 33.3625Q176.64375 33.55 176.39375 33.925Q176.14375 34.3 176.14375 34.76875Q176.14375 35.471874 176.675 35.940624Q177.20625 36.409374 178.2375 36.409374Q179.25313 36.409374 180.03438 35.971874Q180.83125 35.51875 181.20625 34.753124Q181.4875 34.14375 181.4875 32.9875L181.4875 32.346874ZM192.64375 33.753124L194.3625 33.971874Q194.08125 35.76875 192.90938 36.784374Q191.75313 37.784374 190.05 37.784374Q187.925 37.784374 186.62813 36.39375Q185.33125 35.003124 185.33125 32.409374Q185.33125 30.721874 185.87813 29.471874Q186.44063 28.20625 187.58125 27.58125Q188.72188 26.940624 190.06563 26.940624Q191.75313 26.940624 192.81563 27.8Q193.89375 28.659374 194.20625 30.221874L192.4875 30.4875Q192.25313 29.440624 191.62813 28.925Q191.00313 28.39375 190.12813 28.39375Q188.8 28.39375 187.97188 29.346874Q187.14375 30.3 187.14375 32.346874Q187.14375 34.440624 187.94063 35.39375Q188.7375 36.33125 190.03438 36.33125Q191.06563 36.33125 191.75313 35.70625Q192.45625 35.065624 192.64375 33.753124ZM195.8625 37.55L195.8625 23.2375L197.62813 23.2375L197.62813 28.3625Q198.8625 26.940624 200.7375 26.940624Q201.87813 26.940624 202.72188 27.39375Q203.58125 27.846874 203.94063 28.659374Q204.31563 29.45625 204.31563 30.971874L204.31563 37.55L202.56563 37.55L202.56563 30.971874Q202.56563 29.659374 201.9875 29.065624Q201.40938 28.45625 200.37813 28.45625Q199.59688 28.45625 198.89375 28.8625Q198.20625 29.26875 197.90938 29.971874Q197.62813 30.659374 197.62813 31.878124L197.62813 37.55L195.8625 37.55ZM213.97188 34.20625L215.78438 34.440624Q215.3625 36.01875 214.19063 36.909374Q213.03438 37.784374 211.22188 37.784374Q208.95625 37.784374 207.6125 36.39375Q206.28438 34.9875 206.28438 32.45625Q206.28438 29.83125 207.62813 28.39375Q208.97188 26.940624 211.12813 26.940624Q213.20625 26.940624 214.51875 28.3625Q215.84688 29.76875 215.84688 32.346874Q215.84688 32.503124 215.83125 32.815624L208.09688 32.815624Q208.19063 34.51875 209.06563 35.425Q209.94063 36.33125 211.2375 36.33125Q212.20625 36.33125 212.87813 35.83125Q213.56563 35.315624 213.97188 34.20625ZM208.19063 31.3625L213.9875 31.3625Q213.87813 30.065624 213.33125 29.409374Q212.4875 28.39375 211.14375 28.39375Q209.94063 28.39375 209.1125 29.20625Q208.28438 30.003124 208.19063 31.3625Z" fill-rule="nonzero"/></svg>