<svg version="1.1" viewBox="0.0 0.0 600.0 371.0" fill="none" stroke="none" stroke-linecap="square" stroke-miterlimit="10" width="600" height="371" xmlns:xlink="http://www.w3.org/1999/xlink" xmlns="http://www.w3.org/2000/svg"><path fill="#ffffff" d="M0 0L600.0 0L600.0 371.0L0 371.0L0 0Z" fill-rule="nonzero"/><path stroke="#333333" stroke-width="1.0" stroke-linecap="butt" d="M77.5 332.5L581.5 332.5" fill-rule="nonzero"/><path stroke="#cccccc" stroke-width="1.0" stroke-linecap="butt" d="M77.5 264.5L581.5 264.5" fill-rule="nonzero"/><path stroke="#cccccc" stroke-width="1.0" stroke-linecap="butt" d="M77.5 197.5L581.5 197.5" fill-rule="nonzero"/><path stroke="#cccccc" stroke-width="1.0" stroke-linecap="butt" d="M77.5 129.5L581.5 129.5" fill-rule="nonzero"/><path stroke="#cccccc" stroke-width="1.0" stroke-linecap="butt" d="M77.5 61.5L581.5 61.5" fill-rule="nonzero"/><clipPath id="id_0"><path d="M77.55 61.916668L581.45 61.916668L581.45 332.45L77.55 332.45L77.55 61.916668Z" clip-rule="nonzero"/></clipPath><path stroke="#000000" stroke-width="0.0" stroke-linecap="butt" stroke-opacity="0.0" clip-path="url(#id_0)" d="M172.0 332.0L111.0 332.0L111.0 125.0C111.0 123.89543 111.89543 123.0 113.0 123.0L170.0 123.0C171.10457 123.0 172.0 123.89543 172.0 125.0Z" fill-rule="nonzero"/><path fill="#4285f4" clip-path="url(#id_0)" d="M172.0 332.0L111.0 332.0L111.0 125.0C111.0 123.89543 111.89543 123.0 113.0 123.0L170.0 123.0C171.10457 123.0 172.0 123.89543 172.0 125.0Z" fill-rule="nonzero"/><path stroke="#000000" stroke-width="0.0" stroke-linecap="butt" stroke-opacity="0.0" clip-path="url(#id_0)" d="M266.0 332.0L205.0 332.0L205.0 225.0C205.0 223.89543 205.89543 223.0 207.0 223.0L264.0 223.0C265.10458 223.0 266.0 223.89543 266.0 225.0Z" fill-rule="nonzero"/><path fill="#4285f4" clip-path="url(#id_0)" d="M266.0 332.0L205.0 332.0L205.0 225.0C205.0 223.89543 205.89543 223.0 207.0 223.0L264.0 223.0C265.10458 223.0 266.0 223.89543 266.0 225.0Z" fill-rule="nonzero"/><path stroke="#000000" stroke-width="0.0" stroke-linecap="butt" stroke-opacity="0.0" clip-path="url(#id_0)" d="M361.0 332.0L300.0 332.0L300.0 272.0C300.0 270.89542 300.89542 270.0 302.0 270.0L359.0 270.0C360.10458 270.0 361.0 270.89542 361.0 272.0Z" fill-rule="nonzero"/><path fill="#4285f4" clip-path="url(#id_0)" d="M361.0 332.0L300.0 332.0L300.0 272.0C300.0 270.89542 300.89542 270.0 302.0 270.0L359.0 270.0C360.10458 270.0 361.0 270.89542 361.0 272.0Z" fill-rule="nonzero"/><path stroke="#000000" stroke-width="0.0" stroke-linecap="butt" stroke-opacity="0.0" clip-path="url(#id_0)" d="M455.0 332.0L394.0 332.0L394.0 279.0C394.0 277.89542 394.89542 277.0 396.0 277.0L453.0 277.0C454.10458 277.0 455.0 277.89542 455.0 279.0Z" fill-rule="nonzero"/><path fill="#4285f4" clip-path="url(#id_0)" d="M455.0 332.0L394.0 332.0L394.0 279.0C394.0 277.89542 394.89542 277.0 396.0 277.0L453.0 277.0C454.10458 277.0 455.0 277.89542 455.0 279.0Z" fill-rule="nonzero"/><path stroke="#000000" stroke-width="0.0" stroke-linecap="butt" stroke-opacity="0.0" clip-path="url(#id_0)" d="M549.0 332.0L488.0 332.0L488.0 281.0C488.0 279.89542 488.89542 279.0 490.0 279.0L547.0 279.0C548.10455 279.0 549.0 279.89542 549.0 281.0Z" fill-rule="nonzero"/><path fill="#4285f4" clip-path="url(#id_0)" d="M549.0 332.0L488.0 332.0L488.0 281.0C488.0 279.89542 488.89542 279.0 490.0 279.0L547.0 279.0C548.10455 279.0 549.0 279.89542 549.0 281.0Z" fill-rule="nonzero"/><path fill="#000000" d="M29.550013 222.57396L21.971888 222.57396L21.971888 225.40208L20.956263 225.40208L20.956263 218.58958L21.971888 218.58958L21.971888 221.43333L29.550013 221.43333L29.550013 222.57396ZM22.175013 217.88646L20.956263 217.88646L20.956263 216.82396L22.175013 216.82396L22.175013 217.88646ZM29.550013 217.88646L23.331263 217.88646L23.331263 216.82396L29.550013 216.82396L29.550013 217.88646ZM29.550013 214.88646L23.331263 214.88646L23.331263 213.94896L24.206263 213.94896Q23.737513 213.65208 23.471888 213.16771Q23.190638 212.68333 23.190638 212.05833Q23.190638 211.37083 23.471888 210.93333Q23.753138 210.48021 24.268763 210.30833Q23.190638 209.55833 23.190638 208.38646Q23.190638 207.44896 23.706263 206.96458Q24.206263 206.46458 25.284388 206.46458L29.550013 206.46458L29.550013 207.51146L25.628138 207.51146Q25.003138 207.51146 24.721888 207.62083Q24.440638 207.71458 24.268763 207.98021Q24.096888 208.24583 24.096888 208.62083Q24.096888 209.27708 24.534388 209.71458Q24.971888 210.13646 25.940638 210.13646L29.550013 210.13646L29.550013 211.19896L25.503138 211.19896Q24.800013 211.19896 24.456263 211.46458Q24.096888 211.71458 24.096888 212.29271Q24.096888 212.74583 24.331263 213.12083Q24.565638 213.49583 25.018763 213.66771Q25.471888 213.83958 26.315638 213.83958L29.550013 213.83958L29.550013 214.88646ZM27.550013 200.63646L27.675013 199.54271Q28.628138 199.79271 29.159388 200.49583Q29.690638 201.19896 29.690638 202.27708Q29.690638 203.63646 28.846888 204.44896Q28.003138 205.24583 26.487513 205.24583Q24.925013 205.24583 24.065638 204.43333Q23.190638 203.62083 23.190638 202.33958Q23.190638 201.08958 24.034388 200.30833Q24.878138 199.51146 26.425013 199.51146Q26.518763 199.51146 26.706263 199.51146L26.706263 204.15208Q27.737513 204.08958 28.284388 203.57396Q28.815638 203.05833 28.815638 202.27708Q28.815638 201.69896 28.518763 201.29271Q28.206263 200.87083 27.550013 200.63646ZM25.846888 204.08958L25.846888 200.62083Q25.050013 200.68333 24.659388 201.01146Q24.050013 201.52708 24.050013 202.32396Q24.050013 203.05833 24.534388 203.55833Q25.018763 204.04271 25.846888 204.08958ZM32.08126 192.87083Q30.971888 193.74583 29.503138 194.35521Q28.018763 194.94896 26.440638 194.94896Q25.050013 194.94896 23.768763 194.51146Q22.284388 193.98021 20.815638 192.87083L20.815638 192.12083Q22.034388 192.82396 22.550013 193.05833Q23.362513 193.41771 24.237513 193.62083Q25.331263 193.87083 26.440638 193.87083Q29.268763 193.87083 32.08126 192.12083L32.08126 192.87083ZM27.690638 191.30833L27.534388 190.27708Q28.159388 190.18333 28.487513 189.79271Q28.815638 189.38646 28.815638 188.65208Q28.815638 187.93333 28.534388 187.58958Q28.237513 187.23021 27.831263 187.23021Q27.471888 187.23021 27.268763 187.54271Q27.128138 187.76146 26.909388 188.62083Q26.612513 189.77708 26.409388 190.23021Q26.190638 190.66771 25.815638 190.90208Q25.440638 191.13646 24.971888 191.13646Q24.565638 191.13646 24.206263 190.94896Q23.846888 190.76146 23.612513 190.43333Q23.440638 190.18333 23.315638 189.76146Q23.190638 189.33958 23.190638 188.83958Q23.190638 188.12083 23.409388 187.57396Q23.612513 187.01146 23.971888 186.74583Q24.331263 186.48021 24.925013 186.38646L25.065638 187.41771Q24.596888 187.48021 24.331263 187.82396Q24.050013 188.15208 24.050013 188.77708Q24.050013 189.49583 24.300013 189.80833Q24.534388 190.12083 24.862513 190.12083Q25.065638 190.12083 25.221888 189.99583Q25.393763 189.85521 25.503138 189.58958Q25.565638 189.43333 25.768763 188.65208Q26.081263 187.52708 26.268763 187.08958Q26.456263 186.65208 26.815638 186.40208Q27.175013 186.15208 27.721888 186.15208Q28.253138 186.15208 28.721888 186.46458Q29.175013 186.76146 29.440638 187.33958Q29.690638 187.91771 29.690638 188.65208Q29.690638 189.87083 29.190638 190.51146Q28.675013 191.13646 27.690638 191.30833ZM32.08126 184.19896L32.08126 184.94896Q29.268763 183.19896 26.440638 183.19896Q25.346888 183.19896 24.253138 183.44896Q23.378138 183.65208 22.565638 184.01146Q22.050013 184.24583 20.815638 184.94896L20.815638 184.19896Q22.284388 183.10521 23.768763 182.57396Q25.050013 182.12083 26.440638 182.12083Q28.018763 182.12083 29.503138 182.73021Q30.971888 183.33958 32.08126 184.19896Z" fill-rule="nonzero"/><path fill="#000000" d="M65.05 332.21564Q65.05 330.6844 65.3625 329.7625Q65.675 328.825 66.28438 328.325Q66.90938 327.825 67.84688 327.825Q68.53438 327.825 69.05 328.10626Q69.58125 328.3875 69.925 328.91876Q70.26875 329.4344 70.45625 330.1844Q70.64375 330.9344 70.64375 332.21564Q70.64375 333.73126 70.33125 334.65314Q70.03438 335.575 69.40938 336.09064Q68.8 336.59064 67.84688 336.59064Q66.6125 336.59064 65.89375 335.7Q65.05 334.6375 65.05 332.21564ZM66.12813 332.21564Q66.12813 334.325 66.62813 335.02814Q67.12813 335.73126 67.84688 335.73126Q68.58125 335.73126 69.06563 335.02814Q69.56563 334.325 69.56563 332.21564Q69.56563 330.09064 69.06563 329.40314Q68.58125 328.7 67.83125 328.7Q67.1125 328.7 66.675 329.3094Q66.12813 330.09064 66.12813 332.21564Z" fill-rule="nonzero"/><path fill="#000000" d="M62.01875 268.81668L60.971874 268.81668L60.971874 262.09793Q60.58125 262.4573 59.95625 262.8323Q59.346874 263.19168 58.8625 263.36356L58.8625 262.34793Q59.7375 261.92606 60.39375 261.34793Q61.065624 260.75418 61.346874 260.19168L62.01875 260.19168L62.01875 268.81668ZM65.05 264.5823Q65.05 263.05106 65.3625 262.12918Q65.675 261.19168 66.28438 260.69168Q66.90938 260.19168 67.84688 260.19168Q68.53438 260.19168 69.05 260.47293Q69.58125 260.75418 69.925 261.28543Q70.26875 261.80106 70.45625 262.55106Q70.64375 263.30106 70.64375 264.5823Q70.64375 266.09793 70.33125 267.0198Q70.03438 267.94168 69.40938 268.4573Q68.8 268.9573 67.84688 268.9573Q66.6125 268.9573 65.89375 268.06668Q65.05 267.00418 65.05 264.5823ZM66.12813 264.5823Q66.12813 266.69168 66.62813 267.3948Q67.12813 268.09793 67.84688 268.09793Q68.58125 268.09793 69.06563 267.3948Q69.56563 266.69168 69.56563 264.5823Q69.56563 262.4573 69.06563 261.7698Q68.58125 261.06668 67.83125 261.06668Q67.1125 261.06668 66.675 261.67606Q66.12813 262.4573 66.12813 264.5823Z" fill-rule="nonzero"/><path fill="#000000" d="M63.596874 200.16771L63.596874 201.18333L57.909374 201.18333Q57.909374 200.80833 58.034374 200.44896Q58.253124 199.87083 58.721874 199.30833Q59.20625 198.74583 60.1125 198.01146Q61.51875 196.85521 62.003124 196.18333Q62.503124 195.51146 62.503124 194.91771Q62.503124 194.29271 62.05 193.87083Q61.596874 193.43333 60.878124 193.43333Q60.1125 193.43333 59.659374 193.88646Q59.20625 194.33958 59.190624 195.15208L58.1125 195.04271Q58.221874 193.82396 58.940624 193.19896Q59.675 192.55833 60.909374 192.55833Q62.14375 192.55833 62.8625 193.24583Q63.58125 193.93333 63.58125 194.94896Q63.58125 195.46458 63.3625 195.96458Q63.159374 196.44896 62.659374 197.01146Q62.175 197.55833 61.05 198.51146Q60.096874 199.30833 59.815624 199.60521Q59.55 199.88646 59.378124 200.16771L63.596874 200.16771ZM65.05 196.94896Q65.05 195.41771 65.3625 194.49583Q65.675 193.55833 66.28438 193.05833Q66.90938 192.55833 67.84688 192.55833Q68.53438 192.55833 69.05 192.83958Q69.58125 193.12083 69.925 193.65208Q70.26875 194.16771 70.45625 194.91771Q70.64375 195.66771 70.64375 196.94896Q70.64375 198.46458 70.33125 199.38646Q70.03438 200.30833 69.40938 200.82396Q68.8 201.32396 67.84688 201.32396Q66.6125 201.32396 65.89375 200.43333Q65.05 199.37083 65.05 196.94896ZM66.12813 196.94896Q66.12813 199.05833 66.62813 199.76146Q67.12813 200.46458 67.84688 200.46458Q68.58125 200.46458 69.06563 199.76146Q69.56563 199.05833 69.56563 196.94896Q69.56563 194.82396 69.06563 194.13646Q68.58125 193.43333 67.83125 193.43333Q67.1125 193.43333 66.675 194.04271Q66.12813 194.82396 66.12813 196.94896Z" fill-rule="nonzero"/><path fill="#000000" d="M58.05 131.28438L59.1125 131.14375Q59.284374 132.03438 59.721874 132.44063Q60.159374 132.83125 60.784374 132.83125Q61.534374 132.83125 62.05 132.31563Q62.565624 131.8 62.565624 131.03438Q62.565624 130.31563 62.08125 129.84688Q61.6125 129.3625 60.878124 129.3625Q60.58125 129.3625 60.128124 129.4875L60.253124 128.55Q60.3625 128.56563 60.425 128.56563Q61.096874 128.56563 61.628124 128.22188Q62.175 127.8625 62.175 127.12813Q62.175 126.55 61.784374 126.175Q61.39375 125.78438 60.76875 125.78438Q60.159374 125.78438 59.7375 126.175Q59.33125 126.56563 59.221874 127.33125L58.159374 127.14375Q58.346874 126.09688 59.034374 125.51875Q59.721874 124.925 60.7375 124.925Q61.440624 124.925 62.034374 125.2375Q62.628124 125.53438 62.940624 126.05Q63.253124 126.56563 63.253124 127.15938Q63.253124 127.70625 62.95625 128.175Q62.659374 128.62813 62.08125 128.89375Q62.83125 129.06563 63.253124 129.62813Q63.675 130.175 63.675 131.01875Q63.675 132.14375 62.846874 132.925Q62.034374 133.70625 60.784374 133.70625Q59.659374 133.70625 58.909374 133.03438Q58.159374 132.34688 58.05 131.28438ZM65.05 129.31563Q65.05 127.78438 65.3625 126.8625Q65.675 125.925 66.28438 125.425Q66.90938 124.925 67.84688 124.925Q68.53438 124.925 69.05 125.20625Q69.58125 125.4875 69.925 126.01875Q70.26875 126.53438 70.45625 127.28438Q70.64375 128.03438 70.64375 129.31563Q70.64375 130.83125 70.33125 131.75313Q70.03438 132.675 69.40938 133.19063Q68.8 133.69063 67.84688 133.69063Q66.6125 133.69063 65.89375 132.8Q65.05 131.7375 65.05 129.31563ZM66.12813 129.31563Q66.12813 131.425 66.62813 132.12813Q67.12813 132.83125 67.84688 132.83125Q68.58125 132.83125 69.06563 132.12813Q69.56563 131.425 69.56563 129.31563Q69.56563 127.19063 69.06563 126.50313Q68.58125 125.8 67.83125 125.8Q67.1125 125.8 66.675 126.40938Q66.12813 127.19063 66.12813 129.31563Z" fill-rule="nonzero"/><path fill="#000000" d="M61.425 65.916664L61.425 63.854164L57.70625 63.854164L57.70625 62.885414L61.628124 57.322914L62.4875 57.322914L62.4875 62.885414L63.64375 62.885414L63.64375 63.854164L62.4875 63.854164L62.4875 65.916664L61.425 65.916664ZM61.425 62.885414L61.425 59.02604L58.7375 62.885414L61.425 62.885414ZM65.05 61.68229Q65.05 60.15104 65.3625 59.229164Q65.675 58.291664 66.28438 57.791664Q66.90938 57.291664 67.84688 57.291664Q68.53438 57.291664 69.05 57.572914Q69.58125 57.854164 69.925 58.385414Q70.26875 58.90104 70.45625 59.65104Q70.64375 60.40104 70.64375 61.68229Q70.64375 63.197914 70.33125 64.11979Q70.03438 65.041664 69.40938 65.55729Q68.8 66.05729 67.84688 66.05729Q66.6125 66.05729 65.89375 65.166664Q65.05 64.104164 65.05 61.68229ZM66.12813 61.68229Q66.12813 63.791664 66.62813 64.49479Q67.12813 65.197914 67.84688 65.197914Q68.58125 65.197914 69.06563 64.49479Q69.56563 63.791664 69.56563 61.68229Q69.56563 59.55729 69.06563 58.86979Q68.58125 58.166664 67.83125 58.166664Q67.1125 58.166664 66.675 58.77604Q66.12813 59.55729 66.12813 61.68229Z" fill-rule="nonzero"/><path fill="#000000" d="M121.09492 349.45L120.04804 349.45L120.04804 342.73126Q119.65742 343.09064 119.03242 343.46564Q118.42304 343.825 117.93867 343.9969L117.93867 342.98126Q118.81367 342.5594 119.46992 341.98126Q120.14179 341.3875 120.42304 340.825L121.09492 340.825L121.09492 349.45ZM129.73553 349.45L129.73553 341.8719L126.90742 341.8719L126.90742 340.85626L133.71991 340.85626L133.71991 341.8719L130.87616 341.8719L130.87616 349.45L129.73553 349.45ZM134.42303 349.45L134.42303 340.85626L135.46991 340.85626L135.46991 343.9344Q136.20428 343.09064 137.32928 343.09064Q138.03241 343.09064 138.53241 343.3719Q139.04803 343.6375 139.26678 344.1219Q139.48553 344.59064 139.48553 345.5125L139.48553 349.45L138.43866 349.45L138.43866 345.5125Q138.43866 344.71564 138.09491 344.35626Q137.75116 343.9969 137.12616 343.9969Q136.65741 343.9969 136.23553 344.2469Q135.82928 344.48126 135.64178 344.90314Q135.46991 345.3094 135.46991 346.04376L135.46991 349.45L134.42303 349.45ZM141.40741 349.45L141.40741 343.23126L142.36053 343.23126L142.36053 344.16876Q142.71991 343.5125 143.01678 343.3094Q143.32928 343.09064 143.70428 343.09064Q144.23553 343.09064 144.78241 343.41876L144.42303 344.40314Q144.03241 344.16876 143.65741 344.16876Q143.29803 344.16876 143.01678 344.3875Q142.75116 344.59064 142.64178 344.96564Q142.45428 345.52814 142.45428 346.1844L142.45428 349.45L141.40741 349.45ZM149.67303 347.45L150.76678 347.575Q150.51678 348.52814 149.81366 349.0594Q149.11053 349.59064 148.03241 349.59064Q146.67303 349.59064 145.86053 348.7469Q145.06366 347.90314 145.06366 346.3875Q145.06366 344.825 145.87616 343.96564Q146.68866 343.09064 147.96991 343.09064Q149.21991 343.09064 150.00116 343.9344Q150.79803 344.77814 150.79803 346.325Q150.79803 346.41876 150.79803 346.60626L146.15741 346.60626Q146.21991 347.6375 146.73553 348.1844Q147.25116 348.71564 148.03241 348.71564Q148.61053 348.71564 149.01678 348.41876Q149.43866 348.10626 149.67303 347.45ZM146.21991 345.7469L149.68866 345.7469Q149.62616 344.95 149.29803 344.5594Q148.78241 343.95 147.98553 343.95Q147.25116 343.95 146.75116 344.4344Q146.26678 344.91876 146.21991 345.7469ZM156.48553 348.6844Q155.89178 349.1844 155.34491 349.3875Q154.81366 349.59064 154.18866 349.59064Q153.15741 349.59064 152.61053 349.09064Q152.06366 348.59064 152.06366 347.8094Q152.06366 347.35626 152.26678 346.98126Q152.46991 346.59064 152.81366 346.3719Q153.15741 346.1375 153.57928 346.02814Q153.87616 345.9344 154.51678 345.85626Q155.78241 345.71564 156.39178 345.4969Q156.39178 345.27814 156.39178 345.23126Q156.39178 344.575 156.09491 344.3094Q155.68866 343.96564 154.89178 343.96564Q154.15741 343.96564 153.79803 344.23126Q153.43866 344.48126 153.26678 345.1375L152.23553 344.9969Q152.37616 344.34064 152.70428 343.9344Q153.03241 343.52814 153.64178 343.3094Q154.25116 343.09064 155.04803 343.09064Q155.84491 343.09064 156.34491 343.27814Q156.84491 343.46564 157.07928 343.7469Q157.31366 344.02814 157.40741 344.46564Q157.45428 344.73126 157.45428 345.4344L157.45428 346.84064Q157.45428 348.3094 157.51678 348.7Q157.59491 349.09064 157.79803 349.45L156.68866 349.45Q156.53241 349.1219 156.48553 348.6844ZM156.39178 346.325Q155.81366 346.5594 154.67303 346.73126Q154.01678 346.825 153.75116 346.95Q153.48553 347.0594 153.32928 347.27814Q153.18866 347.4969 153.18866 347.77814Q153.18866 348.2 153.50116 348.48126Q153.82928 348.7625 154.43866 348.7625Q155.04803 348.7625 155.51678 348.4969Q156.00116 348.23126 156.21991 347.7625Q156.39178 347.40314 156.39178 346.71564L156.39178 346.325ZM163.45428 349.45L163.45428 348.66876Q162.86053 349.59064 161.71991 349.59064Q160.96991 349.59064 160.34491 349.1844Q159.71991 348.7625 159.37616 348.02814Q159.03241 347.29376 159.03241 346.34064Q159.03241 345.41876 159.34491 344.65314Q159.65741 343.8875 160.28241 343.4969Q160.90741 343.09064 161.67303 343.09064Q162.23553 343.09064 162.67303 343.325Q163.11053 343.5594 163.39178 343.9344L163.39178 340.85626L164.43866 340.85626L164.43866 349.45L163.45428 349.45ZM160.12616 346.34064Q160.12616 347.54376 160.62616 348.1375Q161.12616 348.71564 161.81366 348.71564Q162.50116 348.71564 162.98553 348.15314Q163.46991 347.59064 163.46991 346.4344Q163.46991 345.15314 162.96991 344.5594Q162.48553 343.96564 161.76678 343.96564Q161.06366 343.96564 160.59491 344.54376Q160.12616 345.10626 160.12616 346.34064Z" fill-rule="nonzero"/><path fill="#000000" d="M213.85995 348.4344L213.85995 349.45L208.17245 349.45Q208.17245 349.075 208.29745 348.71564Q208.5162 348.1375 208.98495 347.575Q209.46933 347.0125 210.37558 346.27814Q211.78183 345.1219 212.2662 344.45Q212.7662 343.77814 212.7662 343.1844Q212.7662 342.5594 212.31308 342.1375Q211.85995 341.7 211.1412 341.7Q210.37558 341.7 209.92245 342.15314Q209.46933 342.60626 209.4537 343.41876L208.37558 343.3094Q208.48495 342.09064 209.2037 341.46564Q209.93808 340.825 211.17245 340.825Q212.40683 340.825 213.12558 341.5125Q213.84433 342.2 213.84433 343.21564Q213.84433 343.73126 213.62558 344.23126Q213.42245 344.71564 212.92245 345.27814Q212.43808 345.825 211.31308 346.77814Q210.35995 347.575 210.0787 347.8719Q209.81308 348.15314 209.6412 348.4344L213.85995 348.4344ZM220.92245 349.45L220.92245 341.8719L218.09433 341.8719L218.09433 340.85626L224.90683 340.85626L224.90683 341.8719L222.06308 341.8719L222.06308 349.45L220.92245 349.45ZM225.60995 349.45L225.60995 340.85626L226.65683 340.85626L226.65683 343.9344Q227.3912 343.09064 228.5162 343.09064Q229.21933 343.09064 229.71933 343.3719Q230.23495 343.6375 230.4537 344.1219Q230.67245 344.59064 230.67245 345.5125L230.67245 349.45L229.62558 349.45L229.62558 345.5125Q229.62558 344.71564 229.28183 344.35626Q228.93808 343.9969 228.31308 343.9969Q227.84433 343.9969 227.42245 344.2469Q227.0162 344.48126 226.8287 344.90314Q226.65683 345.3094 226.65683 346.04376L226.65683 349.45L225.60995 349.45ZM232.59433 349.45L232.59433 343.23126L233.54745 343.23126L233.54745 344.16876Q233.90683 343.5125 234.2037 343.3094Q234.5162 343.09064 234.8912 343.09064Q235.42245 343.09064 235.96933 343.41876L235.60995 344.40314Q235.21933 344.16876 234.84433 344.16876Q234.48495 344.16876 234.2037 344.3875Q233.93808 344.59064 233.8287 344.96564Q233.6412 345.52814 233.6412 346.1844L233.6412 349.45L232.59433 349.45ZM240.85995 347.45L241.9537 347.575Q241.7037 348.52814 241.00058 349.0594Q240.29745 349.59064 239.21933 349.59064Q237.85995 349.59064 237.04745 348.7469Q236.25058 347.90314 236.25058 346.3875Q236.25058 344.825 237.06308 343.96564Q237.87558 343.09064 239.15683 343.09064Q240.40683 343.09064 241.18808 343.9344Q241.98495 344.77814 241.98495 346.325Q241.98495 346.41876 241.98495 346.60626L237.34433 346.60626Q237.40683 347.6375 237.92245 348.1844Q238.43808 348.71564 239.21933 348.71564Q239.79745 348.71564 240.2037 348.41876Q240.62558 348.10626 240.85995 347.45ZM237.40683 345.7469L240.87558 345.7469Q240.81308 344.95 240.48495 344.5594Q239.96933 343.95 239.17245 343.95Q238.43808 343.95 237.93808 344.4344Q237.4537 344.91876 237.40683 345.7469ZM247.67245 348.6844Q247.0787 349.1844 246.53183 349.3875Q246.00058 349.59064 245.37558 349.59064Q244.34433 349.59064 243.79745 349.09064Q243.25058 348.59064 243.25058 347.8094Q243.25058 347.35626 243.4537 346.98126Q243.65683 346.59064 244.00058 346.3719Q244.34433 346.1375 244.7662 346.02814Q245.06308 345.9344 245.7037 345.85626Q246.96933 345.71564 247.5787 345.4969Q247.5787 345.27814 247.5787 345.23126Q247.5787 344.575 247.28183 344.3094Q246.87558 343.96564 246.0787 343.96564Q245.34433 343.96564 244.98495 344.23126Q244.62558 344.48126 244.4537 345.1375L243.42245 344.9969Q243.56308 344.34064 243.8912 343.9344Q244.21933 343.52814 244.8287 343.3094Q245.43808 343.09064 246.23495 343.09064Q247.03183 343.09064 247.53183 343.27814Q248.03183 343.46564 248.2662 343.7469Q248.50058 344.02814 248.59433 344.46564Q248.6412 344.73126 248.6412 345.4344L248.6412 346.84064Q248.6412 348.3094 248.7037 348.7Q248.78183 349.09064 248.98495 349.45L247.87558 349.45Q247.71933 349.1219 247.67245 348.6844ZM247.5787 346.325Q247.00058 346.5594 245.85995 346.73126Q245.2037 346.825 244.93808 346.95Q244.67245 347.0594 244.5162 347.27814Q244.37558 347.4969 244.37558 347.77814Q244.37558 348.2 244.68808 348.48126Q245.0162 348.7625 245.62558 348.7625Q246.23495 348.7625 246.7037 348.4969Q247.18808 348.23126 247.40683 347.7625Q247.5787 347.40314 247.5787 346.71564L247.5787 346.325ZM254.6412 349.45L254.6412 348.66876Q254.04745 349.59064 252.90683 349.59064Q252.15683 349.59064 251.53183 349.1844Q250.90683 348.7625 250.56308 348.02814Q250.21933 347.29376 250.21933 346.34064Q250.21933 345.41876 250.53183 344.65314Q250.84433 343.8875 251.46933 343.4969Q252.09433 343.09064 252.85995 343.09064Q253.42245 343.09064 253.85995 343.325Q254.29745 343.5594 254.5787 343.9344L254.5787 340.85626L255.62558 340.85626L255.62558 349.45L254.6412 349.45ZM251.31308 346.34064Q251.31308 347.54376 251.81308 348.1375Q252.31308 348.71564 253.00058 348.71564Q253.68808 348.71564 254.17245 348.15314Q254.65683 347.59064 254.65683 346.4344Q254.65683 345.15314 254.15683 344.5594Q253.67245 343.96564 252.9537 343.96564Q252.25058 343.96564 251.78183 344.54376Q251.31308 345.10626 251.31308 346.34064ZM257.18808 347.59064L258.21933 347.4344Q258.31308 348.0594 258.7037 348.3875Q259.10995 348.71564 259.84433 348.71564Q260.56308 348.71564 260.90683 348.4344Q261.2662 348.1375 261.2662 347.73126Q261.2662 347.3719 260.9537 347.16876Q260.73495 347.02814 259.87558 346.8094Q258.71933 346.5125 258.2662 346.3094Q257.8287 346.09064 257.59433 345.71564Q257.35995 345.34064 257.35995 344.8719Q257.35995 344.46564 257.54745 344.10626Q257.73495 343.7469 258.06308 343.5125Q258.31308 343.34064 258.73495 343.21564Q259.15683 343.09064 259.65683 343.09064Q260.37558 343.09064 260.92245 343.3094Q261.48495 343.5125 261.75058 343.8719Q262.0162 344.23126 262.10995 344.825L261.0787 344.96564Q261.0162 344.4969 260.67245 344.23126Q260.34433 343.95 259.71933 343.95Q259.00058 343.95 258.68808 344.2Q258.37558 344.4344 258.37558 344.7625Q258.37558 344.96564 258.50058 345.1219Q258.6412 345.29376 258.90683 345.40314Q259.06308 345.46564 259.84433 345.66876Q260.96933 345.98126 261.40683 346.16876Q261.84433 346.35626 262.09433 346.71564Q262.34433 347.075 262.34433 347.6219Q262.34433 348.15314 262.03183 348.6219Q261.73495 349.075 261.15683 349.34064Q260.5787 349.59064 259.84433 349.59064Q258.62558 349.59064 257.98495 349.09064Q257.35995 348.575 257.18808 347.59064Z" fill-rule="nonzero"/><path fill="#000000" d="M305.875 349.45L305.875 347.3875L302.15625 347.3875L302.15625 346.41876L306.07812 340.85626L306.9375 340.85626L306.9375 346.41876L308.09375 346.41876L308.09375 347.3875L306.9375 347.3875L306.9375 349.45L305.875 349.45ZM305.875 346.41876L305.875 342.5594L303.1875 346.41876L305.875 346.41876ZM315.10938 349.45L315.10938 341.8719L312.28125 341.8719L312.28125 340.85626L319.09375 340.85626L319.09375 341.8719L316.25 341.8719L316.25 349.45L315.10938 349.45ZM319.79688 349.45L319.79688 340.85626L320.84375 340.85626L320.84375 343.9344Q321.57812 343.09064 322.70312 343.09064Q323.40625 343.09064 323.90625 343.3719Q324.42188 343.6375 324.64062 344.1219Q324.85938 344.59064 324.85938 345.5125L324.85938 349.45L323.8125 349.45L323.8125 345.5125Q323.8125 344.71564 323.46875 344.35626Q323.125 343.9969 322.5 343.9969Q322.03125 343.9969 321.60938 344.2469Q321.20312 344.48126 321.01562 344.90314Q320.84375 345.3094 320.84375 346.04376L320.84375 349.45L319.79688 349.45ZM326.78125 349.45L326.78125 343.23126L327.73438 343.23126L327.73438 344.16876Q328.09375 343.5125 328.39062 343.3094Q328.70312 343.09064 329.07812 343.09064Q329.60938 343.09064 330.15625 343.41876L329.79688 344.40314Q329.40625 344.16876 329.03125 344.16876Q328.67188 344.16876 328.39062 344.3875Q328.125 344.59064 328.01562 344.96564Q327.82812 345.52814 327.82812 346.1844L327.82812 349.45L326.78125 349.45ZM335.04688 347.45L336.14062 347.575Q335.89062 348.52814 335.1875 349.0594Q334.48438 349.59064 333.40625 349.59064Q332.04688 349.59064 331.23438 348.7469Q330.4375 347.90314 330.4375 346.3875Q330.4375 344.825 331.25 343.96564Q332.0625 343.09064 333.34375 343.09064Q334.59375 343.09064 335.375 343.9344Q336.17188 344.77814 336.17188 346.325Q336.17188 346.41876 336.17188 346.60626L331.53125 346.60626Q331.59375 347.6375 332.10938 348.1844Q332.625 348.71564 333.40625 348.71564Q333.98438 348.71564 334.39062 348.41876Q334.8125 348.10626 335.04688 347.45ZM331.59375 345.7469L335.0625 345.7469Q335.0 344.95 334.67188 344.5594Q334.15625 343.95 333.35938 343.95Q332.625 343.95 332.125 344.4344Q331.64062 344.91876 331.59375 345.7469ZM341.85938 348.6844Q341.26562 349.1844 340.71875 349.3875Q340.1875 349.59064 339.5625 349.59064Q338.53125 349.59064 337.98438 349.09064Q337.4375 348.59064 337.4375 347.8094Q337.4375 347.35626 337.64062 346.98126Q337.84375 346.59064 338.1875 346.3719Q338.53125 346.1375 338.95312 346.02814Q339.25 345.9344 339.89062 345.85626Q341.15625 345.71564 341.76562 345.4969Q341.76562 345.27814 341.76562 345.23126Q341.76562 344.575 341.46875 344.3094Q341.0625 343.96564 340.26562 343.96564Q339.53125 343.96564 339.17188 344.23126Q338.8125 344.48126 338.64062 345.1375L337.60938 344.9969Q337.75 344.34064 338.07812 343.9344Q338.40625 343.52814 339.01562 343.3094Q339.625 343.09064 340.42188 343.09064Q341.21875 343.09064 341.71875 343.27814Q342.21875 343.46564 342.45312 343.7469Q342.6875 344.02814 342.78125 344.46564Q342.82812 344.73126 342.82812 345.4344L342.82812 346.84064Q342.82812 348.3094 342.89062 348.7Q342.96875 349.09064 343.17188 349.45L342.0625 349.45Q341.90625 349.1219 341.85938 348.6844ZM341.76562 346.325Q341.1875 346.5594 340.04688 346.73126Q339.39062 346.825 339.125 346.95Q338.85938 347.0594 338.70312 347.27814Q338.5625 347.4969 338.5625 347.77814Q338.5625 348.2 338.875 348.48126Q339.20312 348.7625 339.8125 348.7625Q340.42188 348.7625 340.89062 348.4969Q341.375 348.23126 341.59375 347.7625Q341.76562 347.40314 341.76562 346.71564L341.76562 346.325ZM348.82812 349.45L348.82812 348.66876Q348.23438 349.59064 347.09375 349.59064Q346.34375 349.59064 345.71875 349.1844Q345.09375 348.7625 344.75 348.02814Q344.40625 347.29376 344.40625 346.34064Q344.40625 345.41876 344.71875 344.65314Q345.03125 343.8875 345.65625 343.4969Q346.28125 343.09064 347.04688 343.09064Q347.60938 343.09064 348.04688 343.325Q348.48438 343.5594 348.76562 343.9344L348.76562 340.85626L349.8125 340.85626L349.8125 349.45L348.82812 349.45ZM345.5 346.34064Q345.5 347.54376 346.0 348.1375Q346.5 348.71564 347.1875 348.71564Q347.875 348.71564 348.35938 348.15314Q348.84375 347.59064 348.84375 346.4344Q348.84375 345.15314 348.34375 344.5594Q347.85938 343.96564 347.14062 343.96564Q346.4375 343.96564 345.96875 344.54376Q345.5 345.10626 345.5 346.34064ZM351.375 347.59064L352.40625 347.4344Q352.5 348.0594 352.89062 348.3875Q353.29688 348.71564 354.03125 348.71564Q354.75 348.71564 355.09375 348.4344Q355.45312 348.1375 355.45312 347.73126Q355.45312 347.3719 355.14062 347.16876Q354.92188 347.02814 354.0625 346.8094Q352.90625 346.5125 352.45312 346.3094Q352.01562 346.09064 351.78125 345.71564Q351.54688 345.34064 351.54688 344.8719Q351.54688 344.46564 351.73438 344.10626Q351.92188 343.7469 352.25 343.5125Q352.5 343.34064 352.92188 343.21564Q353.34375 343.09064 353.84375 343.09064Q354.5625 343.09064 355.10938 343.3094Q355.67188 343.5125 355.9375 343.8719Q356.20312 344.23126 356.29688 344.825L355.26562 344.96564Q355.20312 344.4969 354.85938 344.23126Q354.53125 343.95 353.90625 343.95Q353.1875 343.95 352.875 344.2Q352.5625 344.4344 352.5625 344.7625Q352.5625 344.96564 352.6875 345.1219Q352.82812 345.29376 353.09375 345.40314Q353.25 345.46564 354.03125 345.66876Q355.15625 345.98126 355.59375 346.16876Q356.03125 346.35626 356.28125 346.71564Q356.53125 347.075 356.53125 347.6219Q356.53125 348.15314 356.21875 348.6219Q355.92188 349.075 355.34375 349.34064Q354.76562 349.59064 354.03125 349.59064Q352.8125 349.59064 352.17188 349.09064Q351.54688 348.575 351.375 347.59064Z" fill-rule="nonzero"/><path fill="#000000" d="M398.31192 344.79376Q397.65567 344.54376 397.32755 344.10626Q397.01505 343.65314 397.01505 343.04376Q397.01505 342.10626 397.68692 341.46564Q398.37442 340.825 399.4838 340.825Q400.6088 340.825 401.2963 341.48126Q401.9838 342.1375 401.9838 343.075Q401.9838 343.66876 401.6713 344.10626Q401.3588 344.54376 400.71817 344.79376Q401.51505 345.04376 401.9213 345.6219Q402.32755 346.2 402.32755 346.9969Q402.32755 348.09064 401.5463 348.84064Q400.78067 349.59064 399.49942 349.59064Q398.2338 349.59064 397.45255 348.84064Q396.6713 348.09064 396.6713 346.96564Q396.6713 346.1219 397.09317 345.5594Q397.53067 344.9969 398.31192 344.79376ZM398.09317 342.9969Q398.09317 343.60626 398.4838 343.9969Q398.89005 344.3875 399.51505 344.3875Q400.12442 344.3875 400.51505 344.0125Q400.90567 343.6219 400.90567 343.0594Q400.90567 342.48126 400.49942 342.09064Q400.09317 341.6844 399.49942 341.6844Q398.89005 341.6844 398.4838 342.075Q398.09317 342.46564 398.09317 342.9969ZM397.76505 346.96564Q397.76505 347.41876 397.96817 347.84064Q398.18692 348.2625 398.6088 348.4969Q399.03067 348.73126 399.51505 348.73126Q400.26505 348.73126 400.74942 348.2469Q401.24942 347.7625 401.24942 347.0125Q401.24942 346.2469 400.74942 345.7469Q400.24942 345.2469 399.4838 345.2469Q398.7338 345.2469 398.24942 345.7469Q397.76505 346.23126 397.76505 346.96564ZM409.2963 349.45L409.2963 341.8719L406.46817 341.8719L406.46817 340.85626L413.28067 340.85626L413.28067 341.8719L410.43692 341.8719L410.43692 349.45L409.2963 349.45ZM413.9838 349.45L413.9838 340.85626L415.03067 340.85626L415.03067 343.9344Q415.76505 343.09064 416.89005 343.09064Q417.59317 343.09064 418.09317 343.3719Q418.6088 343.6375 418.82755 344.1219Q419.0463 344.59064 419.0463 345.5125L419.0463 349.45L417.99942 349.45L417.99942 345.5125Q417.99942 344.71564 417.65567 344.35626Q417.31192 343.9969 416.68692 343.9969Q416.21817 343.9969 415.7963 344.2469Q415.39005 344.48126 415.20255 344.90314Q415.03067 345.3094 415.03067 346.04376L415.03067 349.45L413.9838 349.45ZM420.96817 349.45L420.96817 343.23126L421.9213 343.23126L421.9213 344.16876Q422.28067 343.5125 422.57755 343.3094Q422.89005 343.09064 423.26505 343.09064Q423.7963 343.09064 424.34317 343.41876L423.9838 344.40314Q423.59317 344.16876 423.21817 344.16876Q422.8588 344.16876 422.57755 344.3875Q422.31192 344.59064 422.20255 344.96564Q422.01505 345.52814 422.01505 346.1844L422.01505 349.45L420.96817 349.45ZM429.2338 347.45L430.32755 347.575Q430.07755 348.52814 429.37442 349.0594Q428.6713 349.59064 427.59317 349.59064Q426.2338 349.59064 425.4213 348.7469Q424.62442 347.90314 424.62442 346.3875Q424.62442 344.825 425.43692 343.96564Q426.24942 343.09064 427.53067 343.09064Q428.78067 343.09064 429.56192 343.9344Q430.3588 344.77814 430.3588 346.325Q430.3588 346.41876 430.3588 346.60626L425.71817 346.60626Q425.78067 347.6375 426.2963 348.1844Q426.81192 348.71564 427.59317 348.71564Q428.1713 348.71564 428.57755 348.41876Q428.99942 348.10626 429.2338 347.45ZM425.78067 345.7469L429.24942 345.7469Q429.18692 344.95 428.8588 344.5594Q428.34317 343.95 427.5463 343.95Q426.81192 343.95 426.31192 344.4344Q425.82755 344.91876 425.78067 345.7469ZM436.0463 348.6844Q435.45255 349.1844 434.90567 349.3875Q434.37442 349.59064 433.74942 349.59064Q432.71817 349.59064 432.1713 349.09064Q431.62442 348.59064 431.62442 347.8094Q431.62442 347.35626 431.82755 346.98126Q432.03067 346.59064 432.37442 346.3719Q432.71817 346.1375 433.14005 346.02814Q433.43692 345.9344 434.07755 345.85626Q435.34317 345.71564 435.95255 345.4969Q435.95255 345.27814 435.95255 345.23126Q435.95255 344.575 435.65567 344.3094Q435.24942 343.96564 434.45255 343.96564Q433.71817 343.96564 433.3588 344.23126Q432.99942 344.48126 432.82755 345.1375L431.7963 344.9969Q431.93692 344.34064 432.26505 343.9344Q432.59317 343.52814 433.20255 343.3094Q433.81192 343.09064 434.6088 343.09064Q435.40567 343.09064 435.90567 343.27814Q436.40567 343.46564 436.64005 343.7469Q436.87442 344.02814 436.96817 344.46564Q437.01505 344.73126 437.01505 345.4344L437.01505 346.84064Q437.01505 348.3094 437.07755 348.7Q437.15567 349.09064 437.3588 349.45L436.24942 349.45Q436.09317 349.1219 436.0463 348.6844ZM435.95255 346.325Q435.37442 346.5594 434.2338 346.73126Q433.57755 346.825 433.31192 346.95Q433.0463 347.0594 432.89005 347.27814Q432.74942 347.4969 432.74942 347.77814Q432.74942 348.2 433.06192 348.48126Q433.39005 348.7625 433.99942 348.7625Q434.6088 348.7625 435.07755 348.4969Q435.56192 348.23126 435.78067 347.7625Q435.95255 347.40314 435.95255 346.71564L435.95255 346.325ZM443.01505 349.45L443.01505 348.66876Q442.4213 349.59064 441.28067 349.59064Q440.53067 349.59064 439.90567 349.1844Q439.28067 348.7625 438.93692 348.02814Q438.59317 347.29376 438.59317 346.34064Q438.59317 345.41876 438.90567 344.65314Q439.21817 343.8875 439.84317 343.4969Q440.46817 343.09064 441.2338 343.09064Q441.7963 343.09064 442.2338 343.325Q442.6713 343.5594 442.95255 343.9344L442.95255 340.85626L443.99942 340.85626L443.99942 349.45L443.01505 349.45ZM439.68692 346.34064Q439.68692 347.54376 440.18692 348.1375Q440.68692 348.71564 441.37442 348.71564Q442.06192 348.71564 442.5463 348.15314Q443.03067 347.59064 443.03067 346.4344Q443.03067 345.15314 442.53067 344.5594Q442.0463 343.96564 441.32755 343.96564Q440.62442 343.96564 440.15567 344.54376Q439.68692 345.10626 439.68692 346.34064ZM445.56192 347.59064L446.59317 347.4344Q446.68692 348.0594 447.07755 348.3875Q447.4838 348.71564 448.21817 348.71564Q448.93692 348.71564 449.28067 348.4344Q449.64005 348.1375 449.64005 347.73126Q449.64005 347.3719 449.32755 347.16876Q449.1088 347.02814 448.24942 346.8094Q447.09317 346.5125 446.64005 346.3094Q446.20255 346.09064 445.96817 345.71564Q445.7338 345.34064 445.7338 344.8719Q445.7338 344.46564 445.9213 344.10626Q446.1088 343.7469 446.43692 343.5125Q446.68692 343.34064 447.1088 343.21564Q447.53067 343.09064 448.03067 343.09064Q448.74942 343.09064 449.2963 343.3094Q449.8588 343.5125 450.12442 343.8719Q450.39005 344.23126 450.4838 344.825L449.45255 344.96564Q449.39005 344.4969 449.0463 344.23126Q448.71817 343.95 448.09317 343.95Q447.37442 343.95 447.06192 344.2Q446.74942 344.4344 446.74942 344.7625Q446.74942 344.96564 446.87442 345.1219Q447.01505 345.29376 447.28067 345.40314Q447.43692 345.46564 448.21817 345.66876Q449.34317 345.98126 449.78067 346.16876Q450.21817 346.35626 450.46817 346.71564Q450.71817 347.075 450.71817 347.6219Q450.71817 348.15314 450.40567 348.6219Q450.1088 349.075 449.53067 349.34064Q448.95255 349.59064 448.21817 349.59064Q446.99942 349.59064 446.3588 349.09064Q445.7338 348.575 445.56192 347.59064Z" fill-rule="nonzero"/><path fill="#000000" d="M491.3426 349.45L490.29572 349.45L490.29572 342.73126Q489.9051 343.09064 489.2801 343.46564Q488.67072 343.825 488.18634 343.9969L488.18634 342.98126Q489.06134 342.5594 489.7176 341.98126Q490.38947 341.3875 490.67072 340.825L491.3426 340.825L491.3426 349.45ZM499.8426 342.96564L498.79572 343.04376Q498.6551 342.41876 498.4051 342.1375Q497.9676 341.6844 497.3426 341.6844Q496.8426 341.6844 496.45197 341.96564Q495.9676 342.34064 495.67072 343.04376Q495.38947 343.73126 495.37384 345.0125Q495.74884 344.4344 496.29572 344.15314Q496.85822 343.8719 497.4676 343.8719Q498.51447 343.8719 499.24884 344.65314Q499.99884 345.4344 499.99884 346.65314Q499.99884 347.46564 499.63947 348.16876Q499.29572 348.85626 498.68634 349.23126Q498.07697 349.59064 497.31134 349.59064Q495.98322 349.59064 495.1551 348.6219Q494.32697 347.65314 494.32697 345.4344Q494.32697 342.9344 495.24884 341.8094Q496.04572 340.825 497.4051 340.825Q498.42072 340.825 499.06134 341.40314Q499.7176 341.96564 499.8426 342.96564ZM495.54572 346.66876Q495.54572 347.21564 495.76447 347.71564Q495.99884 348.2 496.4051 348.46564Q496.82697 348.73126 497.29572 348.73126Q497.95197 348.73126 498.43634 348.2Q498.92072 347.65314 498.92072 346.73126Q498.92072 345.84064 498.43634 345.325Q497.9676 344.8094 497.24884 344.8094Q496.5301 344.8094 496.0301 345.325Q495.54572 345.84064 495.54572 346.66876ZM506.98322 349.45L506.98322 341.8719L504.1551 341.8719L504.1551 340.85626L510.9676 340.85626L510.9676 341.8719L508.12384 341.8719L508.12384 349.45L506.98322 349.45ZM511.67072 349.45L511.67072 340.85626L512.7176 340.85626L512.7176 343.9344Q513.45197 343.09064 514.57697 343.09064Q515.2801 343.09064 515.7801 343.3719Q516.2957 343.6375 516.51447 344.1219Q516.7332 344.59064 516.7332 345.5125L516.7332 349.45L515.68634 349.45L515.68634 345.5125Q515.68634 344.71564 515.3426 344.35626Q514.99884 343.9969 514.37384 343.9969Q513.9051 343.9969 513.4832 344.2469Q513.07697 344.48126 512.88947 344.90314Q512.7176 345.3094 512.7176 346.04376L512.7176 349.45L511.67072 349.45ZM518.6551 349.45L518.6551 343.23126L519.6082 343.23126L519.6082 344.16876Q519.9676 343.5125 520.26447 343.3094Q520.57697 343.09064 520.95197 343.09064Q521.4832 343.09064 522.0301 343.41876L521.6707 344.40314Q521.2801 344.16876 520.9051 344.16876Q520.5457 344.16876 520.26447 344.3875Q519.99884 344.59064 519.88947 344.96564Q519.70197 345.52814 519.70197 346.1844L519.70197 349.45L518.6551 349.45ZM526.9207 347.45L528.01447 347.575Q527.76447 348.52814 527.06134 349.0594Q526.3582 349.59064 525.2801 349.59064Q523.9207 349.59064 523.1082 348.7469Q522.31134 347.90314 522.31134 346.3875Q522.31134 344.825 523.12384 343.96564Q523.93634 343.09064 525.2176 343.09064Q526.4676 343.09064 527.24884 343.9344Q528.0457 344.77814 528.0457 346.325Q528.0457 346.41876 528.0457 346.60626L523.4051 346.60626Q523.4676 347.6375 523.9832 348.1844Q524.49884 348.71564 525.2801 348.71564Q525.8582 348.71564 526.26447 348.41876Q526.68634 348.10626 526.9207 347.45ZM523.4676 345.7469L526.93634 345.7469Q526.87384 344.95 526.5457 344.5594Q526.0301 343.95 525.2332 343.95Q524.49884 343.95 523.99884 344.4344Q523.51447 344.91876 523.4676 345.7469ZM533.7332 348.6844Q533.13947 349.1844 532.5926 349.3875Q532.06134 349.59064 531.43634 349.59064Q530.4051 349.59064 529.8582 349.09064Q529.31134 348.59064 529.31134 347.8094Q529.31134 347.35626 529.51447 346.98126Q529.7176 346.59064 530.06134 346.3719Q530.4051 346.1375 530.82697 346.02814Q531.12384 345.9344 531.76447 345.85626Q533.0301 345.71564 533.63947 345.4969Q533.63947 345.27814 533.63947 345.23126Q533.63947 344.575 533.3426 344.3094Q532.93634 343.96564 532.13947 343.96564Q531.4051 343.96564 531.0457 344.23126Q530.68634 344.48126 530.51447 345.1375L529.4832 344.9969Q529.62384 344.34064 529.95197 343.9344Q530.2801 343.52814 530.88947 343.3094Q531.49884 343.09064 532.2957 343.09064Q533.0926 343.09064 533.5926 343.27814Q534.0926 343.46564 534.32697 343.7469Q534.56134 344.02814 534.6551 344.46564Q534.70197 344.73126 534.70197 345.4344L534.70197 346.84064Q534.70197 348.3094 534.76447 348.7Q534.8426 349.09064 535.0457 349.45L533.93634 349.45Q533.7801 349.1219 533.7332 348.6844ZM533.63947 346.325Q533.06134 346.5594 531.9207 346.73126Q531.26447 346.825 530.99884 346.95Q530.7332 347.0594 530.57697 347.27814Q530.43634 347.4969 530.43634 347.77814Q530.43634 348.2 530.74884 348.48126Q531.07697 348.7625 531.68634 348.7625Q532.2957 348.7625 532.76447 348.4969Q533.24884 348.23126 533.4676 347.7625Q533.63947 347.40314 533.63947 346.71564L533.63947 346.325ZM540.70197 349.45L540.70197 348.66876Q540.1082 349.59064 538.9676 349.59064Q538.2176 349.59064 537.5926 349.1844Q536.9676 348.7625 536.62384 348.02814Q536.2801 347.29376 536.2801 346.34064Q536.2801 345.41876 536.5926 344.65314Q536.9051 343.8875 537.5301 343.4969Q538.1551 343.09064 538.9207 343.09064Q539.4832 343.09064 539.9207 343.325Q540.3582 343.5594 540.63947 343.9344L540.63947 340.85626L541.68634 340.85626L541.68634 349.45L540.70197 349.45ZM537.37384 346.34064Q537.37384 347.54376 537.87384 348.1375Q538.37384 348.71564 539.06134 348.71564Q539.74884 348.71564 540.2332 348.15314Q540.7176 347.59064 540.7176 346.4344Q540.7176 345.15314 540.2176 344.5594Q539.7332 343.96564 539.01447 343.96564Q538.31134 343.96564 537.8426 344.54376Q537.37384 345.10626 537.37384 346.34064ZM543.24884 347.59064L544.2801 347.4344Q544.37384 348.0594 544.76447 348.3875Q545.1707 348.71564 545.9051 348.71564Q546.62384 348.71564 546.9676 348.4344Q547.32697 348.1375 547.32697 347.73126Q547.32697 347.3719 547.01447 347.16876Q546.7957 347.02814 545.93634 346.8094Q544.7801 346.5125 544.32697 346.3094Q543.88947 346.09064 543.6551 345.71564Q543.4207 345.34064 543.4207 344.8719Q543.4207 344.46564 543.6082 344.10626Q543.7957 343.7469 544.12384 343.5125Q544.37384 343.34064 544.7957 343.21564Q545.2176 343.09064 545.7176 343.09064Q546.43634 343.09064 546.9832 343.3094Q547.5457 343.5125 547.81134 343.8719Q548.07697 344.23126 548.1707 344.825L547.13947 344.96564Q547.07697 344.4969 546.7332 344.23126Q546.4051 343.95 545.7801 343.95Q545.06134 343.95 544.74884 344.2Q544.43634 344.4344 544.43634 344.7625Q544.43634 344.96564 544.56134 345.1219Q544.70197 345.29376 544.9676 345.40314Q545.12384 345.46564 545.9051 345.66876Q547.0301 345.98126 547.4676 346.16876Q547.9051 346.35626 548.1551 346.71564Q548.4051 347.075 548.4051 347.6219Q548.4051 348.15314 548.0926 348.6219Q547.7957 349.075 547.2176 349.34064Q546.63947 349.59064 545.9051 349.59064Q544.68634 349.59064 544.0457 349.09064Q543.4207 348.575 543.24884 347.59064Z" fill-rule="nonzero"/><path fill="#757575" d="M26.8 31.940624L26.8 30.253124L32.8625 30.2375L32.8625 35.55Q31.45625 36.675 29.971874 37.2375Q28.4875 37.8 26.925 37.8Q24.815624 37.8 23.096874 36.89375Q21.378124 35.9875 20.4875 34.284374Q19.6125 32.565624 19.6125 30.45625Q19.6125 28.3625 20.4875 26.565624Q21.3625 24.753124 23.003124 23.878124Q24.64375 22.9875 26.784374 22.9875Q28.33125 22.9875 29.58125 23.4875Q30.846874 23.9875 31.55 24.89375Q32.26875 25.784374 32.64375 27.2375L30.940624 27.70625Q30.6125 26.6125 30.128124 25.9875Q29.659374 25.3625 28.76875 24.9875Q27.878124 24.6125 26.8 24.6125Q25.4875 24.6125 24.534374 25.003124Q23.596874 25.39375 23.01875 26.05Q22.440624 26.690624 22.1125 27.45625Q21.565624 28.784374 21.565624 30.346874Q21.565624 32.253124 22.221874 33.55Q22.89375 34.83125 24.14375 35.45625Q25.409374 36.08125 26.815624 36.08125Q28.05 36.08125 29.221874 35.6125Q30.39375 35.14375 31.003124 34.596874L31.003124 31.940624L26.8 31.940624ZM46.315624 32.534374L48.20625 33.003124Q47.6125 35.346874 46.065624 36.58125Q44.51875 37.8 42.26875 37.8Q39.95625 37.8 38.503124 36.8625Q37.065624 35.909374 36.3 34.128124Q35.55 32.33125 35.55 30.284374Q35.55 28.05 36.39375 26.39375Q37.253124 24.721874 38.83125 23.8625Q40.409374 22.9875 42.3 22.9875Q44.45625 22.9875 45.909374 24.08125Q47.378124 25.175 47.95625 27.159374L46.096874 27.596874Q45.596874 26.034374 44.64375 25.33125Q43.70625 24.6125 42.26875 24.6125Q40.6125 24.6125 39.503124 25.409374Q38.39375 26.190624 37.940624 27.534374Q37.503124 28.8625 37.503124 30.26875Q37.503124 32.096874 38.034374 33.471874Q38.565624 34.83125 39.690624 35.503124Q40.815624 36.175 42.1125 36.175Q43.70625 36.175 44.815624 35.253124Q45.925 34.33125 46.315624 32.534374ZM60.315624 32.534374L62.20625 33.003124Q61.6125 35.346874 60.065624 36.58125Q58.51875 37.8 56.26875 37.8Q53.95625 37.8 52.503124 36.8625Q51.065624 35.909374 50.3 34.128124Q49.55 32.33125 49.55 30.284374Q49.55 28.05 50.39375 26.39375Q51.253124 24.721874 52.83125 23.8625Q54.409374 22.9875 56.3 22.9875Q58.45625 22.9875 59.909374 24.08125Q61.378124 25.175 61.95625 27.159374L60.096874 27.596874Q59.596874 26.034374 58.64375 25.33125Q57.70625 24.6125 56.26875 24.6125Q54.6125 24.6125 53.503124 25.409374Q52.39375 26.190624 51.940624 27.534374Q51.503124 28.8625 51.503124 30.26875Q51.503124 32.096874 52.034374 33.471874Q52.565624 34.83125 53.690624 35.503124Q54.815624 36.175 56.1125 36.175Q57.70625 36.175 58.815624 35.253124Q59.925 34.33125 60.315624 32.534374ZM70.01875 37.55L70.01875 23.2375L75.39375 23.2375Q77.03438 23.2375 78.01875 23.675Q79.00313 24.096874 79.56563 25.003124Q80.12813 25.909374 80.12813 26.89375Q80.12813 27.815624 79.62813 28.628124Q79.14375 29.440624 78.12813 29.925Q79.425 30.315624 80.12813 31.2375Q80.83125 32.14375 80.83125 33.39375Q80.83125 34.409374 80.39375 35.26875Q79.97188 36.128124 79.34688 36.596874Q78.72188 37.065624 77.78438 37.315624Q76.84688 37.55 75.47188 37.55L70.01875 37.55ZM71.90938 29.253124L75.00313 29.253124Q76.26875 29.253124 76.81563 29.08125Q77.53438 28.8625 77.89375 28.378124Q78.26875 27.878124 78.26875 27.1125Q78.26875 26.409374 77.925 25.8625Q77.58125 25.315624 76.94063 25.128124Q76.31563 24.925 74.76875 24.925L71.90938 24.925L71.90938 29.253124ZM71.90938 35.8625L75.47188 35.8625Q76.39375 35.8625 76.76875 35.784374Q77.425 35.675 77.8625 35.409374Q78.3 35.128124 78.58125 34.6125Q78.8625 34.08125 78.8625 33.39375Q78.8625 32.596874 78.45625 32.003124Q78.05 31.409374 77.31563 31.175Q76.58125 30.940624 75.22188 30.940624L71.90938 30.940624L71.90938 35.8625ZM89.65938 37.55L89.65938 36.01875Q88.45625 37.784374 86.37813 37.784374Q85.45625 37.784374 84.65938 37.440624Q83.8625 37.08125 83.47188 36.55Q83.09688 36.01875 82.94063 35.2375Q82.83125 34.721874 82.83125 33.596874L82.83125 27.175L84.58125 27.175L84.58125 32.925Q84.58125 34.3 84.69063 34.784374Q84.8625 35.471874 85.39375 35.878124Q85.94063 36.26875 86.72188 36.26875Q87.51875 36.26875 88.20625 35.8625Q88.90938 35.45625 89.19063 34.76875Q89.4875 34.065624 89.4875 32.7375L89.4875 27.175L91.2375 27.175L91.2375 37.55L89.65938 37.55ZM93.87813 25.253124L93.87813 23.2375L95.64375 23.2375L95.64375 25.253124L93.87813 25.253124ZM93.87813 37.55L93.87813 27.175L95.64375 27.175L95.64375 37.55L93.87813 37.55ZM97.83125 37.55L97.83125 23.2375L99.58125 23.2375L99.58125 37.55L97.83125 37.55ZM108.59688 37.55L108.59688 36.2375Q107.6125 37.784374 105.69063 37.784374Q104.45625 37.784374 103.40938 37.096874Q102.37813 36.409374 101.8 35.190624Q101.2375 33.971874 101.2375 32.378124Q101.2375 30.815624 101.75313 29.55Q102.26875 28.284374 103.3 27.6125Q104.34688 26.940624 105.6125 26.940624Q106.55 26.940624 107.28438 27.346874Q108.01875 27.7375 108.4875 28.3625L108.4875 23.2375L110.22188 23.2375L110.22188 37.55L108.59688 37.55ZM103.03438 32.378124Q103.03438 34.3625 103.87813 35.346874Q104.72188 36.33125 105.8625 36.33125Q107.01875 36.33125 107.81563 35.39375Q108.62813 34.45625 108.62813 32.51875Q108.62813 30.39375 107.8 29.39375Q106.9875 28.39375 105.78438 28.39375Q104.6125 28.39375 103.81563 29.3625Q103.03438 30.315624 103.03438 32.378124ZM122.7375 37.55L122.7375 24.925L118.01875 24.925L118.01875 23.2375L129.3625 23.2375L129.3625 24.925L124.62813 24.925L124.62813 37.55L122.7375 37.55ZM130.87813 25.253124L130.87813 23.2375L132.64375 23.2375L132.64375 25.253124L130.87813 25.253124ZM130.87813 37.55L130.87813 27.175L132.64375 27.175L132.64375 37.55L130.87813 37.55ZM134.8625 37.55L134.8625 27.175L136.44063 27.175L136.44063 28.628124Q136.925 27.878124 137.7375 27.409374Q138.55 26.940624 139.58125 26.940624Q140.7375 26.940624 141.47188 27.425Q142.20625 27.89375 142.51875 28.753124Q143.75313 26.940624 145.72188 26.940624Q147.26875 26.940624 148.09688 27.8Q148.925 28.659374 148.925 30.425L148.925 37.55L147.175 37.55L147.175 31.01875Q147.175 29.95625 147.00313 29.503124Q146.83125 29.034374 146.37813 28.753124Q145.94063 28.471874 145.33125 28.471874Q144.2375 28.471874 143.50313 29.20625Q142.78438 29.925 142.78438 31.51875L142.78438 37.55L141.03438 37.55L141.03438 30.815624Q141.03438 29.64375 140.59688 29.065624Q140.175 28.471874 139.19063 28.471874Q138.45625 28.471874 137.81563 28.8625Q137.19063 29.253124 136.90938 30.003124Q136.62813 30.753124 136.62813 32.175L136.62813 37.55L134.8625 37.55ZM158.97188 34.20625L160.78438 34.440624Q160.3625 36.01875 159.19063 36.909374Q158.03438 37.784374 156.22188 37.784374Q153.95625 37.784374 152.6125 36.39375Q151.28438 34.9875 151.28438 32.45625Q151.28438 29.83125 152.62813 28.39375Q153.97188 26.940624 156.12813 26.940624Q158.20625 26.940624 159.51875 28.3625Q160.84688 29.76875 160.84688 32.346874Q160.84688 32.503124 160.83125 32.815624L153.09688 32.815624Q153.19063 34.51875 154.06563 35.425Q154.94063 36.33125 156.2375 36.33125Q157.20625 36.33125 157.87813 35.83125Q158.56563 35.315624 158.97188 34.20625ZM153.19063 31.3625L158.9875 31.3625Q158.87813 30.065624 158.33125 29.409374Q157.4875 28.39375 156.14375 28.39375Q154.94063 28.39375 154.1125 29.20625Q153.28438 30.003124 153.19063 31.3625ZM162.15938 34.45625L163.90938 34.175Q164.05 35.221874 164.72188 35.784374Q165.39375 36.33125 166.59688 36.33125Q167.8 36.33125 168.37813 35.846874Q168.97188 35.346874 168.97188 34.690624Q168.97188 34.096874 168.45625 33.753124Q168.09688 33.51875 166.65938 33.159374Q164.72188 32.659374 163.97188 32.315624Q163.2375 31.95625 162.84688 31.33125Q162.45625 30.690624 162.45625 29.925Q162.45625 29.2375 162.76875 28.64375Q163.09688 28.05 163.64375 27.659374Q164.05 27.3625 164.75313 27.159374Q165.47188 26.940624 166.28438 26.940624Q167.50313 26.940624 168.425 27.3Q169.34688 27.64375 169.78438 28.253124Q170.22188 28.846874 170.39375 29.846874L168.675 30.08125Q168.55 29.284374 167.9875 28.846874Q167.425 28.39375 166.40938 28.39375Q165.19063 28.39375 164.675 28.8Q164.15938 29.190624 164.15938 29.721874Q164.15938 30.065624 164.37813 30.346874Q164.58125 30.628124 165.05 30.815624Q165.31563 30.909374 166.59688 31.253124Q168.47188 31.753124 169.20625 32.08125Q169.94063 32.39375 170.3625 33.003124Q170.78438 33.596874 170.78438 34.503124Q170.78438 35.378124 170.26875 36.159374Q169.75313 36.940624 168.78438 37.3625Q167.81563 37.784374 166.59688 37.784374Q164.58125 37.784374 163.51875 36.940624Q162.45625 36.096874 162.15938 34.45625ZM181.75313 37.55L177.8 27.175L179.65938 27.175L181.89375 33.39375Q182.25313 34.39375 182.55 35.471874Q182.78438 34.659374 183.20625 33.503124L185.50313 27.175L187.31563 27.175L183.39375 37.55L181.75313 37.55ZM188.15938 34.45625L189.90938 34.175Q190.05 35.221874 190.72188 35.784374Q191.39375 36.33125 192.59688 36.33125Q193.8 36.33125 194.37813 35.846874Q194.97188 35.346874 194.97188 34.690624Q194.97188 34.096874 194.45625 33.753124Q194.09688 33.51875 192.65938 33.159374Q190.72188 32.659374 189.97188 32.315624Q189.2375 31.95625 188.84688 31.33125Q188.45625 30.690624 188.45625 29.925Q188.45625 29.2375 188.76875 28.64375Q189.09688 28.05 189.64375 27.659374Q190.05 27.3625 190.75313 27.159374Q191.47188 26.940624 192.28438 26.940624Q193.50313 26.940624 194.425 27.3Q195.34688 27.64375 195.78438 28.253124Q196.22188 28.846874 196.39375 29.846874L194.675 30.08125Q194.55 29.284374 193.9875 28.846874Q193.425 28.39375 192.40938 28.39375Q191.19063 28.39375 190.675 28.8Q190.15938 29.190624 190.15938 29.721874Q190.15938 30.065624 190.37813 30.346874Q190.58125 30.628124 191.05 30.815624Q191.31563 30.909374 192.59688 31.253124Q194.47188 31.753124 195.20625 32.08125Q195.94063 32.39375 196.3625 33.003124Q196.78438 33.596874 196.78438 34.503124Q196.78438 35.378124 196.26875 36.159374Q195.75313 36.940624 194.78438 37.3625Q193.81563 37.784374 192.59688 37.784374Q190.58125 37.784374 189.51875 36.940624Q188.45625 36.096874 188.15938 34.45625ZM208.7375 37.55L208.7375 24.925L204.01875 24.925L204.01875 23.2375L215.3625 23.2375L215.3625 24.925L210.62813 24.925L210.62813 37.55L208.7375 37.55ZM216.8625 37.55L216.8625 23.2375L218.62813 23.2375L218.62813 28.3625Q219.8625 26.940624 221.7375 26.940624Q222.87813 26.940624 223.72188 27.39375Q224.58125 27.846874 224.94063 28.659374Q225.31563 29.45625 225.31563 30.971874L225.31563 37.55L223.56563 37.55L223.56563 30.971874Q223.56563 29.659374 222.9875 29.065624Q222.40938 28.45625 221.37813 28.45625Q220.59688 28.45625 219.89375 28.8625Q219.20625 29.26875 218.90938 29.971874Q218.62813 30.659374 218.62813 31.878124L218.62813 37.55L216.8625 37.55ZM227.84688 37.55L227.84688 27.175L229.425 27.175L229.425 28.753124Q230.03438 27.64375 230.55 27.3Q231.06563 26.940624 231.675 26.940624Q232.56563 26.940624 233.4875 27.503124L232.87813 29.14375Q232.2375 28.753124 231.59688 28.753124Q231.01875 28.753124 230.55 29.1125Q230.09688 29.45625 229.89375 30.065624Q229.6125 31.003124 229.6125 32.1125L229.6125 37.55L227.84688 37.55ZM241.97188 34.20625L243.78438 34.440624Q243.3625 36.01875 242.19063 36.909374Q241.03438 37.784374 239.22188 37.784374Q236.95625 37.784374 235.6125 36.39375Q234.28438 34.9875 234.28438 32.45625Q234.28438 29.83125 235.62813 28.39375Q236.97188 26.940624 239.12813 26.940624Q241.20625 26.940624 242.51875 28.3625Q243.84688 29.76875 243.84688 32.346874Q243.84688 32.503124 243.83125 32.815624L236.09688 32.815624Q236.19063 34.51875 237.06563 35.425Q237.94063 36.33125 239.2375 36.33125Q240.20625 36.33125 240.87813 35.83125Q241.56563 35.315624 241.97188 34.20625ZM236.19063 31.3625L241.9875 31.3625Q241.87813 30.065624 241.33125 29.409374Q240.4875 28.39375 239.14375 28.39375Q237.94063 28.39375 237.1125 29.20625Q236.28438 30.003124 236.19063 31.3625ZM252.64375 36.26875Q251.65938 37.096874 250.75313 37.440624Q249.84688 37.784374 248.81563 37.784374Q247.1125 37.784374 246.19063 36.95625Q245.26875 36.1125 245.26875 34.815624Q245.26875 34.05 245.6125 33.425Q245.97188 32.8 246.53438 32.425Q247.09688 32.034374 247.8 31.83125Q248.31563 31.70625 249.3625 31.565624Q251.4875 31.315624 252.4875 30.971874Q252.50313 30.6125 252.50313 30.503124Q252.50313 29.440624 252.00313 28.9875Q251.33125 28.39375 250.00313 28.39375Q248.75313 28.39375 248.15938 28.83125Q247.58125 29.26875 247.3 30.378124L245.58125 30.14375Q245.81563 29.034374 246.34688 28.3625Q246.87813 27.675 247.89375 27.315624Q248.90938 26.940624 250.25313 26.940624Q251.58125 26.940624 252.40938 27.253124Q253.2375 27.565624 253.62813 28.05Q254.01875 28.51875 254.175 29.2375Q254.26875 29.690624 254.26875 30.8625L254.26875 33.20625Q254.26875 35.659374 254.37813 36.315624Q254.4875 36.95625 254.83125 37.55L252.9875 37.55Q252.72188 37.003124 252.64375 36.26875ZM252.4875 32.346874Q251.53438 32.7375 249.6125 33.003124Q248.53438 33.159374 248.08125 33.3625Q247.64375 33.55 247.39375 33.925Q247.14375 34.3 247.14375 34.76875Q247.14375 35.471874 247.675 35.940624Q248.20625 36.409374 249.2375 36.409374Q250.25313 36.409374 251.03438 35.971874Q251.83125 35.51875 252.20625 34.753124Q252.4875 34.14375 252.4875 32.9875L252.4875 32.346874ZM263.59686 37.55L263.59686 36.2375Q262.6125 37.784374 260.6906 37.784374Q259.45624 37.784374 258.40936 37.096874Q257.3781 36.409374 256.8 35.190624Q256.2375 33.971874 256.2375 32.378124Q256.2375 30.815624 256.7531 29.55Q257.26874 28.284374 258.3 27.6125Q259.34686 26.940624 260.6125 26.940624Q261.55 26.940624 262.28436 27.346874Q263.01874 27.7375 263.4875 28.3625L263.4875 23.2375L265.22186 23.2375L265.22186 37.55L263.59686 37.55ZM258.03436 32.378124Q258.03436 34.3625 258.8781 35.346874Q259.72186 36.33125 260.8625 36.33125Q262.01874 36.33125 262.8156 35.39375Q263.6281 34.45625 263.6281 32.51875Q263.6281 30.39375 262.8 29.39375Q261.9875 28.39375 260.78436 28.39375Q259.6125 28.39375 258.8156 29.3625Q258.03436 30.315624 258.03436 32.378124ZM267.15936 34.45625L268.90936 34.175Q269.05 35.221874 269.72186 35.784374Q270.39374 36.33125 271.59686 36.33125Q272.8 36.33125 273.3781 35.846874Q273.97186 35.346874 273.97186 34.690624Q273.97186 34.096874 273.45624 33.753124Q273.09686 33.51875 271.65936 33.159374Q269.72186 32.659374 268.97186 32.315624Q268.2375 31.95625 267.84686 31.33125Q267.45624 30.690624 267.45624 29.925Q267.45624 29.2375 267.76874 28.64375Q268.09686 28.05 268.64374 27.659374Q269.05 27.3625 269.7531 27.159374Q270.47186 26.940624 271.28436 26.940624Q272.5031 26.940624 273.425 27.3Q274.34686 27.64375 274.78436 28.253124Q275.22186 28.846874 275.39374 29.846874L273.675 30.08125Q273.55 29.284374 272.9875 28.846874Q272.425 28.39375 271.40936 28.39375Q270.1906 28.39375 269.675 28.8Q269.15936 29.190624 269.15936 29.721874Q269.15936 30.065624 269.3781 30.346874Q269.58124 30.628124 270.05 30.815624Q270.3156 30.909374 271.59686 31.253124Q273.47186 31.753124 274.20624 32.08125Q274.9406 32.39375 275.3625 33.003124Q275.78436 33.596874 275.78436 34.503124Q275.78436 35.378124 275.26874 36.159374Q274.7531 36.940624 273.78436 37.3625Q272.8156 37.784374 271.59686 37.784374Q269.58124 37.784374 268.51874 36.940624Q267.45624 36.096874 267.15936 34.45625Z" fill-rule="nonzero"/></svg>