<?xml version="1.0" encoding="UTF-8" standalone="no"?>
<svg
   xmlns="http://www.w3.org/2000/svg"
   xml:space="preserve"
   viewBox="0 0 284.929 284.929"
   height="284.929px"
   width="284.929px"
   y="0px"
   x="0px"
   version="1.1">

<path fill="#141845" id="path10" d="M 89.717437,282.11045 222.69196,148.98602 c 1.902,-1.90201 2.85384,-4.08951 2.85253,-6.56351 -0.001,-2.474 -0.95547,-4.6645 -2.85948,-6.56549 L 89.569584,2.8844882 C 87.662575,0.97949772 85.475072,0.03065589 83.000072,0.03196643 80.526073,0.03327644 78.336578,0.98743594 76.435586,2.8914428 L 62.172145,17.170997 c -1.901992,1.904008 -2.851832,4.094511 -2.850522,6.568511 0.0013,2.473999 0.953469,4.663496 2.857476,6.565488 L 174.4405,142.44957 62.290928,254.71697 c -1.901993,1.90301 -2.845832,4.09451 -2.844524,6.5645 0.0013,2.478 0.953471,4.6675 2.851478,6.5685 l 14.284556,14.26643 c 1.903007,1.901 4.094507,2.84484 6.567507,2.84353 2.476,-3.1e-4 4.665499,-0.94647 6.567492,-2.84948 z" />
</svg>
