<?xml version="1.0" encoding="iso-8859-1"?>
<!-- Generator: Adobe Illustrator 17.1.0, SVG Export Plug-In . SVG Version: 6.00 Build 0)  -->
<!DOCTYPE svg PUBLIC "-//W3C//DTD SVG 1.1//EN" "http://www.w3.org/Graphics/SVG/1.1/DTD/svg11.dtd">
<svg version="1.1" id="Interrupt" xmlns="http://www.w3.org/2000/svg" xmlns:xlink="http://www.w3.org/1999/xlink" x="0px" y="0px"
	 viewBox="0 0 126.122 126.122" style="enable-background:new 0 0 126.122 126.122;" xml:space="preserve">
<g id="Logo_mark_8_">
	<circle style="fill:#171843;" cx="63.061" cy="63.061" r="63.061"/>
	<g>
		<polygon style="fill:#39C1CF;" points="103.614,76.917 102.204,77.737 100.044,94.437 86.654,86.717 86.654,86.707 88.814,70.007 
			88.824,70.007 90.234,69.187 		"/>
		<g>
			<g>
				<path style="fill:#B3E1E7;" d="M114.226,63.124c-0.021,4.84-2.8,9.27-6.99,11.69l-5.04,2.92l-13.35-7.71l-0.03-0.02l8.73-5.04
					c1.46-0.85,1.47-2.96,0-3.8l-30.51-17.62c-1.22-0.71-2.59-1.06-3.97-1.06c-1.37,0-2.75,0.35-3.97,1.06l-30.52,17.62
					c-1.47,0.84-1.47,2.95,0,3.8l30.52,17.61c2.45,1.42,5.5,1.42,7.94,0l6.22-3.6l13.4,7.73l-12.92,7.46
					c-6.58,3.81-14.77,3.81-21.34,0l-33.8-19.52c-4.19-2.42-6.7-6.75-6.7-11.58c0-4.84,2.51-9.17,6.7-11.59l33.8-19.53
					c6.57-3.79,14.75-3.79,21.34,0l33.8,19.53C111.746,53.894,114.246,58.254,114.226,63.124z"/>
			</g>
		</g>
	</g>
</g>
</svg>
