<svg xmlns="http://www.w3.org/2000/svg" xmlns:xlink="http://www.w3.org/1999/xlink">

<symbol id="meetup" fill-rule="evenodd" clip-rule="evenodd" stroke-linejoin="round" stroke-miterlimit="1.414">
    <path d="m1.5473 8.3313c0.033271 0.19962 0 0.36596-0.099808 0.53231-0.099808 0.16635-0.26615 0.26615-0.46577 0.29942-0.19962 0.033265-0.36596 0-0.53231-0.13308-0.16635-0.099806-0.26615-0.26615-0.29942-0.46577-0.033271-0.19962 0-0.36596 0.099808-0.53231 0.13308-0.16635 0.26615-0.26615 0.46577-0.29942 0.19962-0.033273 0.36596 0 0.53231 0.099808 0.16635 0.13308 0.26615 0.29942 0.29942 0.49904zm12.908 1.1977c0.4325 0.69865 0.56558 1.4638 0.39923 2.2623-0.16635 0.79846-0.56558 1.4638-1.2642 1.9296-0.56558 0.39923-1.1644 0.56558-1.8631 0.56558-0.13308 0.49904-0.39923 0.89827-0.79846 1.1644-0.39923 0.29942-0.83173 0.4325-1.3308 0.39923-0.49904 0-0.93154-0.19961-1.2975-0.53231-0.066538 0.06654-0.099807 0.09981-0.13308 0.09981-0.63211 0.4325-1.3308 0.59884-2.096 0.46577-0.76519-0.13308-1.364-0.53231-1.7965-1.1644-0.29942-0.46577-0.46577-0.96481-0.49904-1.5304-0.49904-0.099808-0.96481-0.29942-1.3308-0.66538-0.36596-0.36596-0.63212-0.73192-0.73192-1.1977-0.13308-0.4325-0.13308-0.89827-0.033271-1.3973 0.13308-0.49904 0.36596-0.93154 0.76519-1.2975-0.23288-0.36596-0.33269-0.76519-0.36596-1.1977 0-0.4325 0.066538-0.79846 0.23288-1.1644 0.16635-0.36596 0.39923-0.66538 0.73192-0.89827 0.33269-0.26615 0.69865-0.39923 1.1312-0.46577 0.19962-0.53231 0.49904-0.99808 0.93154-1.364 0.39923-0.39923 0.865-0.66538 1.364-0.865 0.49904-0.19962 0.99808-0.23288 1.5637-0.16635 0.56558 0.066539 1.0313 0.26615 1.4971 0.63212 0.4325-0.13308 0.865-0.19962 1.2975-0.16635 0.4325 0.033273 0.83173 0.13308 1.1977 0.33269 0.36596 0.19962 0.69865 0.4325 0.96481 0.73192 0.26616 0.29942 0.46577 0.66538 0.63212 1.0646 0.13308 0.4325 0.19962 0.865 0.16635 1.2975 0.33269 0.099807 0.59884 0.26615 0.79846 0.53231 0.23288 0.26615 0.36596 0.53231 0.4325 0.83173 0.06654 0.29942 0.03327 0.59885-0.06654 0.93154-0.06654 0.36596-0.23288 0.63212-0.49904 0.83173zm-11.245 4.2252c0.066538 0.03327 0.13308 0.13308 0.13308 0.19962 0.033271 0.09981 0 0.16635-0.03327 0.26615-0.033271 0.06654-0.13308 0.13308-0.19962 0.13308-0.099807 0.03327-0.16635 0-0.23288-0.03327-0.066538-0.03327-0.13308-0.13308-0.13308-0.19962-0.033271-0.09981 0-0.16635 0.03327-0.26615 0.03327-0.06654 0.13308-0.13308 0.19962-0.13308 0.066538-0.03327 0.16635-0.03327 0.23288 0.03327zm0.83173-10.347c0.099807 0.13308 0.099807 0.26615 0.099807 0.39923-0.033271 0.16635-0.099807 0.26615-0.23288 0.36596-0.13308 0.099808-0.26615 0.099808-0.39923 0.099808-0.16635-0.033272-0.26615-0.099808-0.33269-0.23288-0.099808-0.13308-0.099808-0.26615-0.099808-0.39923 0.033271-0.16635 0.099808-0.26615 0.23288-0.36596 0.13308-0.099808 0.26615-0.099808 0.39923-0.099808 0.13308 0.033273 0.23288 0.099808 0.33269 0.23288zm8.151 8.5502c-0.03327-0.13308-0.09981-0.26615-0.26615-0.29942-0.13308-0.06654-0.29942-0.09981-0.46577-0.09981s-0.29942-0.03327-0.46577-0.09981c-0.16635-0.06654-0.23288-0.19962-0.23288-0.36596-0.03327-0.29942 0.06654-0.73192 0.29942-1.2975 0.23289-0.56558 0.46577-1.1312 0.69866-1.6967 0.23288-0.56558 0.33269-0.93154 0.29942-1.1977-0.09981-0.63211-0.4325-0.93154-1.0979-0.96481-0.26615 0-0.49904 0.033273-0.69866 0.13308l-0.03327 0.033273c-0.03327 0-0.03327 0.033273-0.03327 0.033273s-0.03327 0-0.03327 0.033273c-0.03327 0-0.03327 0-0.03327 0.033273h-0.09981s-0.033265-0.033273-0.066539-0.033273c-0.033265 0-0.033265-0.033273-0.066539-0.033273-0.033265 0-0.033265-0.033273-0.099808-0.066538l-0.099821-0.099808s-0.033265-0.033273-0.066539-0.066539c-0.033265-0.033273-0.066539-0.066538-0.099808-0.066538-0.033265 0-0.066539-0.033273-0.099809-0.066539-0.033265-0.033273-0.066539-0.033273-0.099808-0.033273-0.033265 0-0.066539-0.033273-0.099808-0.033273-0.19959-0.03327-0.33267-0.03327-0.43247 0.033277-0.099807 0.066539-0.26615 0.13308-0.4325 0.29942 0 0-0.033266 0.033273-0.099806 0.066539-0.066539 0.033273-0.099809 0.066538-0.099809 0.099808-0.033266 0.033273-0.066538 0.066539-0.13308 0.099807-0.066538 0.033273-0.099807 0.066538-0.16635 0.066538-0.033266 0-0.099808 0-0.16635-0.033273-0.3327-0.16634-0.59886-0.29942-0.7652-0.36596-0.26615-0.099808-0.53231-0.099808-0.865 0.033273-0.33269 0.13308-0.56558 0.33269-0.69865 0.59885-0.099808 0.16635-0.23288 0.46577-0.36596 0.89827-0.16635 0.4325-0.29942 0.83173-0.39923 1.231-0.099807 0.39923-0.23288 0.79846-0.36596 1.231-0.13308 0.4325-0.19962 0.66538-0.19962 0.66538-0.13308 0.4325-0.066539 0.79846 0.16635 1.0979 0.23288 0.29942 0.59885 0.46577 1.0313 0.4325 0.19962 0 0.33269-0.06654 0.46577-0.13308 0.13308-0.06654 0.23288-0.23288 0.36596-0.4325 0.03327-0.06654 0.29942-0.69865 0.73192-1.8631 0.4325-1.1644 0.69865-1.7633 0.69865-1.7965 0.033266-0.066539 0.099806-0.13308 0.19961-0.16635 0.099807-0.033273 0.19962-0.033273 0.26615 0 0.16635 0.099808 0.23288 0.26615 0.19962 0.49904 0 0.099808-0.16635 0.53231-0.46577 1.2975-0.29942 0.76519-0.46577 1.1644-0.46577 1.231-0.033271 0.23288 0.03327 0.39923 0.16635 0.53231 0.16635 0.09981 0.33269 0.13308 0.56558 0.06654 0.23288-0.06654 0.39923-0.23288 0.49904-0.46577 0.033266-0.03327 0.16635-0.33269 0.4325-0.865 0.26615-0.53231 0.49904-1.0313 0.76519-1.5304 0.26616-0.49904 0.39923-0.76519 0.4325-0.83173 0.13308-0.16635 0.26616-0.26615 0.36596-0.26615 0.16635 0 0.26615 0.13308 0.23289 0.36596 0 0.099808-0.19962 0.56558-0.59885 1.364-0.39923 0.79846-0.59885 1.2975-0.66538 1.4971-0.066539 0.33269-0.033265 0.63212 0.13308 0.96481 0.16635 0.29942 0.39923 0.53231 0.69865 0.69865 0.09981 0.06654 0.26615 0.09981 0.46577 0.13308 0.19962 0.03327 0.4325 0.06654 0.66538 0.06654 0.23288 0 0.4325-0.03327 0.56558-0.13308 0.19962-0.06654 0.26615-0.23288 0.23288-0.4325zm-6.6871-11.145c0.03327 0.099808 0 0.19962-0.033271 0.29942-0.066538 0.099808-0.13308 0.13308-0.23288 0.16635-0.099807 0.033273-0.19962 0-0.29942-0.066538-0.099808-0.066539-0.16635-0.13308-0.16635-0.23288-0.03327-0.099808 0-0.19962 0.066538-0.29942 0.066539-0.099808 0.13308-0.13308 0.23288-0.16635 0.099807-0.033273 0.19962 0 0.29942 0.066539 0.066538 0.033273 0.099807 0.13308 0.13308 0.23289zm3.1273 15.603c0.066539 0.09981 0.099809 0.23288 0.066539 0.33269-0.033273 0.13308-0.099809 0.23288-0.19962 0.29942-0.099807 0.06654-0.23288 0.09981-0.33269 0.06654-0.13308-0.03327-0.23288-0.09981-0.29942-0.19962-0.066539-0.09981-0.099807-0.23288-0.066539-0.33269 0.033266-0.13308 0.099808-0.23288 0.19962-0.29942 0.099808-0.06654 0.23288-0.09981 0.33269-0.06654 0.099807 0.03327 0.23288 0.06654 0.29942 0.19962zm1.73-15.104c0.09981 0.16635 0.13308 0.33269 0.06654 0.53231-0.06654 0.19962-0.16635 0.33269-0.33269 0.4325-0.16635 0.099808-0.33269 0.13308-0.53231 0.066538-0.19961-0.033272-0.33269-0.16635-0.4325-0.33269-0.099808-0.16635-0.13308-0.36596-0.066538-0.53231 0.033274-0.19962 0.16635-0.33269 0.33269-0.4325 0.16635-0.099807 0.33269-0.13308 0.53231-0.099807 0.16635 0.099807 0.33269 0.19962 0.4325 0.36596zm3.0608 13.84c0.13308 0.16634 0.16635 0.36596 0.13308 0.56558-0.03327 0.19961-0.13308 0.36596-0.29942 0.49904-0.16635 0.13308-0.36596 0.16635-0.56558 0.13308s-0.36596-0.13308-0.46577-0.29942c-0.13308-0.16635-0.16635-0.36596-0.13308-0.56558 0.03327-0.19961 0.13308-0.36596 0.29942-0.49904 0.16635-0.13308 0.36596-0.16635 0.56558-0.13308 0.16635 0.03327 0.33269 0.13308 0.46577 0.29942zm2.0627-9.9808c0.09981 0.13308 0.13308 0.29942 0.09981 0.46577-0.03327 0.16635-0.09981 0.29942-0.23288 0.39923-0.13308 0.099808-0.29942 0.13308-0.46577 0.099808-0.16635-0.033273-0.29942-0.099808-0.39923-0.26615-0.09981-0.13308-0.13308-0.29942-0.09981-0.46577 0.03327-0.16635 0.09981-0.29942 0.26615-0.39923 0.13308-0.099807 0.29942-0.13308 0.46577-0.099807 0.16635 0.033273 0.29942 0.13308 0.36596 0.26615zm1.0313 4.4248c0.03327 0.13308 0 0.23289-0.06654 0.33269-0.06654 0.099808-0.16635 0.16635-0.29942 0.19962-0.13308 0.03327-0.23289 0-0.33269-0.06654-0.09981-0.066539-0.16635-0.16635-0.19962-0.29942-0.03327-0.13308 0-0.23288 0.06654-0.33269 0.06654-0.099809 0.16635-0.16635 0.29942-0.19962 0.13308-0.033274 0.23288 0 0.33269 0.066539 0.09981 0.099809 0.16635 0.19962 0.19962 0.29942zm0.76519-2.1958c0.03327 0.099808 0 0.16635-0.03327 0.26615-0.03327 0.066538-0.13308 0.13308-0.19962 0.16635-0.09981 0.033273-0.16635 0-0.26615-0.066539-0.06654-0.066538-0.13308-0.13308-0.13308-0.19962-0.03327-0.099807 0-0.16635 0.03327-0.26615 0.03327-0.066539 0.13308-0.13308 0.19962-0.13308 0.09981-0.033273 0.16635 0 0.23288 0.033273 0.09981 0.033273 0.13308 0.099807 0.16635 0.19962z" stroke-width=".33269"/>
</symbol>

<symbol id="subscribe" fill-rule="evenodd" clip-rule="evenodd" stroke-linejoin="round" stroke-miterlimit="1.414">
    <path d="M 1.3378906 0.93164062 C 1.0313679 0.93358006 0.79101562 1.184558 0.79101562 1.4824219 L 0.79101562 11.078125 C 0.79101562 11.382105 1.0378164 11.628906 1.3417969 11.628906 L 7.2226562 11.628906 L 7.2226562 12.357422 C 7.2226562 12.953266 7.6387496 13.45274 8.1953125 13.583984 L 7.7636719 16.175781 C 7.7077629 16.511084 7.9669301 16.816406 8.3066406 16.816406 L 10.439453 16.816406 C 10.706329 16.816406 10.933745 16.624128 10.980469 16.361328 L 11.458984 13.677734 L 15.523438 15.693359 C 15.887638 15.873992 16.320312 15.607283 16.320312 15.199219 L 16.320312 7.7363281 C 16.320278 7.328522 15.888196 7.0631547 15.523438 7.2441406 L 14.720703 7.6425781 C 14.720715 4.4093219 14.721349 2.8455814 14.720703 2.1035156 C 14.720383 1.7305622 14.72035 1.5595435 14.71875 1.4765625 C 14.71715 1.3935815 14.714137 1.3958313 14.710938 1.3789062 C 14.661338 1.1212387 14.434327 0.93164062 14.169922 0.93164062 C 14.139832 0.93164062 10.942768 0.93163173 7.7480469 0.93164062 C 6.1506861 0.93164506 4.5539228 0.93161062 3.3535156 0.93164062 C 2.753312 0.93165562 2.2528425 0.93161575 1.9003906 0.93164062 C 1.7241647 0.93165277 1.5840056 0.93162286 1.4882812 0.93164062 C 1.3925573 0.93165548 1.3420298 0.9316122 1.3378906 0.93164062 z M 3.1601562 2.0332031 L 12.341797 2.0332031 L 7.7382812 5.0859375 L 3.1601562 2.0332031 z M 13.619141 2.5097656 L 13.619141 8.1875 L 11.339844 9.3183594 L 8.484375 9.3183594 C 7.807004 9.3183594 7.2548944 9.856749 7.2265625 10.527344 L 1.8925781 10.527344 L 1.8925781 2.5117188 L 7.4316406 6.2050781 C 7.6161904 6.3280989 7.8581223 6.3296133 8.0429688 6.2070312 L 13.619141 2.5097656 z M 18.462891 8.5371094 C 18.391351 8.5379693 18.317668 8.5515473 18.248047 8.5820312 L 17.679688 8.8320312 C 17.401173 8.9538585 17.27462 9.2781619 17.396484 9.5566406 C 17.518419 9.8353335 17.842861 9.9616763 18.121094 9.8398438 L 18.691406 9.5917969 C 18.96992 9.4699704 19.096473 9.1456662 18.974609 8.8671875 C 18.948228 8.8068845 18.896418 8.7716916 18.853516 8.7265625 C 18.844512 8.716995 18.837748 8.7060807 18.828125 8.6972656 C 18.77966 8.6530464 18.731848 8.6200928 18.671875 8.5957031 C 18.661855 8.5915919 18.650877 8.5913881 18.640625 8.5878906 C 18.581806 8.5678918 18.525922 8.5363503 18.462891 8.5371094 z M 15.21875 8.625 L 15.21875 14.3125 L 12.019531 12.726562 L 12.019531 10.210938 L 15.21875 8.625 z M 8.484375 10.419922 L 10.917969 10.419922 L 10.917969 12.517578 L 8.484375 12.517578 C 8.39604 12.517578 8.3242188 12.445753 8.3242188 12.357422 L 8.3242188 10.580078 C 8.3242188 10.491738 8.3960405 10.419922 8.484375 10.419922 z M 17.900391 10.917969 C 17.59641 10.917969 17.349609 11.164769 17.349609 11.46875 C 17.349609 11.77273 17.59641 12.019531 17.900391 12.019531 L 18.470703 12.019531 C 18.774683 12.019531 19.021484 11.77273 19.021484 11.46875 C 19.021484 11.164769 18.774683 10.917969 18.470703 10.917969 L 17.900391 10.917969 z M 17.908203 13.048828 C 17.84517 13.048065 17.789288 13.079622 17.730469 13.099609 C 17.720217 13.103106 17.709239 13.103312 17.699219 13.107422 C 17.639246 13.131799 17.591434 13.164773 17.542969 13.208984 C 17.534053 13.21715 17.527916 13.227515 17.519531 13.236328 C 17.475783 13.281877 17.423257 13.3177 17.396484 13.378906 C 17.274621 13.657419 17.401187 13.983643 17.679688 14.105469 L 18.248047 14.353516 C 18.526527 14.475381 18.852816 14.348811 18.974609 14.070312 C 19.096472 13.791799 18.969906 13.465577 18.691406 13.34375 L 18.121094 13.095703 C 18.051464 13.065243 17.979744 13.049678 17.908203 13.048828 z M 9.3066406 13.619141 L 10.349609 13.619141 L 9.9765625 15.714844 L 8.9570312 15.714844 L 9.3066406 13.619141 z "/>
</symbol>

<symbol id="forum" fill-rule="evenodd" clip-rule="evenodd" stroke-linejoin="round" stroke-miterlimit="1.414">
    <path d="m11.821 2.8637h-9.7694c-0.85954 0-1.8487 0.76358-1.8487 1.4996v5.9208c0 0.67784 0.83811 1.1673 1.642 1.2429l-0.52318 1.986 3.3524-1.9723h7.1469c0.85954 0 1.6527-0.52114 1.6527-1.2566v-5.9208c0-0.73602-0.7937-1.4996-1.6527-1.4996zm-8.279 4.998c-0.48745 0-0.88251-0.39506-0.88251-0.88251 0-0.48745 0.39506-0.88251 0.88251-0.88251 0.48694 0 0.88251 0.39506 0.88251 0.88251 0 0.48745-0.39557 0.88251-0.88251 0.88251zm3.2963 0c-0.48745 0-0.88251-0.39506-0.88251-0.88251 0-0.48745 0.39506-0.88251 0.88251-0.88251 0.48745 0 0.88251 0.39506 0.88251 0.88251 0 0.48745-0.39506 0.88251-0.88251 0.88251zm3.2968 0c-0.48745 0-0.88302-0.39506-0.88302-0.88251 0-0.48745 0.39557-0.88251 0.88302-0.88251 0.48643 0 0.88251 0.39506 0.88251 0.88251 0 0.48745-0.39608 0.88251-0.88251 0.88251zm4.6581-1.716h-0.42977v4.7239c0 0.73551-0.42824 1.4006-1.2868 1.4006h-8.4112v0.22458c0 0.65027 0.73959 1.3067 1.4991 1.3067h6.4307l2.4602 1.4465-0.35678-1.4465h0.09442c0.75899 0 1.1015-0.65487 1.1015-1.3067v-5.2277c0-0.65027-0.34249-1.1214-1.1015-1.1214z" stroke-width=".51042"/>
</symbol>

<symbol id="contribute" fill-rule="evenodd" clip-rule="evenodd" stroke-linejoin="round" stroke-miterlimit="1.414">
    <path d="m8.5775 9.5357c-0.2797-0.15787-0.61305-0.19059-0.91824-0.090254-0.17537 0.062104-0.36977 0.035093-0.52165-0.07228-0.14522-0.103-0.23101-0.27067-0.22949-0.4488v-1.4858h-1.8922c-0.18802-0.0017061-0.36263-0.097293-0.46544-0.25469-0.0066641-0.010177-0.015883-0.01807-0.022064-0.027769-0.067239-0.11726-0.087877-0.25555-0.057824-0.38736 2e-3 -0.00808 0-0.016358 0.00322-0.024442 0-0.00276 0.00259-0.00522 0.00342-0.00808 0.01208-0.043275 0.029577-0.084929 0.052024-0.12383 0.00808-0.013409 0.012458-0.027772 0.019685-0.041466 0.1538-0.28342 0.17624-0.61971 0.061832-0.92119-0.11441-0.30139-0.35446-0.53811-0.65746-0.64814-0.051167-0.018166-0.10357-0.032621-0.15692-0.042798-0.40334-0.084263-0.82028 0.061247-1.0836 0.37823-0.26335 0.31698-0.33001 0.75352-0.17319 1.1345 0.018163 0.044037 0.039466 0.086545 0.063719 0.12744 0.020161 0.037565 0.036234 0.077033 0.048124 0.11802 0.048884 0.14989 0.032527 0.31328-0.044794 0.45051-0.071421 0.12478-0.18992 0.21589-0.32897 0.2526-0.046222 0.012081-0.093774 0.018355-0.14161 0.018449h-1.906v5.5649c0 0.46107 0.37376 0.83483 0.83483 0.83483h5.8433v-1.7641c-0.00135-0.17814 0.084643-0.3458 0.22996-0.4489 0.15122-0.10699 0.34504-0.1341 0.51984-0.07286 0.11679 0.04052 0.23957 0.06077 0.36311 0.0598 0.274-4.19e-4 0.53829-0.10224 0.74182-0.2857-0.11717-0.10412-0.1845-0.25314-0.18536-0.40988zm-7.2345 3.1896c0 0.1535-0.12459 0.27808-0.27809 0.27808-0.15379 0-0.27837-0.12459-0.27837-0.27808v-4.4521c0-0.15369 0.12459-0.27828 0.27837-0.27828 0.1535 0 0.27809 0.12459 0.27809 0.27828zm7.9288-10.288c0.31756 0.36035 0.46535 0.83949 0.40562 1.3162-0.021965 0.16377-0.068851 0.32336-0.13904 0.47305-0.35151 0.78804-1.2472 1.1767-2.063 0.89532l-0.00914 1.76h1.904c-0.15559-0.25051-0.23748-0.53991-0.23624-0.83483 2.076e-4 -0.77121 0.52802-1.4423 1.2775-1.6239 0.74952-0.18165 1.5261 0.17319 1.8793 0.8587 0.16168 0.32241 0.21712 0.68761 0.15854 1.0435 0.4837-0.00834 0.94668 0.19487 1.2678 0.55656h0.4255v-5.8433c0-0.46107-0.37376-0.83483-0.83474-0.83483h-5.8433v1.7647c0.64158-0.22787 1.3572-0.042226 1.8072 0.46887zm4.6345 6.9488c-0.19506 2e-3 -0.37595-0.10167-0.47296-0.27105-0.09958-0.17566-0.09851-0.39079 0.0028-0.5654 0.09768-0.16862 0.14941-0.35997 0.14988-0.55484 0.0016-0.24109-0.07663-0.47591-0.22252-0.66773-0.21104-0.27942-0.54039-0.44405-0.89047-0.44519-0.1146-8.38e-4 -0.22873 0.016833-0.33772 0.052308h-0.0036c-0.32053 0.1029-0.57731 0.34533-0.69828 0.65946-0.12107 0.31423-0.09331 0.66631 0.07531 0.95761 0.10128 0.17452 0.10243 0.38974 0.0026 0.56521-0.0969 0.16929-0.2779 0.27295-0.47305 0.27105h-1.9043v1.5303c0.13524-0.06571 0.27932-0.11137 0.42778-0.13533 0.66764-0.05172 1.3018 0.30044 1.6106 0.89465 0.30881 0.59431 0.23263 1.3156-0.19354 1.8323-0.44329 0.53687-1.1727 0.74315-1.8317 0.51804l-0.013121 1.7583h5.8433c0.46107 0 0.83483-0.37376 0.83483-0.83483v-5.5649zm-2.0762-2.9267c0.12116-0.30053 0.10766-0.63863-0.037-0.92861-0.14807-0.29064-0.41893-0.49949-0.73763-0.56892-0.43225-0.10091-0.88314 0.064576-1.1474 0.42132-0.2643 0.35664-0.29121 0.83616-0.068851 1.2203 0.10128 0.17452 0.10234 0.38974 0.0029 0.56521-0.097008 0.16929-0.2779 0.27295-0.47306 0.27105h-1.9044v1.4857c0.41742-0.14608 0.87582-0.12078 1.2746 0.070377 0.10405-0.10604 0.24623-0.16605 0.39478-0.16624h1.9058c-0.15569-0.25051-0.23767-0.53991-0.23614-0.83483-0.001216-0.67258 0.40438-1.2794 1.0264-1.5354zm-9.7382 0.33895c-0.1263-0.23025-0.19259-0.48874-0.1923-0.75133-7.24e-4 -0.43377 0.16814-0.85071 0.47048-1.1617 0.043653-0.044605 0.089399-0.086926 0.13762-0.12658l0.00439-0.00314c0.064669-0.052023 0.13324-0.099195 0.20505-0.14095 0.018924-0.011405 0.038137-0.022633 0.057253-0.033191 0.071043-0.038803 0.14475-0.072376 0.22045-0.10072 0.017021-0.00619 0.034428-0.010372 0.051736-0.015785 0.063148-0.020636 0.12744-0.037473 0.19259-0.050407 0.024726-0.00503 0.04917-0.010562 0.074469-0.014549 0.077226-0.011799 0.15493-0.018355 0.23291-0.019685 0.00868 0 0.016833-0.00225 0.025106-0.00225 0.046127 0 0.092349 0.00285 0.13914 0.00665h0.00322c0.062198 0.00503 0.12421 0.013313 0.18536 0.024821 0.069333 0.01417 0.13771 0.032716 0.20448 0.055733 0.46288 0.15331 0.83455 0.50282 1.016 0.95523 0.18146 0.45251 0.15426 0.96189-0.074371 1.3926-0.013598 0.025772-0.022539 0.053639-0.03728 0.07894l1.9-0.00895v-1.7663c-0.001359-0.17785 0.084443-0.34523 0.22976-0.44794 0.15103-0.1069 0.34466-0.13438 0.51946-0.073516 0.15454 0.053734 0.31908 0.072754 0.48199 0.055637 0.50986-0.059632 0.91529-0.45612 0.98605-0.96456 0.0099136-0.079792 0.011416-0.16044 0.0047505-0.24052-0.019676-0.23729-0.11602-0.46183-0.27427-0.63968-0.30139-0.33249-0.77026-0.4565-1.1966-0.31632-0.17509 0.060962-0.36882 0.033571-0.52032-0.073517-0.14551-0.10262-0.23177-0.26981-0.23082-0.44795v-1.7647h-5.8433c-0.46107 0-0.83483 0.37376-0.83483 0.83483v5.8433h1.9054c-0.016644-0.027866-0.028912-0.055732-0.043652-0.083504zm-0.74886-1.5862c0 0.15378-0.12459 0.27837-0.27809 0.27837-0.15379 0-0.27837-0.12459-0.27837-0.27837v-3.8955c0-0.1535 0.12459-0.27809 0.27837-0.27809 0.1535 0 0.27809 0.12459 0.27809 0.27809z" stroke-width=".024347"/>
</symbol>

<symbol id="arrow-right" fill-rule="evenodd" clip-rule="evenodd" stroke-linejoin="round" stroke-miterlimit="1.414">
    <path d="m9.2652 2.62c-0.2198 5.24e-4 -0.43942 0.08555-0.60674 0.25491-0.3346 0.33868-0.33332 0.88645 0.0029 1.2235l3.013 3.0206h-10.816c-0.47434 0-0.85886 0.38735-0.85886 0.8652s0.38453 0.8652 0.85886 0.8652h10.816l-3.0129 3.0206c-0.33619 0.33708-0.33748 0.88485-0.0029 1.2235 0.33465 0.33877 0.87843 0.33995 1.2146 3e-3l4.4876-4.499c2.62e-4 -2.622e-4 4.69e-4 -5.791e-4 7.72e-4 -8.549e-4 0.33636-0.33821 0.33533-0.88772 0-1.2248-2.62e-4 -2.62e-4 -4.69e-4 -5.791e-4 -7.72e-4 -8.549e-4l-4.4876-4.4991c-0.1681-0.16852-0.38812-0.25248-0.60792-0.25196z" stroke-width=".0431"/>
</symbol>

<symbol id="briefcase" fill-rule="evenodd" clip-rule="evenodd" stroke-linejoin="round" stroke-miterlimit="1.414">
    <path d="M3 0c-.55 0-1 .45-1 1v1h-1.91c-.06 0-.09.04-.09.09v2.41c0 .28.22.5.5.5h7c.28 0 .5-.22.5-.5v-2.41c0-.06-.04-.09-.09-.09h-1.91v-1c0-.55-.45-1-1-1h-2zm0 1h2v1h-2v-1zm-3 4.91v2c0 .05.04.09.09.09h7.81c.05 0 .09-.04.09-.09v-2c-.16.06-.32.09-.5.09h-7c-.18 0-.34-.04-.5-.09z" stroke-width=".0431" />
</symbol>

<symbol id="people" fill-rule="evenodd" clip-rule="evenodd" stroke-linejoin="round" stroke-miterlimit="1.414">
    <path d="M5.5 0c-.51 0-.95.35-1.22.88.45.54.72 1.28.72 2.13 0 .29-.03.55-.09.81.19.11.38.19.59.19.83 0 1.5-.9 1.5-2s-.67-2-1.5-2zm-3 1c-.83 0-1.5.9-1.5 2s.67 2 1.5 2 1.5-.9 1.5-2-.67-2-1.5-2zm4.75 3.16c-.43.51-1.02.82-1.69.84.27.38.44.84.44 1.34v.66h2v-1.66c0-.52-.31-.97-.75-1.19zm-6.5 1c-.44.22-.75.67-.75 1.19v1.66h5v-1.66c0-.52-.31-.97-.75-1.19-.45.53-1.06.84-1.75.84s-1.3-.32-1.75-.84z" stroke-width=".0431" />
</symbol>

<symbol id="blog" fill-rule="evenodd" clip-rule="evenodd" stroke-linejoin="round" stroke-miterlimit="1.414">
    <path d="m15.881 8.0785a7.7679 7.7679 0 0 1-7.7679 7.7679 7.7679 7.7679 0 0 1-7.7679-7.7679 7.7679 7.7679 0 0 1 7.7679-7.7679 7.7679 7.7679 0 0 1 7.7679 7.7679" fill="#171843" stroke-width=".12318"/>
    <path d="m12.668 11.943-1.6494-0.95095v-0.0013l0.26607-2.0571h0.0013l0.17368-0.10101 1.6482 0.95219-0.17368 0.10101z" fill="#b3b3b3" stroke-width=".12318"/>
    <g transform="matrix(.12318 0 0 .12318 .345 .31058)" fill="#fff">
        <g fill="#fff">
            <path d="m114.23 63.124c-0.021 4.84-2.8 9.27-6.99 11.69l-5.04 2.92-13.35-7.71-0.03-0.02 8.73-5.04c1.46-0.85 1.47-2.96 0-3.8l-30.51-17.62c-1.22-0.71-2.59-1.06-3.97-1.06-1.37 0-2.75 0.35-3.97 1.06l-30.52 17.62c-1.47 0.84-1.47 2.95 0 3.8l30.52 17.61c2.45 1.42 5.5 1.42 7.94 0l6.22-3.6 13.4 7.73-12.92 7.46c-6.58 3.81-14.77 3.81-21.34 0l-33.8-19.52c-4.19-2.42-6.7-6.75-6.7-11.58 0-4.84 2.51-9.17 6.7-11.59l33.8-19.53c6.57-3.79 14.75-3.79 21.34 0l33.8 19.53c4.21 2.42 6.71 6.78 6.69 11.65z" fill="#fff"/>
        </g>
    </g>
</symbol>

<symbol id="tag">
    <path d="M0 80V229.5c0 17 6.7 33.3 18.7 45.3l176 176c25 25 65.5 25 90.5 0L418.7 317.3c25-25 25-65.5 0-90.5l-176-176c-12-12-28.3-18.7-45.3-18.7H48C21.5 32 0 53.5 0 80zm112 32a32 32 0 1 1 0 64 32 32 0 1 1 0-64z"/>
</symbol>

<symbol viewBox="0 0 16 16" id="webinar" xmlns="http://www.w3.org/2000/svg">
    <path stroke="none" stroke-linecap="round" stroke-linejoin="round" stroke-width="1.341" d="m11.284 6.435 2.081-1.258c.64-.387.961-.58 1.225-.556.229.021.439.14.576.329.156.214.156.591.156 1.343v3.538c0 .752 0 1.129-.156 1.344a.806.806 0 0 1-.577.328c-.264.025-.583-.169-1.224-.556L11.284 9.69m-7.915 3.254h5.33c.904 0 1.357 0 1.702-.177a1.62 1.62 0 0 0 .706-.711c.177-.349.177-.805.177-1.716V5.784c0-.91 0-1.366-.177-1.714a1.615 1.615 0 0 0-.706-.711c-.345-.178-.798-.178-1.702-.178h-5.33c-.905 0-1.357 0-1.703.177a1.621 1.621 0 0 0-.706.711c-.176.349-.176.805-.176 1.715v4.557c0 .912 0 1.367.176 1.715.155.306.402.555.706.71.346.178.798.178 1.703.178z"/>
</symbol>

</svg>
