<?xml version="1.0" encoding="UTF-8"?>
<svg width="480px" height="480px" viewBox="0 0 480 480" version="1.1" xmlns="http://www.w3.org/2000/svg" xmlns:xlink="http://www.w3.org/1999/xlink">
    <!-- Generator: Sketch 53 (72520) - https://sketchapp.com -->
    <title>Memfault - Logo on Transparent</title>
    <desc>Created with Sketch.</desc>
    <g id="Logo-on-Transparent" stroke="none" stroke-width="1" fill="none" fill-rule="evenodd">
        <g id="Group-4" transform="translate(90.000000, 90.000000)">
            <path d="M300,150 C300,67.158 232.842,2.84217094e-14 150,2.84217094e-14 C67.158,2.84217094e-14 -1.70530257e-13,67.158 -1.70530257e-13,150 C-1.70530257e-13,232.842 67.158,300 150,300 C232.842,300 300,232.842 300,150" id="Fill-1" fill="#141845"></path>
            <polygon id="Fill-3" fill="#FFFFFF" points="72.0585 135 98.0385 150 201.9615 150 227.9415 135 196.2855 95.742 141.1185 76.869"></polygon>
            <polygon id="Fill-5" fill="#B0E6EB" points="72.0585 135 98.0385 150 201.9615 150 227.9415 135 196.2885 95.742 141.1185 76.869"></polygon>
            <path d="M240.9318,127.5 L227.9418,135 L162.9918,97.5 C155.8188,93.36 144.1788,93.36 137.0088,97.5 L72.0588,135 L59.0688,127.5 C51.8958,123.36 51.8958,116.64 59.0688,112.5 L137.0088,67.5 C144.1788,63.36 155.8188,63.36 162.9918,67.5 L240.9318,112.5 C248.1048,116.64 248.1048,123.36 240.9318,127.5" id="Fill-7" fill="#39C0CE"></path>
            <path d="M162.9903,127.5 L201.9603,150 L162.9903,172.5 C155.8173,176.64 144.1803,176.64 137.0103,172.5 L98.0403,150 L137.0103,127.5 C144.1773,123.36 155.8173,123.36 162.9903,127.5" id="Fill-9" fill="#FFFFFF"></path>
            <path d="M240.9318,187.5 L162.9918,232.5 C155.8218,236.64 144.1818,236.64 137.0088,232.5 L59.0688,187.5 C51.8958,183.36 51.8958,176.64 59.0688,172.5 L72.0588,165 L137.0088,202.5 C144.1818,206.64 155.8188,206.64 162.9918,202.5 L227.9418,165 L240.9318,172.5 C248.1048,176.64 248.1048,183.36 240.9318,187.5" id="Fill-11" fill="#39C0CE"></path>
        </g>
    </g>
</svg>